<?xml version="1.0" encoding="utf-8"?>
<!DOCTYPE svg PUBLIC "-//W3C//DTD SVG 1.1//EN" "http://www.w3.org/Graphics/SVG/1.1/DTD/svg11.dtd">
<svg xmlns="http://www.w3.org/2000/svg" xmlns:xlink="http://www.w3.org/1999/xlink" version="1.1" id="Layer_1" x="0px" y="0px" width="256px" height="256px" viewBox="0 0 256 256" enable-background="new 0 0 256 256" xml:space="preserve">
<g>
	<path opacity="0.2" fill="#827717" d="M128,247.322C62.1,247.322,8.678,193.9,8.678,128C8.678,194.274,62.1,248,128,248   s119.322-53.726,119.322-120C247.322,193.9,193.9,247.322,128,247.322z"/>
	<path opacity="0.2" fill="#FFFFFF" d="M128,8.678C193.9,8.678,247.322,62.1,247.322,128C247.322,61.726,193.9,8,128,8   S8.678,61.726,8.678,128C8.678,62.1,62.1,8.678,128,8.678z"/>
	<circle fill="#FFEB3B" cx="128" cy="128" r="119.322"/>
</g>
<linearGradient id="SVGID_1_" gradientUnits="userSpaceOnUse" x1="77.6504" y1="80.2761" x2="211.0558" y2="213.6815">
	<stop offset="0" style="stop-color:#212121;stop-opacity:0.2"/>
	<stop offset="1" style="stop-color:#212121;stop-opacity:0"/>
</linearGradient>
<path fill="url(#SVGID_1_)" d="M245.808,147.01c-0.048-0.047-35.369-35.38-35.734-35.734c-0.352-0.367-0.713-0.724-1.079-1.079  c-0.352-0.367-0.713-0.724-1.079-1.079c-12.816-13.358-34.852-18.745-43.077-21.101c3.413,4.377,5.243,9.765,5.151,14.688  c0.007,4.218-1.422,8.114-4.495,10.749c-0.02-0.498-28.062-28.613-28.103-29.523c-3.191,5.601-4.042,7.268-5.247,9.608  c-1.405-0.351-2.892-0.434-4.195-0.403c0,0,0,0.011-0.298,0.011c-0.063,0.002-0.127,0.004-0.188,0.007l-8.425-9.168  c-0.234,7.827-0.413,19.607-4.948,26.726c-0.619,0.143-22.664-22.21-22.264-22.742c-44.045,10.048-51.646,31.658-53.017,40.028  c-0.207,1.28-0.276,2.26-0.304,2.843c0.768,9.969,5.521,17.45,11.295,23.01c0.356,0.367,92.29,92.298,92.603,92.603  C195.242,240.096,237.45,199.208,245.808,147.01z"/>
<g>
	<path fill="#263238" d="M217.264,127.995c-3.536-28.699-42.565-37.644-53.07-40.781c0.223,0.263,0.434,0.533,0.646,0.804   C176.18,91.266,213.795,100.264,217.264,127.995z"/>
	<path fill="#263238" d="M101.443,116.761c17.017,1.418,17.23-20.527,17.596-32.775l5.164,9.554c0,0,4.254-0.922,7.941,0   c1.205-2.34,2.056-4.006,5.247-9.608c0.638,14.11-0.106,32.936,17.443,32.936c10.544,0,15.169-6.567,15.156-14.162   c-0.141,7.546-4.789,13.991-15.156,13.991c-17.549,0-16.805-19.115-17.443-33.442c-3.191,5.688-4.042,7.38-5.247,9.755   c-3.687-0.936-7.941,0-7.941,0l-5.164-9.701c-0.366,12.437-0.579,34.72-17.596,33.28c-10.068-0.852-14.847-6.631-15.025-13.781   C86.431,110.024,91.194,115.907,101.443,116.761z"/>
	<path fill="#263238" d="M91.826,87.97c0.19-0.253,0.376-0.506,0.576-0.756c-44.568,10.142-52.215,32.247-53.593,40.784   C40.181,119.628,47.782,98.018,91.826,87.97z"/>
</g>
<path d="M217.496,131.131c0-0.097,0-0.187,0-0.261c-0.037-0.98-0.117-1.938-0.232-2.875c-3.469-27.731-41.083-36.729-52.424-39.977  c3.413,4.377,5.243,9.765,5.151,14.688c0.013,7.595-4.611,14.162-15.156,14.162c-17.549,0-16.805-18.825-17.443-32.936  c-3.191,5.601-4.042,7.268-5.247,9.608c-3.687-0.922-7.941,0-7.941,0l-5.164-9.554c-0.366,12.248-0.579,34.194-17.596,32.775  c-10.249-0.854-15.012-6.738-15.025-13.953c-0.117-4.691,1.754-9.97,5.409-14.838c-44.045,10.048-51.646,31.658-53.017,40.028  c-0.207,1.28-0.276,2.26-0.304,2.843c1.858,24.118,27.026,33.708,33.597,36.645c-2.898-5.513-4.164-9.914-4.201-13.262  c-0.495-12.27,15.285-10.907,27.159,0.968c18.861-28.079,33.098,16.876,33.098,16.876s14.444-45.628,32.986-16.876  c20.654-16.689,27.277-9.876,27.24-0.827c0.001,0.083,0,0.168,0,0.252c0.019,4.459-1.548,9.48-3.855,12.583  C216.909,151.987,217.493,134.65,217.496,131.131z"/>

	
	
	<metadata>
		<rdf:RDF xmlns:rdf="http://www.w3.org/1999/02/22-rdf-syntax-ns#" xmlns:rdfs="http://www.w3.org/2000/01/rdf-schema#" xmlns:dc="http://purl.org/dc/elements/1.1/">
			<rdf:Description about="https://iconscout.com/legal#licenses" dc:title="Batman, Dc, Superhero, Hero, Justice, League, Earth, Saver" dc:description="Batman, Dc, Superhero, Hero, Justice, League, Earth, Saver" dc:publisher="Iconscout" dc:date="2016-12-14" dc:format="image/svg+xml" dc:language="en">
				<dc:creator>
					<rdf:Bag>
						<rdf:li>Sagar Unagar</rdf:li>
					</rdf:Bag>
				</dc:creator>
			</rdf:Description>
		</rdf:RDF>
    </metadata></svg>
