<?xml version="1.0" encoding="utf-8"?>
<!DOCTYPE svg PUBLIC "-//W3C//DTD SVG 1.1//EN" "http://www.w3.org/Graphics/SVG/1.1/DTD/svg11.dtd">
<svg xmlns="http://www.w3.org/2000/svg" xmlns:xlink="http://www.w3.org/1999/xlink" version="1.1" id="Layer_1" x="0px" y="0px" width="256px" height="256px" viewBox="0 0 256 256" enable-background="new 0 0 256 256" xml:space="preserve">
<g>
	<g>
		<path opacity="0.2" fill="#B71C1C" enable-background="new    " d="M128,247.322C62.1,247.322,8.678,193.9,8.678,128    C8.678,194.274,62.1,248,128,248s119.322-53.726,119.322-120C247.322,193.9,193.9,247.322,128,247.322z"/>
		<path opacity="0.2" fill="#FFFFFF" enable-background="new    " d="M128,8.678C193.9,8.678,247.322,62.1,247.322,128    C247.322,61.726,193.9,8,128,8S8.678,61.726,8.678,128C8.678,62.1,62.1,8.678,128,8.678z"/>
		<circle fill="#F44336" cx="128" cy="128" r="119.322"/>
	</g>
	
		<linearGradient id="SVGID_1_" gradientUnits="userSpaceOnUse" x1="437.0427" y1="599.0964" x2="576.8409" y2="738.8947" gradientTransform="matrix(1 0 0 1 -356 -535)">
		<stop offset="0" style="stop-color:#212121;stop-opacity:0.2"/>
		<stop offset="1" style="stop-color:#212121;stop-opacity:0"/>
	</linearGradient>
	<path fill="url(#SVGID_1_)" d="M247.029,136.313c-0.152-0.136-29.779-30.023-29.699-30.343c-3.313,0.016-48.476,0.517-56.742,0.517   c-5.201,0-11.195,8.125-15.009,14.317l-17.586-17.68l-10.347,17.879l-4.487,0.015c-0.014-0.014-0.028-0.026-0.042-0.039   c-0.304-0.319-0.61-0.625-0.919-0.919c-0.304-0.319-4.287-4.302-4.597-4.597c-0.304-0.319-3.368-3.383-3.677-3.677   c-0.305-0.319-0.612-0.626-0.921-0.921c-2.091-2.193-4.327-3.866-6.559-4.38c-5.479,0-51.646,0-57.79,0   c1.325,6.102,3.74,9.607,5.969,11.634c0.308,0.335,5.826,5.855,5.982,6.009c0.816,2.201,2.222,5.028,4.457,7.048   c0.289,0.323,7.009,7.041,7.321,7.323c0.713,1.767,1.708,3.163,2.922,4.251c0.289,0.331,98.755,98.762,98.952,98.952   C209.9,227.163,243.615,185.908,247.029,136.313z"/>
	<g>
		<path opacity="0.2" fill="#BF360C" enable-background="new    " d="M110.287,121.029l7.36-0.024l10.347-17.879l9.942,17.813    l7.577-0.026c3.812-6.205,9.845-14.424,15.077-14.424c8.266,0,53.428-0.5,56.742-0.517c0.054-0.212,0.11-0.415,0.161-0.633    c-1.94,0-48.5,0.526-56.902,0.526c-5.231,0-11.265,8.35-15.077,14.652l-7.577,0.026l-9.942-18.094l-10.347,18.161l-7.36,0.024    c-3.329-5.848-8.599-13.546-13.841-14.772c-5.517,0-52.334,0-57.938,0c0.043,0.221,0.1,0.411,0.146,0.625    c6.144,0,52.312,0,57.79,0C101.688,107.692,106.959,115.271,110.287,121.029z"/>
		<path fill="#FFEB3B" d="M85.867,146.233c5.205-0.182,6.542,3.28,6.542,3.28c6.366,11.487,21.882,39.483,21.882,39.483    l13.702-25.864l13.197,25.864c0,0,16.904-29.553,22.945-40.11c0,0,2.407-2.628,5.329-2.731s8.334,0.462,12.415-0.095    c6.43-0.894,11.885-3.912,12.42-12.828c-0.049,0.605,11.121,0.569,11.295-12.918c0,0,7.801,1.266,11.737-14.342    c-3.313,0.016-48.476,0.517-56.742,0.517c-5.231,0-11.265,8.22-15.077,14.424l-7.577,0.026l-9.942-17.813l-10.347,17.879    l-7.36,0.024c-3.329-5.757-8.599-13.336-13.841-14.541c-5.479,0-51.646,0-57.79,0c2.887,13.306,10.975,14.351,10.975,14.351    s2.458,12.743,11.639,12.873c0.781,8.26,5.652,11.332,11.567,12.347C77.017,146.766,80.662,146.415,85.867,146.233z"/>
	</g>
</g>

	
	
	<metadata>
		<rdf:RDF xmlns:rdf="http://www.w3.org/1999/02/22-rdf-syntax-ns#" xmlns:rdfs="http://www.w3.org/2000/01/rdf-schema#" xmlns:dc="http://purl.org/dc/elements/1.1/">
			<rdf:Description about="https://iconscout.com/legal#licenses" dc:title="Wonder, Woman, Dc, Superhero, Hero, Justice, League, Earth, Saver" dc:description="Wonder, Woman, Dc, Superhero, Hero, Justice, League, Earth, Saver" dc:publisher="Iconscout" dc:date="2016-12-14" dc:format="image/svg+xml" dc:language="en">
				<dc:creator>
					<rdf:Bag>
						<rdf:li>Sagar Unagar</rdf:li>
					</rdf:Bag>
				</dc:creator>
			</rdf:Description>
		</rdf:RDF>
    </metadata></svg>
