<?xml version="1.0" encoding="UTF-8" standalone="no"?>
<svg xmlns="http://www.w3.org/2000/svg" xmlns:xlink="http://www.w3.org/1999/xlink" id="Layer_1" viewBox="0 0 3364.3 3364.7" width="3364.3" height="3364.7"><style>.st0{clip-path:url(#SVGID_2_)}.st1{clip-path:url(#SVGID_4_)}.st2{clip-path:url(#SVGID_6_);fill:#204bff}.st3{clip-path:url(#SVGID_8_)}.st4{clip-path:url(#SVGID_12_)}.st5{clip-path:url(#SVGID_13_)}.st6{clip-path:url(#SVGID_14_)}.st7{clip-path:url(#SVGID_16_)}.st8{clip-path:url(#SVGID_19_)}.st9{clip-path:url(#SVGID_20_)}.st10{clip-path:url(#SVGID_22_)}.st11{clip-path:url(#SVGID_24_)}.st12{clip-path:url(#SVGID_28_)}.st13{clip-path:url(#SVGID_29_)}.st14{clip-path:url(#SVGID_30_)}.st15{clip-path:url(#SVGID_32_)}.st16{clip-path:url(#SVGID_35_)}.st17{clip-path:url(#SVGID_36_)}.st18{clip-path:url(#SVGID_41_)}.st19{clip-path:url(#SVGID_42_)}.st20{clip-path:url(#SVGID_43_)}.st21{fill:#fff}</style><defs><path id="SVGID_1_" d="M853.2 3352.8c-200.1-9.1-308.8-42.4-381.1-70.6-95.8-37.3-164.1-81.7-236-153.5-71.8-71.8-116.4-140.1-153.5-235.9-28.2-72.3-61.5-181-70.6-381.1-10-216.3-12-281.2-12-829.2s2.2-612.8 11.9-829.3C21 653.1 54.5 544.6 82.5 472.1 119.8 376.3 164.3 308 236 236c71.8-71.8 140.1-116.4 236-153.5C544.3 54.3 653 21 853.1 11.9 1069.5 2 1134.5 0 1682.3 0c548 0 612.8 2.2 829.3 11.9 200.1 9.1 308.6 42.6 381.1 70.6 95.8 37.1 164.1 81.7 236 153.5 71.8 71.8 116.2 140.2 153.5 236 28.2 72.3 61.5 181 70.6 381.1 9.9 216.5 11.9 281.3 11.9 829.3 0 547.8-2 612.8-11.9 829.3-9.1 200.1-42.6 308.8-70.6 381.1-37.3 95.8-81.7 164.1-153.5 235.9-71.8 71.8-140.2 116.2-236 153.5-72.3 28.2-181 61.5-381.1 70.6-216.3 9.9-281.3 11.9-829.3 11.9-547.8 0-612.8-1.9-829.1-11.9"/></defs><clipPath id="SVGID_2_"><use xlink:href="#SVGID_1_" overflow="visible"/></clipPath><g class="st0" style="clip-path: url(#SVGID_2_);"><defs><path id="SVGID_3_" d="M-5520.6-5520.5H8892.2V8885.3H-5520.6z"/></defs><clipPath id="SVGID_4_"><use xlink:href="#SVGID_3_" overflow="visible"/></clipPath><g class="st1" style="clip-path: url(#SVGID_4_);"><defs><path id="SVGID_5_" d="M-5520.6-5520.5H8892.2V8885.3H-5520.6z"/></defs><clipPath id="SVGID_6_"><use xlink:href="#SVGID_5_" overflow="visible"/></clipPath><path class="st2" d="M-5520.6-5520.5H8885.2V8885.3H-5520.6z" style="clip-path: url(#SVGID_6_); fill: #204bff;"/><g><defs><path id="SVGID_7_" d="M-5520.6-5520.5H8892.2V8885.3H-5520.6z"/></defs><clipPath id="SVGID_8_"><use xlink:href="#SVGID_7_" overflow="visible"/></clipPath><g class="st3" style="clip-path: url(#SVGID_8_);"><defs><path id="SVGID_9_" d="M-3347.1-3157.1H8892.2V7619.1H-3347.1z"/></defs><defs><path id="SVGID_10_" d="M-3347.1-3157.1H8892.2V7619.1H-3347.1z"/></defs><defs><path id="SVGID_11_" d="M-5520.6-5520.5H8892.2V8885.3H-5520.6z"/></defs><clipPath id="SVGID_12_"><use xlink:href="#SVGID_9_" overflow="visible"/></clipPath><clipPath id="SVGID_13_" class="st4" style="clip-path: url(#SVGID_12_);"><use xlink:href="#SVGID_10_" overflow="visible"/></clipPath><clipPath id="SVGID_14_" class="st5" style="clip-path: url(#SVGID_13_);"><use xlink:href="#SVGID_11_" overflow="visible"/></clipPath><g class="st6" style="clip-path: url(#SVGID_14_);"><defs><path id="SVGID_15_" d="M-3347.1-3157H8892.2V7619.2H-3347.1z"/></defs><clipPath id="SVGID_16_"><use xlink:href="#SVGID_15_" overflow="visible"/></clipPath><g><defs><path id="SVGID_17_" d="M-3347.1-3157.1H8892.2V7619.1H-3347.1z"/></defs><defs><path id="SVGID_18_" d="M-5520.6-5520.5H8892.2V8885.3H-5520.6z"/></defs><clipPath id="SVGID_19_"><use xlink:href="#SVGID_17_" overflow="visible"/></clipPath><clipPath id="SVGID_20_" class="st8" style="clip-path: url(#SVGID_19_);"><use xlink:href="#SVGID_18_" overflow="visible"/></clipPath><g class="st9" style="clip-path: url(#SVGID_20_);"><defs><path id="SVGID_21_" d="M-4585.1-2566.2H7204V8800.9H-4585.1z"/></defs><clipPath id="SVGID_22_"><use xlink:href="#SVGID_21_" overflow="visible"/></clipPath><g><defs><path id="SVGID_23_" d="M-5520.6-5520.5H8892.2V8885.3H-5520.6z"/></defs><clipPath id="SVGID_24_"><use xlink:href="#SVGID_23_" overflow="visible"/></clipPath><g class="st11" style="clip-path: url(#SVGID_24_);"><defs><path id="SVGID_25_" d="M-3150.1-399.7h8047v8047h-8047z"/></defs><defs><path id="SVGID_26_" d="M-3150.1-399.7h8047v8047h-8047z"/></defs><defs><path id="SVGID_27_" d="M-5520.6-5520.5H8892.2V8885.3H-5520.6z"/></defs><clipPath id="SVGID_28_"><use xlink:href="#SVGID_25_" overflow="visible"/></clipPath><clipPath id="SVGID_29_" class="st12" style="clip-path: url(#SVGID_28_);"><use xlink:href="#SVGID_26_" overflow="visible"/></clipPath><clipPath id="SVGID_30_" class="st13" style="clip-path: url(#SVGID_29_);"><use xlink:href="#SVGID_27_" overflow="visible"/></clipPath><g class="st14" style="clip-path: url(#SVGID_30_);"><defs><path id="SVGID_31_" d="M-3150.1-399.7h8047v8047h-8047z"/></defs><clipPath id="SVGID_32_"><use xlink:href="#SVGID_31_" overflow="visible"/></clipPath><g><defs><path id="SVGID_33_" d="M-3150.1-399.7h8047v8047h-8047z"/></defs><defs><path id="SVGID_34_" d="M-5520.6-5520.5H8892.2V8885.3H-5520.6z"/></defs><clipPath id="SVGID_35_"><use xlink:href="#SVGID_33_" overflow="visible"/></clipPath><clipPath id="SVGID_36_" class="st16" style="clip-path: url(#SVGID_35_);"><use xlink:href="#SVGID_34_" overflow="visible"/></clipPath><g class="st17" style="clip-path: url(#SVGID_36_);"><defs><path id="SVGID_37_" d="M-2024.7 922.7h6499.5v6499.5h-6499.5z"/></defs><defs><path id="SVGID_38_" d="M-5520.6-5520.5H8892.2V8885.3H-5520.6z"/></defs><defs><path id="SVGID_39_" d="M-2024.7 922.7h6499.5v6499.5h-6499.5z"/></defs><defs><path id="SVGID_40_" d="M-5520.6-5520.5H8892.2V8885.3H-5520.6z"/></defs><clipPath id="SVGID_41_"><use xlink:href="#SVGID_37_" overflow="visible"/></clipPath><clipPath id="SVGID_42_" class="st18" style="clip-path: url(#SVGID_41_);"><use xlink:href="#SVGID_38_" overflow="visible"/></clipPath><clipPath id="SVGID_43_" class="st19" style="clip-path: url(#SVGID_42_);"><use xlink:href="#SVGID_39_" overflow="visible"/></clipPath><clipPath id="SVGID_44_" class="st20" style="clip-path: url(#SVGID_43_);"><use xlink:href="#SVGID_40_" overflow="visible"/></clipPath></g></g></g></g></g></g></g></g></g></g></g></g><path class="st21" d="M1269.7 1682.4c0-227.9 184.7-412.7 412.6-412.7s412.7 184.8 412.7 412.7-184.8 412.7-412.7 412.7-412.6-184.8-412.6-412.7m-223.1 0c0 351.1 284.6 635.7 635.7 635.7s635.7-284.6 635.7-635.7-284.6-635.7-635.7-635.7-635.7 284.6-635.7 635.7m1148-660.9c0 82 66.5 148.6 148.6 148.6 82 0 148.6-66.6 148.6-148.6S2425.3 873 2343.2 873s-148.6 66.5-148.6 148.5M1182.1 2690.1c-120.7-5.5-186.3-25.6-229.9-42.6-57.8-22.5-99-49.3-142.4-92.6-43.3-43.3-70.2-84.5-92.6-142.3-17-43.6-37.1-109.2-42.6-229.9-6-130.5-7.2-169.7-7.2-500.3s1.3-369.7 7.2-500.3c5.5-120.7 25.7-186.2 42.6-229.9 22.5-57.8 49.3-99 92.6-142.4 43.3-43.3 84.5-70.2 142.4-92.6 43.6-17 109.2-37.1 229.9-42.6 130.5-6 169.7-7.2 500.2-7.2 330.6 0 369.7 1.3 500.3 7.2 120.7 5.5 186.2 25.7 229.9 42.6 57.8 22.4 99 49.3 142.4 92.6 43.3 43.3 70.1 84.6 92.6 142.4 17 43.6 37.1 109.2 42.6 229.9 6 130.6 7.2 169.7 7.2 500.3 0 330.5-1.2 369.7-7.2 500.3-5.5 120.7-25.7 186.3-42.6 229.9-22.5 57.8-49.3 99-92.6 142.3s-84.6 70.1-142.4 92.6c-43.6 17-109.2 37.1-229.9 42.6-130.5 6-169.7 7.2-500.3 7.2-330.5 0-369.7-1.2-500.2-7.2m-10.2-2238.2c-131.8 6-221.8 26.9-300.5 57.5C790 541 721 583.4 652.1 652.2 583.3 721 540.9 790 509.3 871.5c-30.6 78.7-51.5 168.7-57.5 300.5-6.1 132-7.5 174.2-7.5 510.4s1.4 378.4 7.5 510.4c6 131.8 26.9 221.8 57.5 300.5 31.6 81.4 73.9 150.5 142.8 219.3 68.8 68.8 137.8 111.1 219.3 142.8 78.8 30.6 168.7 51.5 300.5 57.5 132.1 6 174.2 7.5 510.4 7.5 336.3 0 378.4-1.4 510.4-7.5 131.8-6 221.8-26.9 300.5-57.5 81.4-31.7 150.4-74 219.3-142.8 68.8-68.8 111.1-137.9 142.8-219.3 30.6-78.7 51.6-168.7 57.5-300.5 6-132.1 7.4-174.2 7.4-510.4s-1.4-378.4-7.4-510.4c-6-131.8-26.9-221.8-57.5-300.5-31.7-81.4-74-150.4-142.8-219.3-68.8-68.8-137.9-111.2-219.2-142.8-78.8-30.6-168.8-51.6-300.5-57.5-132-6-174.2-7.5-510.4-7.5-336.3 0-378.4 1.4-510.5 7.5" style="fill: #fff;"/>
	<metadata>
		<rdf:RDF xmlns:rdf="http://www.w3.org/1999/02/22-rdf-syntax-ns#" xmlns:rdfs="http://www.w3.org/2000/01/rdf-schema#" xmlns:dc="http://purl.org/dc/elements/1.1/">
			<rdf:Description about="https://iconscout.com/legal#licenses" dc:title="instagram-2-1" dc:description="instagram-2-1" dc:publisher="Iconscout" dc:date="2017-06-06" dc:format="image/svg+xml" dc:language="en">
				<dc:creator>
					<rdf:Bag>
						<rdf:li>Icon Mafia</rdf:li>
					</rdf:Bag>
				</dc:creator>
			</rdf:Description>
		</rdf:RDF>
    </metadata></svg>
