<?xml version="1.0" encoding="UTF-8" standalone="no"?>
<svg xmlns="http://www.w3.org/2000/svg" xmlns:xlink="http://www.w3.org/1999/xlink" id="Layer_1" viewBox="0 0 2476 2476" width="2500" height="2500"><style>.st0{clip-path:url(#SVGID_2_)}.st1{enable-background:new}.st2{clip-path:url(#SVGID_5_);fill:#fff}.st3{clip-path:url(#SVGID_7_)}.st4{clip-path:url(#SVGID_9_)}.st5{clip-path:url(#SVGID_11_);fill:#204bff}.st6{clip-path:url(#SVGID_13_)}.st7{clip-path:url(#SVGID_16_)}.st8{clip-path:url(#SVGID_17_)}.st9{clip-path:url(#SVGID_19_)}.st10{clip-path:url(#SVGID_21_)}.st11{clip-path:url(#SVGID_23_)}.st12{clip-path:url(#SVGID_26_)}.st13{clip-path:url(#SVGID_27_)}.st14{clip-path:url(#SVGID_29_)}.st15{clip-path:url(#SVGID_32_)}.st16{clip-path:url(#SVGID_33_)}.st17{clip-path:url(#SVGID_35_)}.st18{clip-path:url(#SVGID_37_)}.st19{clip-path:url(#SVGID_39_)}.st20{clip-path:url(#SVGID_41_)}.st21{opacity:.45}.st22{clip-path:url(#SVGID_43_)}.st23{clip-path:url(#SVGID_45_)}</style><defs><path id="SVGID_1_" d="M825.4 1238c0-227.9 184.7-412.7 412.6-412.7s412.7 184.8 412.7 412.7-184.8 412.7-412.7 412.7-412.6-184.8-412.6-412.7m-223.1 0c0 351.1 284.6 635.7 635.7 635.7s635.7-284.6 635.7-635.7-284.6-635.7-635.7-635.7S602.3 886.9 602.3 1238m1148-660.9c0 82 66.5 148.6 148.6 148.6 82 0 148.6-66.6 148.6-148.6s-66.5-148.5-148.6-148.5-148.6 66.5-148.6 148.5M737.8 2245.7c-120.7-5.5-186.3-25.6-229.9-42.6-57.8-22.5-99-49.3-142.4-92.6-43.3-43.3-70.2-84.5-92.6-142.3-17-43.6-37.1-109.2-42.6-229.9-6-130.5-7.2-169.7-7.2-500.3s1.3-369.7 7.2-500.3c5.5-120.7 25.7-186.2 42.6-229.9 22.5-57.8 49.3-99 92.6-142.4 43.3-43.3 84.5-70.2 142.4-92.6 43.6-17 109.2-37.1 229.9-42.6 130.5-6 169.7-7.2 500.2-7.2 330.6 0 369.7 1.3 500.3 7.2 120.7 5.5 186.2 25.7 229.9 42.6 57.8 22.4 99 49.3 142.4 92.6 43.3 43.3 70.1 84.6 92.6 142.4 17 43.6 37.1 109.2 42.6 229.9 6 130.6 7.2 169.7 7.2 500.3 0 330.5-1.2 369.7-7.2 500.3-5.5 120.7-25.7 186.3-42.6 229.9-22.5 57.8-49.3 99-92.6 142.3s-84.6 70.1-142.4 92.6c-43.6 17-109.2 37.1-229.9 42.6-130.5 6-169.7 7.2-500.3 7.2-330.5 0-369.7-1.2-500.2-7.2M727.6 7.5c-131.8 6-221.8 26.9-300.5 57.5-81.4 31.6-150.4 74-219.3 142.8C139 276.6 96.6 345.6 65 427.1 34.4 505.8 13.5 595.8 7.5 727.6 1.4 859.6 0 901.8 0 1238s1.4 378.4 7.5 510.4c6 131.8 26.9 221.8 57.5 300.5 31.6 81.4 73.9 150.5 142.8 219.3 68.8 68.8 137.8 111.1 219.3 142.8 78.8 30.6 168.7 51.5 300.5 57.5 132.1 6 174.2 7.5 510.4 7.5 336.3 0 378.4-1.4 510.4-7.5 131.8-6 221.8-26.9 300.5-57.5 81.4-31.7 150.4-74 219.3-142.8 68.8-68.8 111.1-137.9 142.8-219.3 30.6-78.7 51.6-168.7 57.5-300.5 6-132.1 7.4-174.2 7.4-510.4s-1.4-378.4-7.4-510.4c-6-131.8-26.9-221.8-57.5-300.5-31.7-81.4-74-150.4-142.8-219.3C2199.4 139 2130.3 96.6 2049 65c-78.8-30.6-168.8-51.6-300.5-57.5-132-6-174.2-7.5-510.4-7.5-336.3 0-378.4 1.4-510.5 7.5"/></defs><clipPath id="SVGID_2_"><use xlink:href="#SVGID_1_" overflow="visible"/></clipPath><path class="st0" d="M-5964.9-5964.9H8447.9V8440.9H-5964.9z" style="clip-path: url(#SVGID_2_);"/><g class="st1" style="enable-background: new;"><defs><path id="SVGID_4_" d="M825.4 1238c0-227.9 184.7-412.7 412.6-412.7s412.7 184.8 412.7 412.7-184.8 412.7-412.7 412.7-412.6-184.8-412.6-412.7m-223.1 0c0 351.1 284.6 635.7 635.7 635.7s635.7-284.6 635.7-635.7-284.6-635.7-635.7-635.7S602.3 886.9 602.3 1238m1148-660.9c0 82 66.5 148.6 148.6 148.6 82 0 148.6-66.6 148.6-148.6s-66.5-148.5-148.6-148.5-148.6 66.5-148.6 148.5M737.8 2245.7c-120.7-5.5-186.3-25.6-229.9-42.6-57.8-22.5-99-49.3-142.4-92.6-43.3-43.3-70.2-84.5-92.6-142.3-17-43.6-37.1-109.2-42.6-229.9-6-130.5-7.2-169.7-7.2-500.3s1.3-369.7 7.2-500.3c5.5-120.7 25.7-186.2 42.6-229.9 22.5-57.8 49.3-99 92.6-142.4 43.3-43.3 84.5-70.2 142.4-92.6 43.6-17 109.2-37.1 229.9-42.6 130.5-6 169.7-7.2 500.2-7.2 330.6 0 369.7 1.3 500.3 7.2 120.7 5.5 186.2 25.7 229.9 42.6 57.8 22.4 99 49.3 142.4 92.6 43.3 43.3 70.1 84.6 92.6 142.4 17 43.6 37.1 109.2 42.6 229.9 6 130.6 7.2 169.7 7.2 500.3 0 330.5-1.2 369.7-7.2 500.3-5.5 120.7-25.7 186.3-42.6 229.9-22.5 57.8-49.3 99-92.6 142.3s-84.6 70.1-142.4 92.6c-43.6 17-109.2 37.1-229.9 42.6-130.5 6-169.7 7.2-500.3 7.2-330.5 0-369.7-1.2-500.2-7.2M727.6 7.5c-131.8 6-221.8 26.9-300.5 57.5-81.4 31.6-150.4 74-219.3 142.8C139 276.6 96.6 345.6 65 427.1 34.4 505.8 13.5 595.8 7.5 727.6 1.4 859.6 0 901.8 0 1238s1.4 378.4 7.5 510.4c6 131.8 26.9 221.8 57.5 300.5 31.6 81.4 73.9 150.5 142.8 219.3 68.8 68.8 137.8 111.1 219.3 142.8 78.8 30.6 168.7 51.5 300.5 57.5 132.1 6 174.2 7.5 510.4 7.5 336.3 0 378.4-1.4 510.4-7.5 131.8-6 221.8-26.9 300.5-57.5 81.4-31.7 150.4-74 219.3-142.8 68.8-68.8 111.1-137.9 142.8-219.3 30.6-78.7 51.6-168.7 57.5-300.5 6-132.1 7.4-174.2 7.4-510.4s-1.4-378.4-7.4-510.4c-6-131.8-26.9-221.8-57.5-300.5-31.7-81.4-74-150.4-142.8-219.3C2199.4 139 2130.3 96.6 2049 65c-78.8-30.6-168.8-51.6-300.5-57.5-132-6-174.2-7.5-510.4-7.5-336.3 0-378.4 1.4-510.5 7.5"/></defs><clipPath id="SVGID_5_"><use xlink:href="#SVGID_4_" overflow="visible"/></clipPath><path class="st2" d="M-450.2-450.2h3376.4v3376.4H-450.2z" style="clip-path: url(#SVGID_5_); fill: #fff;"/></g><g><defs><path id="SVGID_6_" d="M825.4 1238c0-227.9 184.7-412.7 412.6-412.7s412.7 184.8 412.7 412.7-184.8 412.7-412.7 412.7-412.6-184.8-412.6-412.7m-223.1 0c0 351.1 284.6 635.7 635.7 635.7s635.7-284.6 635.7-635.7-284.6-635.7-635.7-635.7S602.3 886.9 602.3 1238m1148-660.9c0 82 66.5 148.6 148.6 148.6 82 0 148.6-66.6 148.6-148.6s-66.5-148.5-148.6-148.5-148.6 66.5-148.6 148.5M737.8 2245.7c-120.7-5.5-186.3-25.6-229.9-42.6-57.8-22.5-99-49.3-142.4-92.6-43.3-43.3-70.2-84.5-92.6-142.3-17-43.6-37.1-109.2-42.6-229.9-6-130.5-7.2-169.7-7.2-500.3s1.3-369.7 7.2-500.3c5.5-120.7 25.7-186.2 42.6-229.9 22.5-57.8 49.3-99 92.6-142.4 43.3-43.3 84.5-70.2 142.4-92.6 43.6-17 109.2-37.1 229.9-42.6 130.5-6 169.7-7.2 500.2-7.2 330.6 0 369.7 1.3 500.3 7.2 120.7 5.5 186.2 25.7 229.9 42.6 57.8 22.4 99 49.3 142.4 92.6 43.3 43.3 70.1 84.6 92.6 142.4 17 43.6 37.1 109.2 42.6 229.9 6 130.6 7.2 169.7 7.2 500.3 0 330.5-1.2 369.7-7.2 500.3-5.5 120.7-25.7 186.3-42.6 229.9-22.5 57.8-49.3 99-92.6 142.3s-84.6 70.1-142.4 92.6c-43.6 17-109.2 37.1-229.9 42.6-130.5 6-169.7 7.2-500.3 7.2-330.5 0-369.7-1.2-500.2-7.2M727.6 7.5c-131.8 6-221.8 26.9-300.5 57.5-81.4 31.6-150.4 74-219.3 142.8C139 276.6 96.6 345.6 65 427.1 34.4 505.8 13.5 595.8 7.5 727.6 1.4 859.6 0 901.8 0 1238s1.4 378.4 7.5 510.4c6 131.8 26.9 221.8 57.5 300.5 31.6 81.4 73.9 150.5 142.8 219.3 68.8 68.8 137.8 111.1 219.3 142.8 78.8 30.6 168.7 51.5 300.5 57.5 132.1 6 174.2 7.5 510.4 7.5 336.3 0 378.4-1.4 510.4-7.5 131.8-6 221.8-26.9 300.5-57.5 81.4-31.7 150.4-74 219.3-142.8 68.8-68.8 111.1-137.9 142.8-219.3 30.6-78.7 51.6-168.7 57.5-300.5 6-132.1 7.4-174.2 7.4-510.4s-1.4-378.4-7.4-510.4c-6-131.8-26.9-221.8-57.5-300.5-31.7-81.4-74-150.4-142.8-219.3C2199.4 139 2130.3 96.6 2049 65c-78.8-30.6-168.8-51.6-300.5-57.5-132-6-174.2-7.5-510.4-7.5-336.3 0-378.4 1.4-510.5 7.5"/></defs><clipPath id="SVGID_7_"><use xlink:href="#SVGID_6_" overflow="visible"/></clipPath><g class="st3" style="clip-path: url(#SVGID_7_);"><defs><path id="SVGID_8_" d="M-5964.9-5964.9H8447.9V8440.9H-5964.9z"/></defs><clipPath id="SVGID_9_"><use xlink:href="#SVGID_8_" overflow="visible"/></clipPath><g class="st4" style="clip-path: url(#SVGID_9_);"><defs><path id="SVGID_10_" d="M-5964.9-5964.9H8447.9V8440.9H-5964.9z"/></defs><clipPath id="SVGID_11_"><use xlink:href="#SVGID_10_" overflow="visible"/></clipPath><path class="st5" d="M-5964.9-5964.9H8440.9V8440.9H-5964.9z" style="clip-path: url(#SVGID_11_); fill: #204bff;"/><g><defs><path id="SVGID_12_" d="M-5964.9-5964.9H8447.9V8440.9H-5964.9z"/></defs><clipPath id="SVGID_13_"><use xlink:href="#SVGID_12_" overflow="visible"/></clipPath><g class="st6" style="clip-path: url(#SVGID_13_);"><defs><path id="SVGID_14_" d="M-3791.4-3601.5H8447.9V7174.7H-3791.4z"/></defs><defs><path id="SVGID_15_" d="M-5964.9-5964.9H8447.9V8440.9H-5964.9z"/></defs><clipPath id="SVGID_16_"><use xlink:href="#SVGID_14_" overflow="visible"/></clipPath><clipPath id="SVGID_17_" class="st7" style="clip-path: url(#SVGID_16_);"><use xlink:href="#SVGID_15_" overflow="visible"/></clipPath><g class="st8" style="clip-path: url(#SVGID_17_);"><defs><path id="SVGID_18_" d="M-3791.4-3601.4H8447.9V7174.8H-3791.4z"/></defs><clipPath id="SVGID_19_"><use xlink:href="#SVGID_18_" overflow="visible"/></clipPath></g><g class="st8" style="clip-path: url(#SVGID_17_);"><defs><path id="SVGID_20_" d="M-5029.4-3010.6H6759.7V8356.5H-5029.4z"/></defs><clipPath id="SVGID_21_"><use xlink:href="#SVGID_20_" overflow="visible"/></clipPath><g><defs><path id="SVGID_22_" d="M-5964.9-5964.9H8447.9V8440.9H-5964.9z"/></defs><clipPath id="SVGID_23_"><use xlink:href="#SVGID_22_" overflow="visible"/></clipPath><g class="st11" style="clip-path: url(#SVGID_23_);"><defs><path id="SVGID_24_" d="M-3594.4-844.1h8047v8047h-8047z"/></defs><defs><path id="SVGID_25_" d="M-5964.9-5964.9H8447.9V8440.9H-5964.9z"/></defs><clipPath id="SVGID_26_"><use xlink:href="#SVGID_24_" overflow="visible"/></clipPath><clipPath id="SVGID_27_" class="st12" style="clip-path: url(#SVGID_26_);"><use xlink:href="#SVGID_25_" overflow="visible"/></clipPath><g class="st13" style="clip-path: url(#SVGID_27_);"><defs><path id="SVGID_28_" d="M-3594.4-844.1h8047v8047h-8047z"/></defs><clipPath id="SVGID_29_"><use xlink:href="#SVGID_28_" overflow="visible"/></clipPath></g><g class="st13" style="clip-path: url(#SVGID_27_);"><defs><path id="SVGID_30_" d="M-2469 478.3h6499.5v6499.5H-2469z"/></defs><defs><path id="SVGID_31_" d="M-5964.9-5964.9H8447.9V8440.9H-5964.9z"/></defs><clipPath id="SVGID_32_"><use xlink:href="#SVGID_30_" overflow="visible"/></clipPath><clipPath id="SVGID_33_" class="st15" style="clip-path: url(#SVGID_32_);"><use xlink:href="#SVGID_31_" overflow="visible"/></clipPath><g class="st16" style="clip-path: url(#SVGID_33_);"><defs><path id="SVGID_34_" d="M-2469 478.3h6499.5v6499.5H-2469z"/></defs><clipPath id="SVGID_35_"><use xlink:href="#SVGID_34_" overflow="visible"/></clipPath></g><g class="st16" style="clip-path: url(#SVGID_33_);"><defs><path id="SVGID_36_" d="M-2891 900.4h6415.1v6218.1H-2891z"/></defs><clipPath id="SVGID_37_"><use xlink:href="#SVGID_36_" overflow="visible"/></clipPath><g><defs><path id="SVGID_38_" d="M-5964.9-5964.9H8447.9V8440.9H-5964.9z"/></defs><clipPath id="SVGID_39_"><use xlink:href="#SVGID_38_" overflow="visible"/></clipPath><g class="st19" style="clip-path: url(#SVGID_39_);"><defs><path id="SVGID_40_" d="M-5964.9-5964.9H8447.9V8440.9H-5964.9z"/></defs><clipPath id="SVGID_41_"><use xlink:href="#SVGID_40_" overflow="visible"/></clipPath><g class="st20 st21" style="clip-path: url(#SVGID_41_); opacity: .45;"><defs><path id="SVGID_42_" class="st21" d="M-5760.9-4333H5718.7v5908.6H-5760.9z" style="opacity: .45;"/></defs><clipPath id="SVGID_43_"><use xlink:href="#SVGID_42_" overflow="visible"/></clipPath><g class="st22" style="clip-path: url(#SVGID_43_);"><defs><path id="SVGID_44_" d="M-5760.9-4333H5718.7v5908.6H-5760.9z"/></defs><clipPath id="SVGID_45_"><use xlink:href="#SVGID_44_" overflow="visible"/></clipPath></g></g></g></g></g></g></g></g></g></g></g></g></g></g>
	<metadata>
		<rdf:RDF xmlns:rdf="http://www.w3.org/1999/02/22-rdf-syntax-ns#" xmlns:rdfs="http://www.w3.org/2000/01/rdf-schema#" xmlns:dc="http://purl.org/dc/elements/1.1/">
			<rdf:Description about="https://iconscout.com/legal#licenses" dc:title="instagram-2016" dc:description="instagram-2016" dc:publisher="Iconscout" dc:date="2017-06-06" dc:format="image/svg+xml" dc:language="en">
				<dc:creator>
					<rdf:Bag>
						<rdf:li>Icon Mafia</rdf:li>
					</rdf:Bag>
				</dc:creator>
			</rdf:Description>
		</rdf:RDF>
    </metadata></svg>
