<?xml version="1.0" encoding="UTF-8"?><svg xmlns="http://www.w3.org/2000/svg" xmlns:xlink="http://www.w3.org/1999/xlink" width="470px" height="468px" viewBox="0 0 470 468" version="1.1"><title>samsung_account</title><defs><path d="M9.635 132.808C24.782 59.782 71.388 19.109 144.085 6.822c53.74-9.081 107.5-9.196 161.15.255 74.852 13.185 119.85 56.23 134.185 130.36 11.075 57.29 11.249 115.191-.174 172.427-15.324 72.52-63.132 117.285-135.561 129.527-53.74 9.08-107.5 9.195-161.15-.255-74.852-13.186-120.05-58.38-134.384-132.509-11.64-57.668-10.52-115.935 1.484-173.82z" id="path-1"/><filter x="-5.9%" y="-3.9%" width="111.8%" height="111.9%" filterUnits="objectBoundingBox" id="filter-2"><feOffset dx="0" dy="5" in="SourceAlpha" result="shadowOffsetOuter1"/><feGaussianBlur stdDeviation="4" in="shadowOffsetOuter1" result="shadowBlurOuter1"/><feColorMatrix values="0 0 0 0 0 0 0 0 0 0 0 0 0 0 0 0 0 0 0.078125 0" type="matrix" in="shadowBlurOuter1" result="shadowMatrixOuter1"/><feOffset dx="0" dy="4" in="SourceAlpha" result="shadowOffsetOuter2"/><feGaussianBlur stdDeviation="5.5" in="shadowOffsetOuter2" result="shadowBlurOuter2"/><feColorMatrix values="0 0 0 0 0 0 0 0 0 0 0 0 0 0 0 0 0 0 0.210824275 0" type="matrix" in="shadowBlurOuter2" result="shadowMatrixOuter2"/><feMerge><feMergeNode in="shadowMatrixOuter1"/><feMergeNode in="shadowMatrixOuter2"/></feMerge></filter></defs><g id="S8-/-S8+-icons" stroke="none" stroke-width="1" fill="none" fill-rule="evenodd"><g id="icons" transform="translate(-21.000000, -26.000000)"><g id="samsung_account"><g transform="translate(32.000000, 33.000000)"><use fill="#000" fill-opacity="1" filter="url(#filter-2)" xlink:href="#path-1"/><use fill="#2C8BE2" fill-rule="evenodd" xlink:href="#path-1"/></g><path d="M224.5 348.733c-30.971 0-59.241-11.243-81.081-29.803 16.061-30.317 46.375-42.475 81.081-42.475 34.705 0 65.02 12.159 81.08 42.475-21.839 18.56-50.108 29.803-81.08 29.803M224.5 79C304.191 79 369 143.81 369 223.5c0 79.692-64.809 144.5-144.5 144.5-41.004 0-78.049-17.175-104.37-44.69.6-1.18 9.099-18.476 9.141-18.428 19.843-33.312 55.062-47.694 95.229-47.694s75.386 14.382 95.229 47.694c18.699-21.877 30.004-50.282 30.004-81.382 0-69.279-55.955-125.234-125.233-125.234S99.267 154.221 99.267 223.5c0 14.569 2.481 28.546 7.04 41.536-5.889 2.738-11.555 5.873-17.094 9.238C83.264 258.469 80 241.36 80 223.5 80 143.81 144.809 79 224.5 79zM187.544 187.44c0-20.586 17.107-37.342 38.726-37.342 21.617 0 38.724 16.756 38.724 37.342s-17.107 37.342-38.724 37.342c-21.62 0-38.726-16.756-38.726-37.342zm94.047 0c0-29.827-24.998-53.939-55.321-53.939-30.324 0-55.323 24.112-55.323 53.939 0 29.828 24.999 53.939 55.323 53.939 30.323 0 55.32-24.111 55.32-53.939" fill="#FFF" transform="translate(32.000000, 33.000000)"/></g></g></g><metadata><rdf:RDF xmlns:rdf="http://www.w3.org/1999/02/22-rdf-syntax-ns#" xmlns:rdfs="http://www.w3.org/2000/01/rdf-schema#" xmlns:dc="http://purl.org/dc/elements/1.1/"><rdf:Description about="https://iconscout.com/legal#licenses" dc:title="samsung,account" dc:description="samsung,account" dc:publisher="Iconscout" dc:date="2017-09-26" dc:format="image/svg+xml" dc:language="en"><dc:creator><rdf:Bag><rdf:li>Tagincev Kirill</rdf:li></rdf:Bag></dc:creator></rdf:Description></rdf:RDF></metadata></svg>