<?xml version="1.0" encoding="UTF-8"?><svg xmlns="http://www.w3.org/2000/svg" xmlns:xlink="http://www.w3.org/1999/xlink" width="470px" height="468px" viewBox="0 0 470 468" version="1.1"><title>app_drawer</title><defs><path d="M9.635 132.808C24.782 59.782 71.388 19.109 144.085 6.822c53.74-9.081 107.5-9.196 161.15.255 74.852 13.185 119.85 56.23 134.185 130.36 11.075 57.29 11.249 115.191-.174 172.427-15.324 72.52-63.132 117.285-135.561 129.527-53.74 9.08-107.5 9.195-161.15-.255-74.852-13.186-120.05-58.38-134.384-132.509-11.64-57.668-10.52-115.935 1.484-173.82z" id="path-1"/><filter x="-5.9%" y="-3.9%" width="111.8%" height="111.9%" filterUnits="objectBoundingBox" id="filter-2"><feOffset dx="0" dy="5" in="SourceAlpha" result="shadowOffsetOuter1"/><feGaussianBlur stdDeviation="4" in="shadowOffsetOuter1" result="shadowBlurOuter1"/><feColorMatrix values="0 0 0 0 0 0 0 0 0 0 0 0 0 0 0 0 0 0 0.078125 0" type="matrix" in="shadowBlurOuter1" result="shadowMatrixOuter1"/><feOffset dx="0" dy="4" in="SourceAlpha" result="shadowOffsetOuter2"/><feGaussianBlur stdDeviation="5.5" in="shadowOffsetOuter2" result="shadowBlurOuter2"/><feColorMatrix values="0 0 0 0 0 0 0 0 0 0 0 0 0 0 0 0 0 0 0.210824275 0" type="matrix" in="shadowBlurOuter2" result="shadowMatrixOuter2"/><feMerge><feMergeNode in="shadowMatrixOuter1"/><feMergeNode in="shadowMatrixOuter2"/></feMerge></filter></defs><g id="S8-/-S8+-icons" stroke="none" stroke-width="1" fill="none" fill-rule="evenodd"><g id="icons" transform="translate(-21.000000, -26.000000)"><g id="app_drawer"><g transform="translate(32.000000, 33.000000)"><use fill="#000" fill-opacity="1" filter="url(#filter-2)" xlink:href="#path-1"/><use fill="#F8F9F9" fill-rule="evenodd" xlink:href="#path-1"/></g><path d="M140.31 153.57c-10.665 0-19.31-8.634-19.31-19.285 0-10.65 8.645-19.285 19.31-19.285 10.664 0 19.31 8.634 19.31 19.285 0 10.65-8.646 19.285-19.31 19.285zm0 89.618c-10.665 0-19.31-8.634-19.31-19.285 0-10.65 8.645-19.285 19.31-19.285 10.664 0 19.31 8.634 19.31 19.285s-8.646 19.285-19.31 19.285zm0 82.812c-10.665 0-19.31-8.634-19.31-19.285 0-10.65 8.645-19.285 19.31-19.285 10.664 0 19.31 8.634 19.31 19.285 0 10.65-8.646 19.285-19.31 19.285zm85.19-172.43c-10.664 0-19.31-8.634-19.31-19.285 0-10.65 8.646-19.285 19.31-19.285 10.664 0 19.31 8.634 19.31 19.285 0 10.65-8.646 19.285-19.31 19.285zm0 89.618c-10.664 0-19.31-8.634-19.31-19.285 0-10.65 8.646-19.285 19.31-19.285 10.664 0 19.31 8.634 19.31 19.285s-8.646 19.285-19.31 19.285zm0 82.812c-10.664 0-19.31-8.634-19.31-19.285 0-10.65 8.646-19.285 19.31-19.285 10.664 0 19.31 8.634 19.31 19.285 0 10.65-8.646 19.285-19.31 19.285zm85.19-172.43c-10.664 0-19.31-8.634-19.31-19.285 0-10.65 8.646-19.285 19.31-19.285 10.665 0 19.31 8.634 19.31 19.285 0 10.65-8.645 19.285-19.31 19.285zm0 89.618c-10.664 0-19.31-8.634-19.31-19.285 0-10.65 8.646-19.285 19.31-19.285 10.665 0 19.31 8.634 19.31 19.285s-8.645 19.285-19.31 19.285zm0 82.812c-10.664 0-19.31-8.634-19.31-19.285 0-10.65 8.646-19.285 19.31-19.285 10.665 0 19.31 8.634 19.31 19.285 0 10.65-8.645 19.285-19.31 19.285z" fill="#7A7E8E" transform="translate(32.000000, 33.000000)"/></g></g></g><metadata><rdf:RDF xmlns:rdf="http://www.w3.org/1999/02/22-rdf-syntax-ns#" xmlns:rdfs="http://www.w3.org/2000/01/rdf-schema#" xmlns:dc="http://purl.org/dc/elements/1.1/"><rdf:Description about="https://iconscout.com/legal#licenses" dc:title="app,drawer" dc:description="app,drawer" dc:publisher="Iconscout" dc:date="2017-09-26" dc:format="image/svg+xml" dc:language="en"><dc:creator><rdf:Bag><rdf:li>Tagincev Kirill</rdf:li></rdf:Bag></dc:creator></rdf:Description></rdf:RDF></metadata></svg>