<?xml version="1.0" encoding="UTF-8"?><svg xmlns="http://www.w3.org/2000/svg" xmlns:xlink="http://www.w3.org/1999/xlink" width="470px" height="468px" viewBox="0 0 470 468" version="1.1"><title>calendar</title><defs><path d="M9.635 132.808C24.782 59.782 71.388 19.109 144.085 6.822c53.74-9.081 107.5-9.196 161.15.255 74.852 13.185 119.85 56.23 134.185 130.36 11.075 57.29 11.249 115.191-.174 172.427-15.324 72.52-63.132 117.285-135.561 129.527-53.74 9.08-107.5 9.195-161.15-.255-74.852-13.186-120.05-58.38-134.384-132.509-11.64-57.668-10.52-115.935 1.484-173.82z" id="path-1"/><filter x="-5.9%" y="-3.9%" width="111.8%" height="111.9%" filterUnits="objectBoundingBox" id="filter-2"><feOffset dx="0" dy="5" in="SourceAlpha" result="shadowOffsetOuter1"/><feGaussianBlur stdDeviation="4" in="shadowOffsetOuter1" result="shadowBlurOuter1"/><feColorMatrix values="0 0 0 0 0 0 0 0 0 0 0 0 0 0 0 0 0 0 0.078125 0" type="matrix" in="shadowBlurOuter1" result="shadowMatrixOuter1"/><feOffset dx="0" dy="4" in="SourceAlpha" result="shadowOffsetOuter2"/><feGaussianBlur stdDeviation="5.5" in="shadowOffsetOuter2" result="shadowBlurOuter2"/><feColorMatrix values="0 0 0 0 0 0 0 0 0 0 0 0 0 0 0 0 0 0 0.210824275 0" type="matrix" in="shadowBlurOuter2" result="shadowMatrixOuter2"/><feMerge><feMergeNode in="shadowMatrixOuter1"/><feMergeNode in="shadowMatrixOuter2"/></feMerge></filter></defs><g id="S8-/-S8+-icons" stroke="none" stroke-width="1" fill="none" fill-rule="evenodd"><g id="icons" transform="translate(-21.000000, -26.000000)"><g id="calendar" transform="translate(32.000000, 33.000000)"><use fill="#000" fill-opacity="1" filter="url(#filter-2)" xlink:href="#path-1"/><use fill="#3FBDCF" fill-rule="evenodd" xlink:href="#path-1"/><path d="M158.5 97H175v34.5H95V115h63.5V97zm151.996 236.745c14.26 0 25.817-11.56 25.817-25.818V161h16.5v150.462c0 21.42-17.363 38.783-38.782 38.783H135.283c-21.419 0-38.783-17.364-38.783-38.783V161H113v146.927c0 14.258 11.56 25.818 25.818 25.818h171.678zm1.337-202.245V115h40.98v16.5h-40.98zm-22.353 0H198V115h74.98V97h16.5v34.5z" fill="#FFF"/><path d="M182.5 183.9c-3.6 4.05-7.8 7.65-12.9 10.95-5.1 3-10.2 5.1-15 6.45v12.3c10.05-3 18.45-7.8 25.2-14.7V291h12.3V183.9h-9.6zm71.7-2.1c-10.2 0-18.45 2.85-24.75 8.7-6.6 5.85-10.5 13.95-11.4 24.3h12.15c.75-7.2 3.15-12.75 7.35-16.65 4.05-3.9 9.6-5.7 16.8-5.7 6.9 0 12.45 1.65 16.35 5.25 3.6 3.3 5.55 7.95 5.55 13.95 0 6-1.95 10.65-5.7 13.95-3.75 3.15-9.15 4.8-16.35 4.8h-8.25v9.6h8.7c7.5 0 13.2 1.65 17.4 5.25 4.2 3.6 6.3 8.55 6.3 15 0 6.3-2.25 11.55-6.45 15.75-4.65 4.35-10.8 6.6-18.45 6.6-6.75 0-12.3-1.95-16.8-5.55-5.25-4.35-8.1-10.8-8.4-19.2H215.8c.9 12 5.1 21.15 12.75 27.45 6.45 5.1 14.7 7.8 24.9 7.8 11.1 0 20.1-3.15 27-9.45 6.75-6.15 10.2-14.1 10.2-23.85 0-6.3-1.8-11.55-5.4-15.75-3.3-4.2-8.1-7.2-14.4-9.15 11.7-3.9 17.55-12 17.55-24 0-9-3.15-16.05-9.3-21.3-6.3-5.25-14.7-7.8-24.9-7.8z" id="13" fill="#FFF"/></g></g></g><metadata><rdf:RDF xmlns:rdf="http://www.w3.org/1999/02/22-rdf-syntax-ns#" xmlns:rdfs="http://www.w3.org/2000/01/rdf-schema#" xmlns:dc="http://purl.org/dc/elements/1.1/"><rdf:Description about="https://iconscout.com/legal#licenses" dc:title="calendar" dc:description="calendar" dc:publisher="Iconscout" dc:date="2017-09-26" dc:format="image/svg+xml" dc:language="en"><dc:creator><rdf:Bag><rdf:li>Tagincev Kirill</rdf:li></rdf:Bag></dc:creator></rdf:Description></rdf:RDF></metadata></svg>