<?xml version="1.0" encoding="UTF-8"?><svg xmlns="http://www.w3.org/2000/svg" xmlns:xlink="http://www.w3.org/1999/xlink" width="470px" height="468px" viewBox="0 0 470 468" version="1.1"><title>clock_action</title><defs><path d="M9.635 132.808C24.782 59.782 71.388 19.109 144.085 6.822c53.74-9.081 107.5-9.196 161.15.255 74.852 13.185 119.85 56.23 134.185 130.36 11.075 57.29 11.249 115.191-.174 172.427-15.324 72.52-63.132 117.285-135.561 129.527-53.74 9.08-107.5 9.195-161.15-.255-74.852-13.186-120.05-58.38-134.384-132.509-11.64-57.668-10.52-115.935 1.484-173.82z" id="path-1"/><filter x="-5.9%" y="-3.9%" width="111.8%" height="111.9%" filterUnits="objectBoundingBox" id="filter-2"><feOffset dx="0" dy="5" in="SourceAlpha" result="shadowOffsetOuter1"/><feGaussianBlur stdDeviation="4" in="shadowOffsetOuter1" result="shadowBlurOuter1"/><feColorMatrix values="0 0 0 0 0 0 0 0 0 0 0 0 0 0 0 0 0 0 0.078125 0" type="matrix" in="shadowBlurOuter1" result="shadowMatrixOuter1"/><feOffset dx="0" dy="4" in="SourceAlpha" result="shadowOffsetOuter2"/><feGaussianBlur stdDeviation="5.5" in="shadowOffsetOuter2" result="shadowBlurOuter2"/><feColorMatrix values="0 0 0 0 0 0 0 0 0 0 0 0 0 0 0 0 0 0 0.210824275 0" type="matrix" in="shadowBlurOuter2" result="shadowMatrixOuter2"/><feMerge><feMergeNode in="shadowMatrixOuter1"/><feMergeNode in="shadowMatrixOuter2"/></feMerge></filter></defs><g id="S8-/-S8+-icons" stroke="none" stroke-width="1" fill="none" fill-rule="evenodd"><g id="icons" transform="translate(-21.000000, -26.000000)"><g id="clock_action" transform="translate(32.000000, 33.000000)"><g id="clock_bg_default"><use fill="#000" fill-opacity="1" filter="url(#filter-2)" xlink:href="#path-1"/><use fill="#F8F9F9" fill-rule="evenodd" xlink:href="#path-1"/></g><path d="M324.496 325.087c-52.994 54.877-140.442 56.404-195.319 3.41-54.877-52.995-56.403-140.442-3.41-195.319 16.856-17.454 37.2-29.503 58.87-36.125l.358 20.549c-16.574 5.936-32.073 15.667-45.13 29.189-45.4 47.011-44.092 121.923 2.92 167.323 47.011 45.398 121.924 44.091 167.323-2.92 45.399-47.012 44.091-121.926-2.92-167.324-12.29-11.868-26.488-20.537-41.565-26.04l-.367-20.902c20.316 6.147 39.513 17.082 55.831 32.84 54.877 52.994 56.403 140.442 3.409 195.32zM214.334 137.001h18v92h-18v-92z" id="clock" fill="#4B4B4B"/><path d="M220 233.586c-4.617-1.306-8-5.55-8-10.586 0-5.035 3.383-9.28 8-10.586V68h6v144.414c4.617 1.306 8 5.55 8 10.586 0 5.035-3.383 9.28-8 10.586V257h-6v-23.414z" id="clock_second_hand_default" fill="#09CFDB"/></g></g></g><metadata><rdf:RDF xmlns:rdf="http://www.w3.org/1999/02/22-rdf-syntax-ns#" xmlns:rdfs="http://www.w3.org/2000/01/rdf-schema#" xmlns:dc="http://purl.org/dc/elements/1.1/"><rdf:Description about="https://iconscout.com/legal#licenses" dc:title="clock,action" dc:description="clock,action" dc:publisher="Iconscout" dc:date="2017-09-26" dc:format="image/svg+xml" dc:language="en"><dc:creator><rdf:Bag><rdf:li>Tagincev Kirill</rdf:li></rdf:Bag></dc:creator></rdf:Description></rdf:RDF></metadata></svg>