<?xml version="1.0" encoding="UTF-8"?><svg xmlns="http://www.w3.org/2000/svg" xmlns:xlink="http://www.w3.org/1999/xlink" width="470px" height="468px" viewBox="0 0 470 468" version="1.1"><title>simple_sharing</title><defs><path d="M9.635 132.808C24.782 59.782 71.388 19.109 144.085 6.822c53.74-9.081 107.5-9.196 161.15.255 74.852 13.185 119.85 56.23 134.185 130.36 11.075 57.29 11.249 115.191-.174 172.427-15.324 72.52-63.132 117.285-135.561 129.527-53.74 9.08-107.5 9.195-161.15-.255-74.852-13.186-120.05-58.38-134.384-132.509-11.64-57.668-10.52-115.935 1.484-173.82z" id="path-1"/><filter x="-5.9%" y="-3.9%" width="111.8%" height="111.9%" filterUnits="objectBoundingBox" id="filter-2"><feOffset dx="0" dy="5" in="SourceAlpha" result="shadowOffsetOuter1"/><feGaussianBlur stdDeviation="4" in="shadowOffsetOuter1" result="shadowBlurOuter1"/><feColorMatrix values="0 0 0 0 0 0 0 0 0 0 0 0 0 0 0 0 0 0 0.078125 0" type="matrix" in="shadowBlurOuter1" result="shadowMatrixOuter1"/><feOffset dx="0" dy="4" in="SourceAlpha" result="shadowOffsetOuter2"/><feGaussianBlur stdDeviation="5.5" in="shadowOffsetOuter2" result="shadowBlurOuter2"/><feColorMatrix values="0 0 0 0 0 0 0 0 0 0 0 0 0 0 0 0 0 0 0.210824275 0" type="matrix" in="shadowBlurOuter2" result="shadowMatrixOuter2"/><feMerge><feMergeNode in="shadowMatrixOuter1"/><feMergeNode in="shadowMatrixOuter2"/></feMerge></filter></defs><g id="S8-/-S8+-icons" stroke="none" stroke-width="1" fill="none" fill-rule="evenodd"><g id="icons" transform="translate(-21.000000, -26.000000)"><g id="simple_sharing"><g transform="translate(32.000000, 33.000000)"><use fill="#000" fill-opacity="1" filter="url(#filter-2)" xlink:href="#path-1"/><use fill="#598CFF" fill-rule="evenodd" xlink:href="#path-1"/></g><path d="M317.783 188.087c33.652 4.841 59.523 33.754 59.523 68.746 0 38.207-29.841 68.211-67.972 68.486v.014H220.403v-.04a29.852 29.852 0 0 1-19.674-8.736c-11.701-11.702-11.701-30.674 0-42.375l16.81-16.81c9.473-9.473 23.71-11.27 34.997-5.403 5.303 2.757 7.234 9.586 3.566 14.304-.32.412-.677.8-1.073 1.163-2.755 2.522-5.102 2.05-9.166 2.398-1.733.15-3.473-.025-5.17-.405-4.142-.929-10.5 1.116-13.665 4.281l-10.424 10.424c-4.892 4.892-4.845 12.853.14 17.686 1.405 1.361 4.127 2.673 6.146 3.53a12.37 12.37 0 0 0 4.826.983l81.618.412c27.062-.809 48.757-22.986 48.757-50.246 0-29.153-20.43-41.699-31.495-46.333-3.757-1.573-7.806-2.333-11.88-2.333h-15.938c0-45.809-37.136-82.945-82.945-82.945-29.202 0-54.862 15.105-69.641 37.914l-15.053-15.052c18.817-26.477 49.739-43.75 84.694-43.75 50.594 0 92.727 36.186 101.95 84.087zM146 194.667c-30.744 0-55.667 24.922-55.667 55.666C90.333 281.076 115.256 306 146 306c2.046 0 28-.333 28-.333v19.667h-25v-.076c-.997.04-1.994.076-3 .076-41.42 0-75-33.579-75-75 0-41.422 33.58-75 75-75 27.062 0 50.771 14.337 63.961 35.827l-15.886 11.12c-9.657-16.513-27.565-27.614-48.075-27.614zm119.152 74.937l10.424-10.424c4.846-4.846 4.846-12.702 0-17.548-7.076-7.632-13.464-3.571-15.579-1.968l-7.764 7.764a1.943 1.943 0 0 1-1.04.555l-.191.03c-9.349 1.4-14.864-10.318-8.18-17.002l5.717-5.717c11.701-11.701 30.673-11.701 42.375 0 11.701 11.703 11.701 30.674 0 42.375l-16.81 16.81c-9.785 9.785-24.652 11.382-36.102 4.799-5.091-2.927-6.481-9.86-2.705-14.356l.072-.085c2.777-3.24 7.001-4.17 11.137-4.036 1.58.05 3.096.535 4.522 1.218 4.612 2.207 10.303 1.406 14.124-2.415z" fill="#FFF" transform="translate(32.000000, 33.000000)"/></g></g></g><metadata><rdf:RDF xmlns:rdf="http://www.w3.org/1999/02/22-rdf-syntax-ns#" xmlns:rdfs="http://www.w3.org/2000/01/rdf-schema#" xmlns:dc="http://purl.org/dc/elements/1.1/"><rdf:Description about="https://iconscout.com/legal#licenses" dc:title="simple,sharing" dc:description="simple,sharing" dc:publisher="Iconscout" dc:date="2017-09-26" dc:format="image/svg+xml" dc:language="en"><dc:creator><rdf:Bag><rdf:li>Tagincev Kirill</rdf:li></rdf:Bag></dc:creator></rdf:Description></rdf:RDF></metadata></svg>