<?xml version="1.0" encoding="UTF-8"?><svg xmlns="http://www.w3.org/2000/svg" xmlns:xlink="http://www.w3.org/1999/xlink" width="470px" height="468px" viewBox="0 0 470 468" version="1.1"><title>s_health</title><defs><path d="M9.635 132.808C24.782 59.782 71.388 19.109 144.085 6.822c53.74-9.081 107.5-9.196 161.15.255 74.852 13.185 119.85 56.23 134.185 130.36 11.075 57.29 11.249 115.191-.174 172.427-15.324 72.52-63.132 117.285-135.561 129.527-53.74 9.08-107.5 9.195-161.15-.255-74.852-13.186-120.05-58.38-134.384-132.509-11.64-57.668-10.52-115.935 1.484-173.82z" id="path-1"/><filter x="-5.9%" y="-3.9%" width="111.8%" height="111.9%" filterUnits="objectBoundingBox" id="filter-3"><feOffset dx="0" dy="5" in="SourceAlpha" result="shadowOffsetOuter1"/><feGaussianBlur stdDeviation="4" in="shadowOffsetOuter1" result="shadowBlurOuter1"/><feColorMatrix values="0 0 0 0 0 0 0 0 0 0 0 0 0 0 0 0 0 0 0.078125 0" type="matrix" in="shadowBlurOuter1" result="shadowMatrixOuter1"/><feOffset dx="0" dy="4" in="SourceAlpha" result="shadowOffsetOuter2"/><feGaussianBlur stdDeviation="5.5" in="shadowOffsetOuter2" result="shadowBlurOuter2"/><feColorMatrix values="0 0 0 0 0 0 0 0 0 0 0 0 0 0 0 0 0 0 0.210824275 0" type="matrix" in="shadowBlurOuter2" result="shadowMatrixOuter2"/><feMerge><feMergeNode in="shadowMatrixOuter1"/><feMergeNode in="shadowMatrixOuter2"/></feMerge></filter><filter x="-30.0%" y="-30.2%" width="160.1%" height="160.3%" filterUnits="objectBoundingBox" id="filter-4"><feGaussianBlur stdDeviation="27.6618304" in="SourceGraphic"/></filter></defs><g id="S8-/-S8+-icons" stroke="none" stroke-width="1" fill="none" fill-rule="evenodd"><g id="icons" transform="translate(-21.000000, -26.000000)"><g transform="translate(32.000000, 33.000000)" id="s_health"><mask id="mask-2" fill="#fff"><use xlink:href="#path-1"/></mask><g id="Mask"><use fill="#000" fill-opacity="1" filter="url(#filter-3)" xlink:href="#path-1"/><use fill-rule="evenodd" xlink:href="#path-1"/></g><path d="M91.942 167.912c9.343-45.04 38.088-70.126 82.926-77.705 33.146-5.6 66.304-5.671 99.393.158 46.167 8.132 73.92 34.681 82.762 80.402 6.831 35.336 6.938 71.048-.107 106.35-9.452 44.728-38.939 72.338-83.61 79.888-33.147 5.601-66.304 5.672-99.394-.157-46.167-8.133-74.043-36.007-82.885-81.728-7.179-35.568-6.488-71.506.915-107.208z" filter="url(#filter-4)" mask="url(#mask-2)"/><path d="M124.937 297.988l13.208-11.59 32.939 26.762s-13.532-37.275-13.838-39.7c-.307-2.427 16.209-5.122 17.826-4.853 1.617.27 30.459 97.845 30.459 97.845l-80.594-68.464zm195.729-56.855c3.342-2.844 10.75-9.436 20.09-13.327 10.386-4.327 28.054 0 28.054 0s8.42 3.14 8.42 21.743l-1.077 37.387-16.443-11.59v-31.1c0-5.549-6.729-3.777-10.183-3.113-5.393 1.036-12.014 3.113-12.014 3.113-2.697.516-6.616 5.49-6.616 6.862 0 2.91.511 13.725.511 13.725l3.504.81v17.499c0 1.775-.315 3.546-1.005 5.182a16.08 16.08 0 0 1-4.5 6.082l-51.704 43.204.06-79.038c0-8.89-3.277-17.438-9.16-24.033a12.696 12.696 0 0 0-3.006-2.478l-17.478-10.355 2.162-21.052 33.258 24.76a29.237 29.237 0 0 1 10.2 22.041l.233 53.977 22.88-17.191v-18.03c0-1.23-3.243-19.071 3.814-25.078zM276.69 446v-72.27l17.52-12.938v83.41c-5.831.334-11.672 1.652-17.52 1.798zm-.107-339.426c-.87-22.27-19.19-40.06-41.672-40.06-23.038 0-41.714 18.676-41.714 41.715 0 3.49.434 6.877 1.24 10.123 0 0 2.78 15.124 8.448 23.903 5.435 8.417 14.054 22.995 15.316 27.114.334 3.526.52 24.4-1.56 26.98-2.08 2.58-5.45 4.064-5.45 4.064h-16.003a30.345 30.345 0 0 0-21.457 8.887l-77.76 77.76a21.663 21.663 0 0 0 3.897 33.724l100.542 62.38c-.936.663-11.798 10.813-13.522 12.521-22.098 21.912-27.089 40.891-28.105 50.258-3.003-.1-16.942-2.73-20.908-3.856a20.53 20.53 0 0 1-.134-3.667c.943-19.138 33.019-53.37 33.019-53.37l-85.813-53.4a35.987 35.987 0 0 1-5.236-54.35l85.57-86.726a30.637 30.637 0 0 1 21.72-9.03h13.409v-9.164h-29.064a24.88 24.88 0 0 0-19.163 9.012c-8.2 9.9-21.01 24.411-25.628 24.411h-24.798l-6.47-16.172 21.888-1.152c5.215-.275 9.97-3.123 12.603-7.632 5.652-9.675 17.294-25.718 32.357-25.718 21.563 0 31.062 1.078 31.062 1.078s-10.86-19.386-11.031-19.705c-4.523-8.421-7.093-18.046-7.093-28.273 0-33.049 26.79-59.84 59.838-59.84s59.84 26.791 59.84 59.84c0 4.144-1.224 18.54-1.224 18.54l4.445 7.178s-6.047 29.269-9.223 35.47c-3.176 6.201-4.78 10.24-14.754 10.24v-16.441s5.032-7.134 6.99-15.269c1.958-8.135 1.529-13.309 2.124-14-1.753-.707-6.526-2.875-6.526-2.875s-.006-12.6-.006-20.936c0-1.896.002-2.988.006-3.562z" fill="#FFF" mask="url(#mask-2)"/></g></g></g><metadata><rdf:RDF xmlns:rdf="http://www.w3.org/1999/02/22-rdf-syntax-ns#" xmlns:rdfs="http://www.w3.org/2000/01/rdf-schema#" xmlns:dc="http://purl.org/dc/elements/1.1/"><rdf:Description about="https://iconscout.com/legal#licenses" dc:title="s,health" dc:description="s,health" dc:publisher="Iconscout" dc:date="2017-09-26" dc:format="image/svg+xml" dc:language="en"><dc:creator><rdf:Bag><rdf:li>Tagincev Kirill</rdf:li></rdf:Bag></dc:creator></rdf:Description></rdf:RDF></metadata></svg>