<?xml version="1.0" encoding="UTF-8"?><svg xmlns="http://www.w3.org/2000/svg" xmlns:xlink="http://www.w3.org/1999/xlink" width="470px" height="468px" viewBox="0 0 470 468" version="1.1"><title>galaxy_apps</title><defs><path d="M9.635 132.808C24.782 59.782 71.388 19.109 144.085 6.822c53.74-9.081 107.5-9.196 161.15.255 74.852 13.185 119.85 56.23 134.185 130.36 11.075 57.29 11.249 115.191-.174 172.427-15.324 72.52-63.132 117.285-135.561 129.527-53.74 9.08-107.5 9.195-161.15-.255-74.852-13.186-120.05-58.38-134.384-132.509-11.64-57.668-10.52-115.935 1.484-173.82z" id="path-1"/><filter x="-5.9%" y="-3.9%" width="111.8%" height="111.9%" filterUnits="objectBoundingBox" id="filter-2"><feOffset dx="0" dy="5" in="SourceAlpha" result="shadowOffsetOuter1"/><feGaussianBlur stdDeviation="4" in="shadowOffsetOuter1" result="shadowBlurOuter1"/><feColorMatrix values="0 0 0 0 0 0 0 0 0 0 0 0 0 0 0 0 0 0 0.078125 0" type="matrix" in="shadowBlurOuter1" result="shadowMatrixOuter1"/><feOffset dx="0" dy="4" in="SourceAlpha" result="shadowOffsetOuter2"/><feGaussianBlur stdDeviation="5.5" in="shadowOffsetOuter2" result="shadowBlurOuter2"/><feColorMatrix values="0 0 0 0 0 0 0 0 0 0 0 0 0 0 0 0 0 0 0.210824275 0" type="matrix" in="shadowBlurOuter2" result="shadowMatrixOuter2"/><feMerge><feMergeNode in="shadowMatrixOuter1"/><feMergeNode in="shadowMatrixOuter2"/></feMerge></filter><filter x="-46.1%" y="-46.3%" width="192.3%" height="192.6%" filterUnits="objectBoundingBox" id="filter-3"><feGaussianBlur stdDeviation="34.5982143" in="SourceGraphic"/></filter></defs><g id="S8-/-S8+-icons" stroke="none" stroke-width="1" fill="none" fill-rule="evenodd"><g id="icons" transform="translate(-21.000000, -26.000000)"><g id="galaxy_apps"><g transform="translate(32.000000, 33.000000)"><use fill="#000" fill-opacity="1" filter="url(#filter-2)" xlink:href="#path-1"/><use fill="#65BDF4" fill-rule="evenodd" xlink:href="#path-1"/><use fill-rule="evenodd" xlink:href="#path-1"/></g><path d="M115.841 177.733c7.611-36.694 31.03-57.13 67.559-63.305 27.003-4.563 54.017-4.62 80.974.128 37.612 6.625 60.222 28.255 67.425 65.503 5.566 28.788 5.653 57.882-.087 86.641-7.7 36.44-31.723 58.934-68.117 65.085-27.003 4.563-54.016 4.62-80.974-.128-37.612-6.626-60.322-29.335-67.526-66.583-5.848-28.977-5.285-58.255.746-87.34z" filter="url(#filter-3)" transform="translate(32.000000, 33.000000)"/><path d="M304.48 152.333v19.333h18.186v141.755c0 14.126-11.452 25.58-25.577 25.58H150.91c-14.125 0-25.578-11.454-25.578-25.58V171.666h43.798v29.431h19.333v-59.764h.156c.732-19.367 16.654-34.844 36.2-34.844 19.546 0 35.468 15.477 36.2 34.844h.035v11H210.64v19.333h50.415v29.431h19.332v-59.764h.122C279.769 111.203 255.129 87 224.82 87c-29.785 0-54.078 23.377-55.612 52.781h-.077v12.552H120.6c-8.064 0-14.6 6.537-14.6 14.6v149.232c0 23.29 18.878 42.168 42.166 42.168h151.665c23.29 0 42.168-18.879 42.168-42.168V166.933c0-8.063-6.538-14.6-14.6-14.6h-22.92z" fill="#FFF" transform="translate(32.000000, 33.000000)"/></g></g></g><metadata><rdf:RDF xmlns:rdf="http://www.w3.org/1999/02/22-rdf-syntax-ns#" xmlns:rdfs="http://www.w3.org/2000/01/rdf-schema#" xmlns:dc="http://purl.org/dc/elements/1.1/"><rdf:Description about="https://iconscout.com/legal#licenses" dc:title="galaxy,apps" dc:description="galaxy,apps" dc:publisher="Iconscout" dc:date="2017-09-26" dc:format="image/svg+xml" dc:language="en"><dc:creator><rdf:Bag><rdf:li>Tagincev Kirill</rdf:li></rdf:Bag></dc:creator></rdf:Description></rdf:RDF></metadata></svg>