<?xml version="1.0" encoding="UTF-8"?><svg xmlns="http://www.w3.org/2000/svg" xmlns:xlink="http://www.w3.org/1999/xlink" width="470px" height="468px" viewBox="0 0 470 468" version="1.1"><title>gear_manager</title><defs><path d="M9.635 132.808C24.782 59.782 71.388 19.109 144.085 6.822c53.74-9.081 107.5-9.196 161.15.255 74.852 13.185 119.85 56.23 134.185 130.36 11.075 57.29 11.249 115.191-.174 172.427-15.324 72.52-63.132 117.285-135.561 129.527-53.74 9.08-107.5 9.195-161.15-.255-74.852-13.186-120.05-58.38-134.384-132.509-11.64-57.668-10.52-115.935 1.484-173.82z" id="path-1"/><filter x="-5.9%" y="-3.9%" width="111.8%" height="111.9%" filterUnits="objectBoundingBox" id="filter-2"><feOffset dx="0" dy="5" in="SourceAlpha" result="shadowOffsetOuter1"/><feGaussianBlur stdDeviation="4" in="shadowOffsetOuter1" result="shadowBlurOuter1"/><feColorMatrix values="0 0 0 0 0 0 0 0 0 0 0 0 0 0 0 0 0 0 0.078125 0" type="matrix" in="shadowBlurOuter1" result="shadowMatrixOuter1"/><feOffset dx="0" dy="4" in="SourceAlpha" result="shadowOffsetOuter2"/><feGaussianBlur stdDeviation="5.5" in="shadowOffsetOuter2" result="shadowBlurOuter2"/><feColorMatrix values="0 0 0 0 0 0 0 0 0 0 0 0 0 0 0 0 0 0 0.210824275 0" type="matrix" in="shadowBlurOuter2" result="shadowMatrixOuter2"/><feMerge><feMergeNode in="shadowMatrixOuter1"/><feMergeNode in="shadowMatrixOuter2"/></feMerge></filter></defs><g id="S8-/-S8+-icons" stroke="none" stroke-width="1" fill="none" fill-rule="evenodd"><g id="icons" transform="translate(-21.000000, -26.000000)"><g id="gear_manager"><g transform="translate(32.000000, 33.000000)"><use fill="#000" fill-opacity="1" filter="url(#filter-2)" xlink:href="#path-1"/><use fill="#FAB22B" fill-rule="evenodd" xlink:href="#path-1"/></g><path d="M140.75 217h9.061c.113 1.487.189 5.984.189 7.5 0 32.309-22.191 55.5-54.5 55.5S37 253.809 37 221.5 63.191 163 95.5 163c17.726 0 33.599 7.895 44.327 20.348l-15.201 12.99C117.566 188.174 107.141 183 95.5 183 74.237 183 57 200.237 57 221.5S74.237 260 95.5 260c16.037 0 29.779-9.808 35.567-23.75H118V217h22.75zm104.143 6.89h.015l.069 1.02v17.59H193v-18.61h32.119c-3.745-9.168-12.728-15.64-23.244-15.64-13.876 0-25.125 11.249-25.125 25.125s11.249 25.125 25.125 25.125v19c-24.37 0-44.125-19.756-44.125-44.125 0-24.37 19.756-44.125 44.125-44.125 21.098 0 41.62 15.132 43.018 34.64zm96.36.856c.06.517.082 1.038.083 1.558l.124 51.127-18.61.07v-49.364a9.395 9.395 0 0 0-.477-2.955c-3.36-10.163-12.916-17.502-24.205-17.502-14.172 0-25.644 11.553-25.514 25.755.13 14.093 11.989 25.28 26.082 25.275 1.979 0 3.874-.016 5.764-.293v18.624a44.508 44.508 0 0 1-6.332.46c-24.37 0-44.124-19.757-44.124-44.126 0-24.369 19.755-44.125 44.124-44.125 21.408 0 40.767 15.412 43.085 35.496zm54.056-32.496c4.262.003 8.147-.062 12.358.732v18.435c-3.833-.257-7.848-.087-12.334-.075-10.068.025-16.88 5.736-21.217 12.612-2.207 3.5-3.323 7.577-3.323 11.715v41.762l-1.02.069h-17.59l.36-50.898a8.088 8.088 0 0 1 .286-2.122c5.193-18.588 22.234-32.243 42.48-32.23z" fill="#FFF" transform="translate(32.000000, 33.000000)"/></g></g></g><metadata><rdf:RDF xmlns:rdf="http://www.w3.org/1999/02/22-rdf-syntax-ns#" xmlns:rdfs="http://www.w3.org/2000/01/rdf-schema#" xmlns:dc="http://purl.org/dc/elements/1.1/"><rdf:Description about="https://iconscout.com/legal#licenses" dc:title="gear,manager" dc:description="gear,manager" dc:publisher="Iconscout" dc:date="2017-09-26" dc:format="image/svg+xml" dc:language="en"><dc:creator><rdf:Bag><rdf:li>Tagincev Kirill</rdf:li></rdf:Bag></dc:creator></rdf:Description></rdf:RDF></metadata></svg>