<?xml version="1.0" encoding="UTF-8"?><svg xmlns="http://www.w3.org/2000/svg" xmlns:xlink="http://www.w3.org/1999/xlink" width="470px" height="468px" viewBox="0 0 470 468" version="1.1"><title>knox</title><defs><path d="M9.635 132.808C24.782 59.782 71.388 19.109 144.085 6.822c53.74-9.081 107.5-9.196 161.15.255 74.852 13.185 119.85 56.23 134.185 130.36 11.075 57.29 11.249 115.191-.174 172.427-15.324 72.52-63.132 117.285-135.561 129.527-53.74 9.08-107.5 9.195-161.15-.255-74.852-13.186-120.05-58.38-134.384-132.509-11.64-57.668-10.52-115.935 1.484-173.82z" id="path-1"/><filter x="-5.9%" y="-3.9%" width="111.8%" height="111.9%" filterUnits="objectBoundingBox" id="filter-2"><feOffset dx="0" dy="5" in="SourceAlpha" result="shadowOffsetOuter1"/><feGaussianBlur stdDeviation="4" in="shadowOffsetOuter1" result="shadowBlurOuter1"/><feColorMatrix values="0 0 0 0 0 0 0 0 0 0 0 0 0 0 0 0 0 0 0.078125 0" type="matrix" in="shadowBlurOuter1" result="shadowMatrixOuter1"/><feOffset dx="0" dy="4" in="SourceAlpha" result="shadowOffsetOuter2"/><feGaussianBlur stdDeviation="5.5" in="shadowOffsetOuter2" result="shadowBlurOuter2"/><feColorMatrix values="0 0 0 0 0 0 0 0 0 0 0 0 0 0 0 0 0 0 0.210824275 0" type="matrix" in="shadowBlurOuter2" result="shadowMatrixOuter2"/><feMerge><feMergeNode in="shadowMatrixOuter1"/><feMergeNode in="shadowMatrixOuter2"/></feMerge></filter></defs><g id="S8-/-S8+-icons" stroke="none" stroke-width="1" fill="none" fill-rule="evenodd"><g id="icons" transform="translate(-21.000000, -26.000000)"><g id="knox"><g transform="translate(32.000000, 33.000000)"><use fill="#000" fill-opacity="1" filter="url(#filter-2)" xlink:href="#path-1"/><use fill="#4579EE" fill-rule="evenodd" xlink:href="#path-1"/></g><path d="M323.442 154.954c5.32.195 10.644.27 15.97.267v83.036c0 62.145-53.56 115.987-114.607 127.743l-2.43-.058c-51.49-12.184-114.374-67.588-114.374-127.685V124.471c0-8.574 6.537-15.91 15.215-17.055 24.61-3.275 66.693-2.622 97.875-18.38l5.138-.036c34.19 16.58 85.235 15.232 108.735 18.333 1.368.18 3.015.054 3.015.054l.135 13.987s-.944.08-1.913.134c-6.647.377-84.887-2.384-112.45-15.508-30.985 15.315-70.447 13.591-94.838 16.838-2.86.377-4.943 2.626-4.943 5.352v110.077c0 51.487 55.52 99.487 99.858 110.768 53.204-10.938 99.614-56.51 99.614-110.768v-83.313zm-91.085 60.753l-4.27 2.164 9.163 33.377h-25.033l9.165-33.373-4.27-2.464c-4.505-2.914-6.896-7.66-6.39-12.943.607-6.362 5.83-11.682 12.153-12.477 8.576-1.081 15.936 5.624 15.936 13.999.003 4.768-2.351 9.065-6.454 11.717zm20.398-11.755c0-16.631-14.553-29.881-31.617-27.721-12.848 1.611-23.067 12.15-24.297 25.058a27.812 27.812 0 0 0 8.566 22.869l-6.79 25.173c-1.104 4.099-.257 7.785 2.326 11.153 2.578 3.367 6.493 4.704 10.737 4.704h26.11c4.245 0 8.159-1.337 10.74-4.709 2.58-3.365 3.428-7.352 2.323-11.448l-6.79-25.015c5.518-5.225 8.692-12.372 8.692-20.064" fill="#FFF" transform="translate(32.000000, 33.000000)"/></g></g></g><metadata><rdf:RDF xmlns:rdf="http://www.w3.org/1999/02/22-rdf-syntax-ns#" xmlns:rdfs="http://www.w3.org/2000/01/rdf-schema#" xmlns:dc="http://purl.org/dc/elements/1.1/"><rdf:Description about="https://iconscout.com/legal#licenses" dc:title="knox" dc:description="knox" dc:publisher="Iconscout" dc:date="2017-09-26" dc:format="image/svg+xml" dc:language="en"><dc:creator><rdf:Bag><rdf:li>Tagincev Kirill</rdf:li></rdf:Bag></dc:creator></rdf:Description></rdf:RDF></metadata></svg>