<?xml version="1.0" encoding="UTF-8"?><svg xmlns="http://www.w3.org/2000/svg" xmlns:xlink="http://www.w3.org/1999/xlink" width="470px" height="468px" viewBox="0 0 470 468" version="1.1"><title>s_translator</title><defs><path d="M9.635 132.808C24.782 59.782 71.388 19.109 144.085 6.822c53.74-9.081 107.5-9.196 161.15.255 74.852 13.185 119.85 56.23 134.185 130.36 11.075 57.29 11.249 115.191-.174 172.427-15.324 72.52-63.132 117.285-135.561 129.527-53.74 9.08-107.5 9.195-161.15-.255-74.852-13.186-120.05-58.38-134.384-132.509-11.64-57.668-10.52-115.935 1.484-173.82z" id="path-1"/><filter x="-5.9%" y="-3.9%" width="111.8%" height="111.9%" filterUnits="objectBoundingBox" id="filter-2"><feOffset dx="0" dy="5" in="SourceAlpha" result="shadowOffsetOuter1"/><feGaussianBlur stdDeviation="4" in="shadowOffsetOuter1" result="shadowBlurOuter1"/><feColorMatrix values="0 0 0 0 0 0 0 0 0 0 0 0 0 0 0 0 0 0 0.078125 0" type="matrix" in="shadowBlurOuter1" result="shadowMatrixOuter1"/><feOffset dx="0" dy="4" in="SourceAlpha" result="shadowOffsetOuter2"/><feGaussianBlur stdDeviation="5.5" in="shadowOffsetOuter2" result="shadowBlurOuter2"/><feColorMatrix values="0 0 0 0 0 0 0 0 0 0 0 0 0 0 0 0 0 0 0.210824275 0" type="matrix" in="shadowBlurOuter2" result="shadowMatrixOuter2"/><feMerge><feMergeNode in="shadowMatrixOuter1"/><feMergeNode in="shadowMatrixOuter2"/></feMerge></filter></defs><g id="S8-/-S8+-icons" stroke="none" stroke-width="1" fill="none" fill-rule="evenodd"><g id="icons" transform="translate(-21.000000, -26.000000)"><g id="s_translator"><g transform="translate(32.000000, 33.000000)"><use fill="#000" fill-opacity="1" filter="url(#filter-2)" xlink:href="#path-1"/><use fill="#28C7DA" fill-rule="evenodd" xlink:href="#path-1"/></g><path d="M163.029 177.313l8.853-19.032 8.854 19.032h-17.707zm15.82-34.011L206 201.667l-11.456 5.329-7.93-17.047H157.15l-7.616 16.37-11.456-5.328 26.835-57.69 2.225-4.781c1.832-3.94 7.413-3.996 9.324-.093l2.387 4.875zm109.75 99.511h12.636v23.804H316v12.635h-14.765v34.094h-12.636v-70.533zm-37.45 46.752a44.395 44.395 0 0 0 13.774-26.38l.166-1.182h-22.333v-12.636h36.29v12.636l-2.802 11.341a44.398 44.398 0 0 1-13.388 22.344L250.71 306.63l-8.346-11.239 7.581-4.898a8.756 8.756 0 0 0 1.205-.928zm70.972-86.315c20.867 0 37.783 16.916 37.783 37.783v89.027c0 9.623-7.802 17.424-17.425 17.424H208.996c-11.32 0-20.496-9.175-20.496-20.495v-58.815a48.044 48.044 0 0 1 9.962-29.293l36.141-46.993a29.19 29.19 0 0 0 6.051-17.795V116.5H105.5v87.035c0 12.13 9.834 21.965 21.965 21.965H168.5V243h-45.137C103.833 243 88 227.167 88 207.637V116.38C88 106.783 95.782 99 105.381 99h132.526c11.182 0 20.247 9.065 20.247 20.248v61.333a29.19 29.19 0 0 1-6.026 17.762L215.92 245.56A48.051 48.051 0 0 0 206 274.8v55.184h136.404v-86.102c0-12.776-10.356-23.132-23.132-23.132H282.33v-17.5h39.791z" fill="#FFF" transform="translate(32.000000, 33.000000)"/></g></g></g><metadata><rdf:RDF xmlns:rdf="http://www.w3.org/1999/02/22-rdf-syntax-ns#" xmlns:rdfs="http://www.w3.org/2000/01/rdf-schema#" xmlns:dc="http://purl.org/dc/elements/1.1/"><rdf:Description about="https://iconscout.com/legal#licenses" dc:title="s,translator" dc:description="s,translator" dc:publisher="Iconscout" dc:date="2017-09-26" dc:format="image/svg+xml" dc:language="en"><dc:creator><rdf:Bag><rdf:li>Tagincev Kirill</rdf:li></rdf:Bag></dc:creator></rdf:Description></rdf:RDF></metadata></svg>