<?xml version="1.0" encoding="UTF-8"?><svg xmlns="http://www.w3.org/2000/svg" xmlns:xlink="http://www.w3.org/1999/xlink" width="448px" height="447px" viewBox="0 0 448 447" version="1.1"><title>ic_lock_sealed_mode_on</title><g id="S8-/-S8+-icons" stroke="none" stroke-width="1" fill="none" fill-rule="evenodd"><g id="icons" transform="translate(-32.000000, -33.000000)"><g id="ic_lock_sealed_mode_on"><path d="M45.062 166.518c-12.156 58.62-12.803 116.317-1.475 172.445 14.117 73 58.424 116.844 131.556 129.726 52.825 9.305 106.167 9.34 159.958.251 71.452-12.077 117.784-56.115 132.713-126.761 11.246-56.352 11.246-113.78.17-171.078-13.999-72.386-57.605-114.586-131.357-127.577-52.825-9.306-106.167-9.34-159.958-.251C103.88 55.576 59.624 96.313 45.062 166.518z" stroke="#EF9052" stroke-width="7"/><path d="M223.267 237.506c4.877 0 8.737 3.86 8.737 8.737 0 4.877-3.86 8.738-8.737 8.738-4.877 0-8.737-3.861-8.737-8.738 0-4.877 3.86-8.737 8.737-8.737m0-8.737c-9.599 0-17.475 7.876-17.475 17.474 0 8.085 5.608 14.897 13.106 16.861v19.351a4.37 4.37 0 1 0 8.737 0v-19.351c7.498-1.964 13.107-8.776 13.107-16.861 0-9.598-7.876-17.474-17.475-17.474m-66.161-20.659h133.322c2.495 0 4.368 1.873 4.368 4.369v92.635c0 2.496-1.873 4.369-4.368 4.369H157.106c-2.496 0-4.369-1.873-4.369-4.369v-92.635c0-2.496 1.873-4.369 4.369-4.369m66.161-71.373c24.277 0 43.687 19.409 43.687 43.687v18.949H179.58v-18.949c0-24.278 19.409-43.687 43.687-43.687m0-8.737c-28.967 0-52.424 23.457-52.424 52.424v18.949h-13.737c-7.185 0-13.106 5.921-13.106 13.106v92.635c0 7.185 5.921 13.106 13.106 13.106h133.322c7.185 0 13.106-5.921 13.106-13.106v-92.635c0-7.185-5.921-13.106-13.106-13.106h-14.737v-18.949c0-28.967-23.457-52.424-52.424-52.424" fill="#EF9052" transform="translate(32.000000, 33.000000)"/></g></g></g><metadata><rdf:RDF xmlns:rdf="http://www.w3.org/1999/02/22-rdf-syntax-ns#" xmlns:rdfs="http://www.w3.org/2000/01/rdf-schema#" xmlns:dc="http://purl.org/dc/elements/1.1/"><rdf:Description about="https://iconscout.com/legal#licenses" dc:title="ic,lock,sealed,mode,on" dc:description="ic,lock,sealed,mode,on" dc:publisher="Iconscout" dc:date="2017-09-26" dc:format="image/svg+xml" dc:language="en"><dc:creator><rdf:Bag><rdf:li>Tagincev Kirill</rdf:li></rdf:Bag></dc:creator></rdf:Description></rdf:RDF></metadata></svg>