<?xml version="1.0" encoding="UTF-8"?><svg xmlns="http://www.w3.org/2000/svg" xmlns:xlink="http://www.w3.org/1999/xlink" width="470px" height="468px" viewBox="0 0 470 468" version="1.1"><title>music</title><defs><path d="M9.635 132.808C24.782 59.782 71.388 19.109 144.085 6.822c53.74-9.081 107.5-9.196 161.15.255 74.852 13.185 119.85 56.23 134.185 130.36 11.075 57.29 11.249 115.191-.174 172.427-15.324 72.52-63.132 117.285-135.561 129.527-53.74 9.08-107.5 9.195-161.15-.255-74.852-13.186-120.05-58.38-134.384-132.509-11.64-57.668-10.52-115.935 1.484-173.82z" id="path-1"/><filter x="-5.9%" y="-3.9%" width="111.8%" height="111.9%" filterUnits="objectBoundingBox" id="filter-2"><feOffset dx="0" dy="5" in="SourceAlpha" result="shadowOffsetOuter1"/><feGaussianBlur stdDeviation="4" in="shadowOffsetOuter1" result="shadowBlurOuter1"/><feColorMatrix values="0 0 0 0 0 0 0 0 0 0 0 0 0 0 0 0 0 0 0.078125 0" type="matrix" in="shadowBlurOuter1" result="shadowMatrixOuter1"/><feOffset dx="0" dy="4" in="SourceAlpha" result="shadowOffsetOuter2"/><feGaussianBlur stdDeviation="5.5" in="shadowOffsetOuter2" result="shadowBlurOuter2"/><feColorMatrix values="0 0 0 0 0 0 0 0 0 0 0 0 0 0 0 0 0 0 0.210824275 0" type="matrix" in="shadowBlurOuter2" result="shadowMatrixOuter2"/><feMerge><feMergeNode in="shadowMatrixOuter1"/><feMergeNode in="shadowMatrixOuter2"/></feMerge></filter><radialGradient cx="52.4863183%" cy="50%" fx="52.4863183%" fy="50%" r="34.0836161%" gradientTransform="translate(0.524863,0.500000),scale(0.996523,1.000000),rotate(-90.000000),scale(1.000000,1.017371),translate(-0.524863,-0.500000)" id="radialGradient-3"><stop stop-color="#51ADFB" offset="0%"/><stop stop-color="#52ADFB" offset="100%"/></radialGradient><filter x="-28.2%" y="-28.3%" width="156.4%" height="156.6%" filterUnits="objectBoundingBox" id="filter-4"><feGaussianBlur stdDeviation="27.5223214" in="SourceGraphic"/></filter></defs><g id="S8-/-S8+-icons" stroke="none" stroke-width="1" fill="none" fill-rule="evenodd"><g id="icons" transform="translate(-21.000000, -26.000000)"><g id="music"><g transform="translate(32.000000, 33.000000)"><use fill="#000" fill-opacity="1" filter="url(#filter-2)" xlink:href="#path-1"/><use fill-rule="evenodd" xlink:href="#path-1"/></g><path d="M84.297 169.804c9.9-47.73 40.362-74.314 87.878-82.345 35.125-5.936 70.263-6.01 105.328.167 48.925 8.618 78.335 36.752 87.705 85.203 7.239 37.446 7.352 75.29-.114 112.7-10.016 47.4-41.263 76.659-88.603 84.66-35.126 5.935-70.263 6.01-105.329-.167-48.924-8.618-78.465-38.157-87.835-86.608-7.607-37.692-6.875-75.776.97-113.61z" fill="url(#radialGradient-3)" filter="url(#filter-4)" transform="translate(32.000000, 33.000000)"/><path d="M304.448 141.225C273.997 110.441 218.554 83 218.554 83v210.53c0 10.094-3.11 20.03-9.289 28.014-6.017 7.774-15.663 14.843-30.845 14.843-17.79 0-27.298-10.526-27.298-27.23 0-16.703 16.714-28.173 34.167-31.614 3.707-.731 9.143-1.074 9.143-1.074V257.53a64.584 64.584 0 0 0-3.29-.09c-30.287 0-60.305 24.193-60.305 52.63s18.322 45.687 48.61 45.687c30.042 0 58.017-21.622 58.017-69.063 0-47.438.097-172.973.097-172.973 12.469 6.984 32.407 19.213 49.927 34.706 27.997 24.759-9.357 66.25-9.357 66.25l14.619 12.792s44.224-53.362 11.698-86.245" fill="#FFF" transform="translate(32.000000, 33.000000)"/></g></g></g><metadata><rdf:RDF xmlns:rdf="http://www.w3.org/1999/02/22-rdf-syntax-ns#" xmlns:rdfs="http://www.w3.org/2000/01/rdf-schema#" xmlns:dc="http://purl.org/dc/elements/1.1/"><rdf:Description about="https://iconscout.com/legal#licenses" dc:title="music" dc:description="music" dc:publisher="Iconscout" dc:date="2017-09-26" dc:format="image/svg+xml" dc:language="en"><dc:creator><rdf:Bag><rdf:li>Tagincev Kirill</rdf:li></rdf:Bag></dc:creator></rdf:Description></rdf:RDF></metadata></svg>