<?xml version="1.0" encoding="UTF-8"?><svg xmlns="http://www.w3.org/2000/svg" xmlns:xlink="http://www.w3.org/1999/xlink" width="470px" height="468px" viewBox="0 0 470 468" version="1.1"><title>my_files</title><defs><path d="M9.635 132.808C24.782 59.782 71.388 19.109 144.085 6.822c53.74-9.081 107.5-9.196 161.15.255 74.852 13.185 119.85 56.23 134.185 130.36 11.075 57.29 11.249 115.191-.174 172.427-15.324 72.52-63.132 117.285-135.561 129.527-53.74 9.08-107.5 9.195-161.15-.255-74.852-13.186-120.05-58.38-134.384-132.509-11.64-57.668-10.52-115.935 1.484-173.82z" id="path-1"/><filter x="-5.9%" y="-3.9%" width="111.8%" height="111.9%" filterUnits="objectBoundingBox" id="filter-2"><feOffset dx="0" dy="5" in="SourceAlpha" result="shadowOffsetOuter1"/><feGaussianBlur stdDeviation="4" in="shadowOffsetOuter1" result="shadowBlurOuter1"/><feColorMatrix values="0 0 0 0 0 0 0 0 0 0 0 0 0 0 0 0 0 0 0.078125 0" type="matrix" in="shadowBlurOuter1" result="shadowMatrixOuter1"/><feOffset dx="0" dy="4" in="SourceAlpha" result="shadowOffsetOuter2"/><feGaussianBlur stdDeviation="5.5" in="shadowOffsetOuter2" result="shadowBlurOuter2"/><feColorMatrix values="0 0 0 0 0 0 0 0 0 0 0 0 0 0 0 0 0 0 0.210824275 0" type="matrix" in="shadowBlurOuter2" result="shadowMatrixOuter2"/><feMerge><feMergeNode in="shadowMatrixOuter1"/><feMergeNode in="shadowMatrixOuter2"/></feMerge></filter></defs><g id="S8-/-S8+-icons" stroke="none" stroke-width="1" fill="none" fill-rule="evenodd"><g id="icons" transform="translate(-21.000000, -26.000000)"><g id="my_files"><g transform="translate(32.000000, 33.000000)"><use fill="#000" fill-opacity="1" filter="url(#filter-2)" xlink:href="#path-1"/><use fill="#F4A72E" fill-rule="evenodd" xlink:href="#path-1"/></g><path d="M234.28 119.333h126.637V139H232.961a17.51 17.51 0 0 1-9.308-2.679c-3.367-2.113-5.546-5.69-6.18-9.614l-2.105-13.04H109.666V333H90V111.165C90 101.685 97.685 94 107.164 94h107.707a20.575 20.575 0 0 1 14.553 6.031c1.807 1.81 2.898 4.214 3.227 6.75l1.63 12.552zm-75.103 54v-19.667h185.969c8.71 0 15.77 7.061 15.77 15.771v118.421c0 24.931-20.21 45.142-45.14 45.142h-178.6v-19.667h180.73c12.893 0 23.344-10.45 23.344-23.344V173.333H159.177z" fill="#FFF" transform="translate(32.000000, 33.000000)"/></g></g></g><metadata><rdf:RDF xmlns:rdf="http://www.w3.org/1999/02/22-rdf-syntax-ns#" xmlns:rdfs="http://www.w3.org/2000/01/rdf-schema#" xmlns:dc="http://purl.org/dc/elements/1.1/"><rdf:Description about="https://iconscout.com/legal#licenses" dc:title="my,files" dc:description="my,files" dc:publisher="Iconscout" dc:date="2017-09-26" dc:format="image/svg+xml" dc:language="en"><dc:creator><rdf:Bag><rdf:li>Tagincev Kirill</rdf:li></rdf:Bag></dc:creator></rdf:Description></rdf:RDF></metadata></svg>