<?xml version="1.0" encoding="UTF-8"?><svg xmlns="http://www.w3.org/2000/svg" xmlns:xlink="http://www.w3.org/1999/xlink" width="470px" height="468px" viewBox="0 0 470 468" version="1.1"><title>myfiles_list_contact</title><defs><path d="M9.635 132.808C24.782 59.782 71.388 19.109 144.085 6.822c53.74-9.081 107.5-9.196 161.15.255 74.852 13.185 119.85 56.23 134.185 130.36 11.075 57.29 11.249 115.191-.174 172.427-15.324 72.52-63.132 117.285-135.561 129.527-53.74 9.08-107.5 9.195-161.15-.255-74.852-13.186-120.05-58.38-134.384-132.509-11.64-57.668-10.52-115.935 1.484-173.82z" id="path-1"/><filter x="-5.9%" y="-3.9%" width="111.8%" height="111.9%" filterUnits="objectBoundingBox" id="filter-2"><feOffset dx="0" dy="5" in="SourceAlpha" result="shadowOffsetOuter1"/><feGaussianBlur stdDeviation="4" in="shadowOffsetOuter1" result="shadowBlurOuter1"/><feColorMatrix values="0 0 0 0 0 0 0 0 0 0 0 0 0 0 0 0 0 0 0.078125 0" type="matrix" in="shadowBlurOuter1" result="shadowMatrixOuter1"/><feOffset dx="0" dy="4" in="SourceAlpha" result="shadowOffsetOuter2"/><feGaussianBlur stdDeviation="5.5" in="shadowOffsetOuter2" result="shadowBlurOuter2"/><feColorMatrix values="0 0 0 0 0 0 0 0 0 0 0 0 0 0 0 0 0 0 0.210824275 0" type="matrix" in="shadowBlurOuter2" result="shadowMatrixOuter2"/><feMerge><feMergeNode in="shadowMatrixOuter1"/><feMergeNode in="shadowMatrixOuter2"/></feMerge></filter></defs><g id="S8-/-S8+-icons" stroke="none" stroke-width="1" fill="none" fill-rule="evenodd"><g id="icons" transform="translate(-21.000000, -26.000000)"><g id="myfiles_list_contact"><g transform="translate(32.000000, 33.000000)"><use fill="#000" fill-opacity="1" filter="url(#filter-2)" xlink:href="#path-1"/><use fill="#FF9D17" fill-rule="evenodd" xlink:href="#path-1"/></g><path d="M164.334 286c16.235 0 28.5-6.833 35.983-20.01-5.472-4.732-8.028-9.472-10.722-16.91-9.192-1.16-16.348-12.63-16.348-23.735 0-6.549 2.847-7.884 6.774-11.832-.687-3.117-1.416-8.546-1.416-11.868 0-44.045 48.956-51.248 50.967-50.972v15.66c-1.95-.328-38.238-.349-38.238 37 0 2.656-.55 13.508 0 16-3.79 1.567-6.334.766-6.334 6 0 8.877 4.32 13.74 11.667 14.666 4.645 12.82 14.893 23.667 27.5 23.667 12.653 0 21.55-9.774 26.167-22.667 6.933-1.36 12.666-8.55 12.666-17.083 0-5.8-3.548-4.564-8-5.25.419-2.19.667-13.687.667-16 0-13.2-4.04-19.784-14.667-26l.64-15.97c15.673 6.982 26.604 22.684 26.604 40.95 0 2.893-.847 7.61-1.371 10.351 4.683 3.9 8.305 4.811 8.305 12.067 0 10.674-6.614 23.14-15.287 24.841-2.558 7.144-6.65 13.342-11.786 18.033 7.517 12.691 19.61 19.285 35.538 19.285 2.542 0 5.112-.248 7.535-.667v14.15a54.373 54.373 0 0 1-7.453.517c-16.822 0-31.832-7.727-41.697-19.819-.108.065-3.653-4.089-5.06-6.416a32.99 32.99 0 0 1-12.257 2.371c-4.93 0-9.64-1.098-13.963-3.098C201.423 289.251 184.095 300 164.25 300a54.18 54.18 0 0 1-7.452-.517v-14.149c2.423.418 4.992.666 7.535.666zm-37.518-177h210.85v18H128.002v211.833h-18V125.815c0-9.287 7.528-16.815 16.815-16.815zm192.85 191.877V156h18v144.63c0 20.546-16.655 37.203-37.203 37.203H156v-18h144.71c10.47 0 18.957-8.487 18.957-18.956z" fill="#FFF" transform="translate(32.000000, 33.000000)"/></g></g></g><metadata><rdf:RDF xmlns:rdf="http://www.w3.org/1999/02/22-rdf-syntax-ns#" xmlns:rdfs="http://www.w3.org/2000/01/rdf-schema#" xmlns:dc="http://purl.org/dc/elements/1.1/"><rdf:Description about="https://iconscout.com/legal#licenses" dc:title="myfiles,list,contact" dc:description="myfiles,list,contact" dc:publisher="Iconscout" dc:date="2017-09-26" dc:format="image/svg+xml" dc:language="en"><dc:creator><rdf:Bag><rdf:li>Tagincev Kirill</rdf:li></rdf:Bag></dc:creator></rdf:Description></rdf:RDF></metadata></svg>