<?xml version="1.0" encoding="UTF-8"?><svg xmlns="http://www.w3.org/2000/svg" xmlns:xlink="http://www.w3.org/1999/xlink" width="470px" height="468px" viewBox="0 0 470 468" version="1.1"><title>phone_log</title><defs><path d="M9.635 132.808C24.782 59.782 71.388 19.109 144.085 6.822c53.74-9.081 107.5-9.196 161.15.255 74.852 13.185 119.85 56.23 134.185 130.36 11.075 57.29 11.249 115.191-.174 172.427-15.324 72.52-63.132 117.285-135.561 129.527-53.74 9.08-107.5 9.195-161.15-.255-74.852-13.186-120.05-58.38-134.384-132.509-11.64-57.668-10.52-115.935 1.484-173.82z" id="path-1"/><filter x="-5.9%" y="-3.9%" width="111.8%" height="111.9%" filterUnits="objectBoundingBox" id="filter-2"><feOffset dx="0" dy="5" in="SourceAlpha" result="shadowOffsetOuter1"/><feGaussianBlur stdDeviation="4" in="shadowOffsetOuter1" result="shadowBlurOuter1"/><feColorMatrix values="0 0 0 0 0 0 0 0 0 0 0 0 0 0 0 0 0 0 0.078125 0" type="matrix" in="shadowBlurOuter1" result="shadowMatrixOuter1"/><feOffset dx="0" dy="4" in="SourceAlpha" result="shadowOffsetOuter2"/><feGaussianBlur stdDeviation="5.5" in="shadowOffsetOuter2" result="shadowBlurOuter2"/><feColorMatrix values="0 0 0 0 0 0 0 0 0 0 0 0 0 0 0 0 0 0 0.210824275 0" type="matrix" in="shadowBlurOuter2" result="shadowMatrixOuter2"/><feMerge><feMergeNode in="shadowMatrixOuter1"/><feMergeNode in="shadowMatrixOuter2"/></feMerge></filter></defs><g id="S8-/-S8+-icons" stroke="none" stroke-width="1" fill="none" fill-rule="evenodd"><g id="icons" transform="translate(-21.000000, -26.000000)"><g id="phone_log"><g transform="translate(32.000000, 33.000000)"><use fill="#000" fill-opacity="1" filter="url(#filter-2)" xlink:href="#path-1"/><use fill="#0BCD74" fill-rule="evenodd" xlink:href="#path-1"/></g><path d="M127.895 206.02l17.407-6.4s13.417 26.742 39.906 53.232c26.488 26.488 55.81 40.86 55.81 40.86l-7.512 17.582s-33.023-19.115-60.324-46.417c-27.302-27.302-45.287-58.856-45.287-58.856zm194.656 82.804c11.789 5.862 14.355 21.561 5.045 30.871l-39.908 39.908a26.024 26.024 0 0 1-22.461 7.312 196.318 196.318 0 0 1-8.139-1.469c-24.361-3.308-72.288-15.714-118.358-61.784-48.63-48.63-62.496-103.109-66.412-127.923a26.021 26.021 0 0 1 7.312-22.46l39.908-39.908c9.31-9.311 25.009-6.745 30.871 5.045l30.801 61.942-15.395 7.6-28.546-57.82c-1.658-3.357-6.125-4.094-8.773-1.446l-32.677 32.677a17.288 17.288 0 0 0-5.05 12.913c.558 14.136 4.742 41.303 25.147 74.059 8.381 12.502 19.267 25.99 33.414 40.136 48.938 48.939 93.267 58.407 114.562 59.832 2.901-.058 5.18-.265 6.775-.467 2.106-.267 4.155-.924 5.951-2.054a16.984 16.984 0 0 0 2.979-2.374l32.677-32.677c2.648-2.648 1.912-7.115-1.447-8.773l-57.819-28.546 7.601-15.395 61.942 30.801zm-99.612-120.923a6.55 6.55 0 0 1-6.55-6.549v-48.118h14.334v30.198L279.155 95l10.135 10.135-48.432 48.433h30.198v14.333H222.94zm122.802 18.334l14.334-10v23.167H345.74v-13.167zM288.11 209l49.934-49.933h-32.637v-14.333h47.126a5.542 5.542 0 0 1 5.54 5.541v8.792h-.24l.24.241-59.827 59.827L288.112 209z" fill="#FFF" transform="translate(32.000000, 33.000000)"/></g></g></g><metadata><rdf:RDF xmlns:rdf="http://www.w3.org/1999/02/22-rdf-syntax-ns#" xmlns:rdfs="http://www.w3.org/2000/01/rdf-schema#" xmlns:dc="http://purl.org/dc/elements/1.1/"><rdf:Description about="https://iconscout.com/legal#licenses" dc:title="phone,log" dc:description="phone,log" dc:publisher="Iconscout" dc:date="2017-09-26" dc:format="image/svg+xml" dc:language="en"><dc:creator><rdf:Bag><rdf:li>Tagincev Kirill</rdf:li></rdf:Bag></dc:creator></rdf:Description></rdf:RDF></metadata></svg>