<?xml version="1.0" encoding="UTF-8"?><svg xmlns="http://www.w3.org/2000/svg" xmlns:xlink="http://www.w3.org/1999/xlink" width="470px" height="468px" viewBox="0 0 470 468" version="1.1"><title>gallery</title><defs><path d="M9.635 132.808C24.782 59.782 71.388 19.109 144.085 6.822c53.74-9.081 107.5-9.196 161.15.255 74.852 13.185 119.85 56.23 134.185 130.36 11.075 57.29 11.249 115.191-.174 172.427-15.324 72.52-63.132 117.285-135.561 129.527-53.74 9.08-107.5 9.195-161.15-.255-74.852-13.186-120.05-58.38-134.384-132.509-11.64-57.668-10.52-115.935 1.484-173.82z" id="path-1"/><filter x="-5.9%" y="-3.9%" width="111.8%" height="111.9%" filterUnits="objectBoundingBox" id="filter-2"><feOffset dx="0" dy="5" in="SourceAlpha" result="shadowOffsetOuter1"/><feGaussianBlur stdDeviation="4" in="shadowOffsetOuter1" result="shadowBlurOuter1"/><feColorMatrix values="0 0 0 0 0 0 0 0 0 0 0 0 0 0 0 0 0 0 0.078125 0" type="matrix" in="shadowBlurOuter1" result="shadowMatrixOuter1"/><feOffset dx="0" dy="4" in="SourceAlpha" result="shadowOffsetOuter2"/><feGaussianBlur stdDeviation="5.5" in="shadowOffsetOuter2" result="shadowBlurOuter2"/><feColorMatrix values="0 0 0 0 0 0 0 0 0 0 0 0 0 0 0 0 0 0 0.210824275 0" type="matrix" in="shadowBlurOuter2" result="shadowMatrixOuter2"/><feMerge><feMergeNode in="shadowMatrixOuter1"/><feMergeNode in="shadowMatrixOuter2"/></feMerge></filter></defs><g id="S8-/-S8+-icons" stroke="none" stroke-width="1" fill="none" fill-rule="evenodd"><g id="icons" transform="translate(-21.000000, -26.000000)"><g id="gallery"><g transform="translate(32.000000, 33.000000)"><use fill="#000" fill-opacity="1" filter="url(#filter-2)" xlink:href="#path-1"/><use fill="#FFC207" fill-rule="evenodd" xlink:href="#path-1"/></g><path d="M183.386 164.895c-37.669-18.827-73.902-22.693-80.928-8.635-4.457 8.92 3.926 22.91 20.26 36.755l-16.278 7.734c-19.113-18.635-27.818-38.972-20.537-53.539 10.565-21.142 51.061-22.646 92.992-4.443C182.23 99.025 201.24 65.5 224.192 65.5c25.303 0 45.816 40.743 45.816 91.002 0 .334-.005.665-.007.998l-17.955 7.395c-.136-41.8-12.916-80.539-28.548-80.539-15.715 0-28.455 34.138-28.455 76.25 0 3.659.102 7.252.288 10.773a202.878 202.878 0 0 0-11.945-6.484zm112.08 52.335c35.165-23.168 56.664-52.589 48.017-65.712-5.486-8.325-21.792-8.08-41.958-.88v-17.222c25.704-7.205 49.126-5.29 58.085 8.308 13.004 19.737-5.983 55.537-42.744 82.706 36.186 24.8 55.676 58.048 44.177 77.913-12.677 21.898-61.215 18.24-104.712-6.94-.288-.168-.572-.337-.86-.506l3.762-17.084c36.245 20.823 78.008 28.01 85.839 14.483 7.874-13.601-15.289-41.73-51.734-62.828a203.643 203.643 0 0 0-9.468-5.147 202.579 202.579 0 0 0 11.596-7.09zm-102.095 70.193c1.888 42.07 16.147 75.602 31.846 74.898 9.96-.447 18.103-14.58 22.246-35.587l14.68 10.454c-6.978 25.768-20.504 43.27-36.774 44-23.612 1.06-44.634-33.582-49.143-79.073-39.833 18.378-78.372 18.088-89.543-1.962-12.315-22.104 13.292-59.854 57.197-84.315.29-.162.583-.32.875-.48l15.237 12.715c-36.448 20.464-64.108 49.854-56.5 63.509 7.65 13.728 43.672 8.242 80.46-12.255 3.195-1.78 6.284-3.62 9.269-5.494-.098 4.419-.058 8.956.15 13.59z" fill="#FFF" transform="translate(32.000000, 33.000000)"/></g></g></g><metadata><rdf:RDF xmlns:rdf="http://www.w3.org/1999/02/22-rdf-syntax-ns#" xmlns:rdfs="http://www.w3.org/2000/01/rdf-schema#" xmlns:dc="http://purl.org/dc/elements/1.1/"><rdf:Description about="https://iconscout.com/legal#licenses" dc:title="gallery" dc:description="gallery" dc:publisher="Iconscout" dc:date="2017-09-26" dc:format="image/svg+xml" dc:language="en"><dc:creator><rdf:Bag><rdf:li>Tagincev Kirill</rdf:li></rdf:Bag></dc:creator></rdf:Description></rdf:RDF></metadata></svg>