<?xml version="1.0" encoding="UTF-8"?><svg xmlns="http://www.w3.org/2000/svg" xmlns:xlink="http://www.w3.org/1999/xlink" width="470px" height="468px" viewBox="0 0 470 468" version="1.1"><title>myfiles_list_raw</title><defs><path d="M9.635 132.808C24.782 59.782 71.388 19.109 144.085 6.822c53.74-9.081 107.5-9.196 161.15.255 74.852 13.185 119.85 56.23 134.185 130.36 11.075 57.29 11.249 115.191-.174 172.427-15.324 72.52-63.132 117.285-135.561 129.527-53.74 9.08-107.5 9.195-161.15-.255-74.852-13.186-120.05-58.38-134.384-132.509-11.64-57.668-10.52-115.935 1.484-173.82z" id="path-1"/><filter x="-5.9%" y="-3.9%" width="111.8%" height="111.9%" filterUnits="objectBoundingBox" id="filter-2"><feOffset dx="0" dy="5" in="SourceAlpha" result="shadowOffsetOuter1"/><feGaussianBlur stdDeviation="4" in="shadowOffsetOuter1" result="shadowBlurOuter1"/><feColorMatrix values="0 0 0 0 0 0 0 0 0 0 0 0 0 0 0 0 0 0 0.078125 0" type="matrix" in="shadowBlurOuter1" result="shadowMatrixOuter1"/><feOffset dx="0" dy="4" in="SourceAlpha" result="shadowOffsetOuter2"/><feGaussianBlur stdDeviation="5.5" in="shadowOffsetOuter2" result="shadowBlurOuter2"/><feColorMatrix values="0 0 0 0 0 0 0 0 0 0 0 0 0 0 0 0 0 0 0.210824275 0" type="matrix" in="shadowBlurOuter2" result="shadowMatrixOuter2"/><feMerge><feMergeNode in="shadowMatrixOuter1"/><feMergeNode in="shadowMatrixOuter2"/></feMerge></filter></defs><g id="S8-/-S8+-icons" stroke="none" stroke-width="1" fill="none" fill-rule="evenodd"><g id="icons" transform="translate(-21.000000, -26.000000)"><g id="myfiles_list_raw"><g transform="translate(32.000000, 33.000000)"><use fill="#000" fill-opacity="1" filter="url(#filter-2)" xlink:href="#path-1"/><use fill="#60BAFF" fill-rule="evenodd" xlink:href="#path-1"/></g><path d="M321.15 105c9.306 0 16.85 7.544 16.85 16.851v182.504C338 319.07 326.07 331 311.355 331H154.66c-8.433 0-12.389-10.43-6.077-16.022l82.542-82.542L243.5 244.81l-68.69 68.69H307.94c6.937 0 12.56-5.623 12.56-12.56v-30.712l-25.983-25.983-45.606 45.607-12.374-12.374 47.145-47.146c5.985-5.984 15.687-5.984 21.671 0l1.54 1.539 13.607 13.608V122.5h-194V331H109V121.851c0-9.307 7.544-16.851 16.85-16.851h195.3zm-134.855 66.976c-1.532 2.365-3.855 4.249-6.968 5.65l11.228 21.208v.5h-11.478l-9.731-19h-8.52v19h-10.692v-51.899h19.284c6.13 0 10.859 1.367 14.186 4.1 3.327 2.733 4.99 6.594 4.99 11.584 0 3.54-.766 6.494-2.3 8.857zm39.726 16.664h-18.749l-3.564 10.693h-11.37l19.318-51.898h9.91l19.426 51.898h-11.37l-3.6-10.693zm-50.33-19.016c1.473-1.367 2.21-3.25 2.21-5.65 0-2.447-.695-4.371-2.085-5.774-1.39-1.402-3.523-2.103-6.398-2.103h-8.591v15.576h8.626c2.685 0 4.764-.683 6.238-2.05zm40.92-9.072l-6.45 19.426h12.973l-6.523-19.426zm46.73 38.781h-10.765l-11.512-51.898h10.657l7.022 36.857 8.555-36.857h9.053l8.519 36.928 6.987-36.928h10.658L291 199.333h-10.764l-8.45-34.718-8.446 34.718z" fill="#FFF" transform="translate(32.000000, 33.000000)"/></g></g></g><metadata><rdf:RDF xmlns:rdf="http://www.w3.org/1999/02/22-rdf-syntax-ns#" xmlns:rdfs="http://www.w3.org/2000/01/rdf-schema#" xmlns:dc="http://purl.org/dc/elements/1.1/"><rdf:Description about="https://iconscout.com/legal#licenses" dc:title="myfiles,list,raw" dc:description="myfiles,list,raw" dc:publisher="Iconscout" dc:date="2017-09-26" dc:format="image/svg+xml" dc:language="en"><dc:creator><rdf:Bag><rdf:li>Tagincev Kirill</rdf:li></rdf:Bag></dc:creator></rdf:Description></rdf:RDF></metadata></svg>