<?xml version="1.0" encoding="UTF-8"?><svg xmlns="http://www.w3.org/2000/svg" xmlns:xlink="http://www.w3.org/1999/xlink" width="470px" height="468px" viewBox="0 0 470 468" version="1.1"><title>myfiles_list_sdoc</title><defs><path d="M9.635 132.808C24.782 59.782 71.388 19.109 144.085 6.822c53.74-9.081 107.5-9.196 161.15.255 74.852 13.185 119.85 56.23 134.185 130.36 11.075 57.29 11.249 115.191-.174 172.427-15.324 72.52-63.132 117.285-135.561 129.527-53.74 9.08-107.5 9.195-161.15-.255-74.852-13.186-120.05-58.38-134.384-132.509-11.64-57.668-10.52-115.935 1.484-173.82z" id="path-1"/><filter x="-5.9%" y="-3.9%" width="111.8%" height="111.9%" filterUnits="objectBoundingBox" id="filter-2"><feOffset dx="0" dy="5" in="SourceAlpha" result="shadowOffsetOuter1"/><feGaussianBlur stdDeviation="4" in="shadowOffsetOuter1" result="shadowBlurOuter1"/><feColorMatrix values="0 0 0 0 0 0 0 0 0 0 0 0 0 0 0 0 0 0 0.078125 0" type="matrix" in="shadowBlurOuter1" result="shadowMatrixOuter1"/><feOffset dx="0" dy="4" in="SourceAlpha" result="shadowOffsetOuter2"/><feGaussianBlur stdDeviation="5.5" in="shadowOffsetOuter2" result="shadowBlurOuter2"/><feColorMatrix values="0 0 0 0 0 0 0 0 0 0 0 0 0 0 0 0 0 0 0.210824275 0" type="matrix" in="shadowBlurOuter2" result="shadowMatrixOuter2"/><feMerge><feMergeNode in="shadowMatrixOuter1"/><feMergeNode in="shadowMatrixOuter2"/></feMerge></filter></defs><g id="S8-/-S8+-icons" stroke="none" stroke-width="1" fill="none" fill-rule="evenodd"><g id="icons" transform="translate(-21.000000, -26.000000)"><g id="myfiles_list_sdoc" transform="translate(32.000000, 33.000000)"><g id="notes"><use fill="#000" fill-opacity="1" filter="url(#filter-2)" xlink:href="#path-1"/><use fill="#F46A4E" fill-rule="evenodd" xlink:href="#path-1"/></g><path d="M136.264 303.283v13.96c0 8.967 7.265 16.238 16.226 16.238h177.84V352H151.586c-18.682 0-33.828-15.156-33.828-33.85v-14.867h18.507zm-9.927-18.352H96v-18.52h21.758v-30.198h18.506v38.783c0 5.487-4.444 9.935-9.927 9.935zm-8.58-175.657c0-12.302 9.966-22.274 22.26-22.274H314.24C326.81 87 337 97.197 337 109.775l-.09 127.805a59.616 59.616 0 0 1-17.442 42.098L298.6 300.56l-13.087-13.095 16.03-16.04a57.937 57.937 0 0 0 16.95-40.95V105.52h-182.23v35.339c0 5.486-4.444 9.934-9.927 9.934H96v-18.52h21.757v-22.998zm8.58 108.587H96v-18.519h21.758v-30.198h18.506v38.783c0 5.487-4.444 9.934-9.927 9.934zm37.686-58.787h120.042v18.02H164.023v-18.02zM164 211.843h120.041v18.018H164v-18.018zm0 52h84v18.018h-84v-18.018z" id="notes" fill="#FFF"/></g></g></g><metadata><rdf:RDF xmlns:rdf="http://www.w3.org/1999/02/22-rdf-syntax-ns#" xmlns:rdfs="http://www.w3.org/2000/01/rdf-schema#" xmlns:dc="http://purl.org/dc/elements/1.1/"><rdf:Description about="https://iconscout.com/legal#licenses" dc:title="myfiles,list,sdoc" dc:description="myfiles,list,sdoc" dc:publisher="Iconscout" dc:date="2017-09-26" dc:format="image/svg+xml" dc:language="en"><dc:creator><rdf:Bag><rdf:li>Tagincev Kirill</rdf:li></rdf:Bag></dc:creator></rdf:Description></rdf:RDF></metadata></svg>