<?xml version="1.0" encoding="UTF-8"?><svg xmlns="http://www.w3.org/2000/svg" xmlns:xlink="http://www.w3.org/1999/xlink" width="470px" height="468px" viewBox="0 0 470 468" version="1.1"><title>social</title><defs><path d="M9.635 132.808C24.782 59.782 71.388 19.109 144.085 6.822c53.74-9.081 107.5-9.196 161.15.255 74.852 13.185 119.85 56.23 134.185 130.36 11.075 57.29 11.249 115.191-.174 172.427-15.324 72.52-63.132 117.285-135.561 129.527-53.74 9.08-107.5 9.195-161.15-.255-74.852-13.186-120.05-58.38-134.384-132.509-11.64-57.668-10.52-115.935 1.484-173.82z" id="path-1"/><filter x="-5.9%" y="-3.9%" width="111.8%" height="111.9%" filterUnits="objectBoundingBox" id="filter-2"><feOffset dx="0" dy="5" in="SourceAlpha" result="shadowOffsetOuter1"/><feGaussianBlur stdDeviation="4" in="shadowOffsetOuter1" result="shadowBlurOuter1"/><feColorMatrix values="0 0 0 0 0 0 0 0 0 0 0 0 0 0 0 0 0 0 0.078125 0" type="matrix" in="shadowBlurOuter1" result="shadowMatrixOuter1"/><feOffset dx="0" dy="4" in="SourceAlpha" result="shadowOffsetOuter2"/><feGaussianBlur stdDeviation="5.5" in="shadowOffsetOuter2" result="shadowBlurOuter2"/><feColorMatrix values="0 0 0 0 0 0 0 0 0 0 0 0 0 0 0 0 0 0 0.210824275 0" type="matrix" in="shadowBlurOuter2" result="shadowMatrixOuter2"/><feMerge><feMergeNode in="shadowMatrixOuter1"/><feMergeNode in="shadowMatrixOuter2"/></feMerge></filter><linearGradient x1="80.332438%" y1="0%" x2="24.955457%" y2="100%" id="linearGradient-3"><stop stop-color="#04BACE" offset="0%"/><stop stop-color="#1A64D3" offset="100%"/></linearGradient></defs><g id="S8-/-S8+-icons" stroke="none" stroke-width="1" fill="none" fill-rule="evenodd"><g id="icons" transform="translate(-21.000000, -26.000000)"><g id="social"><g transform="translate(32.000000, 33.000000)"><use fill="#000" fill-opacity="1" filter="url(#filter-2)" xlink:href="#path-1"/><use fill="#F8F9F9" fill-rule="evenodd" xlink:href="#path-1"/></g><path d="M168.469 213.442l-24.532-7.971c-8.838 18.494-30.225 28.032-50.25 21.525-21.798-7.082-33.727-30.495-26.645-52.293 7.083-21.798 30.495-33.727 52.293-26.644 18.69 6.072 30.124 24.149 28.542 42.92l24.918 8.096c7.932-17.481 24.47-30.228 44.205-32.834v-23.917c-19.34-3.53-34-20.465-34-40.824 0-22.92 18.58-41.5 41.5-41.5S266 78.58 266 101.5c0 20.359-14.66 37.294-34 40.824v23.917c27.797 3.67 49.25 27.46 49.25 56.259 0 31.342-25.408 56.75-56.75 56.75s-56.75-25.408-56.75-56.75c0-3.083.246-6.109.719-9.058zm11.9 83.231c14.858 14.121 17.32 37.409 4.944 54.443-13.472 18.542-39.425 22.653-57.968 9.18-18.542-13.471-22.653-39.424-9.18-57.966 11.55-15.899 32.275-21.188 49.639-13.882l8.955-12.326 12.136 8.817-8.526 11.734zm97.997-6.465c18.02-9.767 40.93-4.912 53.305 12.122 13.472 18.542 9.362 44.495-9.18 57.967-18.543 13.472-44.496 9.361-57.968-9.181-11.55-15.898-10.176-37.244 2.137-51.5l-8.955-12.326 12.135-8.817 8.526 11.735zm24.133-95.199c-3.72-20.157 7.976-40.444 28.001-46.95 21.798-7.083 45.21 4.846 52.293 26.644 7.083 21.798-4.846 45.21-26.645 52.293-18.689 6.073-38.565-1.83-48.318-17.947l-13.422 4.361-4.636-14.266 12.727-4.135zM225.5 127c13.531 0 24.5-10.969 24.5-24.5S239.031 78 225.5 78 201 88.969 201 102.5s10.969 24.5 24.5 24.5zm0 130c20.158 0 36.5-16.342 36.5-36.5S245.658 184 225.5 184 189 200.342 189 220.5s16.342 36.5 36.5 36.5zm93.881-60.642c4.182 12.87 18.003 19.912 30.872 15.73 12.869-4.181 19.911-18.003 15.73-30.871-4.181-12.87-18.003-19.912-30.872-15.73-12.868 4.18-19.91 18.003-15.73 30.871zM282.3 306.68c-10.946 7.954-13.373 23.275-5.42 34.222 7.954 10.947 23.275 13.374 34.222 5.42 10.947-7.953 13.373-23.275 5.42-34.221-7.953-10.947-23.275-13.374-34.222-5.42zm-116.381-1.175c-10.947-7.953-26.268-5.527-34.222 5.42-7.953 10.947-5.526 26.268 5.42 34.222 10.947 7.953 26.269 5.526 34.222-5.42 7.953-10.947 5.527-26.269-5.42-34.222zm-34.846-111.049c4.181-12.868-2.861-26.69-15.73-30.872-12.869-4.18-26.69 2.862-30.872 15.73-4.18 12.87 2.862 26.69 15.73 30.872 12.87 4.182 26.69-2.861 30.872-15.73z" fill="url(#linearGradient-3)" transform="translate(32.000000, 33.000000)"/></g></g></g><metadata><rdf:RDF xmlns:rdf="http://www.w3.org/1999/02/22-rdf-syntax-ns#" xmlns:rdfs="http://www.w3.org/2000/01/rdf-schema#" xmlns:dc="http://purl.org/dc/elements/1.1/"><rdf:Description about="https://iconscout.com/legal#licenses" dc:title="social" dc:description="social" dc:publisher="Iconscout" dc:date="2017-09-26" dc:format="image/svg+xml" dc:language="en"><dc:creator><rdf:Bag><rdf:li>Tagincev Kirill</rdf:li></rdf:Bag></dc:creator></rdf:Description></rdf:RDF></metadata></svg>