<?xml version="1.0" encoding="UTF-8"?><svg xmlns="http://www.w3.org/2000/svg" xmlns:xlink="http://www.w3.org/1999/xlink" width="470px" height="468px" viewBox="0 0 470 468" version="1.1"><title>myfiles_list_scrapbook</title><defs><path d="M9.635 132.808C24.782 59.782 71.388 19.109 144.085 6.822c53.74-9.081 107.5-9.196 161.15.255 74.852 13.185 119.85 56.23 134.185 130.36 11.075 57.29 11.249 115.191-.174 172.427-15.324 72.52-63.132 117.285-135.561 129.527-53.74 9.08-107.5 9.195-161.15-.255-74.852-13.186-120.05-58.38-134.384-132.509-11.64-57.668-10.52-115.935 1.484-173.82z" id="path-1"/><filter x="-5.9%" y="-3.9%" width="111.8%" height="111.9%" filterUnits="objectBoundingBox" id="filter-2"><feOffset dx="0" dy="5" in="SourceAlpha" result="shadowOffsetOuter1"/><feGaussianBlur stdDeviation="4" in="shadowOffsetOuter1" result="shadowBlurOuter1"/><feColorMatrix values="0 0 0 0 0 0 0 0 0 0 0 0 0 0 0 0 0 0 0.078125 0" type="matrix" in="shadowBlurOuter1" result="shadowMatrixOuter1"/><feOffset dx="0" dy="4" in="SourceAlpha" result="shadowOffsetOuter2"/><feGaussianBlur stdDeviation="5.5" in="shadowOffsetOuter2" result="shadowBlurOuter2"/><feColorMatrix values="0 0 0 0 0 0 0 0 0 0 0 0 0 0 0 0 0 0 0.210824275 0" type="matrix" in="shadowBlurOuter2" result="shadowMatrixOuter2"/><feMerge><feMergeNode in="shadowMatrixOuter1"/><feMergeNode in="shadowMatrixOuter2"/></feMerge></filter></defs><g id="S8-/-S8+-icons" stroke="none" stroke-width="1" fill="none" fill-rule="evenodd"><g id="icons" transform="translate(-21.000000, -26.000000)"><g id="myfiles_list_scrapbook"><g transform="translate(32.000000, 33.000000)"><use fill="#000" fill-opacity="1" filter="url(#filter-2)" xlink:href="#path-1"/><use fill="#60BAFF" fill-rule="evenodd" xlink:href="#path-1"/></g><path d="M239.886 122.11v94.097h85.59v-60.826h18.07l.408 144.222c.068 24.762-19.995 44.873-44.767 44.873h-143.23v-18.063h65.423v-8.638c-3.762 0-20.89-17.952-21.825-33.941l-.026-19.433-9.912 7.102c-13.534 8.573-38.115 5.15-40.31 2.096-2.196-3.053 2.39-27.434 14.831-37.526l14.66-10.56-14.66-10.561c-12.44-10.092-17.027-34.473-14.831-37.527 2.195-3.053 26.776-6.476 40.31 2.096l9.912 7.103.026-19.432c.934-15.99 18.063-33.942 21.825-33.942v-11.14h-97.826v222.366h-18.071L105 125.948c-.026-12.087 9.769-21.9 21.86-21.9h217.095v18.063H239.886zm85.59 112.596h-85.59v91.707h61.476c13.317 0 24.114-10.792 24.114-24.104v-67.603zM212.282 274.71c0 9.14 6.975 20.738 9.098 20.738V155.577c-2.123 0-9.098 11.598-9.098 20.737v16.974c0 2.073-.527 4.136-1.655 5.875-.175.27-.352.51-.528.698-2.682 2.892-6.681 2.918-10.275 2.047a7.003 7.003 0 0 1-2.427-1.127l-7.799-5.604c-7.423-5.334-20.915-6.443-22.155-4.72-1.239 1.724 4.111 14.154 11.534 19.488l9.45 6.79a9.166 9.166 0 0 1 2.383 2.522c1.049 1.646 2.463 4.245 2.439 6.256-.044 3.594-1.398 5.994-6.105 9.699l-8.167 5.868c-7.423 5.334-12.773 17.765-11.534 19.488 1.24 1.724 14.732.614 22.155-4.72l9.911-7.122v-.116c3.175-.852 6.57-1.4 9.115.094.133.079.272.167.413.266 2.217 1.538 3.428 4.156 3.385 6.854-.097 6.105-.14 18.887-.14 18.887zm55.722 34.569c-2.043 1.38-4.799-.082-4.799-2.548v-53.107c0-2.466 2.756-3.929 4.799-2.548l35.89 26.357c1.886 1.344 1.886 4.146 0 5.49l-35.89 26.356z" fill="#FFF" transform="translate(32.000000, 33.000000)"/></g></g></g><metadata><rdf:RDF xmlns:rdf="http://www.w3.org/1999/02/22-rdf-syntax-ns#" xmlns:rdfs="http://www.w3.org/2000/01/rdf-schema#" xmlns:dc="http://purl.org/dc/elements/1.1/"><rdf:Description about="https://iconscout.com/legal#licenses" dc:title="myfiles,list,scrapbook" dc:description="myfiles,list,scrapbook" dc:publisher="Iconscout" dc:date="2017-09-26" dc:format="image/svg+xml" dc:language="en"><dc:creator><rdf:Bag><rdf:li>Tagincev Kirill</rdf:li></rdf:Bag></dc:creator></rdf:Description></rdf:RDF></metadata></svg>