<?xml version="1.0" encoding="UTF-8"?><svg xmlns="http://www.w3.org/2000/svg" xmlns:xlink="http://www.w3.org/1999/xlink" width="470px" height="468px" viewBox="0 0 470 468" version="1.1"><title>secure_folder</title><defs><path d="M9.635 132.808C24.782 59.782 71.388 19.109 144.085 6.822c53.74-9.081 107.5-9.196 161.15.255 74.852 13.185 119.85 56.23 134.185 130.36 11.075 57.29 11.249 115.191-.174 172.427-15.324 72.52-63.132 117.285-135.561 129.527-53.74 9.08-107.5 9.195-161.15-.255-74.852-13.186-120.05-58.38-134.384-132.509-11.64-57.668-10.52-115.935 1.484-173.82z" id="path-1"/><filter x="-5.9%" y="-3.9%" width="111.8%" height="111.9%" filterUnits="objectBoundingBox" id="filter-2"><feOffset dx="0" dy="5" in="SourceAlpha" result="shadowOffsetOuter1"/><feGaussianBlur stdDeviation="4" in="shadowOffsetOuter1" result="shadowBlurOuter1"/><feColorMatrix values="0 0 0 0 0 0 0 0 0 0 0 0 0 0 0 0 0 0 0.078125 0" type="matrix" in="shadowBlurOuter1" result="shadowMatrixOuter1"/><feOffset dx="0" dy="4" in="SourceAlpha" result="shadowOffsetOuter2"/><feGaussianBlur stdDeviation="5.5" in="shadowOffsetOuter2" result="shadowBlurOuter2"/><feColorMatrix values="0 0 0 0 0 0 0 0 0 0 0 0 0 0 0 0 0 0 0.210824275 0" type="matrix" in="shadowBlurOuter2" result="shadowMatrixOuter2"/><feMerge><feMergeNode in="shadowMatrixOuter1"/><feMergeNode in="shadowMatrixOuter2"/></feMerge></filter></defs><g id="S8-/-S8+-icons" stroke="none" stroke-width="1" fill="none" fill-rule="evenodd"><g id="icons" transform="translate(-21.000000, -26.000000)"><g id="secure_folder"><g transform="translate(32.000000, 33.000000)"><use fill="#000" fill-opacity="1" filter="url(#filter-2)" xlink:href="#path-1"/><use fill="#218AD1" fill-rule="evenodd" xlink:href="#path-1"/></g><path d="M231.984 226.08l-4.04 2.047 8.67 31.588h-23.69l8.673-31.584-4.04-2.332c-4.265-2.758-6.528-7.25-6.049-12.25.574-6.02 5.518-11.056 11.501-11.808 8.117-1.023 15.083 5.323 15.083 13.25.003 4.511-2.226 8.578-6.108 11.088m19.305-11.125c0 7.28-3.005 14.044-8.226 18.988l6.425 23.675c1.046 3.876.244 7.65-2.197 10.835-2.444 3.19-6.148 4.456-10.165 4.456h-24.71c-4.018 0-7.723-1.266-10.163-4.452-2.444-3.187-3.246-6.676-2.2-10.555l6.425-23.824a26.322 26.322 0 0 1-8.107-21.643c1.164-12.217 10.835-22.19 22.995-23.715 16.15-2.045 29.923 10.495 29.923 26.235zM232.5 129.5h124v19H233.371a18.872 18.872 0 0 1-17.57-11.983L210.5 123H111v213H92V122.153C92 112.127 100.127 104 110.153 104h99.424a18.95 18.95 0 0 1 17.641 12.031L232.5 129.5zm105 167.352V174.977h19v121.529c0 21.813-17.682 39.494-39.494 39.494H139.5v-19h177.852c11.127 0 20.148-9.02 20.148-20.148z" fill="#FFF" transform="translate(32.000000, 33.000000)"/></g></g></g><metadata><rdf:RDF xmlns:rdf="http://www.w3.org/1999/02/22-rdf-syntax-ns#" xmlns:rdfs="http://www.w3.org/2000/01/rdf-schema#" xmlns:dc="http://purl.org/dc/elements/1.1/"><rdf:Description about="https://iconscout.com/legal#licenses" dc:title="secure,folder" dc:description="secure,folder" dc:publisher="Iconscout" dc:date="2017-09-26" dc:format="image/svg+xml" dc:language="en"><dc:creator><rdf:Bag><rdf:li>Tagincev Kirill</rdf:li></rdf:Bag></dc:creator></rdf:Description></rdf:RDF></metadata></svg>