<?xml version="1.0" encoding="UTF-8"?><svg xmlns="http://www.w3.org/2000/svg" xmlns:xlink="http://www.w3.org/1999/xlink" width="470px" height="468px" viewBox="0 0 470 468" version="1.1"><title>settings</title><defs><path d="M9.635 132.808C24.782 59.782 71.388 19.109 144.085 6.822c53.74-9.081 107.5-9.196 161.15.255 74.852 13.185 119.85 56.23 134.185 130.36 11.075 57.29 11.249 115.191-.174 172.427-15.324 72.52-63.132 117.285-135.561 129.527-53.74 9.08-107.5 9.195-161.15-.255-74.852-13.186-120.05-58.38-134.384-132.509-11.64-57.668-10.52-115.935 1.484-173.82z" id="path-1"/><filter x="-5.9%" y="-3.9%" width="111.8%" height="111.9%" filterUnits="objectBoundingBox" id="filter-2"><feOffset dx="0" dy="5" in="SourceAlpha" result="shadowOffsetOuter1"/><feGaussianBlur stdDeviation="4" in="shadowOffsetOuter1" result="shadowBlurOuter1"/><feColorMatrix values="0 0 0 0 0 0 0 0 0 0 0 0 0 0 0 0 0 0 0.078125 0" type="matrix" in="shadowBlurOuter1" result="shadowMatrixOuter1"/><feOffset dx="0" dy="4" in="SourceAlpha" result="shadowOffsetOuter2"/><feGaussianBlur stdDeviation="5.5" in="shadowOffsetOuter2" result="shadowBlurOuter2"/><feColorMatrix values="0 0 0 0 0 0 0 0 0 0 0 0 0 0 0 0 0 0 0.210824275 0" type="matrix" in="shadowBlurOuter2" result="shadowMatrixOuter2"/><feMerge><feMergeNode in="shadowMatrixOuter1"/><feMergeNode in="shadowMatrixOuter2"/></feMerge></filter></defs><g id="S8-/-S8+-icons" stroke="none" stroke-width="1" fill="none" fill-rule="evenodd"><g id="icons" transform="translate(-21.000000, -26.000000)"><g id="settings"><g transform="translate(32.000000, 33.000000)"><use fill="#000" fill-opacity="1" filter="url(#filter-2)" xlink:href="#path-1"/><use fill="#618FFA" fill-rule="evenodd" xlink:href="#path-1"/></g><path d="M225.24 260.44c-21.953 0-39.75-17.798-39.75-39.75 0-21.954 17.797-39.75 39.75-39.75s39.75 17.796 39.75 39.75c0 21.952-17.797 39.75-39.75 39.75m0-98c32.17 0 58.25 26.08 58.25 58.25s-26.08 58.25-58.25 58.25-58.25-26.08-58.25-58.25 26.08-58.25 58.25-58.25zm-94.5 75.565a8.967 8.967 0 0 1-2.9 6.6l-25.678 23.59-13.5-14.758 19.392-17.737a8.261 8.261 0 0 0 2.686-6.094v-15.36a8.264 8.264 0 0 0-2.944-6.323l-22.43-18.858a15.053 15.053 0 0 1-3.008-19.61l30.646-48.114c4.177-6.557 12.662-8.855 19.578-5.301l21.474 11.035a8.265 8.265 0 0 0 6.758.356l13.874-5.37a8.26 8.26 0 0 0 5.25-7.016l2.027-24.245c.65-7.8 7.173-13.8 15.002-13.8l56.384.004c7.776 0 14.272 5.92 14.99 13.663l2.228 24.037a8.262 8.262 0 0 0 3.33 5.892l11.392 8.381a8.26 8.26 0 0 0 7.748 1.099l27.085-9.965 6.906 18.77-36.857 13.56a8.964 8.964 0 0 1-8.458-1.23l-25.898-19.346a10.938 10.938 0 0 1-4.357-7.734L248.868 97h-47.152l-2.823 30.819a11.918 11.918 0 0 1-7.853 10.134l-30.126 10.779a11.917 11.917 0 0 1-9.432-.606l-24.017-12.258-25.332 39.77 24.815 21.411a10.939 10.939 0 0 1 3.792 8.282v32.674zm230.515 14.963c6.222 4.663 7.868 13.297 3.8 19.924l-29.504 48.05c-4.096 6.67-12.621 9.088-19.61 5.561l-21.721-10.96a8.26 8.26 0 0 0-8.726.802l-11.837 9.012a8.258 8.258 0 0 0-3.232 5.945l-1.834 24.074c-.591 7.753-6.99 13.781-14.764 13.908l-57.037.938a15.056 15.056 0 0 1-15.136-12.826l-4.333-28.982a8.258 8.258 0 0 0-3.846-5.818l-13.088-8.037a8.268 8.268 0 0 0-6.6-.902l-25.261 7.244-5.512-19.226 33.539-9.538a8.964 8.964 0 0 1 7.142.983l27.844 17.1a10.94 10.94 0 0 1 5.072 7.565l5.26 32.35 47.147-.773 2.123-26.88a11.917 11.917 0 0 1 4.419-8.357l24.95-20.03a11.918 11.918 0 0 1 12.746-1.389l27.738 13.722 24.675-40.18-21.764-16.407a10.94 10.94 0 0 1-4.31-7.76l-2.933-32.193a8.963 8.963 0 0 1 3.378-7.85l30.843-24.313 12.38 15.707-22.665 17.867a8.258 8.258 0 0 0-3.118 7.177l1.18 14.094a8.267 8.267 0 0 0 3.278 5.92l19.317 14.478z" fill="#FFF" transform="translate(32.000000, 33.000000)"/></g></g></g><metadata><rdf:RDF xmlns:rdf="http://www.w3.org/1999/02/22-rdf-syntax-ns#" xmlns:rdfs="http://www.w3.org/2000/01/rdf-schema#" xmlns:dc="http://purl.org/dc/elements/1.1/"><rdf:Description about="https://iconscout.com/legal#licenses" dc:title="settings" dc:description="settings" dc:publisher="Iconscout" dc:date="2017-09-26" dc:format="image/svg+xml" dc:language="en"><dc:creator><rdf:Bag><rdf:li>Tagincev Kirill</rdf:li></rdf:Bag></dc:creator></rdf:Description></rdf:RDF></metadata></svg>