<?xml version="1.0" encoding="UTF-8"?><svg xmlns="http://www.w3.org/2000/svg" xmlns:xlink="http://www.w3.org/1999/xlink" width="470px" height="468px" viewBox="0 0 470 468" version="1.1"><title>smart_switch</title><defs><path d="M9.635 132.808C24.782 59.782 71.388 19.109 144.085 6.822c53.74-9.081 107.5-9.196 161.15.255 74.852 13.185 119.85 56.23 134.185 130.36 11.075 57.29 11.249 115.191-.174 172.427-15.324 72.52-63.132 117.285-135.561 129.527-53.74 9.08-107.5 9.195-161.15-.255-74.852-13.186-120.05-58.38-134.384-132.509-11.64-57.668-10.52-115.935 1.484-173.82z" id="path-1"/><filter x="-5.9%" y="-3.9%" width="111.8%" height="111.9%" filterUnits="objectBoundingBox" id="filter-2"><feOffset dx="0" dy="5" in="SourceAlpha" result="shadowOffsetOuter1"/><feGaussianBlur stdDeviation="4" in="shadowOffsetOuter1" result="shadowBlurOuter1"/><feColorMatrix values="0 0 0 0 0 0 0 0 0 0 0 0 0 0 0 0 0 0 0.078125 0" type="matrix" in="shadowBlurOuter1" result="shadowMatrixOuter1"/><feOffset dx="0" dy="4" in="SourceAlpha" result="shadowOffsetOuter2"/><feGaussianBlur stdDeviation="5.5" in="shadowOffsetOuter2" result="shadowBlurOuter2"/><feColorMatrix values="0 0 0 0 0 0 0 0 0 0 0 0 0 0 0 0 0 0 0.210824275 0" type="matrix" in="shadowBlurOuter2" result="shadowMatrixOuter2"/><feMerge><feMergeNode in="shadowMatrixOuter1"/><feMergeNode in="shadowMatrixOuter2"/></feMerge></filter></defs><g id="S8-/-S8+-icons" stroke="none" stroke-width="1" fill="none" fill-rule="evenodd"><g id="icons" transform="translate(-21.000000, -26.000000)"><g id="smart_switch" transform="translate(32.000000, 33.000000)"><use fill="#000" fill-opacity="1" filter="url(#filter-2)" xlink:href="#path-1"/><use fill="#6AABF3" fill-rule="evenodd" xlink:href="#path-1"/><path d="M187.09 185.705s13.111-3.98 49.445-3.98 85.206 30.631 83.055 82.237c-2.152 51.606-34.245 70.322-71.5 74-37.256 3.678-74.165-5.288-93.634-12.413l12.193 24.214-16.374 8.245-23.968-47.599c-2.277-4.52-2.33-11.119 6.065-12.309 8.394-1.19 73.75 29.676 113.012 22.327 39.262-7.35 54.673-36.486 56.154-53.38 3.22-36.74-27.154-67.4-66.192-67.4s-48.256-13.942-48.256-13.942zm69.997 48.09l-52.414 1.365c-39.478-2.234-64.916-23.511-64.916-67.177 0-43.667 40.528-65.626 82.333-66.021 28.623-.271 54.326 6.493 70.506 14.486l-9.062-21.259L300.4 88l20.897 49.025a9.166 9.166 0 0 1-4.838 12.026c-3.319 1.415-6.999.713-9.563-1.485 0 0-45.635-28.051-84.805-28.051-39.17 0-61.52 20.752-64.054 48.468-2.534 27.716 16.274 51.174 50.04 50.367 57.94-1.386 49.01 15.445 49.01 15.445z" id="smart_switch-copy" fill="#FFF"/></g></g></g><metadata><rdf:RDF xmlns:rdf="http://www.w3.org/1999/02/22-rdf-syntax-ns#" xmlns:rdfs="http://www.w3.org/2000/01/rdf-schema#" xmlns:dc="http://purl.org/dc/elements/1.1/"><rdf:Description about="https://iconscout.com/legal#licenses" dc:title="smart,switch" dc:description="smart,switch" dc:publisher="Iconscout" dc:date="2017-09-26" dc:format="image/svg+xml" dc:language="en"><dc:creator><rdf:Bag><rdf:li>Tagincev Kirill</rdf:li></rdf:Bag></dc:creator></rdf:Description></rdf:RDF></metadata></svg>