<?xml version="1.0" encoding="UTF-8"?><svg xmlns="http://www.w3.org/2000/svg" xmlns:xlink="http://www.w3.org/1999/xlink" width="470px" height="468px" viewBox="0 0 470 468" version="1.1"><title>smart_manager</title><defs><path d="M9.635 132.808C24.782 59.782 71.388 19.109 144.085 6.822c53.74-9.081 107.5-9.196 161.15.255 74.852 13.185 119.85 56.23 134.185 130.36 11.075 57.29 11.249 115.191-.174 172.427-15.324 72.52-63.132 117.285-135.561 129.527-53.74 9.08-107.5 9.195-161.15-.255-74.852-13.186-120.05-58.38-134.384-132.509-11.64-57.668-10.52-115.935 1.484-173.82z" id="path-1"/><filter x="-5.9%" y="-3.9%" width="111.8%" height="111.9%" filterUnits="objectBoundingBox" id="filter-2"><feOffset dx="0" dy="5" in="SourceAlpha" result="shadowOffsetOuter1"/><feGaussianBlur stdDeviation="4" in="shadowOffsetOuter1" result="shadowBlurOuter1"/><feColorMatrix values="0 0 0 0 0 0 0 0 0 0 0 0 0 0 0 0 0 0 0.078125 0" type="matrix" in="shadowBlurOuter1" result="shadowMatrixOuter1"/><feOffset dx="0" dy="4" in="SourceAlpha" result="shadowOffsetOuter2"/><feGaussianBlur stdDeviation="5.5" in="shadowOffsetOuter2" result="shadowBlurOuter2"/><feColorMatrix values="0 0 0 0 0 0 0 0 0 0 0 0 0 0 0 0 0 0 0.210824275 0" type="matrix" in="shadowBlurOuter2" result="shadowMatrixOuter2"/><feMerge><feMergeNode in="shadowMatrixOuter1"/><feMergeNode in="shadowMatrixOuter2"/></feMerge></filter></defs><g id="S8-/-S8+-icons" stroke="none" stroke-width="1" fill="none" fill-rule="evenodd"><g id="icons" transform="translate(-21.000000, -26.000000)"><g id="smart_manager"><g transform="translate(32.000000, 33.000000)"><use fill="#000" fill-opacity="1" filter="url(#filter-2)" xlink:href="#path-1"/><use fill="#2AC7DA" fill-rule="evenodd" xlink:href="#path-1"/></g><path d="M213.833 206.49h-18.5v-11.07A43.03 43.03 0 0 0 186 222.24c0 23.886 19.363 43.25 43.25 43.25s43.25-19.364 43.25-43.25c0-19.449-12.837-35.897-30.5-41.338v-20.627c28.82 5.9 50.5 31.4 50.5 61.964 0 34.932-28.318 63.25-63.25 63.25-34.933 0-63.25-28.318-63.25-63.25 0-16.246 6.13-31.052 16.198-42.25h-13.365v-18.5h45v45zm12.417 130.785c34.367 0 65.219-15.029 86.358-38.867l14.312 10.568c-24.442 28.078-60.445 45.828-100.595 45.828C152.691 354.804 93 295.114 93 221.48 93 152.916 144.759 96.45 211.333 89v18.447c-56.683 7.316-100.476 55.76-100.476 114.434 0 63.731 51.664 115.394 115.393 115.394zM241.667 89.04c66.405 7.61 117.982 63.998 117.982 132.44 0 22.583-5.622 43.85-15.531 62.489l-14.519-10.721c7.704-15.47 12.044-32.91 12.044-51.366 0-58.501-43.537-106.828-99.976-114.364V89.04z" fill="#FFF" transform="translate(32.000000, 33.000000)"/></g></g></g><metadata><rdf:RDF xmlns:rdf="http://www.w3.org/1999/02/22-rdf-syntax-ns#" xmlns:rdfs="http://www.w3.org/2000/01/rdf-schema#" xmlns:dc="http://purl.org/dc/elements/1.1/"><rdf:Description about="https://iconscout.com/legal#licenses" dc:title="smart,manager" dc:description="smart,manager" dc:publisher="Iconscout" dc:date="2017-09-26" dc:format="image/svg+xml" dc:language="en"><dc:creator><rdf:Bag><rdf:li>Tagincev Kirill</rdf:li></rdf:Bag></dc:creator></rdf:Description></rdf:RDF></metadata></svg>