<?xml version="1.0" encoding="UTF-8"?><svg xmlns="http://www.w3.org/2000/svg" xmlns:xlink="http://www.w3.org/1999/xlink" width="470px" height="468px" viewBox="0 0 470 468" version="1.1"><title>theme_store</title><defs><path d="M9.635 132.808C24.782 59.782 71.388 19.109 144.085 6.822c53.74-9.081 107.5-9.196 161.15.255 74.852 13.185 119.85 56.23 134.185 130.36 11.075 57.29 11.249 115.191-.174 172.427-15.324 72.52-63.132 117.285-135.561 129.527-53.74 9.08-107.5 9.195-161.15-.255-74.852-13.186-120.05-58.38-134.384-132.509-11.64-57.668-10.52-115.935 1.484-173.82z" id="path-1"/><filter x="-5.9%" y="-3.9%" width="111.8%" height="111.9%" filterUnits="objectBoundingBox" id="filter-2"><feOffset dx="0" dy="5" in="SourceAlpha" result="shadowOffsetOuter1"/><feGaussianBlur stdDeviation="4" in="shadowOffsetOuter1" result="shadowBlurOuter1"/><feColorMatrix values="0 0 0 0 0 0 0 0 0 0 0 0 0 0 0 0 0 0 0.078125 0" type="matrix" in="shadowBlurOuter1" result="shadowMatrixOuter1"/><feOffset dx="0" dy="4" in="SourceAlpha" result="shadowOffsetOuter2"/><feGaussianBlur stdDeviation="5.5" in="shadowOffsetOuter2" result="shadowBlurOuter2"/><feColorMatrix values="0 0 0 0 0 0 0 0 0 0 0 0 0 0 0 0 0 0 0.210824275 0" type="matrix" in="shadowBlurOuter2" result="shadowMatrixOuter2"/><feMerge><feMergeNode in="shadowMatrixOuter1"/><feMergeNode in="shadowMatrixOuter2"/></feMerge></filter><filter x="-46.1%" y="-46.3%" width="192.3%" height="192.6%" filterUnits="objectBoundingBox" id="filter-3"><feGaussianBlur stdDeviation="34.5982143" in="SourceGraphic"/></filter></defs><g id="S8-/-S8+-icons" stroke="none" stroke-width="1" fill="none" fill-rule="evenodd"><g id="icons" transform="translate(-21.000000, -26.000000)"><g id="theme_store"><g transform="translate(32.000000, 33.000000)"><use fill="#000" fill-opacity="1" filter="url(#filter-2)" xlink:href="#path-1"/><use fill="#65BDF4" fill-rule="evenodd" xlink:href="#path-1"/><use fill-rule="evenodd" xlink:href="#path-1"/></g><path d="M115.841 177.733c7.611-36.694 31.03-57.13 67.559-63.305 27.003-4.563 54.017-4.62 80.974.128 37.612 6.625 60.222 28.255 67.425 65.503 5.566 28.788 5.653 57.882-.087 86.641-7.7 36.44-31.723 58.934-68.117 65.085-27.003 4.563-54.016 4.62-80.974-.128-37.612-6.626-60.322-29.335-67.526-66.583-5.848-28.977-5.285-58.255.746-87.34z" filter="url(#filter-3)" transform="translate(32.000000, 33.000000)"/><path d="M326.128 247.192l-.085-1.18v-20.345H307.71v15.529c-1.523 7.29-6.176 8.72-19.25 11.72-52.85 12.127-56.052 18.142-44.25 71.25 3.5 15.75-6 27.612-18.93 27.75-12.93-.138-22.43-12-18.93-27.75 11.802-53.108 5.065-61.128-48.021-72.176-10.1-2.103-15.503-5.295-17.952-12.473V116.333H307.71v61h-137v18.334h137c10.125 0 18.333-8.208 18.333-18.334v-61c0-10.125-8.208-18.333-18.333-18.333H140.377c-10.125 0-18.333 8.208-18.333 18.333v131.306c-.314 4.532 1.1 7.996 3.438 10.662 3.287 4.583 8.624 7.589 14.677 7.66 11.046 3.124 20.599 4.344 33.282 8.604 15.603 5.24 21.41 8.102 18.545 28.245-.91 6.402-2.455 12.71-3.957 19-4.665 19.529-.996 30.784 13.505 40.854 6.97 4.84 15.297 7.422 23.746 7.797 8.45-.375 16.776-2.957 23.746-7.797 14.502-10.07 18.17-21.325 13.506-40.854-1.503-6.29-3.048-12.598-3.958-19-2.864-20.143 2.943-23.005 18.545-28.245 12.712-4.27 23.057-5.662 33.544-8.667 4.319-.375 8.159-2.38 10.928-5.394 3.13-3.001 4.954-7.281 4.537-13.312" fill="#FFF" transform="translate(32.000000, 33.000000)"/></g></g></g><metadata><rdf:RDF xmlns:rdf="http://www.w3.org/1999/02/22-rdf-syntax-ns#" xmlns:rdfs="http://www.w3.org/2000/01/rdf-schema#" xmlns:dc="http://purl.org/dc/elements/1.1/"><rdf:Description about="https://iconscout.com/legal#licenses" dc:title="theme,store" dc:description="theme,store" dc:publisher="Iconscout" dc:date="2017-09-26" dc:format="image/svg+xml" dc:language="en"><dc:creator><rdf:Bag><rdf:li>Tagincev Kirill</rdf:li></rdf:Bag></dc:creator></rdf:Description></rdf:RDF></metadata></svg>