<?xml version="1.0" encoding="UTF-8"?><svg xmlns="http://www.w3.org/2000/svg" xmlns:xlink="http://www.w3.org/1999/xlink" width="470px" height="468px" viewBox="0 0 470 468" version="1.1"><title>weather</title><defs><path d="M9.635 132.808C24.782 59.782 71.388 19.109 144.085 6.822c53.74-9.081 107.5-9.196 161.15.255 74.852 13.185 119.85 56.23 134.185 130.36 11.075 57.29 11.249 115.191-.174 172.427-15.324 72.52-63.132 117.285-135.561 129.527-53.74 9.08-107.5 9.195-161.15-.255-74.852-13.186-120.05-58.38-134.384-132.509-11.64-57.668-10.52-115.935 1.484-173.82z" id="path-1"/><filter x="-5.9%" y="-3.9%" width="111.8%" height="111.9%" filterUnits="objectBoundingBox" id="filter-2"><feOffset dx="0" dy="5" in="SourceAlpha" result="shadowOffsetOuter1"/><feGaussianBlur stdDeviation="4" in="shadowOffsetOuter1" result="shadowBlurOuter1"/><feColorMatrix values="0 0 0 0 0 0 0 0 0 0 0 0 0 0 0 0 0 0 0.078125 0" type="matrix" in="shadowBlurOuter1" result="shadowMatrixOuter1"/><feOffset dx="0" dy="4" in="SourceAlpha" result="shadowOffsetOuter2"/><feGaussianBlur stdDeviation="5.5" in="shadowOffsetOuter2" result="shadowBlurOuter2"/><feColorMatrix values="0 0 0 0 0 0 0 0 0 0 0 0 0 0 0 0 0 0 0.210824275 0" type="matrix" in="shadowBlurOuter2" result="shadowMatrixOuter2"/><feMerge><feMergeNode in="shadowMatrixOuter1"/><feMergeNode in="shadowMatrixOuter2"/></feMerge></filter></defs><g id="S8-/-S8+-icons" stroke="none" stroke-width="1" fill="none" fill-rule="evenodd"><g id="icons" transform="translate(-21.000000, -26.000000)"><g id="weather"><g transform="translate(32.000000, 33.000000)"><use fill="#000" fill-opacity="1" filter="url(#filter-2)" xlink:href="#path-1"/><use fill="#5BB0F3" fill-rule="evenodd" xlink:href="#path-1"/></g><path d="M185.077 291.418c-32.836 0-59.456-26.619-59.456-59.456 0-32.836 26.62-59.456 59.456-59.456 32.837 0 59.456 26.62 59.456 59.456h-20.502c0-21.513-17.44-38.954-38.954-38.954-21.513 0-38.954 17.44-38.954 38.954s17.44 38.954 38.954 38.954c.343 0 .685-.004 1.025-.013v.013h107.433l.013-.01c.409.007.818.01 1.229.01 37.649 0 68.17-30.75 68.17-68.682s-30.521-68.682-68.17-68.682c-23.197 0-43.687 11.673-56 29.506l-17.821-14.43C237.329 125.84 264.063 111 294.264 111c49.821 0 90.21 40.388 90.21 90.21 0 48.623-38.471 88.262-86.635 90.139v.07H185.077zm-11.276-179.393h19.477v41.004h-19.477v-41.004zm0 202.97h19.477V356h-19.477v-41.004zm-71.757-90.208v19.477H61.04v-19.477h41.004zm29.44-56.09l-13.772 13.773-28.995-28.995 13.773-13.772 28.994 28.994zm0 126.243l-28.994 28.994-13.773-13.772 28.995-28.995 13.772 13.773z" fill="#FFF" transform="translate(32.000000, 33.000000)"/></g></g></g><metadata><rdf:RDF xmlns:rdf="http://www.w3.org/1999/02/22-rdf-syntax-ns#" xmlns:rdfs="http://www.w3.org/2000/01/rdf-schema#" xmlns:dc="http://purl.org/dc/elements/1.1/"><rdf:Description about="https://iconscout.com/legal#licenses" dc:title="weather" dc:description="weather" dc:publisher="Iconscout" dc:date="2017-09-26" dc:format="image/svg+xml" dc:language="en"><dc:creator><rdf:Bag><rdf:li>Tagincev Kirill</rdf:li></rdf:Bag></dc:creator></rdf:Description></rdf:RDF></metadata></svg>