<?xml version="1.0" encoding="UTF-8"?><svg xmlns="http://www.w3.org/2000/svg" xmlns:xlink="http://www.w3.org/1999/xlink" version="1.1" id="Layer_1" x="0px" y="0px" viewBox="0 0 16 16" xml:space="preserve"><path d="M13.532 7.103l-.407-.135c-.996-.325-1.596-.522-1.596-1.327 0-.653.485-1.126 1.153-1.126.512 0 .894.221 1.236.719a.11.11 0 0 0 .142.036l1.005-.533a.11.11 0 0 0 .056-.07.13.13 0 0 0-.009-.091c-.539-.994-1.315-1.477-2.374-1.477-1.611 0-2.653 1.013-2.653 2.58 0 1.602 1.008 2.251 2.866 2.886 1.076.373 1.553.57 1.553 1.366 0 .895-.777 1.538-1.837 1.5-1.111-.039-1.447-.65-1.87-1.652a475.93 475.93 0 0 1-1.538-3.696C8.442 4.123 6.821 3 4.812 3 2.159 3 0 5.243 0 8.001 0 10.757 2.159 13 4.812 13c1.447 0 2.804-.666 3.722-1.829a.12.12 0 0 0 .016-.12l-.606-1.454a.115.115 0 0 0-.099-.07.11.11 0 0 0-.103.062c-.573 1.137-1.696 1.843-2.93 1.843C2.991 11.432 1.51 9.893 1.51 8s1.481-3.432 3.302-3.432c1.326 0 2.54.817 3.023 2.037l1.501 3.555.173.399c.678 1.641 1.675 2.377 3.236 2.383 1.856 0 3.255-1.278 3.255-2.972 0-1.699-.905-2.337-2.468-2.867z" fill="#FF5722"/><metadata><rdf:RDF xmlns:rdf="http://www.w3.org/1999/02/22-rdf-syntax-ns#" xmlns:rdfs="http://www.w3.org/2000/01/rdf-schema#" xmlns:dc="http://purl.org/dc/elements/1.1/"><rdf:Description about="https://iconscout.com/legal#licenses" dc:title="askfm,social,color,e" dc:description="askfm,social,color,e" dc:publisher="Iconscout" dc:date="2018-02-17" dc:format="image/svg+xml" dc:language="en"><dc:creator><rdf:Bag><rdf:li>Pixel Icons</rdf:li></rdf:Bag></dc:creator></rdf:Description></rdf:RDF></metadata></svg>