<?xml version="1.0" encoding="UTF-8"?><svg xmlns="http://www.w3.org/2000/svg" xmlns:xlink="http://www.w3.org/1999/xlink" version="1.1" id="Layer_1" x="0px" y="0px" viewBox="0 0 16 16" xml:space="preserve"><path d="M0 8.5v-7A.5.5 0 0 1 .5 1H5v8H.5a.5.5 0 0 1-.5-.5z" fill="#1565C0"/><path d="M14 10h-4v3c0 1.103-.897 2-2 2H6.5a.5.5 0 0 1-.5-.5v-2.367L4.066 8.748A.493.493 0 0 1 4 8.5v-7a.5.5 0 0 1 .5-.5h8.025a2 2 0 0 1 1.827 1.188l1.604 3.609A.491.491 0 0 1 16 6v2c0 1.103-.897 2-2 2z" fill="#BBDEFB"/><metadata><rdf:RDF xmlns:rdf="http://www.w3.org/1999/02/22-rdf-syntax-ns#" xmlns:rdfs="http://www.w3.org/2000/01/rdf-schema#" xmlns:dc="http://purl.org/dc/elements/1.1/"><rdf:Description about="https://iconscout.com/legal#licenses" dc:title="dislike,social,color,e" dc:description="dislike,social,color,e" dc:publisher="Iconscout" dc:date="2018-02-17" dc:format="image/svg+xml" dc:language="en"><dc:creator><rdf:Bag><rdf:li>Pixel Icons</rdf:li></rdf:Bag></dc:creator></rdf:Description></rdf:RDF></metadata></svg>