<?xml version="1.0" encoding="UTF-8"?><svg xmlns="http://www.w3.org/2000/svg" xmlns:xlink="http://www.w3.org/1999/xlink" version="1.1" id="Layer_1" x="0px" y="0px" viewBox="0 0 16 16" xml:space="preserve"><g fill="#1E88E5"><path d="M16 3.098L11.293 0 8 2.771l4.746 2.953z"/><path d="M4.707 0L0 3.097l3.255 2.627L8 2.771z"/><path d="M8 8.678l-3.293 2.771L0 8.351l3.254-2.627L8 8.678l4.745-2.954L16 8.351l-4.707 3.098L8 8.678z"/><path d="M11.531 12.489a.496.496 0 0 1-.596-.035L8 9.984l-2.935 2.47a.502.502 0 0 1-.597.035L3 11.523V13l5.01 3L13 13v-1.478l-1.469.967z"/></g><metadata><rdf:RDF xmlns:rdf="http://www.w3.org/1999/02/22-rdf-syntax-ns#" xmlns:rdfs="http://www.w3.org/2000/01/rdf-schema#" xmlns:dc="http://purl.org/dc/elements/1.1/"><rdf:Description about="https://iconscout.com/legal#licenses" dc:title="dropbox,social,color,e" dc:description="dropbox,social,color,e" dc:publisher="Iconscout" dc:date="2018-02-17" dc:format="image/svg+xml" dc:language="en"><dc:creator><rdf:Bag><rdf:li>Pixel Icons</rdf:li></rdf:Bag></dc:creator></rdf:Description></rdf:RDF></metadata></svg>