<?xml version="1.0" encoding="UTF-8"?><svg xmlns="http://www.w3.org/2000/svg" xmlns:xlink="http://www.w3.org/1999/xlink" version="1.1" id="Layer_1" x="0px" y="0px" viewBox="0 0 16 16" xml:space="preserve"><path d="M14 0H2C.897 0 0 .897 0 2v12c0 1.103.897 2 2 2h12c1.103 0 2-.897 2-2V2c0-1.103-.897-2-2-2z" fill="#1976D2"/><path d="M13.5 8H11V6c0-.552.448-.5 1-.5h1V3h-2a3 3 0 0 0-3 3v2H6v2.5h2V16h3v-5.5h1.5l1-2.5z" fill-rule="evenodd" clip-rule="evenodd" fill="#FAFAFA"/><metadata><rdf:RDF xmlns:rdf="http://www.w3.org/1999/02/22-rdf-syntax-ns#" xmlns:rdfs="http://www.w3.org/2000/01/rdf-schema#" xmlns:dc="http://purl.org/dc/elements/1.1/"><rdf:Description about="https://iconscout.com/legal#licenses" dc:title="facebook,logo,social,color,e" dc:description="facebook,logo,social,color,e" dc:publisher="Iconscout" dc:date="2018-02-17" dc:format="image/svg+xml" dc:language="en"><dc:creator><rdf:Bag><rdf:li>Pixel Icons</rdf:li></rdf:Bag></dc:creator></rdf:Description></rdf:RDF></metadata></svg>