<?xml version="1.0" encoding="UTF-8"?><svg xmlns="http://www.w3.org/2000/svg" xmlns:xlink="http://www.w3.org/1999/xlink" version="1.1" id="Layer_1" x="0px" y="0px" viewBox="0 0 16 16" xml:space="preserve"><path fill="#009688" d="M1 16L7.5 0 14 16z" id="XMLID_1_"/><path d="M10.876 11.285a.497.497 0 0 0-.671-.222l-1.705.858v-.501a.5.5 0 0 0 .277-.084l.96-.64a.5.5 0 0 0-.554-.832l-.683.455V9h-2v2.511l-.925-.933a.5.5 0 0 0-.71.703l1.29 1.301a.5.5 0 0 0 .345.147V16h2v-3.02a.49.49 0 0 0 .224-.054l1.93-.971a.498.498 0 0 0 .222-.67z" fill="#FAFAFA"/><metadata><rdf:RDF xmlns:rdf="http://www.w3.org/1999/02/22-rdf-syntax-ns#" xmlns:rdfs="http://www.w3.org/2000/01/rdf-schema#" xmlns:dc="http://purl.org/dc/elements/1.1/"><rdf:Description about="https://iconscout.com/legal#licenses" dc:title="forrst,social,color,e" dc:description="forrst,social,color,e" dc:publisher="Iconscout" dc:date="2018-02-17" dc:format="image/svg+xml" dc:language="en"><dc:creator><rdf:Bag><rdf:li>Pixel Icons</rdf:li></rdf:Bag></dc:creator></rdf:Description></rdf:RDF></metadata></svg>