<?xml version="1.0" encoding="UTF-8"?><svg xmlns="http://www.w3.org/2000/svg" xmlns:xlink="http://www.w3.org/1999/xlink" version="1.1" id="Layer_1" x="0px" y="0px" viewBox="0 0 16 16" xml:space="preserve"><path d="M12.941 0H4.505C3.346 0 3 .887 3 1.445v13.556c0 .668.336.865.52.942a.91.91 0 0 0 .331.057.954.954 0 0 0 .687-.276l4.072-4.796c.065-.077.097-.077.141-.077h2.534c1.083 0 1.289-.756 1.408-1.215.097-.383 1.213-5.858 1.559-7.588C14.511.712 14.175 0 12.941 0z" fill="#EC407A"/><path d="M10.9 8.461a.49.49 0 0 1-.488.39H8.75a2.13 2.13 0 0 0-1.666.783L5 12.089V2.5a.5.5 0 0 1 .5-.5h6.11c.316 0 .554.284.491.594l-.305 1.504a.503.503 0 0 1-.49.402H8.5A.5.5 0 0 0 8 5v1a.5.5 0 0 0 .5.5h2.192c.317 0 .553.294.489.604L10.9 8.461z" fill="#FAFAFA"/><metadata><rdf:RDF xmlns:rdf="http://www.w3.org/1999/02/22-rdf-syntax-ns#" xmlns:rdfs="http://www.w3.org/2000/01/rdf-schema#" xmlns:dc="http://purl.org/dc/elements/1.1/"><rdf:Description about="https://iconscout.com/legal#licenses" dc:title="foursquare,social,color,e" dc:description="foursquare,social,color,e" dc:publisher="Iconscout" dc:date="2018-02-17" dc:format="image/svg+xml" dc:language="en"><dc:creator><rdf:Bag><rdf:li>Pixel Icons</rdf:li></rdf:Bag></dc:creator></rdf:Description></rdf:RDF></metadata></svg>