<?xml version="1.0" encoding="UTF-8"?><svg xmlns="http://www.w3.org/2000/svg" xmlns:xlink="http://www.w3.org/1999/xlink" version="1.1" id="Layer_1" x="0px" y="0px" viewBox="0 0 16 16" xml:space="preserve"><g fill="#F44336"><path d="M16 7h-2V5h-1v2h-2v1h2v2h1V8h2z"/><path d="M5 9h2.829A3.006 3.006 0 0 1 5 11c-1.654 0-3-1.346-3-3s1.346-3 3-3c.717 0 1.407.257 1.943.724l1.314-1.508A4.955 4.955 0 0 0 5 3C2.243 3 0 5.243 0 8s2.243 5 5 5 5-2.243 5-5V7H5v2z"/></g><metadata><rdf:RDF xmlns:rdf="http://www.w3.org/1999/02/22-rdf-syntax-ns#" xmlns:rdfs="http://www.w3.org/2000/01/rdf-schema#" xmlns:dc="http://purl.org/dc/elements/1.1/"><rdf:Description about="https://iconscout.com/legal#licenses" dc:title="google,plus,social,color,e" dc:description="google,plus,social,color,e" dc:publisher="Iconscout" dc:date="2018-02-17" dc:format="image/svg+xml" dc:language="en"><dc:creator><rdf:Bag><rdf:li>Pixel Icons</rdf:li></rdf:Bag></dc:creator></rdf:Description></rdf:RDF></metadata></svg>