<?xml version="1.0" encoding="UTF-8"?><svg xmlns="http://www.w3.org/2000/svg" xmlns:xlink="http://www.w3.org/1999/xlink" version="1.1" id="Layer_1" x="0px" y="0px" viewBox="0 0 16 16" xml:space="preserve"><path d="M0 7.5v7a.5.5 0 0 0 .5.5H5V7H.5a.5.5 0 0 0-.5.5z" fill="#1565C0"/><path d="M14 6h-4V3c0-1.103-.897-2-2-2H6.5a.5.5 0 0 0-.5.5v2.367L4.066 7.252A.493.493 0 0 0 4 7.5v7a.5.5 0 0 0 .5.5h8.025a2 2 0 0 0 1.827-1.188l1.604-3.609A.491.491 0 0 0 16 10V8c0-1.103-.897-2-2-2z" fill="#BBDEFB"/><metadata><rdf:RDF xmlns:rdf="http://www.w3.org/1999/02/22-rdf-syntax-ns#" xmlns:rdfs="http://www.w3.org/2000/01/rdf-schema#" xmlns:dc="http://purl.org/dc/elements/1.1/"><rdf:Description about="https://iconscout.com/legal#licenses" dc:title="like,social,color,e" dc:description="like,social,color,e" dc:publisher="Iconscout" dc:date="2018-02-17" dc:format="image/svg+xml" dc:language="en"><dc:creator><rdf:Bag><rdf:li>Pixel Icons</rdf:li></rdf:Bag></dc:creator></rdf:Description></rdf:RDF></metadata></svg>