<?xml version="1.0" encoding="UTF-8"?><svg xmlns="http://www.w3.org/2000/svg" xmlns:xlink="http://www.w3.org/1999/xlink" version="1.1" id="Layer_1" x="0px" y="0px" viewBox="0 0 16 16" xml:space="preserve"><g fill="#37474F"><path d="M13 9c-1.654 0-3 1.346-3 3v.5a.5.5 0 0 0 .5.5h5a.5.5 0 0 0 .5-.5V12c0-1.654-1.346-3-3-3z"/><circle cx="13" cy="5.5" r="2.5"/><path d="M7 9a2.503 2.503 0 0 0-2.5 2.5v1a.5.5 0 0 0 .5.5h4a.5.5 0 0 0 .5-.5v-1C9.5 10.121 8.378 9 7 9z"/><path d="M2 9c-1.103 0-2 .897-2 2v1.5a.5.5 0 0 0 .5.5h3a.5.5 0 0 0 .5-.5V11c0-1.103-.897-2-2-2z"/><circle cx="7" cy="6" r="2.25"/><circle cx="2" cy="6.5" r="1.75"/></g><metadata><rdf:RDF xmlns:rdf="http://www.w3.org/1999/02/22-rdf-syntax-ns#" xmlns:rdfs="http://www.w3.org/2000/01/rdf-schema#" xmlns:dc="http://purl.org/dc/elements/1.1/"><rdf:Description about="https://iconscout.com/legal#licenses" dc:title="myspace,social,color,e" dc:description="myspace,social,color,e" dc:publisher="Iconscout" dc:date="2018-02-17" dc:format="image/svg+xml" dc:language="en"><dc:creator><rdf:Bag><rdf:li>Pixel Icons</rdf:li></rdf:Bag></dc:creator></rdf:Description></rdf:RDF></metadata></svg>