<?xml version="1.0" encoding="UTF-8"?><svg xmlns="http://www.w3.org/2000/svg" xmlns:xlink="http://www.w3.org/1999/xlink" version="1.1" id="Layer_1" x="0px" y="0px" viewBox="0 0 16 16" xml:space="preserve"><path d="M12 1.079V11h3.413A7.96 7.96 0 0 0 16 8a7.99 7.99 0 0 0-4-6.921z" fill="#FFC107"/><path d="M11 .587A7.96 7.96 0 0 0 8 0c-.964 0-1.884.179-2.74.492L11 5.849V.587z" fill="#F44336"/><path d="M5 15.413A7.96 7.96 0 0 0 8 16a7.99 7.99 0 0 0 6.921-4H5v3.413z" fill="#4CAF50"/><path d="M4.262.929A7.997 7.997 0 0 0 0 8c0 .705.1 1.386.272 2.037l6.752-6.531L4.262.929z" fill="#9C27B0"/><path d="M4 14.921V7.823L.62 11.092A8.031 8.031 0 0 0 4 14.921z" fill="#2196F3"/><metadata><rdf:RDF xmlns:rdf="http://www.w3.org/1999/02/22-rdf-syntax-ns#" xmlns:rdfs="http://www.w3.org/2000/01/rdf-schema#" xmlns:dc="http://purl.org/dc/elements/1.1/"><rdf:Description about="https://iconscout.com/legal#licenses" dc:title="picasa,social,color,e" dc:description="picasa,social,color,e" dc:publisher="Iconscout" dc:date="2018-02-17" dc:format="image/svg+xml" dc:language="en"><dc:creator><rdf:Bag><rdf:li>Pixel Icons</rdf:li></rdf:Bag></dc:creator></rdf:Description></rdf:RDF></metadata></svg>