<?xml version="1.0" encoding="UTF-8"?><svg xmlns="http://www.w3.org/2000/svg" xmlns:xlink="http://www.w3.org/1999/xlink" version="1.1" id="Layer_1" x="0px" y="0px" viewBox="0 0 16 16" xml:space="preserve"><path id="XMLID_215_" d="M8.717 0C4.332 0 2 2.81 2 5.874c0 1.421.794 3.193 2.065 3.755.193.087.298.05.341-.129.038-.136.205-.791.286-1.1a.283.283 0 0 0-.068-.278c-.422-.488-.757-1.377-.757-2.211 0-2.137 1.699-4.212 4.59-4.212 2.5 0 4.249 1.624 4.249 3.947 0 2.625-1.389 4.441-3.194 4.441-.999 0-1.743-.784-1.507-1.754.285-1.155.844-2.397.844-3.23 0-.747-.422-1.365-1.284-1.365-1.017 0-1.842 1.007-1.842 2.359 0 .859.304 1.439.304 1.439l-1.193 4.823c-.316 1.285.043 3.366.074 3.545.019.099.13.13.192.049.099-.13 1.315-1.865 1.656-3.119.124-.457.633-2.31.633-2.31.335.605 1.302 1.112 2.332 1.112 3.064 0 5.278-2.693 5.278-6.035C14.988 2.397 12.246 0 8.717 0" fill="#D32F2F"/><metadata><rdf:RDF xmlns:rdf="http://www.w3.org/1999/02/22-rdf-syntax-ns#" xmlns:rdfs="http://www.w3.org/2000/01/rdf-schema#" xmlns:dc="http://purl.org/dc/elements/1.1/"><rdf:Description about="https://iconscout.com/legal#licenses" dc:title="pinterest,social,color,e" dc:description="pinterest,social,color,e" dc:publisher="Iconscout" dc:date="2018-02-17" dc:format="image/svg+xml" dc:language="en"><dc:creator><rdf:Bag><rdf:li>Pixel Icons</rdf:li></rdf:Bag></dc:creator></rdf:Description></rdf:RDF></metadata></svg>