<?xml version="1.0" encoding="UTF-8"?><svg xmlns="http://www.w3.org/2000/svg" xmlns:xlink="http://www.w3.org/1999/xlink" version="1.1" id="Layer_1" x="0px" y="0px" viewBox="0 0 16 16" xml:space="preserve"><path fill="#FAFAFA" d="M6 9.5l-.5-.001V9.5z"/><path fill="#FAFAFA" d="M10.5 9.5h.5l-.5-.001z"/><path d="M16.07 8c0-1.103-.897-2-2-2-.441 0-.86.144-1.202.405-1.116-.775-2.578-1.237-4.133-1.354l.839-1.968 2.441.57C12.093 4.408 12.725 5 13.5 5c.827 0 1.5-.673 1.5-1.5S14.327 2 13.5 2c-.524 0-.985.271-1.253.68l-2.853-.667a.5.5 0 0 0-.575.291l-1.16 2.72c-1.679.058-3.279.531-4.487 1.355A2.002 2.002 0 0 0 0 8a1.98 1.98 0 0 0 1.011 1.731A2.978 2.978 0 0 0 1 10c0 2.757 3.14 5 7 5 3.859 0 7-2.243 7-5 0-.078-.003-.155-.008-.232A1.98 1.98 0 0 0 16.07 8z" fill="#FF9800"/><circle cx="13.5" cy="3.5" r="0.5" fill="#FAFAFA"/><circle cx="5.5" cy="9.5" r="1" fill="#FAFAFA"/><path d="M10.309 12.817a3.936 3.936 0 0 1-4.618 0 .5.5 0 1 1 .586-.81 2.933 2.933 0 0 0 3.446 0 .5.5 0 1 1 .586.81z" fill="#FAFAFA"/><circle cx="10.5" cy="9.5" r="1" fill="#FAFAFA"/><metadata><rdf:RDF xmlns:rdf="http://www.w3.org/1999/02/22-rdf-syntax-ns#" xmlns:rdfs="http://www.w3.org/2000/01/rdf-schema#" xmlns:dc="http://purl.org/dc/elements/1.1/"><rdf:Description about="https://iconscout.com/legal#licenses" dc:title="reddit,social,color,e" dc:description="reddit,social,color,e" dc:publisher="Iconscout" dc:date="2018-02-17" dc:format="image/svg+xml" dc:language="en"><dc:creator><rdf:Bag><rdf:li>Pixel Icons</rdf:li></rdf:Bag></dc:creator></rdf:Description></rdf:RDF></metadata></svg>