<?xml version="1.0" encoding="UTF-8"?><svg xmlns="http://www.w3.org/2000/svg" xmlns:xlink="http://www.w3.org/1999/xlink" version="1.1" id="Layer_1" x="0px" y="0px" viewBox="0 0 16 16" xml:space="preserve"><g fill="#FF9800"><path d="M13.5 7a2.49 2.49 0 0 0-.521.055A4.508 4.508 0 0 0 8.5 3a.5.5 0 0 0-.5.5v8a.5.5 0 0 0 .5.5h5c1.379 0 2.5-1.121 2.5-2.5C16 8.122 14.879 7 13.5 7z"/><path d="M6.5 4a.5.5 0 0 0-.5.5v7a.5.5 0 0 0 1 0v-7a.5.5 0 0 0-.5-.5z"/><path d="M4.5 6a.5.5 0 0 0-.5.5v5a.5.5 0 0 0 1 0v-5a.5.5 0 0 0-.5-.5z"/><path d="M2.5 6a.5.5 0 0 0-.5.5v5a.5.5 0 0 0 1 0v-5a.5.5 0 0 0-.5-.5z"/><path d="M.5 7.5A.5.5 0 0 0 0 8v3a.5.5 0 0 0 1 0V8a.5.5 0 0 0-.5-.5z"/></g><metadata><rdf:RDF xmlns:rdf="http://www.w3.org/1999/02/22-rdf-syntax-ns#" xmlns:rdfs="http://www.w3.org/2000/01/rdf-schema#" xmlns:dc="http://purl.org/dc/elements/1.1/"><rdf:Description about="https://iconscout.com/legal#licenses" dc:title="soundcloud,social,color,e" dc:description="soundcloud,social,color,e" dc:publisher="Iconscout" dc:date="2018-02-17" dc:format="image/svg+xml" dc:language="en"><dc:creator><rdf:Bag><rdf:li>Pixel Icons</rdf:li></rdf:Bag></dc:creator></rdf:Description></rdf:RDF></metadata></svg>