<?xml version="1.0" encoding="UTF-8"?><svg xmlns="http://www.w3.org/2000/svg" xmlns:xlink="http://www.w3.org/1999/xlink" version="1.1" id="Layer_1" x="0px" y="0px" viewBox="0 0 16 16" xml:space="preserve"><circle cx="8" cy="8" r="8" fill="#8BC34A"/><path d="M11.261 11.761c-.1 0-.2-.029-.287-.091-1.875-1.318-4.994-1.391-7.1-.9a.5.5 0 0 1-.226-.975c2.315-.536 5.775-.438 7.9 1.057a.5.5 0 0 1-.287.909z" fill="#37474F" id="XMLID_3043_"/><path d="M12.239 9.805a.495.495 0 0 1-.292-.094C9.773 8.15 7.101 7.762 3.535 8.49a.5.5 0 1 1-.201-.98c3.857-.787 6.779-.347 9.197 1.388a.5.5 0 0 1-.292.907z" fill="#37474F" id="XMLID_3032_"/><path d="M13.218 7.196a.501.501 0 0 1-.281-.086c-2.757-1.871-6.948-1.88-9.661-.92a.5.5 0 1 1-.333-.944C5.894 4.203 10.467 4.225 13.5 6.282a.5.5 0 0 1-.282.914z" fill="#37474F" id="XMLID_3031_"/><metadata><rdf:RDF xmlns:rdf="http://www.w3.org/1999/02/22-rdf-syntax-ns#" xmlns:rdfs="http://www.w3.org/2000/01/rdf-schema#" xmlns:dc="http://purl.org/dc/elements/1.1/"><rdf:Description about="https://iconscout.com/legal#licenses" dc:title="spotify,social,color,e" dc:description="spotify,social,color,e" dc:publisher="Iconscout" dc:date="2018-02-17" dc:format="image/svg+xml" dc:language="en"><dc:creator><rdf:Bag><rdf:li>Pixel Icons</rdf:li></rdf:Bag></dc:creator></rdf:Description></rdf:RDF></metadata></svg>