<?xml version="1.0" encoding="UTF-8"?><svg xmlns="http://www.w3.org/2000/svg" xmlns:xlink="http://www.w3.org/1999/xlink" version="1.1" id="Layer_1" x="0px" y="0px" viewBox="0 0 16 16" xml:space="preserve"><g fill="#FF9800"><path d="M8 4.5v1.899l1.5 1 1.5-1V4.5C11 2.57 9.43 1 7.5 1S4 2.57 4 4.5v6a.5.5 0 0 1-1 0V8H0v2.5C0 12.43 1.57 14 3.5 14S7 12.43 7 10.5v-6a.5.5 0 0 1 1 0z"/><path d="M12 8v2.5c0 .275-.225.5-.5.5s-.5-.225-.5-.5V7.601l-1.223.815a.498.498 0 0 1-.554 0L8 7.601V10.5c0 1.93 1.57 3.5 3.5 3.5s3.5-1.57 3.5-3.5V8h-3z"/></g><metadata><rdf:RDF xmlns:rdf="http://www.w3.org/1999/02/22-rdf-syntax-ns#" xmlns:rdfs="http://www.w3.org/2000/01/rdf-schema#" xmlns:dc="http://purl.org/dc/elements/1.1/"><rdf:Description about="https://iconscout.com/legal#licenses" dc:title="stumbleupon,social,color,e" dc:description="stumbleupon,social,color,e" dc:publisher="Iconscout" dc:date="2018-02-17" dc:format="image/svg+xml" dc:language="en"><dc:creator><rdf:Bag><rdf:li>Pixel Icons</rdf:li></rdf:Bag></dc:creator></rdf:Description></rdf:RDF></metadata></svg>