<?xml version="1.0" encoding="UTF-8"?><svg xmlns="http://www.w3.org/2000/svg" xmlns:xlink="http://www.w3.org/1999/xlink" version="1.1" id="Layer_1" x="0px" y="0px" viewBox="0 0 16 16" xml:space="preserve"><path d="M12.137 8.659C14.27 8.659 16 6.944 16 4.829 16 2.715 14.27 1 12.137 1c-1.941 0-3.545 1.418-3.819 3.265h-.125C7.918 2.418 6.313 1 4.372 1 2.239 1 .51 2.715.51 4.829c0 2.095 1.697 3.798 3.804 3.829v.001h.116v1.305L0 8.774v5.093l4.43-1.321V14h6.511L9.033 8.659h3.104zM4.372 5.91a1.085 1.085 0 0 1-1.091-1.082c0-.597.489-1.081 1.091-1.081s1.091.484 1.091 1.081c0 .599-.489 1.082-1.091 1.082m6.753-1.081c0-.597.487-1.081 1.089-1.081.604 0 1.093.484 1.093 1.081 0 .598-.489 1.083-1.093 1.083a1.086 1.086 0 0 1-1.089-1.083" fill="#2196F3"/><metadata><rdf:RDF xmlns:rdf="http://www.w3.org/1999/02/22-rdf-syntax-ns#" xmlns:rdfs="http://www.w3.org/2000/01/rdf-schema#" xmlns:dc="http://purl.org/dc/elements/1.1/"><rdf:Description about="https://iconscout.com/legal#licenses" dc:title="viddler,social,color,e" dc:description="viddler,social,color,e" dc:publisher="Iconscout" dc:date="2018-02-17" dc:format="image/svg+xml" dc:language="en"><dc:creator><rdf:Bag><rdf:li>Pixel Icons</rdf:li></rdf:Bag></dc:creator></rdf:Description></rdf:RDF></metadata></svg>