<?xml version="1.0" encoding="UTF-8"?><svg xmlns="http://www.w3.org/2000/svg" xmlns:xlink="http://www.w3.org/1999/xlink" version="1.1" id="Layer_1" x="0px" y="0px" viewBox="0 0 16 16" xml:space="preserve"><path d="M0 4.82l.646.851s1.34-1.057 1.786-.531c.452.531 2.163 6.907 2.729 8.086.494 1.033 1.865 2.396 3.363 1.424 1.512-.978 6.503-5.24 7.397-10.283.892-5.034-6.016-3.98-6.74.408 1.822-1.094 2.804.448 1.87 2.191-.936 1.75-1.795 2.891-2.24 2.891-.437 0-.783-1.174-1.295-3.212C6.991 4.534 6.991.728 4.795 1.16 2.719 1.57 0 4.82 0 4.82z" fill="#00BCD4"/><metadata><rdf:RDF xmlns:rdf="http://www.w3.org/1999/02/22-rdf-syntax-ns#" xmlns:rdfs="http://www.w3.org/2000/01/rdf-schema#" xmlns:dc="http://purl.org/dc/elements/1.1/"><rdf:Description about="https://iconscout.com/legal#licenses" dc:title="vimeo,social,color,e" dc:description="vimeo,social,color,e" dc:publisher="Iconscout" dc:date="2018-02-17" dc:format="image/svg+xml" dc:language="en"><dc:creator><rdf:Bag><rdf:li>Pixel Icons</rdf:li></rdf:Bag></dc:creator></rdf:Description></rdf:RDF></metadata></svg>