<?xml version="1.0" encoding="UTF-8"?><svg xmlns="http://www.w3.org/2000/svg" xmlns:xlink="http://www.w3.org/1999/xlink" version="1.1" id="Layer_1" x="0px" y="0px" viewBox="0 0 16 16" xml:space="preserve"><path d="M14.404 6.629c.358-.802.553-1.841.553-2.752 0-2.451-1.24-3.877-3.512-3.877-2.337 0-3.703 1.811-3.703 4.198 0 2.365 1.097 4.396 2.905 5.321-.76 1.533-1.728 2.884-2.737 3.902-1.83-2.232-3.485-5.208-4.165-11.017H1.043c1.248 9.675 4.967 12.755 5.95 13.347.556.337 1.036.321 1.544.032.798-.458 3.196-2.874 4.524-5.705a8.84 8.84 0 0 0 1.895-.219V7.954a5.168 5.168 0 0 1-1.16.137c-2.003 0-3.544-1.41-3.544-3.862 0-1.201.461-1.826 1.112-1.826.62 0 1.033.561 1.033 1.698 0 .647-.172 1.356-.299 1.775.001.001.618 1.086 2.306.753z" fill="#26A69A"/><metadata><rdf:RDF xmlns:rdf="http://www.w3.org/1999/02/22-rdf-syntax-ns#" xmlns:rdfs="http://www.w3.org/2000/01/rdf-schema#" xmlns:dc="http://purl.org/dc/elements/1.1/"><rdf:Description about="https://iconscout.com/legal#licenses" dc:title="vine,social,color,e" dc:description="vine,social,color,e" dc:publisher="Iconscout" dc:date="2018-02-17" dc:format="image/svg+xml" dc:language="en"><dc:creator><rdf:Bag><rdf:li>Pixel Icons</rdf:li></rdf:Bag></dc:creator></rdf:Description></rdf:RDF></metadata></svg>