<?xml version="1.0" encoding="UTF-8"?><svg xmlns="http://www.w3.org/2000/svg" xmlns:xlink="http://www.w3.org/1999/xlink" version="1.1" id="Layer_1" x="0px" y="0px" viewBox="0 0 16 16" xml:space="preserve"><path d="M8 0C3.589 0 0 3.589 0 8s3.589 8 8 8 8-3.589 8-8-3.589-8-8-8zm0 1a6.95 6.95 0 0 1 3.828 1.147c-.383.213-.738.661-.738 1.613 0 .506.345 1.093.744 1.773.479.816 1.073 1.831.924 2.564-.164.485-.58 1.586-1.031 2.761L9.66 4.918c.042-.011.089-.018.129-.031a.5.5 0 1 0-.317-.948c-.426.142-1.197.139-1.66.138h-.278c-.46.001-1.234.004-1.66-.138a.5.5 0 0 0-.315.948c.211.071.46.109.714.137l1.23 3.198-1.163 2.934L4.353 4.94c.073-.017.151-.03.218-.053a.499.499 0 1 0-.316-.948c-.425.142-1.198.138-1.661.138h-.137c-.09 0-.164-.007-.24-.013A6.994 6.994 0 0 1 8 1zM1 8c0-.786.136-1.54.376-2.246l3.068 8.265C2.387 12.798 1 10.561 1 8zm5.009 6.708L8.033 9.6l1.964 5.107A7.004 7.004 0 0 1 8 15a7.003 7.003 0 0 1-1.991-.292zm5.57-.704c.648-1.661 1.764-4.538 2.099-5.511l.013.004a.91.91 0 0 0 .039-.153c.113-.314.209-.601.286-.843.247-.781.404-1.468.486-2.076C14.82 6.223 15 7.09 15 8a6.994 6.994 0 0 1-3.421 6.004z" fill="#757575"/><metadata><rdf:RDF xmlns:rdf="http://www.w3.org/1999/02/22-rdf-syntax-ns#" xmlns:rdfs="http://www.w3.org/2000/01/rdf-schema#" xmlns:dc="http://purl.org/dc/elements/1.1/"><rdf:Description about="https://iconscout.com/legal#licenses" dc:title="wordpress,social,color,e" dc:description="wordpress,social,color,e" dc:publisher="Iconscout" dc:date="2018-02-17" dc:format="image/svg+xml" dc:language="en"><dc:creator><rdf:Bag><rdf:li>Pixel Icons</rdf:li></rdf:Bag></dc:creator></rdf:Description></rdf:RDF></metadata></svg>