<?xml version="1.0" encoding="UTF-8"?><svg xmlns="http://www.w3.org/2000/svg" xmlns:xlink="http://www.w3.org/1999/xlink" version="1.1" id="Layer_1" x="0px" y="0px" viewBox="0 0 16 16" xml:space="preserve"><g fill="#7B1FA2"><circle cx="12.5" cy="14" r="1"/><path d="M15.699 1.289A.96.96 0 0 0 15.008 1a1 1 0 0 0-.993.894l-1.509 9.528a.5.5 0 0 0 .977.207l2.475-9.311a.31.31 0 0 0 .011-.051.476.476 0 0 0 .031-.163c.007-.321-.1-.61-.301-.815z"/><path d="M10.079.107a2.13 2.13 0 0 1-.683-.086.5.5 0 0 0-.604.287L6.007 7.017 3.207.308a.5.5 0 0 0-.604-.287 2.291 2.291 0 0 1-.68.086.501.501 0 0 0-.475.699L5 8.978V15.5a.5.5 0 0 0 .5.5h1a.5.5 0 0 0 .5-.5l.006-6.536L10.552.806a.502.502 0 0 0-.045-.479.53.53 0 0 0-.428-.22z"/></g><metadata><rdf:RDF xmlns:rdf="http://www.w3.org/1999/02/22-rdf-syntax-ns#" xmlns:rdfs="http://www.w3.org/2000/01/rdf-schema#" xmlns:dc="http://purl.org/dc/elements/1.1/"><rdf:Description about="https://iconscout.com/legal#licenses" dc:title="yahoo,social,color,e" dc:description="yahoo,social,color,e" dc:publisher="Iconscout" dc:date="2018-02-17" dc:format="image/svg+xml" dc:language="en"><dc:creator><rdf:Bag><rdf:li>Pixel Icons</rdf:li></rdf:Bag></dc:creator></rdf:Description></rdf:RDF></metadata></svg>