<?xml version="1.0" encoding="UTF-8"?><svg xmlns="http://www.w3.org/2000/svg" xmlns:xlink="http://www.w3.org/1999/xlink" version="1.1" id="Layer_1" x="0px" y="0px" viewBox="0 0 16 16" xml:space="preserve"><g id="icon" transform="translate(182.000000, 150.000000)"><path id="zootool" d="M-177.649-139.441c2.497 4.681 3.199 5.441 4.912 5.441 1.86 0 3.737-1.377 3.737-2.623 0-.422-.228-.794-.456-.907-.783.421-1.485.648-2.122.648-.816 0-1.273-.357-3.868-4.146 1.974-1.684 3.134-2.802 4.634-4.923 1.29-.842 1.795-1.587 1.795-2.267 0-.583-.506-1.36-1.158-1.36-.311 0-.555.292-.882.794-2.399-.907-3.525-1.215-4.765-1.215-1.159 0-2.105 1.004-2.105 2.17 0 .664.278 1.036.701 1.166.555-.323 1.012-.453 1.305-.453.768 0 1.959.34 3.427.777-.734 1.052-2.643 2.996-4.014 4.065-.522-.438-.849-.599-1.321-.599-1.518 0-2.171 1.749-2.171 2.834 0 1.101.261 1.409.669 1.409.457-.002 1.208-.39 1.682-.811z" fill="#4CAF50"/></g><metadata><rdf:RDF xmlns:rdf="http://www.w3.org/1999/02/22-rdf-syntax-ns#" xmlns:rdfs="http://www.w3.org/2000/01/rdf-schema#" xmlns:dc="http://purl.org/dc/elements/1.1/"><rdf:Description about="https://iconscout.com/legal#licenses" dc:title="zootool,social,color,e" dc:description="zootool,social,color,e" dc:publisher="Iconscout" dc:date="2018-02-17" dc:format="image/svg+xml" dc:language="en"><dc:creator><rdf:Bag><rdf:li>Pixel Icons</rdf:li></rdf:Bag></dc:creator></rdf:Description></rdf:RDF></metadata></svg>