<?xml version="1.0" encoding="UTF-8" standalone="no"?>
<svg xmlns:dc="http://purl.org/dc/elements/1.1/" xmlns:cc="http://creativecommons.org/ns#" xmlns:rdf="http://www.w3.org/1999/02/22-rdf-syntax-ns#" xmlns:svg="http://www.w3.org/2000/svg" xmlns="http://www.w3.org/2000/svg" xmlns:sodipodi="http://sodipodi.sourceforge.net/DTD/sodipodi-0.dtd" xmlns:inkscape="http://www.inkscape.org/namespaces/inkscape" width="64" height="64" viewBox="0 0 64 64.000002" id="svg6959" version="1.1" inkscape:version="0.91 r13725" sodipodi:docname="8 mobile concept ads advertise touch pay per click.svg">
  <defs id="defs6961"/>
  <sodipodi:namedview id="base" pagecolor="#ffffff" bordercolor="#666666" borderopacity="1.0" inkscape:pageopacity="0.0" inkscape:pageshadow="2" inkscape:zoom="3.959798" inkscape:cx="-19.623236" inkscape:cy="34.803908" inkscape:document-units="px" inkscape:current-layer="layer1" showgrid="true" units="px" inkscape:snap-bbox="true" inkscape:bbox-paths="true" inkscape:bbox-nodes="true" inkscape:snap-bbox-edge-midpoints="true" inkscape:snap-bbox-midpoints="true" inkscape:window-width="1366" inkscape:window-height="705" inkscape:window-x="-8" inkscape:window-y="-8" inkscape:window-maximized="1">
    <inkscape:grid type="xygrid" id="grid6967"/>
  </sodipodi:namedview>
  
  <g inkscape:label="Layer 1" inkscape:groupmode="layer" id="layer1" transform="translate(0,-988.3622)">
    <g transform="translate(-44.186788,-1148.7673)" id="g8442">
      <g transform="translate(65.100341,242.95615)" id="g11384">
        <path sodipodi:nodetypes="cssssc" inkscape:connector-curvature="0" id="path11386" d="m 40.58842,1945.7641 0,3.4547 c 0,1.9138 -1.52991,3.4546 -3.43029,3.4546 l -52.14101,0 c -1.90038,0 -3.4588,-1.5411 -3.43029,-3.4546 l 0.0515,-3.4547" style="fill:#b2cdf8;fill-opacity:1;fill-rule:evenodd;stroke:none;stroke-width:0.99999994px;stroke-linecap:butt;stroke-linejoin:round;stroke-opacity:1"/>
        <path sodipodi:nodetypes="cssssc" inkscape:connector-curvature="0" id="path11388" d="m 40.58842,1945.7641 0,3.4547 c 0,1.9138 -1.52991,3.4546 -3.43029,3.4546 l -52.14101,0 c -1.90038,0 -3.4588,-1.5411 -3.43029,-3.4546 l 0.0515,-3.4547" style="fill:none;fill-opacity:1;fill-rule:evenodd;stroke:#0e7bff;stroke-width:0.99999994px;stroke-linecap:butt;stroke-linejoin:round;stroke-opacity:1"/>
        <path sodipodi:nodetypes="cssccsccscc" inkscape:connector-curvature="0" id="path11390" d="m 38.55674,1927.8 c 0,-1.5311 -1.22394,-2.7637 -2.74426,-2.7637 l -49.39673,0 c -1.52031,0 -2.74424,1.2326 -2.74424,2.7637 l -2.03103,17.9641 c 0,2.0728 1.13605,4.1456 3.78975,4.1456 l 25.16333,0 3.36885,0 22.42462,0 c 2.65561,0 4.20139,-2.0728 4.20139,-4.1456 z" style="fill:#f4f7f8;fill-opacity:1;stroke:none;stroke-width:0.99999994;stroke-linecap:butt;stroke-linejoin:miter;stroke-opacity:1"/>
        <path style="fill:#b2cdf8;fill-opacity:1;fill-rule:evenodd;stroke:none;stroke-width:0.99999994px;stroke-linecap:round;stroke-linejoin:round;stroke-opacity:1" d="m 31.44146,1925.2274 1.37213,21.9186 -43.81678,0 1.37213,-21.9186" id="path11392" inkscape:connector-curvature="0" sodipodi:nodetypes="cccc"/>
        <path style="fill:#6ca6fd;fill-opacity:1;fill-rule:evenodd;stroke:none;stroke-width:0.99999994px;stroke-linecap:round;stroke-linejoin:round;stroke-opacity:1" d="m -10.13208,1925.3284 -1.37109,22.318 44.31614,0 -0.15429,-1.9726 -40.97201,0 c -1.1,0 -1.03968,-0.9932 -1.03968,-0.9932 l 1.15806,-19.3522 z" id="path11394" inkscape:connector-curvature="0" sodipodi:nodetypes="cccccccc"/>
        <path sodipodi:nodetypes="cc" inkscape:connector-curvature="0" id="path11396" d="m -13.38491,1934.0183 -0.41164,4.1456" style="fill:none;fill-rule:evenodd;stroke:#0e7bff;stroke-width:0.99999994px;stroke-linecap:butt;stroke-linejoin:miter;stroke-opacity:1"/>
        <ellipse ry="0.69092786" rx="0.68606508" cy="1940.2366" cx="-14.067574" id="ellipse11398" style="fill:#0e7bff;fill-opacity:1;stroke:none;stroke-linecap:butt;stroke-linejoin:miter;stroke-opacity:1"/>
        <path id="path11400" d="m 35.9328,1925.0679 c 1.37717,0.1505 2.44727,1.3041 2.44727,2.7324 l 2.03125,17.9649 c 0,2.0728 -1.13732,4.1445 -3.79102,4.1445 l -25.16211,0 -3.36914,0 -22.42578,0 c -1.63243,0 -2.83573,-0.7868 -3.52344,-1.8731 0.33752,0.081 0.69246,0.1368 1.07813,0.1368 l 22.42382,0 3.36915,0 25.16406,0 c 2.6537,0 3.78906,-2.0737 3.78906,-4.1465 l -0.043,-0.3848 c 0.0227,-0.2034 0.043,-0.4078 0.043,-0.6133 l -2.03125,-17.9609 z" style="fill:#dae7fc;fill-opacity:1;stroke:none;stroke-width:0.99999994;stroke-linecap:butt;stroke-linejoin:miter;stroke-opacity:1" inkscape:connector-curvature="0"/>
        <path sodipodi:nodetypes="ccc" inkscape:connector-curvature="0" id="path11402" d="m 31.44146,1925.2274 1.37213,21.9186 -43.81678,0" style="fill:#6ca6fd;fill-opacity:1;fill-rule:evenodd;stroke:none;stroke-width:0.99999994px;stroke-linecap:round;stroke-linejoin:round;stroke-opacity:1"/>
        <path sodipodi:nodetypes="cccsccscsccsccc" style="fill:#dae7fc;fill-opacity:1;stroke:none;stroke-width:0.99999994;stroke-linecap:butt;stroke-linejoin:miter;stroke-opacity:1" d="m -13.88192,1925.0679 c -1.37717,0.1505 -2.44727,1.3042 -2.44727,2.7325 l -2.03125,17.9648 c 0,2.0728 1.13732,4.1445 3.79102,4.1445 l 25.16211,0 3.36914,0 22.42578,0 c 1.63243,0 2.83573,-0.7868 3.52344,-1.873 -0.33752,0.081 -0.69246,0.1367 -1.07813,0.1367 l -22.42382,0 -3.36915,0 -25.16406,0 c -2.6537,0 -3.78906,-2.0737 -3.78906,-4.1465 0.0037,-0.6639 0.01108,-0.7003 0,-0.998 z" id="path11404" inkscape:connector-curvature="0"/>
        <path inkscape:connector-curvature="0" id="path11406" transform="translate(0,988.36216)" d="m -8.15625,957.3125 -2.847656,1.4707 43.777344,0 -0.115235,-1.4707 -40.814453,0 z" style="fill:#498ffd;fill-opacity:1;fill-rule:evenodd;stroke:none;stroke-width:0.99999994px;stroke-linecap:round;stroke-linejoin:round;stroke-opacity:1"/>
        <path sodipodi:nodetypes="cccc" inkscape:connector-curvature="0" id="path11408" d="m 31.44146,1925.2274 1.37213,21.9186 -43.81678,0 1.37213,-21.9186" style="fill:none;fill-opacity:1;fill-rule:evenodd;stroke:#0e7bff;stroke-width:0.99999994px;stroke-linecap:round;stroke-linejoin:round;stroke-opacity:1"/>
        <path style="fill:none;fill-opacity:1;stroke:#0e7bff;stroke-width:0.99999994;stroke-linecap:butt;stroke-linejoin:miter;stroke-opacity:1" d="m 38.55674,1927.8 c 0,-1.5311 -1.22394,-2.7637 -2.74426,-2.7637 l -49.39673,0 c -1.52031,0 -2.74424,1.2326 -2.74424,2.7637 l -2.03103,17.9641 c 0,2.0728 1.13605,4.1456 3.78975,4.1456 l 25.16333,0 3.36885,0 22.42462,0 c 2.65561,0 4.20139,-2.0728 4.20139,-4.1456 z" id="path11410" inkscape:connector-curvature="0" sodipodi:nodetypes="cssccsccscc"/>
        <ellipse style="fill:#b2cdf8;fill-opacity:1;stroke:none;stroke-width:1.00697327;stroke-linecap:butt;stroke-linejoin:miter;stroke-opacity:1" id="ellipse8288" cx="-248.55463" cy="1963.387" rx="1.37669" ry="1.3965536" transform="matrix(0.99977687,0.02112381,0.14470033,0.98947553,0,0)"/>
        <path inkscape:connector-curvature="0" id="ellipse11412" d="m 35.328485,1935.5923 c -1.036149,-0.022 -1.755898,0.8121 -1.605452,1.8406 0.150456,1.0286 1.11933,1.8983 2.155429,1.9202 1.036099,0.022 1.755828,-0.8121 1.605452,-1.8407 -0.150376,-1.0286 -1.11928,-1.8982 -2.155429,-1.9201 z m 0.145829,0.9972 c 0.484202,0.01 0.929236,0.4038 1.002015,0.9016 0.07278,0.4978 -0.259524,0.875 -0.743696,0.8648 -0.484172,-0.01 -0.929196,-0.4039 -1.002005,-0.9017 -0.07282,-0.4978 0.259494,-0.875 0.743686,-0.8647 z" style="color:#000000;font-style:normal;font-variant:normal;font-weight:normal;font-stretch:normal;font-size:medium;line-height:normal;font-family:sans-serif;text-indent:0;text-align:start;text-decoration:none;text-decoration-line:none;text-decoration-style:solid;text-decoration-color:#000000;letter-spacing:normal;word-spacing:normal;text-transform:none;direction:ltr;block-progression:tb;writing-mode:lr-tb;baseline-shift:baseline;text-anchor:start;white-space:normal;clip-rule:nonzero;display:inline;overflow:visible;visibility:visible;opacity:1;isolation:auto;mix-blend-mode:normal;color-interpolation:sRGB;color-interpolation-filters:linearRGB;solid-color:#000000;solid-opacity:1;fill:#0e7bff;fill-opacity:1;fill-rule:nonzero;stroke:none;stroke-width:1.00697327;stroke-linecap:butt;stroke-linejoin:miter;stroke-miterlimit:4;stroke-dasharray:none;stroke-dashoffset:0;stroke-opacity:1;color-rendering:auto;image-rendering:auto;shape-rendering:auto;text-rendering:auto;enable-background:accumulate"/>
      </g>
      <path inkscape:connector-curvature="0" id="rect5842-9" d="m 66.187748,2157.6296 20.000046,0 c 0.830987,0 1.499977,0.669 1.499977,1.5 l 0,19.9231 c 0,0.831 -0.66899,1.5 -1.499977,1.5 l -20.000046,0 c -0.830987,0 -1.499977,-0.669 -1.499977,-1.5 l 0,-19.9231 c 0,-0.831 0.66899,-1.5 1.499977,-1.5 z" style="fill:#6ca6fd;fill-opacity:1;stroke:none;stroke-width:0.99999994;stroke-opacity:1"/>
      <path inkscape:connector-curvature="0" style="fill:#b2cdf8;fill-opacity:1;stroke:none;stroke-width:0.99999994;stroke-opacity:1" d="m 86.187771,2180.5534 c 0.831,0 1.5,-0.669 1.5,-1.5 l 0,-19.9238 c 0,-0.831 -0.669,-1.5 -1.5,-1.5 l 0,19.9238 c 0,0.831 -0.669,1.5 -1.5,1.5 l -20,0 c 0,0.831 0.669,1.5 1.5,1.5 l 20,0 z" id="path6800-4"/>
      <path inkscape:connector-curvature="0" id="path6790-2" d="m 66.187771,2157.6296 c -0.830987,0 -1.5,0.669 -1.5,1.5 l 0,19.9238 c 0,0.831 0.669013,1.5 1.5,1.5 l 0,-19.9238 c 0,-0.831 0.669013,-1.5 1.5,-1.5 l 20,0 c 0,-0.831 -0.669013,-1.5 -1.5,-1.5 l -20,0 z" style="fill:#498ffd;fill-opacity:1;stroke:none;stroke-width:0.99999994;stroke-opacity:1"/>
      <path inkscape:connector-curvature="0" id="rect5844-0" d="m 64.6875,2157.1289 a 0.50005,0.50005 0 0 0 -0.5,0.5 l 0,22.9238 a 0.50005,0.50005 0 0 0 0.5,0.5 l 23,0 a 0.50005,0.50005 0 0 0 0.5,-0.5 l 0,-22.9238 a 0.50005,0.50005 0 0 0 -0.5,-0.5 l -23,0 z m 0.5,1 22,0 0,21.9238 -22,0 0,-21.9238 z" style="color:#000000;font-style:normal;font-variant:normal;font-weight:normal;font-stretch:normal;font-size:medium;line-height:normal;font-family:sans-serif;text-indent:0;text-align:start;text-decoration:none;text-decoration-line:none;text-decoration-style:solid;text-decoration-color:#000000;letter-spacing:normal;word-spacing:normal;text-transform:none;direction:ltr;block-progression:tb;writing-mode:lr-tb;baseline-shift:baseline;text-anchor:start;white-space:normal;clip-rule:nonzero;display:inline;overflow:visible;visibility:visible;opacity:1;isolation:auto;mix-blend-mode:normal;color-interpolation:sRGB;color-interpolation-filters:linearRGB;solid-color:#000000;solid-opacity:1;fill:#0e7bff;fill-opacity:1;fill-rule:nonzero;stroke:none;stroke-width:1;stroke-linecap:round;stroke-linejoin:round;stroke-miterlimit:4;stroke-dasharray:none;stroke-dashoffset:0;stroke-opacity:1;color-rendering:auto;image-rendering:auto;shape-rendering:auto;text-rendering:auto;enable-background:accumulate"/>
      <path style="fill:none;fill-rule:evenodd;stroke:#f4f7f8;stroke-width:1px;stroke-linecap:round;stroke-linejoin:round;stroke-opacity:1" d="m 75.044581,2166.4611 0,4" id="path18358-8-2" inkscape:connector-curvature="0"/>
      <path sodipodi:nodetypes="cc" inkscape:connector-curvature="0" id="path18360-3-8" d="m 76.058771,2166.4681 -1,0" style="fill:none;fill-rule:evenodd;stroke:#f4f7f8;stroke-width:1px;stroke-linecap:round;stroke-linejoin:round;stroke-opacity:1"/>
      <path style="fill:none;fill-rule:evenodd;stroke:#f4f7f8;stroke-width:1px;stroke-linecap:round;stroke-linejoin:round;stroke-opacity:1" d="m 75.051651,2170.4681 1.00012,0" id="path18362-2-6" inkscape:connector-curvature="0" sodipodi:nodetypes="cc"/>
      <path sodipodi:nodetypes="csc" inkscape:connector-curvature="0" id="path18364-6-2" d="m 75.982221,2170.4681 c 1.15064,0 2.07697,-0.8921 2.07697,-2.0001 0,-1.1083 -0.92633,-2.0003 -2.07697,-2.0003" style="fill:none;fill-opacity:1;stroke:#f4f7f8;stroke-width:0.99999994;stroke-linecap:round;stroke-linejoin:round;stroke-miterlimit:4;stroke-dasharray:none;stroke-opacity:1"/>
      <path style="fill:none;fill-rule:evenodd;stroke:#f4f7f8;stroke-width:1px;stroke-linecap:round;stroke-linejoin:round;stroke-opacity:1" d="m 81.058981,2166.4682 2,0" id="path18367-8-5" inkscape:connector-curvature="0" sodipodi:nodetypes="cc"/>
      <path sodipodi:nodetypes="cc" inkscape:connector-curvature="0" id="path18374-4-7" d="m 82.058961,2170.4682 -2,0" style="fill:none;fill-rule:evenodd;stroke:#f4f7f8;stroke-width:1px;stroke-linecap:round;stroke-linejoin:round;stroke-opacity:1"/>
      <path sodipodi:nodetypes="csc" inkscape:connector-curvature="0" id="path18376-6-4" d="m 82.058961,2168.4682 c 0.554,0 1,0.446 1,1 0,0.554 -0.446,1 -1,1" style="fill:none;fill-opacity:1;stroke:#f4f7f8;stroke-width:1;stroke-linecap:round;stroke-linejoin:round;stroke-miterlimit:4;stroke-dasharray:none;stroke-opacity:1"/>
      <path sodipodi:nodetypes="cc" style="fill:none;fill-rule:evenodd;stroke:#f4f7f8;stroke-width:1px;stroke-linecap:round;stroke-linejoin:round;stroke-opacity:1" d="m 82.058961,2168.4682 -1,0" id="path18389-1-8" inkscape:connector-curvature="0"/>
      <path style="fill:none;fill-opacity:1;stroke:#f4f7f8;stroke-width:1;stroke-linecap:round;stroke-linejoin:round;stroke-miterlimit:4;stroke-dasharray:none;stroke-opacity:1" d="m 81.058981,2168.4682 c -0.554,0 -1,-0.446 -1,-1 0,-0.554 0.446,-1 1,-1" id="path18393-0-9" inkscape:connector-curvature="0" sodipodi:nodetypes="csc"/>
      <path style="fill:none;fill-rule:evenodd;stroke:#f4f7f8;stroke-width:1px;stroke-linecap:round;stroke-linejoin:round;stroke-opacity:1" d="m 69.048651,2170.4618 2,-4 2,4" id="path18398-4-1" inkscape:connector-curvature="0"/>
      <path sodipodi:nodetypes="cc" inkscape:connector-curvature="0" id="path18400-6-3" d="m 69.754321,2169.4682 2.689,0" style="fill:none;fill-rule:evenodd;stroke:#f4f7f8;stroke-width:1px;stroke-linecap:round;stroke-linejoin:round;stroke-opacity:1"/>
      <path inkscape:connector-curvature="0" id="path18484-8-6" d="m 76.243831,2173.1628 c -0.53191,0.1426 -0.84489,0.6873 -0.70172,1.2217 l 1.03352,3.8571 -1.08015,0.2895 c -0.4654,0.1247 -0.72482,0.6553 -0.58164,1.1896 l 0.0236,0.088 c 0.003,0.01 0.006,0.01 0.006,0.01 a 4.991712,4.9699499 75 0 0 3.49009,3.4352 4.991712,4.9699499 75 0 0 4.8006,-1.2863 4.991712,4.9699499 75 0 0 1.28398,-4.8094 l -0.26091,-0.9738 c -0.14318,-0.5343 -0.63307,-0.8638 -1.09851,-0.7391 l -4.92062,1.3184 -0.77516,-2.8929 c -0.14318,-0.5344 -0.6866,-0.8495 -1.21851,-0.707 z" style="color:#000000;clip-rule:nonzero;display:inline;overflow:visible;visibility:visible;opacity:1;isolation:auto;mix-blend-mode:normal;color-interpolation:sRGB;color-interpolation-filters:linearRGB;solid-color:#000000;solid-opacity:1;fill:#f4f7f8;fill-opacity:1;fill-rule:nonzero;stroke:none;stroke-width:0.5;stroke-linecap:round;stroke-linejoin:round;stroke-miterlimit:4;stroke-dasharray:none;stroke-dashoffset:0;stroke-opacity:1;color-rendering:auto;image-rendering:auto;shape-rendering:auto;text-rendering:auto;enable-background:accumulate"/>
      <path sodipodi:nodetypes="scccccccccs" inkscape:connector-curvature="0" id="path6802-7" d="m 83.50613,2175.4323 c -0.113616,-0.022 -0.231296,-0.017 -0.347656,0.014 l -0.748047,0.2012 c 0.156664,0.1338 0.28706,0.311 0.347656,0.5371 l 0.261719,0.9746 c 0.456715,1.7201 -0.03293,3.5522 -1.285156,4.8086 -0.7487,0.75 -1.716943,1.24 -2.763672,1.3984 1.563389,0.2416 3.146374,-0.2777 4.263672,-1.3984 1.251526,-1.2568 1.740414,-3.0889 1.283203,-4.8086 l -0.259766,-0.9746 c -0.107385,-0.4007 -0.411102,-0.6869 -0.751953,-0.752 z" style="color:#000000;clip-rule:nonzero;display:inline;overflow:visible;visibility:visible;opacity:1;isolation:auto;mix-blend-mode:normal;color-interpolation:sRGB;color-interpolation-filters:linearRGB;solid-color:#000000;solid-opacity:1;fill:#dae7fc;fill-opacity:1;fill-rule:nonzero;stroke:none;stroke-width:0.5;stroke-linecap:round;stroke-linejoin:round;stroke-miterlimit:4;stroke-dasharray:none;stroke-dashoffset:0;stroke-opacity:1;color-rendering:auto;image-rendering:auto;shape-rendering:auto;text-rendering:auto;enable-background:accumulate"/>
      <path inkscape:connector-curvature="0" id="path18486-2-8" d="m 76.244141,2172.6641 a 0.50005,0.50005 0 0 0 -0.128907,0.017 l 0.128907,-0.017 z m -0.128907,0.017 c -0.792124,0.2124 -1.268925,1.0416 -1.05664,1.834 l 0.259765,0.9629 0.515625,1.9277 0.128907,0.4825 -0.597657,0.1601 c -0.763027,0.2045 -1.137282,1.0407 -0.933593,1.8008 l 0.02344,0.088 a 0.50005,0.50005 0 0 0 0.0039,0.016 c 0.0073,0.024 0.0166,0.053 0.0332,0.086 0.0166,0.033 0.07756,0.1126 0.07812,0.1132 5.6e-5,10e-5 0.01279,0.01 0.01563,0.012 0.586275,1.7299 1.947414,3.0937 3.716796,3.5722 1.888141,0.5098 3.904842,-0.03 5.285157,-1.416 1.377641,-1.3828 1.91679,-3.4001 1.414062,-5.291 l -0.261719,-0.9746 c -0.203686,-0.7601 -0.94811,-1.2962 -1.710937,-1.0918 l -4.4375,1.1875 -0.646485,-2.4082 c -0.212311,-0.7924 -1.037978,-1.2728 -1.830078,-1.0606 z m 0.257813,0.9649 c 0.27172,-0.073 0.533373,0.077 0.607422,0.3535 l 0.77539,2.8926 a 0.50005,0.50005 0 0 0 0.611329,0.3535 l 4.921874,-1.3184 c 0.168053,-0.045 0.401701,0.078 0.484376,0.3868 l 0.261718,0.9726 c 0.411912,1.5493 -0.02776,3.1974 -1.154297,4.3281 -1.128745,1.1331 -2.772367,1.5731 -4.316406,1.1563 -1.512082,-0.4089 -2.703082,-1.5806 -3.140625,-3.0918 a 0.50005,0.50005 0 0 0 -0.01563,-0.047 0.50005,0.50005 0 0 0 -0.002,0 l -0.0098,-0.037 c -0.08267,-0.3085 0.06074,-0.5332 0.228516,-0.5781 l 1.080078,-0.2891 a 0.50005,0.50005 0 0 0 0.353516,-0.6133 l -0.128906,-0.4804 -0.128907,-0.4825 -0.517578,-1.9277 -0.257812,-0.9648 c -0.07406,-0.2765 0.07596,-0.5366 0.347656,-0.6094 z" style="color:#000000;font-style:normal;font-variant:normal;font-weight:normal;font-stretch:normal;font-size:medium;line-height:normal;font-family:sans-serif;text-indent:0;text-align:start;text-decoration:none;text-decoration-line:none;text-decoration-style:solid;text-decoration-color:#000000;letter-spacing:normal;word-spacing:normal;text-transform:none;direction:ltr;block-progression:tb;writing-mode:lr-tb;baseline-shift:baseline;text-anchor:start;white-space:normal;clip-rule:nonzero;display:inline;overflow:visible;visibility:visible;opacity:1;isolation:auto;mix-blend-mode:normal;color-interpolation:sRGB;color-interpolation-filters:linearRGB;solid-color:#000000;solid-opacity:1;fill:#0e7bff;fill-opacity:1;fill-rule:nonzero;stroke:none;stroke-width:1;stroke-linecap:round;stroke-linejoin:round;stroke-miterlimit:4;stroke-dasharray:none;stroke-dashoffset:0;stroke-opacity:1;color-rendering:auto;image-rendering:auto;shape-rendering:auto;text-rendering:auto;enable-background:accumulate"/>
      <g id="g6748-0-8" transform="translate(-245.81223,949.7674)">
        <circle style="fill:#6ca6fd;fill-opacity:1;stroke:none;stroke-width:1;stroke-linecap:round;stroke-linejoin:round;stroke-miterlimit:2.82352948;stroke-dasharray:none;stroke-opacity:1" id="path5329-3-9" cx="332.5" cy="1208.8622" r="2.9999888"/>
        <path inkscape:connector-curvature="0" id="path5331-3-6" d="m 333.20703,1207.4473 -0.35351,0.3535 -1.41407,1.414 -0.35351,0.3536 0.70703,0.7089 0.35351,-0.3535 1.41407,-1.416 0.35351,-0.3535 -0.70703,-0.707 z" style="color:#000000;font-style:normal;font-variant:normal;font-weight:normal;font-stretch:normal;font-size:medium;line-height:normal;font-family:sans-serif;text-indent:0;text-align:start;text-decoration:none;text-decoration-line:none;text-decoration-style:solid;text-decoration-color:#000000;letter-spacing:normal;word-spacing:normal;text-transform:none;direction:ltr;block-progression:tb;writing-mode:lr-tb;baseline-shift:baseline;text-anchor:start;white-space:normal;clip-rule:nonzero;display:inline;overflow:visible;visibility:visible;opacity:1;isolation:auto;mix-blend-mode:normal;color-interpolation:sRGB;color-interpolation-filters:linearRGB;solid-color:#000000;solid-opacity:1;fill:#0e7bff;fill-opacity:1;fill-rule:evenodd;stroke:none;stroke-width:1px;stroke-linecap:square;stroke-linejoin:round;stroke-miterlimit:4;stroke-dasharray:none;stroke-dashoffset:0;stroke-opacity:1;color-rendering:auto;image-rendering:auto;shape-rendering:auto;text-rendering:auto;enable-background:accumulate"/>
        <path style="fill:#498ffd;fill-opacity:1;stroke:none;stroke-width:1;stroke-linecap:round;stroke-linejoin:round;stroke-miterlimit:2.82352948;stroke-dasharray:none;stroke-opacity:1" d="m 332,1205.8622 a 2.9999888,2.9999888 0 0 0 -3,3 2.9999888,2.9999888 0 0 0 3,3 2.9999888,2.9999888 0 0 0 0.75586,-0.098 2.9999888,2.9999888 0 0 1 -2.25586,-2.9023 2.9999888,2.9999888 0 0 1 2.24414,-2.9024 2.9999888,2.9999888 0 0 0 -0.74414,-0.098 z" id="circle5497-3-4" inkscape:connector-curvature="0"/>
        <path inkscape:connector-curvature="0" id="path5502-9-8" d="m 332.99986,1205.8622 a 2.9999888,2.9999888 0 0 1 3,3 2.9999888,2.9999888 0 0 1 -3,3 2.9999888,2.9999888 0 0 1 -0.75586,-0.098 2.9999888,2.9999888 0 0 0 2.25586,-2.9023 2.9999888,2.9999888 0 0 0 -2.24414,-2.9024 2.9999888,2.9999888 0 0 1 0.74414,-0.098 z" style="fill:#f4f7f8;fill-opacity:1;stroke:none;stroke-width:1;stroke-linecap:round;stroke-linejoin:round;stroke-miterlimit:2.82352948;stroke-dasharray:none;stroke-opacity:1"/>
        <path inkscape:connector-curvature="0" id="path5333-3-1" d="m 331.79297,1207.4473 -0.70703,0.707 0.35351,0.3535 1.41407,1.416 0.35351,0.3535 0.70703,-0.7089 -0.35351,-0.3536 -1.41407,-1.414 -0.35351,-0.3535 z" style="color:#000000;font-style:normal;font-variant:normal;font-weight:normal;font-stretch:normal;font-size:medium;line-height:normal;font-family:sans-serif;text-indent:0;text-align:start;text-decoration:none;text-decoration-line:none;text-decoration-style:solid;text-decoration-color:#000000;letter-spacing:normal;word-spacing:normal;text-transform:none;direction:ltr;block-progression:tb;writing-mode:lr-tb;baseline-shift:baseline;text-anchor:start;white-space:normal;clip-rule:nonzero;display:inline;overflow:visible;visibility:visible;opacity:1;isolation:auto;mix-blend-mode:normal;color-interpolation:sRGB;color-interpolation-filters:linearRGB;solid-color:#000000;solid-opacity:1;fill:#0e7bff;fill-opacity:1;fill-rule:evenodd;stroke:none;stroke-width:1px;stroke-linecap:square;stroke-linejoin:round;stroke-miterlimit:4;stroke-dasharray:none;stroke-dashoffset:0;stroke-opacity:1;color-rendering:auto;image-rendering:auto;shape-rendering:auto;text-rendering:auto;enable-background:accumulate"/>
        <path inkscape:connector-curvature="0" id="circle5495-5-6" d="m 332.5,1205.3613 c -1.92707,0 -3.50001,1.573 -3.5,3.5 -10e-6,1.9271 1.57293,3.5 3.5,3.5 1.92707,0 3.50001,-1.5729 3.5,-3.5 10e-6,-1.927 -1.57293,-3.5 -3.5,-3.5 z m 0,1 c 1.38663,0 2.50001,1.1134 2.5,2.5 10e-6,1.3867 -1.11337,2.5 -2.5,2.5 -1.38663,0 -2.50001,-1.1133 -2.5,-2.5 -10e-6,-1.3866 1.11337,-2.5 2.5,-2.5 z" style="color:#000000;font-style:normal;font-variant:normal;font-weight:normal;font-stretch:normal;font-size:medium;line-height:normal;font-family:sans-serif;text-indent:0;text-align:start;text-decoration:none;text-decoration-line:none;text-decoration-style:solid;text-decoration-color:#000000;letter-spacing:normal;word-spacing:normal;text-transform:none;direction:ltr;block-progression:tb;writing-mode:lr-tb;baseline-shift:baseline;text-anchor:start;white-space:normal;clip-rule:nonzero;display:inline;overflow:visible;visibility:visible;opacity:1;isolation:auto;mix-blend-mode:normal;color-interpolation:sRGB;color-interpolation-filters:linearRGB;solid-color:#000000;solid-opacity:1;fill:#0e7bff;fill-opacity:1;fill-rule:nonzero;stroke:none;stroke-width:1;stroke-linecap:round;stroke-linejoin:round;stroke-miterlimit:2.82352948;stroke-dasharray:none;stroke-dashoffset:0;stroke-opacity:1;color-rendering:auto;image-rendering:auto;shape-rendering:auto;text-rendering:auto;enable-background:accumulate"/>
      </g>
      <path inkscape:connector-curvature="0" id="path6807-8" d="m 76.691831,2143.6294 a 7.2031357,7.2000101 0 0 1 7.20312,7.2001 7.2031357,7.2000101 0 0 1 -7.20312,7.2001 7.2031357,7.2000101 0 0 1 -1.64655,-0.2 l -3.11802,1.8 0,-3.4126 a 7.2031357,7.2000101 0 0 1 -2.43855,-5.3875 7.2031357,7.2000101 0 0 1 7.20312,-7.2001 z" style="fill:#dae7fc;fill-opacity:1;stroke:none;stroke-width:1;stroke-linecap:round;stroke-linejoin:round;stroke-miterlimit:4;stroke-dasharray:none;stroke-opacity:1"/>
      <path style="color:#000000;font-style:normal;font-variant:normal;font-weight:normal;font-stretch:normal;font-size:medium;line-height:normal;font-family:sans-serif;text-indent:0;text-align:start;text-decoration:none;text-decoration-line:none;text-decoration-style:solid;text-decoration-color:#000000;letter-spacing:normal;word-spacing:normal;text-transform:none;direction:ltr;block-progression:tb;writing-mode:lr-tb;baseline-shift:baseline;text-anchor:start;white-space:normal;clip-rule:nonzero;display:inline;overflow:visible;visibility:visible;opacity:1;isolation:auto;mix-blend-mode:normal;color-interpolation:sRGB;color-interpolation-filters:linearRGB;solid-color:#000000;solid-opacity:1;fill:#0e7bff;fill-opacity:1;fill-rule:evenodd;stroke:none;stroke-width:0.99999982px;stroke-linecap:butt;stroke-linejoin:miter;stroke-miterlimit:4;stroke-dasharray:none;stroke-dashoffset:0;stroke-opacity:1;color-rendering:auto;image-rendering:auto;shape-rendering:auto;text-rendering:auto;enable-background:accumulate" d="m 74.219171,2146.6294 0,0.01 -0.0234,0 0,1.0001 1.02734,0 c 0.93325,0 1.40433,0.4417 1.57422,0.9902 l -2.57812,0 0,1.0001 2.57812,0 c -0.16934,0.5489 -0.63983,0.9922 -1.57422,0.9922 l -0.32031,0 -0.004,0 -0.004,0 -0.69922,0 0,0.9999 0.29493,0 3.05078,3.008 0.70312,-0.7111 -2.39453,-2.3633 c 1.0847,-0.2274 1.78113,-1.0347 1.97266,-1.9257 l 1.36523,0 0,-1.0001 -1.36523,0 c -0.0776,-0.3597 -0.24577,-0.6999 -0.48047,-1 l 1.8457,0 0,-1.0001 -4.96875,0 z" id="path6809-0" inkscape:connector-curvature="0"/>
      <path style="fill:#b2cdf8;fill-opacity:1;stroke:none;stroke-width:1;stroke-linecap:round;stroke-linejoin:round;stroke-miterlimit:4;stroke-dasharray:none;stroke-opacity:1" d="m 55.748201,2153.0392 a 7.2000101,7.2031357 62.355063 0 0 -3.04008,9.7202 7.2000101,7.2031357 62.355063 0 0 9.72155,3.0359 7.2000101,7.2031357 62.355063 0 0 1.36577,-0.9412 l 3.59725,0.1478 -1.58341,-3.023 a 7.2000101,7.2031357 62.355063 0 0 -0.33953,-5.9039 7.2000101,7.2031357 62.355063 0 0 -9.72155,-3.0358 z" id="path6811-9" inkscape:connector-curvature="0"/>
      <path style="color:#000000;font-style:normal;font-variant:normal;font-weight:normal;font-stretch:normal;font-size:medium;line-height:normal;font-family:sans-serif;text-indent:0;text-align:start;text-decoration:none;text-decoration-line:none;text-decoration-style:solid;text-decoration-color:#000000;letter-spacing:normal;word-spacing:normal;text-transform:none;direction:ltr;block-progression:tb;writing-mode:lr-tb;baseline-shift:baseline;text-anchor:start;white-space:normal;clip-rule:nonzero;display:inline;overflow:visible;visibility:visible;opacity:1;isolation:auto;mix-blend-mode:normal;color-interpolation:sRGB;color-interpolation-filters:linearRGB;solid-color:#000000;solid-opacity:1;fill:#0e7bff;fill-opacity:1;fill-rule:evenodd;stroke:none;stroke-width:1.00000012px;stroke-linecap:round;stroke-linejoin:round;stroke-miterlimit:4;stroke-dasharray:none;stroke-dashoffset:0;stroke-opacity:1;color-rendering:auto;image-rendering:auto;shape-rendering:auto;text-rendering:auto;enable-background:accumulate" d="m 59.082471,2154.6279 a 0.50005006,0.50005006 0 0 0 -0.49219,0.5078 l 0,0.4395 c -0.98018,0.2061 -1.74805,0.9982 -1.74805,1.9961 0,1.1627 1.04089,2.0547 2.24805,2.0547 0.73006,0 1.24805,0.4958 1.24805,1.0546 0,0.5591 -0.51796,1.0528 -1.24805,1.0528 -0.73008,0 -1.24805,-0.4937 -1.24805,-1.0528 0.01,-0.6762 -1.00957,-0.6762 -1,0 0,1.0252 0.78374,1.7813 1.74805,1.9981 l 0,0.4433 a 0.50005006,0.50005006 0 1 0 1,0 l 0,-0.4453 c 0.98018,-0.2061 1.74805,-0.9982 1.74805,-1.9961 0,-1.1627 -1.04089,-2.0546 -2.24805,-2.0546 -0.73006,0 -1.24805,-0.4959 -1.24805,-1.0547 0,-0.5516 0.50618,-1.0358 1.22071,-1.0489 a 0.50005006,0.50005006 0 0 0 0.0566,0 c 0.71325,0.014 1.21875,0.4959 1.21875,1.0469 -0.01,0.6762 1.00958,0.6762 1,0 0,-1.0252 -0.78373,-1.7813 -1.74804,-1.9981 l 0,-0.4375 a 0.50005006,0.50005006 0 0 0 -0.50782,-0.5078 z" id="path6813-8" inkscape:connector-curvature="0"/>
      <path inkscape:connector-curvature="0" id="path6817-7" d="m 59.00613,2152.2175 a 7.2000101,7.2031357 62.355063 0 0 -3.257812,0.8223 7.2000101,7.2031357 62.355063 0 0 -3.041016,9.7187 7.2000101,7.2031357 62.355063 0 0 7.001953,3.8262 7.2000101,7.2031357 62.355063 0 1 -5.699218,-3.8262 7.2000101,7.2031357 62.355063 0 1 3.039062,-9.7187 7.2000101,7.2031357 62.355063 0 1 2.720703,-0.7891 7.2000101,7.2031357 62.355063 0 0 -0.763672,-0.033 z m 6.089844,12.6367 a 7.2000101,7.2031357 62.355063 0 1 -0.06055,0.051 l 2.357422,0.098 -0.0293,-0.055 -2.267578,-0.094 z" style="fill:#6ca6fd;fill-opacity:1;stroke:none;stroke-width:1;stroke-linecap:round;stroke-linejoin:round;stroke-miterlimit:4;stroke-dasharray:none;stroke-opacity:1"/>
      <path inkscape:connector-curvature="0" id="path6822-6" d="m 59.00613,2152.2175 a 7.2000101,7.2031357 62.355063 0 0 -0.675781,0.043 7.2000101,7.2031357 62.355063 0 1 5.640625,3.8144 7.2000101,7.2031357 62.355063 0 1 0.337891,5.9043 l 1.550781,2.9609 1.533203,0.062 -1.583984,-3.0234 a 7.2000101,7.2031357 62.355063 0 0 -0.339844,-5.9043 7.2000101,7.2031357 62.355063 0 0 -6.462891,-3.8574 z m 3.289063,12.6367 a 7.2000101,7.2031357 62.355063 0 1 -1.365234,0.9414 7.2000101,7.2031357 62.355063 0 1 -2.582032,0.7793 7.2000101,7.2031357 62.355063 0 0 4.082032,-0.7793 7.2000101,7.2031357 62.355063 0 0 1.294921,-0.8828 l -1.429687,-0.059 z" style="fill:#f4f7f8;fill-opacity:1;stroke:none;stroke-width:1;stroke-linecap:round;stroke-linejoin:round;stroke-miterlimit:4;stroke-dasharray:none;stroke-opacity:1"/>
      <path inkscape:connector-curvature="0" id="path6815-9" d="m 58.451172,2151.7422 c -0.997127,0.082 -1.994728,0.3607 -2.935547,0.8535 -3.763269,1.9712 -5.220441,6.6345 -3.25,10.3965 1.970461,3.762 6.633178,5.2172 10.396484,3.2461 a 0.50005,0.50005 0 0 0 0.002,0 c 0.456751,-0.2425 0.874622,-0.5484 1.273438,-0.8769 l 3.435547,0.1426 a 0.50005,0.50005 0 0 0 0.462891,-0.7325 l -1.515626,-2.8945 c 0.675907,-1.9875 0.566328,-4.1628 -0.408203,-6.0312 -1.477874,-2.8215 -4.469556,-4.3474 -7.460937,-4.1016 z m 0.08594,0.9941 c 2.603246,-0.2169 5.200514,1.1081 6.490235,3.5703 0.887468,1.7015 1.00102,3.7016 0.314453,5.4942 a 0.50005,0.50005 0 0 0 0.02539,0.4101 l 1.179687,2.2559 -2.730469,-0.1113 a 0.50005,0.50005 0 0 0 -0.349609,0.123 c -0.387852,0.3393 -0.814463,0.6312 -1.269531,0.8731 -3.28477,1.7205 -7.327281,0.4588 -9.046875,-2.8243 -1.719577,-3.283 -0.45466,-7.3244 2.830078,-9.0449 0.821186,-0.4301 1.688892,-0.6738 2.55664,-0.7461 z" style="color:#000000;font-style:normal;font-variant:normal;font-weight:normal;font-stretch:normal;font-size:medium;line-height:normal;font-family:sans-serif;text-indent:0;text-align:start;text-decoration:none;text-decoration-line:none;text-decoration-style:solid;text-decoration-color:#000000;letter-spacing:normal;word-spacing:normal;text-transform:none;direction:ltr;block-progression:tb;writing-mode:lr-tb;baseline-shift:baseline;text-anchor:start;white-space:normal;clip-rule:nonzero;display:inline;overflow:visible;visibility:visible;opacity:1;isolation:auto;mix-blend-mode:normal;color-interpolation:sRGB;color-interpolation-filters:linearRGB;solid-color:#000000;solid-opacity:1;fill:#0e7bff;fill-opacity:1;fill-rule:nonzero;stroke:none;stroke-width:1;stroke-linecap:round;stroke-linejoin:round;stroke-miterlimit:4;stroke-dasharray:none;stroke-dashoffset:0;stroke-opacity:1;color-rendering:auto;image-rendering:auto;shape-rendering:auto;text-rendering:auto;enable-background:accumulate"/>
      <path inkscape:connector-curvature="0" id="path6830-7" d="m 76.691677,2143.6296 a 7.2031357,7.2000101 0 0 0 -0.722656,0.043 7.2031357,7.2000101 0 0 1 6.425781,7.1562 7.2031357,7.2000101 0 0 1 -6.457031,7.1543 7.2031357,7.2000101 0 0 0 0.753906,0.047 7.2031357,7.2000101 0 0 0 7.203125,-7.2012 7.2031357,7.2000101 0 0 0 -7.203125,-7.1992 z m -3.146484,14.1992 -1.617188,0.9336 0,0.8672 2.8125,-1.625 a 7.2031357,7.2000101 0 0 1 -1.195312,-0.1758 z" style="fill:#f4f7f8;fill-opacity:1;stroke:none;stroke-width:1;stroke-linecap:round;stroke-linejoin:round;stroke-miterlimit:4;stroke-dasharray:none;stroke-opacity:1"/>
      <path inkscape:connector-curvature="0" id="path6836-0" d="m 76.691677,2143.6296 a 7.2031357,7.2000101 0 0 0 -7.203125,7.1992 7.2031357,7.2000101 0 0 0 2.439453,5.3887 l 0,3.4121 1.5,-0.8672 0,-2.5449 a 7.2031357,7.2000101 0 0 1 -2.439453,-5.3887 7.2031357,7.2000101 0 0 1 6.480469,-7.1562 7.2031357,7.2000101 0 0 0 -0.777344,-0.043 z m -0.146484,14.1992 -0.304688,0.1758 a 7.2031357,7.2000101 0 0 0 0.451172,0.025 7.2031357,7.2000101 0 0 0 0.746094,-0.047 7.2031357,7.2000101 0 0 1 -0.892578,-0.1543 z" style="fill:#b2cdf8;fill-opacity:1;stroke:none;stroke-width:1;stroke-linecap:round;stroke-linejoin:round;stroke-miterlimit:4;stroke-dasharray:none;stroke-opacity:1"/>
      <path inkscape:connector-curvature="0" id="path6828-9" d="m 76.691406,2143.1289 c -4.248315,0 -7.703178,3.4544 -7.703125,7.7012 0.0036,2.1088 0.916429,4.0879 2.439453,5.5351 l 0,3.2637 a 0.50005,0.50005 0 0 0 0.75,0.4336 l 2.97461,-1.7187 c 0.506171,0.1061 1.019536,0.1826 1.537109,0.1855 a 0.50005,0.50005 0 0 0 0.002,0 c 4.248316,0 7.703178,-3.4524 7.703125,-7.6992 5.3e-5,-4.2468 -3.454809,-7.7012 -7.703125,-7.7012 z m 0,1 c 3.708107,0 6.703172,2.995 6.703125,6.7012 4.7e-5,3.7048 -2.992958,6.697 -6.699219,6.6992 -0.516234,0 -1.03131,-0.065 -1.533203,-0.1855 a 0.50005,0.50005 0 0 0 -0.367187,0.053 l -2.367188,1.3672 0,-2.5469 a 0.50005,0.50005 0 0 0 -0.169922,-0.375 c -1.439461,-1.269 -2.265674,-3.0934 -2.269531,-5.0117 l 0,0 c 0.001,-3.7052 2.995685,-6.6992 6.703125,-6.6992 z" style="color:#000000;font-style:normal;font-variant:normal;font-weight:normal;font-stretch:normal;font-size:medium;line-height:normal;font-family:sans-serif;text-indent:0;text-align:start;text-decoration:none;text-decoration-line:none;text-decoration-style:solid;text-decoration-color:#000000;letter-spacing:normal;word-spacing:normal;text-transform:none;direction:ltr;block-progression:tb;writing-mode:lr-tb;baseline-shift:baseline;text-anchor:start;white-space:normal;clip-rule:nonzero;display:inline;overflow:visible;visibility:visible;opacity:1;isolation:auto;mix-blend-mode:normal;color-interpolation:sRGB;color-interpolation-filters:linearRGB;solid-color:#000000;solid-opacity:1;fill:#0e7bff;fill-opacity:1;fill-rule:nonzero;stroke:none;stroke-width:1;stroke-linecap:round;stroke-linejoin:round;stroke-miterlimit:4;stroke-dasharray:none;stroke-dashoffset:0;stroke-opacity:1;color-rendering:auto;image-rendering:auto;shape-rendering:auto;text-rendering:auto;enable-background:accumulate"/>
      <path inkscape:connector-curvature="0" id="path4806-4-0" d="m 61.1875,2144.1289 0,0.5 0,2 0,0.5 1,0 0,-0.5 0,-2 0,-0.5 -1,0 z" style="color:#000000;font-style:normal;font-variant:normal;font-weight:normal;font-stretch:normal;font-size:medium;line-height:normal;font-family:sans-serif;text-indent:0;text-align:start;text-decoration:none;text-decoration-line:none;text-decoration-style:solid;text-decoration-color:#000000;letter-spacing:normal;word-spacing:normal;text-transform:none;direction:ltr;block-progression:tb;writing-mode:lr-tb;baseline-shift:baseline;text-anchor:start;white-space:normal;clip-rule:nonzero;display:inline;overflow:visible;visibility:visible;opacity:1;isolation:auto;mix-blend-mode:normal;color-interpolation:sRGB;color-interpolation-filters:linearRGB;solid-color:#000000;solid-opacity:1;fill:#0e7bff;fill-opacity:1;fill-rule:evenodd;stroke:none;stroke-width:1px;stroke-linecap:square;stroke-linejoin:miter;stroke-miterlimit:4;stroke-dasharray:none;stroke-dashoffset:0;stroke-opacity:1;color-rendering:auto;image-rendering:auto;shape-rendering:auto;text-rendering:auto;enable-background:accumulate"/>
      <path inkscape:connector-curvature="0" id="path4808-2-9" d="m 60.1875,2145.1289 0,1 0.5,0 2,0 0.5,0 0,-1 -0.5,0 -2,0 -0.5,0 z" style="color:#000000;font-style:normal;font-variant:normal;font-weight:normal;font-stretch:normal;font-size:medium;line-height:normal;font-family:sans-serif;text-indent:0;text-align:start;text-decoration:none;text-decoration-line:none;text-decoration-style:solid;text-decoration-color:#000000;letter-spacing:normal;word-spacing:normal;text-transform:none;direction:ltr;block-progression:tb;writing-mode:lr-tb;baseline-shift:baseline;text-anchor:start;white-space:normal;clip-rule:nonzero;display:inline;overflow:visible;visibility:visible;opacity:1;isolation:auto;mix-blend-mode:normal;color-interpolation:sRGB;color-interpolation-filters:linearRGB;solid-color:#000000;solid-opacity:1;fill:#0e7bff;fill-opacity:1;fill-rule:evenodd;stroke:none;stroke-width:1px;stroke-linecap:square;stroke-linejoin:miter;stroke-miterlimit:4;stroke-dasharray:none;stroke-dashoffset:0;stroke-opacity:1;color-rendering:auto;image-rendering:auto;shape-rendering:auto;text-rendering:auto;enable-background:accumulate"/>
      <path inkscape:connector-curvature="0" id="path4794-3-0" d="m 91.1875,2147.6289 0,0.5 0,2 0,0.5 1,0 0,-0.5 0,-2 0,-0.5 -1,0 z" style="color:#000000;font-style:normal;font-variant:normal;font-weight:normal;font-stretch:normal;font-size:medium;line-height:normal;font-family:sans-serif;text-indent:0;text-align:start;text-decoration:none;text-decoration-line:none;text-decoration-style:solid;text-decoration-color:#000000;letter-spacing:normal;word-spacing:normal;text-transform:none;direction:ltr;block-progression:tb;writing-mode:lr-tb;baseline-shift:baseline;text-anchor:start;white-space:normal;clip-rule:nonzero;display:inline;overflow:visible;visibility:visible;opacity:1;isolation:auto;mix-blend-mode:normal;color-interpolation:sRGB;color-interpolation-filters:linearRGB;solid-color:#000000;solid-opacity:1;fill:#0e7bff;fill-opacity:1;fill-rule:evenodd;stroke:none;stroke-width:1px;stroke-linecap:square;stroke-linejoin:miter;stroke-miterlimit:4;stroke-dasharray:none;stroke-dashoffset:0;stroke-opacity:1;color-rendering:auto;image-rendering:auto;shape-rendering:auto;text-rendering:auto;enable-background:accumulate"/>
      <path inkscape:connector-curvature="0" id="path4796-6-8" d="m 90.1875,2148.6289 0,1 0.5,0 2,0 0.5,0 0,-1 -0.5,0 -2,0 -0.5,0 z" style="color:#000000;font-style:normal;font-variant:normal;font-weight:normal;font-stretch:normal;font-size:medium;line-height:normal;font-family:sans-serif;text-indent:0;text-align:start;text-decoration:none;text-decoration-line:none;text-decoration-style:solid;text-decoration-color:#000000;letter-spacing:normal;word-spacing:normal;text-transform:none;direction:ltr;block-progression:tb;writing-mode:lr-tb;baseline-shift:baseline;text-anchor:start;white-space:normal;clip-rule:nonzero;display:inline;overflow:visible;visibility:visible;opacity:1;isolation:auto;mix-blend-mode:normal;color-interpolation:sRGB;color-interpolation-filters:linearRGB;solid-color:#000000;solid-opacity:1;fill:#0e7bff;fill-opacity:1;fill-rule:evenodd;stroke:none;stroke-width:1px;stroke-linecap:square;stroke-linejoin:miter;stroke-miterlimit:4;stroke-dasharray:none;stroke-dashoffset:0;stroke-opacity:1;color-rendering:auto;image-rendering:auto;shape-rendering:auto;text-rendering:auto;enable-background:accumulate"/>
      <path inkscape:connector-curvature="0" id="circle4818-8-2" d="m 66.28777,2148.5796 a 0.55000001,0.55000001 0 0 1 -0.55,0.55 0.55000001,0.55000001 0 0 1 -0.55,-0.55 0.55000001,0.55000001 0 0 1 0.55,-0.55 0.55000001,0.55000001 0 0 1 0.55,0.55 z" style="fill:#0e7bff;fill-opacity:1;stroke:none;stroke-width:1;stroke-linecap:square;stroke-linejoin:round;stroke-miterlimit:34.17825699;stroke-dasharray:none;stroke-opacity:1"/>
      <path inkscape:connector-curvature="0" id="circle4818-4-7" d="m 87.187527,2143.8796 a 0.55000001,0.55000001 0 0 1 -0.55,0.55 0.55000001,0.55000001 0 0 1 -0.55,-0.55 0.55000001,0.55000001 0 0 1 0.55,-0.55 0.55000001,0.55000001 0 0 1 0.55,0.55 z" style="fill:#0e7bff;fill-opacity:1;stroke:none;stroke-width:1;stroke-linecap:square;stroke-linejoin:round;stroke-miterlimit:34.17825699;stroke-dasharray:none;stroke-opacity:1"/>
      <path inkscape:connector-curvature="0" id="circle4818-80-4" d="m 93.28777,2164.5796 a 0.55000001,0.55000001 0 0 1 -0.55,0.55 0.55000001,0.55000001 0 0 1 -0.55,-0.55 0.55000001,0.55000001 0 0 1 0.55,-0.55 0.55000001,0.55000001 0 0 1 0.55,0.55 z" style="fill:#0e7bff;fill-opacity:1;stroke:none;stroke-width:1;stroke-linecap:square;stroke-linejoin:round;stroke-miterlimit:34.17825699;stroke-dasharray:none;stroke-opacity:1"/>
      <path inkscape:connector-curvature="0" id="circle4818-6-3" d="m 50.187527,2163.8796 a 0.55000001,0.55000001 0 0 1 -0.55,0.55 0.55000001,0.55000001 0 0 1 -0.55,-0.55 0.55000001,0.55000001 0 0 1 0.55,-0.55 0.55000001,0.55000001 0 0 1 0.55,0.55 z" style="fill:#0e7bff;fill-opacity:1;stroke:none;stroke-width:1;stroke-linecap:square;stroke-linejoin:round;stroke-miterlimit:34.17825699;stroke-dasharray:none;stroke-opacity:1"/>
      <circle r="1" cy="2145.6296" cx="96.687775" id="circle4798-7-1" style="fill:#2dbca4;fill-opacity:1;stroke:none;stroke-width:1;stroke-linecap:square;stroke-linejoin:round;stroke-miterlimit:34.17825699;stroke-dasharray:none;stroke-opacity:1"/>
      <path inkscape:connector-curvature="0" id="path6950-6" d="m 97.894531,2158.3008 -0.353515,0.3535 -1.414063,1.4141 -0.353515,0.3535 0.707031,0.707 0.353515,-0.3535 1.414063,-1.4141 0.353515,-0.3535 -0.707031,-0.707 z" style="color:#000000;font-style:normal;font-variant:normal;font-weight:normal;font-stretch:normal;font-size:medium;line-height:normal;font-family:sans-serif;text-indent:0;text-align:start;text-decoration:none;text-decoration-line:none;text-decoration-style:solid;text-decoration-color:#000000;letter-spacing:normal;word-spacing:normal;text-transform:none;direction:ltr;block-progression:tb;writing-mode:lr-tb;baseline-shift:baseline;text-anchor:start;white-space:normal;clip-rule:nonzero;display:inline;overflow:visible;visibility:visible;opacity:1;isolation:auto;mix-blend-mode:normal;color-interpolation:sRGB;color-interpolation-filters:linearRGB;solid-color:#000000;solid-opacity:1;fill:#0e7bff;fill-opacity:1;fill-rule:evenodd;stroke:none;stroke-width:1px;stroke-linecap:square;stroke-linejoin:miter;stroke-miterlimit:4;stroke-dasharray:none;stroke-dashoffset:0;stroke-opacity:1;color-rendering:auto;image-rendering:auto;shape-rendering:auto;text-rendering:auto;enable-background:accumulate"/>
      <path inkscape:connector-curvature="0" id="path6952-4" d="m 96.480469,2158.3008 -0.707031,0.707 0.353515,0.3535 1.414063,1.4141 0.353515,0.3535 0.707031,-0.707 -0.353515,-0.3535 -1.414063,-1.4141 -0.353515,-0.3535 z" style="color:#000000;font-style:normal;font-variant:normal;font-weight:normal;font-stretch:normal;font-size:medium;line-height:normal;font-family:sans-serif;text-indent:0;text-align:start;text-decoration:none;text-decoration-line:none;text-decoration-style:solid;text-decoration-color:#000000;letter-spacing:normal;word-spacing:normal;text-transform:none;direction:ltr;block-progression:tb;writing-mode:lr-tb;baseline-shift:baseline;text-anchor:start;white-space:normal;clip-rule:nonzero;display:inline;overflow:visible;visibility:visible;opacity:1;isolation:auto;mix-blend-mode:normal;color-interpolation:sRGB;color-interpolation-filters:linearRGB;solid-color:#000000;solid-opacity:1;fill:#0e7bff;fill-opacity:1;fill-rule:evenodd;stroke:none;stroke-width:1px;stroke-linecap:square;stroke-linejoin:miter;stroke-miterlimit:4;stroke-dasharray:none;stroke-dashoffset:0;stroke-opacity:1;color-rendering:auto;image-rendering:auto;shape-rendering:auto;text-rendering:auto;enable-background:accumulate"/>
      <path inkscape:connector-curvature="0" id="circle6954-7" d="m 96.6875,2144.1289 c -0.822505,0 -1.5,0.6775 -1.5,1.5 0,0.8225 0.677495,1.5 1.5,1.5 0.822505,0 1.5,-0.6775 1.5,-1.5 0,-0.8225 -0.677495,-1.5 -1.5,-1.5 z m 0,1 c 0.282065,0 0.5,0.2179 0.5,0.5 0,0.2821 -0.217935,0.5 -0.5,0.5 -0.282065,0 -0.5,-0.2179 -0.5,-0.5 0,-0.2821 0.217935,-0.5 0.5,-0.5 z" style="color:#000000;font-style:normal;font-variant:normal;font-weight:normal;font-stretch:normal;font-size:medium;line-height:normal;font-family:sans-serif;text-indent:0;text-align:start;text-decoration:none;text-decoration-line:none;text-decoration-style:solid;text-decoration-color:#000000;letter-spacing:normal;word-spacing:normal;text-transform:none;direction:ltr;block-progression:tb;writing-mode:lr-tb;baseline-shift:baseline;text-anchor:start;white-space:normal;clip-rule:nonzero;display:inline;overflow:visible;visibility:visible;opacity:1;isolation:auto;mix-blend-mode:normal;color-interpolation:sRGB;color-interpolation-filters:linearRGB;solid-color:#000000;solid-opacity:1;fill:#0e7bff;fill-opacity:1;fill-rule:nonzero;stroke:none;stroke-width:1;stroke-linecap:square;stroke-linejoin:round;stroke-miterlimit:34.17825699;stroke-dasharray:none;stroke-dashoffset:0;stroke-opacity:1;color-rendering:auto;image-rendering:auto;shape-rendering:auto;text-rendering:auto;enable-background:accumulate"/>
    </g>
  </g>

	
	<metadata>
		<rdf:RDF xmlns:rdf="http://www.w3.org/1999/02/22-rdf-syntax-ns#" xmlns:rdfs="http://www.w3.org/2000/01/rdf-schema#" xmlns:dc="http://purl.org/dc/elements/1.1/">
			<rdf:Description about="https://iconscout.com/legal#licenses" dc:title="Mobile, Concept, Ads, Advertise, Touch, Pay, Per, Click" dc:description="Mobile, Concept, Ads, Advertise, Touch, Pay, Per, Click" dc:publisher="Iconscout" dc:date="2016-12-14" dc:format="image/svg+xml" dc:language="en">
				<dc:creator>
					<rdf:Bag>
						<rdf:li>Jemis Mali</rdf:li>
					</rdf:Bag>
				</dc:creator>
			</rdf:Description>
		</rdf:RDF>
    </metadata></svg>
