<?xml version="1.0" encoding="UTF-8" standalone="no"?>
<svg xmlns:dc="http://purl.org/dc/elements/1.1/" xmlns:cc="http://creativecommons.org/ns#" xmlns:rdf="http://www.w3.org/1999/02/22-rdf-syntax-ns#" xmlns:svg="http://www.w3.org/2000/svg" xmlns="http://www.w3.org/2000/svg" xmlns:sodipodi="http://sodipodi.sourceforge.net/DTD/sodipodi-0.dtd" xmlns:inkscape="http://www.inkscape.org/namespaces/inkscape" width="64" height="64" viewBox="0 0 64 64.000002" id="svg6959" version="1.1" inkscape:version="0.91 r13725" sodipodi:docname="6 mobile swim swimmingpool lader jump stand concept.svg">
  <defs id="defs6961">
    <clipPath id="clipPath4843-9-5-9-0" clipPathUnits="userSpaceOnUse">
      <rect style="color:#000000;clip-rule:nonzero;display:inline;overflow:visible;visibility:visible;opacity:1;isolation:auto;mix-blend-mode:normal;color-interpolation:sRGB;color-interpolation-filters:linearRGB;solid-color:#000000;solid-opacity:1;fill:#e9eded;fill-opacity:1;fill-rule:nonzero;stroke:#66124a;stroke-width:0.99999994;stroke-linecap:round;stroke-linejoin:round;stroke-miterlimit:0;stroke-dasharray:none;stroke-dashoffset:0;stroke-opacity:1;color-rendering:auto;image-rendering:auto;shape-rendering:auto;text-rendering:auto;enable-background:accumulate" id="rect4845-9-2-3-3" width="59.499996" height="59.499996" x="103.25" y="1110.8622" rx="29.749998" ry="29.749998" inkscape:export-xdpi="1999.9993" inkscape:export-ydpi="1999.9993"/>
    </clipPath>
  </defs>
  <sodipodi:namedview id="base" pagecolor="#ffffff" bordercolor="#666666" borderopacity="1.0" inkscape:pageopacity="0.0" inkscape:pageshadow="2" inkscape:zoom="2.8" inkscape:cx="1.5971508" inkscape:cy="-5.5020282" inkscape:document-units="px" inkscape:current-layer="layer1" showgrid="true" units="px" inkscape:snap-bbox="true" inkscape:bbox-paths="true" inkscape:bbox-nodes="true" inkscape:snap-bbox-edge-midpoints="true" inkscape:snap-bbox-midpoints="true" inkscape:window-width="1366" inkscape:window-height="705" inkscape:window-x="-8" inkscape:window-y="-8" inkscape:window-maximized="1">
    <inkscape:grid type="xygrid" id="grid6967"/>
  </sodipodi:namedview>
  
  <g inkscape:label="Layer 1" inkscape:groupmode="layer" id="layer1" transform="translate(0,-988.3622)">
    <g id="g11076" transform="translate(-317.9975,-912)">
      <path sodipodi:nodetypes="sssssssssssssssssssssssssssss" id="path7913" d="m 360.36914,1927.3622 c -0.277,0 -0.5,0.223 -0.5,0.5 0,0.277 0.223,0.5 0.5,0.5 l 0.5,0 c 0.277,0 0.5,0.223 0.5,0.5 0,0.277 -0.223,0.5 -0.5,0.5 l -1,0 c -0.277,0 -0.5,0.223 -0.5,0.5 0,0.277 0.223,0.5 0.5,0.5 l 3.63476,0 c 0.277,0 0.5,-0.223 0.5,-0.5 0,-0.277 -0.223,-0.5 -0.5,-0.5 l -0.38477,0 c -0.277,0 -0.5,-0.223 -0.5,-0.5 0,-0.277 0.223,-0.5 0.5,-0.5 l 0.88477,0 c 0.277,0 0.5,-0.223 0.5,-0.5 0,-0.277 -0.223,-0.5 -0.5,-0.5 z m 5.12987,0 c -0.27614,0 -0.5,0.2238 -0.5,0.5 0,0.2762 0.22386,0.5 0.5,0.5 0.27614,0 0.5,-0.2238 0.5,-0.5 0,-0.2762 -0.22386,-0.5 -0.5,-0.5 z m -6.99998,2 c -0.27614,0 -0.5,0.2238 -0.5,0.5 0,0.2762 0.22386,0.5 0.5,0.5 0.27614,0 0.5,-0.2238 0.5,-0.5 0,-0.2762 -0.22386,-0.5 -0.5,-0.5 z" style="color:#000000;clip-rule:nonzero;display:inline;overflow:visible;visibility:visible;opacity:1;isolation:auto;mix-blend-mode:normal;color-interpolation:sRGB;color-interpolation-filters:linearRGB;solid-color:#000000;solid-opacity:1;fill:#6f9de0;fill-opacity:1;fill-rule:nonzero;stroke:none;stroke-width:0.99999988;stroke-linecap:round;stroke-linejoin:round;stroke-miterlimit:0;stroke-dasharray:none;stroke-dashoffset:0;stroke-opacity:1;color-rendering:auto;image-rendering:auto;shape-rendering:auto;text-rendering:auto;enable-background:accumulate" inkscape:connector-curvature="0"/>
      <path style="fill:#b2cdf8;fill-opacity:1;fill-rule:evenodd;stroke:none;stroke-width:0.99999994px;stroke-linecap:butt;stroke-linejoin:round;stroke-opacity:1" d="m 379.49955,1945.9538 0,3.4547 c 0,1.9138 -1.52991,3.4546 -3.43029,3.4546 l -52.14101,0 c -1.90038,0 -3.4588,-1.5411 -3.43029,-3.4546 l 0.0515,-3.4547" id="path6349" inkscape:connector-curvature="0" sodipodi:nodetypes="cssssc"/>
      <path inkscape:connector-curvature="0" id="path6351" d="m 320.04874,1945.9462 -0.0508,3.4551 c -0.0326,2.1889 1.75899,3.9609 3.92969,3.9609 l 52.14258,0 c 2.17064,0 3.92968,-1.7728 3.92968,-3.9531 l 0,-3.4551 -1,0 0,3.4551 c 0,1.6473 -1.29957,2.9531 -2.92968,2.9531 l -52.14258,0 c -1.63007,0 -2.9541,-1.3072 -2.92969,-2.9453 l 0.0508,-3.4551 -1,-0.016 z" style="color:#000000;font-style:normal;font-variant:normal;font-weight:normal;font-stretch:normal;font-size:medium;line-height:normal;font-family:sans-serif;text-indent:0;text-align:start;text-decoration:none;text-decoration-line:none;text-decoration-style:solid;text-decoration-color:#000000;letter-spacing:normal;word-spacing:normal;text-transform:none;direction:ltr;block-progression:tb;writing-mode:lr-tb;baseline-shift:baseline;text-anchor:start;white-space:normal;clip-rule:nonzero;display:inline;overflow:visible;visibility:visible;opacity:1;isolation:auto;mix-blend-mode:normal;color-interpolation:sRGB;color-interpolation-filters:linearRGB;solid-color:#000000;solid-opacity:1;fill:#0e7bff;fill-opacity:1;fill-rule:evenodd;stroke:none;stroke-width:0.99999994px;stroke-linecap:butt;stroke-linejoin:round;stroke-miterlimit:4;stroke-dasharray:none;stroke-dashoffset:0;stroke-opacity:1;color-rendering:auto;image-rendering:auto;shape-rendering:auto;text-rendering:auto;enable-background:accumulate"/>
      <path style="fill:#ffffff;fill-opacity:1;stroke:none;stroke-width:0.99999994;stroke-linecap:butt;stroke-linejoin:miter;stroke-opacity:1" d="m 377.46787,1927.9897 c 0,-1.5311 -1.22394,-2.7637 -2.74426,-2.7637 l -49.39673,0 c -1.52031,0 -2.74424,1.2326 -2.74424,2.7637 l -2.03103,17.9641 c 0,2.0728 1.13605,4.1456 3.78975,4.1456 l 25.16333,0 3.36885,0 22.42462,0 c 2.65561,0 4.20139,-2.0728 4.20139,-4.1456 z" id="path6353" inkscape:connector-curvature="0" sodipodi:nodetypes="cssccsccscc"/>
      <path sodipodi:nodetypes="cccc" inkscape:connector-curvature="0" id="path6355" d="m 370.35259,1925.4171 1.37213,21.9186 -43.81678,0 1.37213,-21.9186" style="fill:#b2cdf8;fill-opacity:1;fill-rule:evenodd;stroke:none;stroke-width:0.99999994px;stroke-linecap:round;stroke-linejoin:round;stroke-opacity:1"/>
      <path style="fill:#6ca6fd;fill-opacity:1;fill-rule:evenodd;stroke:none;stroke-width:0.99999994px;stroke-linecap:round;stroke-linejoin:round;stroke-opacity:1" d="m 370.35259,1925.4171 1.37213,21.9186 -43.81678,0" id="path6362" inkscape:connector-curvature="0" sodipodi:nodetypes="ccc"/>
      <path sodipodi:nodetypes="ccccccccc" inkscape:connector-curvature="0" id="path6365" d="m 328.77905,1925.5181 -1.27194,20.7041 c 0.45744,1.2322 0.93861,1.2051 1.2202,1.6139 l 42.99679,0 -0.15429,-1.9726 -40.97201,0 c -1.1,0 -1.03968,-0.9932 -1.03968,-0.9932 l 1.15806,-19.3522 z" style="fill:#6ca6fd;fill-opacity:1;fill-rule:evenodd;stroke:none;stroke-width:0.99999994px;stroke-linecap:round;stroke-linejoin:round;stroke-opacity:1"/>
      <path inkscape:connector-curvature="0" id="path6367" d="m 325.02921,1934.1591 -0.41211,4.1445 0.99414,0.1 0.41211,-4.1464 -0.99414,-0.098 z" style="color:#000000;font-style:normal;font-variant:normal;font-weight:normal;font-stretch:normal;font-size:medium;line-height:normal;font-family:sans-serif;text-indent:0;text-align:start;text-decoration:none;text-decoration-line:none;text-decoration-style:solid;text-decoration-color:#000000;letter-spacing:normal;word-spacing:normal;text-transform:none;direction:ltr;block-progression:tb;writing-mode:lr-tb;baseline-shift:baseline;text-anchor:start;white-space:normal;clip-rule:nonzero;display:inline;overflow:visible;visibility:visible;opacity:1;isolation:auto;mix-blend-mode:normal;color-interpolation:sRGB;color-interpolation-filters:linearRGB;solid-color:#000000;solid-opacity:1;fill:#0e7bff;fill-opacity:1;fill-rule:evenodd;stroke:none;stroke-width:0.99999994px;stroke-linecap:butt;stroke-linejoin:miter;stroke-miterlimit:4;stroke-dasharray:none;stroke-dashoffset:0;stroke-opacity:1;color-rendering:auto;image-rendering:auto;shape-rendering:auto;text-rendering:auto;enable-background:accumulate"/>
      <path inkscape:connector-curvature="0" id="path6369" d="m 325.52962,1940.4263 a 0.68606508,0.69092786 0 0 1 -0.68606,0.6909 0.68606508,0.69092786 0 0 1 -0.68607,-0.6909 0.68606508,0.69092786 0 0 1 0.68607,-0.6909 0.68606508,0.69092786 0 0 1 0.68606,0.6909 z" style="fill:#0e7bff;fill-opacity:1;stroke:none;stroke-linecap:butt;stroke-linejoin:miter;stroke-opacity:1"/>
      <path inkscape:connector-curvature="0" style="fill:#dae7fc;fill-opacity:1;stroke:none;stroke-width:0.99999994;stroke-linecap:butt;stroke-linejoin:miter;stroke-opacity:1" d="m 374.84393,1925.2576 c 1.37717,0.1505 2.44727,1.3041 2.44727,2.7324 l 2.03125,17.9649 c 0,2.0728 -1.13732,4.1445 -3.79102,4.1445 l -25.16211,0 -3.36914,0 -22.42578,0 c -1.63243,0 -2.83573,-0.7868 -3.52344,-1.8731 0.33752,0.081 0.69246,0.1368 1.07813,0.1368 l 22.42382,0 3.36915,0 25.16406,0 c 2.6537,0 3.78906,-2.0737 3.78906,-4.1465 l -0.043,-0.3848 c 0.0227,-0.2034 0.043,-0.4078 0.043,-0.6133 l -2.03125,-17.9609 z" id="path6371"/>
      <path id="path6373" d="m 325.02921,1925.2576 c -1.37717,0.1505 -2.44727,1.3041 -2.44727,2.7324 l -2.03125,17.9649 c 0,2.0728 1.13732,4.1445 3.79102,4.1445 l 25.16211,0 3.36914,0 22.42578,0 c 1.63243,0 2.83573,-0.7868 3.52344,-1.8731 -0.33752,0.081 -0.69246,0.1368 -1.07813,0.1368 l -22.42382,0 -3.36915,0 -25.16406,0 c -2.6537,0 -3.78906,-2.0737 -3.78906,-4.1465 l 0.043,-0.3848 c -0.0227,-0.2034 -0.043,-0.4078 -0.043,-0.6133 l 2.03125,-17.9609 z" style="fill:#dae7fc;fill-opacity:1;stroke:none;stroke-width:0.99999994;stroke-linecap:butt;stroke-linejoin:miter;stroke-opacity:1" inkscape:connector-curvature="0"/>
      <path inkscape:connector-curvature="0" id="path6375" d="m 330.75644,1945.8644 -2.84766,1.4707 43.77539,0 -0.11523,-1.4707 -40.8125,0 z" style="fill:#498ffd;fill-opacity:1;fill-rule:evenodd;stroke:none;stroke-width:0.99999994px;stroke-linecap:round;stroke-linejoin:round;stroke-opacity:1"/>
      <path inkscape:connector-curvature="0" id="path6377" d="m 329.25382,1924.9111 a 0.50004997,0.50004997 0 0 0 -0.47266,0.4746 l -1.37304,21.9179 a 0.50004997,0.50004997 0 0 0 0.5,0.5313 l 43.8164,0 a 0.50004997,0.50004997 0 0 0 0.5,-0.5313 l -1.37304,-21.9179 a 0.50004997,0.50004997 0 1 0 -0.99805,0.062 l 1.33984,21.3867 -42.7539,0 1.33984,-21.3867 a 0.50004997,0.50004997 0 0 0 -0.52539,-0.5371 z" style="color:#000000;font-style:normal;font-variant:normal;font-weight:normal;font-stretch:normal;font-size:medium;line-height:normal;font-family:sans-serif;text-indent:0;text-align:start;text-decoration:none;text-decoration-line:none;text-decoration-style:solid;text-decoration-color:#000000;letter-spacing:normal;word-spacing:normal;text-transform:none;direction:ltr;block-progression:tb;writing-mode:lr-tb;baseline-shift:baseline;text-anchor:start;white-space:normal;clip-rule:nonzero;display:inline;overflow:visible;visibility:visible;opacity:1;isolation:auto;mix-blend-mode:normal;color-interpolation:sRGB;color-interpolation-filters:linearRGB;solid-color:#000000;solid-opacity:1;fill:#0e7bff;fill-opacity:1;fill-rule:evenodd;stroke:none;stroke-width:0.99999994px;stroke-linecap:round;stroke-linejoin:round;stroke-miterlimit:4;stroke-dasharray:none;stroke-dashoffset:0;stroke-opacity:1;color-rendering:auto;image-rendering:auto;shape-rendering:auto;text-rendering:auto;enable-background:accumulate"/>
      <path inkscape:connector-curvature="0" id="path6379" d="m 325.32608,1924.7255 c -1.79056,0 -3.24414,1.4661 -3.24414,3.2637 l 0.004,-0.055 -2.03516,17.9902 0,0.029 c 0,1.1278 0.30424,2.272 1.00782,3.1602 0.70357,0.8882 1.82617,1.4844 3.2832,1.4844 l 25.16211,0 3.36914,0 22.42578,0 c 2.91579,0 4.70117,-2.3232 4.70117,-4.6446 l 0,-0.029 -2.03515,-17.9922 0.004,0.057 c 0,-1.7976 -1.45357,-3.2637 -3.24414,-3.2637 l -49.39844,0 z m 0,1 49.39844,0 c 1.25007,0 2.24414,0.999 2.24414,2.2637 l 0,0.029 0.002,0.027 2.02734,17.9239 c -0.008,1.8189 -1.3107,3.6289 -3.69922,3.6289 l -22.42578,0 -3.36914,0 -25.16211,0 c -1.19667,0 -1.97017,-0.4391 -2.49805,-1.1055 -0.52579,-0.6638 -0.78699,-1.5881 -0.78906,-2.5293 l 2.02734,-17.9453 0,-0.029 c 0,-1.2647 0.99409,-2.2637 2.24414,-2.2637 z" style="color:#000000;font-style:normal;font-variant:normal;font-weight:normal;font-stretch:normal;font-size:medium;line-height:normal;font-family:sans-serif;text-indent:0;text-align:start;text-decoration:none;text-decoration-line:none;text-decoration-style:solid;text-decoration-color:#000000;letter-spacing:normal;word-spacing:normal;text-transform:none;direction:ltr;block-progression:tb;writing-mode:lr-tb;baseline-shift:baseline;text-anchor:start;white-space:normal;clip-rule:nonzero;display:inline;overflow:visible;visibility:visible;opacity:1;isolation:auto;mix-blend-mode:normal;color-interpolation:sRGB;color-interpolation-filters:linearRGB;solid-color:#000000;solid-opacity:1;fill:#0e7bff;fill-opacity:1;fill-rule:nonzero;stroke:none;stroke-width:0.99999994;stroke-linecap:butt;stroke-linejoin:miter;stroke-miterlimit:4;stroke-dasharray:none;stroke-dashoffset:0;stroke-opacity:1;color-rendering:auto;image-rendering:auto;shape-rendering:auto;text-rendering:auto;enable-background:accumulate"/>
      <path style="color:#000000;font-style:normal;font-variant:normal;font-weight:normal;font-stretch:normal;font-size:medium;line-height:normal;font-family:sans-serif;text-indent:0;text-align:start;text-decoration:none;text-decoration-line:none;text-decoration-style:solid;text-decoration-color:#000000;letter-spacing:normal;word-spacing:normal;text-transform:none;direction:ltr;block-progression:tb;writing-mode:lr-tb;baseline-shift:baseline;text-anchor:start;white-space:normal;clip-rule:nonzero;display:inline;overflow:visible;visibility:visible;opacity:1;isolation:auto;mix-blend-mode:normal;color-interpolation:sRGB;color-interpolation-filters:linearRGB;solid-color:#000000;solid-opacity:1;fill:#b2cdf8;fill-opacity:1;fill-rule:nonzero;stroke:none;stroke-width:1.00697327;stroke-linecap:butt;stroke-linejoin:miter;stroke-miterlimit:4;stroke-dasharray:none;stroke-dashoffset:0;stroke-opacity:1;color-rendering:auto;image-rendering:auto;shape-rendering:auto;text-rendering:auto;enable-background:accumulate" d="m 374.38476,1936.5922 c 0.57415,0.012 1.10187,0.479 1.18815,1.0691 0.0863,0.5903 -0.30773,1.0376 -0.88184,1.0255 -0.57412,-0.012 -1.10181,-0.4789 -1.18815,-1.0691 -0.0863,-0.5901 0.3077,-1.0376 0.88184,-1.0255 z" id="path8335" inkscape:connector-curvature="0" sodipodi:nodetypes="cccsc"/>
      <path inkscape:connector-curvature="0" id="path6381" d="m 374.23955,1935.7825 c -1.03615,-0.022 -1.7559,0.8121 -1.60545,1.8407 0.15045,1.0285 1.11933,1.8982 2.15543,1.9201 1.03609,0.022 1.75582,-0.8121 1.60545,-1.8407 -0.15039,-1.0285 -1.11928,-1.8982 -2.15543,-1.9201 z m 0.14583,0.9972 c 0.4842,0.01 0.92924,0.4039 1.00201,0.9016 0.0728,0.4978 -0.25952,0.875 -0.74369,0.8648 -0.48418,-0.01 -0.9292,-0.4038 -1.00201,-0.9016 -0.0728,-0.4977 0.25949,-0.875 0.74369,-0.8648 z" style="color:#000000;font-style:normal;font-variant:normal;font-weight:normal;font-stretch:normal;font-size:medium;line-height:normal;font-family:sans-serif;text-indent:0;text-align:start;text-decoration:none;text-decoration-line:none;text-decoration-style:solid;text-decoration-color:#000000;letter-spacing:normal;word-spacing:normal;text-transform:none;direction:ltr;block-progression:tb;writing-mode:lr-tb;baseline-shift:baseline;text-anchor:start;white-space:normal;clip-rule:nonzero;display:inline;overflow:visible;visibility:visible;opacity:1;isolation:auto;mix-blend-mode:normal;color-interpolation:sRGB;color-interpolation-filters:linearRGB;solid-color:#000000;solid-opacity:1;fill:#0e7bff;fill-opacity:1;fill-rule:nonzero;stroke:none;stroke-width:1.00697327;stroke-linecap:butt;stroke-linejoin:miter;stroke-miterlimit:4;stroke-dasharray:none;stroke-dashoffset:0;stroke-opacity:1;color-rendering:auto;image-rendering:auto;shape-rendering:auto;text-rendering:auto;enable-background:accumulate"/>
      <path style="fill:#498ffd;fill-opacity:1;fill-rule:evenodd;stroke:none;stroke-width:0.99999994px;stroke-linecap:round;stroke-linejoin:round;stroke-opacity:1" d="m 339.47461,1941.3622 -2.24414,1.1582 c 0.0846,0.089 0.13867,0.2084 0.13867,0.3418 0,0.277 -0.223,0.5 -0.5,0.5 l -1,0 c -0.277,0 -0.5,0.223 -0.5,0.5 0,0.277 0.223,0.5 0.5,0.5 l 3.63477,0 c 0.277,0 0.5,-0.223 0.5,-0.5 0,-0.277 -0.223,-0.5 -0.5,-0.5 l -0.38477,0 c -0.277,0 -0.5,-0.223 -0.5,-0.5 0,-0.277 0.223,-0.5 0.5,-0.5 l 0.88477,0 c 0.277,0 0.5,-0.223 0.5,-0.5 0,-0.277 -0.223,-0.5 -0.5,-0.5 l -0.5293,0 z m 2.02344,0 c -0.27614,0 -0.5,0.2238 -0.5,0.5 0,0.2762 0.22386,0.5 0.5,0.5 0.27614,0 0.5,-0.2238 0.5,-0.5 0,-0.2762 -0.22386,-0.5 -0.5,-0.5 z m -6.53321,2.33 -0.87109,0.4473 c 0.0901,0.1313 0.23494,0.2227 0.40625,0.2227 0.27614,0 0.5,-0.2238 0.5,-0.5 0,-0.06 -0.0158,-0.1166 -0.0352,-0.17 z" id="path7905" inkscape:connector-curvature="0"/>
      <path sodipodi:nodetypes="cssc" inkscape:connector-curvature="0" id="rect5418-1" d="m 369.47621,1936.3622 0,-4.9955 c 0,-1.3875 1.115,-2.5045 2.5,-2.5045 1.385,0 2.5,1.117 2.5,2.5045" style="fill:none;fill-opacity:1;stroke:#0e7bff;stroke-width:1;stroke-linecap:butt;stroke-linejoin:round;stroke-miterlimit:34.17825699;stroke-dasharray:none;stroke-opacity:1"/>
      <path sodipodi:nodetypes="cssc" inkscape:connector-curvature="0" id="rect5420-9" d="m 366.5,1935.1123 0,-4.0214 c 0,-1.6503 1.3433,-2.9789 3.01189,-2.9789 1.6686,0 3.0119,1.3286 3.0119,2.9789" style="fill:none;fill-opacity:1;stroke:#0e7bff;stroke-width:1;stroke-linecap:butt;stroke-linejoin:round;stroke-miterlimit:34.17825699;stroke-dasharray:none;stroke-opacity:1"/>
      <path sodipodi:nodetypes="cc" inkscape:connector-curvature="0" id="path5424-8" d="m 366.49901,1933.8622 2.99999,0.5" style="fill:none;fill-rule:evenodd;stroke:#0e7bff;stroke-width:1px;stroke-linecap:butt;stroke-linejoin:miter;stroke-opacity:1"/>
      <path sodipodi:nodetypes="cc" style="fill:none;fill-rule:evenodd;stroke:#0e7bff;stroke-width:1px;stroke-linecap:butt;stroke-linejoin:miter;stroke-opacity:1" d="m 366.49901,1931.8622 2.99999,0.5" id="path5426-3" inkscape:connector-curvature="0"/>
      <path sodipodi:nodetypes="cc" inkscape:connector-curvature="0" id="path5428-8" d="m 366.99901,1929.8622 2.69999,0.5" style="fill:none;fill-rule:evenodd;stroke:#0e7bff;stroke-width:1px;stroke-linecap:butt;stroke-linejoin:miter;stroke-opacity:1"/>
      <path sodipodi:nodetypes="sssssssssssssssssssssssssssss" id="path15392-5" d="m 336.36914,1941.3622 c -0.277,0 -0.5,0.223 -0.5,0.5 0,0.277 0.223,0.5 0.5,0.5 l 0.5,0 c 0.277,0 0.5,0.223 0.5,0.5 0,0.277 -0.223,0.5 -0.5,0.5 l -1,0 c -0.277,0 -0.5,0.223 -0.5,0.5 0,0.277 0.223,0.5 0.5,0.5 l 3.63476,0 c 0.277,0 0.5,-0.223 0.5,-0.5 0,-0.277 -0.223,-0.5 -0.5,-0.5 l -0.38477,0 c -0.277,0 -0.5,-0.223 -0.5,-0.5 0,-0.277 0.223,-0.5 0.5,-0.5 l 0.88477,0 c 0.277,0 0.5,-0.223 0.5,-0.5 0,-0.277 -0.223,-0.5 -0.5,-0.5 z m 5.12987,0 c -0.27614,0 -0.5,0.2238 -0.5,0.5 0,0.2762 0.22386,0.5 0.5,0.5 0.27614,0 0.5,-0.2238 0.5,-0.5 0,-0.2762 -0.22386,-0.5 -0.5,-0.5 z m -6.99998,2 c -0.27614,0 -0.5,0.2238 -0.5,0.5 0,0.2762 0.22386,0.5 0.5,0.5 0.27614,0 0.5,-0.2238 0.5,-0.5 0,-0.2762 -0.22386,-0.5 -0.5,-0.5 z" style="color:#000000;clip-rule:nonzero;display:inline;overflow:visible;visibility:visible;opacity:1;isolation:auto;mix-blend-mode:normal;color-interpolation:sRGB;color-interpolation-filters:linearRGB;solid-color:#000000;solid-opacity:1;fill:#6ca6fd;fill-opacity:1;fill-rule:nonzero;stroke:none;stroke-width:0.99999988;stroke-linecap:round;stroke-linejoin:round;stroke-miterlimit:0;stroke-dasharray:none;stroke-dashoffset:0;stroke-opacity:1;color-rendering:auto;image-rendering:auto;shape-rendering:auto;text-rendering:auto;enable-background:accumulate" inkscape:connector-curvature="0"/>
      <path inkscape:connector-curvature="0" style="color:#000000;clip-rule:nonzero;display:inline;overflow:visible;visibility:visible;opacity:1;isolation:auto;mix-blend-mode:normal;color-interpolation:sRGB;color-interpolation-filters:linearRGB;solid-color:#000000;solid-opacity:1;fill:#6ca6fd;fill-opacity:1;fill-rule:nonzero;stroke:none;stroke-width:0.99999988;stroke-linecap:round;stroke-linejoin:round;stroke-miterlimit:0;stroke-dasharray:none;stroke-dashoffset:0;stroke-opacity:1;color-rendering:auto;image-rendering:auto;shape-rendering:auto;text-rendering:auto;enable-background:accumulate" d="m 360.36914,1927.3622 c -0.277,0 -0.5,0.223 -0.5,0.5 0,0.277 0.223,0.5 0.5,0.5 l 0.5,0 c 0.277,0 0.5,0.223 0.5,0.5 0,0.277 -0.223,0.5 -0.5,0.5 l -1,0 c -0.277,0 -0.5,0.223 -0.5,0.5 0,0.277 0.223,0.5 0.5,0.5 l 3.63476,0 c 0.277,0 0.5,-0.223 0.5,-0.5 0,-0.277 -0.223,-0.5 -0.5,-0.5 l -0.38477,0 c -0.277,0 -0.5,-0.223 -0.5,-0.5 0,-0.277 0.223,-0.5 0.5,-0.5 l 0.88477,0 c 0.277,0 0.5,-0.223 0.5,-0.5 0,-0.277 -0.223,-0.5 -0.5,-0.5 z m 5.12987,0 c -0.27614,0 -0.5,0.2238 -0.5,0.5 0,0.2762 0.22386,0.5 0.5,0.5 0.27614,0 0.5,-0.2238 0.5,-0.5 0,-0.2762 -0.22386,-0.5 -0.5,-0.5 z m -6.99998,2 c -0.27614,0 -0.5,0.2238 -0.5,0.5 0,0.2762 0.22386,0.5 0.5,0.5 0.27614,0 0.5,-0.2238 0.5,-0.5 0,-0.2762 -0.22386,-0.5 -0.5,-0.5 z" id="path5436-9" sodipodi:nodetypes="sssssssssssssssssssssssssssss"/>
      <path id="path7911" d="m 365.96289,1927.6844 -0.87305,0.4492 c 0.0896,0.1347 0.23434,0.2286 0.40821,0.2286 0.27614,0 0.5,-0.2238 0.5,-0.5 0,-0.063 -0.014,-0.1224 -0.0352,-0.1778 z m -3.09766,1.5996 -2.08789,1.0782 2.72657,0 c 0.277,0 0.5,-0.223 0.5,-0.5 0,-0.277 -0.223,-0.5 -0.5,-0.5 l -0.38477,0 c -0.0948,0 -0.17856,-0.033 -0.25391,-0.078 z" style="fill:#498ffd;fill-opacity:1;fill-rule:evenodd;stroke:none;stroke-width:0.99999994px;stroke-linecap:round;stroke-linejoin:round;stroke-opacity:1" inkscape:connector-curvature="0"/>
      <path sodipodi:nodetypes="cssssssccsssss" id="path5438-1" d="m 363.86913,1936.3622 -1,0 c -0.277,0 -0.5,0.223 -0.5,0.5 0,0.277 0.223,0.5 0.5,0.5 l 3.63476,0 c 0.277,0 0.5,-0.223 0.5,-0.5 0,-0.277 -0.223,-0.5 -0.5,-0.5 l -0.38477,0 z m -2.37011,0 c -0.27614,0 -0.5,0.2238 -0.5,0.5 0,0.2762 0.22386,0.5 0.5,0.5 0.27614,0 0.5,-0.2238 0.5,-0.5 0,-0.2762 -0.22386,-0.5 -0.5,-0.5 z" style="color:#000000;clip-rule:nonzero;display:inline;overflow:visible;visibility:visible;opacity:1;isolation:auto;mix-blend-mode:normal;color-interpolation:sRGB;color-interpolation-filters:linearRGB;solid-color:#000000;solid-opacity:1;fill:#498ffd;fill-opacity:1;fill-rule:nonzero;stroke:none;stroke-width:0.99999988;stroke-linecap:round;stroke-linejoin:round;stroke-miterlimit:0;stroke-dasharray:none;stroke-dashoffset:0;stroke-opacity:1;color-rendering:auto;image-rendering:auto;shape-rendering:auto;text-rendering:auto;enable-background:accumulate" inkscape:connector-curvature="0"/>
      <path inkscape:connector-curvature="0" style="color:#000000;clip-rule:nonzero;display:inline;overflow:visible;visibility:visible;opacity:1;isolation:auto;mix-blend-mode:normal;color-interpolation:sRGB;color-interpolation-filters:linearRGB;solid-color:#000000;solid-opacity:1;fill:#498ffd;fill-opacity:1;fill-rule:nonzero;stroke:none;stroke-width:0.99999988;stroke-linecap:round;stroke-linejoin:round;stroke-miterlimit:0;stroke-dasharray:none;stroke-dashoffset:0;stroke-opacity:1;color-rendering:auto;image-rendering:auto;shape-rendering:auto;text-rendering:auto;enable-background:accumulate" d="m 356.36913,1941.3622 c -0.277,0 -0.5,0.223 -0.5,0.5 0,0.277 0.223,0.5 0.5,0.5 l 0.5,0 c 0.277,0 0.5,0.223 0.5,0.5 0,0.277 -0.223,0.5 -0.5,0.5 l -1,0 c -0.277,0 -0.5,0.223 -0.5,0.5 0,0.277 0.223,0.5 0.5,0.5 l 3.63476,0 c 0.277,0 0.5,-0.223 0.5,-0.5 0,-0.277 -0.223,-0.5 -0.5,-0.5 l -0.38477,0 c -0.277,0 -0.5,-0.223 -0.5,-0.5 0,-0.277 0.223,-0.5 0.5,-0.5 l 0.88477,0 c 0.277,0 0.5,-0.223 0.5,-0.5 0,-0.277 -0.223,-0.5 -0.5,-0.5 z m 5.12987,0 c -0.27614,0 -0.5,0.2238 -0.5,0.5 0,0.2762 0.22386,0.5 0.5,0.5 0.27614,0 0.5,-0.2238 0.5,-0.5 0,-0.2762 -0.22386,-0.5 -0.5,-0.5 z m -6.99998,2 c -0.27614,0 -0.5,0.2238 -0.5,0.5 0,0.2762 0.22386,0.5 0.5,0.5 0.27614,0 0.5,-0.2238 0.5,-0.5 0,-0.2762 -0.22386,-0.5 -0.5,-0.5 z" id="path5440-9" sodipodi:nodetypes="sssssssssssssssssssssssssssss"/>
      <path sodipodi:nodetypes="sssssssssssssssssssssssssssss" id="path5442-8" d="m 348.36913,1933.3622 c -0.277,0 -0.5,0.223 -0.5,0.5 0,0.277 0.223,0.5 0.5,0.5 l 0.5,0 c 0.277,0 0.5,0.223 0.5,0.5 0,0.277 -0.223,0.5 -0.5,0.5 l -1,0 c -0.277,0 -0.5,0.223 -0.5,0.5 0,0.277 0.223,0.5 0.5,0.5 l 3.63476,0 c 0.277,0 0.5,-0.223 0.5,-0.5 0,-0.277 -0.223,-0.5 -0.5,-0.5 l -0.38477,0 c -0.277,0 -0.5,-0.223 -0.5,-0.5 0,-0.277 0.223,-0.5 0.5,-0.5 l 0.88477,0 c 0.277,0 0.5,-0.223 0.5,-0.5 0,-0.277 -0.223,-0.5 -0.5,-0.5 z m 5.12987,0 c -0.27614,0 -0.5,0.2238 -0.5,0.5 0,0.2762 0.22386,0.5 0.5,0.5 0.27614,0 0.5,-0.2238 0.5,-0.5 0,-0.2762 -0.22386,-0.5 -0.5,-0.5 z m -6.99998,2 c -0.27614,0 -0.5,0.2238 -0.5,0.5 0,0.2762 0.22386,0.5 0.5,0.5 0.27614,0 0.5,-0.2238 0.5,-0.5 0,-0.2762 -0.22386,-0.5 -0.5,-0.5 z" style="color:#000000;clip-rule:nonzero;display:inline;overflow:visible;visibility:visible;opacity:1;isolation:auto;mix-blend-mode:normal;color-interpolation:sRGB;color-interpolation-filters:linearRGB;solid-color:#000000;solid-opacity:1;fill:#6ca6fd;fill-opacity:1;fill-rule:nonzero;stroke:none;stroke-width:0.99999988;stroke-linecap:round;stroke-linejoin:round;stroke-miterlimit:0;stroke-dasharray:none;stroke-dashoffset:0;stroke-opacity:1;color-rendering:auto;image-rendering:auto;shape-rendering:auto;text-rendering:auto;enable-background:accumulate" inkscape:connector-curvature="0"/>
      <path sodipodi:nodetypes="sssssssssssssssssssssssssssss" id="path5446-8" d="m 337.62888,1928.3622 c 0.277,0 0.5,0.223 0.5,0.5 0,0.277 -0.223,0.5 -0.5,0.5 l -0.5,0 c -0.277,0 -0.5,0.223 -0.5,0.5 0,0.277 0.223,0.5 0.5,0.5 l 1,0 c 0.277,0 0.5,0.223 0.5,0.5 0,0.277 -0.223,0.5 -0.5,0.5 l -3.63476,0 c -0.277,0 -0.5,-0.223 -0.5,-0.5 0,-0.277 0.223,-0.5 0.5,-0.5 l 0.38477,0 c 0.277,0 0.5,-0.223 0.5,-0.5 0,-0.277 -0.223,-0.5 -0.5,-0.5 l -0.88477,0 c -0.277,0 -0.5,-0.223 -0.5,-0.5 0,-0.277 0.223,-0.5 0.5,-0.5 z m -5.12987,0 c 0.27614,0 0.5,0.2238 0.5,0.5 0,0.2762 -0.22386,0.5 -0.5,0.5 -0.27614,0 -0.5,-0.2238 -0.5,-0.5 0,-0.2762 0.22386,-0.5 0.5,-0.5 z m 6.99998,2 c 0.27614,0 0.5,0.2238 0.5,0.5 0,0.2762 -0.22386,0.5 -0.5,0.5 -0.27614,0 -0.5,-0.2238 -0.5,-0.5 0,-0.2762 0.22386,-0.5 0.5,-0.5 z" style="color:#000000;clip-rule:nonzero;display:inline;overflow:visible;visibility:visible;opacity:1;isolation:auto;mix-blend-mode:normal;color-interpolation:sRGB;color-interpolation-filters:linearRGB;solid-color:#000000;solid-opacity:1;fill:#6ca6fd;fill-opacity:1;fill-rule:nonzero;stroke:none;stroke-width:0.99999988;stroke-linecap:round;stroke-linejoin:round;stroke-miterlimit:0;stroke-dasharray:none;stroke-dashoffset:0;stroke-opacity:1;color-rendering:auto;image-rendering:auto;shape-rendering:auto;text-rendering:auto;enable-background:accumulate" inkscape:connector-curvature="0"/>
      <path style="fill:none;fill-opacity:1;fill-rule:evenodd;stroke:#8fb6d7;stroke-width:1px;stroke-linecap:round;stroke-linejoin:round;stroke-opacity:1" d="m 326.50709,1916.8623 -2,2.9999" id="path7220-8" inkscape:connector-curvature="0" sodipodi:nodetypes="cc"/>
      <path style="fill:none;fill-opacity:1;fill-rule:evenodd;stroke:#6ca6fd;stroke-width:1px;stroke-linecap:round;stroke-linejoin:round;stroke-opacity:1" d="m 326.50709,1919.3623 -2,2.9999" id="path7212-3" inkscape:connector-curvature="0" sodipodi:nodetypes="cc"/>
      <path sodipodi:nodetypes="cc" inkscape:connector-curvature="0" id="path7214-1" d="m 326.50709,1921.8563 -2,2.9999" style="fill:none;fill-opacity:1;fill-rule:evenodd;stroke:#6ca6fd;stroke-width:1px;stroke-linecap:round;stroke-linejoin:round;stroke-opacity:1"/>
      <path style="fill:none;fill-opacity:1;fill-rule:evenodd;stroke:#6ca6fd;stroke-width:1px;stroke-linecap:round;stroke-linejoin:round;stroke-opacity:1" d="m 326.50709,1924.3563 -2,2.9999" id="path7216-9" inkscape:connector-curvature="0" sodipodi:nodetypes="cc"/>
      <path sodipodi:nodetypes="cc" inkscape:connector-curvature="0" id="path7218-0" d="m 326.50709,1926.8563 -2,2.9999" style="fill:none;fill-opacity:1;fill-rule:evenodd;stroke:#6ca6fd;stroke-width:1px;stroke-linecap:round;stroke-linejoin:round;stroke-opacity:1"/>
      <path inkscape:connector-curvature="0" id="path7192-6" d="m 326.50712,1929.3629 0,-15" style="fill:none;fill-rule:evenodd;stroke:#0e7bff;stroke-width:1px;stroke-linecap:butt;stroke-linejoin:miter;stroke-opacity:1"/>
      <path style="fill:#b2cdf8;fill-opacity:1;fill-rule:evenodd;stroke:none;stroke-width:1px;stroke-linecap:round;stroke-linejoin:round;stroke-opacity:1" d="m 339.00712,1916.8623 -14.5,0 0,2.9999 14.5,0 z" id="path7210-3" inkscape:connector-curvature="0" sodipodi:nodetypes="ccccc"/>
      <path sodipodi:nodetypes="ccc" inkscape:connector-curvature="0" id="path7208-4" d="m 324.50712,1919.8622 14,0 0,-2" style="fill:none;fill-opacity:1;fill-rule:evenodd;stroke:#0e7bff;stroke-width:1px;stroke-linecap:round;stroke-linejoin:round;stroke-opacity:1"/>
      <path style="fill:none;fill-rule:evenodd;stroke:#0e7bff;stroke-width:1px;stroke-linecap:butt;stroke-linejoin:miter;stroke-opacity:1" d="m 324.50712,1931.3622 0,-15" id="path7190-6" inkscape:connector-curvature="0"/>
      <path style="fill:#b2cdf8;fill-opacity:1;fill-rule:evenodd;stroke:none;stroke-width:1px;stroke-linecap:round;stroke-linejoin:round;stroke-opacity:1" d="m 340.50712,1914.8622 -14,0 -2,2.9999 14,0 z" id="path7196-7" inkscape:connector-curvature="0" sodipodi:nodetypes="ccccc"/>
      <path style="fill:none;fill-opacity:1;stroke:#0e7bff;stroke-width:0.99999994;stroke-linecap:round;stroke-linejoin:round;stroke-opacity:1" d="m 326.50655,1914.5442 0,-1.6951 c 0,-1.1007 0.89214,-1.9869 2.0003,-1.9869 1.10815,0 2.00028,0.8862 2.00028,1.9869 l 0,1.917" id="rect7198-0" inkscape:connector-curvature="0" sodipodi:nodetypes="csssc"/>
      <path sodipodi:nodetypes="csssc" inkscape:connector-curvature="0" id="path7203-0" d="m 324.50717,1918.3048 0,-2.4557 c 0,-1.1007 0.89214,-1.9869 2.0003,-1.9869 1.10815,0 2.00028,0.8862 2.00028,1.9869 l 0,1.8981" style="fill:none;fill-opacity:1;stroke:#0e7bff;stroke-width:0.99999994;stroke-linecap:round;stroke-linejoin:round;stroke-opacity:1"/>
      <path sodipodi:nodetypes="ccccc" inkscape:connector-curvature="0" id="path7961" d="m 338.50712,1917.8622 2,-3 0,2 -2,3 z" style="opacity:1;fill:#b2cdf8;fill-opacity:1;stroke:none;stroke-width:1;stroke-linecap:round;stroke-linejoin:round;stroke-opacity:1"/>
      <path style="opacity:1;fill:none;fill-opacity:1;stroke:#0e7bff;stroke-width:1;stroke-linecap:round;stroke-linejoin:round;stroke-opacity:1" d="m 338.50712,1917.8622 2,-3 0,2 -2,3 z" id="rect8402-9" inkscape:connector-curvature="0" sodipodi:nodetypes="ccccc"/>
      <path sodipodi:nodetypes="ccccc" inkscape:connector-curvature="0" id="path7959" d="m 340.50712,1914.8622 -14,0 -2,2.9999 14,0 z" style="fill:none;fill-opacity:1;fill-rule:evenodd;stroke:#0e7bff;stroke-width:1px;stroke-linecap:round;stroke-linejoin:round;stroke-opacity:1"/>
      <path id="path7935" d="m 353.99805,1933.8622 -0.7793,0.4023 c 0.081,0.056 0.17303,0.098 0.2793,0.098 0.27614,0 0.5,-0.2238 0.5,-0.5 z m -2.89649,1.4961 -1.94336,1.0039 2.34571,0 c 0.277,0 0.5,-0.223 0.5,-0.5 0,-0.277 -0.223,-0.5 -0.5,-0.5 l -0.38477,0 c -0.006,0 -0.0114,0 -0.0176,0 z" style="fill:#498ffd;fill-opacity:1;fill-rule:evenodd;stroke:none;stroke-width:0.99999994px;stroke-linecap:round;stroke-linejoin:round;stroke-opacity:1" inkscape:connector-curvature="0"/>
      <path id="path7940" d="m 339.47461,1941.3622 -2.24414,1.1582 c 0.0846,0.089 0.13867,0.2084 0.13867,0.3418 0,0.277 -0.223,0.5 -0.5,0.5 l -1,0 c -0.277,0 -0.5,0.223 -0.5,0.5 0,0.277 0.223,0.5 0.5,0.5 l 3.63477,0 c 0.277,0 0.5,-0.223 0.5,-0.5 0,-0.277 -0.223,-0.5 -0.5,-0.5 l -0.38477,0 c -0.277,0 -0.5,-0.223 -0.5,-0.5 0,-0.277 0.223,-0.5 0.5,-0.5 l 0.88477,0 c 0.277,0 0.5,-0.223 0.5,-0.5 0,-0.277 -0.223,-0.5 -0.5,-0.5 l -0.5293,0 z m 2.02344,0 c -0.27614,0 -0.5,0.2238 -0.5,0.5 0,0.2762 0.22386,0.5 0.5,0.5 0.27614,0 0.5,-0.2238 0.5,-0.5 0,-0.2762 -0.22386,-0.5 -0.5,-0.5 z m -6.53321,2.33 -0.87109,0.4473 c 0.0901,0.1313 0.23494,0.2227 0.40625,0.2227 0.27614,0 0.5,-0.2238 0.5,-0.5 0,-0.06 -0.0158,-0.1166 -0.0352,-0.17 z" style="fill:#498ffd;fill-opacity:1;fill-rule:evenodd;stroke:none;stroke-width:0.99999994px;stroke-linecap:round;stroke-linejoin:round;stroke-opacity:1" inkscape:connector-curvature="0"/>
    </g>
  </g>

	
	<metadata>
		<rdf:RDF xmlns:rdf="http://www.w3.org/1999/02/22-rdf-syntax-ns#" xmlns:rdfs="http://www.w3.org/2000/01/rdf-schema#" xmlns:dc="http://purl.org/dc/elements/1.1/">
			<rdf:Description about="https://iconscout.com/legal#licenses" dc:title="Mobile, Swim, Swimmingpool, Lader, Jump, Stand, Concept" dc:description="Mobile, Swim, Swimmingpool, Lader, Jump, Stand, Concept" dc:publisher="Iconscout" dc:date="2016-12-14" dc:format="image/svg+xml" dc:language="en">
				<dc:creator>
					<rdf:Bag>
						<rdf:li>Jemis Mali</rdf:li>
					</rdf:Bag>
				</dc:creator>
			</rdf:Description>
		</rdf:RDF>
    </metadata></svg>
