<?xml version="1.0" encoding="UTF-8" standalone="no"?>
<svg xmlns:dc="http://purl.org/dc/elements/1.1/" xmlns:cc="http://creativecommons.org/ns#" xmlns:rdf="http://www.w3.org/1999/02/22-rdf-syntax-ns#" xmlns:svg="http://www.w3.org/2000/svg" xmlns="http://www.w3.org/2000/svg" xmlns:sodipodi="http://sodipodi.sourceforge.net/DTD/sodipodi-0.dtd" xmlns:inkscape="http://www.inkscape.org/namespaces/inkscape" width="64" height="64" viewBox="0 0 64 64.000002" id="svg6959" version="1.1" inkscape:version="0.91 r13725" sodipodi:docname="11 mobile concept vr man sideview oculus virtual reality 1.svg">
  <defs id="defs6961">
    <clipPath id="clipPath4843-9-5-9-0" clipPathUnits="userSpaceOnUse">
      <rect style="color:#000000;clip-rule:nonzero;display:inline;overflow:visible;visibility:visible;opacity:1;isolation:auto;mix-blend-mode:normal;color-interpolation:sRGB;color-interpolation-filters:linearRGB;solid-color:#000000;solid-opacity:1;fill:#e9eded;fill-opacity:1;fill-rule:nonzero;stroke:#66124a;stroke-width:0.99999994;stroke-linecap:round;stroke-linejoin:round;stroke-miterlimit:0;stroke-dasharray:none;stroke-dashoffset:0;stroke-opacity:1;color-rendering:auto;image-rendering:auto;shape-rendering:auto;text-rendering:auto;enable-background:accumulate" id="rect4845-9-2-3-3" width="59.499996" height="59.499996" x="103.25" y="1110.8622" rx="29.749998" ry="29.749998" inkscape:export-xdpi="1999.9993" inkscape:export-ydpi="1999.9993"/>
    </clipPath>
  </defs>
  <sodipodi:namedview id="base" pagecolor="#ffffff" bordercolor="#666666" borderopacity="1.0" inkscape:pageopacity="0.0" inkscape:pageshadow="2" inkscape:zoom="2.8" inkscape:cx="6.3655861" inkscape:cy="-21.515532" inkscape:document-units="px" inkscape:current-layer="layer1" showgrid="true" units="px" inkscape:snap-bbox="true" inkscape:bbox-paths="true" inkscape:bbox-nodes="true" inkscape:snap-bbox-edge-midpoints="true" inkscape:snap-bbox-midpoints="true" inkscape:window-width="1366" inkscape:window-height="705" inkscape:window-x="-8" inkscape:window-y="-8" inkscape:window-maximized="1">
    <inkscape:grid type="xygrid" id="grid6967"/>
  </sodipodi:namedview>
  
  <g inkscape:label="Layer 1" inkscape:groupmode="layer" id="layer1" transform="translate(0,-988.3622)">
    <g transform="translate(-418.17449,-906.8112)" id="g8150">
      <path style="fill:#b2cdf8;fill-opacity:1;fill-rule:evenodd;stroke:none;stroke-width:0.99999994px;stroke-linecap:butt;stroke-linejoin:round;stroke-opacity:1" d="m 479.67646,1933.7641 0,3.4547 c 0,1.9138 -1.52991,3.4546 -3.43029,3.4546 l -52.14101,0 c -1.90038,0 -3.4588,-1.5411 -3.43029,-3.4546 l 0.0515,-3.4547" id="path8048" inkscape:connector-curvature="0" sodipodi:nodetypes="cssssc"/>
      <path style="fill:none;fill-opacity:1;fill-rule:evenodd;stroke:#0e7bff;stroke-width:0.99999994px;stroke-linecap:butt;stroke-linejoin:round;stroke-opacity:1" d="m 479.67646,1933.7641 0,3.4547 c 0,1.9138 -1.52991,3.4546 -3.43029,3.4546 l -52.14101,0 c -1.90038,0 -3.4588,-1.5411 -3.43029,-3.4546 l 0.0515,-3.4547" id="path8050" inkscape:connector-curvature="0" sodipodi:nodetypes="cssssc"/>
      <path style="fill:#f4f7f8;fill-opacity:1;stroke:none;stroke-width:0.99999994;stroke-linecap:butt;stroke-linejoin:miter;stroke-opacity:1" d="m 477.64478,1915.8 c 0,-1.5311 -1.22394,-2.7637 -2.74426,-2.7637 l -49.39673,0 c -1.52031,0 -2.74424,1.2326 -2.74424,2.7637 l -2.03103,17.9641 c 0,2.0728 1.13605,4.1456 3.78975,4.1456 l 25.16333,0 3.36885,0 22.42462,0 c 2.65561,0 4.20139,-2.0728 4.20139,-4.1456 z" id="path8052" inkscape:connector-curvature="0" sodipodi:nodetypes="cssccsccscc"/>
      <path sodipodi:nodetypes="cccc" inkscape:connector-curvature="0" id="path8054" d="m 470.5295,1913.2274 1.37213,21.9186 -43.81678,0 1.37213,-21.9186" style="fill:#b2cdf8;fill-opacity:1;fill-rule:evenodd;stroke:none;stroke-width:0.99999994px;stroke-linecap:round;stroke-linejoin:round;stroke-opacity:1"/>
      <path sodipodi:nodetypes="cccccccc" inkscape:connector-curvature="0" id="path8056" d="m 428.95596,1913.3284 -1.37109,22.318 44.31614,0 -0.15429,-1.9726 -40.97201,0 c -1.1,0 -1.03968,-0.9932 -1.03968,-0.9932 l 1.15806,-19.3522 z" style="fill:#6ca6fd;fill-opacity:1;fill-rule:evenodd;stroke:none;stroke-width:0.99999994px;stroke-linecap:round;stroke-linejoin:round;stroke-opacity:1"/>
      <path style="fill:none;fill-rule:evenodd;stroke:#0e7bff;stroke-width:0.99999994px;stroke-linecap:butt;stroke-linejoin:miter;stroke-opacity:1" d="m 425.70313,1922.0183 -0.41164,4.1456" id="path8058" inkscape:connector-curvature="0" sodipodi:nodetypes="cc"/>
      <ellipse style="fill:#0e7bff;fill-opacity:1;stroke:none;stroke-linecap:butt;stroke-linejoin:miter;stroke-opacity:1" id="ellipse8060" cx="425.02048" cy="1928.2366" rx="0.68606508" ry="0.69092786"/>
      <path inkscape:connector-curvature="0" style="fill:#dae7fc;fill-opacity:1;stroke:none;stroke-width:0.99999994;stroke-linecap:butt;stroke-linejoin:miter;stroke-opacity:1" d="m 475.02084,1913.0679 c 1.37717,0.1505 2.44727,1.3041 2.44727,2.7324 l 2.03125,17.9649 c 0,2.0728 -1.13732,4.1445 -3.79102,4.1445 l -25.16211,0 -3.36914,0 -22.42578,0 c -1.63243,0 -2.83573,-0.7868 -3.52344,-1.8731 0.33752,0.081 0.69246,0.1368 1.07813,0.1368 l 22.42382,0 3.36915,0 25.16406,0 c 2.6537,0 3.78906,-2.0737 3.78906,-4.1465 l -0.043,-0.3848 c 0.0227,-0.2034 0.043,-0.4078 0.043,-0.6133 l -2.03125,-17.9609 z" id="path8062"/>
      <path style="fill:#6ca6fd;fill-opacity:1;fill-rule:evenodd;stroke:none;stroke-width:0.99999994px;stroke-linecap:round;stroke-linejoin:round;stroke-opacity:1" d="m 470.5295,1913.2274 1.37213,21.9186 -43.81678,0" id="path8064" inkscape:connector-curvature="0" sodipodi:nodetypes="ccc"/>
      <path inkscape:connector-curvature="0" id="path8066" d="m 425.20612,1913.0679 c -1.37717,0.1505 -2.44727,1.3042 -2.44727,2.7325 l -2.03125,17.9648 c 0,2.0728 1.13732,4.1445 3.79102,4.1445 l 25.16211,0 3.36914,0 22.42578,0 c 1.63243,0 2.83573,-0.7868 3.52344,-1.873 -0.33752,0.081 -0.69246,0.1367 -1.07813,0.1367 l -22.42382,0 -3.36915,0 -25.16406,0 c -2.6537,0 -3.78906,-2.0737 -3.78906,-4.1465 0.004,-0.6639 0.0111,-0.7003 0,-0.998 z" style="fill:#dae7fc;fill-opacity:1;stroke:none;stroke-width:0.99999994;stroke-linecap:butt;stroke-linejoin:miter;stroke-opacity:1" sodipodi:nodetypes="cccsccscsccsccc"/>
      <path inkscape:connector-curvature="0" style="fill:#498ffd;fill-opacity:1;fill-rule:evenodd;stroke:none;stroke-width:0.99999994px;stroke-linecap:round;stroke-linejoin:round;stroke-opacity:1" d="m 430.93179,1933.6747 -2.84766,1.4707 43.77735,0 -0.11524,-1.4707 -40.81445,0 z" id="path8068"/>
      <path style="fill:none;fill-opacity:1;fill-rule:evenodd;stroke:#0e7bff;stroke-width:0.99999994px;stroke-linecap:round;stroke-linejoin:round;stroke-opacity:1" d="m 470.5295,1913.2274 1.37213,21.9186 -43.81678,0 1.37213,-21.9186" id="path8070" inkscape:connector-curvature="0" sodipodi:nodetypes="cccc"/>
      <path sodipodi:nodetypes="cssccsccscc" inkscape:connector-curvature="0" id="path8072" d="m 477.64478,1915.8 c 0,-1.5311 -1.22394,-2.7637 -2.74426,-2.7637 l -49.39673,0 c -1.52031,0 -2.74424,1.2326 -2.74424,2.7637 l -2.03103,17.9641 c 0,2.0728 1.13605,4.1456 3.78975,4.1456 l 25.16333,0 3.36885,0 22.42462,0 c 2.65561,0 4.20139,-2.0728 4.20139,-4.1456 z" style="fill:none;fill-opacity:1;stroke:#0e7bff;stroke-width:0.99999994;stroke-linecap:butt;stroke-linejoin:miter;stroke-opacity:1"/>
      <ellipse transform="matrix(0.99977687,0.02112381,0.14470033,0.98947553,0,0)" ry="1.3965536" rx="1.37669" cy="1941.8168" cx="193.75333" id="ellipse8308" style="fill:#b2cdf8;fill-opacity:1;stroke:none;stroke-width:1.00697327;stroke-linecap:butt;stroke-linejoin:miter;stroke-opacity:1"/>
      <path style="color:#000000;font-style:normal;font-variant:normal;font-weight:normal;font-stretch:normal;font-size:medium;line-height:normal;font-family:sans-serif;text-indent:0;text-align:start;text-decoration:none;text-decoration-line:none;text-decoration-style:solid;text-decoration-color:#000000;letter-spacing:normal;word-spacing:normal;text-transform:none;direction:ltr;block-progression:tb;writing-mode:lr-tb;baseline-shift:baseline;text-anchor:start;white-space:normal;clip-rule:nonzero;display:inline;overflow:visible;visibility:visible;opacity:1;isolation:auto;mix-blend-mode:normal;color-interpolation:sRGB;color-interpolation-filters:linearRGB;solid-color:#000000;solid-opacity:1;fill:#0e7bff;fill-opacity:1;fill-rule:nonzero;stroke:none;stroke-width:1.00697327;stroke-linecap:butt;stroke-linejoin:miter;stroke-miterlimit:4;stroke-dasharray:none;stroke-dashoffset:0;stroke-opacity:1;color-rendering:auto;image-rendering:auto;shape-rendering:auto;text-rendering:auto;enable-background:accumulate" d="m 474.41716,1923.5922 c -1.03615,-0.022 -1.7559,0.8121 -1.60545,1.8407 0.15046,1.0286 1.11933,1.8982 2.15543,1.9201 1.03609,0.022 1.75387,-0.8121 1.60349,-1.8407 -0.15037,-1.0285 -1.11732,-1.8982 -2.15347,-1.9201 z m 0.14583,0.9972 c 0.48419,0.01 0.92923,0.4039 1.00201,0.9017 0.0728,0.4978 -0.25952,0.875 -0.74369,0.8647 -0.48417,-0.01 -0.92919,-0.4038 -1.00201,-0.9016 -0.0728,-0.4978 0.25949,-0.875 0.74369,-0.8648 z" id="ellipse8074" inkscape:connector-curvature="0"/>
    </g>
  </g>

	
	<metadata>
		<rdf:RDF xmlns:rdf="http://www.w3.org/1999/02/22-rdf-syntax-ns#" xmlns:rdfs="http://www.w3.org/2000/01/rdf-schema#" xmlns:dc="http://purl.org/dc/elements/1.1/">
			<rdf:Description about="https://iconscout.com/legal#licenses" dc:title="Mobile, Concept, Sideview, Phone, Communication" dc:description="Mobile, Concept, Sideview, Phone, Communication" dc:publisher="Iconscout" dc:date="2016-12-14" dc:format="image/svg+xml" dc:language="en">
				<dc:creator>
					<rdf:Bag>
						<rdf:li>Jemis Mali</rdf:li>
					</rdf:Bag>
				</dc:creator>
			</rdf:Description>
		</rdf:RDF>
    </metadata></svg>
