<?xml version="1.0" encoding="UTF-8" standalone="no"?>
<svg xmlns:dc="http://purl.org/dc/elements/1.1/" xmlns:cc="http://creativecommons.org/ns#" xmlns:rdf="http://www.w3.org/1999/02/22-rdf-syntax-ns#" xmlns:svg="http://www.w3.org/2000/svg" xmlns="http://www.w3.org/2000/svg" xmlns:sodipodi="http://sodipodi.sourceforge.net/DTD/sodipodi-0.dtd" xmlns:inkscape="http://www.inkscape.org/namespaces/inkscape" width="64" height="64" viewBox="0 0 64 64.000002" id="svg6959" version="1.1" inkscape:version="0.91 r13725" sodipodi:docname="1 mobile concept page login signin popup user.svg">
  <defs id="defs6961"/>
  <sodipodi:namedview id="base" pagecolor="#ffffff" bordercolor="#666666" borderopacity="1.0" inkscape:pageopacity="0.0" inkscape:pageshadow="2" inkscape:zoom="5.6" inkscape:cx="9.9505491" inkscape:cy="15.048796" inkscape:document-units="px" inkscape:current-layer="layer1" showgrid="true" units="px" inkscape:snap-bbox="true" inkscape:bbox-paths="true" inkscape:bbox-nodes="true" inkscape:snap-bbox-edge-midpoints="true" inkscape:snap-bbox-midpoints="true" inkscape:window-width="1366" inkscape:window-height="705" inkscape:window-x="-8" inkscape:window-y="-8" inkscape:window-maximized="1">
    <inkscape:grid type="xygrid" id="grid6967"/>
  </sodipodi:namedview>
  
  <g inkscape:label="Layer 1" inkscape:groupmode="layer" id="layer1" transform="translate(0,-988.3622)">
    <g id="g11545" transform="translate(20.913553,-906.8112)">
      <path sodipodi:nodetypes="cssssc" inkscape:connector-curvature="0" id="path5536-7" d="m 40.58842,1945.7641 0,3.4547 c 0,1.9138 -1.52991,3.4546 -3.43029,3.4546 l -52.14101,0 c -1.90038,0 -3.4588,-1.5411 -3.43029,-3.4546 l 0.0515,-3.4547" style="fill:#b2cdf8;fill-opacity:1;fill-rule:evenodd;stroke:none;stroke-width:0.99999994px;stroke-linecap:butt;stroke-linejoin:round;stroke-opacity:1"/>
      <path sodipodi:nodetypes="cssssc" inkscape:connector-curvature="0" id="path5538-2" d="m 40.58842,1945.7641 0,3.4547 c 0,1.9138 -1.52991,3.4546 -3.43029,3.4546 l -52.14101,0 c -1.90038,0 -3.4588,-1.5411 -3.43029,-3.4546 l 0.0515,-3.4547" style="fill:none;fill-opacity:1;fill-rule:evenodd;stroke:#0e7bff;stroke-width:0.99999994px;stroke-linecap:butt;stroke-linejoin:round;stroke-opacity:1"/>
      <path sodipodi:nodetypes="cssccsccscc" inkscape:connector-curvature="0" id="path5540-0" d="m 38.55674,1927.8 c 0,-1.5311 -1.22394,-2.7637 -2.74426,-2.7637 l -49.39673,0 c -1.52031,0 -2.74424,1.2326 -2.74424,2.7637 l -2.03103,17.9641 c 0,2.0728 1.13605,4.1456 3.78975,4.1456 l 25.16333,0 3.36885,0 22.42462,0 c 2.65561,0 4.20139,-2.0728 4.20139,-4.1456 z" style="fill:#f4f7f8;fill-opacity:1;stroke:none;stroke-width:0.99999994;stroke-linecap:butt;stroke-linejoin:miter;stroke-opacity:1"/>
      <path style="fill:#b2cdf8;fill-opacity:1;fill-rule:evenodd;stroke:none;stroke-width:0.99999994px;stroke-linecap:round;stroke-linejoin:round;stroke-opacity:1" d="m 31.44146,1925.2274 1.37213,21.9186 -43.81678,0 1.37213,-21.9186" id="path5542-9" inkscape:connector-curvature="0" sodipodi:nodetypes="cccc"/>
      <path style="fill:#6ca6fd;fill-opacity:1;fill-rule:evenodd;stroke:none;stroke-width:0.99999994px;stroke-linecap:round;stroke-linejoin:round;stroke-opacity:1" d="m -10.13208,1925.3284 -1.37109,22.318 44.31614,0 -0.15429,-1.9726 -40.97201,0 c -1.1,0 -1.03968,-0.9932 -1.03968,-0.9932 l 1.15806,-19.3522 z" id="path5544-5" inkscape:connector-curvature="0" sodipodi:nodetypes="cccccccc"/>
      <path sodipodi:nodetypes="cc" inkscape:connector-curvature="0" id="path5546-0" d="m -13.38491,1934.0183 -0.41164,4.1456" style="fill:none;fill-rule:evenodd;stroke:#0e7bff;stroke-width:0.99999994px;stroke-linecap:butt;stroke-linejoin:miter;stroke-opacity:1"/>
      <ellipse ry="0.69092786" rx="0.68606508" cy="1940.2366" cx="-14.067574" id="ellipse5548-4" style="fill:#0e7bff;fill-opacity:1;stroke:none;stroke-linecap:butt;stroke-linejoin:miter;stroke-opacity:1"/>
      <path id="path5550-3" d="m 35.9328,1925.0679 c 1.37717,0.1505 2.44727,1.3041 2.44727,2.7324 l 2.03125,17.9649 c 0,2.0728 -1.13732,4.1445 -3.79102,4.1445 l -25.16211,0 -3.36914,0 -22.42578,0 c -1.63243,0 -2.83573,-0.7868 -3.52344,-1.8731 0.33752,0.081 0.69246,0.1368 1.07813,0.1368 l 22.42382,0 3.36915,0 25.16406,0 c 2.6537,0 3.78906,-2.0737 3.78906,-4.1465 l -0.043,-0.3848 c 0.0227,-0.2034 0.043,-0.4078 0.043,-0.6133 l -2.03125,-17.9609 z" style="fill:#dae7fc;fill-opacity:1;stroke:none;stroke-width:0.99999994;stroke-linecap:butt;stroke-linejoin:miter;stroke-opacity:1" inkscape:connector-curvature="0"/>
      <path sodipodi:nodetypes="ccc" inkscape:connector-curvature="0" id="path7357" d="m 31.44146,1925.2274 1.37213,21.9186 -43.81678,0" style="fill:#6ca6fd;fill-opacity:1;fill-rule:evenodd;stroke:none;stroke-width:0.99999994px;stroke-linecap:round;stroke-linejoin:round;stroke-opacity:1"/>
      <path sodipodi:nodetypes="cccsccscsccsccc" style="fill:#dae7fc;fill-opacity:1;stroke:none;stroke-width:0.99999994;stroke-linecap:butt;stroke-linejoin:miter;stroke-opacity:1" d="m -13.88192,1925.0679 c -1.37717,0.1505 -2.44727,1.3042 -2.44727,2.7325 l -2.03125,17.9648 c 0,2.0728 1.13732,4.1445 3.79102,4.1445 l 25.16211,0 3.36914,0 22.42578,0 c 1.63243,0 2.83573,-0.7868 3.52344,-1.873 -0.33752,0.081 -0.69246,0.1367 -1.07813,0.1367 l -22.42382,0 -3.36915,0 -25.16406,0 c -2.6537,0 -3.78906,-2.0737 -3.78906,-4.1465 0.0037,-0.6639 0.01108,-0.7003 0,-0.998 z" id="path5552-8" inkscape:connector-curvature="0"/>
      <path id="path7488" transform="translate(0,988.36216)" d="m -8.15625,957.3125 -2.847656,1.4707 43.777344,0 -0.115235,-1.4707 -40.814453,0 z" style="fill:#498ffd;fill-opacity:1;fill-rule:evenodd;stroke:none;stroke-width:0.99999994px;stroke-linecap:round;stroke-linejoin:round;stroke-opacity:1" inkscape:connector-curvature="0"/>
      <path sodipodi:nodetypes="cccc" inkscape:connector-curvature="0" id="path5554-4" d="m 31.44146,1925.2274 1.37213,21.9186 -43.81678,0 1.37213,-21.9186" style="fill:none;fill-opacity:1;fill-rule:evenodd;stroke:#0e7bff;stroke-width:0.99999994px;stroke-linecap:round;stroke-linejoin:round;stroke-opacity:1"/>
      <path style="fill:none;fill-opacity:1;stroke:#0e7bff;stroke-width:0.99999994;stroke-linecap:butt;stroke-linejoin:miter;stroke-opacity:1" d="m 38.55674,1927.8 c 0,-1.5311 -1.22394,-2.7637 -2.74426,-2.7637 l -49.39673,0 c -1.52031,0 -2.74424,1.2326 -2.74424,2.7637 l -2.03103,17.9641 c 0,2.0728 1.13605,4.1456 3.78975,4.1456 l 25.16333,0 3.36885,0 22.42462,0 c 2.65561,0 4.20139,-2.0728 4.20139,-4.1456 z" id="path5556-8" inkscape:connector-curvature="0" sodipodi:nodetypes="cssccsccscc"/>
      <rect ry="1.4999774" rx="1.4999774" style="fill:#b2cdf8;fill-opacity:1;stroke:none;stroke-width:0.99999994;stroke-linecap:round;stroke-linejoin:round;stroke-miterlimit:2.82352948;stroke-dasharray:none;stroke-opacity:1" id="rect5560-3" width="27" height="38" x="-2.4131701" y="1904.6733"/>
      <rect style="fill:#f4f7f8;fill-opacity:1;stroke:#0e7bff;stroke-width:1.00000012;stroke-miterlimit:4;stroke-dasharray:none;stroke-opacity:1" id="rect5562-3" width="14.981384" height="14.980804" x="3.605438" y="1910.6732" rx="7.4906921" ry="7.4904022"/>
      <path sodipodi:nodetypes="cccccsscccccc" inkscape:connector-curvature="0" id="path5564-1" d="m 24.58683,1941.6734 0,-35.9 -1.5,-1.1 0,2 0,32.5 0,0.5 c 0,0.831 -0.669,1.5 -1.5,1.5 l -0.5,0 -21.5,0 -2,0 0,1.5 25.7188,0 z" style="fill:#f4f7f8;fill-opacity:1;stroke:none;stroke-width:0.99999994;stroke-linecap:round;stroke-linejoin:round;stroke-miterlimit:2.82352948;stroke-dasharray:none;stroke-opacity:1"/>
      <path style="fill:#6ca6fd;fill-opacity:1;stroke:none;stroke-width:0.99999994;stroke-linecap:round;stroke-linejoin:round;stroke-miterlimit:2.82352948;stroke-dasharray:none;stroke-opacity:1" d="m -2.41317,1905.6734 0,35.9 1.5,1.1 0,-2 0,-32.5 0,-0.5 c 0,-0.831 0.66901,-1.5 1.5,-1.5 l 0.5,0 21.5,0 2,0 0,-1.5 -25.71875,0 z" id="path5566-7" inkscape:connector-curvature="0" sodipodi:nodetypes="cccccsscccccc"/>
      <rect style="fill:#6ca6fd;fill-opacity:1;stroke:none;stroke-width:1.00000012;stroke-miterlimit:4;stroke-dasharray:none;stroke-opacity:1" id="rect7480" width="5.9925537" height="5.9923215" x="8.0998611" y="1915.1675" rx="2.9962769" ry="2.9961607"/>
      <rect ry="2.9961607" rx="2.9962769" y="1915.1675" x="8.0998611" height="5.9923215" width="5.9925537" id="rect5568-2" style="fill:none;fill-opacity:1;stroke:#0e7bff;stroke-width:1.00000012;stroke-miterlimit:4;stroke-dasharray:none;stroke-opacity:1"/>
      <path id="path7482" d="m 10.7216,1921.1791 c -0.39747,0.024 -0.77082,0.079 -1.17042,0.1872 -1.43481,0.3845 -2.59109,1.299 -3.37081,2.4344 1.31524,1.147 3.02561,1.8726 4.91576,1.8726 1.89016,0 3.60052,-0.7256 4.91577,-1.8726 -1.17369,-1.7238 -3.1733,-2.7487 -5.2903,-2.6216 z" style="fill:#6ca6fd;fill-opacity:1;stroke:none;stroke-width:1px;stroke-linecap:butt;stroke-linejoin:miter;stroke-opacity:1" inkscape:connector-curvature="0"/>
      <path inkscape:connector-curvature="0" style="fill:none;fill-opacity:1;stroke:#0e7bff;stroke-width:1px;stroke-linecap:butt;stroke-linejoin:miter;stroke-opacity:1" d="m 10.7216,1921.1791 c -0.39747,0.024 -0.77082,0.079 -1.17042,0.1872 -1.43481,0.3845 -2.59109,1.299 -3.37081,2.4344 1.31524,1.147 3.02561,1.8726 4.91576,1.8726 1.89016,0 3.60052,-0.7256 4.91577,-1.8726 -1.17369,-1.7238 -3.1733,-2.7487 -5.2903,-2.6216 z" id="path5570-2"/>
      <rect style="fill:#6ca6fd;fill-opacity:1;stroke:none;stroke-width:1;stroke-linecap:square;stroke-linejoin:round;stroke-miterlimit:2.82352948;stroke-dasharray:none;stroke-opacity:1" id="rect5572-7" width="21" height="3" x="0.58683002" y="1928.6733" rx="0" ry="0"/>
      <rect ry="0" rx="0" y="1934.6733" x="0.58683002" height="3" width="21" id="rect5574-6" style="fill:#6ca6fd;fill-opacity:1;stroke:none;stroke-width:1;stroke-linecap:square;stroke-linejoin:round;stroke-miterlimit:2.82352948;stroke-dasharray:none;stroke-opacity:1"/>
      <rect y="1904.6733" x="-2.4131701" height="38" width="27" id="rect5576-1" style="fill:none;fill-opacity:1;stroke:#0e7bff;stroke-width:0.99999994;stroke-linecap:round;stroke-linejoin:round;stroke-miterlimit:2.82352948;stroke-dasharray:none;stroke-opacity:1" rx="1.4999774" ry="1.4999774"/>
      <circle style="fill:#b2cdf8;fill-opacity:1;stroke:none;stroke-width:1;stroke-linecap:round;stroke-linejoin:round;stroke-miterlimit:2.82352948;stroke-dasharray:none;stroke-opacity:1" id="circle5578-1" cx="24.586845" cy="1904.6733" r="2.9999888"/>
      <path style="fill:none;fill-rule:evenodd;stroke:#0e7bff;stroke-width:1px;stroke-linecap:square;stroke-linejoin:round;stroke-opacity:1" d="m 25.29396,1903.9663 -1.41422,1.4142" id="path5580-3" inkscape:connector-curvature="0"/>
      <path style="fill:#6ca6fd;fill-opacity:1;stroke:none;stroke-width:1;stroke-linecap:round;stroke-linejoin:round;stroke-miterlimit:2.82352948;stroke-dasharray:none;stroke-opacity:1" d="m 24.08683,1901.6734 a 2.9999888,2.9999888 0 0 0 -3,3 2.9999888,2.9999888 0 0 0 3,3 2.9999888,2.9999888 0 0 0 0.75586,-0.098 2.9999888,2.9999888 0 0 1 -2.25586,-2.9023 2.9999888,2.9999888 0 0 1 2.24414,-2.9024 2.9999888,2.9999888 0 0 0 -0.74414,-0.098 z" id="path5582-2" inkscape:connector-curvature="0"/>
      <path inkscape:connector-curvature="0" id="path5584-1" d="m 25.08669,1901.6734 a 2.9999888,2.9999888 0 0 1 3,3 2.9999888,2.9999888 0 0 1 -3,3 2.9999888,2.9999888 0 0 1 -0.75586,-0.098 2.9999888,2.9999888 0 0 0 2.25586,-2.9023 2.9999888,2.9999888 0 0 0 -2.24414,-2.9024 2.9999888,2.9999888 0 0 1 0.74414,-0.098 z" style="fill:#f4f7f8;fill-opacity:1;stroke:none;stroke-width:1;stroke-linecap:round;stroke-linejoin:round;stroke-miterlimit:2.82352948;stroke-dasharray:none;stroke-opacity:1"/>
      <path inkscape:connector-curvature="0" id="path5586-8" d="m 25.29396,1905.3805 -1.41422,-1.4142" style="fill:none;fill-rule:evenodd;stroke:#0e7bff;stroke-width:1px;stroke-linecap:square;stroke-linejoin:round;stroke-opacity:1"/>
      <path style="fill:none;fill-opacity:1;stroke:#0e7bff;stroke-width:1;stroke-linecap:round;stroke-linejoin:round;stroke-miterlimit:2.82352948;stroke-dasharray:none;stroke-opacity:1" id="path5588-0" sodipodi:type="arc" sodipodi:cx="11.096138" sodipodi:cy="1918.1636" sodipodi:rx="5.5" sodipodi:ry="5.5" sodipodi:start="4.9741884" sodipodi:end="6.0213859" d="m 12.519643,1912.851 a 5.5,5.5 0 0 1 3.889087,3.8891" sodipodi:open="true"/>
      <circle r="2.9999888" cy="1904.6733" cx="24.586845" id="circle5590-3" style="fill:none;fill-opacity:1;stroke:#0e7bff;stroke-width:1;stroke-linecap:round;stroke-linejoin:round;stroke-miterlimit:2.82352948;stroke-dasharray:none;stroke-opacity:1"/>
      <rect ry="0" rx="0" y="1928.6733" x="0.58683002" height="3" width="21" id="rect7484" style="fill:none;fill-opacity:1;stroke:#0e7bff;stroke-width:1;stroke-linecap:square;stroke-linejoin:round;stroke-miterlimit:2.82352948;stroke-dasharray:none;stroke-opacity:1"/>
      <rect style="fill:none;fill-opacity:1;stroke:#0e7bff;stroke-width:1;stroke-linecap:square;stroke-linejoin:round;stroke-miterlimit:2.82352948;stroke-dasharray:none;stroke-opacity:1" id="rect7486" width="21" height="3" x="0.58683002" y="1934.6733" rx="0" ry="0"/>
      <ellipse style="fill:#b2cdf8;fill-opacity:1;stroke:none;stroke-width:1.00697327;stroke-linecap:butt;stroke-linejoin:miter;stroke-opacity:1" id="ellipse8298" cx="-248.55463" cy="1963.387" rx="1.37669" ry="1.3965536" transform="matrix(0.99977687,0.02112381,0.14470033,0.98947553,0,0)"/>
      <path style="color:#000000;font-style:normal;font-variant:normal;font-weight:normal;font-stretch:normal;font-size:medium;line-height:normal;font-family:sans-serif;text-indent:0;text-align:start;text-decoration:none;text-decoration-line:none;text-decoration-style:solid;text-decoration-color:#000000;letter-spacing:normal;word-spacing:normal;text-transform:none;direction:ltr;block-progression:tb;writing-mode:lr-tb;baseline-shift:baseline;text-anchor:start;white-space:normal;clip-rule:nonzero;display:inline;overflow:visible;visibility:visible;opacity:1;isolation:auto;mix-blend-mode:normal;color-interpolation:sRGB;color-interpolation-filters:linearRGB;solid-color:#000000;solid-opacity:1;fill:#0e7bff;fill-opacity:1;fill-rule:nonzero;stroke:none;stroke-width:1.00697327;stroke-linecap:butt;stroke-linejoin:miter;stroke-miterlimit:4;stroke-dasharray:none;stroke-dashoffset:0;stroke-opacity:1;color-rendering:auto;image-rendering:auto;shape-rendering:auto;text-rendering:auto;enable-background:accumulate" d="m 35.328485,1935.5923 c -1.036149,-0.022 -1.755898,0.8121 -1.605452,1.8406 0.150456,1.0286 1.11933,1.8983 2.155429,1.9202 1.036099,0.022 1.755828,-0.8121 1.605452,-1.8407 -0.150376,-1.0286 -1.11928,-1.8982 -2.155429,-1.9201 z m 0.145829,0.9972 c 0.484202,0.01 0.929236,0.4038 1.002015,0.9016 0.07278,0.4978 -0.259524,0.875 -0.743696,0.8648 -0.484172,-0.01 -0.929196,-0.4039 -1.002005,-0.9017 -0.07282,-0.4978 0.259494,-0.875 0.743686,-0.8647 z" id="ellipse5558-8" inkscape:connector-curvature="0"/>
    </g>
  </g>

	
	<metadata>
		<rdf:RDF xmlns:rdf="http://www.w3.org/1999/02/22-rdf-syntax-ns#" xmlns:rdfs="http://www.w3.org/2000/01/rdf-schema#" xmlns:dc="http://purl.org/dc/elements/1.1/">
			<rdf:Description about="https://iconscout.com/legal#licenses" dc:title="Mobile, Concept, Page, Login, Signin, Popup, User" dc:description="Mobile, Concept, Page, Login, Signin, Popup, User" dc:publisher="Iconscout" dc:date="2016-12-14" dc:format="image/svg+xml" dc:language="en">
				<dc:creator>
					<rdf:Bag>
						<rdf:li>Jemis Mali</rdf:li>
					</rdf:Bag>
				</dc:creator>
			</rdf:Description>
		</rdf:RDF>
    </metadata></svg>
