<?xml version="1.0" encoding="UTF-8" standalone="no"?>
<svg xmlns:dc="http://purl.org/dc/elements/1.1/" xmlns:cc="http://creativecommons.org/ns#" xmlns:rdf="http://www.w3.org/1999/02/22-rdf-syntax-ns#" xmlns:svg="http://www.w3.org/2000/svg" xmlns="http://www.w3.org/2000/svg" xmlns:sodipodi="http://sodipodi.sourceforge.net/DTD/sodipodi-0.dtd" xmlns:inkscape="http://www.inkscape.org/namespaces/inkscape" width="64" height="64" viewBox="0 0 64 64.000002" id="svg6959" version="1.1" inkscape:version="0.91 r13725" sodipodi:docname="5 mobile cncept remote game play wireless playstation.svg">
  <defs id="defs6961"/>
  <sodipodi:namedview id="base" pagecolor="#ffffff" bordercolor="#666666" borderopacity="1.0" inkscape:pageopacity="0.0" inkscape:pageshadow="2" inkscape:zoom="2.8" inkscape:cx="-33.409686" inkscape:cy="37.227129" inkscape:document-units="px" inkscape:current-layer="layer1" showgrid="true" units="px" inkscape:snap-bbox="true" inkscape:bbox-paths="true" inkscape:bbox-nodes="true" inkscape:snap-bbox-edge-midpoints="true" inkscape:snap-bbox-midpoints="true" inkscape:window-width="1366" inkscape:window-height="705" inkscape:window-x="-8" inkscape:window-y="-8" inkscape:window-maximized="1">
    <inkscape:grid type="xygrid" id="grid6967"/>
  </sodipodi:namedview>
  
  <g inkscape:label="Layer 1" inkscape:groupmode="layer" id="layer1" transform="translate(0,-988.3622)">
    <g transform="translate(175.81224,-1151.7674)" id="g7913">
      <path sodipodi:nodetypes="sssss" style="color:#000000;font-style:normal;font-variant:normal;font-weight:normal;font-stretch:normal;font-size:medium;line-height:normal;font-family:sans-serif;text-indent:0;text-align:start;text-decoration:none;text-decoration-line:none;text-decoration-style:solid;text-decoration-color:#000000;letter-spacing:normal;word-spacing:normal;text-transform:none;direction:ltr;block-progression:tb;writing-mode:lr-tb;baseline-shift:baseline;text-anchor:start;white-space:normal;clip-rule:nonzero;display:inline;overflow:visible;visibility:visible;opacity:1;isolation:auto;mix-blend-mode:normal;color-interpolation:sRGB;color-interpolation-filters:linearRGB;solid-color:#000000;solid-opacity:1;fill:#6ca6fd;fill-opacity:1;fill-rule:nonzero;stroke:none;stroke-width:1;stroke-linecap:square;stroke-linejoin:round;stroke-miterlimit:34.17825699;stroke-dasharray:none;stroke-dashoffset:0;stroke-opacity:1;color-rendering:auto;image-rendering:auto;shape-rendering:auto;text-rendering:auto;enable-background:accumulate" d="m -131.2904,2150.432 c 0.38178,0 0.67677,0.295 0.67677,0.6768 0,0.3817 -0.29499,0.6768 -0.67677,0.6768 -0.38179,0 -0.67678,-0.2951 -0.67678,-0.6768 0,-0.3818 0.29499,-0.6768 0.67678,-0.6768 z" id="path7456" inkscape:connector-curvature="0"/>
      <g id="g11294" transform="translate(-154.89967,242.95615)">
        <path style="fill:#b2cdf8;fill-opacity:1;fill-rule:evenodd;stroke:none;stroke-width:0.99999994px;stroke-linecap:butt;stroke-linejoin:round;stroke-opacity:1" d="m 40.58842,1945.7641 0,3.4547 c 0,1.9138 -1.52991,3.4546 -3.43029,3.4546 l -52.14101,0 c -1.90038,0 -3.4588,-1.5411 -3.43029,-3.4546 l 0.0515,-3.4547" id="path11296" inkscape:connector-curvature="0" sodipodi:nodetypes="cssssc"/>
        <path style="fill:none;fill-opacity:1;fill-rule:evenodd;stroke:#0e7bff;stroke-width:0.99999994px;stroke-linecap:butt;stroke-linejoin:round;stroke-opacity:1" d="m 40.58842,1945.7641 0,3.4547 c 0,1.9138 -1.52991,3.4546 -3.43029,3.4546 l -52.14101,0 c -1.90038,0 -3.4588,-1.5411 -3.43029,-3.4546 l 0.0515,-3.4547" id="path11298" inkscape:connector-curvature="0" sodipodi:nodetypes="cssssc"/>
        <path style="fill:#f4f7f8;fill-opacity:1;stroke:none;stroke-width:0.99999994;stroke-linecap:butt;stroke-linejoin:miter;stroke-opacity:1" d="m 38.55674,1927.8 c 0,-1.5311 -1.22394,-2.7637 -2.74426,-2.7637 l -49.39673,0 c -1.52031,0 -2.74424,1.2326 -2.74424,2.7637 l -2.03103,17.9641 c 0,2.0728 1.13605,4.1456 3.78975,4.1456 l 25.16333,0 3.36885,0 22.42462,0 c 2.65561,0 4.20139,-2.0728 4.20139,-4.1456 z" id="path11300" inkscape:connector-curvature="0" sodipodi:nodetypes="cssccsccscc"/>
        <path sodipodi:nodetypes="cccc" inkscape:connector-curvature="0" id="path11302" d="m 31.44146,1925.2274 1.37213,21.9186 -43.81678,0 1.37213,-21.9186" style="fill:#b2cdf8;fill-opacity:1;fill-rule:evenodd;stroke:none;stroke-width:0.99999994px;stroke-linecap:round;stroke-linejoin:round;stroke-opacity:1"/>
        <path sodipodi:nodetypes="cccccccc" inkscape:connector-curvature="0" id="path11304" d="m -10.13208,1925.3284 -1.37109,22.318 44.31614,0 -0.15429,-1.9726 -40.97201,0 c -1.1,0 -1.03968,-0.9932 -1.03968,-0.9932 l 1.15806,-19.3522 z" style="fill:#6ca6fd;fill-opacity:1;fill-rule:evenodd;stroke:none;stroke-width:0.99999994px;stroke-linecap:round;stroke-linejoin:round;stroke-opacity:1"/>
        <path style="fill:none;fill-rule:evenodd;stroke:#0e7bff;stroke-width:0.99999994px;stroke-linecap:butt;stroke-linejoin:miter;stroke-opacity:1" d="m -13.38491,1934.0183 -0.41164,4.1456" id="path11306" inkscape:connector-curvature="0" sodipodi:nodetypes="cc"/>
        <ellipse style="fill:#0e7bff;fill-opacity:1;stroke:none;stroke-linecap:butt;stroke-linejoin:miter;stroke-opacity:1" id="ellipse11308" cx="-14.067574" cy="1940.2366" rx="0.68606508" ry="0.69092786"/>
        <path inkscape:connector-curvature="0" style="fill:#dae7fc;fill-opacity:1;stroke:none;stroke-width:0.99999994;stroke-linecap:butt;stroke-linejoin:miter;stroke-opacity:1" d="m 35.9328,1925.0679 c 1.37717,0.1505 2.44727,1.3041 2.44727,2.7324 l 2.03125,17.9649 c 0,2.0728 -1.13732,4.1445 -3.79102,4.1445 l -25.16211,0 -3.36914,0 -22.42578,0 c -1.63243,0 -2.83573,-0.7868 -3.52344,-1.8731 0.33752,0.081 0.69246,0.1368 1.07813,0.1368 l 22.42382,0 3.36915,0 25.16406,0 c 2.6537,0 3.78906,-2.0737 3.78906,-4.1465 l -0.043,-0.3848 c 0.0227,-0.2034 0.043,-0.4078 0.043,-0.6133 l -2.03125,-17.9609 z" id="path11310"/>
        <path style="fill:#6ca6fd;fill-opacity:1;fill-rule:evenodd;stroke:none;stroke-width:0.99999994px;stroke-linecap:round;stroke-linejoin:round;stroke-opacity:1" d="m 31.44146,1925.2274 1.37213,21.9186 -43.81678,0" id="path11312" inkscape:connector-curvature="0" sodipodi:nodetypes="ccc"/>
        <path inkscape:connector-curvature="0" id="path11314" d="m -13.88192,1925.0679 c -1.37717,0.1505 -2.44727,1.3042 -2.44727,2.7325 l -2.03125,17.9648 c 0,2.0728 1.13732,4.1445 3.79102,4.1445 l 25.16211,0 3.36914,0 22.42578,0 c 1.63243,0 2.83573,-0.7868 3.52344,-1.873 -0.33752,0.081 -0.69246,0.1367 -1.07813,0.1367 l -22.42382,0 -3.36915,0 -25.16406,0 c -2.6537,0 -3.78906,-2.0737 -3.78906,-4.1465 0.0037,-0.6639 0.01108,-0.7003 0,-0.998 z" style="fill:#dae7fc;fill-opacity:1;stroke:none;stroke-width:0.99999994;stroke-linecap:butt;stroke-linejoin:miter;stroke-opacity:1" sodipodi:nodetypes="cccsccscsccsccc"/>
        <path style="fill:#498ffd;fill-opacity:1;fill-rule:evenodd;stroke:none;stroke-width:0.99999994px;stroke-linecap:round;stroke-linejoin:round;stroke-opacity:1" d="m -8.15625,957.3125 -2.847656,1.4707 43.777344,0 -0.115235,-1.4707 -40.814453,0 z" transform="translate(0,988.36216)" id="path11316" inkscape:connector-curvature="0"/>
        <path style="fill:none;fill-opacity:1;fill-rule:evenodd;stroke:#0e7bff;stroke-width:0.99999994px;stroke-linecap:round;stroke-linejoin:round;stroke-opacity:1" d="m 31.44146,1925.2274 1.37213,21.9186 -43.81678,0 1.37213,-21.9186" id="path11318" inkscape:connector-curvature="0" sodipodi:nodetypes="cccc"/>
        <path sodipodi:nodetypes="cssccsccscc" inkscape:connector-curvature="0" id="path11320" d="m 38.55674,1927.8 c 0,-1.5311 -1.22394,-2.7637 -2.74426,-2.7637 l -49.39673,0 c -1.52031,0 -2.74424,1.2326 -2.74424,2.7637 l -2.03103,17.9641 c 0,2.0728 1.13605,4.1456 3.78975,4.1456 l 25.16333,0 3.36885,0 22.42462,0 c 2.65561,0 4.20139,-2.0728 4.20139,-4.1456 z" style="fill:none;fill-opacity:1;stroke:#0e7bff;stroke-width:0.99999994;stroke-linecap:butt;stroke-linejoin:miter;stroke-opacity:1"/>
        <ellipse transform="matrix(0.99977687,0.02112381,0.14470033,0.98947553,0,0)" ry="1.3965536" rx="1.37669" cy="1963.387" cx="-248.55463" id="ellipse8284" style="fill:#b2cdf8;fill-opacity:1;stroke:none;stroke-width:1.00697327;stroke-linecap:butt;stroke-linejoin:miter;stroke-opacity:1"/>
        <path inkscape:connector-curvature="0" id="ellipse11322" d="m 35.328485,1935.5923 c -1.036149,-0.022 -1.755898,0.8121 -1.605452,1.8406 0.150456,1.0286 1.11933,1.8983 2.155429,1.9202 1.036099,0.022 1.755828,-0.8121 1.605452,-1.8407 -0.150376,-1.0286 -1.11928,-1.8982 -2.155429,-1.9201 z m 0.145829,0.9972 c 0.484202,0.01 0.929236,0.4038 1.002015,0.9016 0.07278,0.4978 -0.259524,0.875 -0.743696,0.8648 -0.484172,-0.01 -0.929196,-0.4039 -1.002005,-0.9017 -0.07282,-0.4978 0.259494,-0.875 0.743686,-0.8647 z" style="color:#000000;font-style:normal;font-variant:normal;font-weight:normal;font-stretch:normal;font-size:medium;line-height:normal;font-family:sans-serif;text-indent:0;text-align:start;text-decoration:none;text-decoration-line:none;text-decoration-style:solid;text-decoration-color:#000000;letter-spacing:normal;word-spacing:normal;text-transform:none;direction:ltr;block-progression:tb;writing-mode:lr-tb;baseline-shift:baseline;text-anchor:start;white-space:normal;clip-rule:nonzero;display:inline;overflow:visible;visibility:visible;opacity:1;isolation:auto;mix-blend-mode:normal;color-interpolation:sRGB;color-interpolation-filters:linearRGB;solid-color:#000000;solid-opacity:1;fill:#0e7bff;fill-opacity:1;fill-rule:nonzero;stroke:none;stroke-width:1.00697327;stroke-linecap:butt;stroke-linejoin:miter;stroke-miterlimit:4;stroke-dasharray:none;stroke-dashoffset:0;stroke-opacity:1;color-rendering:auto;image-rendering:auto;shape-rendering:auto;text-rendering:auto;enable-background:accumulate"/>
      </g>
      <path id="path5347-8-6-5" d="m -152.4897,2159.4568 a 6.2430084,6.2440518 0 0 0 -6.243,6.2441 6.2430084,6.2440518 0 0 0 0.82915,3.0901 l -1.29063,6.1428 c -0.51891,1.9765 0.73638,4.1906 2.82324,4.5985 1.96853,0.4618 3.90366,-0.7318 4.44402,-2.7899 l 1.43319,-4.5068 a 2.8813882,2.8818698 0 0 0 1.84589,0.67 2.8813882,2.8818698 0 0 0 2.14415,-0.9607 l 4.74229,0 a 2.8813967,2.8818783 0 0 0 2.14228,0.9607 2.8813967,2.8818783 0 0 0 2.14416,-0.9607 l 0.25137,0 1.52511,4.7975 c 0.54036,2.0581 2.47736,3.2517 4.44589,2.7899 2.08687,-0.4079 3.34027,-2.622 2.82136,-4.5985 l -1.30563,-6.2142 a 6.2430084,6.2440518 0 0 0 0.7785,-3.0187 6.2430084,6.2440518 0 0 0 -6.24301,-6.2441 6.2430084,6.2440518 0 0 0 -3.32034,0.9607 l -10.65326,0 a 6.2430084,6.2440518 0 0 0 -3.31473,-0.9607 z" style="color:#000000;clip-rule:nonzero;display:inline;overflow:visible;visibility:visible;opacity:1;isolation:auto;mix-blend-mode:normal;color-interpolation:sRGB;color-interpolation-filters:linearRGB;solid-color:#000000;solid-opacity:1;fill:#dae7fc;fill-opacity:1;fill-rule:nonzero;stroke:none;stroke-width:1;stroke-linecap:round;stroke-linejoin:round;stroke-miterlimit:4;stroke-dasharray:none;stroke-dashoffset:0;stroke-opacity:1;color-rendering:auto;image-rendering:auto;shape-rendering:auto;text-rendering:auto;enable-background:accumulate" inkscape:connector-curvature="0"/>
      <path inkscape:connector-curvature="0" id="path5349-1-6-9" d="m -152.49805,2161.8379 a 0.50004997,0.50004997 0 0 0 -0.49218,0.5078 l 0,4.832 a 0.50004997,0.50004997 0 1 0 1,0 l 0,-4.832 a 0.50004997,0.50004997 0 0 0 -0.50782,-0.5078 z" style="color:#000000;font-style:normal;font-variant:normal;font-weight:normal;font-stretch:normal;font-size:medium;line-height:normal;font-family:sans-serif;text-indent:0;text-align:start;text-decoration:none;text-decoration-line:none;text-decoration-style:solid;text-decoration-color:#000000;letter-spacing:normal;word-spacing:normal;text-transform:none;direction:ltr;block-progression:tb;writing-mode:lr-tb;baseline-shift:baseline;text-anchor:start;white-space:normal;clip-rule:nonzero;display:inline;overflow:visible;visibility:visible;opacity:1;isolation:auto;mix-blend-mode:normal;color-interpolation:sRGB;color-interpolation-filters:linearRGB;solid-color:#000000;solid-opacity:1;fill:#0e7bff;fill-opacity:1;fill-rule:evenodd;stroke:none;stroke-width:0.99999994;stroke-linecap:round;stroke-linejoin:round;stroke-miterlimit:4;stroke-dasharray:none;stroke-dashoffset:0;stroke-opacity:1;color-rendering:auto;image-rendering:auto;shape-rendering:auto;text-rendering:auto;enable-background:accumulate"/>
      <path inkscape:connector-curvature="0" id="path5351-0-8-8" d="m -154.88477,2164.2617 a 0.50004997,0.50004997 0 1 0 0,1 l 4.78907,0 a 0.50004997,0.50004997 0 1 0 0,-1 l -4.78907,0 z" style="color:#000000;font-style:normal;font-variant:normal;font-weight:normal;font-stretch:normal;font-size:medium;line-height:normal;font-family:sans-serif;text-indent:0;text-align:start;text-decoration:none;text-decoration-line:none;text-decoration-style:solid;text-decoration-color:#000000;letter-spacing:normal;word-spacing:normal;text-transform:none;direction:ltr;block-progression:tb;writing-mode:lr-tb;baseline-shift:baseline;text-anchor:start;white-space:normal;clip-rule:nonzero;display:inline;overflow:visible;visibility:visible;opacity:1;isolation:auto;mix-blend-mode:normal;color-interpolation:sRGB;color-interpolation-filters:linearRGB;solid-color:#000000;solid-opacity:1;fill:#0e7bff;fill-opacity:1;fill-rule:evenodd;stroke:none;stroke-width:0.99999994;stroke-linecap:round;stroke-linejoin:round;stroke-miterlimit:4;stroke-dasharray:none;stroke-dashoffset:0;stroke-opacity:1;color-rendering:auto;image-rendering:auto;shape-rendering:auto;text-rendering:auto;enable-background:accumulate"/>
      <ellipse ry="0.9709391" rx="0.96343595" style="color:#000000;clip-rule:nonzero;display:inline;overflow:visible;visibility:visible;opacity:1;isolation:auto;mix-blend-mode:normal;color-interpolation:sRGB;color-interpolation-filters:linearRGB;solid-color:#000000;solid-opacity:1;fill:#b2cdf8;fill-opacity:1;fill-rule:nonzero;stroke:none;stroke-width:1;stroke-linecap:round;stroke-linejoin:round;stroke-miterlimit:4;stroke-dasharray:none;stroke-dashoffset:0;stroke-opacity:1;color-rendering:auto;image-rendering:auto;shape-rendering:auto;text-rendering:auto;enable-background:accumulate" id="ellipse5353-5-7" cx="-135.20134" cy="2162.3491"/>
      <ellipse ry="0.9709391" rx="0.96343595" cy="2164.7693" cx="-132.80315" id="ellipse5355-5-1" style="color:#000000;clip-rule:nonzero;display:inline;overflow:visible;visibility:visible;opacity:1;isolation:auto;mix-blend-mode:normal;color-interpolation:sRGB;color-interpolation-filters:linearRGB;solid-color:#000000;solid-opacity:1;fill:#498ffd;fill-opacity:1;fill-rule:nonzero;stroke:none;stroke-width:1;stroke-linecap:round;stroke-linejoin:round;stroke-miterlimit:4;stroke-dasharray:none;stroke-dashoffset:0;stroke-opacity:1;color-rendering:auto;image-rendering:auto;shape-rendering:auto;text-rendering:auto;enable-background:accumulate"/>
      <ellipse ry="0.9709391" rx="0.96343595" style="color:#000000;clip-rule:nonzero;display:inline;overflow:visible;visibility:visible;opacity:1;isolation:auto;mix-blend-mode:normal;color-interpolation:sRGB;color-interpolation-filters:linearRGB;solid-color:#000000;solid-opacity:1;fill:#6ca6fd;fill-opacity:1;fill-rule:nonzero;stroke:none;stroke-width:1;stroke-linecap:round;stroke-linejoin:round;stroke-miterlimit:4;stroke-dasharray:none;stroke-dashoffset:0;stroke-opacity:1;color-rendering:auto;image-rendering:auto;shape-rendering:auto;text-rendering:auto;enable-background:accumulate" id="ellipse5357-9-6" cx="-135.20134" cy="2167.1887"/>
      <ellipse ry="0.9709391" rx="0.96343595" cy="2164.769" cx="-137.59952" id="ellipse5359-8-5" style="color:#000000;clip-rule:nonzero;display:inline;overflow:visible;visibility:visible;opacity:1;isolation:auto;mix-blend-mode:normal;color-interpolation:sRGB;color-interpolation-filters:linearRGB;solid-color:#000000;solid-opacity:1;fill:#b2cdf8;fill-opacity:1;fill-rule:nonzero;stroke:none;stroke-width:1;stroke-linecap:round;stroke-linejoin:round;stroke-miterlimit:4;stroke-dasharray:none;stroke-dashoffset:0;stroke-opacity:1;color-rendering:auto;image-rendering:auto;shape-rendering:auto;text-rendering:auto;enable-background:accumulate"/>
      <ellipse ry="1.4409349" rx="1.4406941" cy="2169.5432" cx="-148.64784" id="ellipse5361-4-0" style="color:#000000;clip-rule:nonzero;display:inline;overflow:visible;visibility:visible;opacity:1;isolation:auto;mix-blend-mode:normal;color-interpolation:sRGB;color-interpolation-filters:linearRGB;solid-color:#000000;solid-opacity:1;fill:#6ca6fd;fill-opacity:1;fill-rule:nonzero;stroke:none;stroke-width:1;stroke-linecap:round;stroke-linejoin:round;stroke-miterlimit:4;stroke-dasharray:none;stroke-dashoffset:0;stroke-opacity:1;color-rendering:auto;image-rendering:auto;shape-rendering:auto;text-rendering:auto;enable-background:accumulate"/>
      <ellipse ry="1.4409349" rx="1.4406941" style="color:#000000;clip-rule:nonzero;display:inline;overflow:visible;visibility:visible;opacity:1;isolation:auto;mix-blend-mode:normal;color-interpolation:sRGB;color-interpolation-filters:linearRGB;solid-color:#000000;solid-opacity:1;fill:#6ca6fd;fill-opacity:1;fill-rule:nonzero;stroke:none;stroke-width:1;stroke-linecap:round;stroke-linejoin:round;stroke-miterlimit:4;stroke-dasharray:none;stroke-dashoffset:0;stroke-opacity:1;color-rendering:auto;image-rendering:auto;shape-rendering:auto;text-rendering:auto;enable-background:accumulate" id="ellipse5363-0-8" cx="-139.52345" cy="2169.5432"/>
      <path inkscape:connector-curvature="0" id="path5365-9-0-7" d="m -145.76562,2165.6816 a 0.50005,0.50005 0 1 0 0,1 l 0.95898,0 a 0.50005,0.50005 0 1 0 0,-1 l -0.95898,0 z" style="color:#000000;font-style:normal;font-variant:normal;font-weight:normal;font-stretch:normal;font-size:medium;line-height:normal;font-family:sans-serif;text-indent:0;text-align:start;text-decoration:none;text-decoration-line:none;text-decoration-style:solid;text-decoration-color:#000000;letter-spacing:normal;word-spacing:normal;text-transform:none;direction:ltr;block-progression:tb;writing-mode:lr-tb;baseline-shift:baseline;text-anchor:start;white-space:normal;clip-rule:nonzero;display:inline;overflow:visible;visibility:visible;opacity:1;isolation:auto;mix-blend-mode:normal;color-interpolation:sRGB;color-interpolation-filters:linearRGB;solid-color:#000000;solid-opacity:1;fill:#0e7bff;fill-opacity:1;fill-rule:evenodd;stroke:none;stroke-width:1px;stroke-linecap:round;stroke-linejoin:round;stroke-miterlimit:4;stroke-dasharray:none;stroke-dashoffset:0;stroke-opacity:1;color-rendering:auto;image-rendering:auto;shape-rendering:auto;text-rendering:auto;enable-background:accumulate"/>
      <path sodipodi:nodetypes="cccccccccccccccccccccccccccccccccccc" inkscape:connector-curvature="0" id="path7450" transform="translate(0,988.36216)" d="m -152.49023,1171.5626 c -0.2567,0 -0.51305,0.019 -0.76758,0.053 0.91725,0.1079 1.79912,0.4181 2.58203,0.9082 l 1.5,0 c -0.9926,-0.6255 -2.14131,-0.9585 -3.31445,-0.9609 z m 17.28906,-0.4688 c -0.25214,0 -0.5039,0.02 -0.75391,0.053 3.13339,0.3776 5.49216,3.0348 5.4961,6.1914 3.5e-4,1.0561 -0.2671,2.0949 -0.77735,3.0195 l 1.30469,6.2149 c 0.51891,1.9765 -0.73344,4.1897 -2.82031,4.5976 -0.0288,0.01 -0.0572,0.01 -0.0859,0.012 0.50829,0.1071 1.04446,0.1153 1.58594,-0.012 2.08687,-0.4079 3.33922,-2.6211 2.82031,-4.5976 l -1.30469,-6.2149 c 0.51025,-0.9246 0.7777,-1.9634 0.77735,-3.0195 3e-5,-3.4482 -2.79457,-6.2436 -6.24219,-6.2441 z m -12.80274,12.1125 c -0.37218,0.4147 -0.85657,0.7126 -1.39453,0.8575 0.24436,0.067 0.49654,0.1022 0.75,0.1035 0.8189,-9e-4 1.5987,-0.3504 2.14453,-0.961 z m 9.46477,0 c -0.37271,0.415 -0.85782,0.7129 -1.39648,0.8575 0.24499,0.068 0.49783,0.1023 0.75195,0.1035 0.38812,-7e-4 1.34662,-0.058 1.70343,-0.2104 l -0.23243,-0.7285 z m -13.12354,-0.3708 -1.76505,5.5465 c -0.39169,1.4918 -1.51853,2.5186 -2.85743,2.8007 1.93848,0.4075 3.82497,-0.7728 4.35743,-2.8007 l 1.56778,-4.9293 c -0.47952,-0.092 -0.92779,-0.3044 -1.30273,-0.6172 z" style="color:#000000;clip-rule:nonzero;display:inline;overflow:visible;visibility:visible;opacity:1;isolation:auto;mix-blend-mode:normal;color-interpolation:sRGB;color-interpolation-filters:linearRGB;solid-color:#000000;solid-opacity:1;fill:#b2cdf8;fill-opacity:1;fill-rule:nonzero;stroke:none;stroke-width:1;stroke-linecap:round;stroke-linejoin:round;stroke-miterlimit:4;stroke-dasharray:none;stroke-dashoffset:0;stroke-opacity:1;color-rendering:auto;image-rendering:auto;shape-rendering:auto;text-rendering:auto;enable-background:accumulate"/>
      <path inkscape:connector-curvature="0" id="path5367-7-2" d="m -142.88477,2165.6816 a 0.50005,0.50005 0 1 0 0,1 l 0.96094,0 a 0.50005,0.50005 0 1 0 0,-1 l -0.96094,0 z" style="color:#000000;font-style:normal;font-variant:normal;font-weight:normal;font-stretch:normal;font-size:medium;line-height:normal;font-family:sans-serif;text-indent:0;text-align:start;text-decoration:none;text-decoration-line:none;text-decoration-style:solid;text-decoration-color:#000000;letter-spacing:normal;word-spacing:normal;text-transform:none;direction:ltr;block-progression:tb;writing-mode:lr-tb;baseline-shift:baseline;text-anchor:start;white-space:normal;clip-rule:nonzero;display:inline;overflow:visible;visibility:visible;opacity:1;isolation:auto;mix-blend-mode:normal;color-interpolation:sRGB;color-interpolation-filters:linearRGB;solid-color:#000000;solid-opacity:1;fill:#0e7bff;fill-opacity:1;fill-rule:evenodd;stroke:none;stroke-width:1px;stroke-linecap:round;stroke-linejoin:round;stroke-miterlimit:4;stroke-dasharray:none;stroke-dashoffset:0;stroke-opacity:1;color-rendering:auto;image-rendering:auto;shape-rendering:auto;text-rendering:auto;enable-background:accumulate"/>
      <g id="g5369-4-2" transform="matrix(1.0214169,0,0,1.0215532,-97.842589,965.85371)">
        <path inkscape:connector-curvature="0" id="path5371-9-9-6" d="m -45.005859,1166.373 c -0.602629,0 -1.204656,0.1554 -1.744141,0.4668 a 0.48953236,0.48953236 0 1 0 0.488281,0.8477 c 0.777436,-0.4489 1.734283,-0.4489 2.511719,0 a 0.48953236,0.48953236 0 1 0 0.488281,-0.8477 c -0.539485,-0.3114 -1.141512,-0.4668 -1.74414,-0.4668 z" style="color:#000000;font-style:normal;font-variant:normal;font-weight:normal;font-stretch:normal;font-size:medium;line-height:normal;font-family:sans-serif;text-indent:0;text-align:start;text-decoration:none;text-decoration-line:none;text-decoration-style:solid;text-decoration-color:#000000;letter-spacing:normal;word-spacing:normal;text-transform:none;direction:ltr;block-progression:tb;writing-mode:lr-tb;baseline-shift:baseline;text-anchor:start;white-space:normal;clip-rule:nonzero;display:inline;overflow:visible;visibility:visible;opacity:1;isolation:auto;mix-blend-mode:normal;color-interpolation:sRGB;color-interpolation-filters:linearRGB;solid-color:#000000;solid-opacity:1;fill:#0e7bff;fill-opacity:1;fill-rule:nonzero;stroke:none;stroke-width:0.97896683;stroke-linecap:round;stroke-linejoin:round;stroke-miterlimit:4;stroke-dasharray:none;stroke-dashoffset:0;stroke-opacity:1;color-rendering:auto;image-rendering:auto;shape-rendering:auto;text-rendering:auto;enable-background:accumulate"/>
        <path inkscape:connector-curvature="0" id="path5373-3-6-9" d="m -45.005859,1164.373 c -0.947928,0 -1.895255,0.2443 -2.744141,0.7344 a 0.48953236,0.48953236 0 1 0 0.488281,0.8477 c 1.396239,-0.8061 3.115481,-0.8061 4.511719,0 a 0.48953236,0.48953236 0 1 0 0.488281,-0.8477 c -0.848886,-0.4901 -1.796213,-0.7344 -2.74414,-0.7344 z" style="color:#000000;font-style:normal;font-variant:normal;font-weight:normal;font-stretch:normal;font-size:medium;line-height:normal;font-family:sans-serif;text-indent:0;text-align:start;text-decoration:none;text-decoration-line:none;text-decoration-style:solid;text-decoration-color:#000000;letter-spacing:normal;word-spacing:normal;text-transform:none;direction:ltr;block-progression:tb;writing-mode:lr-tb;baseline-shift:baseline;text-anchor:start;white-space:normal;clip-rule:nonzero;display:inline;overflow:visible;visibility:visible;opacity:1;isolation:auto;mix-blend-mode:normal;color-interpolation:sRGB;color-interpolation-filters:linearRGB;solid-color:#000000;solid-opacity:1;fill:#0e7bff;fill-opacity:1;fill-rule:nonzero;stroke:none;stroke-width:0.97896683;stroke-linecap:round;stroke-linejoin:round;stroke-miterlimit:4;stroke-dasharray:none;stroke-dashoffset:0;stroke-opacity:1;color-rendering:auto;image-rendering:auto;shape-rendering:auto;text-rendering:auto;enable-background:accumulate"/>
        <path inkscape:connector-curvature="0" id="path5375-2-3-7" d="m -45.005859,1162.373 c -1.293228,0 -2.585854,0.3333 -3.744141,1.002 a 0.4899588,0.4899588 0 1 0 0.488281,0.8496 c 2.015041,-1.1634 4.496679,-1.1634 6.511719,0 a 0.4899588,0.4899588 0 1 0 0.488281,-0.8496 c -1.158287,-0.6687 -2.450913,-1.002 -3.74414,-1.002 z" style="color:#000000;font-style:normal;font-variant:normal;font-weight:normal;font-stretch:normal;font-size:medium;line-height:normal;font-family:sans-serif;text-indent:0;text-align:start;text-decoration:none;text-decoration-line:none;text-decoration-style:solid;text-decoration-color:#000000;letter-spacing:normal;word-spacing:normal;text-transform:none;direction:ltr;block-progression:tb;writing-mode:lr-tb;baseline-shift:baseline;text-anchor:start;white-space:normal;clip-rule:nonzero;display:inline;overflow:visible;visibility:visible;opacity:1;isolation:auto;mix-blend-mode:normal;color-interpolation:sRGB;color-interpolation-filters:linearRGB;solid-color:#000000;solid-opacity:1;fill:#0e7bff;fill-opacity:1;fill-rule:nonzero;stroke:none;stroke-width:0.97896683;stroke-linecap:round;stroke-linejoin:round;stroke-miterlimit:4;stroke-dasharray:none;stroke-dashoffset:0;stroke-opacity:1;color-rendering:auto;image-rendering:auto;shape-rendering:auto;text-rendering:auto;enable-background:accumulate"/>
      </g>
      <path inkscape:connector-curvature="0" id="path8837-6" d="m -153.8125,2151.1309 0,0.5 0,2 0,0.5 1,0 0,-0.5 0,-2 0,-0.5 -1,0 z" style="color:#000000;font-style:normal;font-variant:normal;font-weight:normal;font-stretch:normal;font-size:medium;line-height:normal;font-family:sans-serif;text-indent:0;text-align:start;text-decoration:none;text-decoration-line:none;text-decoration-style:solid;text-decoration-color:#000000;letter-spacing:normal;word-spacing:normal;text-transform:none;direction:ltr;block-progression:tb;writing-mode:lr-tb;baseline-shift:baseline;text-anchor:start;white-space:normal;clip-rule:nonzero;display:inline;overflow:visible;visibility:visible;opacity:1;isolation:auto;mix-blend-mode:normal;color-interpolation:sRGB;color-interpolation-filters:linearRGB;solid-color:#000000;solid-opacity:1;fill:#0e7bff;fill-opacity:1;fill-rule:evenodd;stroke:none;stroke-width:1px;stroke-linecap:square;stroke-linejoin:miter;stroke-miterlimit:4;stroke-dasharray:none;stroke-dashoffset:0;stroke-opacity:1;color-rendering:auto;image-rendering:auto;shape-rendering:auto;text-rendering:auto;enable-background:accumulate"/>
      <path inkscape:connector-curvature="0" id="path8839-6" d="m -154.8125,2152.1309 0,1 0.5,0 2,0 0.5,0 0,-1 -0.5,0 -2,0 -0.5,0 z" style="color:#000000;font-style:normal;font-variant:normal;font-weight:normal;font-stretch:normal;font-size:medium;line-height:normal;font-family:sans-serif;text-indent:0;text-align:start;text-decoration:none;text-decoration-line:none;text-decoration-style:solid;text-decoration-color:#000000;letter-spacing:normal;word-spacing:normal;text-transform:none;direction:ltr;block-progression:tb;writing-mode:lr-tb;baseline-shift:baseline;text-anchor:start;white-space:normal;clip-rule:nonzero;display:inline;overflow:visible;visibility:visible;opacity:1;isolation:auto;mix-blend-mode:normal;color-interpolation:sRGB;color-interpolation-filters:linearRGB;solid-color:#000000;solid-opacity:1;fill:#0e7bff;fill-opacity:1;fill-rule:evenodd;stroke:none;stroke-width:1px;stroke-linecap:square;stroke-linejoin:miter;stroke-miterlimit:4;stroke-dasharray:none;stroke-dashoffset:0;stroke-opacity:1;color-rendering:auto;image-rendering:auto;shape-rendering:auto;text-rendering:auto;enable-background:accumulate"/>
      <path inkscape:connector-curvature="0" id="path8841-4" d="m -126.8125,2160.6309 0,0.5 0,2 0,0.5 1,0 0,-0.5 0,-2 0,-0.5 -1,0 z" style="color:#000000;font-style:normal;font-variant:normal;font-weight:normal;font-stretch:normal;font-size:medium;line-height:normal;font-family:sans-serif;text-indent:0;text-align:start;text-decoration:none;text-decoration-line:none;text-decoration-style:solid;text-decoration-color:#000000;letter-spacing:normal;word-spacing:normal;text-transform:none;direction:ltr;block-progression:tb;writing-mode:lr-tb;baseline-shift:baseline;text-anchor:start;white-space:normal;clip-rule:nonzero;display:inline;overflow:visible;visibility:visible;opacity:1;isolation:auto;mix-blend-mode:normal;color-interpolation:sRGB;color-interpolation-filters:linearRGB;solid-color:#000000;solid-opacity:1;fill:#0e7bff;fill-opacity:1;fill-rule:evenodd;stroke:none;stroke-width:1px;stroke-linecap:square;stroke-linejoin:miter;stroke-miterlimit:4;stroke-dasharray:none;stroke-dashoffset:0;stroke-opacity:1;color-rendering:auto;image-rendering:auto;shape-rendering:auto;text-rendering:auto;enable-background:accumulate"/>
      <path inkscape:connector-curvature="0" id="path8843-6" d="m -127.8125,2161.6309 0,1 0.5,0 2,0 0.5,0 0,-1 -0.5,0 -2,0 -0.5,0 z" style="color:#000000;font-style:normal;font-variant:normal;font-weight:normal;font-stretch:normal;font-size:medium;line-height:normal;font-family:sans-serif;text-indent:0;text-align:start;text-decoration:none;text-decoration-line:none;text-decoration-style:solid;text-decoration-color:#000000;letter-spacing:normal;word-spacing:normal;text-transform:none;direction:ltr;block-progression:tb;writing-mode:lr-tb;baseline-shift:baseline;text-anchor:start;white-space:normal;clip-rule:nonzero;display:inline;overflow:visible;visibility:visible;opacity:1;isolation:auto;mix-blend-mode:normal;color-interpolation:sRGB;color-interpolation-filters:linearRGB;solid-color:#000000;solid-opacity:1;fill:#0e7bff;fill-opacity:1;fill-rule:evenodd;stroke:none;stroke-width:1px;stroke-linecap:square;stroke-linejoin:miter;stroke-miterlimit:4;stroke-dasharray:none;stroke-dashoffset:0;stroke-opacity:1;color-rendering:auto;image-rendering:auto;shape-rendering:auto;text-rendering:auto;enable-background:accumulate"/>
      <path inkscape:connector-curvature="0" id="circle8845-1" d="m -131.3125,2149.6309 c -0.8225,0 -1.5,0.6775 -1.5,1.5 0,0.8225 0.6775,1.5 1.5,1.5 0.8225,0 1.5,-0.6775 1.5,-1.5 0,-0.8225 -0.6775,-1.5 -1.5,-1.5 z m 0,1 c 0.28206,0 0.5,0.2179 0.5,0.5 0,0.282 -0.21794,0.5 -0.5,0.5 -0.28206,0 -0.5,-0.218 -0.5,-0.5 0,-0.2821 0.21794,-0.5 0.5,-0.5 z" style="color:#000000;font-style:normal;font-variant:normal;font-weight:normal;font-stretch:normal;font-size:medium;line-height:normal;font-family:sans-serif;text-indent:0;text-align:start;text-decoration:none;text-decoration-line:none;text-decoration-style:solid;text-decoration-color:#000000;letter-spacing:normal;word-spacing:normal;text-transform:none;direction:ltr;block-progression:tb;writing-mode:lr-tb;baseline-shift:baseline;text-anchor:start;white-space:normal;clip-rule:nonzero;display:inline;overflow:visible;visibility:visible;opacity:1;isolation:auto;mix-blend-mode:normal;color-interpolation:sRGB;color-interpolation-filters:linearRGB;solid-color:#000000;solid-opacity:1;fill:#0e7bff;fill-opacity:1;fill-rule:nonzero;stroke:none;stroke-width:1;stroke-linecap:square;stroke-linejoin:round;stroke-miterlimit:34.17825699;stroke-dasharray:none;stroke-dashoffset:0;stroke-opacity:1;color-rendering:auto;image-rendering:auto;shape-rendering:auto;text-rendering:auto;enable-background:accumulate"/>
      <path style="fill:#0e7bff;fill-opacity:1;stroke:none;stroke-width:1;stroke-linecap:square;stroke-linejoin:round;stroke-miterlimit:34.17825699;stroke-dasharray:none;stroke-opacity:1" d="m -150.81223,2148.6296 c 0,0.2761 -0.22386,0.5 -0.5,0.5 -0.27614,0 -0.5,-0.2239 -0.5,-0.5 0,-0.2762 0.22386,-0.5 0.5,-0.5 0.27614,0 0.5,0.2238 0.5,0.5 z" id="circle8847-6" inkscape:connector-curvature="0" sodipodi:nodetypes="sssss"/>
      <path inkscape:connector-curvature="0" id="circle8847-9-1" d="m -159.81223,2171.5796 a 0.55000001,0.55000001 0 0 1 -0.55,0.55 0.55000001,0.55000001 0 0 1 -0.55,-0.55 0.55000001,0.55000001 0 0 1 0.55,-0.55 0.55000001,0.55000001 0 0 1 0.55,0.55 z" style="fill:#0e7bff;fill-opacity:1;stroke:none;stroke-width:1;stroke-linecap:square;stroke-linejoin:round;stroke-miterlimit:34.17825699;stroke-dasharray:none;stroke-opacity:1"/>
      <path style="fill:#0e7bff;fill-opacity:1;stroke:none;stroke-width:1;stroke-linecap:square;stroke-linejoin:round;stroke-miterlimit:34.17825699;stroke-dasharray:none;stroke-opacity:1" d="m -124.81223,2176.1299 c 0,0.3038 -0.24624,0.55 -0.55,0.55 -0.30376,0 -0.55,-0.2462 -0.55,-0.55 0,-0.3038 0.24624,-0.55 0.55,-0.55 0.30376,0 0.55,0.2462 0.55,0.55 z" id="circle8847-0-5" inkscape:connector-curvature="0" sodipodi:nodetypes="sssss"/>
      <path inkscape:connector-curvature="0" id="path8870-7" d="m -161.51953,2162.3008 -0.35352,0.3535 -1.41406,1.4141 -0.35351,0.3535 0.70703,0.707 0.35351,-0.3535 1.41406,-1.4141 0.35352,-0.3535 -0.70703,-0.707 z" style="color:#000000;font-style:normal;font-variant:normal;font-weight:normal;font-stretch:normal;font-size:medium;line-height:normal;font-family:sans-serif;text-indent:0;text-align:start;text-decoration:none;text-decoration-line:none;text-decoration-style:solid;text-decoration-color:#000000;letter-spacing:normal;word-spacing:normal;text-transform:none;direction:ltr;block-progression:tb;writing-mode:lr-tb;baseline-shift:baseline;text-anchor:start;white-space:normal;clip-rule:nonzero;display:inline;overflow:visible;visibility:visible;opacity:1;isolation:auto;mix-blend-mode:normal;color-interpolation:sRGB;color-interpolation-filters:linearRGB;solid-color:#000000;solid-opacity:1;fill:#0e7bff;fill-opacity:1;fill-rule:evenodd;stroke:none;stroke-width:1px;stroke-linecap:square;stroke-linejoin:miter;stroke-miterlimit:4;stroke-dasharray:none;stroke-dashoffset:0;stroke-opacity:1;color-rendering:auto;image-rendering:auto;shape-rendering:auto;text-rendering:auto;enable-background:accumulate"/>
      <path inkscape:connector-curvature="0" id="path8872-8" d="m -162.93359,2162.3008 -0.70703,0.707 0.35351,0.3535 1.41406,1.4141 0.35352,0.3535 0.70703,-0.707 -0.35352,-0.3535 -1.41406,-1.4141 -0.35351,-0.3535 z" style="color:#000000;font-style:normal;font-variant:normal;font-weight:normal;font-stretch:normal;font-size:medium;line-height:normal;font-family:sans-serif;text-indent:0;text-align:start;text-decoration:none;text-decoration-line:none;text-decoration-style:solid;text-decoration-color:#000000;letter-spacing:normal;word-spacing:normal;text-transform:none;direction:ltr;block-progression:tb;writing-mode:lr-tb;baseline-shift:baseline;text-anchor:start;white-space:normal;clip-rule:nonzero;display:inline;overflow:visible;visibility:visible;opacity:1;isolation:auto;mix-blend-mode:normal;color-interpolation:sRGB;color-interpolation-filters:linearRGB;solid-color:#000000;solid-opacity:1;fill:#0e7bff;fill-opacity:1;fill-rule:evenodd;stroke:none;stroke-width:1px;stroke-linecap:square;stroke-linejoin:miter;stroke-miterlimit:4;stroke-dasharray:none;stroke-dashoffset:0;stroke-opacity:1;color-rendering:auto;image-rendering:auto;shape-rendering:auto;text-rendering:auto;enable-background:accumulate"/>
      <path inkscape:connector-curvature="0" id="path7593-4" d="m -152.49023,2158.957 c -3.7182,0 -6.74222,3.0255 -6.74219,6.7442 0.003,1.0768 0.32711,2.1134 0.82226,3.0664 l -1.26757,6.0371 c -0.59175,2.254 0.82441,4.7424 3.20312,5.2129 2.22262,0.5158 4.42939,-0.858 5.03125,-3.1504 l 1.27734,-4.0136 c 0.48403,0.2563 0.96294,0.5505 1.51758,0.5507 a 0.50005,0.50005 0 0 0 0.002,0 c 0.86342,0 1.66169,-0.3738 2.28515,-0.9609 l 4.45508,0 c 0.62304,0.5873 1.42394,0.9593 2.28711,0.9609 0.77536,-9e-4 1.48254,-0.3288 2.07812,-0.8085 l 1.36524,4.2968 -0.006,-0.025 c 0.60194,2.2927 2.8105,3.6662 5.0332,3.1504 2.37877,-0.4705 3.79284,-2.9592 3.20117,-5.2129 l -1.2832,-6.1093 c 0.46762,-0.9352 0.77135,-1.948 0.77149,-2.9961 2e-5,-3.7187 -3.02399,-6.7442 -6.74219,-6.7442 -1.20655,0 -2.38151,0.3477 -3.41797,0.961 l -10.45898,0 c -1.03468,-0.6123 -2.20569,-0.9585 -3.41016,-0.961 a 0.50005,0.50005 0 0 0 -0.002,0 z m 0,1 c 1.07927,0 2.13559,0.3075 3.04882,0.8828 a 0.50005,0.50005 0 0 0 0.26563,0.078 l 10.6543,0 a 0.50005,0.50005 0 0 0 0.26562,-0.078 c 0.91472,-0.5762 1.97366,-0.8816 3.05469,-0.8828 3.17767,0 5.74221,2.5658 5.74219,5.7442 -1.3e-4,0.9713 -0.2452,1.9271 -0.71485,2.7773 a 0.50005,0.50005 0 0 0 -0.0527,0.3438 l 1.30664,6.2148 a 0.50005,0.50005 0 0 0 0.006,0.023 c 0.4454,1.6966 -0.64405,3.6307 -2.4336,3.9805 a 0.50005,0.50005 0 0 0 -0.0195,0 c -1.71102,0.4014 -3.36977,-0.6095 -3.84765,-2.4297 a 0.50005,0.50005 0 0 0 -0.008,-0.023 l -1.52539,-4.7988 a 0.50005,0.50005 0 0 0 -0.47461,-0.3477 l -0.25195,0 a 0.50005,0.50005 0 0 0 -0.37305,0.166 c -0.45127,0.5047 -1.09458,0.7941 -1.77148,0.7949 -0.67636,0 -1.31862,-0.2906 -1.76953,-0.7949 a 0.50005,0.50005 0 0 0 -0.37305,-0.166 l -4.74219,0 a 0.50005,0.50005 0 0 0 -0.37304,0.166 c -0.45128,0.5047 -1.09459,0.7941 -1.77149,0.7949 -0.55775,-2e-4 -1.09729,-0.197 -1.52539,-0.5546 a 0.50005,0.50005 0 0 0 -0.79687,0.2324 l -1.4336,4.5078 a 0.50005,0.50005 0 0 0 -0.006,0.023 c -0.47796,1.8205 -2.13461,2.8311 -3.8457,2.4297 a 0.50005,0.50005 0 0 0 -0.0195,0 c -1.78959,-0.3498 -2.88088,-2.2842 -2.43555,-3.9805 a 0.50005,0.50005 0 0 0 0.006,-0.023 l 1.29102,-6.1426 a 0.50005,0.50005 0 0 0 -0.0566,-0.3515 c -0.49648,-0.8647 -0.7583,-1.8447 -0.76172,-2.8418 l 0,0 c 10e-4,-3.1774 2.56518,-5.7422 5.74219,-5.7422 z" style="color:#000000;font-style:normal;font-variant:normal;font-weight:normal;font-stretch:normal;font-size:medium;line-height:normal;font-family:sans-serif;text-indent:0;text-align:start;text-decoration:none;text-decoration-line:none;text-decoration-style:solid;text-decoration-color:#000000;letter-spacing:normal;word-spacing:normal;text-transform:none;direction:ltr;block-progression:tb;writing-mode:lr-tb;baseline-shift:baseline;text-anchor:start;white-space:normal;clip-rule:nonzero;display:inline;overflow:visible;visibility:visible;opacity:1;isolation:auto;mix-blend-mode:normal;color-interpolation:sRGB;color-interpolation-filters:linearRGB;solid-color:#000000;solid-opacity:1;fill:#0e7bff;fill-opacity:1;fill-rule:nonzero;stroke:none;stroke-width:1;stroke-linecap:round;stroke-linejoin:round;stroke-miterlimit:4;stroke-dasharray:none;stroke-dashoffset:0;stroke-opacity:1;color-rendering:auto;image-rendering:auto;shape-rendering:auto;text-rendering:auto;enable-background:accumulate"/>
      <path inkscape:connector-curvature="0" id="ellipse7595-8" d="m -148.64844,2167.6016 c -1.06592,0 -1.93942,0.8754 -1.93945,1.9414 3e-5,1.0659 0.87353,1.9414 1.93945,1.9414 1.06592,0 1.94138,-0.8755 1.94141,-1.9414 -3e-5,-1.066 -0.87549,-1.9414 -1.94141,-1.9414 z m 0,1 c 0.5254,0 0.9414,0.4157 0.94141,0.9414 -1e-5,0.5256 -0.41601,0.9414 -0.94141,0.9414 -0.5254,0 -0.93944,-0.4158 -0.93945,-0.9414 10e-6,-0.5257 0.41405,-0.9414 0.93945,-0.9414 z" style="color:#000000;font-style:normal;font-variant:normal;font-weight:normal;font-stretch:normal;font-size:medium;line-height:normal;font-family:sans-serif;text-indent:0;text-align:start;text-decoration:none;text-decoration-line:none;text-decoration-style:solid;text-decoration-color:#000000;letter-spacing:normal;word-spacing:normal;text-transform:none;direction:ltr;block-progression:tb;writing-mode:lr-tb;baseline-shift:baseline;text-anchor:start;white-space:normal;clip-rule:nonzero;display:inline;overflow:visible;visibility:visible;opacity:1;isolation:auto;mix-blend-mode:normal;color-interpolation:sRGB;color-interpolation-filters:linearRGB;solid-color:#000000;solid-opacity:1;fill:#0e7bff;fill-opacity:1;fill-rule:nonzero;stroke:none;stroke-width:1;stroke-linecap:round;stroke-linejoin:round;stroke-miterlimit:4;stroke-dasharray:none;stroke-dashoffset:0;stroke-opacity:1;color-rendering:auto;image-rendering:auto;shape-rendering:auto;text-rendering:auto;enable-background:accumulate"/>
      <path inkscape:connector-curvature="0" id="ellipse7597-9" d="m -139.52344,2167.6016 c -1.06592,0 -1.94138,0.8754 -1.9414,1.9414 2e-5,1.0659 0.87548,1.9414 1.9414,1.9414 1.06592,0 1.94138,-0.8755 1.94141,-1.9414 -3e-5,-1.066 -0.87549,-1.9414 -1.94141,-1.9414 z m 0,1 c 0.5254,0 0.9414,0.4157 0.94141,0.9414 -1e-5,0.5256 -0.41601,0.9414 -0.94141,0.9414 -0.5254,0 -0.94139,-0.4158 -0.9414,-0.9414 1e-5,-0.5257 0.416,-0.9414 0.9414,-0.9414 z" style="color:#000000;font-style:normal;font-variant:normal;font-weight:normal;font-stretch:normal;font-size:medium;line-height:normal;font-family:sans-serif;text-indent:0;text-align:start;text-decoration:none;text-decoration-line:none;text-decoration-style:solid;text-decoration-color:#000000;letter-spacing:normal;word-spacing:normal;text-transform:none;direction:ltr;block-progression:tb;writing-mode:lr-tb;baseline-shift:baseline;text-anchor:start;white-space:normal;clip-rule:nonzero;display:inline;overflow:visible;visibility:visible;opacity:1;isolation:auto;mix-blend-mode:normal;color-interpolation:sRGB;color-interpolation-filters:linearRGB;solid-color:#000000;solid-opacity:1;fill:#0e7bff;fill-opacity:1;fill-rule:nonzero;stroke:none;stroke-width:1;stroke-linecap:round;stroke-linejoin:round;stroke-miterlimit:4;stroke-dasharray:none;stroke-dashoffset:0;stroke-opacity:1;color-rendering:auto;image-rendering:auto;shape-rendering:auto;text-rendering:auto;enable-background:accumulate"/>
      <path inkscape:connector-curvature="0" id="ellipse7599-7" d="m -135.20117,2160.8789 c -0.8044,0 -1.46286,0.6664 -1.46289,1.4707 -5e-5,0.8044 0.65844,1.4707 1.46289,1.4707 0.80445,0 1.46294,-0.6663 1.46289,-1.4707 -3e-5,-0.8043 -0.6585,-1.4707 -1.46289,-1.4707 z m 0,1 c 0.25976,0 0.46288,0.2026 0.46289,0.4707 2e-5,0.2681 -0.20311,0.4707 -0.46289,0.4707 -0.25978,0 -0.46291,-0.2026 -0.46289,-0.4707 1e-5,-0.2681 0.20313,-0.4707 0.46289,-0.4707 z" style="color:#000000;font-style:normal;font-variant:normal;font-weight:normal;font-stretch:normal;font-size:medium;line-height:normal;font-family:sans-serif;text-indent:0;text-align:start;text-decoration:none;text-decoration-line:none;text-decoration-style:solid;text-decoration-color:#000000;letter-spacing:normal;word-spacing:normal;text-transform:none;direction:ltr;block-progression:tb;writing-mode:lr-tb;baseline-shift:baseline;text-anchor:start;white-space:normal;clip-rule:nonzero;display:inline;overflow:visible;visibility:visible;opacity:1;isolation:auto;mix-blend-mode:normal;color-interpolation:sRGB;color-interpolation-filters:linearRGB;solid-color:#000000;solid-opacity:1;fill:#0e7bff;fill-opacity:1;fill-rule:nonzero;stroke:none;stroke-width:1;stroke-linecap:round;stroke-linejoin:round;stroke-miterlimit:4;stroke-dasharray:none;stroke-dashoffset:0;stroke-opacity:1;color-rendering:auto;image-rendering:auto;shape-rendering:auto;text-rendering:auto;enable-background:accumulate"/>
      <path inkscape:connector-curvature="0" id="ellipse7601-8" d="m -132.80273,2163.2988 c -0.80445,0 -1.46295,0.6663 -1.46289,1.4707 3e-5,0.8044 0.6585,1.4707 1.46289,1.4707 0.80439,0 1.46285,-0.6663 1.46289,-1.4707 5e-5,-0.8044 -0.65844,-1.4707 -1.46289,-1.4707 z m 0,1 c 0.25978,0 0.4629,0.2026 0.46289,0.4707 -1e-5,0.2681 -0.20314,0.4707 -0.46289,0.4707 -0.25976,0 -0.46288,-0.2026 -0.46289,-0.4707 -2e-5,-0.2681 0.20311,-0.4707 0.46289,-0.4707 z" style="color:#000000;font-style:normal;font-variant:normal;font-weight:normal;font-stretch:normal;font-size:medium;line-height:normal;font-family:sans-serif;text-indent:0;text-align:start;text-decoration:none;text-decoration-line:none;text-decoration-style:solid;text-decoration-color:#000000;letter-spacing:normal;word-spacing:normal;text-transform:none;direction:ltr;block-progression:tb;writing-mode:lr-tb;baseline-shift:baseline;text-anchor:start;white-space:normal;clip-rule:nonzero;display:inline;overflow:visible;visibility:visible;opacity:1;isolation:auto;mix-blend-mode:normal;color-interpolation:sRGB;color-interpolation-filters:linearRGB;solid-color:#000000;solid-opacity:1;fill:#0e7bff;fill-opacity:1;fill-rule:nonzero;stroke:none;stroke-width:1;stroke-linecap:round;stroke-linejoin:round;stroke-miterlimit:4;stroke-dasharray:none;stroke-dashoffset:0;stroke-opacity:1;color-rendering:auto;image-rendering:auto;shape-rendering:auto;text-rendering:auto;enable-background:accumulate"/>
      <path inkscape:connector-curvature="0" id="ellipse7603-3" d="m -135.20117,2165.7188 c -0.8044,-1e-4 -1.46286,0.6663 -1.46289,1.4707 -5e-5,0.8044 0.65844,1.4707 1.46289,1.4707 0.80445,0 1.46294,-0.6663 1.46289,-1.4707 -3e-5,-0.8044 -0.6585,-1.4708 -1.46289,-1.4707 z m 0,1 c 0.25976,-1e-4 0.46288,0.2026 0.46289,0.4707 2e-5,0.2681 -0.20311,0.4707 -0.46289,0.4707 -0.25978,0 -0.46291,-0.2026 -0.46289,-0.4707 1e-5,-0.2681 0.20313,-0.4708 0.46289,-0.4707 z" style="color:#000000;font-style:normal;font-variant:normal;font-weight:normal;font-stretch:normal;font-size:medium;line-height:normal;font-family:sans-serif;text-indent:0;text-align:start;text-decoration:none;text-decoration-line:none;text-decoration-style:solid;text-decoration-color:#000000;letter-spacing:normal;word-spacing:normal;text-transform:none;direction:ltr;block-progression:tb;writing-mode:lr-tb;baseline-shift:baseline;text-anchor:start;white-space:normal;clip-rule:nonzero;display:inline;overflow:visible;visibility:visible;opacity:1;isolation:auto;mix-blend-mode:normal;color-interpolation:sRGB;color-interpolation-filters:linearRGB;solid-color:#000000;solid-opacity:1;fill:#0e7bff;fill-opacity:1;fill-rule:nonzero;stroke:none;stroke-width:1;stroke-linecap:round;stroke-linejoin:round;stroke-miterlimit:4;stroke-dasharray:none;stroke-dashoffset:0;stroke-opacity:1;color-rendering:auto;image-rendering:auto;shape-rendering:auto;text-rendering:auto;enable-background:accumulate"/>
      <path inkscape:connector-curvature="0" id="ellipse7605-4" d="m -137.59961,2163.2988 c -0.80439,0 -1.46286,0.6664 -1.46289,1.4707 -5e-5,0.8044 0.65844,1.4707 1.46289,1.4707 0.80445,0 1.46294,-0.6663 1.46289,-1.4707 -3e-5,-0.8043 -0.65849,-1.4707 -1.46289,-1.4707 z m 0,1 c 0.25976,0 0.46288,0.2026 0.46289,0.4707 2e-5,0.2681 -0.20311,0.4707 -0.46289,0.4707 -0.25978,0 -0.46291,-0.2026 -0.46289,-0.4707 1e-5,-0.2681 0.20313,-0.4707 0.46289,-0.4707 z" style="color:#000000;font-style:normal;font-variant:normal;font-weight:normal;font-stretch:normal;font-size:medium;line-height:normal;font-family:sans-serif;text-indent:0;text-align:start;text-decoration:none;text-decoration-line:none;text-decoration-style:solid;text-decoration-color:#000000;letter-spacing:normal;word-spacing:normal;text-transform:none;direction:ltr;block-progression:tb;writing-mode:lr-tb;baseline-shift:baseline;text-anchor:start;white-space:normal;clip-rule:nonzero;display:inline;overflow:visible;visibility:visible;opacity:1;isolation:auto;mix-blend-mode:normal;color-interpolation:sRGB;color-interpolation-filters:linearRGB;solid-color:#000000;solid-opacity:1;fill:#0e7bff;fill-opacity:1;fill-rule:nonzero;stroke:none;stroke-width:1;stroke-linecap:round;stroke-linejoin:round;stroke-miterlimit:4;stroke-dasharray:none;stroke-dashoffset:0;stroke-opacity:1;color-rendering:auto;image-rendering:auto;shape-rendering:auto;text-rendering:auto;enable-background:accumulate"/>
    </g>
  </g>

	
	<metadata>
		<rdf:RDF xmlns:rdf="http://www.w3.org/1999/02/22-rdf-syntax-ns#" xmlns:rdfs="http://www.w3.org/2000/01/rdf-schema#" xmlns:dc="http://purl.org/dc/elements/1.1/">
			<rdf:Description about="https://iconscout.com/legal#licenses" dc:title="Mobile, Cncept, Remote, Game, Play, Wireless, Playstation" dc:description="Mobile, Cncept, Remote, Game, Play, Wireless, Playstation" dc:publisher="Iconscout" dc:date="2016-12-14" dc:format="image/svg+xml" dc:language="en">
				<dc:creator>
					<rdf:Bag>
						<rdf:li>Jemis Mali</rdf:li>
					</rdf:Bag>
				</dc:creator>
			</rdf:Description>
		</rdf:RDF>
    </metadata></svg>
