<?xml version="1.0" encoding="UTF-8" standalone="no"?>
<svg xmlns:dc="http://purl.org/dc/elements/1.1/" xmlns:cc="http://creativecommons.org/ns#" xmlns:rdf="http://www.w3.org/1999/02/22-rdf-syntax-ns#" xmlns:svg="http://www.w3.org/2000/svg" xmlns="http://www.w3.org/2000/svg" xmlns:sodipodi="http://sodipodi.sourceforge.net/DTD/sodipodi-0.dtd" xmlns:inkscape="http://www.inkscape.org/namespaces/inkscape" width="64" height="64" viewBox="0 0 64 64.000002" id="svg6959" version="1.1" inkscape:version="0.91 r13725" sodipodi:docname="3 mobile concept email mail letter message text.svg">
  <defs id="defs6961"/>
  <sodipodi:namedview id="base" pagecolor="#ffffff" bordercolor="#666666" borderopacity="1.0" inkscape:pageopacity="0.0" inkscape:pageshadow="2" inkscape:zoom="2.8" inkscape:cx="-32.954006" inkscape:cy="32.625888" inkscape:document-units="px" inkscape:current-layer="layer1" showgrid="true" units="px" inkscape:snap-bbox="true" inkscape:bbox-paths="true" inkscape:bbox-nodes="true" inkscape:snap-bbox-edge-midpoints="true" inkscape:snap-bbox-midpoints="true" inkscape:window-width="1366" inkscape:window-height="705" inkscape:window-x="-8" inkscape:window-y="-8" inkscape:window-maximized="1">
    <inkscape:grid type="xygrid" id="grid6967"/>
  </sodipodi:namedview>
  
  <g inkscape:label="Layer 1" inkscape:groupmode="layer" id="layer1" transform="translate(0,-988.3622)">
    <g id="g7594">
      <path style="fill:#b2cdf8;fill-opacity:1;fill-rule:evenodd;stroke:none;stroke-width:0.99999994px;stroke-linecap:butt;stroke-linejoin:round;stroke-opacity:1" d="m 61.501973,1034.953 0,3.4547 c 0,1.9138 -1.52991,3.4546 -3.43029,3.4546 l -52.14101,0 c -1.90038,0 -3.4588,-1.5411 -3.43029,-3.4546 l 0.0515,-3.4547" id="path11266" inkscape:connector-curvature="0" sodipodi:nodetypes="cssssc"/>
      <path style="fill:none;fill-opacity:1;fill-rule:evenodd;stroke:#0e7bff;stroke-width:0.99999994px;stroke-linecap:butt;stroke-linejoin:round;stroke-opacity:1" d="m 61.501973,1034.953 0,3.4547 c 0,1.9138 -1.52991,3.4546 -3.43029,3.4546 l -52.14101,0 c -1.90038,0 -3.4588,-1.5411 -3.43029,-3.4546 l 0.0515,-3.4547" id="path11268" inkscape:connector-curvature="0" sodipodi:nodetypes="cssssc"/>
      <path style="fill:#f4f7f8;fill-opacity:1;stroke:none;stroke-width:0.99999994;stroke-linecap:butt;stroke-linejoin:miter;stroke-opacity:1" d="m 59.470293,1016.9888 c 0,-1.531 -1.22394,-2.7637 -2.74426,-2.7637 l -49.39673,0 c -1.52031,0 -2.74424,1.2327 -2.74424,2.7637 l -2.03103,17.9641 c 0,2.0728 1.13605,4.1457 3.78975,4.1457 l 25.16333,0 3.36885,0 22.42462,0 c 2.65561,0 4.20139,-2.0728 4.20139,-4.1457 z" id="path11270" inkscape:connector-curvature="0" sodipodi:nodetypes="cssccsccscc"/>
      <path sodipodi:nodetypes="cccc" inkscape:connector-curvature="0" id="path11272" d="m 52.355013,1014.4162 1.37213,21.9187 -43.81678,0 1.37213,-21.9187" style="fill:#b2cdf8;fill-opacity:1;fill-rule:evenodd;stroke:none;stroke-width:0.99999994px;stroke-linecap:round;stroke-linejoin:round;stroke-opacity:1"/>
      <path sodipodi:nodetypes="cccccccc" inkscape:connector-curvature="0" id="path11274" d="m 10.781473,1014.5173 -1.37109,22.318 44.31614,0 -0.15429,-1.9726 -40.97201,0 c -1.1,0 -1.03968,-0.9932 -1.03968,-0.9932 l 1.15806,-19.3522 z" style="fill:#6ca6fd;fill-opacity:1;fill-rule:evenodd;stroke:none;stroke-width:0.99999994px;stroke-linecap:round;stroke-linejoin:round;stroke-opacity:1"/>
      <path style="fill:none;fill-rule:evenodd;stroke:#0e7bff;stroke-width:0.99999994px;stroke-linecap:butt;stroke-linejoin:miter;stroke-opacity:1" d="m 7.528643,1023.2071 -0.41164,4.1457" id="path11276" inkscape:connector-curvature="0" sodipodi:nodetypes="cc"/>
      <path id="ellipse11278" d="m 7.5320448,1029.4254 a 0.68606508,0.69092786 0 0 1 -0.6860651,0.6909 0.68606508,0.69092786 0 0 1 -0.6860651,-0.6909 0.68606508,0.69092786 0 0 1 0.6860651,-0.6909 0.68606508,0.69092786 0 0 1 0.6860651,0.6909 z" style="fill:#0e7bff;fill-opacity:1;stroke:none;stroke-linecap:butt;stroke-linejoin:miter;stroke-opacity:1"/>
      <path inkscape:connector-curvature="0" style="fill:#dae7fc;fill-opacity:1;stroke:none;stroke-width:0.99999994;stroke-linecap:butt;stroke-linejoin:miter;stroke-opacity:1" d="m 56.846353,1014.2567 c 1.37717,0.1505 2.44727,1.3042 2.44727,2.7325 l 2.03125,17.9649 c 0,2.0728 -1.13732,4.1445 -3.79102,4.1445 l -25.16211,0 -3.36914,0 -22.42578,0 c -1.63243,0 -2.83573,-0.7868 -3.52344,-1.8731 0.33752,0.081 0.69246,0.1368 1.07813,0.1368 l 22.42382,0 3.36915,0 25.16406,0 c 2.6537,0 3.78906,-2.0737 3.78906,-4.1465 l -0.043,-0.3848 c 0.0227,-0.2034 0.043,-0.4078 0.043,-0.6133 l -2.03125,-17.961 z" id="path11280"/>
      <path style="fill:#6ca6fd;fill-opacity:1;fill-rule:evenodd;stroke:none;stroke-width:0.99999994px;stroke-linecap:round;stroke-linejoin:round;stroke-opacity:1" d="m 52.355013,1014.4162 1.37213,21.9187 -43.81678,0" id="path11282" inkscape:connector-curvature="0" sodipodi:nodetypes="ccc"/>
      <path inkscape:connector-curvature="0" id="path11284" d="m 7.031633,1014.2567 c -1.37717,0.1505 -2.44727,1.3043 -2.44727,2.7326 l -2.03125,17.9648 c 0,2.0728 1.13732,4.1445 3.79102,4.1445 l 25.16211,0 3.36914,0 22.42578,0 c 1.63243,0 2.83573,-0.7868 3.52344,-1.873 -0.33752,0.081 -0.69246,0.1367 -1.07813,0.1367 l -22.42382,0 -3.36915,0 -25.16406,0 c -2.6537,0 -3.78906,-2.0737 -3.78906,-4.1465 0.0037,-0.6639 0.01108,-0.7003 0,-0.998 z" style="fill:#dae7fc;fill-opacity:1;stroke:none;stroke-width:0.99999994;stroke-linecap:butt;stroke-linejoin:miter;stroke-opacity:1" sodipodi:nodetypes="cccsccscsccsccc"/>
      <path style="fill:#498ffd;fill-opacity:1;fill-rule:evenodd;stroke:none;stroke-width:0.99999994px;stroke-linecap:round;stroke-linejoin:round;stroke-opacity:1" d="m 12.757303,1034.8635 -2.847656,1.4707 43.777344,0 -0.115235,-1.4707 -40.814453,0 z" id="path11286" inkscape:connector-curvature="0"/>
      <path style="fill:none;fill-opacity:1;fill-rule:evenodd;stroke:#0e7bff;stroke-width:0.99999994px;stroke-linecap:round;stroke-linejoin:round;stroke-opacity:1" d="m 52.355013,1014.4162 1.37213,21.9187 -43.81678,0 1.37213,-21.9187" id="path11288" inkscape:connector-curvature="0" sodipodi:nodetypes="cccc"/>
      <path sodipodi:nodetypes="cssccsccscc" inkscape:connector-curvature="0" id="path11290" d="m 59.470293,1016.9888 c 0,-1.531 -1.22394,-2.7637 -2.74426,-2.7637 l -49.39673,0 c -1.52031,0 -2.74424,1.2327 -2.74424,2.7637 l -2.03103,17.9641 c 0,2.0728 1.13605,4.1457 3.78975,4.1457 l 25.16333,0 3.36885,0 22.42462,0 c 2.65561,0 4.20139,-2.0728 4.20139,-4.1457 z" style="fill:none;fill-opacity:1;stroke:#0e7bff;stroke-width:0.99999994;stroke-linecap:butt;stroke-linejoin:miter;stroke-opacity:1"/>
      <path id="ellipse8304" d="m -92.555736,1039.5872 a 1.37669,1.3965536 0 0 1 -1.37669,1.3965 1.37669,1.3965536 0 0 1 -1.37669,-1.3965 1.37669,1.3965536 0 0 1 1.37669,-1.3966 1.37669,1.3965536 0 0 1 1.37669,1.3966 z" style="fill:#b2cdf8;fill-opacity:1;stroke:none;stroke-width:1.00697327;stroke-linecap:butt;stroke-linejoin:miter;stroke-opacity:1" transform="matrix(0.99977687,0.02112381,0.14470033,0.98947553,0,0)"/>
      <path inkscape:connector-curvature="0" id="ellipse11292" d="m 56.242038,1024.7812 c -1.036149,-0.022 -1.755898,0.8121 -1.605452,1.8406 0.150456,1.0286 1.11933,1.8983 2.155429,1.9202 1.036099,0.022 1.755828,-0.8121 1.605452,-1.8407 -0.150376,-1.0286 -1.11928,-1.8982 -2.155429,-1.9201 z m 0.145829,0.9972 c 0.484202,0.01 0.929236,0.4038 1.002015,0.9016 0.07278,0.4978 -0.259524,0.875 -0.743696,0.8648 -0.484172,-0.01 -0.929196,-0.4039 -1.002005,-0.9017 -0.07282,-0.4978 0.259494,-0.875 0.743686,-0.8647 z" style="color:#000000;font-style:normal;font-variant:normal;font-weight:normal;font-stretch:normal;font-size:medium;line-height:normal;font-family:sans-serif;text-indent:0;text-align:start;text-decoration:none;text-decoration-line:none;text-decoration-style:solid;text-decoration-color:#000000;letter-spacing:normal;word-spacing:normal;text-transform:none;direction:ltr;block-progression:tb;writing-mode:lr-tb;baseline-shift:baseline;text-anchor:start;white-space:normal;clip-rule:nonzero;display:inline;overflow:visible;visibility:visible;opacity:1;isolation:auto;mix-blend-mode:normal;color-interpolation:sRGB;color-interpolation-filters:linearRGB;solid-color:#000000;solid-opacity:1;fill:#0e7bff;fill-opacity:1;fill-rule:nonzero;stroke:none;stroke-width:1.00697327;stroke-linecap:butt;stroke-linejoin:miter;stroke-miterlimit:4;stroke-dasharray:none;stroke-dashoffset:0;stroke-opacity:1;color-rendering:auto;image-rendering:auto;shape-rendering:auto;text-rendering:auto;enable-background:accumulate"/>
      <path id="rect5963-4" d="m 22.000982,1008.8624 20,0 c 0.831,0 1.5,0.669 1.5,1.5 l 0,12 c 0,0.831 -0.669,1.5 -1.5,1.5 l -20,0 c -0.831,0 -1.5,-0.669 -1.5,-1.5 l 0,-12 c 0,-0.831 0.669,-1.5 1.5,-1.5 z" style="fill:#b2cdf8;fill-opacity:1;stroke:#1c4d7e;stroke-width:0.99999994;stroke-opacity:1"/>
      <path style="fill:#dae7fc;fill-opacity:1;stroke:#1c4d7e;stroke-width:0.99999994;stroke-linecap:round;stroke-linejoin:round;stroke-opacity:1" d="m 22.000982,1008.8623 20,0 c 0.831,0 1.5,0.669 1.5,1.5 l 0,1 c 0,0.831 -0.78996,1.2159 -1.5,1.5 l -10,4 -10,-4 c -0.77155,-0.3087 -1.5,-0.669 -1.5,-1.5 l 0,-1 c 0,-0.831 0.669,-1.5 1.5,-1.5 z" id="path5969-5" inkscape:connector-curvature="0" sodipodi:nodetypes="ssssscssss"/>
      <path id="rect5977-0" d="m 14.040302,999.8678 6.940169,0 c 0.288365,0 0.520513,0.2227 0.520513,0.4994 l 0,3.9956 c 0,0.2767 -0.232148,0.4994 -0.520513,0.4994 l -6.940169,0 c -0.288365,0 -0.520513,-0.2227 -0.520513,-0.4994 l 0,-3.9956 c 0,-0.2767 0.232148,-0.4994 0.520513,-0.4994 z" style="fill:#6ca6fd;fill-opacity:1;stroke:none;stroke-width:1;stroke-opacity:1"/>
      <path sodipodi:nodetypes="ssssscssss" inkscape:connector-curvature="0" id="path5994-1" d="m 14.040301,999.8679 6.94017,0 c 0.288364,0 0.520513,0.2227 0.520513,0.4994 l 0,0.333 c 0,0.2767 -0.274122,0.4048 -0.520513,0.4994 l -3.470085,1.3319 -3.470085,-1.3319 c -0.267736,-0.1028 -0.520512,-0.2227 -0.520512,-0.4994 l 0,-0.333 c 0,-0.2767 0.232148,-0.4994 0.520512,-0.4994 z" style="fill:#b2cdf8;fill-opacity:1;stroke:none;stroke-width:1;stroke-linecap:round;stroke-linejoin:round;stroke-opacity:1"/>
      <path style="color:#000000;font-style:normal;font-variant:normal;font-weight:normal;font-stretch:normal;font-size:medium;line-height:normal;font-family:sans-serif;text-indent:0;text-align:start;text-decoration:none;text-decoration-line:none;text-decoration-style:solid;text-decoration-color:#000000;letter-spacing:normal;word-spacing:normal;text-transform:none;direction:ltr;block-progression:tb;writing-mode:lr-tb;baseline-shift:baseline;text-anchor:start;white-space:normal;clip-rule:nonzero;display:inline;overflow:visible;visibility:visible;opacity:1;isolation:auto;mix-blend-mode:normal;color-interpolation:sRGB;color-interpolation-filters:linearRGB;solid-color:#000000;solid-opacity:1;fill:#0e7bff;fill-opacity:1;fill-rule:nonzero;stroke:none;stroke-width:1;stroke-linecap:butt;stroke-linejoin:miter;stroke-miterlimit:4;stroke-dasharray:none;stroke-dashoffset:0;stroke-opacity:1;color-rendering:auto;image-rendering:auto;shape-rendering:auto;text-rendering:auto;enable-background:accumulate" d="m 14.040539,999.367 c -0.545909,0 -1.021485,0.4437 -1.021485,1 l 0,3.9961 c 0,0.5564 0.475576,1 1.021485,1 l 6.939453,0 c 0.545909,0 1.021484,-0.4436 1.021484,-1 l 0,-3.9961 c 0,-0.5563 -0.475575,-1 -1.021484,-1 l -6.939453,0 z m -0.02149,1 c 0,0 -0.0093,0 0.02149,0 l 6.939453,0 c 0.03082,0 0.02148,0 0.02148,0 l 0,3.9961 c 0,0 0.0093,0 -0.02148,0 l -6.939453,0 c -0.03082,0 -0.02149,0 -0.02149,0 l 0,-3.9961 z" id="rect7254" inkscape:connector-curvature="0"/>
      <path style="color:#000000;font-style:normal;font-variant:normal;font-weight:normal;font-stretch:normal;font-size:medium;line-height:normal;font-family:sans-serif;text-indent:0;text-align:start;text-decoration:none;text-decoration-line:none;text-decoration-style:solid;text-decoration-color:#000000;letter-spacing:normal;word-spacing:normal;text-transform:none;direction:ltr;block-progression:tb;writing-mode:lr-tb;baseline-shift:baseline;text-anchor:start;white-space:normal;clip-rule:nonzero;display:inline;overflow:visible;visibility:visible;opacity:1;isolation:auto;mix-blend-mode:normal;color-interpolation:sRGB;color-interpolation-filters:linearRGB;solid-color:#000000;solid-opacity:1;fill:#0e7bff;fill-opacity:1;fill-rule:nonzero;stroke:none;stroke-width:1;stroke-linecap:round;stroke-linejoin:round;stroke-miterlimit:4;stroke-dasharray:none;stroke-dashoffset:0;stroke-opacity:1;color-rendering:auto;image-rendering:auto;shape-rendering:auto;text-rendering:auto;enable-background:accumulate" d="m 14.040539,999.367 c -0.545793,0 -1.021484,0.4437 -1.021485,1 l 0,0.334 c 0,0.2906 0.171396,0.5639 0.347657,0.7051 0.176261,0.1412 0.348703,0.2039 0.49414,0.2598 l 3.470703,1.332 a 0.50005,0.50005 0 0 0 0.357422,0 l 3.470704,-1.332 c 0.135772,-0.052 0.306716,-0.1172 0.482421,-0.2559 0.175706,-0.1388 0.359375,-0.4055 0.359375,-0.709 l 0,-0.334 c 0,-0.5563 -0.475691,-1 -1.021484,-1 l -6.939453,0 z m -0.02149,1 c 0,0 -0.0094,0 0.02149,0 l 6.939453,0 c 0.03093,0 0.02148,0 0.02148,0 l 0,0.2696 c -0.03174,0.021 -0.101148,0.057 -0.201172,0.096 l -3.289062,1.2636 -3.291016,-1.2636 c -0.107495,-0.041 -0.171559,-0.075 -0.201172,-0.094 l 0,-0.2715 z" id="path7256" inkscape:connector-curvature="0"/>
      <path inkscape:connector-curvature="0" id="path6001-9" d="m 23.000712,1001.3616 0,1 2,0 0,-1 -2,0 z" style="color:#000000;font-style:normal;font-variant:normal;font-weight:normal;font-stretch:normal;font-size:medium;line-height:normal;font-family:sans-serif;text-indent:0;text-align:start;text-decoration:none;text-decoration-line:none;text-decoration-style:solid;text-decoration-color:#000000;letter-spacing:normal;word-spacing:normal;text-transform:none;direction:ltr;block-progression:tb;writing-mode:lr-tb;baseline-shift:baseline;text-anchor:start;white-space:normal;clip-rule:nonzero;display:inline;overflow:visible;visibility:visible;opacity:1;isolation:auto;mix-blend-mode:normal;color-interpolation:sRGB;color-interpolation-filters:linearRGB;solid-color:#000000;solid-opacity:1;fill:#0e7bff;fill-opacity:1;fill-rule:evenodd;stroke:none;stroke-width:1px;stroke-linecap:butt;stroke-linejoin:miter;stroke-miterlimit:4;stroke-dasharray:none;stroke-dashoffset:0;stroke-opacity:1;color-rendering:auto;image-rendering:auto;shape-rendering:auto;text-rendering:auto;enable-background:accumulate"/>
      <path inkscape:connector-curvature="0" id="path6003-6" d="m 26.000712,1001.3616 0,1 1,0 0,-1 -1,0 z" style="color:#000000;font-style:normal;font-variant:normal;font-weight:normal;font-stretch:normal;font-size:medium;line-height:normal;font-family:sans-serif;text-indent:0;text-align:start;text-decoration:none;text-decoration-line:none;text-decoration-style:solid;text-decoration-color:#000000;letter-spacing:normal;word-spacing:normal;text-transform:none;direction:ltr;block-progression:tb;writing-mode:lr-tb;baseline-shift:baseline;text-anchor:start;white-space:normal;clip-rule:nonzero;display:inline;overflow:visible;visibility:visible;opacity:1;isolation:auto;mix-blend-mode:normal;color-interpolation:sRGB;color-interpolation-filters:linearRGB;solid-color:#000000;solid-opacity:1;fill:#0e7bff;fill-opacity:1;fill-rule:evenodd;stroke:none;stroke-width:1px;stroke-linecap:butt;stroke-linejoin:miter;stroke-miterlimit:4;stroke-dasharray:none;stroke-dashoffset:0;stroke-opacity:1;color-rendering:auto;image-rendering:auto;shape-rendering:auto;text-rendering:auto;enable-background:accumulate"/>
      <path inkscape:connector-curvature="0" id="path6056-4" d="m 23.000712,1003.3616 0,1 3,0 0,-1 -3,0 z" style="color:#000000;font-style:normal;font-variant:normal;font-weight:normal;font-stretch:normal;font-size:medium;line-height:normal;font-family:sans-serif;text-indent:0;text-align:start;text-decoration:none;text-decoration-line:none;text-decoration-style:solid;text-decoration-color:#000000;letter-spacing:normal;word-spacing:normal;text-transform:none;direction:ltr;block-progression:tb;writing-mode:lr-tb;baseline-shift:baseline;text-anchor:start;white-space:normal;clip-rule:nonzero;display:inline;overflow:visible;visibility:visible;opacity:1;isolation:auto;mix-blend-mode:normal;color-interpolation:sRGB;color-interpolation-filters:linearRGB;solid-color:#000000;solid-opacity:1;fill:#0e7bff;fill-opacity:1;fill-rule:evenodd;stroke:none;stroke-width:1px;stroke-linecap:butt;stroke-linejoin:miter;stroke-miterlimit:4;stroke-dasharray:none;stroke-dashoffset:0;stroke-opacity:1;color-rendering:auto;image-rendering:auto;shape-rendering:auto;text-rendering:auto;enable-background:accumulate"/>
      <path inkscape:connector-curvature="0" id="path6068-5" d="m 27.000712,1003.3616 0,1 1,0 0,-1 -1,0 z" style="color:#000000;font-style:normal;font-variant:normal;font-weight:normal;font-stretch:normal;font-size:medium;line-height:normal;font-family:sans-serif;text-indent:0;text-align:start;text-decoration:none;text-decoration-line:none;text-decoration-style:solid;text-decoration-color:#000000;letter-spacing:normal;word-spacing:normal;text-transform:none;direction:ltr;block-progression:tb;writing-mode:lr-tb;baseline-shift:baseline;text-anchor:start;white-space:normal;clip-rule:nonzero;display:inline;overflow:visible;visibility:visible;opacity:1;isolation:auto;mix-blend-mode:normal;color-interpolation:sRGB;color-interpolation-filters:linearRGB;solid-color:#000000;solid-opacity:1;fill:#0e7bff;fill-opacity:1;fill-rule:evenodd;stroke:none;stroke-width:1px;stroke-linecap:butt;stroke-linejoin:miter;stroke-miterlimit:4;stroke-dasharray:none;stroke-dashoffset:0;stroke-opacity:1;color-rendering:auto;image-rendering:auto;shape-rendering:auto;text-rendering:auto;enable-background:accumulate"/>
      <path inkscape:connector-curvature="0" id="rect5533-2" d="m 17.040302,1026.8678 6.94017,0 c 0.288364,0 0.520512,0.2228 0.520512,0.4995 l 0,3.9955 c 0,0.2767 -0.232148,0.4995 -0.520512,0.4995 l -6.94017,0 c -0.288364,0 -0.520513,-0.2228 -0.520513,-0.4995 l 0,-3.9955 c 0,-0.2767 0.232149,-0.4995 0.520513,-0.4995 z" style="fill:#498ffd;fill-opacity:1;stroke:none;stroke-width:1;stroke-opacity:1"/>
      <path style="fill:#6ca6fd;fill-opacity:1;stroke:none;stroke-width:1;stroke-linecap:round;stroke-linejoin:round;stroke-opacity:1" d="m 17.040301,1026.8679 6.94017,0 c 0.288364,0 0.520513,0.2227 0.520513,0.4994 l 0,0.333 c 0,0.2767 -0.274122,0.4048 -0.520513,0.4994 l -3.470085,1.3319 -3.470085,-1.3319 c -0.267736,-0.1028 -0.520512,-0.2227 -0.520512,-0.4994 l 0,-0.333 c 0,-0.2767 0.232148,-0.4994 0.520512,-0.4994 z" id="path5535-0" inkscape:connector-curvature="0" sodipodi:nodetypes="ssssscssss"/>
      <path style="color:#000000;font-style:normal;font-variant:normal;font-weight:normal;font-stretch:normal;font-size:medium;line-height:normal;font-family:sans-serif;text-indent:0;text-align:start;text-decoration:none;text-decoration-line:none;text-decoration-style:solid;text-decoration-color:#000000;letter-spacing:normal;word-spacing:normal;text-transform:none;direction:ltr;block-progression:tb;writing-mode:lr-tb;baseline-shift:baseline;text-anchor:start;white-space:normal;clip-rule:nonzero;display:inline;overflow:visible;visibility:visible;opacity:1;isolation:auto;mix-blend-mode:normal;color-interpolation:sRGB;color-interpolation-filters:linearRGB;solid-color:#000000;solid-opacity:1;fill:#0e7bff;fill-opacity:1;fill-rule:nonzero;stroke:none;stroke-width:1;stroke-linecap:butt;stroke-linejoin:miter;stroke-miterlimit:4;stroke-dasharray:none;stroke-dashoffset:0;stroke-opacity:1;color-rendering:auto;image-rendering:auto;shape-rendering:auto;text-rendering:auto;enable-background:accumulate" d="m 17.040539,1026.367 c -0.545909,0 -1.021485,0.4437 -1.021485,1 l 0,3.9961 c 0,0.5564 0.475576,1 1.021485,1 l 6.939453,0 c 0.545909,0 1.021484,-0.4436 1.021484,-1 l 0,-3.9961 c 0,-0.5563 -0.475575,-1 -1.021484,-1 l -6.939453,0 z m -0.02149,1 c 0,0 -0.0093,0 0.02149,0 l 6.939453,0 c 0.03082,0 0.02148,0 0.02148,0 l 0,3.9961 c 0,0 0.0093,0 -0.02148,0 l -6.939453,0 c -0.03082,0 -0.02149,0 -0.02149,0 l 0,-3.9961 z" id="rect7414-9" inkscape:connector-curvature="0"/>
      <path style="color:#000000;font-style:normal;font-variant:normal;font-weight:normal;font-stretch:normal;font-size:medium;line-height:normal;font-family:sans-serif;text-indent:0;text-align:start;text-decoration:none;text-decoration-line:none;text-decoration-style:solid;text-decoration-color:#000000;letter-spacing:normal;word-spacing:normal;text-transform:none;direction:ltr;block-progression:tb;writing-mode:lr-tb;baseline-shift:baseline;text-anchor:start;white-space:normal;clip-rule:nonzero;display:inline;overflow:visible;visibility:visible;opacity:1;isolation:auto;mix-blend-mode:normal;color-interpolation:sRGB;color-interpolation-filters:linearRGB;solid-color:#000000;solid-opacity:1;fill:#0e7bff;fill-opacity:1;fill-rule:nonzero;stroke:none;stroke-width:1;stroke-linecap:round;stroke-linejoin:round;stroke-miterlimit:4;stroke-dasharray:none;stroke-dashoffset:0;stroke-opacity:1;color-rendering:auto;image-rendering:auto;shape-rendering:auto;text-rendering:auto;enable-background:accumulate" d="m 17.040539,1026.367 c -0.545793,0 -1.021484,0.4437 -1.021485,1 l 0,0.334 c 0,0.2906 0.171396,0.5639 0.347657,0.7051 0.176261,0.1412 0.348703,0.2039 0.49414,0.2598 l 3.470703,1.332 a 0.50005,0.50005 0 0 0 0.357422,0 l 3.470704,-1.332 c 0.135772,-0.052 0.306716,-0.1172 0.482421,-0.2559 0.175706,-0.1388 0.359375,-0.4055 0.359375,-0.709 l 0,-0.334 c 0,-0.5563 -0.475691,-1 -1.021484,-1 l -6.939453,0 z m -0.02149,1 c 0,0 -0.0094,0 0.02149,0 l 6.939453,0 c 0.03093,0 0.02148,0 0.02148,0 l 0,0.2696 c -0.03174,0.021 -0.101148,0.057 -0.201172,0.096 l -3.289062,1.2636 -3.291016,-1.2636 c -0.107495,-0.041 -0.171559,-0.075 -0.201172,-0.094 l 0,-0.2715 z" id="path7252" inkscape:connector-curvature="0"/>
      <path style="color:#000000;font-style:normal;font-variant:normal;font-weight:normal;font-stretch:normal;font-size:medium;line-height:normal;font-family:sans-serif;text-indent:0;text-align:start;text-decoration:none;text-decoration-line:none;text-decoration-style:solid;text-decoration-color:#000000;letter-spacing:normal;word-spacing:normal;text-transform:none;direction:ltr;block-progression:tb;writing-mode:lr-tb;baseline-shift:baseline;text-anchor:start;white-space:normal;clip-rule:nonzero;display:inline;overflow:visible;visibility:visible;opacity:1;isolation:auto;mix-blend-mode:normal;color-interpolation:sRGB;color-interpolation-filters:linearRGB;solid-color:#000000;solid-opacity:1;fill:#0e7bff;fill-opacity:1;fill-rule:evenodd;stroke:none;stroke-width:0.99999994px;stroke-linecap:butt;stroke-linejoin:miter;stroke-miterlimit:4;stroke-dasharray:none;stroke-dashoffset:0;stroke-opacity:1;color-rendering:auto;image-rendering:auto;shape-rendering:auto;text-rendering:auto;enable-background:accumulate" d="m 50.936373,1000.5902 -0.707031,0.7089 1.0625,1.0606 0.707031,-0.707 -1.0625,-1.0625 z" id="path7474-0" inkscape:connector-curvature="0"/>
      <path style="color:#000000;font-style:normal;font-variant:normal;font-weight:normal;font-stretch:normal;font-size:medium;line-height:normal;font-family:sans-serif;text-indent:0;text-align:start;text-decoration:none;text-decoration-line:none;text-decoration-style:solid;text-decoration-color:#000000;letter-spacing:normal;word-spacing:normal;text-transform:none;direction:ltr;block-progression:tb;writing-mode:lr-tb;baseline-shift:baseline;text-anchor:start;white-space:normal;clip-rule:nonzero;display:inline;overflow:visible;visibility:visible;opacity:1;isolation:auto;mix-blend-mode:normal;color-interpolation:sRGB;color-interpolation-filters:linearRGB;solid-color:#000000;solid-opacity:1;fill:#0e7bff;fill-opacity:1;fill-rule:evenodd;stroke:none;stroke-width:1px;stroke-linecap:butt;stroke-linejoin:miter;stroke-miterlimit:4;stroke-dasharray:none;stroke-dashoffset:0;stroke-opacity:1;color-rendering:auto;image-rendering:auto;shape-rendering:auto;text-rendering:auto;enable-background:accumulate" d="m 51.293795,998.1156 -1.050781,1.0507 0.707031,0.7071 1.050781,-1.0508 -0.707031,-0.707 z" id="path7476-4" inkscape:connector-curvature="0"/>
      <path style="color:#000000;font-style:normal;font-variant:normal;font-weight:normal;font-stretch:normal;font-size:medium;line-height:normal;font-family:sans-serif;text-indent:0;text-align:start;text-decoration:none;text-decoration-line:none;text-decoration-style:solid;text-decoration-color:#000000;letter-spacing:normal;word-spacing:normal;text-transform:none;direction:ltr;block-progression:tb;writing-mode:lr-tb;baseline-shift:baseline;text-anchor:start;white-space:normal;clip-rule:nonzero;display:inline;overflow:visible;visibility:visible;opacity:1;isolation:auto;mix-blend-mode:normal;color-interpolation:sRGB;color-interpolation-filters:linearRGB;solid-color:#000000;solid-opacity:1;fill:#0e7bff;fill-opacity:1;fill-rule:evenodd;stroke:none;stroke-width:0.99999994px;stroke-linecap:butt;stroke-linejoin:miter;stroke-miterlimit:4;stroke-dasharray:none;stroke-dashoffset:0;stroke-opacity:1;color-rendering:auto;image-rendering:auto;shape-rendering:auto;text-rendering:auto;enable-background:accumulate" d="m 48.813326,1000.6038 -1.050781,1.0508 0.707031,0.707 1.050782,-1.0507 -0.707032,-0.7071 z" id="path7478-3" inkscape:connector-curvature="0"/>
      <path style="color:#000000;font-style:normal;font-variant:normal;font-weight:normal;font-stretch:normal;font-size:medium;line-height:normal;font-family:sans-serif;text-indent:0;text-align:start;text-decoration:none;text-decoration-line:none;text-decoration-style:solid;text-decoration-color:#000000;letter-spacing:normal;word-spacing:normal;text-transform:none;direction:ltr;block-progression:tb;writing-mode:lr-tb;baseline-shift:baseline;text-anchor:start;white-space:normal;clip-rule:nonzero;display:inline;overflow:visible;visibility:visible;opacity:1;isolation:auto;mix-blend-mode:normal;color-interpolation:sRGB;color-interpolation-filters:linearRGB;solid-color:#000000;solid-opacity:1;fill:#0e7bff;fill-opacity:1;fill-rule:evenodd;stroke:none;stroke-width:1px;stroke-linecap:butt;stroke-linejoin:miter;stroke-miterlimit:4;stroke-dasharray:none;stroke-dashoffset:0;stroke-opacity:1;color-rendering:auto;image-rendering:auto;shape-rendering:auto;text-rendering:auto;enable-background:accumulate" d="m 48.467623,998.1136 -0.707031,0.707 1.050781,1.0508 0.707031,-0.707 -1.050781,-1.0508 z" id="path7480-2" inkscape:connector-curvature="0"/>
      <path style="color:#000000;font-style:normal;font-variant:normal;font-weight:normal;font-stretch:normal;font-size:medium;line-height:normal;font-family:sans-serif;text-indent:0;text-align:start;text-decoration:none;text-decoration-line:none;text-decoration-style:solid;text-decoration-color:#000000;letter-spacing:normal;word-spacing:normal;text-transform:none;direction:ltr;block-progression:tb;writing-mode:lr-tb;baseline-shift:baseline;text-anchor:start;white-space:normal;clip-rule:nonzero;display:inline;overflow:visible;visibility:visible;opacity:1;isolation:auto;mix-blend-mode:normal;color-interpolation:sRGB;color-interpolation-filters:linearRGB;solid-color:#000000;solid-opacity:1;fill:#0e7bff;fill-opacity:1;fill-rule:evenodd;stroke:none;stroke-width:1.00000012px;stroke-linecap:butt;stroke-linejoin:miter;stroke-miterlimit:4;stroke-dasharray:none;stroke-dashoffset:0;stroke-opacity:1;color-rendering:auto;image-rendering:auto;shape-rendering:auto;text-rendering:auto;enable-background:accumulate" d="m 15.880257,1016.9474 -0.707086,0.7071 2.121321,2.1213 0.707085,-0.7071 -2.12132,-2.1213 z" id="path7484-1" inkscape:connector-curvature="0"/>
      <path style="color:#000000;font-style:normal;font-variant:normal;font-weight:normal;font-stretch:normal;font-size:medium;line-height:normal;font-family:sans-serif;text-indent:0;text-align:start;text-decoration:none;text-decoration-line:none;text-decoration-style:solid;text-decoration-color:#000000;letter-spacing:normal;word-spacing:normal;text-transform:none;direction:ltr;block-progression:tb;writing-mode:lr-tb;baseline-shift:baseline;text-anchor:start;white-space:normal;clip-rule:nonzero;display:inline;overflow:visible;visibility:visible;opacity:1;isolation:auto;mix-blend-mode:normal;color-interpolation:sRGB;color-interpolation-filters:linearRGB;solid-color:#000000;solid-opacity:1;fill:#0e7bff;fill-opacity:1;fill-rule:evenodd;stroke:none;stroke-width:1.00000012px;stroke-linecap:butt;stroke-linejoin:miter;stroke-miterlimit:4;stroke-dasharray:none;stroke-dashoffset:0;stroke-opacity:1;color-rendering:auto;image-rendering:auto;shape-rendering:auto;text-rendering:auto;enable-background:accumulate" d="m 17.294471,1016.9474 -2.1213,2.1213 0.707107,0.7071 2.121299,-2.1213 -0.707106,-0.7071 z" id="path7486-4" inkscape:connector-curvature="0"/>
      <path style="color:#000000;font-style:normal;font-variant:normal;font-weight:normal;font-stretch:normal;font-size:medium;line-height:normal;font-family:sans-serif;text-indent:0;text-align:start;text-decoration:none;text-decoration-line:none;text-decoration-style:solid;text-decoration-color:#000000;letter-spacing:normal;word-spacing:normal;text-transform:none;direction:ltr;block-progression:tb;writing-mode:lr-tb;baseline-shift:baseline;text-anchor:start;white-space:normal;clip-rule:nonzero;display:inline;overflow:visible;visibility:visible;opacity:1;isolation:auto;mix-blend-mode:normal;color-interpolation:sRGB;color-interpolation-filters:linearRGB;solid-color:#000000;solid-opacity:1;fill:#0e7bff;fill-opacity:1;fill-rule:evenodd;stroke:none;stroke-width:1.00000012px;stroke-linecap:butt;stroke-linejoin:miter;stroke-miterlimit:4;stroke-dasharray:none;stroke-dashoffset:0;stroke-opacity:1;color-rendering:auto;image-rendering:auto;shape-rendering:auto;text-rendering:auto;enable-background:accumulate" d="m 34.000982,1029.3614 0,1 3,0 0,-1 -3,0 z" id="path7393-4-6" inkscape:connector-curvature="0"/>
      <path style="color:#000000;font-style:normal;font-variant:normal;font-weight:normal;font-stretch:normal;font-size:medium;line-height:normal;font-family:sans-serif;text-indent:0;text-align:start;text-decoration:none;text-decoration-line:none;text-decoration-style:solid;text-decoration-color:#000000;letter-spacing:normal;word-spacing:normal;text-transform:none;direction:ltr;block-progression:tb;writing-mode:lr-tb;baseline-shift:baseline;text-anchor:start;white-space:normal;clip-rule:nonzero;display:inline;overflow:visible;visibility:visible;opacity:1;isolation:auto;mix-blend-mode:normal;color-interpolation:sRGB;color-interpolation-filters:linearRGB;solid-color:#000000;solid-opacity:1;fill:#0e7bff;fill-opacity:1;fill-rule:evenodd;stroke:none;stroke-width:1.00000012px;stroke-linecap:butt;stroke-linejoin:miter;stroke-miterlimit:4;stroke-dasharray:none;stroke-dashoffset:0;stroke-opacity:1;color-rendering:auto;image-rendering:auto;shape-rendering:auto;text-rendering:auto;enable-background:accumulate" d="m 35.000982,1028.3614 0,3 1,0 0,-3 -1,0 z" id="path7395-8-2" inkscape:connector-curvature="0"/>
      <path inkscape:connector-curvature="0" id="circle7409-3-6" d="m 47.000984,1018.8623 a 0.50000232,0.50000232 0 0 1 -0.500002,0.5 0.50000232,0.50000232 0 0 1 -0.500002,-0.5 0.50000232,0.50000232 0 0 1 0.500002,-0.5 0.50000232,0.50000232 0 0 1 0.500002,0.5 z" style="color:#000000;clip-rule:nonzero;display:inline;overflow:visible;visibility:visible;opacity:1;isolation:auto;mix-blend-mode:normal;color-interpolation:sRGB;color-interpolation-filters:linearRGB;solid-color:#000000;solid-opacity:1;fill:#0e7bff;fill-opacity:1;fill-rule:nonzero;stroke:none;stroke-width:0.99999994;stroke-linecap:round;stroke-linejoin:round;stroke-miterlimit:4;stroke-dasharray:none;stroke-dashoffset:0;stroke-opacity:1;color-rendering:auto;image-rendering:auto;shape-rendering:auto;text-rendering:auto;enable-background:accumulate"/>
      <path inkscape:connector-curvature="0" id="circle7409-7-6-6" d="m 37.000984,1004.8621 a 0.50000232,0.50000232 0 0 1 -0.500002,0.5 0.50000232,0.50000232 0 0 1 -0.500002,-0.5 0.50000232,0.50000232 0 0 1 0.500002,-0.5 0.50000232,0.50000232 0 0 1 0.500002,0.5 z" style="color:#000000;clip-rule:nonzero;display:inline;overflow:visible;visibility:visible;opacity:1;isolation:auto;mix-blend-mode:normal;color-interpolation:sRGB;color-interpolation-filters:linearRGB;solid-color:#000000;solid-opacity:1;fill:#0e7bff;fill-opacity:1;fill-rule:nonzero;stroke:none;stroke-width:0.99999994;stroke-linecap:round;stroke-linejoin:round;stroke-miterlimit:4;stroke-dasharray:none;stroke-dashoffset:0;stroke-opacity:1;color-rendering:auto;image-rendering:auto;shape-rendering:auto;text-rendering:auto;enable-background:accumulate"/>
      <path inkscape:connector-curvature="0" id="rect7224" d="m 22.000712,1008.3616 c -1.099351,0 -2,0.9007 -2,2 l 0,12 c 0,1.0994 0.900649,2 2,2 l 20,0 c 1.099351,0 2,-0.9006 2,-2 l 0,-12 c 0,-1.0993 -0.900649,-2 -2,-2 l -20,0 z m 0,1 20,0 c 0.562649,0 1,0.4374 1,1 l 0,12 c 0,0.5627 -0.437351,1 -1,1 l -20,0 c -0.562649,0 -1,-0.4373 -1,-1 l 0,-12 c 0,-0.5626 0.437351,-1 1,-1 z" style="color:#000000;font-style:normal;font-variant:normal;font-weight:normal;font-stretch:normal;font-size:medium;line-height:normal;font-family:sans-serif;text-indent:0;text-align:start;text-decoration:none;text-decoration-line:none;text-decoration-style:solid;text-decoration-color:#000000;letter-spacing:normal;word-spacing:normal;text-transform:none;direction:ltr;block-progression:tb;writing-mode:lr-tb;baseline-shift:baseline;text-anchor:start;white-space:normal;clip-rule:nonzero;display:inline;overflow:visible;visibility:visible;opacity:1;isolation:auto;mix-blend-mode:normal;color-interpolation:sRGB;color-interpolation-filters:linearRGB;solid-color:#000000;solid-opacity:1;fill:#0e7bff;fill-opacity:1;fill-rule:nonzero;stroke:none;stroke-width:0.99999994;stroke-linecap:butt;stroke-linejoin:miter;stroke-miterlimit:4;stroke-dasharray:none;stroke-dashoffset:0;stroke-opacity:1;color-rendering:auto;image-rendering:auto;shape-rendering:auto;text-rendering:auto;enable-background:accumulate"/>
      <path inkscape:connector-curvature="0" id="path7226" d="m 22.000712,1008.3616 c -1.099351,0 -2,0.9007 -2,2 l 0,1 c 0,0.5616 0.283139,1.0317 0.640625,1.3301 0.357486,0.2984 0.776151,0.4756 1.173828,0.6348 l 10,4 a 0.50004997,0.50004997 0 0 0 0.371094,0 l 10,-4 c 0.367949,-0.1473 0.786397,-0.3251 1.148437,-0.6231 0.362041,-0.298 0.666016,-0.7679 0.666016,-1.3418 l 0,-1 c 0,-1.0993 -0.900649,-2 -2,-2 l -20,0 z m 0,1 20,0 c 0.562649,0 1,0.4374 1,1 l 0,1 c 0,0.2571 -0.09033,0.3971 -0.300781,0.5703 -0.21045,0.1732 -0.542675,0.3299 -0.884766,0.4668 l -9.814453,3.9258 -9.814453,-3.9258 c -0.373873,-0.1496 -0.70467,-0.3079 -0.904297,-0.4746 -0.199627,-0.1666 -0.28125,-0.2931 -0.28125,-0.5625 l 0,-1 c 0,-0.5626 0.437351,-1 1,-1 z" style="color:#000000;font-style:normal;font-variant:normal;font-weight:normal;font-stretch:normal;font-size:medium;line-height:normal;font-family:sans-serif;text-indent:0;text-align:start;text-decoration:none;text-decoration-line:none;text-decoration-style:solid;text-decoration-color:#000000;letter-spacing:normal;word-spacing:normal;text-transform:none;direction:ltr;block-progression:tb;writing-mode:lr-tb;baseline-shift:baseline;text-anchor:start;white-space:normal;clip-rule:nonzero;display:inline;overflow:visible;visibility:visible;opacity:1;isolation:auto;mix-blend-mode:normal;color-interpolation:sRGB;color-interpolation-filters:linearRGB;solid-color:#000000;solid-opacity:1;fill:#0e7bff;fill-opacity:1;fill-rule:nonzero;stroke:none;stroke-width:0.99999994;stroke-linecap:round;stroke-linejoin:round;stroke-miterlimit:4;stroke-dasharray:none;stroke-dashoffset:0;stroke-opacity:1;color-rendering:auto;image-rendering:auto;shape-rendering:auto;text-rendering:auto;enable-background:accumulate"/>
      <path id="circle5971-6" d="m 45.50098,1008.3621 a 2.5,2.5 0 0 1 -2.5,2.5 2.5,2.5 0 0 1 -2.5,-2.5 2.5,2.5 0 0 1 2.5,-2.5 2.5,2.5 0 0 1 2.5,2.5 z" style="fill:#6ca6fd;fill-opacity:1;stroke:none;stroke-width:1;stroke-opacity:1"/>
      <path inkscape:connector-curvature="0" id="path5973-7" d="m 42.992899,1007.3557 a 0.50005,0.50005 0 0 0 -0.492187,0.5059 l 0,1 a 0.50005,0.50005 0 1 0 1,0 l 0,-1 a 0.50005,0.50005 0 0 0 -0.507813,-0.5059 z" style="color:#000000;font-style:normal;font-variant:normal;font-weight:normal;font-stretch:normal;font-size:medium;line-height:normal;font-family:sans-serif;text-indent:0;text-align:start;text-decoration:none;text-decoration-line:none;text-decoration-style:solid;text-decoration-color:#000000;letter-spacing:normal;word-spacing:normal;text-transform:none;direction:ltr;block-progression:tb;writing-mode:lr-tb;baseline-shift:baseline;text-anchor:start;white-space:normal;clip-rule:nonzero;display:inline;overflow:visible;visibility:visible;opacity:1;isolation:auto;mix-blend-mode:normal;color-interpolation:sRGB;color-interpolation-filters:linearRGB;solid-color:#000000;solid-opacity:1;fill:#0e7bff;fill-opacity:1;fill-rule:evenodd;stroke:none;stroke-width:1px;stroke-linecap:round;stroke-linejoin:round;stroke-miterlimit:4;stroke-dasharray:none;stroke-dashoffset:0;stroke-opacity:1;color-rendering:auto;image-rendering:auto;shape-rendering:auto;text-rendering:auto;enable-background:accumulate"/>
      <path inkscape:connector-curvature="0" id="circle7236" d="m 43.000712,1005.3616 c -1.650932,0 -3,1.3491 -3,3 0,1.6509 1.349068,3 3,3 1.650932,0 3,-1.3491 3,-3 0,-1.6509 -1.349068,-3 -3,-3 z m 0,1 c 1.110492,0 2,0.8895 2,2 0,1.1105 -0.889508,2 -2,2 -1.110492,0 -2,-0.8895 -2,-2 0,-1.1105 0.889508,-2 2,-2 z" style="color:#000000;font-style:normal;font-variant:normal;font-weight:normal;font-stretch:normal;font-size:medium;line-height:normal;font-family:sans-serif;text-indent:0;text-align:start;text-decoration:none;text-decoration-line:none;text-decoration-style:solid;text-decoration-color:#000000;letter-spacing:normal;word-spacing:normal;text-transform:none;direction:ltr;block-progression:tb;writing-mode:lr-tb;baseline-shift:baseline;text-anchor:start;white-space:normal;clip-rule:nonzero;display:inline;overflow:visible;visibility:visible;opacity:1;isolation:auto;mix-blend-mode:normal;color-interpolation:sRGB;color-interpolation-filters:linearRGB;solid-color:#000000;solid-opacity:1;fill:#0e7bff;fill-opacity:1;fill-rule:nonzero;stroke:none;stroke-width:1;stroke-linecap:butt;stroke-linejoin:miter;stroke-miterlimit:4;stroke-dasharray:none;stroke-dashoffset:0;stroke-opacity:1;color-rendering:auto;image-rendering:auto;shape-rendering:auto;text-rendering:auto;enable-background:accumulate"/>
      <path id="rect6072-3" d="m 39.040303,1021.8677 6.94017,0 c 0.288364,0 0.520513,0.2227 0.520513,0.4994 l 0,3.9956 c 0,0.2767 -0.232149,0.4994 -0.520513,0.4994 l -6.94017,0 c -0.288364,0 -0.520512,-0.2227 -0.520512,-0.4994 l 0,-3.9956 c 0,-0.2767 0.232148,-0.4994 0.520512,-0.4994 z" style="fill:#b2cdf8;fill-opacity:1;stroke:none;stroke-width:1;stroke-opacity:1"/>
      <path sodipodi:nodetypes="ssssscssss" inkscape:connector-curvature="0" id="path6081-9" d="m 39.040301,1021.8679 6.94017,0 c 0.288364,0 0.520513,0.2227 0.520513,0.4994 l 0,0.333 c 0,0.2767 -0.274122,0.4048 -0.520513,0.4994 l -3.470085,1.3319 -3.470085,-1.3319 c -0.267736,-0.1028 -0.520512,-0.2227 -0.520512,-0.4994 l 0,-0.333 c 0,-0.2767 0.232148,-0.4994 0.520512,-0.4994 z" style="fill:#dae7fc;fill-opacity:1;stroke:#1c4d7e;stroke-width:1;stroke-linecap:round;stroke-linejoin:round;stroke-opacity:1"/>
      <path inkscape:connector-curvature="0" id="rect7243" d="m 39.039774,1021.3675 c -0.545908,0 -1.019531,0.4436 -1.019531,1 l 0,3.9961 c 0,0.5563 0.473738,0.998 1.019531,0.998 l 6.941407,0 c 0.545793,0 1.019531,-0.4417 1.019531,-0.998 l 0,-3.9961 c 0,-0.5564 -0.473622,-1 -1.019531,-1 l -6.941407,0 z m -0.01953,1 c 0,0 -0.01129,0 0.01953,0 l 6.941407,0 c 0.03082,0 0.01953,0 0.01953,0 l 0,3.9961 c 0,0 0.0114,0 -0.01953,0 l -6.941407,0 c -0.03093,0 -0.01953,0 -0.01953,0 l 0,-3.9961 z" style="color:#000000;font-style:normal;font-variant:normal;font-weight:normal;font-stretch:normal;font-size:medium;line-height:normal;font-family:sans-serif;text-indent:0;text-align:start;text-decoration:none;text-decoration-line:none;text-decoration-style:solid;text-decoration-color:#000000;letter-spacing:normal;word-spacing:normal;text-transform:none;direction:ltr;block-progression:tb;writing-mode:lr-tb;baseline-shift:baseline;text-anchor:start;white-space:normal;clip-rule:nonzero;display:inline;overflow:visible;visibility:visible;opacity:1;isolation:auto;mix-blend-mode:normal;color-interpolation:sRGB;color-interpolation-filters:linearRGB;solid-color:#000000;solid-opacity:1;fill:#0e7bff;fill-opacity:1;fill-rule:nonzero;stroke:none;stroke-width:1;stroke-linecap:butt;stroke-linejoin:miter;stroke-miterlimit:4;stroke-dasharray:none;stroke-dashoffset:0;stroke-opacity:1;color-rendering:auto;image-rendering:auto;shape-rendering:auto;text-rendering:auto;enable-background:accumulate"/>
      <path inkscape:connector-curvature="0" id="path7245" d="m 39.039774,1021.3675 c -0.545793,0 -1.019531,0.4436 -1.019531,1 l 0,0.332 c 0,0.2906 0.171396,0.5639 0.347656,0.7051 0.176261,0.1411 0.348703,0.2059 0.494141,0.2617 l 3.46875,1.332 a 0.50005,0.50005 0 0 0 0.359375,0 l 3.46875,-1.332 c 0.135773,-0.052 0.308669,-0.1171 0.484375,-0.2559 0.175706,-0.1387 0.357422,-0.4074 0.357422,-0.7109 l 0,-0.332 c 0,-0.5564 -0.473738,-1 -1.019531,-1 l -6.941407,0 z m -0.01953,1 c 0,0 -0.0114,0 0.01953,0 l 6.941407,0 c 0.03093,0 0.01953,0 0.01953,0 l 0,0.2695 c -0.03249,0.021 -0.100324,0.058 -0.199219,0.096 l -3.291014,1.2634 -3.291016,-1.2637 c -0.10739,-0.041 -0.169535,-0.075 -0.199219,-0.094 l 0,-0.2714 z" style="color:#000000;font-style:normal;font-variant:normal;font-weight:normal;font-stretch:normal;font-size:medium;line-height:normal;font-family:sans-serif;text-indent:0;text-align:start;text-decoration:none;text-decoration-line:none;text-decoration-style:solid;text-decoration-color:#000000;letter-spacing:normal;word-spacing:normal;text-transform:none;direction:ltr;block-progression:tb;writing-mode:lr-tb;baseline-shift:baseline;text-anchor:start;white-space:normal;clip-rule:nonzero;display:inline;overflow:visible;visibility:visible;opacity:1;isolation:auto;mix-blend-mode:normal;color-interpolation:sRGB;color-interpolation-filters:linearRGB;solid-color:#000000;solid-opacity:1;fill:#0e7bff;fill-opacity:1;fill-rule:nonzero;stroke:none;stroke-width:1;stroke-linecap:round;stroke-linejoin:round;stroke-miterlimit:4;stroke-dasharray:none;stroke-dashoffset:0;stroke-opacity:1;color-rendering:auto;image-rendering:auto;shape-rendering:auto;text-rendering:auto;enable-background:accumulate"/>
    </g>
  </g>

	
	<metadata>
		<rdf:RDF xmlns:rdf="http://www.w3.org/1999/02/22-rdf-syntax-ns#" xmlns:rdfs="http://www.w3.org/2000/01/rdf-schema#" xmlns:dc="http://purl.org/dc/elements/1.1/">
			<rdf:Description about="https://iconscout.com/legal#licenses" dc:title="Mobile, Concept, Email, Mail, Letter, Message, Text" dc:description="Mobile, Concept, Email, Mail, Letter, Message, Text" dc:publisher="Iconscout" dc:date="2016-12-14" dc:format="image/svg+xml" dc:language="en">
				<dc:creator>
					<rdf:Bag>
						<rdf:li>Jemis Mali</rdf:li>
					</rdf:Bag>
				</dc:creator>
			</rdf:Description>
		</rdf:RDF>
    </metadata></svg>
