<?xml version="1.0" encoding="UTF-8" standalone="no"?>
<svg xmlns:dc="http://purl.org/dc/elements/1.1/" xmlns:cc="http://creativecommons.org/ns#" xmlns:rdf="http://www.w3.org/1999/02/22-rdf-syntax-ns#" xmlns:svg="http://www.w3.org/2000/svg" xmlns="http://www.w3.org/2000/svg" xmlns:sodipodi="http://sodipodi.sourceforge.net/DTD/sodipodi-0.dtd" xmlns:inkscape="http://www.inkscape.org/namespaces/inkscape" width="64" height="64" viewBox="0 0 64 64.000002" id="svg6959" version="1.1" inkscape:version="0.91 r13725" sodipodi:docname="2 mobile concept package open box logistic smartphone.svg">
  <defs id="defs6961">
    <clipPath id="clipPath4843-9-5-9-0" clipPathUnits="userSpaceOnUse">
      <rect style="color:#000000;clip-rule:nonzero;display:inline;overflow:visible;visibility:visible;opacity:1;isolation:auto;mix-blend-mode:normal;color-interpolation:sRGB;color-interpolation-filters:linearRGB;solid-color:#000000;solid-opacity:1;fill:#e9eded;fill-opacity:1;fill-rule:nonzero;stroke:#66124a;stroke-width:0.99999994;stroke-linecap:round;stroke-linejoin:round;stroke-miterlimit:0;stroke-dasharray:none;stroke-dashoffset:0;stroke-opacity:1;color-rendering:auto;image-rendering:auto;shape-rendering:auto;text-rendering:auto;enable-background:accumulate" id="rect4845-9-2-3-3" width="59.499996" height="59.499996" x="103.25" y="1110.8622" rx="29.749998" ry="29.749998" inkscape:export-xdpi="1999.9993" inkscape:export-ydpi="1999.9993"/>
    </clipPath>
  </defs>
  <sodipodi:namedview id="base" pagecolor="#ffffff" bordercolor="#666666" borderopacity="1.0" inkscape:pageopacity="0.0" inkscape:pageshadow="2" inkscape:zoom="5.6" inkscape:cx="7.9304175" inkscape:cy="-5.5777565" inkscape:document-units="px" inkscape:current-layer="layer1" showgrid="true" units="px" inkscape:snap-bbox="true" inkscape:bbox-paths="true" inkscape:bbox-nodes="true" inkscape:snap-bbox-edge-midpoints="true" inkscape:snap-bbox-midpoints="true" inkscape:window-width="1366" inkscape:window-height="705" inkscape:window-x="-8" inkscape:window-y="-8" inkscape:window-maximized="1">
    <inkscape:grid type="xygrid" id="grid6967"/>
  </sodipodi:namedview>
  
  <g inkscape:label="Layer 1" inkscape:groupmode="layer" id="layer1" transform="translate(0,-988.3622)">
    <g id="g7840" transform="translate(-55.807488,-909.8103)">
      <path sodipodi:nodetypes="cssssc" inkscape:connector-curvature="0" id="path5779-5" d="m 117.30952,1945.7641 0,3.4547 c 0,1.9138 -1.52991,3.4546 -3.43029,3.4546 l -52.141014,0 c -1.90038,0 -3.4588,-1.5411 -3.43029,-3.4546 l 0.0515,-3.4547" style="fill:#b2cdf8;fill-opacity:1;fill-rule:evenodd;stroke:none;stroke-width:0.99999994px;stroke-linecap:butt;stroke-linejoin:round;stroke-opacity:1"/>
      <path style="color:#000000;font-style:normal;font-variant:normal;font-weight:normal;font-stretch:normal;font-size:medium;line-height:normal;font-family:sans-serif;text-indent:0;text-align:start;text-decoration:none;text-decoration-line:none;text-decoration-style:solid;text-decoration-color:#000000;letter-spacing:normal;word-spacing:normal;text-transform:none;direction:ltr;block-progression:tb;writing-mode:lr-tb;baseline-shift:baseline;text-anchor:start;white-space:normal;clip-rule:nonzero;display:inline;overflow:visible;visibility:visible;opacity:1;isolation:auto;mix-blend-mode:normal;color-interpolation:sRGB;color-interpolation-filters:linearRGB;solid-color:#000000;solid-opacity:1;fill:#0e7bff;fill-opacity:1;fill-rule:evenodd;stroke:none;stroke-width:0.99999994px;stroke-linecap:butt;stroke-linejoin:round;stroke-miterlimit:4;stroke-dasharray:none;stroke-dashoffset:0;stroke-opacity:1;color-rendering:auto;image-rendering:auto;shape-rendering:auto;text-rendering:auto;enable-background:accumulate" d="m 57.858706,1945.7565 -0.05078,3.4551 c -0.0326,2.1889 1.75899,3.9609 3.92969,3.9609 l 52.142584,0 c 2.17064,0 3.92968,-1.7728 3.92968,-3.9531 l 0,-3.4551 -1,0 0,3.4551 c 0,1.6473 -1.29957,2.9531 -2.92968,2.9531 l -52.142584,0 c -1.63007,0 -2.9541,-1.3072 -2.92969,-2.9453 l 0.0508,-3.4551 -1,-0.016 z" id="path5781-7" inkscape:connector-curvature="0"/>
      <path sodipodi:nodetypes="cssccsccscc" inkscape:connector-curvature="0" id="path5783-7" d="m 115.27784,1927.8 c 0,-1.5311 -1.22394,-2.7637 -2.74426,-2.7637 l -49.396734,0 c -1.52031,0 -2.74424,1.2326 -2.74424,2.7637 l -2.03103,17.9641 c 0,2.0728 1.13605,4.1456 3.78975,4.1456 l 25.16333,0 3.36885,0 22.424624,0 c 2.65561,0 4.20139,-2.0728 4.20139,-4.1456 z" style="fill:#ffffff;fill-opacity:1;stroke:none;stroke-width:0.99999994;stroke-linecap:butt;stroke-linejoin:miter;stroke-opacity:1"/>
      <path style="fill:#b2cdf8;fill-opacity:1;fill-rule:evenodd;stroke:none;stroke-width:0.99999994px;stroke-linecap:round;stroke-linejoin:round;stroke-opacity:1" d="m 108.16256,1925.2274 1.37213,21.9186 -43.816784,0 1.37213,-21.9186" id="path5785-3" inkscape:connector-curvature="0" sodipodi:nodetypes="cccc"/>
      <path sodipodi:nodetypes="ccc" inkscape:connector-curvature="0" id="path6176" d="m 108.16256,1925.2274 1.37213,21.9186 -43.816784,0" style="fill:#6ca6fd;fill-opacity:1;fill-rule:evenodd;stroke:none;stroke-width:0.99999994px;stroke-linecap:round;stroke-linejoin:round;stroke-opacity:1"/>
      <path style="fill:#6ca6fd;fill-opacity:1;fill-rule:evenodd;stroke:none;stroke-width:0.99999994px;stroke-linecap:round;stroke-linejoin:round;stroke-opacity:1" d="m 66.589016,1925.3284 -1.37109,22.318 44.316144,0 -0.15429,-1.9726 -40.972014,0 c -1.1,0 -1.03968,-0.9932 -1.03968,-0.9932 l 1.15806,-19.3522 z" id="path5787-1" inkscape:connector-curvature="0" sodipodi:nodetypes="cccccccc"/>
      <path style="color:#000000;font-style:normal;font-variant:normal;font-weight:normal;font-stretch:normal;font-size:medium;line-height:normal;font-family:sans-serif;text-indent:0;text-align:start;text-decoration:none;text-decoration-line:none;text-decoration-style:solid;text-decoration-color:#000000;letter-spacing:normal;word-spacing:normal;text-transform:none;direction:ltr;block-progression:tb;writing-mode:lr-tb;baseline-shift:baseline;text-anchor:start;white-space:normal;clip-rule:nonzero;display:inline;overflow:visible;visibility:visible;opacity:1;isolation:auto;mix-blend-mode:normal;color-interpolation:sRGB;color-interpolation-filters:linearRGB;solid-color:#000000;solid-opacity:1;fill:#0e7bff;fill-opacity:1;fill-rule:evenodd;stroke:none;stroke-width:0.99999994px;stroke-linecap:butt;stroke-linejoin:miter;stroke-miterlimit:4;stroke-dasharray:none;stroke-dashoffset:0;stroke-opacity:1;color-rendering:auto;image-rendering:auto;shape-rendering:auto;text-rendering:auto;enable-background:accumulate" d="m 62.839176,1933.9694 -0.41211,4.1445 0.99414,0.1 0.41211,-4.1464 -0.99414,-0.098 z" id="path5789-3" inkscape:connector-curvature="0"/>
      <path style="fill:#0e7bff;fill-opacity:1;stroke:none;stroke-linecap:butt;stroke-linejoin:miter;stroke-opacity:1" d="m 63.339586,1940.2366 a 0.68606508,0.69092786 0 0 1 -0.68606,0.6909 0.68606508,0.69092786 0 0 1 -0.68607,-0.6909 0.68606508,0.69092786 0 0 1 0.68607,-0.6909 0.68606508,0.69092786 0 0 1 0.68606,0.6909 z" id="ellipse5791-6" inkscape:connector-curvature="0"/>
      <path id="path5793-3" d="m 112.6539,1925.0679 c 1.37717,0.1505 2.44727,1.3041 2.44727,2.7324 l 2.03125,17.9649 c 0,2.0728 -1.13732,4.1445 -3.79102,4.1445 l -25.162114,0 -3.36914,0 -22.42578,0 c -1.63243,0 -2.83573,-0.7868 -3.52344,-1.8731 0.33752,0.081 0.69246,0.1368 1.07813,0.1368 l 22.42382,0 3.36915,0 25.164064,0 c 2.6537,0 3.78906,-2.0737 3.78906,-4.1465 l -0.043,-0.3848 c 0.0227,-0.2034 0.043,-0.4078 0.043,-0.6133 l -2.03125,-17.9609 z" style="fill:#dae7fc;fill-opacity:1;stroke:none;stroke-width:0.99999994;stroke-linecap:butt;stroke-linejoin:miter;stroke-opacity:1" inkscape:connector-curvature="0"/>
      <path inkscape:connector-curvature="0" style="fill:#dae7fc;fill-opacity:1;stroke:none;stroke-width:0.99999994;stroke-linecap:butt;stroke-linejoin:miter;stroke-opacity:1" d="m 62.839176,1925.0679 c -1.37717,0.1505 -2.44727,1.3041 -2.44727,2.7324 l -2.03125,17.9649 c 0,2.0728 1.13732,4.1445 3.79102,4.1445 l 25.16211,0 3.36914,0 22.425784,0 c 1.63243,0 2.83573,-0.7868 3.52344,-1.8731 -0.33752,0.081 -0.69246,0.1368 -1.07813,0.1368 l -22.423824,0 -3.36915,0 -25.16406,0 c -2.6537,0 -3.78906,-2.0737 -3.78906,-4.1465 l 0.043,-0.3848 c -0.0227,-0.2034 -0.043,-0.4078 -0.043,-0.6133 l 2.03125,-17.9609 z" id="path5795-8"/>
      <path style="fill:#498ffd;fill-opacity:1;fill-rule:evenodd;stroke:none;stroke-width:0.99999994px;stroke-linecap:round;stroke-linejoin:round;stroke-opacity:1" d="m 68.566406,1945.6747 -2.847656,1.4707 43.77539,0 -0.11523,-1.4707 -40.812504,0 z" id="path6178" inkscape:connector-curvature="0"/>
      <path style="color:#000000;font-style:normal;font-variant:normal;font-weight:normal;font-stretch:normal;font-size:medium;line-height:normal;font-family:sans-serif;text-indent:0;text-align:start;text-decoration:none;text-decoration-line:none;text-decoration-style:solid;text-decoration-color:#000000;letter-spacing:normal;word-spacing:normal;text-transform:none;direction:ltr;block-progression:tb;writing-mode:lr-tb;baseline-shift:baseline;text-anchor:start;white-space:normal;clip-rule:nonzero;display:inline;overflow:visible;visibility:visible;opacity:1;isolation:auto;mix-blend-mode:normal;color-interpolation:sRGB;color-interpolation-filters:linearRGB;solid-color:#000000;solid-opacity:1;fill:#0e7bff;fill-opacity:1;fill-rule:evenodd;stroke:none;stroke-width:0.99999994px;stroke-linecap:round;stroke-linejoin:round;stroke-miterlimit:4;stroke-dasharray:none;stroke-dashoffset:0;stroke-opacity:1;color-rendering:auto;image-rendering:auto;shape-rendering:auto;text-rendering:auto;enable-background:accumulate" d="m 67.063786,1924.7214 a 0.50004997,0.50004997 0 0 0 -0.47266,0.4746 l -1.37304,21.9179 a 0.50004997,0.50004997 0 0 0 0.5,0.5313 l 43.816404,0 a 0.50004997,0.50004997 0 0 0 0.5,-0.5313 l -1.37304,-21.9179 a 0.50004997,0.50004997 0 1 0 -0.99805,0.062 l 1.33984,21.3867 -42.753904,0 1.33984,-21.3867 a 0.50004997,0.50004997 0 0 0 -0.52539,-0.5371 z" id="path5797-9" inkscape:connector-curvature="0"/>
      <path style="color:#000000;font-style:normal;font-variant:normal;font-weight:normal;font-stretch:normal;font-size:medium;line-height:normal;font-family:sans-serif;text-indent:0;text-align:start;text-decoration:none;text-decoration-line:none;text-decoration-style:solid;text-decoration-color:#000000;letter-spacing:normal;word-spacing:normal;text-transform:none;direction:ltr;block-progression:tb;writing-mode:lr-tb;baseline-shift:baseline;text-anchor:start;white-space:normal;clip-rule:nonzero;display:inline;overflow:visible;visibility:visible;opacity:1;isolation:auto;mix-blend-mode:normal;color-interpolation:sRGB;color-interpolation-filters:linearRGB;solid-color:#000000;solid-opacity:1;fill:#0e7bff;fill-opacity:1;fill-rule:nonzero;stroke:none;stroke-width:0.99999994;stroke-linecap:butt;stroke-linejoin:miter;stroke-miterlimit:4;stroke-dasharray:none;stroke-dashoffset:0;stroke-opacity:1;color-rendering:auto;image-rendering:auto;shape-rendering:auto;text-rendering:auto;enable-background:accumulate" d="m 63.136046,1924.5358 c -1.79056,0 -3.24414,1.4661 -3.24414,3.2637 l 0.004,-0.055 -2.03516,17.9902 0,0.029 c 0,1.1278 0.30424,2.272 1.00782,3.1602 0.70357,0.8882 1.82617,1.4844 3.2832,1.4844 l 25.16211,0 3.36914,0 22.425784,0 c 2.91579,0 4.70117,-2.3232 4.70117,-4.6446 l 0,-0.029 -2.03515,-17.9922 0.004,0.057 c 0,-1.7976 -1.45357,-3.2637 -3.24414,-3.2637 l -49.398444,0 z m 0,1 49.398444,0 c 1.25007,0 2.24414,0.999 2.24414,2.2637 l 0,0.029 0.002,0.027 2.02734,17.9239 c -0.008,1.8189 -1.3107,3.6289 -3.69922,3.6289 l -22.425784,0 -3.36914,0 -25.16211,0 c -1.19667,0 -1.97017,-0.4391 -2.49805,-1.1055 -0.52579,-0.6638 -0.78699,-1.5881 -0.78906,-2.5293 l 2.02734,-17.9453 0,-0.029 c 0,-1.2647 0.99409,-2.2637 2.24414,-2.2637 z" id="path5799-4" inkscape:connector-curvature="0"/>
      <path inkscape:connector-curvature="0" id="path8327" d="m 112.18243,1936.5016 c 0.53264,0.011 1.02221,0.4443 1.10226,0.9918 0.0801,0.5476 -0.28548,0.9626 -0.8181,0.9514 -0.53262,-0.011 -1.02217,-0.4442 -1.10226,-0.9918 -0.0801,-0.5475 0.28545,-0.9626 0.8181,-0.9514 z" style="color:#000000;font-style:normal;font-variant:normal;font-weight:normal;font-stretch:normal;font-size:medium;line-height:normal;font-family:sans-serif;text-indent:0;text-align:start;text-decoration:none;text-decoration-line:none;text-decoration-style:solid;text-decoration-color:#000000;letter-spacing:normal;word-spacing:normal;text-transform:none;direction:ltr;block-progression:tb;writing-mode:lr-tb;baseline-shift:baseline;text-anchor:start;white-space:normal;clip-rule:nonzero;display:inline;overflow:visible;visibility:visible;opacity:1;isolation:auto;mix-blend-mode:normal;color-interpolation:sRGB;color-interpolation-filters:linearRGB;solid-color:#000000;solid-opacity:1;fill:#b2cdf8;fill-opacity:1;fill-rule:nonzero;stroke:none;stroke-width:1.00697327;stroke-linecap:butt;stroke-linejoin:miter;stroke-miterlimit:4;stroke-dasharray:none;stroke-dashoffset:0;stroke-opacity:1;color-rendering:auto;image-rendering:auto;shape-rendering:auto;text-rendering:auto;enable-background:accumulate" sodipodi:nodetypes="cccsc"/>
      <path style="color:#000000;font-style:normal;font-variant:normal;font-weight:normal;font-stretch:normal;font-size:medium;line-height:normal;font-family:sans-serif;text-indent:0;text-align:start;text-decoration:none;text-decoration-line:none;text-decoration-style:solid;text-decoration-color:#000000;letter-spacing:normal;word-spacing:normal;text-transform:none;direction:ltr;block-progression:tb;writing-mode:lr-tb;baseline-shift:baseline;text-anchor:start;white-space:normal;clip-rule:nonzero;display:inline;overflow:visible;visibility:visible;opacity:1;isolation:auto;mix-blend-mode:normal;color-interpolation:sRGB;color-interpolation-filters:linearRGB;solid-color:#000000;solid-opacity:1;fill:#0e7bff;fill-opacity:1;fill-rule:nonzero;stroke:none;stroke-width:1.00697327;stroke-linecap:butt;stroke-linejoin:miter;stroke-miterlimit:4;stroke-dasharray:none;stroke-dashoffset:0;stroke-opacity:1;color-rendering:auto;image-rendering:auto;shape-rendering:auto;text-rendering:auto;enable-background:accumulate" d="m 112.04952,1935.5928 c -1.03615,-0.022 -1.7559,0.8121 -1.60545,1.8407 0.15045,1.0285 1.11933,1.8982 2.15543,1.9201 1.03609,0.022 1.75582,-0.8121 1.60545,-1.8407 -0.15039,-1.0285 -1.11928,-1.8982 -2.15543,-1.9201 z m 0.14583,0.9972 c 0.4842,0.01 0.92924,0.4039 1.00201,0.9016 0.0728,0.4978 -0.25952,0.875 -0.74369,0.8648 -0.48418,-0.01 -0.9292,-0.4038 -1.00201,-0.9016 -0.0728,-0.4977 0.25949,-0.875 0.74369,-0.8648 z" id="ellipse5801-2" inkscape:connector-curvature="0"/>
      <path inkscape:connector-curvature="0" id="path7806" d="m 87.626286,1923.4053 0,16.2673 c 0,0 -8.9104,-3.8131 -12.64457,-5.4067 l -0.0105,-0.018 0,-16.2567 0.0105,0.02 12.63332,5.4067 z" style="fill:#b2cdf8;fill-opacity:1;fill-rule:evenodd;stroke:none;stroke-width:1;stroke-linecap:round;stroke-linejoin:round;stroke-miterlimit:4;stroke-dasharray:none;stroke-opacity:1" sodipodi:nodetypes="cccccccc"/>
      <path style="fill:#6ca6fd;fill-opacity:1;fill-rule:evenodd;stroke:none;stroke-width:1;stroke-linecap:round;stroke-linejoin:round;stroke-miterlimit:4;stroke-dasharray:none;stroke-opacity:1" d="m 100.27144,1917.9898 -0.0105,0.02 -12.634284,5.4075 0,16.2561 12.634284,-5.4075 0.0105,-0.02 0,-16.2561 z" id="path7808" inkscape:connector-curvature="0"/>
      <path sodipodi:nodetypes="ccccccc" style="fill:#b2cdf8;fill-opacity:1;fill-rule:evenodd;stroke:none;stroke-width:1;stroke-linecap:round;stroke-linejoin:round;stroke-miterlimit:4;stroke-dasharray:none;stroke-opacity:1" d="m 100.29312,1917.9917 -12.536194,-5.4066 -0.34141,0 -12.44712,5.4066 -2e-5,0.013 12.65791,5.4318 z" id="path7810" inkscape:connector-curvature="0"/>
      <path style="fill:#dae7fc;fill-opacity:1;fill-rule:evenodd;stroke:none;stroke-width:1;stroke-linecap:round;stroke-linejoin:round;stroke-miterlimit:4;stroke-dasharray:none;stroke-opacity:1" d="m 74.957326,1918.0004 -4.33127,4.3345 12.66897,5.418 4.33128,-4.3344 z" id="path7812" inkscape:connector-curvature="0" sodipodi:nodetypes="ccccc"/>
      <path sodipodi:nodetypes="ccccc" inkscape:connector-curvature="0" id="path7814" d="m 91.957566,1908.2481 -4.33126,4.3344 12.668964,5.4179 4.33128,-4.3343 z" style="fill:#dae7fc;fill-opacity:1;fill-rule:evenodd;stroke:none;stroke-width:1;stroke-linecap:round;stroke-linejoin:round;stroke-miterlimit:4;stroke-dasharray:none;stroke-opacity:1"/>
      <path sodipodi:nodetypes="ccccc" inkscape:connector-curvature="0" id="path7816" d="m 100.29527,1918.0004 4.33128,4.3345 -12.668984,5.418 -4.33126,-4.3344 z" style="fill:#dae7fc;fill-opacity:1;fill-rule:evenodd;stroke:none;stroke-width:1;stroke-linecap:round;stroke-linejoin:round;stroke-miterlimit:4;stroke-dasharray:none;stroke-opacity:1"/>
      <path style="fill:#dae7fc;fill-opacity:1;fill-rule:evenodd;stroke:none;stroke-width:1;stroke-linecap:round;stroke-linejoin:round;stroke-miterlimit:4;stroke-dasharray:none;stroke-opacity:1" d="m 83.295026,1908.2481 4.33128,4.3344 -12.66898,5.4179 -4.33127,-4.3343 z" id="path7818" inkscape:connector-curvature="0" sodipodi:nodetypes="ccccc"/>
      <path inkscape:connector-curvature="0" id="path7820" d="m 87.625926,1912.5851 -0.21041,0 -12.44712,5.4066 -2e-5,0.013 12.65791,5.4318 z" style="fill:#f4f7f8;fill-opacity:1;fill-rule:evenodd;stroke:none;stroke-width:1;stroke-linecap:round;stroke-linejoin:round;stroke-miterlimit:4;stroke-dasharray:none;stroke-opacity:1" sodipodi:nodetypes="cccccc"/>
      <path id="path5803-2" transform="translate(0,988.36216)" d="m 83.287109,919.38477 0,0.002 a 0.50005,0.50005 0 0 0 -0.189453,0.041 l -12.667968,5.41797 a 0.50005,0.50005 0 0 0 -0.158204,0.8125 l 3.978516,3.98047 -3.978516,3.98242 a 0.50005,0.50005 0 0 0 0.158204,0.8125 l 4.041015,1.72852 0,9.72461 a 0.50005,0.50005 0 0 0 0.06836,0.25195 l 0.01172,0.0176 a 0.50005,0.50005 0 0 0 0.234375,0.20898 c 3.72467,1.58956 12.573534,5.37474 12.615235,5.39258 9.8e-5,4e-5 0.0293,0.0137 0.0293,0.0137 a 0.50005,0.50005 0 0 0 0.01562,0.006 0.50005,0.50005 0 0 0 0.04883,0.0156 0.50005,0.50005 0 0 0 0.09766,0.0176 0.50005,0.50005 0 0 0 0.0078,0 0.50005,0.50005 0 0 0 0.04297,0 0.50005,0.50005 0 0 0 0.03125,-0.002 0.50005,0.50005 0 0 0 0.01367,-0.002 0.50005,0.50005 0 0 0 0.0039,0 0.50005,0.50005 0 0 0 0.03125,-0.004 0.50005,0.50005 0 0 0 0.01758,-0.004 0.50005,0.50005 0 0 0 0.03125,-0.01 0.50005,0.50005 0 0 0 0.01758,-0.006 0.50005,0.50005 0 0 0 0.0293,-0.01 0.50005,0.50005 0 0 0 0.0059,-0.002 l 12.632807,-5.4082 a 0.50005,0.50005 0 0 0 0.24609,-0.22656 l 0.0117,-0.0215 a 0.50005,0.50005 0 0 0 0.0566,-0.23242 l 0,-9.71679 4.05079,-1.73243 a 0.50005,0.50005 0 0 0 0.1582,-0.8125 l -3.97852,-3.98242 3.97852,-3.98047 a 0.50005,0.50005 0 0 0 -0.1582,-0.8125 l -12.667969,-5.41797 a 0.50005,0.50005 0 0 0 -0.195313,-0.041 0.50005,0.50005 0 0 0 -0.355468,0.14648 l -3.976563,3.98047 -3.978515,-3.98047 a 0.50005,0.50005 0 0 0 -0.361329,-0.14843 z m -0.107421,1.09375 3.572265,3.57421 -11.679687,4.99415 -3.570313,-3.57422 11.677735,-4.99414 z m 8.892578,0 11.679684,4.99414 -3.57031,3.57422 -11.679687,-4.99415 3.570313,-3.57421 z m -4.445313,4.2871 11.396485,4.87305 -11.396485,4.875 -11.396484,-4.87305 11.396484,-4.875 z m -12.556641,5.4668 11.679688,4.99414 -3.570312,3.57227 -11.677735,-4.99414 3.568359,-3.57227 z m 25.111328,0 3.57031,3.57227 -11.679684,4.99414 -3.56836,-3.57227 11.677734,-4.99414 z m -13.054687,6.03125 0,14.29102 c -0.863911,-0.3697 -7.999155,-3.42318 -11.65625,-4.98438 l 0,-8.98047 7.626953,3.26172 a 0.50005,0.50005 0 0 0 0.550782,-0.10742 l 3.478515,-3.48047 z m 1,0 3.476563,3.48047 a 0.50005,0.50005 0 0 0 0.550781,0.10742 l 7.617187,-3.25781 0,8.97461 -11.644531,4.98242 0,-14.28711 z" style="color:#000000;font-style:normal;font-variant:normal;font-weight:normal;font-stretch:normal;font-size:medium;line-height:normal;font-family:sans-serif;text-indent:0;text-align:start;text-decoration:none;text-decoration-line:none;text-decoration-style:solid;text-decoration-color:#000000;letter-spacing:normal;word-spacing:normal;text-transform:none;direction:ltr;block-progression:tb;writing-mode:lr-tb;baseline-shift:baseline;text-anchor:start;white-space:normal;clip-rule:nonzero;display:inline;overflow:visible;visibility:visible;opacity:1;isolation:auto;mix-blend-mode:normal;color-interpolation:sRGB;color-interpolation-filters:linearRGB;solid-color:#000000;solid-opacity:1;fill:#0e7bff;fill-opacity:1;fill-rule:evenodd;stroke:none;stroke-width:1;stroke-linecap:round;stroke-linejoin:round;stroke-miterlimit:4;stroke-dasharray:none;stroke-dashoffset:0;stroke-opacity:1;color-rendering:auto;image-rendering:auto;shape-rendering:auto;text-rendering:auto;enable-background:accumulate" inkscape:connector-curvature="0"/>
      <path id="path5817-6" transform="translate(0,988.36216)" d="m 92.931641,942.95703 a 0.50005,0.50005 0 0 0 -0.0059,0.002 0.50005,0.50005 0 0 0 -0.177734,0.043 l -3.158203,1.35157 a 0.50012935,0.50012935 0 0 0 0.392578,0.91992 l 3.158203,-1.35156 a 0.50005,0.50005 0 0 0 -0.208984,-0.96485 z m 3.158203,0.81055 a 0.50005,0.50005 0 0 0 -0.0059,0.002 0.50005,0.50005 0 0 0 -0.177734,0.043 l -3.158203,1.35156 -3.158203,1.35156 a 0.50009716,0.50009716 0 0 0 0.392578,0.91993 l 3.158203,-1.35157 3.158203,-1.35156 a 0.50005,0.50005 0 0 0 -0.208984,-0.96484 z" style="color:#000000;font-style:normal;font-variant:normal;font-weight:normal;font-stretch:normal;font-size:medium;line-height:normal;font-family:sans-serif;text-indent:0;text-align:start;text-decoration:none;text-decoration-line:none;text-decoration-style:solid;text-decoration-color:#000000;letter-spacing:normal;word-spacing:normal;text-transform:none;direction:ltr;block-progression:tb;writing-mode:lr-tb;baseline-shift:baseline;text-anchor:start;white-space:normal;clip-rule:nonzero;display:inline;overflow:visible;visibility:visible;opacity:1;isolation:auto;mix-blend-mode:normal;color-interpolation:sRGB;color-interpolation-filters:linearRGB;solid-color:#000000;solid-opacity:1;fill:#0e7bff;fill-opacity:1;fill-rule:evenodd;stroke:none;stroke-width:1;stroke-linecap:round;stroke-linejoin:round;stroke-miterlimit:4;stroke-dasharray:none;stroke-dashoffset:0;stroke-opacity:1;color-rendering:auto;image-rendering:auto;shape-rendering:auto;text-rendering:auto;enable-background:accumulate" inkscape:connector-curvature="0"/>
    </g>
  </g>

	
	<metadata>
		<rdf:RDF xmlns:rdf="http://www.w3.org/1999/02/22-rdf-syntax-ns#" xmlns:rdfs="http://www.w3.org/2000/01/rdf-schema#" xmlns:dc="http://purl.org/dc/elements/1.1/">
			<rdf:Description about="https://iconscout.com/legal#licenses" dc:title="Mobile, Concept, Package, Open, Box, Logistic, Smartphone" dc:description="Mobile, Concept, Package, Open, Box, Logistic, Smartphone" dc:publisher="Iconscout" dc:date="2016-12-14" dc:format="image/svg+xml" dc:language="en">
				<dc:creator>
					<rdf:Bag>
						<rdf:li>Jemis Mali</rdf:li>
					</rdf:Bag>
				</dc:creator>
			</rdf:Description>
		</rdf:RDF>
    </metadata></svg>
