<?xml version="1.0" encoding="UTF-8" standalone="no"?>
<svg xmlns:dc="http://purl.org/dc/elements/1.1/" xmlns:cc="http://creativecommons.org/ns#" xmlns:rdf="http://www.w3.org/1999/02/22-rdf-syntax-ns#" xmlns:svg="http://www.w3.org/2000/svg" xmlns="http://www.w3.org/2000/svg" xmlns:sodipodi="http://sodipodi.sourceforge.net/DTD/sodipodi-0.dtd" xmlns:inkscape="http://www.inkscape.org/namespaces/inkscape" width="64" height="64" viewBox="0 0 64 64.000002" id="svg6959" version="1.1" inkscape:version="0.91 r13725" sodipodi:docname="1 mobile concept innovation idea think startup light innovate.svg">
  <defs id="defs6961"/>
  <sodipodi:namedview id="base" pagecolor="#ffffff" bordercolor="#666666" borderopacity="1.0" inkscape:pageopacity="0.0" inkscape:pageshadow="2" inkscape:zoom="5.6" inkscape:cx="-16.148495" inkscape:cy="2.9405663" inkscape:document-units="px" inkscape:current-layer="layer1" showgrid="true" units="px" inkscape:snap-bbox="true" inkscape:bbox-paths="true" inkscape:bbox-nodes="true" inkscape:snap-bbox-edge-midpoints="true" inkscape:snap-bbox-midpoints="true" inkscape:window-width="1366" inkscape:window-height="705" inkscape:window-x="-8" inkscape:window-y="-8" inkscape:window-maximized="1">
    <inkscape:grid type="xygrid" id="grid6967"/>
  </sodipodi:namedview>
  
  <g inkscape:label="Layer 1" inkscape:groupmode="layer" id="layer1" transform="translate(0,-988.3622)">
    <g transform="translate(175.81321,-1083.7673)" id="g6852">
      <g transform="translate(-154.89966,177.95615)" id="g11218">
        <path sodipodi:nodetypes="cssssc" inkscape:connector-curvature="0" id="path11190" d="m 40.58842,1945.7641 0,3.4547 c 0,1.9138 -1.52991,3.4546 -3.43029,3.4546 l -52.14101,0 c -1.90038,0 -3.4588,-1.5411 -3.43029,-3.4546 l 0.0515,-3.4547" style="fill:#b2cdf8;fill-opacity:1;fill-rule:evenodd;stroke:none;stroke-width:0.99999994px;stroke-linecap:butt;stroke-linejoin:round;stroke-opacity:1"/>
        <path sodipodi:nodetypes="cssssc" inkscape:connector-curvature="0" id="path11192" d="m 40.58842,1945.7641 0,3.4547 c 0,1.9138 -1.52991,3.4546 -3.43029,3.4546 l -52.14101,0 c -1.90038,0 -3.4588,-1.5411 -3.43029,-3.4546 l 0.0515,-3.4547" style="fill:none;fill-opacity:1;fill-rule:evenodd;stroke:#0e7bff;stroke-width:0.99999994px;stroke-linecap:butt;stroke-linejoin:round;stroke-opacity:1"/>
        <path sodipodi:nodetypes="cssccsccscc" inkscape:connector-curvature="0" id="path11194" d="m 38.55674,1927.8 c 0,-1.5311 -1.22394,-2.7637 -2.74426,-2.7637 l -49.39673,0 c -1.52031,0 -2.74424,1.2326 -2.74424,2.7637 l -2.03103,17.9641 c 0,2.0728 1.13605,4.1456 3.78975,4.1456 l 25.16333,0 3.36885,0 22.42462,0 c 2.65561,0 4.20139,-2.0728 4.20139,-4.1456 z" style="fill:#f4f7f8;fill-opacity:1;stroke:none;stroke-width:0.99999994;stroke-linecap:butt;stroke-linejoin:miter;stroke-opacity:1"/>
        <path style="fill:#b2cdf8;fill-opacity:1;fill-rule:evenodd;stroke:none;stroke-width:0.99999994px;stroke-linecap:round;stroke-linejoin:round;stroke-opacity:1" d="m 31.44146,1925.2274 1.37213,21.9186 -43.81678,0 1.37213,-21.9186" id="path11196" inkscape:connector-curvature="0" sodipodi:nodetypes="cccc"/>
        <path style="fill:#6ca6fd;fill-opacity:1;fill-rule:evenodd;stroke:none;stroke-width:0.99999994px;stroke-linecap:round;stroke-linejoin:round;stroke-opacity:1" d="m -10.13208,1925.3284 -1.37109,22.318 44.31614,0 -0.15429,-1.9726 -40.97201,0 c -1.1,0 -1.03968,-0.9932 -1.03968,-0.9932 l 1.15806,-19.3522 z" id="path11198" inkscape:connector-curvature="0" sodipodi:nodetypes="cccccccc"/>
        <path sodipodi:nodetypes="cc" inkscape:connector-curvature="0" id="path11200" d="m -13.38491,1934.0183 -0.41164,4.1456" style="fill:none;fill-rule:evenodd;stroke:#0e7bff;stroke-width:0.99999994px;stroke-linecap:butt;stroke-linejoin:miter;stroke-opacity:1"/>
        <ellipse ry="0.69092786" rx="0.68606508" cy="1940.2366" cx="-14.067574" id="ellipse11202" style="fill:#0e7bff;fill-opacity:1;stroke:none;stroke-linecap:butt;stroke-linejoin:miter;stroke-opacity:1"/>
        <path id="path11204" d="m 35.9328,1925.0679 c 1.37717,0.1505 2.44727,1.3041 2.44727,2.7324 l 2.03125,17.9649 c 0,2.0728 -1.13732,4.1445 -3.79102,4.1445 l -25.16211,0 -3.36914,0 -22.42578,0 c -1.63243,0 -2.83573,-0.7868 -3.52344,-1.8731 0.33752,0.081 0.69246,0.1368 1.07813,0.1368 l 22.42382,0 3.36915,0 25.16406,0 c 2.6537,0 3.78906,-2.0737 3.78906,-4.1465 l -0.043,-0.3848 c 0.0227,-0.2034 0.043,-0.4078 0.043,-0.6133 l -2.03125,-17.9609 z" style="fill:#dae7fc;fill-opacity:1;stroke:none;stroke-width:0.99999994;stroke-linecap:butt;stroke-linejoin:miter;stroke-opacity:1" inkscape:connector-curvature="0"/>
        <path sodipodi:nodetypes="ccc" inkscape:connector-curvature="0" id="path11206" d="m 31.44146,1925.2274 1.37213,21.9186 -43.81678,0" style="fill:#6ca6fd;fill-opacity:1;fill-rule:evenodd;stroke:none;stroke-width:0.99999994px;stroke-linecap:round;stroke-linejoin:round;stroke-opacity:1"/>
        <path sodipodi:nodetypes="cccsccscsccsccc" style="fill:#dae7fc;fill-opacity:1;stroke:none;stroke-width:0.99999994;stroke-linecap:butt;stroke-linejoin:miter;stroke-opacity:1" d="m -13.88192,1925.0679 c -1.37717,0.1505 -2.44727,1.3042 -2.44727,2.7325 l -2.03125,17.9648 c 0,2.0728 1.13732,4.1445 3.79102,4.1445 l 25.16211,0 3.36914,0 22.42578,0 c 1.63243,0 2.83573,-0.7868 3.52344,-1.873 -0.33752,0.081 -0.69246,0.1367 -1.07813,0.1367 l -22.42382,0 -3.36915,0 -25.16406,0 c -2.6537,0 -3.78906,-2.0737 -3.78906,-4.1465 0.0037,-0.6639 0.01108,-0.7003 0,-0.998 z" id="path11208" inkscape:connector-curvature="0"/>
        <path inkscape:connector-curvature="0" id="path11210" transform="translate(0,988.36216)" d="m -8.15625,957.3125 -2.847656,1.4707 43.777344,0 -0.115235,-1.4707 -40.814453,0 z" style="fill:#498ffd;fill-opacity:1;fill-rule:evenodd;stroke:none;stroke-width:0.99999994px;stroke-linecap:round;stroke-linejoin:round;stroke-opacity:1"/>
        <path sodipodi:nodetypes="cccc" inkscape:connector-curvature="0" id="path11212" d="m 31.44146,1925.2274 1.37213,21.9186 -43.81678,0 1.37213,-21.9186" style="fill:none;fill-opacity:1;fill-rule:evenodd;stroke:#0e7bff;stroke-width:0.99999994px;stroke-linecap:round;stroke-linejoin:round;stroke-opacity:1"/>
        <path style="fill:none;fill-opacity:1;stroke:#0e7bff;stroke-width:0.99999994;stroke-linecap:butt;stroke-linejoin:miter;stroke-opacity:1" d="m 38.55674,1927.8 c 0,-1.5311 -1.22394,-2.7637 -2.74426,-2.7637 l -49.39673,0 c -1.52031,0 -2.74424,1.2326 -2.74424,2.7637 l -2.03103,17.9641 c 0,2.0728 1.13605,4.1456 3.78975,4.1456 l 25.16333,0 3.36885,0 22.42462,0 c 2.65561,0 4.20139,-2.0728 4.20139,-4.1456 z" id="path11214" inkscape:connector-curvature="0" sodipodi:nodetypes="cssccsccscc"/>
        <path inkscape:connector-curvature="0" transform="matrix(0.99977687,0.02112381,0.14470033,0.98947553,0,0)" style="fill:#b2cdf8;fill-opacity:1;stroke:none;stroke-width:1.00697327;stroke-linecap:butt;stroke-linejoin:miter;stroke-opacity:1" d="m -247.17794,1963.387 a 1.37669,1.3965536 0 0 1 -1.37669,1.3965 1.37669,1.3965536 0 0 1 -1.37669,-1.3965 1.37669,1.3965536 0 0 1 1.37669,-1.3966 1.37669,1.3965536 0 0 1 1.37669,1.3966 z" id="path8280"/>
        <path inkscape:connector-curvature="0" id="ellipse11216" d="m 35.328485,1935.5923 c -1.036149,-0.022 -1.755898,0.8121 -1.605452,1.8406 0.150456,1.0286 1.11933,1.8983 2.155429,1.9202 1.036099,0.022 1.755828,-0.8121 1.605452,-1.8407 -0.150376,-1.0286 -1.11928,-1.8982 -2.155429,-1.9201 z m 0.145829,0.9972 c 0.484202,0.01 0.929236,0.4038 1.002015,0.9016 0.07278,0.4978 -0.259524,0.875 -0.743696,0.8648 -0.484172,-0.01 -0.929196,-0.4039 -1.002005,-0.9017 -0.07282,-0.4978 0.259494,-0.875 0.743686,-0.8647 z" style="color:#000000;font-style:normal;font-variant:normal;font-weight:normal;font-stretch:normal;font-size:medium;line-height:normal;font-family:sans-serif;text-indent:0;text-align:start;text-decoration:none;text-decoration-line:none;text-decoration-style:solid;text-decoration-color:#000000;letter-spacing:normal;word-spacing:normal;text-transform:none;direction:ltr;block-progression:tb;writing-mode:lr-tb;baseline-shift:baseline;text-anchor:start;white-space:normal;clip-rule:nonzero;display:inline;overflow:visible;visibility:visible;opacity:1;isolation:auto;mix-blend-mode:normal;color-interpolation:sRGB;color-interpolation-filters:linearRGB;solid-color:#000000;solid-opacity:1;fill:#0e7bff;fill-opacity:1;fill-rule:nonzero;stroke:none;stroke-width:1.00697327;stroke-linecap:butt;stroke-linejoin:miter;stroke-miterlimit:4;stroke-dasharray:none;stroke-dashoffset:0;stroke-opacity:1;color-rendering:auto;image-rendering:auto;shape-rendering:auto;text-rendering:auto;enable-background:accumulate"/>
      </g>
      <path style="fill:#498ffd;fill-opacity:1;stroke:none;stroke-width:1;stroke-linecap:round;stroke-linejoin:round" d="m -147.66599,2113.6296 8.0632,0 0,2 -8.0632,0 z" id="path5505-1-9" inkscape:connector-curvature="0" sodipodi:nodetypes="ccccc"/>
      <rect ry="1.0000017" rx="1.0000017" y="2109.6226" x="-150.66599" height="2.0000033" width="14.063193" id="rect5497-8-1" style="fill:#498ffd;fill-opacity:1;stroke:none;stroke-width:0.99999994"/>
      <path style="fill:#6ca6fd;fill-opacity:1;stroke:none;stroke-width:0.99999988;stroke-linecap:round;stroke-linejoin:round" d="m -149.66594,2109.5862 0,-1.9635 11.9999,0 0,1.9552 m 0,2.2822 0,1.7695 -11.9999,0 0,-1.8698" id="path5495-5-0" inkscape:connector-curvature="0" sodipodi:nodetypes="cccccccc"/>
      <path style="fill:#dae7fc;fill-opacity:1;stroke:none;stroke-width:1" d="m -138.51984,2107.9093 0,-3.4608 c 3.5928,-1.8965 5.84234,-5.6255 5.8452,-9.6894 0,-6.0553 -4.90685,-10.9642 -10.95976,-10.9642 -6.0529,0 -10.95975,4.9089 -10.95975,10.9642 0.003,4.0639 2.25239,7.7929 5.8452,9.6894 l 0,3.4608" id="path13777-6-6" inkscape:connector-curvature="0" sodipodi:nodetypes="cccsccc"/>
      <path inkscape:connector-curvature="0" id="path6833-8" d="m -143.6345,2083.7956 c -0.36052,0 -0.71676,0.021 -1.06835,0.055 5.55056,0.5383 9.89062,5.2142 9.89062,10.9082 -0.003,4.0639 -2.2529,7.793 -5.8457,9.6895 l 0,3.4609 2.13867,0 0,-3.4609 c 3.5928,-1.8965 5.84089,-5.6256 5.84375,-9.6895 0,-6.0553 -4.90608,-10.9629 -10.95899,-10.9629 z" style="fill:#b2cdf8;fill-opacity:1;stroke:none;stroke-width:1"/>
      <path sodipodi:nodetypes="cccsccc" inkscape:connector-curvature="0" id="path13657-5-2" d="m -138.478,2107.9119 0,-3.4908 c 3.61799,-1.9098 5.8833,-5.6648 5.88618,-9.7571 0,-6.0976 -4.94125,-11.0408 -11.03657,-11.0408 -6.09534,0 -11.03658,4.9432 -11.03658,11.0408 0.003,4.0923 2.26818,7.8473 5.88617,9.7571 l 0,3.4908" style="fill:none;fill-opacity:1;stroke:#0e7bff;stroke-width:1;stroke-opacity:1"/>
      <path sodipodi:nodetypes="cc" style="fill:none;fill-rule:evenodd;stroke:#f4f7f8;stroke-width:1px;stroke-linecap:butt;stroke-linejoin:miter;stroke-opacity:1" d="m -145.66599,2097.4644 0,10.2694" id="path13659-3-9" inkscape:connector-curvature="0"/>
      <path sodipodi:nodetypes="cc" inkscape:connector-curvature="0" id="path13661-9-1" d="m -141.66599,2097.4644 0,10.2694" style="fill:none;fill-rule:evenodd;stroke:#f4f7f8;stroke-width:1px;stroke-linecap:butt;stroke-linejoin:miter;stroke-opacity:1"/>
      <path sodipodi:nodetypes="ccccc" inkscape:connector-curvature="0" id="rect13663-1-7" d="m -147.66599,2113.6296 8.0632,0 0,2 -8.0632,0 z" style="fill:none;fill-opacity:1;stroke:#0e7bff;stroke-width:1;stroke-linecap:round;stroke-linejoin:round;stroke-opacity:1"/>
      <path sodipodi:nodetypes="cccccccc" inkscape:connector-curvature="0" id="path13665-6-2" d="m -149.66594,2109.5862 0,-1.9635 11.9999,0 0,1.9552 m 0,2.2822 0,1.7695 -11.9999,0 0,-1.8698" style="fill:none;fill-opacity:1;stroke:#0e7bff;stroke-width:0.99999988;stroke-linecap:round;stroke-linejoin:round;stroke-opacity:1"/>
      <path inkscape:connector-curvature="0" id="path13671-4-6" d="m -139.16599,2097.6227 -9,0" style="fill:none;fill-rule:evenodd;stroke:#f4f7f8;stroke-width:0.99999994px;stroke-linecap:butt;stroke-linejoin:miter;stroke-opacity:1"/>
      <path id="path13673-0-8" style="fill:none;fill-opacity:1;stroke:#0e7bff;stroke-width:1.00000012;stroke-opacity:1" sodipodi:type="arc" sodipodi:cx="-143.21793" sodipodi:cy="2095.0723" sodipodi:rx="9.4480562" sodipodi:ry="9.4496365" sodipodi:start="3.1415927" sodipodi:end="4.712389" d="m -152.66598,2095.0723 a 9.4480562,9.4496365 0 0 1 9.44805,-9.4497" sodipodi:open="true"/>
      <path style="fill:none;fill-opacity:1;stroke:#0e7bff;stroke-width:1.14910686;stroke-opacity:1" id="path13675-1-0" transform="matrix(1,0,0.65304461,0.75731945,0,0)" sodipodi:type="arc" sodipodi:cx="-1949.9674" sodipodi:cy="2766.0181" sodipodi:rx="4.2102242" sodipodi:ry="16.524689" sodipodi:start="0.63512134" sodipodi:end="5.3400691" d="m -1946.5782,2775.8218 a 4.2102242,16.524689 0 0 1 -5.8786,3.5229 4.2102242,16.524689 0 0 1 -0.9122,-23.0642 4.2102242,16.524689 0 0 1 5.8741,-3.6374" sodipodi:open="true"/>
      <path sodipodi:open="true" d="m -1659.3095,2775.8218 a 4.2102242,16.524689 0 0 1 -5.8786,3.5229 4.2102242,16.524689 0 0 1 -0.9122,-23.0642 4.2102242,16.524689 0 0 1 5.8741,-3.6374" sodipodi:end="5.3400691" sodipodi:start="0.63512134" sodipodi:ry="16.524689" sodipodi:rx="4.2102242" sodipodi:cy="2766.0181" sodipodi:cx="-1662.6987" sodipodi:type="arc" transform="matrix(-1,0,-0.65304461,0.75731945,0,0)" id="path13677-2-1" style="fill:none;fill-opacity:1;stroke:#0e7bff;stroke-width:1.14910686;stroke-opacity:1"/>
      <path style="fill:none;fill-opacity:1;stroke:#0e7bff;stroke-width:1.00023818;stroke-opacity:1" id="path13679-8-4" transform="matrix(0,-1,-0.99952352,-0.03086652,0,0)" sodipodi:type="arc" sodipodi:cx="-2099.8569" sodipodi:cy="143.4024" sodipodi:rx="4.2109284" sodipodi:ry="14.297522" sodipodi:start="0.98195888" sodipodi:end="5.338413" d="m -2097.5182,155.29204 a 4.2109284,14.297522 0 0 1 -5.539,-2.59735 4.2109284,14.297522 0 0 1 0.1039,-18.98212 4.2109284,14.297522 0 0 1 5.5637,-1.89636" sodipodi:open="true"/>
      <ellipse ry="1" rx="0.99984896" style="color:#000000;clip-rule:nonzero;display:inline;overflow:visible;visibility:visible;opacity:1;isolation:auto;mix-blend-mode:normal;color-interpolation:sRGB;color-interpolation-filters:linearRGB;solid-color:#000000;solid-opacity:1;fill:#dae7fc;fill-opacity:1;fill-rule:nonzero;stroke:none;stroke-width:1;stroke-linecap:round;stroke-linejoin:round;stroke-miterlimit:4;stroke-dasharray:none;stroke-dashoffset:0;stroke-opacity:1;color-rendering:auto;image-rendering:auto;shape-rendering:auto;text-rendering:auto;enable-background:accumulate" id="circle13787-3-6" cx="-159.16614" cy="2109.6226"/>
      <ellipse ry="1" rx="0.99984896" cy="2109.6226" cx="-159.16614" id="circle13681-0-0" style="color:#000000;clip-rule:nonzero;display:inline;overflow:visible;visibility:visible;opacity:1;isolation:auto;mix-blend-mode:normal;color-interpolation:sRGB;color-interpolation-filters:linearRGB;solid-color:#000000;solid-opacity:1;fill:none;fill-opacity:1;fill-rule:nonzero;stroke:#0e7bff;stroke-width:1;stroke-linecap:round;stroke-linejoin:round;stroke-miterlimit:4;stroke-dasharray:none;stroke-dashoffset:0;stroke-opacity:1;color-rendering:auto;image-rendering:auto;shape-rendering:auto;text-rendering:auto;enable-background:accumulate"/>
      <ellipse ry="0.75597179" rx="0.75584531" style="color:#000000;clip-rule:nonzero;display:inline;overflow:visible;visibility:visible;opacity:1;isolation:auto;mix-blend-mode:normal;color-interpolation:sRGB;color-interpolation-filters:linearRGB;solid-color:#000000;solid-opacity:1;fill:#6ca6fd;fill-opacity:1;fill-rule:nonzero;stroke:none;stroke-width:1;stroke-linecap:round;stroke-linejoin:round;stroke-miterlimit:4;stroke-dasharray:none;stroke-dashoffset:0;stroke-opacity:1;color-rendering:auto;image-rendering:auto;shape-rendering:auto;text-rendering:auto;enable-background:accumulate" id="circle13789-3-7" cx="-127.66584" cy="2102.6296"/>
      <ellipse ry="1" rx="0.99984896" cy="2102.6296" cx="-127.66584" id="circle13683-4-5" style="color:#000000;clip-rule:nonzero;display:inline;overflow:visible;visibility:visible;opacity:1;isolation:auto;mix-blend-mode:normal;color-interpolation:sRGB;color-interpolation-filters:linearRGB;solid-color:#000000;solid-opacity:1;fill:none;fill-opacity:1;fill-rule:nonzero;stroke:#0e7bff;stroke-width:1;stroke-linecap:round;stroke-linejoin:round;stroke-miterlimit:4;stroke-dasharray:none;stroke-dashoffset:0;stroke-opacity:1;color-rendering:auto;image-rendering:auto;shape-rendering:auto;text-rendering:auto;enable-background:accumulate"/>
      <ellipse ry="1" rx="0.99984896" style="color:#000000;clip-rule:nonzero;display:inline;overflow:visible;visibility:visible;opacity:1;isolation:auto;mix-blend-mode:normal;color-interpolation:sRGB;color-interpolation-filters:linearRGB;solid-color:#000000;solid-opacity:1;fill:#ff9800;fill-opacity:1;fill-rule:nonzero;stroke:none;stroke-width:1;stroke-linecap:round;stroke-linejoin:round;stroke-miterlimit:4;stroke-dasharray:none;stroke-dashoffset:0;stroke-opacity:1;color-rendering:auto;image-rendering:auto;shape-rendering:auto;text-rendering:auto;enable-background:accumulate" id="circle13791-8-6" cx="-139.66583" cy="2079.6226"/>
      <ellipse ry="1" rx="0.99984896" cy="2079.6226" cx="-139.66583" id="circle13685-7-7" style="color:#000000;clip-rule:nonzero;display:inline;overflow:visible;visibility:visible;opacity:1;isolation:auto;mix-blend-mode:normal;color-interpolation:sRGB;color-interpolation-filters:linearRGB;solid-color:#000000;solid-opacity:1;fill:#dae7fc;fill-opacity:1;fill-rule:nonzero;stroke:#0e7bff;stroke-width:1;stroke-linecap:round;stroke-linejoin:round;stroke-miterlimit:4;stroke-dasharray:none;stroke-dashoffset:0;stroke-opacity:1;color-rendering:auto;image-rendering:auto;shape-rendering:auto;text-rendering:auto;enable-background:accumulate"/>
      <path style="fill:#000000;fill-opacity:0;fill-rule:evenodd;stroke:#0e7bff;stroke-width:0.99999994px;stroke-linecap:butt;stroke-linejoin:miter;stroke-opacity:1" d="m -160.31224,2101.1297 1e-5,-3.0002" id="path13687-3-8" inkscape:connector-curvature="0"/>
      <path inkscape:connector-curvature="0" id="path13689-2-2" d="m -161.81203,2099.6294 2.99959,0" style="fill:#000000;fill-opacity:0;fill-rule:evenodd;stroke:#0e7bff;stroke-width:0.99999994px;stroke-linecap:butt;stroke-linejoin:miter;stroke-opacity:1"/>
      <path sodipodi:nodetypes="cc" inkscape:connector-curvature="0" id="path13711-6-6" d="m -145.66599,2115.6371 0,1.4925" style="fill:none;fill-rule:evenodd;stroke:#0e7bff;stroke-width:1px;stroke-linecap:butt;stroke-linejoin:miter;stroke-opacity:1"/>
      <path sodipodi:nodetypes="cc" inkscape:connector-curvature="0" id="path13713-1-0" d="m -141.66599,2115.6371 0,1.4925" style="fill:none;fill-rule:evenodd;stroke:#0e7bff;stroke-width:1px;stroke-linecap:butt;stroke-linejoin:miter;stroke-opacity:1"/>
      <rect style="fill:none;fill-opacity:1;stroke:#0e7bff;stroke-width:0.99999994;stroke-opacity:1" id="rect5398-3-7" width="14.063193" height="2.0000033" x="-150.66599" y="2109.6226" rx="1.0000017" ry="1.0000017"/>
      <path style="fill:#000000;fill-opacity:0;fill-rule:evenodd;stroke:#0e7bff;stroke-width:0.99999988px;stroke-linecap:butt;stroke-linejoin:miter;stroke-opacity:1" d="m -150.30499,2079.1296 1e-5,-2.986" id="path13687-0-6-2" inkscape:connector-curvature="0"/>
      <path inkscape:connector-curvature="0" id="path13689-4-4-8" d="m -151.79773,2077.6364 2.9855,0" style="fill:#000000;fill-opacity:0;fill-rule:evenodd;stroke:#0e7bff;stroke-width:0.99999988px;stroke-linecap:butt;stroke-linejoin:miter;stroke-opacity:1"/>
      <path style="fill:#000000;fill-opacity:0;fill-rule:evenodd;stroke:#0e7bff;stroke-width:0.99999994px;stroke-linecap:butt;stroke-linejoin:miter;stroke-opacity:1" d="m -126.3726,2092.6903 2.12131,-2.1213" id="path13687-0-2-4-1" inkscape:connector-curvature="0"/>
      <path inkscape:connector-curvature="0" id="path13689-4-6-3-0" d="m -126.37227,2090.569 2.12098,2.1208" style="fill:#000000;fill-opacity:0;fill-rule:evenodd;stroke:#0e7bff;stroke-width:0.99999994px;stroke-linecap:butt;stroke-linejoin:miter;stroke-opacity:1"/>
      <path inkscape:connector-curvature="0" id="path5477-5-2" d="m -160.56992,2088.8872 1.40418,-1.4042" style="fill:#000000;fill-opacity:0;fill-rule:evenodd;stroke:#0e7bff;stroke-width:1px;stroke-linecap:butt;stroke-linejoin:miter;stroke-opacity:1"/>
      <path style="fill:#000000;fill-opacity:0;fill-rule:evenodd;stroke:#0e7bff;stroke-width:1px;stroke-linecap:butt;stroke-linejoin:miter;stroke-opacity:1" d="m -160.56974,2087.4831 1.40396,1.4039" id="path5479-0-8" inkscape:connector-curvature="0"/>
    </g>
  </g>

	
	<metadata>
		<rdf:RDF xmlns:rdf="http://www.w3.org/1999/02/22-rdf-syntax-ns#" xmlns:rdfs="http://www.w3.org/2000/01/rdf-schema#" xmlns:dc="http://purl.org/dc/elements/1.1/">
			<rdf:Description about="https://iconscout.com/legal#licenses" dc:title="Mobile, Concept, Innovation, Idea, Think, Startup, Light, Innovate" dc:description="Mobile, Concept, Innovation, Idea, Think, Startup, Light, Innovate" dc:publisher="Iconscout" dc:date="2016-12-14" dc:format="image/svg+xml" dc:language="en">
				<dc:creator>
					<rdf:Bag>
						<rdf:li>Jemis Mali</rdf:li>
					</rdf:Bag>
				</dc:creator>
			</rdf:Description>
		</rdf:RDF>
    </metadata></svg>
