<?xml version="1.0" encoding="UTF-8"?><!DOCTYPE svg PUBLIC "-//W3C//DTD SVG 1.1//EN" "http://www.w3.org/Graphics/SVG/1.1/DTD/svg11.dtd"><svg xmlns="http://www.w3.org/2000/svg" xmlns:xlink="http://www.w3.org/1999/xlink" version="1.1" id="barcode-scanning" x="0px" y="0px" viewBox="0 0 1010 1010" xml:space="preserve"><g id="barcode-scanning-barcode-scanning"><path id="barcode-scanning-label" fill="#3BAFDA" d="M1010 505c0 278.914-226.086 505-505 505C226.106 1010 0 783.914 0 505 0 226.096 226.106 0 505 0c278.914 0 505 226.096 505 505z"/><g id="barcode-scanning-barcode-scanning_1_"><path fill="#FFF" d="M232.3 276.182h545.4v457.636H232.3z"/><path fill="#454545" d="M271.32 685.41h-20.2V519.626h20.2v165.782z"/><path fill="#454545" d="M758.9 685.41h-20.199V519.626h20.2v165.782z"/><path fill="#454545" d="M310.318 607.4h-20.2v-87.773h20.2V607.4z"/><path fill="#454545" d="M339.573 607.4h-20.2v-87.773h20.2V607.4z"/><path fill="#454545" d="M388.317 607.4h-20.2v-87.773h20.2V607.4z"/><path fill="#454545" d="M417.592 607.4h-20.2v-87.773h20.2V607.4z"/><path fill="#454545" d="M446.846 607.4h-20.2v-87.773h20.2V607.4z"/><path fill="#454545" d="M505.356 607.4h-20.2v-87.773h20.2V607.4z"/><path fill="#454545" d="M554.12 607.4h-20.201v-87.773h20.2V607.4z"/><path fill="#454545" d="M583.374 607.4h-20.2v-87.773h20.2V607.4z"/><path fill="#454545" d="M632.118 607.4h-20.2v-87.773h20.2V607.4z"/><path fill="#454545" d="M661.373 607.4h-20.2v-87.773h20.2V607.4z"/><path fill="#454545" d="M719.882 607.4h-20.2v-87.773h20.2V607.4z"/><g><path fill="#454545" d="M271.32 461.118h-20.2V324.601h20.2v136.517z"/><path fill="#454545" d="M758.9 461.118h-20.199V324.601h20.2v136.517z"/><path fill="#454545" d="M310.318 461.118h-20.2V324.601h20.2v136.517z"/><path fill="#454545" d="M339.573 461.118h-20.2V324.601h20.2v136.517z"/><path fill="#454545" d="M388.317 461.118h-20.2V324.601h20.2v136.517z"/><path fill="#454545" d="M417.592 461.118h-20.2V324.601h20.2v136.517z"/><path fill="#454545" d="M446.846 461.118h-20.2V324.601h20.2v136.517z"/><path fill="#454545" d="M505.356 461.118h-20.2V324.601h20.2v136.517z"/><path fill="#454545" d="M554.12 461.118h-20.201V324.601h20.2v136.517z"/><path fill="#454545" d="M583.374 461.118h-20.2V324.601h20.2v136.517z"/><path fill="#454545" d="M632.118 461.118h-20.2V324.601h20.2v136.517z"/><path fill="#454545" d="M661.373 461.118h-20.2V324.601h20.2v136.517z"/><path fill="#454545" d="M719.882 461.118h-20.2V324.601h20.2v136.517z"/></g><g><path fill="#454545" d="M310.318 681.237h-20.2v-20.2h20.2v20.2z"/><path fill="#454545" d="M339.573 681.237h-20.2v-20.2h20.2v20.2z"/><path fill="#454545" d="M368.828 681.237h-20.2v-20.2h20.2v20.2z"/><path fill="#454545" d="M398.082 681.237h-20.2v-20.2h20.2v20.2z"/><path fill="#454545" d="M427.337 681.237h-20.2v-20.2h20.2v20.2z"/><path fill="#454545" d="M456.59 681.237h-20.199v-20.2h20.2v20.2z"/><path fill="#454545" d="M485.846 681.237h-20.2v-20.2h20.2v20.2z"/><path fill="#454545" d="M515.1 681.237h-20.2v-20.2h20.2v20.2z"/><path fill="#454545" d="M544.355 681.237h-20.2v-20.2h20.2v20.2z"/><path fill="#454545" d="M573.61 681.237h-20.2v-20.2h20.2v20.2z"/><path fill="#454545" d="M602.863 681.237h-20.199v-20.2h20.2v20.2z"/><path fill="#454545" d="M632.118 681.237h-20.2v-20.2h20.2v20.2z"/><path fill="#454545" d="M661.373 681.237h-20.2v-20.2h20.2v20.2z"/><path fill="#454545" d="M690.627 681.237h-20.2v-20.2h20.2v20.2z"/><path fill="#454545" d="M719.882 681.237h-20.2v-20.2h20.2v20.2z"/></g><g><path fill="#454545" d="M290.474 754.018H212.1v-68.609h20.2v48.41h58.174v20.199z"/><path fill="#454545" d="M797.9 754.018h-68.609v-20.2h48.41V685.41h20.2v68.609z"/><path fill="#454545" d="M797.9 324.6h-20.2v-48.418h-58.154v-20.2H797.9V324.6z"/><path fill="#454545" d="M232.3 324.6h-20.2v-68.619h68.609v20.2h-48.41v48.42z"/></g><g><path fill="#FC6E51" d="M767.6 500.473H242.4v-20.2h525.2v20.2z"/></g></g></g><metadata><rdf:RDF xmlns:rdf="http://www.w3.org/1999/02/22-rdf-syntax-ns#" xmlns:rdfs="http://www.w3.org/2000/01/rdf-schema#" xmlns:dc="http://purl.org/dc/elements/1.1/"><rdf:Description about="https://iconscout.com/legal#licenses" dc:title="barcode,scanning" dc:description="barcode,scanning" dc:publisher="Iconscout" dc:date="2017-09-22" dc:format="image/svg+xml" dc:language="en"><dc:creator><rdf:Bag><rdf:li>EcommDesign</rdf:li></rdf:Bag></dc:creator></rdf:Description></rdf:RDF></metadata></svg>