<?xml version="1.0" encoding="UTF-8"?><!DOCTYPE svg PUBLIC "-//W3C//DTD SVG 1.1//EN" "http://www.w3.org/Graphics/SVG/1.1/DTD/svg11.dtd"><svg xmlns="http://www.w3.org/2000/svg" xmlns:xlink="http://www.w3.org/1999/xlink" version="1.1" id="basket" x="0px" y="0px" viewBox="0 0 1010 1010" xml:space="preserve"><g id="basket-basket"><path id="basket-label" fill="#3BAFDA" d="M1010 505c0 278.904-226.106 505-505 505C226.086 1010 0 783.904 0 505S226.086 0 505 0c278.894 0 505 226.096 505 505z"/><g id="basket-basket_1_"><path fill="#FC6E51" d="M344.11 427.08l141.42-141.41c8.68-8.67 8.68-22.735 0-31.404v-.02c-8.68-8.67-22.764-8.67-31.405 0L281.281 427.08h62.83z"/><path fill="#454545" d="M344.11 437.18h-62.829a10.089 10.089 0 0 1-9.33-6.234 10.09 10.09 0 0 1 2.19-11.007l172.843-172.834c12.132-12.171 33.456-12.231 45.687 0 6.105 6.115 9.469 14.232 9.469 22.863 0 8.63-3.364 16.748-9.47 22.843l-141.419 141.41a10.089 10.089 0 0 1-7.14 2.959zm-38.447-20.2h34.265l138.46-138.45a12.027 12.027 0 0 0 3.551-8.562c0-3.236-1.262-6.273-3.55-8.562-4.596-4.596-12.576-4.586-17.113-.029L305.663 416.98z"/><path fill="#FC6E51" d="M665.87 427.08L524.45 285.67c-8.66-8.67-8.66-22.735 0-31.404l.02-.02c8.66-8.67 22.725-8.67 31.405 0L728.719 427.08H665.87z"/><path fill="#454545" d="M728.719 437.18H665.87a10.089 10.089 0 0 1-7.14-2.96L517.31 292.812c-12.586-12.595-12.586-33.091 0-45.687 12.23-12.23 33.495-12.23 45.706-.02L735.86 419.94a10.089 10.089 0 0 1 2.19 11.007 10.088 10.088 0 0 1-9.331 6.234zm-58.666-20.2h34.284L548.734 261.387c-4.577-4.557-12.547-4.577-17.123 0-4.734 4.734-4.734 12.428-.02 17.142L670.054 416.98z"/><g><path fill="#FFF" d="M222.2 427.08h565.6v41.91H222.2z"/><path fill="#454545" d="M787.8 479.089H222.2c-5.583 0-10.1-4.517-10.1-10.1V427.08c0-5.583 4.517-10.1 10.1-10.1h565.6c5.583 0 10.1 4.517 10.1 10.1v41.91c0 5.582-4.517 10.099-10.1 10.099zm-555.5-20.2h545.4v-21.71H232.3v21.71z"/></g><g><path fill="#FFB933" d="M321.365 762.264h367.27c20.83 0 38.506-15.348 41.445-35.97l36.77-257.305h-523.7l36.75 257.304c2.96 20.623 20.615 35.97 41.465 35.97z"/><path fill="#454545" d="M688.635 772.363h-367.27c-25.683 0-47.807-19.193-51.466-44.64l-36.75-257.304c-.415-2.9.453-5.839 2.367-8.048a10.12 10.12 0 0 1 7.633-3.482h523.702a10.12 10.12 0 0 1 7.633 3.482 10.115 10.115 0 0 1 2.368 8.048l-36.77 257.304c-3.63 25.447-25.744 44.64-51.447 44.64zM254.798 479.09l35.103 245.773c2.23 15.565 15.762 27.302 31.464 27.302h367.27c15.712 0 29.224-11.737 31.444-27.292l35.123-245.783H254.798z"/></g><g><path fill="#454545" d="M693.527 562.878h-41.9c-5.582 0-10.1-4.518-10.1-10.1 0-5.583 4.518-10.1 10.1-10.1h41.9c5.582 0 10.1 4.517 10.1 10.1 0 5.582-4.518 10.1-10.1 10.1z"/><path fill="#454545" d="M609.729 562.878h-41.88c-5.582 0-10.1-4.518-10.1-10.1 0-5.583 4.518-10.1 10.1-10.1h41.88c5.582 0 10.099 4.517 10.099 10.1 0 5.582-4.517 10.1-10.1 10.1z"/><path fill="#454545" d="M525.95 562.878h-41.9c-5.582 0-10.1-4.518-10.1-10.1 0-5.583 4.518-10.1 10.1-10.1h41.9c5.582 0 10.1 4.517 10.1 10.1 0 5.582-4.518 10.1-10.1 10.1z"/><path fill="#454545" d="M442.151 562.878h-41.88c-5.582 0-10.1-4.518-10.1-10.1 0-5.583 4.519-10.1 10.1-10.1h41.88c5.583 0 10.1 4.517 10.1 10.1 0 5.582-4.517 10.1-10.1 10.1z"/><path fill="#454545" d="M358.353 562.878h-41.9c-5.582 0-10.1-4.518-10.1-10.1 0-5.583 4.518-10.1 10.1-10.1h41.9c5.583 0 10.1 4.517 10.1 10.1 0 5.582-4.517 10.1-10.1 10.1z"/><path fill="#454545" d="M693.527 625.717h-41.9c-5.582 0-10.1-4.518-10.1-10.1 0-5.583 4.518-10.1 10.1-10.1h41.9c5.582 0 10.1 4.517 10.1 10.1 0 5.582-4.518 10.1-10.1 10.1z"/><path fill="#454545" d="M609.729 625.717h-41.88c-5.582 0-10.1-4.518-10.1-10.1 0-5.583 4.518-10.1 10.1-10.1h41.88c5.582 0 10.099 4.517 10.099 10.1 0 5.582-4.517 10.1-10.1 10.1z"/><path fill="#454545" d="M525.95 625.717h-41.9c-5.582 0-10.1-4.518-10.1-10.1 0-5.583 4.518-10.1 10.1-10.1h41.9c5.582 0 10.1 4.517 10.1 10.1 0 5.582-4.518 10.1-10.1 10.1z"/><path fill="#454545" d="M442.151 625.717h-41.88c-5.582 0-10.1-4.518-10.1-10.1 0-5.583 4.519-10.1 10.1-10.1h41.88c5.583 0 10.1 4.517 10.1 10.1 0 5.582-4.517 10.1-10.1 10.1z"/><path fill="#454545" d="M358.353 625.717h-41.9c-5.582 0-10.1-4.518-10.1-10.1 0-5.583 4.518-10.1 10.1-10.1h41.9c5.583 0 10.1 4.517 10.1 10.1 0 5.582-4.517 10.1-10.1 10.1z"/><path fill="#454545" d="M693.527 688.556h-41.9c-5.582 0-10.1-4.518-10.1-10.1 0-5.583 4.518-10.1 10.1-10.1h41.9c5.582 0 10.1 4.517 10.1 10.1 0 5.582-4.518 10.1-10.1 10.1z"/><path fill="#454545" d="M609.729 688.556h-41.88c-5.582 0-10.1-4.518-10.1-10.1 0-5.583 4.518-10.1 10.1-10.1h41.88c5.582 0 10.099 4.517 10.099 10.1 0 5.582-4.517 10.1-10.1 10.1z"/><path fill="#454545" d="M525.95 688.556h-41.9c-5.582 0-10.1-4.518-10.1-10.1 0-5.583 4.518-10.1 10.1-10.1h41.9c5.582 0 10.1 4.517 10.1 10.1 0 5.582-4.518 10.1-10.1 10.1z"/><path fill="#454545" d="M442.151 688.556h-41.88c-5.582 0-10.1-4.518-10.1-10.1 0-5.583 4.519-10.1 10.1-10.1h41.88c5.583 0 10.1 4.517 10.1 10.1 0 5.582-4.517 10.1-10.1 10.1z"/><path fill="#454545" d="M358.353 688.556h-41.9c-5.582 0-10.1-4.518-10.1-10.1 0-5.583 4.518-10.1 10.1-10.1h41.9c5.583 0 10.1 4.517 10.1 10.1 0 5.582-4.517 10.1-10.1 10.1z"/></g></g></g><metadata><rdf:RDF xmlns:rdf="http://www.w3.org/1999/02/22-rdf-syntax-ns#" xmlns:rdfs="http://www.w3.org/2000/01/rdf-schema#" xmlns:dc="http://purl.org/dc/elements/1.1/"><rdf:Description about="https://iconscout.com/legal#licenses" dc:title="basket" dc:description="basket" dc:publisher="Iconscout" dc:date="2017-09-22" dc:format="image/svg+xml" dc:language="en"><dc:creator><rdf:Bag><rdf:li>EcommDesign</rdf:li></rdf:Bag></dc:creator></rdf:Description></rdf:RDF></metadata></svg>