<?xml version="1.0" encoding="UTF-8"?><!DOCTYPE svg PUBLIC "-//W3C//DTD SVG 1.1//EN" "http://www.w3.org/Graphics/SVG/1.1/DTD/svg11.dtd"><svg xmlns="http://www.w3.org/2000/svg" xmlns:xlink="http://www.w3.org/1999/xlink" version="1.1" id="buy-hand" x="0px" y="0px" viewBox="0 0 1010 1010" xml:space="preserve"><g id="buy-hand-buy-hand"><circle id="buy-hand-label" fill="#FFB933" cx="505" cy="505" r="505"/><g id="buy-hand-buy-hand_1_"><path fill="#FC6E51" d="M420.6 644.003H257.55c-11.106 0-20.2-9.094-20.2-20.2v-303c0-11.106 9.094-20.19 20.2-20.19h494.91c11.097 0 20.19 9.084 20.19 20.19v303c0 11.106-9.093 20.2-20.19 20.2H649.34"/><path fill="#454545" d="M752.46 654.104H649.34c-5.578 0-10.1-4.518-10.1-10.101 0-5.583 4.522-10.1 10.1-10.1h103.12c5.563 0 10.09-4.527 10.09-10.1v-303c0-5.563-4.527-10.09-10.09-10.09H257.55c-5.568 0-10.1 4.527-10.1 10.09v303c0 5.573 4.532 10.1 10.1 10.1H420.6c5.578 0 10.1 4.517 10.1 10.1 0 5.583-4.522 10.1-10.1 10.1H257.55c-16.708 0-30.3-13.591-30.3-30.3v-303c0-16.698 13.592-30.29 30.3-30.29h494.91c16.703 0 30.29 13.592 30.29 30.29v303c0 16.709-13.587 30.3-30.29 30.3z"/><g fill="#454545"><path d="M378.627 395.28c27.814 0 45.085 12.665 45.085 33.576 0 15.15-9.02 26.472-23.603 29.924 18.04 3.077 28.781 15.93 28.781 33.97 0 23.02-18.612 36.83-48.922 36.83h-59.673v-134.3h58.332zm-35.69 55.63h34.536c14.385 0 23.02-6.707 23.02-18.03 0-11.314-8.635-17.458-23.02-17.458h-34.536v35.488zm0 58.528h34.536c17.65 0 28.204-6.904 28.204-19.569 0-11.894-10.554-18.996-28.204-18.996h-34.536v38.565z"/><path d="M569.94 473.94c0 35.114-22.064 56.606-58.332 56.606-36.262 0-58.518-21.492-58.518-56.606v-78.66h22.64v78.66c0 22.636 14.006 36.268 36.07 36.268 21.873 0 35.494-13.435 35.494-36.268v-78.66h22.646v78.66z"/><path d="M657.457 529.58h-22.45v-43.932l-50.085-90.367h22.834l38.378 65.423 37.608-65.423h23.022l-49.307 89.598v44.7z"/></g><g><path fill="#FFF" d="M529.658 578.451c-8.364-8.353-21.206-9.281-29.53-.966-8.305 8.315-7.635 20.96.73 29.314l-10.12-10.14c-8.364-8.364-21.206-9.261-29.531-.936-8.305 8.285-7.634 20.93.75 29.294l-63.086-63.077c-8.364-8.364-20.99-9.024-29.284-.73-8.334 8.335-7.407 21.177.957 29.54l99.106 99.117-47.304-1.637c-11.698-.128-20.752 9.705-20.615 21.6.119 11.895 8.03 18.07 19.57 20.142 39.018 7.022 138.085 61.152 168.326 30.91 20.2-20.199 43.842-43.831 43.842-43.831s33.299-58.627-7.713-99.62l-56.862-56.871c-8.364-8.375-21.206-9.282-29.52-.966-8.315 8.314-7.615 20.94.74 29.312l-10.456-10.455z"/><path fill="#454545" d="M561.803 780.097c-28.091 0-64.54-13.474-96.705-25.368-17.931-6.63-34.871-12.892-45.588-14.815-17.557-3.156-27.72-14.085-27.878-29.984-.099-8.552 3.225-16.887 9.118-22.854 5.701-5.77 13.291-8.946 21.37-8.946l22.275.76-80.992-80.997c-12.556-12.557-12.975-31.81-.957-43.823 11.703-11.718 31.508-11.313 43.566.73l42.111 42.097c1.46-3.029 3.462-5.84 5.953-8.326 8.28-8.275 20.974-10.79 31.75-6.835 1.435-4.152 3.817-8.048 7.155-11.392 8.39-8.383 21.266-10.85 32.145-6.677 1.445-4.084 3.812-7.92 7.106-11.215 11.679-11.688 31.691-11.155 43.808.967l56.857 56.872c36.746 36.72 22.188 89.153 9.356 111.75-.45.79-1.001 1.51-1.643 2.15l-43.842 43.832c-8.01 8.01-19.77 12.074-34.965 12.074zM421.996 698.32c-3.255.01-5.549 1.608-6.88 2.96-2.126 2.15-3.324 5.217-3.284 8.433.03 2.919.083 8.314 11.253 10.316 12.473 2.25 29.408 8.502 49.016 15.752 29.062 10.74 65.226 24.115 89.702 24.115 9.641 0 16.6-2.07 20.683-6.154l42.797-42.787c4.127-7.91 25.886-53.844-6.668-86.383l-56.862-56.87c-2.416-2.418-5.523-3.799-8.526-3.799-1.766 0-4.365.484-6.712 2.831-4.202 4.201-3.892 10.386.75 15.041 3.935 3.946 3.93 10.337-.016 14.283-3.935 3.925-10.331 3.935-14.276-.01l-10.455-10.455c-2.417-2.407-5.529-3.798-8.538-3.798-1.77 0-4.369.494-6.716 2.84-4.182 4.183-3.906 10.347.685 14.973h.005c3.94 3.946 3.96 10.367.015 14.312h-.005c-.005.01-.01.01-.02.02-.005.01-.01.01-.014.019 0 0-.005 0-.01.01-.119.11-.237.227-.356.336-.004.01-.01.01-.024.02-.01 0-.015.019-.025.019-.01.01-.015.03-.025.02a10.154 10.154 0 0 1-4.492 2.288 10.022 10.022 0 0 1-9.276-2.703l-10.135-10.158c-2.397-2.397-5.5-3.778-8.502-3.778-1.77 0-4.38.493-6.737 2.85-2.007 2.002-3.018 4.469-2.93 7.121.09 2.802 1.387 5.593 3.65 7.862.005 0 .01.01.01.01.005 0 .01.01.01.01.014.009.02.019.024.019.005.01.01.01.015.02 0 0-.01.02.02.02.005 0 .01.01.01.01s-.01 0 .025.02c.004.009.01.009.014.019 0 0-.03.04.02.02.03.03.02.02.025.03 0 0-.03-.06.02.019.01 0 .014.02.024.02 0 .01.005.01.005.01.005.009 0-.02.024.029.005 0 .01.01.016.01l.004.01c.005.01 0-.02.025.03.005 0 .01 0 .015.01l.005.009c.02.01.015.02.024.02.005.01.045-.04.02.03.01 0 .01.02.025.02-.005.009-.02-.02.02.029.005 0 .01.01.01.01.004 0 .01.01.01.01.004.009.009.009.014.02 0 0 .005 0 .01.01 0 0 .01.019.02.019.005.01.01.05.02.02.005.01.01.01.014.02l.005.01c.02.01.025.03.025.02.005.01 0 .019.02.029.005 0 .01.01.01.01.004.009.01.009.01.009.004.01.01.01.014.02l.005.01c.01 0 .01.02.025.02 0 .01-.015.02.02.03.02.009.014.019.02.019.004.01.004.02.019.03.015 0 .015.02.02.02.005.01.01.01.014.02l.005.009c.005 0 .01.01.015.02h.005c.005.01.01.019.014.019l.006.01c.005 0 .01.01.014.02h.005c.006.01.01.02.015.02l.005.01c.005.01.01.01.015.02 0 0-.005.059.02.02 0 .01.004.01.004.01.005.01.01.01.015.019 0 0 0 .049.02.02 0 .01.005.01.005.01.005.009.01.009.015.019 0 0-.04-.04.02.03h.005c.004.009.01.02.014.02l.005.01c.005 0 .01.01.015.019 0 0 .01.02.02.02.01.04.015.01.02.03 0 0-.045-.03.014.029h.005c.005.01.01.01.015.02l.005.01c.005 0 .01.009.014.019h.005c.01.02.01.03.02.03.005.01.01.01.016.02 0 0-.045-.07.014.029h.005c.005.01.01.02.015.02l.005.01c.004 0 .01.01.014.02.005.01.01.02.02.029.005.01.01.02.015.02 0 0-.04-.06.02.029.005.01.015.02.02.03.004.01.01.01.014.02.01.01.015.02.02.029.005.01.02.03.02.03.005.01.01.01.015.02a10.14 10.14 0 0 1 1.41 7.969c0 .02-.005.04-.01.06-.005.009-.005.019-.01.03v.01s-.004.009-.004.019c0 0 .053-.03-.01.029v.01s-.006.01-.006.02l-.005.009s0 .01-.004.02v.01s-.005.01-.005.02c0 0-.005 0-.005.01 0 0 0 .01-.006.02 0 0 0-.04-.004.03-.005 0-.005 0-.005.01l-.005.009v.01c-.005.01-.005.02-.01.029 0 .01-.005.02-.005.02 0 .01-.005.01-.005.01 0 .009-.005.019-.005.019v.01c-.004.01-.004.02-.004.02l-.005.01c0 .01-.005.01-.005.02l-.005.01c0 .01-.005.01-.005.02.005 0-.005.01-.005.029-.005 0-.005.01-.005.01 0 .02-.02.02-.01.029 0 .01-.005.01-.005.02l-.005.01c0 .009 0 .009-.005.02-.005 0-.005.02-.005.02l-.01.029c-.005.01-.005.02-.01.02v.01c.005.01-.014.049-.01.03 0 .009-.004.009-.004.019l-.005.01c0 .01-.005.01-.005.019 0 0 0 .01-.005.01 0 0-.005.01-.005.02l-.01.03c.005 0 .03-.04-.01.029-.005.01-.005.02-.01.03-.004.02-.015.04-.02.059a10.057 10.057 0 0 1-1.908 3.304c-.014.01-.024.03-.024.03-.006 0-.01.01-.015.02h-.005c-.01.019-.02.01-.02.029-.005 0-.015.01-.02.02.01.01-.01.01-.02.02 0 0 .074-.03-.024.029-.01.01-.035.02-.025.02-.005.01-.015.03-.02.03-.01.01-.014.01-.02.02h-.004c-.005.01-.01.01-.015.019 0 0 .09.039-.025.02.005.029-.01.019-.02.029h-.004c-.01.02-.015.03-.025.03-.015 0-.01.02-.02.02-.01.01 0-.03-.024.029-.01 0-.02.02-.02.02-.005 0-.01.03-.025.02-.005.01-.01.01-.014.02 0 0-.005 0-.01.01 0 0-.01.019-.02.019-.005.02-.02.01-.025.03-.005 0-.025-.03-.02.02-.005 0-.01.01-.014.01 0 0-.005.01-.01.01-.005.028-.01.019-.024.028.004 0-.016.01-.025.02 0 0 .04.03-.02.02-.005 0-.015.02-.025.03-.01 0-.014.01-.024.02 0 0 0 .019-.025.019 0 0-.01.02-.02.02l-.005.01c-.01.01-.015.01-.02.02h-.004c-.005.01-.015.01-.02.02.01.009-.01.019-.025.019 0 0 .015 0-.025.03-.005 0-.014.01-.02.02.01.01-.014.01-.024.02.005 0-.014.019-.025.019-1.987 1.814-4.478 2.554-7.032 2.653h-.119c-.014 0-.014-.01-.034-.01h-.089a9.992 9.992 0 0 1-6.278-2.574c-.01-.01-.015-.01-.024-.02-.01-.01-.015-.02-.025-.02-.005-.01-.015-.02-.02-.02l-.005-.01c-.004 0-.02-.019-.024-.019-.005 0-.01-.01-.02-.02.005.01-.015 0-.02-.019-.004.01-.01 0-.024-.02 0 0-.005 0-.01-.01l-.02-.02c-.005.01-.015-.01-.025-.02-.005-.01-.01-.01-.014-.02 0 0-.02.02-.02-.02-.005 0-.01-.01-.015-.01 0 0-.015-.019-.025-.019 0-.01-.005-.01-.005-.01-.005-.019-.005-.01-.024-.019-.005-.02 0 .01-.025-.03-.01 0-.02-.02-.02-.02-.005 0-.01-.01-.01-.01l-63.095-63.084c-4.419-4.43-10.874-4.854-15.002-.73-4.695 4.695-3.072 11.224.956 15.258l99.107 99.116a10.085 10.085 0 0 1 2.12 11.165c-1.651 3.798-5.247 6.263-9.611 6.066l-47.304-1.638z"/></g></g></g><metadata><rdf:RDF xmlns:rdf="http://www.w3.org/1999/02/22-rdf-syntax-ns#" xmlns:rdfs="http://www.w3.org/2000/01/rdf-schema#" xmlns:dc="http://purl.org/dc/elements/1.1/"><rdf:Description about="https://iconscout.com/legal#licenses" dc:title="buy,hand" dc:description="buy,hand" dc:publisher="Iconscout" dc:date="2017-09-22" dc:format="image/svg+xml" dc:language="en"><dc:creator><rdf:Bag><rdf:li>EcommDesign</rdf:li></rdf:Bag></dc:creator></rdf:Description></rdf:RDF></metadata></svg>