<?xml version="1.0" encoding="UTF-8"?><!DOCTYPE svg PUBLIC "-//W3C//DTD SVG 1.1//EN" "http://www.w3.org/Graphics/SVG/1.1/DTD/svg11.dtd"><svg xmlns="http://www.w3.org/2000/svg" xmlns:xlink="http://www.w3.org/1999/xlink" version="1.1" id="calculator" x="0px" y="0px" viewBox="0 0 1010 1010" xml:space="preserve"><g id="calculator-calculator"><path id="calculator-label" fill="#ACAF48" d="M1010 505c0 278.914-226.096 505-505 505S0 783.914 0 505C0 226.106 226.096 0 505 0s505 226.106 505 505z"/><g id="calculator-calculator_1_"><path fill="#FFF" d="M287.85 222.2h434.3v565.6h-434.3z"/><path fill="#454545" d="M732.25 797.9h-454.5V212.1h454.5v585.8zm-434.3-20.2h414.1V232.3h-414.1v545.4z"/><path fill="#3BAFDA" d="M358.55 272.72h292.9v100.97h-292.9z"/><path fill="#454545" d="M661.55 383.79h-313.1V262.62h313.1v121.17zm-292.9-20.2h272.7v-80.77h-272.7v80.77z"/><path fill="#FFB933" d="M358.491 438.837h71.706v71.726h-71.706z"/><path fill="#454545" d="M440.297 520.663H348.39v-91.926h91.906v91.926zm-71.706-20.2h51.506v-51.526H368.59v51.526z"/><path fill="#BDC3C7" d="M470.933 438.837h71.735v71.726h-71.735z"/><path fill="#454545" d="M552.768 520.663h-91.936v-91.926h91.936v91.926zm-71.736-20.2h51.536v-51.526h-51.536v51.526z"/><g><path fill="#ACAF48" d="M579.773 438.837h71.737v71.726h-71.737z"/><path fill="#454545" d="M661.61 520.663h-91.936v-91.926h91.935v91.926zm-71.737-20.2h51.536v-51.526h-51.536v51.526z"/></g><g><path fill="#BDC3C7" d="M358.491 554.475h71.706v71.745h-71.706z"/><path fill="#454545" d="M440.297 636.32H348.39v-91.946h91.906v91.945zm-71.706-20.2h51.506v-51.546H368.59v51.545z"/><g><path fill="#BDC3C7" d="M470.933 554.475h71.735v71.745h-71.735z"/><path fill="#454545" d="M552.768 636.32h-91.936v-91.946h91.936v91.945zm-71.736-20.2h51.536v-51.546h-51.536v51.545z"/></g></g><g><path fill="#BDC3C7" d="M358.491 671.146h71.706v71.737h-71.706z"/><path fill="#454545" d="M440.297 752.982H348.39v-91.935h91.906v91.935zm-71.706-20.2h51.506v-51.535H368.59v51.535z"/></g><g><path fill="#BDC3C7" d="M470.933 671.146h71.735v71.737h-71.735z"/><path fill="#454545" d="M552.768 752.982h-91.936v-91.935h91.936v91.935zm-71.736-20.2h51.536v-51.535h-51.536v51.535z"/></g><g><path fill="#FC6E51" d="M579.773 554.475h71.737v188.408h-71.737z"/><path fill="#454545" d="M661.61 752.982h-91.936V544.374h91.935v208.608zm-71.737-20.2h51.536V564.574h-51.536v168.208z"/></g></g></g><metadata><rdf:RDF xmlns:rdf="http://www.w3.org/1999/02/22-rdf-syntax-ns#" xmlns:rdfs="http://www.w3.org/2000/01/rdf-schema#" xmlns:dc="http://purl.org/dc/elements/1.1/"><rdf:Description about="https://iconscout.com/legal#licenses" dc:title="calculator" dc:description="calculator" dc:publisher="Iconscout" dc:date="2017-09-22" dc:format="image/svg+xml" dc:language="en"><dc:creator><rdf:Bag><rdf:li>EcommDesign</rdf:li></rdf:Bag></dc:creator></rdf:Description></rdf:RDF></metadata></svg>