<?xml version="1.0" encoding="UTF-8"?><!DOCTYPE svg PUBLIC "-//W3C//DTD SVG 1.1//EN" "http://www.w3.org/Graphics/SVG/1.1/DTD/svg11.dtd"><svg xmlns="http://www.w3.org/2000/svg" xmlns:xlink="http://www.w3.org/1999/xlink" version="1.1" id="cash-register" x="0px" y="0px" viewBox="0 0 1010 1010" xml:space="preserve"><g id="cash-register-cash-register"><path id="cash-register-label" fill="#FFB933" d="M1010 505c0 278.904-226.106 505-505 505C226.086 1010 0 783.904 0 505S226.086 0 505 0c278.894 0 505 226.096 505 505z"/><g id="cash-register-cash-register_1_"><path fill="#FFF" d="M247.174 695.973V390.408h515.652v305.565"/><path fill="#ACAF48" d="M495.462 242.4H743.74v85.939H495.462z"/><path fill="#454545" d="M743.74 338.438H495.462c-5.577 0-10.1-4.527-10.1-10.1V242.4c0-5.583 4.523-10.1 10.1-10.1H743.74c5.578 0 10.1 4.517 10.1 10.1v85.939c0 5.572-4.522 10.1-10.1 10.1zm-238.178-20.2h228.079V252.5H505.563v65.739z"/><path fill="#3BAFDA" d="M228.079 700.756h553.843V767.6H228.079z"/><path fill="#454545" d="M781.922 777.7H228.079c-5.578 0-10.1-4.517-10.1-10.1v-66.844c0-5.572 4.522-10.1 10.1-10.1h553.843c5.577 0 10.1 4.528 10.1 10.1V767.6c0 5.583-4.523 10.1-10.1 10.1zm-543.743-20.2H771.82v-46.644H238.18V757.5z"/><path fill="#BDC3C7" d="M315.339 543.19h38.19v38.21h-38.19z"/><path fill="#454545" d="M353.53 591.501h-38.191c-5.577 0-10.1-4.527-10.1-10.1v-38.21c0-5.584 4.523-10.1 10.1-10.1h38.19c5.578 0 10.1 4.516 10.1 10.1v38.21c0 5.573-4.522 10.1-10.1 10.1zm-28.091-20.2h17.99v-18.01h-17.99v18.01z"/><path fill="#BDC3C7" d="M410.825 543.19h38.211v38.21h-38.21z"/><path fill="#454545" d="M449.036 591.501h-38.21c-5.578 0-10.1-4.527-10.1-10.1v-38.21c0-5.584 4.522-10.1 10.1-10.1h38.21c5.577 0 10.1 4.516 10.1 10.1v38.21c0 5.573-4.523 10.1-10.1 10.1zm-28.11-20.2h18.01v-18.01h-18.01v18.01z"/><path fill="#BDC3C7" d="M506.332 543.19h38.19v38.21h-38.19z"/><path fill="#454545" d="M544.523 591.501h-38.191c-5.578 0-10.1-4.527-10.1-10.1v-38.21c0-5.584 4.522-10.1 10.1-10.1h38.19c5.578 0 10.1 4.516 10.1 10.1v38.21c0 5.573-4.522 10.1-10.1 10.1zm-28.091-20.2h17.99v-18.01h-17.99v18.01z"/><path fill="#BDC3C7" d="M315.339 619.592h38.19v38.19h-38.19z"/><path fill="#454545" d="M353.53 667.882h-38.191c-5.577 0-10.1-4.517-10.1-10.1v-38.19c0-5.583 4.523-10.1 10.1-10.1h38.19c5.578 0 10.1 4.517 10.1 10.1v38.19c0 5.583-4.522 10.1-10.1 10.1zm-28.091-20.2h17.99v-17.99h-17.99v17.99z"/><path fill="#BDC3C7" d="M410.825 619.592h38.211v38.19h-38.21z"/><path fill="#454545" d="M449.036 667.882h-38.21c-5.578 0-10.1-4.517-10.1-10.1v-38.19c0-5.583 4.522-10.1 10.1-10.1h38.21c5.577 0 10.1 4.517 10.1 10.1v38.19c0 5.583-4.523 10.1-10.1 10.1zm-28.11-20.2h18.01v-17.99h-18.01v17.99z"/><path fill="#BDC3C7" d="M506.332 619.592h38.19v38.19h-38.19z"/><path fill="#454545" d="M544.523 667.882h-38.191c-5.578 0-10.1-4.517-10.1-10.1v-38.19c0-5.583 4.522-10.1 10.1-10.1h38.19c5.578 0 10.1 4.517 10.1 10.1v38.19c0 5.583-4.522 10.1-10.1 10.1zm-28.091-20.2h17.99v-17.99h-17.99v17.99z"/><g><path fill="#ACAF48" d="M601.838 619.592h95.486v38.19h-95.486z"/><path fill="#454545" d="M697.324 667.882h-95.486c-5.578 0-10.1-4.517-10.1-10.1v-38.19c0-5.583 4.522-10.1 10.1-10.1h95.486c5.578 0 10.1 4.517 10.1 10.1v38.19c0 5.583-4.522 10.1-10.1 10.1zm-85.386-20.2h75.287v-17.99h-75.288v17.99z"/></g><g><path fill="#FC6E51" d="M601.838 543.19h95.486v38.21h-95.486z"/><path fill="#454545" d="M697.324 591.501h-95.486c-5.578 0-10.1-4.527-10.1-10.1v-38.21c0-5.584 4.522-10.1 10.1-10.1h95.486c5.578 0 10.1 4.516 10.1 10.1v38.21c0 5.573-4.522 10.1-10.1 10.1zm-85.386-20.2h75.287v-18.01h-75.288v18.01z"/></g><g><path fill="#BDC3C7" d="M506.332 428.619h190.992v57.275H506.332z"/><path fill="#454545" d="M697.324 495.994H506.332c-5.578 0-10.1-4.526-10.1-10.1V428.62c0-5.583 4.522-10.1 10.1-10.1h190.992c5.578 0 10.1 4.517 10.1 10.1v57.275c0 5.574-4.522 10.1-10.1 10.1zm-180.892-20.2h170.793V438.72H516.432v37.076z"/></g><g><path fill="#BDC3C7" d="M464.916 386.325v100.457h-168.13V386.325"/><path fill="#454545" d="M464.916 496.883h-168.13c-5.578 0-10.1-4.528-10.1-10.1V386.324h20.2v90.358h147.93v-90.358h20.2v100.457c0 5.574-4.523 10.1-10.1 10.1z"/></g><g><path fill="#454545" d="M762.826 706.072c-5.578 0-10.1-4.516-10.1-10.1V400.509H257.275v295.465c0 5.583-4.522 10.1-10.1 10.1-5.578 0-10.1-4.517-10.1-10.1V390.408c0-5.573 4.522-10.1 10.1-10.1h515.652c5.578 0 10.1 4.527 10.1 10.1v305.565c0 5.583-4.522 10.1-10.1 10.1z"/></g><g><path fill="#454545" d="M615.42 400.508c-5.578 0-10.1-4.517-10.1-10.1v-57.286c0-5.582 4.522-10.1 10.1-10.1 5.577 0 10.1 4.518 10.1 10.1v57.286c0 5.583-4.523 10.1-10.1 10.1z"/></g><g><path fill="#454545" d="M533.673 744.283h-57.326v-20.2h57.326v20.2z"/></g><g><path fill="#FFF" d="M321.139 451.837h119.444V281.24l-13.66 13.641-10.219-13.64-10.248 13.64-13.65-13.64-10.22 13.64-13.66-13.64-10.257 13.64-13.651-13.64-10.219 13.64-13.66-13.64z"/><path fill="#454545" d="M440.583 461.937H321.139c-5.578 0-10.1-4.517-10.1-10.1V281.24c0-4.083 2.46-7.772 6.233-9.33a10.129 10.129 0 0 1 11.002 2.18l5.42 5.415 3.24-4.32a10.113 10.113 0 0 1 7.364-4.025 10.06 10.06 0 0 1 7.86 2.94l5.425 5.415 3.27-4.35a10.099 10.099 0 0 1 7.358-4.005c2.92-.217 5.785.868 7.851 2.93l5.42 5.415 3.24-4.32a10.112 10.112 0 0 1 7.363-4.025c2.95-.217 5.795.868 7.861 2.94l5.42 5.415 3.26-4.35a10.11 10.11 0 0 1 8.078-4.024h.005c3.18 0 6.174 1.499 8.078 4.043l3.24 4.32 5.42-5.414a10.081 10.081 0 0 1 11.002-2.18 10.096 10.096 0 0 1 6.234 9.33v170.596c0 5.583-4.522 10.1-10.1 10.1zm-109.344-20.2h99.244V304.34c-1.351.503-2.845.71-4.28.612a10.102 10.102 0 0 1-7.364-4.014l-2.145-2.87-2.16 2.88a10.077 10.077 0 0 1-7.363 4.004c-2.998.177-5.785-.868-7.856-2.93l-5.41-5.405-3.235 4.32a10.104 10.104 0 0 1-7.363 4.015c-2.84.177-5.79-.848-7.856-2.92l-5.435-5.434-3.275 4.35a10.034 10.034 0 0 1-7.362 4.004c-2.95.177-5.785-.868-7.852-2.93l-5.41-5.405-3.235 4.32a10.103 10.103 0 0 1-7.362 4.015c-1.42.118-2.93-.109-4.281-.612v137.395z"/></g></g></g><metadata><rdf:RDF xmlns:rdf="http://www.w3.org/1999/02/22-rdf-syntax-ns#" xmlns:rdfs="http://www.w3.org/2000/01/rdf-schema#" xmlns:dc="http://purl.org/dc/elements/1.1/"><rdf:Description about="https://iconscout.com/legal#licenses" dc:title="cash,register" dc:description="cash,register" dc:publisher="Iconscout" dc:date="2017-09-22" dc:format="image/svg+xml" dc:language="en"><dc:creator><rdf:Bag><rdf:li>EcommDesign</rdf:li></rdf:Bag></dc:creator></rdf:Description></rdf:RDF></metadata></svg>