<?xml version="1.0" encoding="UTF-8"?><!DOCTYPE svg PUBLIC "-//W3C//DTD SVG 1.1//EN" "http://www.w3.org/Graphics/SVG/1.1/DTD/svg11.dtd"><svg xmlns="http://www.w3.org/2000/svg" xmlns:xlink="http://www.w3.org/1999/xlink" version="1.1" id="delivery-truck" x="0px" y="0px" viewBox="0 0 1010 1010" xml:space="preserve"><g id="delivery-truck-delivery-truck"><path id="delivery-truck-label" fill="#ACAF48" d="M1010 505c0 278.904-226.106 505-505 505C226.086 1010 0 783.904 0 505S226.086 0 505 0c278.894 0 505 226.096 505 505z"/><g id="delivery-truck-delivery-truck_1_"><path fill="#FFF" d="M351.774 726.667c-28.564 0-51.802-23.247-51.802-51.821 0-28.565 23.238-51.802 51.802-51.802 28.574 0 51.832 23.237 51.832 51.802 0 28.574-23.258 51.821-51.832 51.821z"/><path fill="#FC6E51" d="M404.237 679.56l-.878-9.478c-2.407-26.385-25.083-47.038-51.585-47.038-26.493 0-49.149 20.653-51.555 47.038l-.878 9.479h-46.466c-10.396 0-18.858-8.444-18.858-18.85V378.099c0-10.396 8.462-18.84 18.858-18.84h282.612c10.387 0 18.84 8.444 18.84 18.84v43.537l-.11.769c-.147.927-.315 1.834-.315 2.801v27.242l.424 10.436V679.56h-150.09z"/><path fill="#FFF" d="M681.514 726.667c-28.584 0-51.823-23.247-51.823-51.821 0-28.565 23.239-51.802 51.823-51.802 28.563 0 51.811 23.237 51.811 51.802 0 28.574-23.248 51.821-51.811 51.821z"/><path fill="#FFB933" d="M733.957 679.56l-.879-9.478c-2.406-26.385-25.062-47.038-51.564-47.038-26.513 0-49.17 20.653-51.576 47.038l-.878 9.479h-74.734V444.045h131.902c10.386 0 18.829 8.453 18.829 18.839l37.677 84.784 56.537 9.43h1.519l1.213.414c9.34 2.771 16.097 18.562 16.097 27.834v56.537h-55.51 55.51v18.828c0 10.406-8.443 18.85-18.829 18.85h-65.314z"/><path fill="#454545" d="M799.271 689.66h-56.537v-20.2h56.537c4.813 0 8.729-3.925 8.729-8.75v-75.364c0-7.14-5.952-17.418-8.892-18.168-.557 0-.947-.03-1.499-.118l-56.537-9.43a10.1 10.1 0 0 1-7.57-5.858l-37.677-84.786a10.102 10.102 0 0 1-.868-4.102c0-4.824-3.916-8.74-8.729-8.74H554.326v-20.199h131.902c15.16 0 27.632 11.717 28.835 26.581l34.695 78.068 50.5 8.424c16.84.847 27.942 23.356 27.942 38.328v75.365c0 15.969-12.975 28.95-28.929 28.95z"/><path fill="#454545" d="M290.543 689.66h-37.668c-15.969 0-28.959-12.98-28.959-28.95V538.24h20.2v122.47c0 4.825 3.93 8.75 8.759 8.75h37.668v20.2z"/><path fill="#454545" d="M629.691 689.66H403.605v-20.2h226.086v20.2z"/><path fill="#454545" d="M351.774 736.768c-34.132 0-61.902-27.776-61.902-61.922 0-34.127 27.77-61.903 61.902-61.903 34.152 0 61.932 27.776 61.932 61.903 0 34.146-27.78 61.922-61.932 61.922zm0-103.624c-22.996 0-41.702 18.7-41.702 41.702s18.706 41.721 41.702 41.721c23.011 0 41.732-18.72 41.732-41.721s-18.72-41.702-41.732-41.702z"/><path fill="#454545" d="M681.514 736.768c-34.143 0-61.922-27.776-61.922-61.922 0-34.127 27.78-61.903 61.922-61.903 34.136 0 61.912 27.776 61.912 61.903 0 34.146-27.776 61.922-61.912 61.922zm0-103.624c-23.006 0-41.722 18.7-41.722 41.702s18.716 41.721 41.722 41.721c23 0 41.71-18.72 41.71-41.721s-18.71-41.702-41.71-41.702z"/><path fill="#454545" d="M808.69 651.982h-56.526v-20.2h56.526v20.2z"/><path fill="#454545" d="M564.426 670.13h-20.2V444.046h20.2V670.13z"/><path fill="#454545" d="M620.273 601.719h-28.279v-20.2h28.279v20.2z"/><path fill="#454545" d="M564.426 585.346h-20.2V378.099c0-4.823-3.92-8.739-8.739-8.739H252.875c-4.828 0-8.759 3.916-8.759 8.739v207.247h-20.2V378.099c0-15.959 12.99-28.939 28.959-28.939h282.612c15.96 0 28.94 12.98 28.94 28.939v207.247z"/><path fill="#454545" d="M526.068 425.877H252.875v-20.2h273.193v20.2z"/><path fill="#454545" d="M526.068 501.252H252.875v-20.2h273.193v20.2z"/><path fill="#454545" d="M526.068 576.607H252.875v-20.2h273.193v20.2z"/><path fill="#3BAFDA" d="M582.595 548.714c0 5.208 4.221 9.419 9.4 9.419h103.653c5.198 0 9.409-4.211 9.409-9.42l-28.258-56.535c0-5.208-4.222-9.42-9.43-9.42h-75.375c-5.178 0-9.4 4.212-9.4 9.42v56.536z"/><path fill="#454545" d="M695.648 568.233H591.994c-10.75 0-19.5-8.758-19.5-19.52v-56.535c0-10.761 8.75-19.52 19.5-19.52h75.375c9.824 0 17.98 7.29 19.332 16.748l27.39 54.79a10.08 10.08 0 0 1 1.066 4.518c0 10.76-8.754 19.52-19.51 19.52zm-28.949-76.055l-74.705.68.7 55.856 100.74-.671-25.67-51.348c-.7-1.4-1.065-2.94-1.065-4.517z"/><g><path fill="#FFF" d="M329.65 263.133c53.775 0 97.361 43.595 97.361 97.35 0 53.775-43.586 97.351-97.36 97.351-53.775 0-97.351-43.576-97.351-97.35 0-53.755 43.576-97.351 97.35-97.351z"/><path fill="#454545" d="M329.65 467.934c-59.248 0-107.45-48.192-107.45-107.45 0-59.24 48.202-107.452 107.45-107.452 59.254 0 107.461 48.212 107.461 107.451 0 59.259-48.207 107.45-107.46 107.45zm0-194.702c-48.107 0-87.25 39.148-87.25 87.251 0 48.113 39.142 87.25 87.25 87.25 48.119 0 87.261-39.137 87.261-87.25 0-48.103-39.142-87.25-87.26-87.25z"/><g><path fill="#454545" d="M385.29 370.268h-65.887v-85.85h20.2v65.65h45.687v20.2z"/></g></g></g></g><metadata><rdf:RDF xmlns:rdf="http://www.w3.org/1999/02/22-rdf-syntax-ns#" xmlns:rdfs="http://www.w3.org/2000/01/rdf-schema#" xmlns:dc="http://purl.org/dc/elements/1.1/"><rdf:Description about="https://iconscout.com/legal#licenses" dc:title="delivery,truck" dc:description="delivery,truck" dc:publisher="Iconscout" dc:date="2017-09-22" dc:format="image/svg+xml" dc:language="en"><dc:creator><rdf:Bag><rdf:li>EcommDesign</rdf:li></rdf:Bag></dc:creator></rdf:Description></rdf:RDF></metadata></svg>