<?xml version="1.0" encoding="UTF-8"?><!DOCTYPE svg PUBLIC "-//W3C//DTD SVG 1.1//EN" "http://www.w3.org/Graphics/SVG/1.1/DTD/svg11.dtd"><svg xmlns="http://www.w3.org/2000/svg" xmlns:xlink="http://www.w3.org/1999/xlink" version="1.1" id="discount-coupon" x="0px" y="0px" viewBox="0 0 1010 1010" xml:space="preserve"><g id="discount-coupon-discount-coupon"><circle id="discount-coupon-label" fill="#ACAF48" cx="505" cy="505" r="505"/><g id="discount-coupon-discount-coupon_1_"><path fill="#FFF" d="M221.085 351.31c26.937 0 48.745-21.521 48.745-48.113h468.111c0 26.592 21.808 48.113 48.745 48.113v307.834c-26.937 0-48.745 21.521-48.745 48.083h-468.11c0-26.562-21.809-48.083-48.746-48.083V351.31z"/><path fill="#454545" d="M748.041 717.326H259.73v-10.1c0-20.939-17.334-37.983-38.645-37.983h-10.1V341.21h10.1c21.31 0 38.645-17.053 38.645-38.013v-10.1h488.311v10.1c0 20.96 17.335 38.013 38.644 38.013h10.1v328.033h-10.1c-21.309 0-38.644 17.044-38.644 37.984v10.1zm-468.999-20.199h449.687c4.276-24.047 23.524-43.054 47.857-47.235v-289.35c-24.333-4.172-43.586-23.189-47.858-47.245H279.042c-4.27 24.056-23.523 43.073-47.856 47.245v289.35c24.333 4.181 43.58 23.188 47.856 47.235z"/><path fill="#FC6E51" d="M299.686 668.76c-8.512-16.836-22.488-30.645-39.62-39.078v-248.92c17.132-8.423 31.108-22.212 39.62-39.098h408.38c8.532 16.886 22.527 30.675 39.65 39.098v248.92c-17.123 8.433-31.118 22.242-39.65 39.078h-408.38z"/><path fill="#454545" d="M714.27 678.86H293.471l-2.801-5.544c-7.506-14.853-19.963-27.133-35.069-34.57l-5.637-2.781V374.469l5.647-2.771c15.106-7.427 27.558-19.697 35.054-34.58l2.801-5.554H714.28l2.801 5.543c7.516 14.874 19.979 27.164 35.094 34.59l5.642 2.772v261.496l-5.637 2.781c-15.11 7.437-27.577 19.727-35.104 34.58l-2.806 5.533zm-408.607-20.2h396.43c8.556-14.42 20.89-26.582 35.522-35.024V386.818c-14.641-8.443-26.975-20.614-35.527-35.054h-396.42c-8.537 14.45-20.86 26.62-35.503 35.054v236.818c14.632 8.442 26.957 20.595 35.498 35.024z"/><path fill="#FFB933" d="M630.678 505.217c0 69.062-56.763 125.056-126.792 125.056-70.05 0-126.793-55.994-126.793-125.056S433.836 380.15 503.886 380.15c70.029 0 126.792 56.004 126.792 125.067z"/><g><path fill="#454545" d="M445.968 576.548l-14.183-14.38 130.018-128.292 14.183 14.38-130.018 128.292z"/><path fill="#FFF" d="M487.64 465.123c0 13.275-10.928 24.057-24.391 24.057-13.454 0-24.372-10.782-24.372-24.057 0-13.286 10.918-24.057 24.372-24.057 13.463 0 24.392 10.77 24.392 24.057z"/><path fill="#454545" d="M463.249 499.28c-19.007 0-34.473-15.329-34.473-34.157 0-18.83 15.466-34.157 34.473-34.157 19.016 0 34.492 15.328 34.492 34.157 0 18.828-15.476 34.156-34.492 34.156zm0-48.114c-7.871 0-14.272 6.264-14.272 13.957 0 7.693 6.4 13.956 14.272 13.956 7.88 0 14.292-6.263 14.292-13.956s-6.411-13.957-14.292-13.957z"/><g><path fill="#FFF" d="M568.894 545.3c0 13.277-10.889 24.067-24.362 24.067-13.453 0-24.382-10.79-24.382-24.066s10.929-24.046 24.382-24.046c13.473 0 24.362 10.77 24.362 24.046z"/><path fill="#454545" d="M544.532 579.468c-19.012 0-34.482-15.327-34.482-34.167 0-18.828 15.47-34.147 34.482-34.147 19.002 0 34.462 15.319 34.462 34.147 0 18.84-15.46 34.167-34.462 34.167zm0-48.113c-7.876 0-14.282 6.252-14.282 13.946 0 7.693 6.406 13.967 14.282 13.967 7.866 0 14.262-6.274 14.262-13.967 0-7.694-6.396-13.947-14.262-13.947z"/></g></g><g><path fill="#454545" d="M347.335 515.316h-20.2v-20.199h20.2v20.2z"/><path fill="#454545" d="M680.636 515.316h-20.2v-20.199h20.2v20.2z"/></g></g></g><metadata><rdf:RDF xmlns:rdf="http://www.w3.org/1999/02/22-rdf-syntax-ns#" xmlns:rdfs="http://www.w3.org/2000/01/rdf-schema#" xmlns:dc="http://purl.org/dc/elements/1.1/"><rdf:Description about="https://iconscout.com/legal#licenses" dc:title="discount,coupon" dc:description="discount,coupon" dc:publisher="Iconscout" dc:date="2017-09-22" dc:format="image/svg+xml" dc:language="en"><dc:creator><rdf:Bag><rdf:li>EcommDesign</rdf:li></rdf:Bag></dc:creator></rdf:Description></rdf:RDF></metadata></svg>