<?xml version="1.0" encoding="UTF-8"?><!DOCTYPE svg PUBLIC "-//W3C//DTD SVG 1.1//EN" "http://www.w3.org/Graphics/SVG/1.1/DTD/svg11.dtd"><svg xmlns="http://www.w3.org/2000/svg" xmlns:xlink="http://www.w3.org/1999/xlink" version="1.1" id="dollar-coin" x="0px" y="0px" viewBox="0 0 1010 1010" xml:space="preserve"><g id="dollar-coin-dollar-coin"><circle id="dollar-coin-label" fill="#ACAF48" cx="505" cy="505" r="505"/><g id="dollar-coin-dollar-coin_1_"><path fill="#FFF" d="M787.8 505c0 156.175-126.605 282.8-282.78 282.8-156.205 0-282.82-126.625-282.82-282.8 0-156.195 126.615-282.8 282.82-282.8 156.175 0 282.78 126.605 282.78 282.8z"/><path fill="#454545" d="M505.02 797.9C343.499 797.9 212.1 666.501 212.1 505c0-161.501 131.399-292.9 292.92-292.9 161.492 0 292.88 131.399 292.88 292.9 0 161.501-131.388 292.9-292.88 292.9zm0-565.6C354.644 232.3 232.3 354.634 232.3 505c0 150.365 122.344 272.7 272.72 272.7 150.356 0 272.68-122.335 272.68-272.7 0-150.366-122.324-272.7-272.68-272.7z"/><path fill="#FFB933" d="M722.15 505c0 119.947-97.212 217.15-217.15 217.15-119.928 0-217.15-97.203-217.15-217.15 0-119.928 97.222-217.15 217.15-217.15 119.938 0 217.15 97.222 217.15 217.15z"/><g><path fill="#454545" d="M505.01 654.429c-5.583 0-10.1-4.518-10.1-10.1V365.65c0-5.582 4.517-10.1 10.1-10.1 5.583 0 10.1 4.518 10.1 10.1v278.677c0 5.583-4.517 10.1-10.1 10.1z"/><path fill="#454545" d="M616.712 420.284l-223.433-.02c-5.583 0-10.1-4.527-10.1-10.1 0-5.572 4.527-10.1 10.1-10.1l223.433.02c5.582 0 10.1 4.527 10.1 10.1 0 5.573-4.528 10.1-10.1 10.1z"/><path fill="#454545" d="M616.712 513.167H393.279c-5.583 0-10.1-4.518-10.1-10.1 0-5.583 4.517-10.1 10.1-10.1h223.433c5.582 0 10.1 4.517 10.1 10.1 0 5.582-4.518 10.1-10.1 10.1z"/><path fill="#454545" d="M616.712 609.906H393.279c-5.583 0-10.1-4.517-10.1-10.1s4.517-10.1 10.1-10.1h223.433c5.582 0 10.1 4.517 10.1 10.1s-4.518 10.1-10.1 10.1z"/><path fill="#454545" d="M393.279 507.19c-5.583 0-10.1-4.528-10.1-10.1l.029-82.32c0-5.582 4.527-10.1 10.1-10.1 5.583 0 10.1 4.528 10.1 10.1l-.03 82.32c0 5.582-4.526 10.1-10.1 10.1z"/><path fill="#454545" d="M616.712 609.373c-5.583 0-10.1-4.518-10.1-10.1v-96.187c0-5.582 4.517-10.1 10.1-10.1 5.582 0 10.1 4.518 10.1 10.1v96.187c0 5.582-4.518 10.1-10.1 10.1z"/></g></g></g><metadata><rdf:RDF xmlns:rdf="http://www.w3.org/1999/02/22-rdf-syntax-ns#" xmlns:rdfs="http://www.w3.org/2000/01/rdf-schema#" xmlns:dc="http://purl.org/dc/elements/1.1/"><rdf:Description about="https://iconscout.com/legal#licenses" dc:title="dollar,coin" dc:description="dollar,coin" dc:publisher="Iconscout" dc:date="2017-09-22" dc:format="image/svg+xml" dc:language="en"><dc:creator><rdf:Bag><rdf:li>EcommDesign</rdf:li></rdf:Bag></dc:creator></rdf:Description></rdf:RDF></metadata></svg>