<?xml version="1.0" encoding="UTF-8"?><!DOCTYPE svg PUBLIC "-//W3C//DTD SVG 1.1//EN" "http://www.w3.org/Graphics/SVG/1.1/DTD/svg11.dtd"><svg xmlns="http://www.w3.org/2000/svg" xmlns:xlink="http://www.w3.org/1999/xlink" version="1.1" id="dollar-bill" x="0px" y="0px" viewBox="0 0 1010 1010" xml:space="preserve"><g id="dollar-bill-dollar-bill"><path id="dollar-bill-label" fill="#3BAFDA" d="M1010 505c0 278.904-226.086 505-505 505C226.106 1010 0 783.904 0 505S226.106 0 505 0c278.914 0 505 226.096 505 505z"/><g id="dollar-bill-dollar-bill_1_"><path fill="#FFF" d="M259.917 325.883v-56.556h490.185v56.556"/><path fill="#454545" d="M750.102 335.982c-5.583 0-10.1-4.517-10.1-10.1v-46.455H270.019v46.456c0 5.582-4.518 10.1-10.101 10.1-5.582 0-10.1-4.518-10.1-10.1v-56.556c0-5.583 4.518-10.1 10.1-10.1h490.186c5.583 0 10.1 4.517 10.1 10.1v56.556c0 5.582-4.517 10.1-10.1 10.1z"/><path fill="#ACAF48" d="M222.21 325.883h565.6v414.79h-565.6z"/><path fill="#454545" d="M787.81 750.773h-565.6c-5.583 0-10.1-4.517-10.1-10.1v-414.79c0-5.583 4.517-10.1 10.1-10.1h565.6c5.583 0 10.1 4.517 10.1 10.1v414.79c0 5.583-4.517 10.1-10.1 10.1zm-555.5-20.2h545.4v-394.59h-545.4v394.59z"/><path fill="#FC6E51" d="M636.97 401.297H373.03c0 42.432-33.003 75.415-75.415 75.415l1.874 108.417c42.432 0 73.54 37.697 73.54 80.13h263.942c0-42.433 33.003-75.415 75.434-75.415V476.712c-42.431 0-75.434-32.983-75.434-75.415z"/><path fill="#454545" d="M636.97 675.358H373.03c-5.583 0-10.1-4.517-10.1-10.1 0-38.614-28.456-70.029-63.441-70.029-5.514 0-10.002-4.419-10.1-9.922l-1.874-108.417a10.083 10.083 0 0 1 2.9-7.26 10.074 10.074 0 0 1 7.2-3.018c36.622 0 65.315-28.692 65.315-65.315 0-5.582 4.517-10.1 10.1-10.1h263.94c5.584 0 10.1 4.518 10.1 10.1 0 36.623 28.703 65.315 65.335 65.315 5.583 0 10.1 4.517 10.1 10.1v113.132c0 5.583-4.517 10.1-10.1 10.1-36.632 0-65.335 28.693-65.335 65.315 0 5.582-4.516 10.1-10.1 10.1zm-254.364-20.2h244.828c4.487-39.719 35.142-70.374 74.87-74.851V486.25c-39.728-4.479-70.383-35.133-74.87-74.853H382.567c-4.478 39.66-35.054 70.287-74.685 74.833l1.549 89.43c38.378 4.922 68.875 38.004 73.175 79.498z"/><g><path fill="#FFB933" d="M505 476.712c31.247 0 56.576 25.329 56.576 56.576 0 31.237-25.329 56.556-56.576 56.556s-56.556-25.319-56.556-56.556c0-31.247 25.309-56.576 56.556-56.576z"/><path fill="#454545" d="M505 599.943c-36.75 0-66.656-29.905-66.656-66.655 0-36.76 29.905-66.676 66.656-66.676 36.76 0 66.676 29.915 66.676 66.676 0 36.75-29.915 66.655-66.676 66.655zm0-113.13c-25.615 0-46.456 20.85-46.456 46.475 0 25.614 20.841 46.456 46.456 46.456 25.625 0 46.476-20.842 46.476-46.456 0-25.625-20.851-46.476-46.476-46.476z"/></g><g><path fill="#454545" d="M388.86 539.344h-20.2v-20.2h20.2v20.2z"/><path fill="#454545" d="M641.36 539.344h-20.2v-20.2h20.2v20.2z"/></g></g></g><metadata><rdf:RDF xmlns:rdf="http://www.w3.org/1999/02/22-rdf-syntax-ns#" xmlns:rdfs="http://www.w3.org/2000/01/rdf-schema#" xmlns:dc="http://purl.org/dc/elements/1.1/"><rdf:Description about="https://iconscout.com/legal#licenses" dc:title="dollar,bill" dc:description="dollar,bill" dc:publisher="Iconscout" dc:date="2017-09-22" dc:format="image/svg+xml" dc:language="en"><dc:creator><rdf:Bag><rdf:li>EcommDesign</rdf:li></rdf:Bag></dc:creator></rdf:Description></rdf:RDF></metadata></svg>