<?xml version="1.0" encoding="UTF-8"?><!DOCTYPE svg PUBLIC "-//W3C//DTD SVG 1.1//EN" "http://www.w3.org/Graphics/SVG/1.1/DTD/svg11.dtd"><svg xmlns="http://www.w3.org/2000/svg" xmlns:xlink="http://www.w3.org/1999/xlink" version="1.1" id="dollar-bills" x="0px" y="0px" viewBox="0 0 1010 1010" xml:space="preserve"><g id="dollar-bills-dollar-bills"><circle id="dollar-bills-label" fill="#3BAFDA" cx="505" cy="505" r="505"/><g id="dollar-bills-dollar-bills_1_"><path fill="#818336" d="M232.3 495.758h545.4v202H232.3z"/><path fill="#454545" d="M777.7 666.6H232.3v-20.2h545.4v20.2z"/><path fill="#454545" d="M777.7 707H232.3v-20.2h545.4V707z"/><path fill="#454545" d="M777.7 626.2H232.3V606h545.4v20.2z"/><path fill="#ACAF48" d="M242.4 313.1h525.2v262.6H242.4z"/><path fill="#454545" d="M777.7 585.8H232.3V303h545.4v282.8zm-525.2-20.2h505V323.2h-505v242.4z"/><path fill="#FC6E51" d="M333.3 535.3c0-30.3-20.2-40.4-50.5-40.4v-101c30.3 0 50.5-10.1 50.5-40.4h353.5c0 30.3 20.2 40.4 40.4 40.4v101c-20.2 0-40.4 10.1-40.4 40.4H333.3z"/><path fill="#454545" d="M696.9 545.4H323.2v-10.1c0-15.741-4.892-30.3-40.4-30.3h-10.1V383.8h10.1c35.508 0 40.4-14.558 40.4-30.3v-10.1h373.7v10.1c0 25.043 16.477 30.3 30.3 30.3h10.1V505h-10.1c-13.823 0-30.3 5.257-30.3 30.3v10.1zm-354.235-20.2H677.4c3.655-25.063 21.05-36.672 39.7-39.62v-82.36c-18.65-2.949-36.045-14.557-39.7-39.62H342.665c-2.84 18.572-14.74 37.056-49.765 39.996v81.608c35.025 2.94 46.925 21.423 49.765 39.996z"/><g><path fill="#FFF" d="M505 393.9c27.894 0 50.5 22.607 50.5 50.5s-22.606 50.5-50.5 50.5-50.5-22.607-50.5-50.5 22.606-50.5 50.5-50.5z"/><path fill="#454545" d="M505 505c-33.417 0-60.6-27.184-60.6-60.6 0-33.417 27.183-60.6 60.6-60.6s60.6 27.183 60.6 60.6c0 33.416-27.183 60.6-60.6 60.6zm0-101c-22.276 0-40.4 18.119-40.4 40.4 0 22.282 18.124 40.4 40.4 40.4s40.4-18.118 40.4-40.4c0-22.281-18.124-40.4-40.4-40.4z"/></g><g><path fill="#454545" d="M388.85 454.5h-20.2v-20.2h20.2v20.2z"/><path fill="#454545" d="M641.35 454.5h-20.2v-20.2h20.2v20.2z"/></g></g></g><metadata><rdf:RDF xmlns:rdf="http://www.w3.org/1999/02/22-rdf-syntax-ns#" xmlns:rdfs="http://www.w3.org/2000/01/rdf-schema#" xmlns:dc="http://purl.org/dc/elements/1.1/"><rdf:Description about="https://iconscout.com/legal#licenses" dc:title="dollar,bills" dc:description="dollar,bills" dc:publisher="Iconscout" dc:date="2017-09-22" dc:format="image/svg+xml" dc:language="en"><dc:creator><rdf:Bag><rdf:li>EcommDesign</rdf:li></rdf:Bag></dc:creator></rdf:Description></rdf:RDF></metadata></svg>