<?xml version="1.0" encoding="UTF-8"?><!DOCTYPE svg PUBLIC "-//W3C//DTD SVG 1.1//EN" "http://www.w3.org/Graphics/SVG/1.1/DTD/svg11.dtd"><svg xmlns="http://www.w3.org/2000/svg" xmlns:xlink="http://www.w3.org/1999/xlink" version="1.1" id="dress" x="0px" y="0px" viewBox="0 0 1010 1010" xml:space="preserve"><g id="dress-dress"><path id="dress-label" fill="#3BAFDA" d="M1010 505c0 278.904-226.106 505-505 505C226.086 1010 0 783.904 0 505S226.086 0 505 0c278.894 0 505 226.096 505 505z"/><g id="dress-dress_1_"><path fill="#FFF" d="M398.418 536.514V400.33h-45.154s-38.882-27.144-38.882-73.847c0-109.038 105.064-93.415 105.064-93.415v73.926s85.692 46.663 171.206-3.867v-70.059s104.986-15.623 104.986 93.415c0 46.703-38.94 73.847-38.94 73.847h-45.056v136.183"/><path fill="#454545" d="M611.642 546.613c-5.578 0-10.1-4.527-10.1-10.1V400.332c0-5.583 4.522-10.1 10.1-10.1h41.598c7.753-6.392 32.297-29.353 32.297-63.747 0-29.53-8.23-51.634-24.46-65.68-19.589-16.964-46.703-18.73-60.324-18.345v60.669c0 3.57-1.889 6.875-4.962 8.69-89.41 52.828-177.47 6.056-181.173 4.043a10.089 10.089 0 0 1-5.272-8.866v-64.536c-13.74-.345-40.8 1.38-60.407 18.365-16.226 14.046-24.457 36.14-24.457 65.66 0 34.364 24.471 57.316 32.249 63.747h41.687c5.577 0 10.1 4.517 10.1 10.1v136.183c0 5.572-4.523 10.1-10.1 10.1-5.578 0-10.1-4.528-10.1-10.1V410.43h-35.054c-2.067 0-4.084-.641-5.78-1.825-1.766-1.233-43.202-30.744-43.202-82.122 0-35.714 10.618-62.986 31.568-81.046 34.22-29.511 83.039-22.646 85.08-22.35 4.952.73 8.616 4.98 8.616 9.981v67.564c18.82 8.334 84.918 32.588 151.007-3.383v-64.18c0-5.002 3.664-9.253 8.611-9.982 2.066-.316 50.79-7.171 85.006 22.33 20.945 18.06 31.567 45.332 31.567 81.066 0 51.378-41.499 80.899-43.264 82.132a10.086 10.086 0 0 1-5.776 1.815h-34.955v126.083c0 5.572-4.522 10.1-10.1 10.1z"/><path fill="#FC6E51" d="M611.642 536.514L771.9 777.7H238.1l160.318-241.186"/><path fill="#454545" d="M771.9 787.8H238.1c-3.724 0-7.141-2.052-8.902-5.326a10.11 10.11 0 0 1 .489-10.367l160.317-241.186c3.087-4.646 9.35-5.898 14.006-2.821 4.645 3.097 5.908 9.36 2.821 14.006L256.938 767.6h496.123L603.23 542.105c-3.087-4.655-1.82-10.918 2.826-14.005 4.65-3.068 10.913-1.815 14 2.82l160.26 241.197A10.095 10.095 0 0 1 771.9 787.8z"/><path fill="#FFF" d="M407.235 530.654h195.53"/><path fill="#454545" d="M602.765 540.754h-195.53c-5.578 0-10.1-4.527-10.1-10.1s4.522-10.1 10.1-10.1h195.53c5.578 0 10.1 4.528 10.1 10.1s-4.522 10.1-10.1 10.1z"/><g><path fill="#454545" d="M471.44 403.644c-1.46 0-2.944-.315-4.344-.986-5.035-2.406-7.166-8.432-4.764-13.463l29.254-61.28a10.094 10.094 0 0 1 8.566-5.73c3.876-.228 7.196 1.636 9.138 4.783l37.856 61.27c2.934 4.744 1.464 10.968-3.285 13.898-4.744 2.949-10.967 1.47-13.897-3.284l-28.125-45.53-21.28 44.572a10.096 10.096 0 0 1-9.119 5.75z"/></g><g fill="#454545"><path d="M409.129 604.323h16.156"/><path d="M425.285 614.423H409.13c-5.578 0-10.1-4.517-10.1-10.1 0-5.573 4.522-10.1 10.1-10.1h16.156c5.578 0 10.1 4.527 10.1 10.1 0 5.583-4.522 10.1-10.1 10.1z"/><path d="M450.486 604.323h16.245"/><path d="M466.73 614.423h-16.244c-5.578 0-10.1-4.517-10.1-10.1 0-5.573 4.522-10.1 10.1-10.1h16.244c5.579 0 10.1 4.527 10.1 10.1 0 5.583-4.521 10.1-10.1 10.1z"/><path d="M437.89 577.357v16.196"/><path d="M437.89 603.652c-5.577 0-10.1-4.517-10.1-10.1v-16.195c0-5.573 4.522-10.1 10.1-10.1 5.578 0 10.1 4.527 10.1 10.1v16.196c0 5.582-4.522 10.1-10.1 10.1z"/><g><path d="M437.89 618.743v16.195"/><path d="M437.89 645.04c-5.577 0-10.1-4.519-10.1-10.102v-16.195c0-5.583 4.522-10.1 10.1-10.1 5.578 0 10.1 4.517 10.1 10.1v16.195c0 5.583-4.522 10.101-10.1 10.101z"/></g><g><path d="M476.2 703.962h16.175"/><path d="M492.375 714.063h-16.176c-5.577 0-10.1-4.518-10.1-10.101 0-5.573 4.523-10.1 10.1-10.1h16.176c5.578 0 10.1 4.527 10.1 10.1 0 5.583-4.522 10.1-10.1 10.1z"/><path d="M517.576 703.962H533.8"/><path d="M533.8 714.063h-16.224c-5.578 0-10.1-4.518-10.1-10.101 0-5.573 4.522-10.1 10.1-10.1H533.8c5.578 0 10.1 4.527 10.1 10.1 0 5.583-4.522 10.1-10.1 10.1z"/><g><path d="M504.98 677.006V693.2"/><path d="M504.98 703.3c-5.578 0-10.1-4.527-10.1-10.099v-16.195c0-5.573 4.522-10.1 10.1-10.1 5.578 0 10.1 4.527 10.1 10.1V693.2c0 5.572-4.522 10.1-10.1 10.1z"/></g><g><path d="M504.98 718.382v16.206"/><path d="M504.98 744.688c-5.578 0-10.1-4.528-10.1-10.1v-16.206c0-5.582 4.522-10.1 10.1-10.1 5.578 0 10.1 4.518 10.1 10.1v16.206c0 5.572-4.522 10.1-10.1 10.1z"/></g></g><g><path d="M607.499 703.962h16.176"/><path d="M623.675 714.063h-16.176c-5.577 0-10.1-4.518-10.1-10.101 0-5.573 4.523-10.1 10.1-10.1h16.176c5.578 0 10.1 4.527 10.1 10.1 0 5.583-4.522 10.1-10.1 10.1z"/><path d="M648.876 703.962h16.225"/><path d="M665.1 714.063h-16.224c-5.578 0-10.1-4.518-10.1-10.101 0-5.573 4.522-10.1 10.1-10.1h16.225c5.578 0 10.1 4.527 10.1 10.1 0 5.583-4.522 10.1-10.1 10.1z"/><g><path d="M636.28 677.006V693.2"/><path d="M636.28 703.3c-5.577 0-10.1-4.527-10.1-10.099v-16.195c0-5.573 4.523-10.1 10.1-10.1 5.578 0 10.1 4.527 10.1 10.1V693.2c0 5.572-4.522 10.1-10.1 10.1z"/></g><g><path d="M636.28 718.382v16.206"/><path d="M636.28 744.688c-5.577 0-10.1-4.528-10.1-10.1v-16.206c0-5.582 4.523-10.1 10.1-10.1 5.578 0 10.1 4.518 10.1 10.1v16.206c0 5.572-4.522 10.1-10.1 10.1z"/></g></g><g><path d="M344.9 703.962h16.175"/><path d="M361.075 714.063H344.9c-5.578 0-10.1-4.518-10.1-10.101 0-5.573 4.522-10.1 10.1-10.1h16.176c5.578 0 10.1 4.527 10.1 10.1 0 5.583-4.522 10.1-10.1 10.1z"/><path d="M386.276 703.962H402.5"/><path d="M402.501 714.063h-16.225c-5.578 0-10.1-4.518-10.1-10.101 0-5.573 4.522-10.1 10.1-10.1H402.5c5.578 0 10.1 4.527 10.1 10.1 0 5.583-4.522 10.1-10.1 10.1z"/><g><path d="M373.68 677.006V693.2"/><path d="M373.68 703.3c-5.578 0-10.1-4.527-10.1-10.099v-16.195c0-5.573 4.523-10.1 10.1-10.1 5.578 0 10.1 4.527 10.1 10.1V693.2c0 5.572-4.522 10.1-10.1 10.1z"/></g><g><path d="M373.68 718.382v16.206"/><path d="M373.68 744.688c-5.578 0-10.1-4.528-10.1-10.1v-16.206c0-5.582 4.523-10.1 10.1-10.1 5.578 0 10.1 4.518 10.1 10.1v16.206c0 5.572-4.522 10.1-10.1 10.1z"/></g></g><g><path d="M536.227 602.074h16.186"/><path d="M552.413 612.174h-16.186c-5.578 0-10.1-4.517-10.1-10.1 0-5.572 4.522-10.1 10.1-10.1h16.186c5.577 0 10.1 4.528 10.1 10.1 0 5.583-4.523 10.1-10.1 10.1z"/><path d="M577.564 602.074h16.206"/><path d="M593.77 612.174h-16.205c-5.579 0-10.1-4.517-10.1-10.1 0-5.572 4.521-10.1 10.1-10.1h16.204c5.579 0 10.1 4.528 10.1 10.1 0 5.583-4.521 10.1-10.1 10.1z"/><g><path d="M565.008 575.088v16.185"/><path d="M565.008 601.374c-5.577 0-10.1-4.527-10.1-10.1v-16.186c0-5.582 4.523-10.1 10.1-10.1 5.578 0 10.1 4.518 10.1 10.1v16.185c0 5.574-4.522 10.101-10.1 10.101z"/></g><g><path d="M565.008 616.455v16.215"/><path d="M565.008 642.77c-5.577 0-10.1-4.527-10.1-10.1v-16.215c0-5.572 4.523-10.1 10.1-10.1 5.578 0 10.1 4.528 10.1 10.1v16.215c0 5.573-4.522 10.1-10.1 10.1z"/></g></g></g></g></g><metadata><rdf:RDF xmlns:rdf="http://www.w3.org/1999/02/22-rdf-syntax-ns#" xmlns:rdfs="http://www.w3.org/2000/01/rdf-schema#" xmlns:dc="http://purl.org/dc/elements/1.1/"><rdf:Description about="https://iconscout.com/legal#licenses" dc:title="dress" dc:description="dress" dc:publisher="Iconscout" dc:date="2017-09-22" dc:format="image/svg+xml" dc:language="en"><dc:creator><rdf:Bag><rdf:li>EcommDesign</rdf:li></rdf:Bag></dc:creator></rdf:Description></rdf:RDF></metadata></svg>