<?xml version="1.0" encoding="UTF-8"?><!DOCTYPE svg PUBLIC "-//W3C//DTD SVG 1.1//EN" "http://www.w3.org/Graphics/SVG/1.1/DTD/svg11.dtd"><svg xmlns="http://www.w3.org/2000/svg" xmlns:xlink="http://www.w3.org/1999/xlink" version="1.1" id="euro-bill" x="0px" y="0px" viewBox="0 0 1010 1010" xml:space="preserve"><g id="euro-bill-euro-bill"><path id="euro-bill-label" fill="#ACAF48" d="M1010 505c0 278.904-226.106 505-505 505C226.086 1010 0 783.904 0 505S226.086 0 505 0c278.894 0 505 226.096 505 505z"/><g id="euro-bill-euro-bill_1_"><path fill="#3BAFDA" d="M767.028 699.455c10.06 0 18.238-9.677 18.238-21.621V332.166c0-11.935-8.177-21.62-18.238-21.62H237.922c-10.08 0-18.247 9.685-18.247 21.62v345.668c0 11.944 8.167 21.621 18.247 21.621h529.106z"/><path fill="#454545" d="M767.028 709.555H237.922c-15.633 0-28.347-14.233-28.347-31.721V332.166c0-17.488 12.714-31.72 28.347-31.72h529.106c15.623 0 28.337 14.232 28.337 31.72v345.668c0 17.488-12.714 31.72-28.337 31.72zm-529.106-388.91c-4.419 0-8.147 5.277-8.147 11.52v345.669c0 6.244 3.728 11.52 8.147 11.52h529.106c4.41 0 8.137-5.276 8.137-11.52V332.166c0-6.135-3.808-11.52-8.137-11.52H237.922z"/><path fill="#FFF" d="M640.63 366.815H364.28c0 44.424-34.55 78.966-78.965 78.966l1.963 113.506c44.424 0 77.003 39.473 77.003 83.898H640.63c0-44.425 34.552-78.956 78.985-78.956V445.78c-44.433 0-78.985-34.542-78.985-78.966z"/><path fill="#454545" d="M640.63 653.284H364.28c-5.582 0-10.1-4.516-10.1-10.1 0-40.696-30.013-73.796-66.902-73.796-5.513 0-10.002-4.42-10.1-9.923l-1.963-113.507a10.08 10.08 0 0 1 2.9-7.259 10.069 10.069 0 0 1 7.2-3.018c38.615 0 68.866-30.25 68.866-68.866 0-5.583 4.517-10.1 10.1-10.1H640.63c5.583 0 10.1 4.517 10.1 10.1 0 38.615 30.26 68.866 68.885 68.866 5.582 0 10.1 4.517 10.1 10.1V564.23c0 5.583-4.518 10.1-10.1 10.1-38.625 0-68.885 30.241-68.885 68.856 0 5.583-4.517 10.1-10.1 10.1zm-266.752-20.2h257.194c4.508-41.701 36.721-73.905 78.444-78.412v-99.334c-41.723-4.507-73.936-36.711-78.444-78.423H373.838c-4.507 41.653-36.632 73.827-78.255 78.403l1.637 94.48c40.292 4.962 72.328 39.71 76.658 83.286z"/><g><path fill="#FFB933" d="M603.465 505c0 55.787-45.223 101-101 101s-101-45.213-101-101c0-55.777 45.223-101 101-101s101 45.223 101 101z"/><path fill="#454545" d="M514.36 528.229h-78.196v-20.202h78.196v20.202z"/><path fill="#454545" d="M514.36 501.981h-78.156v-20.2h78.156v20.2z"/><path fill="#454545" d="M506.638 580.76c-33.555 0-60.847-33.979-60.847-75.75 0-41.772 27.291-75.76 60.847-75.76 15.298 0 29.895 7.032 41.1 19.785l-15.17 13.336c-7.318-8.335-16.521-12.92-25.93-12.92-22.41 0-40.647 24.924-40.647 55.559 0 30.625 18.237 55.55 40.647 55.55 9.685 0 19.094-4.824 26.472-13.572l15.447 13.02c-11.294 13.384-26.178 20.752-41.92 20.752z"/></g><g><path fill="#454545" d="M376.215 510.553h-20.2v-20.2h20.2v20.2z"/><path fill="#454545" d="M648.915 510.553h-20.2v-20.2h20.2v20.2z"/></g></g></g><metadata><rdf:RDF xmlns:rdf="http://www.w3.org/1999/02/22-rdf-syntax-ns#" xmlns:rdfs="http://www.w3.org/2000/01/rdf-schema#" xmlns:dc="http://purl.org/dc/elements/1.1/"><rdf:Description about="https://iconscout.com/legal#licenses" dc:title="euro,bill" dc:description="euro,bill" dc:publisher="Iconscout" dc:date="2017-09-22" dc:format="image/svg+xml" dc:language="en"><dc:creator><rdf:Bag><rdf:li>EcommDesign</rdf:li></rdf:Bag></dc:creator></rdf:Description></rdf:RDF></metadata></svg>