<?xml version="1.0" encoding="UTF-8"?><!DOCTYPE svg PUBLIC "-//W3C//DTD SVG 1.1//EN" "http://www.w3.org/Graphics/SVG/1.1/DTD/svg11.dtd"><svg xmlns="http://www.w3.org/2000/svg" xmlns:xlink="http://www.w3.org/1999/xlink" version="1.1" id="graph" x="0px" y="0px" viewBox="0 0 1010 1010" xml:space="preserve"><g id="graph-graph"><path id="graph-label" fill="#FFB933" d="M505 1010c278.875 0 505-226.086 505-505.02C1010 226.125 783.875 0 505 0 226.106 0 0 226.125 0 504.98 0 783.915 226.106 1010 505 1010z"/><g id="graph-graph_1_"><path fill="#454545" d="M249.897 773.854c-5.579 0-10.101-4.518-10.101-10.101V246.227c0-5.583 4.522-10.1 10.1-10.1 5.578 0 10.1 4.517 10.1 10.1v517.526c0 5.583-4.522 10.1-10.1 10.1z"/><path fill="#454545" d="M787.8 756.001H232.044c-5.578 0-10.1-4.518-10.1-10.1 0-5.583 4.522-10.1 10.1-10.1H787.8c5.578 0 10.1 4.517 10.1 10.1 0 5.582-4.522 10.1-10.1 10.1z"/><path fill="#454545" d="M274.633 702.03H222.2c-5.578 0-10.1-4.518-10.1-10.101s4.522-10.1 10.1-10.1h52.433c5.578 0 10.1 4.517 10.1 10.1s-4.522 10.1-10.1 10.1z"/><path fill="#454545" d="M274.633 650.878H222.2c-5.578 0-10.1-4.518-10.1-10.1 0-5.583 4.522-10.1 10.1-10.1h52.433c5.578 0 10.1 4.517 10.1 10.1 0 5.582-4.522 10.1-10.1 10.1z"/><path fill="#454545" d="M274.633 599.727H222.2c-5.578 0-10.1-4.518-10.1-10.1 0-5.583 4.522-10.1 10.1-10.1h52.433c5.578 0 10.1 4.517 10.1 10.1 0 5.582-4.522 10.1-10.1 10.1z"/><path fill="#454545" d="M274.633 548.596H222.2c-5.578 0-10.1-4.518-10.1-10.1 0-5.583 4.522-10.1 10.1-10.1h52.433c5.578 0 10.1 4.517 10.1 10.1 0 5.582-4.522 10.1-10.1 10.1z"/><path fill="#454545" d="M274.633 497.444H222.2c-5.578 0-10.1-4.516-10.1-10.1 0-5.582 4.522-10.1 10.1-10.1h52.433c5.578 0 10.1 4.518 10.1 10.1 0 5.584-4.522 10.1-10.1 10.1z"/><path fill="#454545" d="M274.633 446.294H222.2c-5.578 0-10.1-4.518-10.1-10.1 0-5.583 4.522-10.1 10.1-10.1h52.433c5.578 0 10.1 4.517 10.1 10.1 0 5.582-4.522 10.1-10.1 10.1z"/><path fill="#454545" d="M274.633 395.143H222.2c-5.578 0-10.1-4.518-10.1-10.1 0-5.583 4.522-10.1 10.1-10.1h52.433c5.578 0 10.1 4.517 10.1 10.1 0 5.582-4.522 10.1-10.1 10.1z"/><path fill="#454545" d="M274.633 343.992H222.2c-5.578 0-10.1-4.517-10.1-10.1 0-5.583 4.522-10.1 10.1-10.1h52.433c5.578 0 10.1 4.517 10.1 10.1 0 5.583-4.522 10.1-10.1 10.1z"/><path fill="#454545" d="M274.633 292.84H222.2c-5.578 0-10.1-4.517-10.1-10.1 0-5.582 4.522-10.1 10.1-10.1h52.433c5.578 0 10.1 4.518 10.1 10.1 0 5.583-4.522 10.1-10.1 10.1z"/><path fill="#3BAFDA" d="M404.227 598.879c0 24.658-19.983 44.621-44.612 44.621-24.638 0-44.62-19.963-44.62-44.621 0-24.62 19.982-44.602 44.62-44.602 24.63 0 44.612 19.983 44.612 44.602z"/><path fill="#454545" d="M359.615 653.6c-30.172 0-54.721-24.54-54.721-54.721 0-30.162 24.55-54.702 54.721-54.702 30.167 0 54.712 24.54 54.712 54.702 0 30.182-24.545 54.72-54.712 54.72zm0-89.223c-19.036 0-34.521 15.485-34.521 34.502 0 19.036 15.485 34.521 34.521 34.521 19.031 0 34.512-15.485 34.512-34.521 0-19.017-15.48-34.502-34.512-34.502z"/><path fill="#FC6E51" d="M511.185 491.92c0 24.64-19.984 44.623-44.622 44.623-24.628 0-44.602-19.983-44.602-44.622 0-24.638 19.974-44.621 44.602-44.621 24.638 0 44.622 19.983 44.622 44.62z"/><path fill="#454545" d="M466.563 546.643c-30.162 0-54.702-24.54-54.702-54.722 0-30.161 24.54-54.722 54.702-54.722 30.171 0 54.721 24.56 54.721 54.722 0 30.181-24.55 54.722-54.721 54.722zm0-89.244c-19.026 0-34.502 15.486-34.502 34.522s15.476 34.521 34.502 34.521c19.036 0 34.522-15.485 34.522-34.521s-15.486-34.522-34.522-34.522z"/><path fill="#ACAF48" d="M787.8 465.152c0 24.659-19.973 44.621-44.631 44.621-24.62 0-44.603-19.962-44.603-44.62 0-24.64 19.984-44.602 44.603-44.602 24.658 0 44.63 19.963 44.63 44.601z"/><path fill="#454545" d="M743.169 519.874c-30.162 0-54.702-24.54-54.702-54.722 0-30.162 24.54-54.702 54.702-54.702 30.177 0 54.731 24.54 54.731 54.702 0 30.182-24.554 54.722-54.731 54.722zm0-89.224c-19.026 0-34.502 15.486-34.502 34.502 0 19.036 15.476 34.522 34.502 34.522 19.041 0 34.531-15.486 34.531-34.522 0-19.016-15.49-34.502-34.531-34.502z"/><path fill="#FFF" d="M627.206 607.934c0 24.637-20.003 44.62-44.632 44.62-24.638 0-44.621-19.983-44.621-44.62 0-24.64 19.983-44.623 44.621-44.623 24.63 0 44.632 19.984 44.632 44.623z"/><path fill="#454545" d="M582.574 662.654c-30.17 0-54.72-24.56-54.72-54.72 0-30.182 24.55-54.722 54.72-54.722 30.178 0 54.733 24.54 54.733 54.722 0 30.16-24.555 54.72-54.733 54.72zm0-89.242c-19.035 0-34.52 15.484-34.52 34.522 0 19.035 15.485 34.521 34.52 34.521 19.042 0 34.532-15.486 34.532-34.521 0-19.038-15.49-34.522-34.532-34.522z"/><g><path fill="#454545" d="M386.266 573.412c-2.584 0-5.168-.986-7.141-2.959a10.097 10.097 0 0 1 0-14.282l44.72-44.72a10.097 10.097 0 0 1 14.282 0 10.097 10.097 0 0 1 0 14.281l-44.72 44.721a10.068 10.068 0 0 1-7.141 2.96z"/></g><g><path fill="#454545" d="M555.934 582.446c-2.584 0-5.168-.986-7.141-2.959l-53.794-53.755c-3.945-3.945-3.945-10.336-.005-14.282 3.945-3.945 10.341-3.945 14.287 0l53.794 53.755c3.945 3.945 3.945 10.337.005 14.282a10.078 10.078 0 0 1-7.146 2.96z"/></g><g><path fill="#454545" d="M618.28 591.264c-2.585 0-5.169-.987-7.141-2.96a10.095 10.095 0 0 1 0-14.28l89.203-89.244c3.935-3.945 10.338-3.945 14.283 0s3.945 10.337 0 14.283l-89.204 89.242a10.06 10.06 0 0 1-7.142 2.959z"/></g></g></g><metadata><rdf:RDF xmlns:rdf="http://www.w3.org/1999/02/22-rdf-syntax-ns#" xmlns:rdfs="http://www.w3.org/2000/01/rdf-schema#" xmlns:dc="http://purl.org/dc/elements/1.1/"><rdf:Description about="https://iconscout.com/legal#licenses" dc:title="graph" dc:description="graph" dc:publisher="Iconscout" dc:date="2017-09-22" dc:format="image/svg+xml" dc:language="en"><dc:creator><rdf:Bag><rdf:li>EcommDesign</rdf:li></rdf:Bag></dc:creator></rdf:Description></rdf:RDF></metadata></svg>