<?xml version="1.0" encoding="UTF-8"?><!DOCTYPE svg PUBLIC "-//W3C//DTD SVG 1.1//EN" "http://www.w3.org/Graphics/SVG/1.1/DTD/svg11.dtd"><svg xmlns="http://www.w3.org/2000/svg" xmlns:xlink="http://www.w3.org/1999/xlink" version="1.1" id="hand-package" x="0px" y="0px" viewBox="0 0 1010 1010" xml:space="preserve"><g id="hand-package-hand-package"><circle id="hand-package-label" fill="#FC6E51" cx="505" cy="505" r="505"/><g id="hand-package-hand-package_1_"><g id="hand-package-package"><path fill="#FFB933" d="M362.397 280.255h386.206v287.89H362.397z"/><path fill="#454545" d="M748.604 578.244H362.397c-5.582 0-10.1-4.517-10.1-10.1v-287.89c0-5.581 4.518-10.099 10.1-10.099h386.207c5.582 0 10.099 4.518 10.099 10.1v287.89c0 5.582-4.517 10.1-10.1 10.1zm-376.107-20.2h366.007V290.357H372.497v267.689z"/><path fill="#454545" d="M368.364 574.596a10.05 10.05 0 0 1-4.576-1.106 10.092 10.092 0 0 1-4.41-13.582l71.065-139.377a10.098 10.098 0 0 1 8.996-5.514h243.218c4.005 0 7.635 2.367 9.242 6.037l60.126 136.655c2.25 5.1-.068 11.066-5.177 13.306-5.12 2.249-11.067-.07-13.306-5.178l-57.474-130.62H445.623l-68.254 133.865a10.093 10.093 0 0 1-9.005 5.514z"/><path fill="#454545" d="M682.648 435.217a9.94 9.94 0 0 1-4.172-.907c-5.08-2.308-7.319-8.305-5.011-13.375l65.946-144.862c2.317-5.08 8.315-7.328 13.374-5.01 5.08 2.308 7.318 8.304 5.01 13.375L691.85 429.298a10.112 10.112 0 0 1-9.202 5.918z"/><g><path fill="#454545" d="M439.449 435.217a10.09 10.09 0 0 1-8.927-5.356L353.48 285c-2.624-4.921-.75-11.046 4.172-13.66 4.922-2.644 11.047-.75 13.662 4.172l77.042 144.862c2.623 4.922.749 11.047-4.173 13.66a9.997 9.997 0 0 1-4.734 1.184z"/></g></g><g id="hand-package-hand"><path fill="#FFF" d="M362.614 525.121c108.397 1.5 134.17 53.045 162.211 53.045 28.031 0 104.976-.888 95.112 53.656 38.9 11.165 101.167-71.845 126.94-71.845 25.773 0 40.923 13.671 40.923 42.453 0 38.664-165.96 127.314-234.944 127.314-65.925 0-162.941-67.465-194.76-67.465"/><path fill="#454545" d="M552.856 739.845c-41.168 0-92.477-24.244-133.706-43.714-25.852-12.211-50.273-23.751-61.053-23.751-5.583 0-10.1-4.518-10.1-10.1 0-5.583 4.517-10.1 10.1-10.1 15.307 0 39.304 11.333 69.683 25.683 39.405 18.613 88.445 41.781 125.076 41.781 68.403 0 224.844-87.27 224.844-117.214 0-22.074-9.794-32.352-30.823-32.352-6.963 0-25.97 15.95-39.848 27.598-29.008 24.322-61.812 51.9-89.884 43.851a10.103 10.103 0 0 1-7.15-11.5c1.765-9.765.227-17.38-4.695-23.277-15.476-18.523-60.245-18.71-79.143-18.484h-1.332c-12.487 0-23.11-6.816-36.563-15.455-24.086-15.467-57.089-36.643-125.786-37.59-5.583-.078-10.041-4.665-9.962-10.239.079-5.582 5.01-10.158 10.238-9.96 74.477 1.035 111.75 24.953 136.419 40.793 10.672 6.845 19.095 12.25 25.654 12.25h1.322c23.662.287 73.117-.029 94.648 25.724 6.727 8.059 10.12 17.695 10.12 28.772 17.803-2.338 42.62-23.16 63.125-40.362 21.522-18.058 38.525-32.321 52.837-32.321 32.43 0 51.023 19.154 51.023 52.552 0 47.245-173.83 137.415-245.044 137.415z"/><path fill="#3BAFDA" d="M222.2 476.613h135.808v213.403H222.2z"/><path fill="#454545" d="M358.008 700.115H222.2c-5.583 0-10.1-4.517-10.1-10.1V476.614c0-5.582 4.517-10.1 10.1-10.1h135.808c5.582 0 10.1 4.518 10.1 10.1v213.403c0 5.582-4.518 10.1-10.1 10.1zm-125.708-20.2h115.608V486.713H232.3v193.202z"/><g><path fill="#454545" d="M619.938 641.922h-155.22c-5.582 0-10.1-4.518-10.1-10.1 0-5.583 4.518-10.1 10.1-10.1h155.22c5.582 0 10.1 4.517 10.1 10.1 0 5.582-4.519 10.1-10.1 10.1z"/></g><g><path fill="#454545" d="M356.735 525.771H233.967c-5.583 0-10.1-4.516-10.1-10.099 0-5.582 4.517-10.1 10.1-10.1h122.768c5.583 0 10.1 4.518 10.1 10.1 0 5.583-4.517 10.1-10.1 10.1z"/><path fill="#454545" d="M356.735 568.993H233.967c-5.583 0-10.1-4.517-10.1-10.1 0-5.583 4.517-10.1 10.1-10.1h122.768c5.583 0 10.1 4.518 10.1 10.1 0 5.583-4.517 10.1-10.1 10.1z"/><path fill="#454545" d="M356.735 612.174H233.967c-5.583 0-10.1-4.517-10.1-10.1 0-5.582 4.517-10.1 10.1-10.1h122.768c5.583 0 10.1 4.518 10.1 10.1 0 5.583-4.517 10.1-10.1 10.1z"/><path fill="#454545" d="M356.735 655.395H233.967c-5.583 0-10.1-4.517-10.1-10.1 0-5.582 4.517-10.1 10.1-10.1h122.768c5.583 0 10.1 4.518 10.1 10.1 0 5.583-4.517 10.1-10.1 10.1z"/></g></g></g></g><metadata><rdf:RDF xmlns:rdf="http://www.w3.org/1999/02/22-rdf-syntax-ns#" xmlns:rdfs="http://www.w3.org/2000/01/rdf-schema#" xmlns:dc="http://purl.org/dc/elements/1.1/"><rdf:Description about="https://iconscout.com/legal#licenses" dc:title="hand,package" dc:description="hand,package" dc:publisher="Iconscout" dc:date="2017-09-22" dc:format="image/svg+xml" dc:language="en"><dc:creator><rdf:Bag><rdf:li>EcommDesign</rdf:li></rdf:Bag></dc:creator></rdf:Description></rdf:RDF></metadata></svg>