<?xml version="1.0" encoding="UTF-8"?><!DOCTYPE svg PUBLIC "-//W3C//DTD SVG 1.1//EN" "http://www.w3.org/Graphics/SVG/1.1/DTD/svg11.dtd"><svg xmlns="http://www.w3.org/2000/svg" xmlns:xlink="http://www.w3.org/1999/xlink" version="1.1" id="heart-label-tag" x="0px" y="0px" viewBox="0 0 1010 1010" xml:space="preserve"><g id="heart-label-tag-heart-label-tag"><path id="heart-label-tag-label" fill="#3BAFDA" d="M1010 505c0 278.894-226.086 505-505 505C226.106 1010 0 783.894 0 505 0 226.086 226.106 0 505 0c278.914 0 505 226.086 505 505z"/><g id="heart-label-tag-heart-label-tag_1_"><path fill="#FFF" d="M706.438 293.413h-185.37a15.55 15.55 0 0 0-10.949 4.537L232.044 576.016c-6.037 6.055-6.027 15.82 0 21.857l185.42 185.39c3.008 2.999 6.933 4.537 10.908 4.537 3.936 0 7.88-1.538 10.938-4.537l278.046-278.085a15.415 15.415 0 0 0 4.528-10.929v-185.39c.01-8.503-6.914-15.446-15.447-15.446z"/><path fill="#454545" d="M428.372 797.9c-6.79 0-13.197-2.643-18.04-7.476l-185.43-185.41c-9.942-9.962-9.942-26.158-.014-36.12l278.09-278.085c4.873-4.853 11.289-7.497 18.09-7.497h185.37c6.826 0 13.242 2.664 18.075 7.497 4.827 4.833 7.481 11.244 7.471 18.05v185.39c0 6.767-2.737 13.354-7.511 18.089L446.452 790.404c-4.952 4.872-11.348 7.496-18.08 7.496zm92.695-494.387c-1.41 0-2.806.572-3.832 1.597l-278.05 278.046a5.38 5.38 0 0 0 .004 7.575l185.415 185.391c2.032 2.031 5.465 2.072 7.635-.06l277.977-278.026a5.352 5.352 0 0 0 1.567-3.787v-185.39c0-1.933-.98-3.196-1.562-3.768a5.313 5.313 0 0 0-3.784-1.578h-185.37z"/><path fill="#3BAFDA" d="M633.223 346.379c19.49 0 35.31 15.8 35.31 35.31s-15.82 35.33-35.31 35.33c-19.49 0-35.31-15.82-35.31-35.33-.01-19.51 15.82-35.31 35.31-35.31z"/><path fill="#454545" d="M633.223 427.12c-25.038 0-45.41-20.378-45.41-45.43-.005-12.132 4.718-23.535 13.3-32.116 8.58-8.58 19.983-13.296 32.11-13.296 25.038 0 45.41 20.378 45.41 45.411 0 25.053-20.372 45.43-45.41 45.43zm0-70.642c-6.732 0-13.064 2.624-17.828 7.378-4.764 4.774-7.387 11.106-7.383 17.834 0 13.907 11.308 25.23 25.21 25.23 13.903 0 25.212-11.323 25.212-25.23 0-13.908-11.309-25.212-25.211-25.212z"/><g><path fill="#FC6E51" d="M505.572 510.642c7.388-18.998 3.482-41.347-11.845-56.675-20.595-20.594-52.523-18.405-74.715.02 0 0-6.027 4.044-12.901 15.327-9.34 15.387-13.158 33.477-12.043 51.408l7.072 94.391 93.445 6.116c17.98 1.164 36.03-2.683 51.437-11.994 11.283-6.924 15.307-12.94 15.307-12.94 18.454-22.153 20.644-54.071.03-74.705-15.338-15.327-36.859-18.385-55.787-10.948z"/><path fill="#454545" d="M500.818 631.526h-.004a100 100 0 0 1-6.88-.217l-93.455-6.116a10.116 10.116 0 0 1-9.41-9.33l-7.072-94.391c-1.302-20.93 3.364-40.736 13.483-57.405 6.93-11.362 13.276-16.57 15.387-18.109 13.138-10.79 29.186-16.728 45.233-16.728 16.24 0 31.43 6.253 42.767 17.596 13.395 13.395 19.816 31.859 18.174 50.185 18.252-1.855 36.4 4.4 49.459 17.438 23.346 23.376 23.677 60.324.853 88-1.543 2.131-6.732 8.463-18.055 15.387-14.824 8.976-32.262 13.69-50.48 13.69zm-90.264-25.92l84.691 5.542c16.378 1.066 32.445-2.623 45.549-10.553 8.833-5.425 12.206-10.02 12.24-10.06 14.475-17.44 19.17-43.794 1.179-61.804-11.703-11.698-29.023-14.953-44.947-8.68-3.718 1.48-7.974.592-10.825-2.248a10.101 10.101 0 0 1-2.283-10.81c6.179-15.88 2.421-33.891-9.573-45.884-7.639-7.634-17.487-11.68-28.485-11.68-11.471 0-23.06 4.38-32.637 12.331a7.649 7.649 0 0 1-.824.611c.01 0-4.547 3.412-9.903 12.211-7.96 13.098-11.624 28.84-10.588 45.509l6.406 85.514z"/></g><g><path fill="#454545" d="M637.444 378.632c-5.578 0-10.1-4.518-10.1-10.1 0-5.662-4.418-12.053-9.537-19.45-7.21-10.456-16.186-23.436-17.74-41.624-1.42-16.51 7.699-33.24 15.748-47.995 6.642-12.19 14.167-26 10.563-32.194-2.807-4.813-1.174-10.987 3.645-13.808 4.823-2.8 11.002-1.184 13.813 3.65 9.335 16.037-.642 34.324-10.287 52.018-7.009 12.862-14.253 26.138-13.355 36.613 1.094 12.842 7.772 22.508 14.232 31.839 6.451 9.35 13.118 18.996 13.118 30.95 0 5.583-4.523 10.1-10.1 10.1z"/></g></g></g><metadata><rdf:RDF xmlns:rdf="http://www.w3.org/1999/02/22-rdf-syntax-ns#" xmlns:rdfs="http://www.w3.org/2000/01/rdf-schema#" xmlns:dc="http://purl.org/dc/elements/1.1/"><rdf:Description about="https://iconscout.com/legal#licenses" dc:title="heart,label,tag" dc:description="heart,label,tag" dc:publisher="Iconscout" dc:date="2017-09-22" dc:format="image/svg+xml" dc:language="en"><dc:creator><rdf:Bag><rdf:li>EcommDesign</rdf:li></rdf:Bag></dc:creator></rdf:Description></rdf:RDF></metadata></svg>