<?xml version="1.0" encoding="UTF-8"?><!DOCTYPE svg PUBLIC "-//W3C//DTD SVG 1.1//EN" "http://www.w3.org/Graphics/SVG/1.1/DTD/svg11.dtd"><svg xmlns="http://www.w3.org/2000/svg" xmlns:xlink="http://www.w3.org/1999/xlink" version="1.1" id="heart-shirt" x="0px" y="0px" viewBox="0 0 1010 1010" xml:space="preserve"><g id="heart-shirt-heart-shirt"><path id="heart-shirt-label" fill="#3BAFDA" d="M1010 505c0 278.904-226.086 505-505 505C226.106 1010 0 783.904 0 505S226.106 0 505 0c278.914 0 505 226.096 505 505z"/><g id="heart-shirt-heart-shirt_1_"><path fill="#FFB933" d="M505 365.71c-59.397 0-110.488-36.02-126.467-71.35l-.138-.168-4.024-10.021 30.339-17.172 4.991 9.183c15.9 29.155 54.189 48.744 95.299 48.744s79.4-19.589 95.299-48.744l4.991-9.183 30.655 17.35-4.438 9.952c-15.86 35.27-67.05 71.41-126.507 71.41z"/><path fill="#FFF" d="M347.365 743.395V462.617l-59.357 15.328L222.2 370.297l151.855-85.948 4.656 10.208C394.433 329.049 444.045 365.71 505 365.71c60.916 0 110.548-36.662 126.31-71.154l4.655-10.199L787.8 370.297l-65.808 107.648-59.357-15.328v280.779h-315.27z"/><path fill="#FC6E51" d="M445.347 539.67c-11.915-10.574-20.023-23.604-23.475-37.797-1.065-4.458-1.499-8.127-1.637-10.85l-.789-.867.987-5.06c2.05-22.084 17.95-44.424 44.384-44.424 17.616 0 33.594 10.465 40.736 26.67 7.239-16.698 22.053-26.67 39.61-26.67 26.395 0 42.354 22.645 44.503 45.064.355 2.852.316 8.493-1.538 16.098-3.472 14.292-11.58 27.321-23.396 37.726l-59.18 51.881-60.205-51.771z"/><g><path fill="#454545" d="M662.635 753.495h-315.27c-5.578 0-10.1-4.517-10.1-10.1V475.656l-46.732 12.064a10.098 10.098 0 0 1-11.14-4.508l-65.808-107.648a10.097 10.097 0 0 1-1.164-7.802 10.109 10.109 0 0 1 4.803-6.253l183.2-103.693c2.595-1.46 5.712-1.726 8.508-.67a10.08 10.08 0 0 1 5.987 6.075c10.805 30.38 47.847 51.605 90.081 51.605 42.225 0 79.257-21.226 90.061-51.605a10.079 10.079 0 0 1 5.988-6.076 10.057 10.057 0 0 1 8.507.671l183.22 103.693a10.115 10.115 0 0 1 4.804 6.253 10.1 10.1 0 0 1-1.164 7.802l-65.809 107.648a10.092 10.092 0 0 1-11.14 4.508l-46.732-12.064v267.74c0 5.583-4.522 10.1-10.1 10.1zm-305.17-20.2h295.07V462.617c0-3.127 1.446-6.076 3.916-7.99a10.107 10.107 0 0 1 8.71-1.784l52.116 13.454 56.458-92.35-164.49-93.1c-17.571 32.401-58.563 54.179-104.245 54.179-45.691 0-86.689-21.778-104.265-54.18l-164.47 93.09 56.458 92.36 52.117-13.453a10.042 10.042 0 0 1 8.71 1.785 10.1 10.1 0 0 1 3.915 7.99v270.677z"/><path fill="#454545" d="M505 375.81c-66.824 0-120.169-40.715-136.434-79.024-2.18-5.129.212-11.066 5.351-13.246 5.139-2.16 11.066.227 13.241 5.355C401.085 321.691 448.967 355.61 505 355.61s103.915-33.92 117.842-66.715c2.18-5.128 8.122-7.515 13.241-5.355 5.139 2.18 7.53 8.117 5.35 13.246C625.17 335.095 571.824 375.81 505 375.81z"/><path fill="#454545" d="M505.553 601.542c-2.348 0-4.696-.81-6.59-2.446l-60.303-51.881c-13.498-11.925-22.661-26.76-26.601-42.965-2.974-12.309-1.806-19.727-1.54-21.088 2.753-30.062 25.645-52.59 54.298-52.59 15.732 0 30.409 6.795 40.602 18.159 9.937-11.472 24.136-18.16 39.744-18.16 28.702 0 51.614 22.538 54.48 53.587.124.365 1.292 7.793-1.702 20.092-3.98 16.285-13.162 31.12-26.561 42.896l-59.17 51.89a10.088 10.088 0 0 1-6.657 2.506zm-40.736-150.77c-20.377 0-32.697 17.734-34.329 35.251-.109.829-.755 5.366 1.203 13.473 2.955 12.162 9.957 23.406 20.245 32.5l53.552 46.071 52.567-46.101c10.258-9.025 17.27-20.269 20.264-32.5 1.968-8.087 1.322-12.614 1.317-12.663-1.722-18.297-14.046-36.032-34.473-36.032-13.404 0-24.752 7.694-30.344 20.595a10.105 10.105 0 0 1-9.242 6.075h-.024c-4.005 0-7.63-2.367-9.243-6.025-5.523-12.547-17.881-20.644-31.493-20.644z"/></g></g></g><metadata><rdf:RDF xmlns:rdf="http://www.w3.org/1999/02/22-rdf-syntax-ns#" xmlns:rdfs="http://www.w3.org/2000/01/rdf-schema#" xmlns:dc="http://purl.org/dc/elements/1.1/"><rdf:Description about="https://iconscout.com/legal#licenses" dc:title="heart,shirt" dc:description="heart,shirt" dc:publisher="Iconscout" dc:date="2017-09-22" dc:format="image/svg+xml" dc:language="en"><dc:creator><rdf:Bag><rdf:li>EcommDesign</rdf:li></rdf:Bag></dc:creator></rdf:Description></rdf:RDF></metadata></svg>