<?xml version="1.0" encoding="UTF-8"?><!DOCTYPE svg PUBLIC "-//W3C//DTD SVG 1.1//EN" "http://www.w3.org/Graphics/SVG/1.1/DTD/svg11.dtd"><svg xmlns="http://www.w3.org/2000/svg" xmlns:xlink="http://www.w3.org/1999/xlink" version="1.1" id="heart-bag" x="0px" y="0px" viewBox="0 0 1010 1010" xml:space="preserve"><g id="heart-bag-heart-bag"><path id="heart-bag-label" fill="#FFB933" d="M504.98 1010C783.875 1010 1010 783.934 1010 505.02 1010 226.144 783.875 0 504.98 0 226.106 0 0 226.145 0 505.02 0 783.933 226.106 1010 504.98 1010z"/><g id="heart-bag-heart-bag_1_"><path fill="#FFF" d="M591.334 335.884h98.169c17.32 0 31.483 14.174 31.483 31.484v378.849c0 17.339-14.164 31.483-31.483 31.483H320.498c-17.33 0-31.484-14.144-31.484-31.483v-378.85c0-17.31 14.154-31.483 31.484-31.483h270.836z"/><path fill="#454545" d="M689.503 787.8H320.498c-22.933 0-41.584-18.652-41.584-41.583v-378.85c0-22.932 18.651-41.583 41.584-41.583h369.005c22.932 0 41.583 18.652 41.583 41.584v378.849c0 22.931-18.651 41.583-41.583 41.583zM320.498 345.984c-11.787 0-21.384 9.597-21.384 21.384v378.849c0 11.786 9.597 21.383 21.384 21.383h369.005c11.786 0 21.384-9.597 21.384-21.383v-378.85c0-11.786-9.598-21.383-21.384-21.383H320.498z"/><path fill="#454545" d="M603.18 394.019c-5.583 0-10.1-4.518-10.1-10.101v-97.113c0-35.627-39.513-64.605-88.09-64.605-48.556 0-88.07 28.978-88.07 64.605v97.113c0 5.583-4.517 10.1-10.099 10.1-5.583 0-10.1-4.517-10.1-10.1v-97.113c0-46.762 48.567-84.805 108.27-84.805 59.712 0 108.288 38.043 108.288 84.805v97.113c0 5.583-4.517 10.1-10.1 10.1z"/><path fill="#3BAFDA" d="M689.503 767.422H320.498c-11.698 0-21.207-9.518-21.207-21.205v-22.43H710.71v22.43c0 11.687-9.509 21.205-21.206 21.205z"/><path fill="#454545" d="M716.598 723.6H293.403c-5.583 0-10.1-4.518-10.1-10.1 0-5.583 4.517-10.1 10.1-10.1h423.195c5.582 0 10.1 4.517 10.1 10.1 0 5.582-4.518 10.1-10.1 10.1z"/><path fill="#454545" d="M428.451 394.019h-45.38c-5.584 0-10.1-4.518-10.1-10.101 0-5.582 4.516-10.1 10.1-10.1h45.38c5.583 0 10.1 4.518 10.1 10.1 0 5.583-4.517 10.1-10.1 10.1z"/><path fill="#454545" d="M626.91 394.019H581.55c-5.583 0-10.1-4.518-10.1-10.101 0-5.582 4.517-10.1 10.1-10.1h45.361c5.583 0 10.1 4.518 10.1 10.1 0 5.583-4.517 10.1-10.1 10.1z"/><g><path fill="#FC6E51" d="M505 513.049c0-31.563-25.575-57.149-57.167-57.149-31.543 0-57.139 25.586-57.139 57.149 0 16.53 7.141 31.306 18.346 41.77l-.128.03L505 650.928l96.128-96.08c-.04-.029-.06-.029-.099-.088 11.185-10.425 18.277-25.18 18.277-41.711 0-31.563-25.576-57.148-57.158-57.148-31.543 0-57.148 25.585-57.148 57.148z"/><path fill="#454545" d="M505 661.027c-2.584 0-5.168-.986-7.14-2.959L401.77 561.99a9.59 9.59 0 0 1-.838-.957c-13.128-12.842-20.338-29.826-20.338-47.984 0-37.076 30.161-67.248 67.238-67.248 24.106 0 45.282 12.743 57.167 31.838 11.876-19.095 33.052-31.838 57.148-31.838 37.086 0 67.258 30.172 67.258 67.248 0 18.158-7.16 35.093-20.22 47.886-.276.365-.582.72-.917 1.055l-96.128 96.078a10.068 10.068 0 0 1-7.141 2.96zm-87.832-112.215L505 636.644l87.822-87.772a10.44 10.44 0 0 1 1.323-1.499c9.714-9.055 15.06-21.246 15.06-34.324 0-25.942-21.107-47.049-47.057-47.049-25.94 0-47.048 21.107-47.048 47.049 0 5.582-4.517 10.1-10.1 10.1-5.582 0-10.1-4.518-10.1-10.1 0-25.942-21.117-47.049-47.067-47.049-25.94 0-47.039 21.107-47.039 47.049 0 13.058 5.376 25.27 15.14 34.392.455.424.869.888 1.233 1.371z"/></g></g></g><metadata><rdf:RDF xmlns:rdf="http://www.w3.org/1999/02/22-rdf-syntax-ns#" xmlns:rdfs="http://www.w3.org/2000/01/rdf-schema#" xmlns:dc="http://purl.org/dc/elements/1.1/"><rdf:Description about="https://iconscout.com/legal#licenses" dc:title="heart,bag" dc:description="heart,bag" dc:publisher="Iconscout" dc:date="2017-09-22" dc:format="image/svg+xml" dc:language="en"><dc:creator><rdf:Bag><rdf:li>EcommDesign</rdf:li></rdf:Bag></dc:creator></rdf:Description></rdf:RDF></metadata></svg>