<?xml version="1.0" encoding="UTF-8"?><!DOCTYPE svg PUBLIC "-//W3C//DTD SVG 1.1//EN" "http://www.w3.org/Graphics/SVG/1.1/DTD/svg11.dtd"><svg xmlns="http://www.w3.org/2000/svg" xmlns:xlink="http://www.w3.org/1999/xlink" version="1.1" id="megaphone" x="0px" y="0px" viewBox="0 0 1010 1010" xml:space="preserve"><g id="megaphone-megaphone"><circle id="megaphone-label" fill="#ACAF48" cx="505" cy="505" r="505"/><g id="megaphone-megaphone_1_"><path fill="#BDC3C7" d="M378.296 557.985V755.34l75.237-44.454v-152.9"/><path fill="#454545" d="M378.296 765.44c-1.726 0-3.452-.444-5.005-1.332a10.084 10.084 0 0 1-5.095-8.768V557.985c0-5.583 4.523-10.1 10.1-10.1 5.578 0 10.1 4.517 10.1 10.1v179.66l55.038-32.519v-147.14c0-5.584 4.522-10.1 10.1-10.1 5.577 0 10.1 4.516 10.1 10.1v152.9c0 3.571-1.89 6.875-4.962 8.7l-75.237 44.453a10.176 10.176 0 0 1-5.139 1.4z"/><path fill="#3BAFDA" d="M272.01 514.606H222.2V396.1h49.81"/><path fill="#454545" d="M272.01 524.707H212.1V386h59.91v20.2H232.3v98.307h39.71v20.2z"/><path fill="#FFF" d="M747.479 411.525h40.32v87.695h-40.32"/><path fill="#454545" d="M797.9 509.32H747.48v-20.2H777.7v-67.495H747.48v-20.2H797.9V509.32z"/><path fill="#FFF" d="M599.875 355.019H277.928v200.688h321.947"/><path fill="#FFB933" d="M599.875 555.707l129.584 100.33h16.748V254.66h-16.748L599.875 355.02"/><path fill="#FC6E51" d="M500.128 360.256h92.645v192.6h-92.645z"/><g><path fill="#454545" d="M746.207 666.137h-16.748c-2.24 0-4.414-.74-6.185-2.112l-126.851-98.218H277.928c-5.578 0-10.1-4.518-10.1-10.1V355.019c0-5.583 4.522-10.1 10.1-10.1h318.495l126.851-98.248a10.095 10.095 0 0 1 6.185-2.11h16.748c5.577 0 10.1 4.516 10.1 10.1v401.375c0 5.583-4.523 10.1-10.1 10.1zm-13.296-20.2h3.195V264.76h-3.195L606.06 363.008a10.096 10.096 0 0 1-6.185 2.111H288.027v180.488h311.848c2.24 0 4.414.74 6.185 2.11l126.851 98.22z"/></g><g><path fill="#454545" d="M593.76 565.807c-5.578 0-10.1-4.518-10.1-10.1V355.019c0-5.583 4.522-10.1 10.1-10.1 5.578 0 10.1 4.518 10.1 10.1v200.688c0 5.582-4.522 10.1-10.1 10.1z"/></g><g><path fill="#454545" d="M511.401 555.707h-20.2V355.019h20.2v200.688z"/></g></g></g><metadata><rdf:RDF xmlns:rdf="http://www.w3.org/1999/02/22-rdf-syntax-ns#" xmlns:rdfs="http://www.w3.org/2000/01/rdf-schema#" xmlns:dc="http://purl.org/dc/elements/1.1/"><rdf:Description about="https://iconscout.com/legal#licenses" dc:title="megaphone" dc:description="megaphone" dc:publisher="Iconscout" dc:date="2017-09-22" dc:format="image/svg+xml" dc:language="en"><dc:creator><rdf:Bag><rdf:li>EcommDesign</rdf:li></rdf:Bag></dc:creator></rdf:Description></rdf:RDF></metadata></svg>