<?xml version="1.0" encoding="UTF-8"?><!DOCTYPE svg PUBLIC "-//W3C//DTD SVG 1.1//EN" "http://www.w3.org/Graphics/SVG/1.1/DTD/svg11.dtd"><svg xmlns="http://www.w3.org/2000/svg" xmlns:xlink="http://www.w3.org/1999/xlink" version="1.1" id="mobile-atm" x="0px" y="0px" viewBox="0 0 1010 1010" xml:space="preserve"><g id="mobile-atm-mobile-atm"><path id="mobile-atm-label" fill="#FFB933" d="M1010 505c0 278.914-226.096 505-505 505S0 783.914 0 505C0 226.106 226.096 0 505 0s505 226.106 505 505z"/><g id="mobile-atm-mobile-atm_1_"><path fill="#FFF" d="M287.85 222.2h434.3v565.6h-434.3z"/><path fill="#454545" d="M732.25 797.9h-454.5V212.1h454.5v585.8zm-434.3-20.2h414.1V232.3h-414.1v545.4z"/><path fill="#3BAFDA" d="M358.55 272.72h292.9V373.7h-292.9z"/><path fill="#454545" d="M661.55 383.8h-313.1V262.62h313.1V383.8zm-292.9-20.2h272.7v-80.78h-272.7v80.78z"/><g fill="#454545"><path d="M547.156 322.53c0 7.91-6.431 14.34-14.361 14.34-7.89 0-14.321-6.43-14.321-14.34s6.43-14.342 14.32-14.342c7.93 0 14.362 6.431 14.362 14.341z"/><path d="M602.745 322.53c0 7.929-6.411 14.36-14.302 14.36-7.93 0-14.38-6.431-14.38-14.36 0-7.91 6.45-14.362 14.38-14.362 7.891 0 14.302 6.451 14.302 14.361z"/><path d="M491.547 322.53c0 7.929-6.451 14.34-14.342 14.34-7.93 0-14.34-6.411-14.34-14.34 0-7.91 6.41-14.342 14.34-14.342 7.89 0 14.342 6.431 14.342 14.341z"/><path d="M435.938 322.53c0 7.929-6.451 14.36-14.342 14.36-7.93 0-14.36-6.431-14.36-14.36 0-7.91 6.43-14.362 14.36-14.362 7.89 0 14.341 6.451 14.341 14.361z"/></g><path fill="#BDC3C7" d="M358.491 438.837h71.706v71.726h-71.706z"/><path fill="#454545" d="M440.297 520.663H348.39v-91.926h91.906v91.926zm-71.706-20.2h51.506v-51.526H368.59v51.526z"/><path fill="#BDC3C7" d="M470.933 438.837h71.725v71.726h-71.725z"/><path fill="#454545" d="M552.758 520.663h-91.926v-91.926h91.926v91.926zm-71.726-20.2h51.526v-51.526h-51.526v51.526z"/><g><path fill="#BDC3C7" d="M579.783 438.837h71.727v71.726h-71.727z"/><path fill="#454545" d="M661.61 520.663h-91.926v-91.926h91.925v91.926zm-71.726-20.2h51.525v-51.526h-51.525v51.526z"/></g><g><path fill="#BDC3C7" d="M358.491 554.475h71.706V626.2h-71.706z"/><path fill="#454545" d="M440.297 636.3H348.39v-91.926h91.906V636.3zm-71.706-20.2h51.506v-51.526H368.59V616.1z"/><path fill="#BDC3C7" d="M470.933 554.475h71.725V626.2h-71.725z"/><path fill="#454545" d="M552.758 636.3h-91.926v-91.926h91.926V636.3zm-71.726-20.2h51.526v-51.526h-51.526V616.1z"/><g><path fill="#BDC3C7" d="M579.783 554.475h71.727V626.2h-71.727z"/><path fill="#454545" d="M661.61 636.3h-91.926v-91.926h91.925V636.3zm-71.726-20.2h51.525v-51.526h-51.525V616.1z"/></g></g><g><path fill="#FC6E51" d="M358.491 671.137h71.706v71.726h-71.706z"/><path fill="#454545" d="M440.297 752.963H348.39v-91.926h91.906v91.926zm-71.706-20.2h51.506v-51.526H368.59v51.526z"/><path fill="#BDC3C7" d="M470.933 671.137h71.725v71.726h-71.725z"/><path fill="#454545" d="M552.758 752.963h-91.926v-91.926h91.926v91.926zm-71.726-20.2h51.526v-51.526h-51.526v51.526z"/><g><path fill="#ACAF48" d="M579.783 671.137h71.727v71.726h-71.727z"/><path fill="#454545" d="M661.61 752.963h-91.926v-91.926h91.925v91.926zm-71.726-20.2h51.525v-51.526h-51.525v51.526z"/></g></g></g></g><metadata><rdf:RDF xmlns:rdf="http://www.w3.org/1999/02/22-rdf-syntax-ns#" xmlns:rdfs="http://www.w3.org/2000/01/rdf-schema#" xmlns:dc="http://purl.org/dc/elements/1.1/"><rdf:Description about="https://iconscout.com/legal#licenses" dc:title="mobile,atm" dc:description="mobile,atm" dc:publisher="Iconscout" dc:date="2017-09-22" dc:format="image/svg+xml" dc:language="en"><dc:creator><rdf:Bag><rdf:li>EcommDesign</rdf:li></rdf:Bag></dc:creator></rdf:Description></rdf:RDF></metadata></svg>