<?xml version="1.0" encoding="UTF-8"?><!DOCTYPE svg PUBLIC "-//W3C//DTD SVG 1.1//EN" "http://www.w3.org/Graphics/SVG/1.1/DTD/svg11.dtd"><svg xmlns="http://www.w3.org/2000/svg" xmlns:xlink="http://www.w3.org/1999/xlink" version="1.1" id="mobile-shop" x="0px" y="0px" viewBox="0 0 1010 1010" xml:space="preserve"><g id="mobile-shop-mobile-shop"><path id="mobile-shop-label" fill="#FFB933" d="M1010 505c0 278.904-226.086 505-505 505C226.106 1010 0 783.904 0 505S226.106 0 505 0c278.914 0 505 226.096 505 505z"/><g id="mobile-shop-mobile-shop_1_"><path fill="#3BAFDA" d="M298.128 664.864V386.285h413.745v278.599"/><path fill="#FFF" d="M711.873 664.884V777.7H316.927c-10.376 0-18.8-8.413-18.8-18.8v-94.036"/><path fill="#BDC3C7" d="M298.128 386.285V251.12c0-10.406 8.423-18.82 18.799-18.82h376.146c10.396 0 18.8 8.414 18.8 18.82v135.166"/><path fill="#454545" d="M711.873 787.8H298.128c-5.578 0-10.1-4.527-10.1-10.1V251.12c0-15.95 12.965-28.92 28.899-28.92h376.146c15.935 0 28.9 12.97 28.9 28.92v523.6c0 .514-.04 1.007-.109 1.49.07.483.109.977.109 1.49 0 5.572-4.523 10.1-10.1 10.1zm-403.646-20.2h393.546V251.12c0-4.814-3.902-8.72-8.7-8.72H316.927c-4.798 0-8.7 3.906-8.7 8.72V767.6z"/><path fill="#FC6E51" d="M241.118 391.986v63.332c0 27.362 25.427 52.779 52.769 52.779 27.34 0 52.768-25.417 52.768-52.779 0 27.362 25.448 52.779 52.808 52.779 27.321 0 52.768-25.417 52.768-52.779 0 27.362 25.448 52.779 52.769 52.779 27.34 0 52.788-25.417 52.788-52.779 0 27.362 25.447 52.779 52.769 52.779 27.361 0 52.789-25.417 52.789-52.779 0 27.362 25.426 52.779 52.767 52.779 27.342 0 52.79-25.417 52.79-52.779v-63.332H241.117z"/><path fill="#454545" d="M716.113 518.197c-21.235 0-41.248-12.487-52.767-30.181-11.526 17.694-31.548 30.181-52.79 30.181-21.235 0-41.247-12.487-52.768-30.181-11.525 17.694-31.547 30.181-52.788 30.181-21.235 0-41.248-12.487-52.769-30.181-11.52 17.694-31.532 30.181-52.768 30.181-21.25 0-41.278-12.487-52.803-30.191-11.525 17.704-31.538 30.191-52.773 30.191-32.905 0-62.87-29.974-62.87-62.879v-73.431h547.985v73.431c0 32.905-29.975 62.88-62.889 62.88zm-42.668-62.879c0 21.936 20.738 42.68 42.668 42.68 21.942 0 42.689-20.744 42.689-42.68v-53.232H251.218v53.232c0 21.936 20.737 42.68 42.669 42.68 21.93 0 42.668-20.744 42.668-42.68h20.2c0 21.936 20.757 42.68 42.708 42.68 21.931 0 42.669-20.744 42.669-42.68h20.2c0 21.936 20.737 42.68 42.668 42.68 21.94 0 42.688-20.744 42.688-42.68h20.2c0 21.936 20.738 42.68 42.669 42.68 21.941 0 42.688-20.744 42.688-42.68h20.2z"/><path fill="#FFF" d="M705.56 286.42h-401.1l-63.342 80.622v24.944h527.784v-24.944z"/><path fill="#454545" d="M779.002 402.086H231.018v-38.535l68.535-87.231h410.914l68.535 87.23v38.536zm-527.784-20.2h507.584v-11.352l-58.149-74.014H309.367l-58.15 74.014v11.353z"/><g><path fill="#454545" d="M704.515 674.964H298.128v-20.2h406.387v20.2z"/></g><path fill="#454545" d="M523.82 721.282c0 10.396-8.444 18.81-18.82 18.81-10.396 0-18.8-8.414-18.8-18.81 0-10.396 8.404-18.81 18.8-18.81 10.376 0 18.82 8.414 18.82 18.81z"/></g></g><metadata><rdf:RDF xmlns:rdf="http://www.w3.org/1999/02/22-rdf-syntax-ns#" xmlns:rdfs="http://www.w3.org/2000/01/rdf-schema#" xmlns:dc="http://purl.org/dc/elements/1.1/"><rdf:Description about="https://iconscout.com/legal#licenses" dc:title="mobile,shop" dc:description="mobile,shop" dc:publisher="Iconscout" dc:date="2017-09-22" dc:format="image/svg+xml" dc:language="en"><dc:creator><rdf:Bag><rdf:li>EcommDesign</rdf:li></rdf:Bag></dc:creator></rdf:Description></rdf:RDF></metadata></svg>