<?xml version="1.0" encoding="UTF-8"?><!DOCTYPE svg PUBLIC "-//W3C//DTD SVG 1.1//EN" "http://www.w3.org/Graphics/SVG/1.1/DTD/svg11.dtd"><svg xmlns="http://www.w3.org/2000/svg" xmlns:xlink="http://www.w3.org/1999/xlink" version="1.1" id="money-pig" x="0px" y="0px" viewBox="0 0 1010 1010" xml:space="preserve"><g id="money-pig-money-pig"><circle id="money-pig-label" fill="#ACAF48" cx="505" cy="505" r="505"/><g id="money-pig-money-pig_1_"><path fill="#FC6E51" d="M505 348.529c24.352 0 68.708 4.537 90.9 10.1 50.402-52.364 124.199-46.683 129.06-36.396 2.95 6.264-21.59 41.564-38.16 66.696 26.69 23.238 49.277 59.16 60.6 90.9h40.4v86.008l-41.9 19.411c-15.938 43.852-49.306 81.45-92.773 107.45v70.187c0 2.27-.849 4.517-2.584 6.215-1.727 1.735-7.142 3.471-9.37 3.471h-83.799v-52.354s-39.019.058-52.355 0c-12.387-.06-41.889 0-41.889 0v52.354h-82.446c-3.157 0-6.353-1.736-9.243-3.492-2.89-1.795-1.173-4.122-2.593-6.963v-41.9s-81.254-65.61-83.78-157.102c-.255-9.212.277-22.034 0-31.425C293.423 424.595 375.387 348.53 505 348.53z"/><path fill="#454545" d="M641.173 782.67h-83.799c-5.578 0-10.1-4.517-10.1-10.099v-42.245c-12.506.02-33.279.03-42.298-.01-7.694-.029-22.025-.01-31.746-.02v42.275c0 5.582-4.522 10.1-10.1 10.1h-82.446c-5.559 0-10.249-2.387-14.485-4.961-6.248-3.876-6.618-9.844-6.737-11.807-.004-.02-.004-.05-.004-.069a10.11 10.11 0 0 1-.71-3.718v-37.234c-16.645-14.627-81.442-76.874-83.774-161.491-.128-4.656-.07-10.21 0-15.801.029-2.407.059-4.814.074-7.151-34.389-6.323-61.296-27.144-62.874-49.79-.395-5.642.498-24.58 28.56-31.592 5.36-1.292 10.893 1.943 12.244 7.358 1.352 5.415-1.943 10.899-7.353 12.25-5.153 1.282-13.734 4.37-13.3 10.583.7 10.022 17.354 25.23 43.768 30.813C289.803 409.336 378.483 338.429 505 338.429c22.656 0 63.007 3.807 87.719 9.104 42.55-40.943 96.97-44.898 120.416-41.032 11.353 1.854 18.208 5.593 20.96 11.412 4.409 9.38-2.476 21.867-32.185 66.518l-1.923 2.9c22.222 21.482 42.324 51.9 54.396 82.397H787.8c5.583 0 10.1 4.518 10.1 10.101v86.008c0 3.935-2.289 7.506-5.859 9.163l-38.14 17.675c-16.286 41.77-48.243 79.005-90.674 105.675v64.535c0 5.119-1.997 9.893-5.627 13.434-4.024 4.054-12.29 6.352-16.427 6.352zM379.317 761.92c.833.414 1.263.532 1.47.552h72.243v-42.254c0-5.573 4.508-10.09 10.08-10.1-.01 0 29.546-.07 41.96 0 13.325.068 52.285 0 52.29 0h.014a10.096 10.096 0 0 1 10.1 10.1v42.254h73.699c.241-.05 1.095-.326 1.854-.631v-69.142a10.1 10.1 0 0 1 4.916-8.67c42.275-25.29 73.694-61.597 88.47-102.233a10.065 10.065 0 0 1 5.247-5.711l36.04-16.698v-69.457h-30.3a10.086 10.086 0 0 1-9.508-6.707c-11.452-32.095-34.107-66.114-57.725-86.68-3.811-3.313-4.581-8.945-1.8-13.176l6.722-10.13c9.271-13.927 23.893-35.902 28.589-46.12-15.95-4.183-70.453-3.078-110.498 38.516-2.511 2.603-6.23 3.698-9.736 2.79-22.01-5.513-65.615-9.793-88.444-9.793-119.05 0-201.353 68.007-209.821 173.317.123 4.775.059 10.347-.005 15.88-.065 5.316-.133 10.584-.01 15.012 2.372 85.84 79.251 148.896 80.03 149.517a10.129 10.129 0 0 1 3.753 7.862v40.124c.159.552.281 1.085.37 1.578z"/><path fill="#454545" d="M625.904 451.955c0 11.62 9.45 21.068 21.069 21.068 11.648 0 21.067-9.449 21.067-21.068 0-11.639-9.419-21.107-21.067-21.107-11.62 0-21.069 9.468-21.069 21.107z"/><path fill="#454545" d="M570.314 398.585H439.685c-5.578 0-10.1-4.518-10.1-10.1 0-5.583 4.522-10.1 10.1-10.1h130.63c5.578 0 10.1 4.517 10.1 10.1 0 5.582-4.522 10.1-10.1 10.1z"/><path fill="#FFF" d="M429.25 313.179c0 41.84 33.91 75.75 75.75 75.75s75.75-33.91 75.75-75.75-33.91-75.75-75.75-75.75-75.75 33.91-75.75 75.75z"/><path fill="#454545" d="M505 399.029c-47.339 0-85.85-38.516-85.85-85.85s38.511-85.85 85.85-85.85 85.85 38.516 85.85 85.85-38.511 85.85-85.85 85.85zm0-151.5c-36.198 0-65.65 29.451-65.65 65.65 0 36.198 29.452 65.65 65.65 65.65s65.65-29.452 65.65-65.65c0-36.198-29.452-65.65-65.65-65.65z"/><circle fill="#FFB933" cx="505" cy="313.1787" r="45.4502"/></g></g><metadata><rdf:RDF xmlns:rdf="http://www.w3.org/1999/02/22-rdf-syntax-ns#" xmlns:rdfs="http://www.w3.org/2000/01/rdf-schema#" xmlns:dc="http://purl.org/dc/elements/1.1/"><rdf:Description about="https://iconscout.com/legal#licenses" dc:title="money,pig" dc:description="money,pig" dc:publisher="Iconscout" dc:date="2017-09-22" dc:format="image/svg+xml" dc:language="en"><dc:creator><rdf:Bag><rdf:li>EcommDesign</rdf:li></rdf:Bag></dc:creator></rdf:Description></rdf:RDF></metadata></svg>