<?xml version="1.0" encoding="UTF-8"?><!DOCTYPE svg PUBLIC "-//W3C//DTD SVG 1.1//EN" "http://www.w3.org/Graphics/SVG/1.1/DTD/svg11.dtd"><svg xmlns="http://www.w3.org/2000/svg" xmlns:xlink="http://www.w3.org/1999/xlink" version="1.1" id="pointer-screen" x="0px" y="0px" viewBox="0 0 1010 1010" xml:space="preserve"><g id="pointer-screen-pointer-screen"><path id="pointer-screen-label" fill="#ACAF48" d="M1010 505c0 278.904-226.106 505-505 505C226.086 1010 0 783.904 0 505S226.086 0 505 0c278.894 0 505 226.096 505 505z"/><g id="pointer-screen-pointer-screen_1_"><g id="pointer-screen-screen"><path fill="#FFF" d="M787.8 578.146v58.489c0 10.79-8.719 19.51-19.509 19.51H241.71c-10.771 0-19.51-8.72-19.51-19.51v-58.489"/><path fill="#454545" d="M768.291 666.245H241.71c-16.324 0-29.61-13.276-29.61-29.61v-58.489c0-5.583 4.517-10.1 10.1-10.1 5.583 0 10.1 4.517 10.1 10.1v58.489c0 5.188 4.222 9.41 9.41 9.41h526.581c5.188 0 9.41-4.222 9.41-9.41v-58.489c0-5.583 4.517-10.1 10.099-10.1 5.583 0 10.1 4.517 10.1 10.1v58.489c0 16.334-13.286 29.61-29.609 29.61z"/><path fill="#FC6E51" d="M222.2 578.146v-282.8c0-10.79 8.739-19.51 19.51-19.51h526.581c10.79 0 19.509 8.72 19.509 19.51v282.8"/><path fill="#454545" d="M787.8 588.246c-5.582 0-10.1-4.527-10.1-10.1v-282.8c0-5.188-4.222-9.41-9.409-9.41H241.71c-5.188 0-9.41 4.222-9.41 9.41v282.8c0 5.573-4.517 10.1-10.1 10.1-5.583 0-10.1-4.527-10.1-10.1v-282.8c0-16.333 13.286-29.61 29.61-29.61h526.581c16.323 0 29.61 13.277 29.61 29.61v282.8c0 5.573-4.518 10.1-10.101 10.1z"/><path fill="#FFF" d="M436.746 656.144h136.527v78.02H436.746z"/><path fill="#454545" d="M573.273 744.264H436.746c-5.582 0-10.1-4.518-10.1-10.1v-78.02c0-5.572 4.518-10.099 10.1-10.099h136.527c5.583 0 10.101 4.527 10.101 10.1v78.018c0 5.583-4.518 10.1-10.1 10.1zm-126.427-20.2h116.328v-57.819H446.846v57.818z"/><g><path fill="#454545" d="M787.8 588.246H222.2c-5.583 0-10.1-4.527-10.1-10.1 0-5.583 4.517-10.1 10.1-10.1h565.6c5.583 0 10.1 4.517 10.1 10.1 0 5.573-4.517 10.1-10.1 10.1z"/></g><g><path fill="#454545" d="M612.293 744.264H397.727c-5.582 0-10.1-4.518-10.1-10.1 0-5.573 4.518-10.1 10.1-10.1h214.566c5.582 0 10.1 4.527 10.1 10.1 0 5.582-4.518 10.1-10.1 10.1z"/></g><path fill="#454545" d="M514.765 614.7c0 5.385-4.38 9.764-9.765 9.764-5.385 0-9.745-4.379-9.745-9.765a9.741 9.741 0 0 1 9.745-9.745c5.386 0 9.765 4.36 9.765 9.745z"/></g><g id="pointer-screen-pointer"><path fill="#FFB933" d="M562.957 378.435c33.653 33.653 33.653 88.177.02 121.83-33.654 33.634-88.198 33.634-121.832 0-33.633-33.653-33.633-88.177 0-121.83 33.634-33.634 88.178-33.634 121.812 0z"/><path fill="#454545" d="M455.447 410.825l-44.306-44.305 14.282-14.283 44.306 44.306-14.282 14.282z"/><path fill="#454545" d="M511.135 381.531h-20.2v-63.993h20.2v63.993z"/><path fill="#454545" d="M443.354 452.231h-66.438v-20.2h66.438v20.2z"/><path fill="#454545" d="M546.623 410.825l-14.282-14.282 44.306-44.306 14.282 14.282-44.306 44.306z"/><path fill="#454545" d="M425.423 532.025l-14.282-14.282 44.306-44.306 14.282 14.283-44.306 44.305z"/><g><path fill="#FFF" d="M562.838 603.91l-71.41-171.405 171.385 71.41-73.975 26.02z"/><path fill="#454545" d="M563.637 632.088l-90.969-218.343 218.314 90.96-94.224 33.14-33.12 94.243zM510.19 451.255l51.85 124.465 18.879-53.716 53.724-18.898-124.454-51.851z"/></g></g></g></g><metadata><rdf:RDF xmlns:rdf="http://www.w3.org/1999/02/22-rdf-syntax-ns#" xmlns:rdfs="http://www.w3.org/2000/01/rdf-schema#" xmlns:dc="http://purl.org/dc/elements/1.1/"><rdf:Description about="https://iconscout.com/legal#licenses" dc:title="pointer,screen" dc:description="pointer,screen" dc:publisher="Iconscout" dc:date="2017-09-22" dc:format="image/svg+xml" dc:language="en"><dc:creator><rdf:Bag><rdf:li>EcommDesign</rdf:li></rdf:Bag></dc:creator></rdf:Description></rdf:RDF></metadata></svg>