<?xml version="1.0" encoding="UTF-8"?><!DOCTYPE svg PUBLIC "-//W3C//DTD SVG 1.1//EN" "http://www.w3.org/Graphics/SVG/1.1/DTD/svg11.dtd"><svg xmlns="http://www.w3.org/2000/svg" xmlns:xlink="http://www.w3.org/1999/xlink" version="1.1" id="procent-badge" x="0px" y="0px" viewBox="0 0 1010 1010" xml:space="preserve"><g id="procent-badge-procent-badge"><path id="procent-badge-label" fill="#FFB933" d="M1010 505c0 278.904-226.106 505-505 505C226.086 1010 0 783.904 0 505S226.086 0 505 0c278.894 0 505 226.096 505 505z"/><g id="procent-badge-procent-badge_1_"><path fill="#3BAFDA" d="M553.794 259.616c44.01-21.245 74.073-8.798 90.17 37.343 48.813-2.782 71.805 20.229 69.023 69.023 46.16 16.097 58.618 46.15 37.353 90.16 36.483 32.54 36.483 65.069 0 97.607 21.265 44.01 8.808 74.064-37.353 90.17 2.782 48.804-20.21 71.805-69.023 69.023-16.097 46.13-46.16 58.578-90.17 37.343-32.53 36.465-65.059 36.465-97.588 0-44.02 21.235-74.073 8.788-90.17-37.343-48.813 2.782-71.804-20.219-69.023-69.022-46.16-16.107-58.617-46.16-37.362-90.171-36.464-32.539-36.464-65.068 0-97.607-21.256-44.01-8.798-74.063 37.362-90.16-2.781-48.794 20.21-71.805 69.023-69.023 16.097-46.141 46.15-58.588 90.17-37.343 32.53-36.474 65.059-36.474 97.588 0z"/><path fill="#454545" d="M505 787.736c-17.399 0-34.6-8.492-51.22-25.28-44.266 18.592-76.825 4.567-94.638-39.197-.266 0-.523.01-.78.01-23.908 0-42.204-6.54-54.395-19.44-11.59-12.28-17.39-30.083-17.27-53.015-21.878-8.927-36.327-21.581-42.985-37.658-6.648-16.077-5.386-35.222 3.768-56.98-16.778-16.62-25.28-33.832-25.28-51.23 0-17.399 8.502-34.6 25.28-51.221-9.154-21.767-10.426-40.912-3.768-56.99 6.667-16.076 21.107-28.721 42.984-37.648-.118-22.932 5.681-40.735 17.28-53.005 12.182-12.9 30.488-19.45 54.386-19.45.257 0 .514.01.78.01 17.823-43.773 50.391-57.78 94.638-39.197 33.24-33.574 69.2-33.574 102.44 0 44.237-18.582 76.815-4.576 94.638 39.197.267 0 .523-.01.78-.01 23.898 0 42.204 6.55 54.395 19.45 11.59 12.27 17.389 30.073 17.27 53.005 21.878 8.927 36.328 21.572 42.985 37.659 6.648 16.067 5.376 35.212-3.777 56.979 16.787 16.62 25.289 33.822 25.289 51.22 0 17.4-8.492 34.611-25.29 51.23 9.154 21.759 10.426 40.904 3.778 56.98-6.657 16.078-21.107 28.732-42.984 37.659.118 22.932-5.68 40.735-17.27 53.005-12.192 12.901-30.498 19.45-54.396 19.45-.257 0-.513-.01-.78-.01-17.823 43.764-50.41 57.78-94.638 39.197-16.62 16.788-33.821 25.28-51.22 25.28zm-48.794-47.55c2.812 0 5.573 1.173 7.536 3.382 28.386 31.81 54.13 31.81 82.516 0a10.118 10.118 0 0 1 11.925-2.377c37.915 18.306 62.05 9.084 76.243-31.582 1.48-4.251 5.583-6.944 10.11-6.757 21.65 1.243 37.54-3.097 46.81-12.9 8.848-9.381 12.744-24.668 11.56-45.45a10.104 10.104 0 0 1 6.757-10.12c20.14-7.023 32.914-16.768 37.954-28.96 5.05-12.18 2.9-28.09-6.372-47.274a10.103 10.103 0 0 1 2.367-11.935c15.92-14.193 23.988-28.08 23.988-41.267 0-13.188-8.069-27.065-23.988-41.268-3.363-2.999-4.33-7.87-2.367-11.925 9.272-19.194 11.422-35.104 6.372-47.285-5.04-12.18-17.813-21.925-37.954-28.948a10.104 10.104 0 0 1-6.757-10.12c1.184-20.782-2.702-36.07-11.56-45.45-9.27-9.804-25.18-14.144-46.81-12.901-4.527.187-8.63-2.505-10.11-6.756-14.194-40.667-38.338-49.87-76.243-31.582-4.035 1.972-8.916 1.005-11.925-2.368-28.386-31.819-54.13-31.819-82.516 0a10.036 10.036 0 0 1-11.925 2.368c-37.924-18.288-62.05-9.085-76.243 31.582-1.48 4.25-5.642 6.953-10.11 6.756-21.64-1.233-37.54 3.097-46.81 12.9-8.848 9.38-12.744 24.669-11.56 45.45a10.103 10.103 0 0 1-6.757 10.12c-20.14 7.024-32.914 16.768-37.954 28.95-5.05 12.18-2.91 28.09 6.362 47.284a10.091 10.091 0 0 1-2.367 11.925c-15.91 14.193-23.978 28.08-23.978 41.268 0 13.187 8.068 27.074 23.978 41.267a10.107 10.107 0 0 1 2.367 11.935c-9.271 19.185-11.412 35.094-6.362 47.274 5.04 12.192 17.813 21.937 37.954 28.96a10.103 10.103 0 0 1 6.756 10.12c-1.183 20.782 2.703 36.079 11.56 45.45 9.272 9.803 25.161 14.134 46.81 12.9 4.46-.187 8.632 2.506 10.111 6.757 14.183 40.656 38.319 49.868 76.243 31.582 1.4-.68 2.9-1.006 4.39-1.006z"/><circle fill="#FFF" cx="505" cy="505" r="167.5"/><g><path fill="#FC6E51" d="M472.283 439.502c0 18.08-14.646 32.727-32.726 32.727-18.09 0-32.726-14.646-32.726-32.727 0-18.06 14.637-32.726 32.726-32.726 18.08 0 32.726 14.667 32.726 32.726z"/><path fill="#454545" d="M439.557 482.329c-23.613 0-42.826-19.213-42.826-42.827 0-23.612 19.213-42.826 42.826-42.826s42.827 19.214 42.827 42.826c0 23.614-19.214 42.827-42.827 42.827zm0-65.452c-12.477 0-22.626 10.149-22.626 22.626 0 12.477 10.15 22.626 22.626 22.626 12.477 0 22.627-10.149 22.627-22.627 0-12.476-10.15-22.625-22.627-22.625z"/><path fill="#FC6E51" d="M603.18 570.399c0 18.08-14.657 32.725-32.747 32.725-18.07 0-32.716-14.646-32.716-32.725 0-18.08 14.646-32.727 32.716-32.727 18.09 0 32.747 14.647 32.747 32.727z"/><path fill="#454545" d="M570.433 613.225c-23.613 0-42.817-19.214-42.817-42.826 0-23.613 19.204-42.827 42.817-42.827 23.623 0 42.846 19.214 42.846 42.827 0 23.612-19.223 42.826-42.846 42.826zm0-65.453c-12.467 0-22.617 10.15-22.617 22.627 0 12.476 10.15 22.626 22.617 22.626 12.487 0 22.646-10.15 22.646-22.626 0-12.478-10.159-22.627-22.646-22.627z"/><g><path fill="#454545" d="M406.831 613.225c-2.584 0-5.169-.986-7.142-2.959a10.097 10.097 0 0 1 0-14.282l196.35-196.349a10.097 10.097 0 0 1 14.281 0 10.096 10.096 0 0 1 0 14.282l-196.348 196.35a10.066 10.066 0 0 1-7.14 2.958z"/></g></g></g></g><metadata><rdf:RDF xmlns:rdf="http://www.w3.org/1999/02/22-rdf-syntax-ns#" xmlns:rdfs="http://www.w3.org/2000/01/rdf-schema#" xmlns:dc="http://purl.org/dc/elements/1.1/"><rdf:Description about="https://iconscout.com/legal#licenses" dc:title="procent,badge" dc:description="procent,badge" dc:publisher="Iconscout" dc:date="2017-09-22" dc:format="image/svg+xml" dc:language="en"><dc:creator><rdf:Bag><rdf:li>EcommDesign</rdf:li></rdf:Bag></dc:creator></rdf:Description></rdf:RDF></metadata></svg>