<?xml version="1.0" encoding="UTF-8"?><!DOCTYPE svg PUBLIC "-//W3C//DTD SVG 1.1//EN" "http://www.w3.org/Graphics/SVG/1.1/DTD/svg11.dtd"><svg xmlns="http://www.w3.org/2000/svg" xmlns:xlink="http://www.w3.org/1999/xlink" version="1.1" id="quality-award" x="0px" y="0px" viewBox="0 0 1010 1010" xml:space="preserve"><g id="quality-award-quality-award"><path id="quality-award-label" fill="#FC6E51" d="M1010 505c0 278.904-226.106 505-505 505C226.086 1010 0 783.904 0 505S226.086 0 505 0c278.894 0 505 226.096 505 505z"/><g id="quality-award-quality-award_1_"><path fill="#3BAFDA" d="M655.08 655.02l30.122 70.986-75.306-2.652-50.401 56.003-35.37-83.315"/><path fill="#454545" d="M556.398 797.9l-41.574-97.913 18.602-7.89 29.166 68.717 42.955-47.718 64.16 2.258-23.928-56.388 18.602-7.89 36.316 85.582-86.45-3.047-57.85 64.29z"/><path fill="#3BAFDA" d="M486.29 693.063l-34.867 86.294-51.368-55.106-75.247 3.965 33.062-81.865"/><path fill="#454545" d="M454.845 797.84l-58.962-63.262-86.373 4.557 39-96.562 18.72 7.555-27.125 67.169 64.122-3.373L448 760.873l28.93-71.588 18.72 7.556-40.805 101z"/><g><path fill="#FFB933" d="M747.814 465.004c0 12.369-22.449 22.805-24.323 34.63-1.903 12.141 16.206 28.989 12.487 40.43-3.777 11.649-28.367 14.627-33.85 25.378-5.544 10.87 6.43 32.519-.69 42.304-7.162 9.844-31.464 5.099-40.036 13.67-8.59 8.571-3.856 32.875-13.68 40.045-9.794 7.111-31.435-4.882-42.304.661-10.741 5.504-13.73 30.073-25.378 33.86-11.422 3.71-28.268-14.4-40.41-12.486-11.846 1.863-22.281 24.322-34.63 24.322-12.358 0-22.804-22.459-34.62-24.322-12.142-1.914-28.998 16.195-40.43 12.486-11.639-3.787-14.617-28.356-25.348-33.86-10.88-5.543-32.53 6.44-42.314-.67-9.833-7.17-5.099-31.475-13.68-40.046-8.581-8.58-32.875-3.827-40.045-13.67-7.131-9.785 4.863-31.434-.67-42.304-5.504-10.74-30.094-13.729-33.861-25.368-3.729-11.441 14.38-28.289 12.487-40.43-1.875-11.825-24.323-22.28-24.323-34.63 0-12.339 22.448-22.794 24.323-34.62 1.893-12.132-16.226-28.978-12.487-40.41 3.758-11.638 28.337-14.637 33.84-25.388 5.534-10.86-6.45-32.509.671-42.294 7.17-9.833 31.474-5.089 40.055-13.69 8.581-8.57 3.837-32.874 13.68-40.035 9.784-7.121 31.435 4.863 42.304-.68 10.731-5.494 13.72-30.074 25.358-33.85 11.442-3.72 28.279 14.39 40.44 12.485 11.816-1.874 22.262-24.322 34.62-24.322 12.359 0 22.804 22.448 34.63 24.322 12.141 1.904 28.988-16.205 40.43-12.476 11.648 3.777 14.627 28.347 25.358 33.84 10.889 5.553 32.53-6.44 42.313.691 9.834 7.16 5.1 31.454 13.681 40.035 8.581 8.591 32.884 3.847 40.026 13.68 7.14 9.785-4.844 31.435.7 42.304 5.493 10.74 30.063 13.73 33.84 25.368 3.72 11.442-14.39 28.288-12.487 40.42 1.874 11.826 24.323 22.281 24.323 34.62z"/><path fill="#454545" d="M505 717.918c-10.8 0-18.71-8.226-25.684-15.484-3.087-3.216-8.265-8.612-10.514-8.966h-.03c-3.186 0-8.778 2.998-13.276 5.405-7.081 3.787-14.41 7.713-22.212 7.713-2.24 0-4.419-.336-6.45-.996-10.209-3.324-15.15-13.543-19.51-22.567-1.963-4.054-5.237-10.84-7.328-11.916-.119-.048-.898-.404-3.028-.404-3.097 0-7.013.7-11.156 1.44-4.803.848-9.784 1.736-14.627 1.736-6.037 0-10.89-1.39-14.834-4.26-8.621-6.274-10.16-17.478-11.53-27.361-.612-4.498-1.658-12.014-3.354-13.711-1.697-1.696-9.212-2.732-13.7-3.354-9.883-1.36-21.088-2.9-27.37-11.51-6.254-8.58-4.271-19.697-2.526-29.5.849-4.775 2.131-11.985 1.016-14.164-1.055-2.072-7.85-5.366-11.905-7.319-9.025-4.37-19.253-9.321-22.557-19.53-3.275-10.02 2.031-19.943 6.717-28.682 2.308-4.3 5.79-10.81 5.395-13.296-.355-2.228-5.74-7.417-8.966-10.513-7.26-6.974-15.475-14.874-15.475-25.675 0-10.79 8.216-18.69 15.475-25.654 3.216-3.107 8.61-8.286 8.976-10.554.375-2.446-3.097-8.946-5.405-13.246-4.686-8.75-9.992-18.671-6.707-28.712 3.284-10.179 13.502-15.13 22.527-19.49 4.054-1.973 10.84-5.267 11.915-7.358 1.105-2.17-.177-9.39-1.025-14.164-1.746-9.794-3.72-20.9 2.525-29.472 6.272-8.62 17.467-10.159 27.35-11.52 4.784-.66 12.024-1.656 13.72-3.373 1.706-1.696 2.743-9.212 3.364-13.7 1.36-9.893 2.91-21.097 11.53-27.36 3.935-2.87 8.798-4.271 14.844-4.271 4.843 0 9.814.888 14.628 1.735 4.142.74 8.047 1.44 11.145 1.44 2.12 0 2.9-.345 3.038-.413 2.07-1.066 5.356-7.852 7.319-11.906 4.359-9.025 9.31-19.243 19.509-22.557 2.032-.66 4.211-.996 6.46-.996 7.802 0 15.13 3.916 22.212 7.713 4.518 2.416 10.13 5.414 13.02 5.414 2.525-.374 7.703-5.76 10.8-8.975C486.29 220.326 494.19 212.1 505 212.1c10.8 0 18.71 8.226 25.684 15.475 3.088 3.226 8.276 8.611 10.524 8.966 2.89.345 8.778-2.979 13.276-5.385 7.092-3.798 14.42-7.714 22.222-7.714 2.259 0 4.439.336 6.48 1.007 10.199 3.294 15.14 13.532 19.51 22.547 1.962 4.054 5.238 10.83 7.328 11.896.119.068.908.414 3.039.414 3.096 0 7.002-.69 11.145-1.43 4.804-.858 9.765-1.736 14.607-1.736 6.056 0 10.92 1.4 14.865 4.27 8.61 6.274 10.148 17.468 11.52 27.351.66 4.784 1.656 12.004 3.353 13.71 1.707 1.707 9.222 2.742 13.72 3.363 9.883 1.361 21.078 2.9 27.34 11.52 6.244 8.562 4.272 19.678 2.535 29.482-.847 4.774-2.13 11.984-1.015 14.174 1.065 2.08 7.851 5.365 11.905 7.328 9.015 4.37 19.234 9.31 22.547 19.51 3.265 10.03-2.042 19.943-6.717 28.692-2.308 4.3-5.79 10.8-5.395 13.276.355 2.248 5.75 7.427 8.967 10.534 7.258 6.963 15.474 14.864 15.474 25.654 0 10.81-8.226 18.71-15.485 25.694-3.215 3.087-8.601 8.266-8.966 10.515-.385 2.465 3.097 8.974 5.405 13.285 4.675 8.74 9.982 18.651 6.717 28.692-3.304 10.199-13.532 15.14-22.547 19.51-4.054 1.953-10.85 5.237-11.915 7.338-1.115 2.18.168 9.4 1.016 14.184 1.736 9.784 3.709 20.89-2.535 29.471-6.273 8.62-17.478 10.16-27.37 11.52-4.488.612-11.994 1.658-13.691 3.344-1.706 1.707-2.742 9.232-3.363 13.72-1.371 9.883-2.91 21.068-11.5 27.341-3.966 2.88-8.819 4.27-14.855 4.27-4.843 0-9.824-.887-14.637-1.746-4.143-.739-8.058-1.439-11.145-1.439-2.121 0-2.9.346-3.038.414-2.081 1.065-5.366 7.852-7.33 11.915-4.359 9.015-9.31 19.233-19.509 22.558a20.94 20.94 0 0 1-6.46.996c-7.792 0-15.12-3.926-22.202-7.713-4.508-2.417-10.12-5.426-13-5.426-2.564.375-7.752 5.78-10.85 9.006-6.963 7.25-14.864 15.465-25.654 15.465zm-36.494-44.67c1.174 0 2.318.099 3.442.275 8.966 1.402 15.555 8.276 21.936 14.915 2.9 3.017 8.917 9.28 11.116 9.28 2.19 0 8.196-6.253 11.086-9.261 6.392-6.648 13-13.532 21.976-14.934 8.73-1.39 17.753 3.137 25.98 7.537 4.428 2.377 9.942 5.326 12.664 5.326 2.259-.73 5.997-8.444 7.792-12.152 4.024-8.325 8.196-16.945 16.314-21.107 7.023-3.58 17.38-2.564 26.916-.868 4.133.73 8.04 1.43 11.097 1.43 2.298 0 2.969-.405 2.969-.405 1.657-1.35 2.771-9.428 3.373-13.768 1.214-8.79 2.585-18.75 9.105-25.25 6.479-6.49 16.431-7.852 25.21-9.065 4.34-.601 12.417-1.707 13.789-3.403 1.143-1.834-.267-9.784-1.027-14.055-1.548-8.749-3.304-18.67.889-26.887 4.152-8.137 12.772-12.32 21.107-16.344 3.699-1.795 11.402-5.524 12.131-7.565.474-2.101-3.294-9.143-5.316-12.92-4.211-7.862-8.975-16.778-7.545-25.95 1.42-8.976 8.285-15.575 14.924-21.957 3.017-2.89 9.28-8.916 9.28-11.116 0-2.19-6.263-8.206-9.27-11.096-6.64-6.391-13.504-12.98-14.924-21.935-1.45-9.194 3.324-18.11 7.535-25.971 2.022-3.777 5.79-10.82 5.316-12.93-.73-2.032-8.432-5.76-12.13-7.556-8.326-4.024-16.936-8.196-21.098-16.314-4.193-8.236-2.437-18.148-.89-26.897.76-4.27 2.17-12.22 1.018-14.074-1.381-1.677-9.43-2.792-13.76-3.394-8.788-1.203-18.74-2.584-25.24-9.094-6.5-6.49-7.87-16.442-9.083-25.22-.603-4.34-1.717-12.418-3.404-13.779 0 0-.68-.405-2.969-.405-3.057 0-6.954.69-11.077 1.43-9.547 1.697-19.914 2.683-26.906-.887-8.138-4.162-12.3-12.763-16.324-21.088-1.795-3.708-5.524-11.421-7.565-12.142h-.02c-2.979 0-8.483 2.95-12.91 5.317-8.207 4.389-17.173 8.916-25.951 7.535-8.966-1.42-15.564-8.285-21.946-14.933-2.89-3.008-8.916-9.271-11.116-9.271-2.2 0-8.226 6.273-11.116 9.271-6.381 6.648-12.97 13.513-21.926 14.933-8.867 1.42-17.764-3.136-25.99-7.555-4.428-2.367-9.951-5.316-12.684-5.316-2.268.74-5.997 8.453-7.792 12.151-4.024 8.325-8.186 16.936-16.303 21.098-7.023 3.57-17.38 2.584-26.917.878-4.124-.74-8.02-1.43-11.087-1.43-2.298 0-2.97.404-2.97.414-1.686 1.361-2.8 9.429-3.392 13.769-1.213 8.788-2.584 18.74-9.084 25.23-6.49 6.51-16.462 7.89-25.25 9.094-4.34.612-12.418 1.717-13.789 3.413-1.134 1.825.277 9.774 1.036 14.045 1.558 8.749 3.324 18.662-.868 26.878-4.162 8.137-12.773 12.32-21.107 16.343-3.69 1.796-11.383 5.524-12.122 7.565-.474 2.13 3.294 9.163 5.316 12.93 4.201 7.862 8.976 16.768 7.545 25.931-1.43 8.986-8.295 15.575-14.933 21.966-3.008 2.89-9.271 8.907-9.271 11.096 0 2.2 6.263 8.217 9.271 11.116 6.638 6.372 13.513 12.98 14.923 21.937 1.44 9.192-3.334 18.098-7.535 25.96-2.022 3.787-5.79 10.819-5.316 12.94.739 2.031 8.432 5.76 12.141 7.555 8.325 4.024 16.935 8.187 21.098 16.314 4.202 8.246 2.436 18.149.878 26.907-.76 4.261-2.18 12.21-1.026 14.065 1.36 1.677 9.439 2.792 13.789 3.393 8.778 1.204 18.73 2.575 25.23 9.075 6.5 6.49 7.871 16.45 9.084 25.23.602 4.34 1.716 12.428 3.413 13.799 0 0 .69.384 2.94.384 3.066 0 6.962-.69 11.095-1.43 9.538-1.687 19.924-2.692 26.908.878 8.136 4.172 12.299 12.782 16.323 21.107 1.795 3.708 5.523 11.422 7.565 12.152h.01c2.94 0 8.453-2.96 12.881-5.326 7.17-3.837 14.588-7.812 22.538-7.812z"/></g><circle fill="#FFF" cx="505" cy="465.0039" r="151.5"/><g><path fill="#454545" d="M505 566.783c-51.417 0-93.247-45.075-93.247-100.476 0-55.403 41.83-100.478 93.247-100.478 51.427 0 93.258 45.075 93.258 100.478 0 55.401-41.83 100.476-93.258 100.476zm0-180.754c-40.281 0-73.047 36.011-73.047 80.278 0 44.265 32.766 80.277 73.047 80.277 40.282 0 73.058-36.012 73.058-80.277 0-44.267-32.776-80.278-73.058-80.278z"/><path fill="#454545" d="M577.12 567.83c-2.584 0-5.168-.987-7.14-2.96l-52.838-52.828a10.097 10.097 0 0 1 0-14.282 10.097 10.097 0 0 1 14.282 0l52.838 52.828a10.097 10.097 0 0 1 0 14.282 10.068 10.068 0 0 1-7.142 2.96z"/></g></g></g><metadata><rdf:RDF xmlns:rdf="http://www.w3.org/1999/02/22-rdf-syntax-ns#" xmlns:rdfs="http://www.w3.org/2000/01/rdf-schema#" xmlns:dc="http://purl.org/dc/elements/1.1/"><rdf:Description about="https://iconscout.com/legal#licenses" dc:title="quality,award" dc:description="quality,award" dc:publisher="Iconscout" dc:date="2017-09-22" dc:format="image/svg+xml" dc:language="en"><dc:creator><rdf:Bag><rdf:li>EcommDesign</rdf:li></rdf:Bag></dc:creator></rdf:Description></rdf:RDF></metadata></svg>