<?xml version="1.0" encoding="UTF-8"?><!DOCTYPE svg PUBLIC "-//W3C//DTD SVG 1.1//EN" "http://www.w3.org/Graphics/SVG/1.1/DTD/svg11.dtd"><svg xmlns="http://www.w3.org/2000/svg" xmlns:xlink="http://www.w3.org/1999/xlink" version="1.1" id="quality-badge" x="0px" y="0px" viewBox="0 0 1010 1010" xml:space="preserve"><g id="quality-badge-quality-badge"><circle id="quality-badge-label" fill="#FC6E51" cx="505" cy="505" r="505"/><g id="quality-badge-quality-badge_1_"><path fill="#FFB933" d="M518.79 254.078l18.227-8.59c12.851-6.057 28.168-3.02 37.726 7.505l13.552 14.904a32.35 32.35 0 0 0 25.468 10.543l20.12-.957c14.204-.67 27.174 8 31.977 21.374l6.826 18.958a32.322 32.322 0 0 0 19.5 19.5l18.947 6.825a32.342 32.342 0 0 1 21.384 31.976l-.957 20.121a32.316 32.316 0 0 0 10.544 25.468l14.903 13.552c10.524 9.558 13.561 24.875 7.506 37.726l-8.591 18.228a32.43 32.43 0 0 0 0 27.578l8.59 18.227c6.056 12.852 3.02 28.17-7.505 37.727l-14.903 13.552a32.316 32.316 0 0 0-10.544 25.467l.957 20.12a32.343 32.343 0 0 1-21.384 31.978l-18.947 6.826a32.347 32.347 0 0 0-19.5 19.5l-6.826 18.947a32.34 32.34 0 0 1-31.976 21.383l-20.121-.956a32.317 32.317 0 0 0-25.468 10.543l-13.552 14.904c-9.558 10.524-24.875 13.561-37.726 7.506l-18.228-8.591a32.43 32.43 0 0 0-27.578 0l-18.227 8.59c-12.852 6.056-28.17 3.02-37.727-7.505l-13.552-14.904a32.315 32.315 0 0 0-25.467-10.543l-20.121.956a32.34 32.34 0 0 1-31.977-21.383l-6.825-18.947a32.32 32.32 0 0 0-19.5-19.5l-18.958-6.826c-13.374-4.803-22.044-17.774-21.373-31.977l.956-20.121a32.347 32.347 0 0 0-10.543-25.467l-14.904-13.552c-10.524-9.557-13.572-24.875-7.506-37.727l8.591-18.227a32.43 32.43 0 0 0 0-27.578l-8.59-18.228c-6.067-12.851-3.019-28.168 7.505-37.726l14.904-13.552a32.346 32.346 0 0 0 10.543-25.468l-.956-20.12c-.671-14.204 7.999-27.174 21.373-31.977l18.957-6.825a32.296 32.296 0 0 0 19.5-19.5l6.826-18.958c4.803-13.375 17.774-22.044 31.977-21.374l20.12.957a32.347 32.347 0 0 0 25.468-10.543l13.552-14.904c9.557-10.524 24.875-13.562 37.727-7.506l18.227 8.591a32.432 32.432 0 0 0 27.578 0z"/><path fill="#454545" d="M550.795 777.7a42.067 42.067 0 0 1-18.084-4.054l-18.228-8.591a22.42 22.42 0 0 0-18.981.01l-18.213 8.581c-16.516 7.802-37.253 3.64-49.509-9.853l-13.547-14.894a22.263 22.263 0 0 0-16.442-7.279l-23.213 1.036c-17.857 0-33.91-11.294-39.946-28.111l-6.82-18.938a22.141 22.141 0 0 0-13.41-13.414l-18.967-6.835c-17.655-6.332-28.924-23.198-28.041-41.948l.957-20.13a22.162 22.162 0 0 0-7.246-17.509l-14.908-13.551c-13.902-12.635-17.862-32.53-9.843-49.514l8.586-18.228a22.248 22.248 0 0 0-.005-18.976l-8.586-18.208c-8.014-16.984-4.054-36.879 9.853-49.514l14.899-13.552c4.921-4.468 7.565-10.85 7.25-17.517l-.957-20.111c-.883-18.76 10.386-35.626 28.05-41.969l18.948-6.815c6.278-2.259 11.165-7.141 13.414-13.414l6.83-18.967c6.032-16.797 22.085-28.09 39.942-28.09l23.189 1.035a22.266 22.266 0 0 0 16.461-7.28l13.557-14.903c12.246-13.473 32.983-17.636 49.504-9.844l18.227 8.591a22.413 22.413 0 0 0 18.982-.01l18.213-8.58c16.536-7.793 37.259-3.64 49.509 9.853l13.546 14.894a22.285 22.285 0 0 0 16.467 7.279l23.189-1.036c17.857 0 33.91 11.294 39.941 28.1l6.826 18.948a22.158 22.158 0 0 0 13.414 13.414l18.953 6.836c17.66 6.332 28.933 23.198 28.05 41.948l-.956 20.13a22.152 22.152 0 0 0 7.244 17.508l14.908 13.552c13.893 12.625 17.853 32.52 9.85 49.514l-8.592 18.227a22.244 22.244 0 0 0 .005 18.977l8.586 18.208c8.004 16.994 4.044 36.889-9.853 49.514l-14.899 13.551a22.141 22.141 0 0 0-7.249 17.508l.956 20.121c.883 18.76-10.39 35.626-28.061 41.968l-18.938 6.816a22.204 22.204 0 0 0-13.418 13.414l-6.826 18.957c-6.031 16.797-22.084 28.101-39.941 28.101l-23.213-1.036a22.246 22.246 0 0 0-16.438 7.28l-13.556 14.903c-8.019 8.827-19.47 13.897-31.42 13.897zM505 742.744c6.209 0 12.457 1.39 18.08 4.034l18.241 8.6c8.67 4.095 19.53 1.905 25.946-5.157l13.557-14.913a42.485 42.485 0 0 1 31.385-13.888l23.213 1.035c9.355 0 17.77-5.928 20.93-14.735l6.83-18.957a42.322 42.322 0 0 1 25.586-25.585l18.942-6.817c9.272-3.333 15.18-12.17 14.716-22.003l-.956-20.112c-.607-12.694 4.433-24.876 13.843-33.427l14.898-13.552c7.29-6.618 9.36-17.044 5.164-25.95l-8.592-18.217c-5.4-11.511-5.4-24.689-.004-36.18l8.596-18.246c4.196-8.897 2.125-19.322-5.16-25.941l-14.907-13.552c-9.405-8.551-14.445-20.733-13.838-33.427l.956-20.121c.464-9.823-5.445-18.661-14.705-21.985l-18.958-6.835c-11.96-4.29-21.29-13.621-25.585-25.585l-6.82-18.948c-3.166-8.818-11.58-14.736-20.936-14.736l-23.189 1.036a42.56 42.56 0 0 1-31.414-13.887l-13.547-14.904c-6.421-7.072-17.28-9.262-25.95-5.168l-18.228 8.59c-11.274 5.307-24.929 5.297-36.173.01l-18.242-8.6c-8.67-4.094-19.54-1.904-25.945 5.158l-13.558 14.914a42.542 42.542 0 0 1-31.41 13.887l-23.188-1.036c-9.355 0-17.768 5.918-20.935 14.726l-6.825 18.967c-4.295 11.955-13.622 21.285-25.59 25.585l-18.948 6.816c-9.266 3.334-15.17 12.172-14.706 22.005l.957 20.111c.597 12.704-4.449 24.885-13.843 33.427l-14.899 13.552c-7.294 6.619-9.365 17.044-5.168 25.94l8.596 18.228c5.4 11.51 5.4 24.688.005 36.178l-8.596 18.247c-4.202 8.897-2.13 19.322 5.158 25.94l14.909 13.553c9.39 8.542 14.435 20.723 13.838 33.417l-.957 20.131c-.463 9.824 5.44 18.661 14.697 21.985l18.966 6.836c11.955 4.29 21.28 13.61 25.58 25.585l6.826 18.937c3.167 8.827 11.58 14.745 20.935 14.745l23.213-1.035a42.505 42.505 0 0 1 31.39 13.888l13.548 14.903c6.42 7.072 17.28 9.262 25.95 5.168l18.227-8.59A42.72 42.72 0 0 1 505 742.743z"/><g><path fill="#FFF" d="M631.25 504.201C631.25 580 574.724 641.43 505 641.43S378.75 580 378.75 504.2c0-75.78 56.526-137.208 126.25-137.208s126.25 61.428 126.25 137.208z"/><path fill="#454545" d="M505 651.53c-75.183 0-136.35-66.094-136.35-147.329 0-81.224 61.167-147.308 136.35-147.308S641.35 422.977 641.35 504.2c0 81.235-61.167 147.328-136.35 147.328zm0-274.437c-64.047 0-116.15 57.02-116.15 127.108 0 70.098 52.103 127.128 116.15 127.128s116.15-57.03 116.15-127.128c0-70.089-52.103-127.108-116.15-127.108z"/><g><path fill="#454545" d="M614.492 653.107c-2.584 0-5.168-.986-7.14-2.959l-80.228-80.208a10.095 10.095 0 0 1 0-14.282 10.096 10.096 0 0 1 14.281 0l80.228 80.208a10.097 10.097 0 0 1 0 14.282 10.066 10.066 0 0 1-7.14 2.96z"/></g></g></g></g><metadata><rdf:RDF xmlns:rdf="http://www.w3.org/1999/02/22-rdf-syntax-ns#" xmlns:rdfs="http://www.w3.org/2000/01/rdf-schema#" xmlns:dc="http://purl.org/dc/elements/1.1/"><rdf:Description about="https://iconscout.com/legal#licenses" dc:title="quality,badge" dc:description="quality,badge" dc:publisher="Iconscout" dc:date="2017-09-22" dc:format="image/svg+xml" dc:language="en"><dc:creator><rdf:Bag><rdf:li>EcommDesign</rdf:li></rdf:Bag></dc:creator></rdf:Description></rdf:RDF></metadata></svg>