<?xml version="1.0" encoding="UTF-8"?><!DOCTYPE svg PUBLIC "-//W3C//DTD SVG 1.1//EN" "http://www.w3.org/Graphics/SVG/1.1/DTD/svg11.dtd"><svg xmlns="http://www.w3.org/2000/svg" xmlns:xlink="http://www.w3.org/1999/xlink" version="1.1" id="receipt" x="0px" y="0px" viewBox="0 0 1010 1010" xml:space="preserve"><g id="receipt-receipt"><circle id="receipt-label" fill="#ACAF48" cx="505" cy="505" r="505"/><g id="receipt-receipt_1_"><path fill="#3BAFDA" d="M348.628 330.656l-.365-.098H236.758l1.144-11.126c4.064-39.443 31.09-81.895 80.85-81.895h42.136v95.092l-12.26-1.973z"/><path fill="#FFF" d="M458.662 772.473c-52.65 0-97.774-54.998-97.774-100.024V237.537h232.576c31.602 0 69.772 25.93 69.772 58.145v371.155c.08.335.139.661.198.996l1.746 11.608H563.332c0 46.082-52.828 93.032-104.67 93.032z"/><path fill="#FC6E51" d="M488.805 772.473l28.06-18.534c25.34-16.728 42.482-41.317 45.865-65.778l1.203-8.72h209.31l-1.145 11.137c-4.054 39.442-31.08 81.895-80.83 81.895H488.805z"/><g><path fill="#454545" d="M691.268 782.572H458.662c-5.582 0-10.1-4.517-10.1-10.1 0-5.582 4.518-10.1 10.1-10.1 45.963 0 94.57-42.629 94.57-82.93 0-5.583 4.517-10.1 10.1-10.1H772.67c5.582 0 10.1 4.517 10.1 10.1 0 49.997-32.066 103.13-91.502 103.13zm-168.84-20.2h168.84c42.442 0 66.982-35.882 70.779-72.83H572.73c-3.906 28.259-23.711 55.273-50.302 72.83z"/><path fill="#454545" d="M349.259 340.658H237.33c-5.582 0-10.1-4.517-10.1-10.1 0-49.987 32.076-103.12 91.522-103.12h274.712c5.583 0 10.1 4.517 10.1 10.1 0 5.582-4.517 10.1-10.1 10.1H318.752c-42.452 0-66.992 35.882-70.799 72.82H349.26c5.583 0 10.1 4.518 10.1 10.1 0 5.583-4.517 10.1-10.1 10.1z"/><path fill="#454545" d="M458.662 782.572c-59.751 0-107.874-60.245-107.874-110.123V237.537c0-5.582 4.517-10.1 10.1-10.1s10.1 4.518 10.1 10.1V672.45c0 39.64 41.278 89.923 87.674 89.923 5.583 0 10.1 4.518 10.1 10.1 0 5.583-4.517 10.1-10.1 10.1z"/><path fill="#454545" d="M663.236 677.913c-5.582 0-10.1-4.518-10.1-10.1V295.682c0-5.583 4.518-10.1 10.1-10.1 5.583 0 10.1 4.517 10.1 10.1v372.13c0 5.583-4.517 10.101-10.1 10.101z"/><path fill="#454545" d="M663.236 305.781c-5.582 0-10.1-4.517-10.1-10.1 0-25.87-32.815-48.044-59.672-48.044-5.583 0-10.1-4.517-10.1-10.1 0-5.582 4.517-10.1 10.1-10.1 36.938 0 79.873 29.807 79.873 68.245 0 5.582-4.518 10.1-10.1 10.1z"/></g><g><path fill="#454545" d="M624.691 562.592h-47.097v-20.2h47.097v20.2z"/><path fill="#454545" d="M624.691 619.138h-47.097v-20.2h47.097v20.2z"/><path fill="#454545" d="M486.339 336.328h-87.695v-20.2h87.695v20.2z"/><path fill="#454545" d="M624.691 392.894h-47.097v-20.2h47.097v20.2z"/><path fill="#454545" d="M624.691 449.45h-47.097v-20.2h47.097v20.2z"/><path fill="#454545" d="M624.691 506.016h-47.097v-20.2h47.097v20.2z"/><path fill="#454545" d="M530.507 392.894H398.645v-20.2h131.862v20.2z"/><path fill="#454545" d="M530.507 449.45H398.645v-20.2h131.862v20.2z"/><path fill="#454545" d="M530.507 506.016H398.645v-20.2h131.862v20.2z"/><path fill="#454545" d="M530.507 562.592H398.645v-20.2h131.862v20.2z"/><path fill="#454545" d="M530.507 619.138H398.645v-20.2h131.862v20.2z"/></g></g></g><metadata><rdf:RDF xmlns:rdf="http://www.w3.org/1999/02/22-rdf-syntax-ns#" xmlns:rdfs="http://www.w3.org/2000/01/rdf-schema#" xmlns:dc="http://purl.org/dc/elements/1.1/"><rdf:Description about="https://iconscout.com/legal#licenses" dc:title="receipt" dc:description="receipt" dc:publisher="Iconscout" dc:date="2017-09-22" dc:format="image/svg+xml" dc:language="en"><dc:creator><rdf:Bag><rdf:li>EcommDesign</rdf:li></rdf:Bag></dc:creator></rdf:Description></rdf:RDF></metadata></svg>