<?xml version="1.0" encoding="UTF-8"?><!DOCTYPE svg PUBLIC "-//W3C//DTD SVG 1.1//EN" "http://www.w3.org/Graphics/SVG/1.1/DTD/svg11.dtd"><svg xmlns="http://www.w3.org/2000/svg" xmlns:xlink="http://www.w3.org/1999/xlink" version="1.1" id="screen-cart" x="0px" y="0px" viewBox="0 0 1010 1010" xml:space="preserve"><g id="screen-cart-screen-cart"><circle id="screen-cart-label" fill="#FFB933" cx="505" cy="505" r="505"/><g id="screen-cart-screen-cart_1_"><g id="screen-cart-screen"><path fill="#FFF" d="M787.8 578.146v58.498c0 10.782-8.729 19.51-19.509 19.51H241.71c-10.78 0-19.51-8.728-19.51-19.51v-58.498"/><path fill="#454545" d="M768.291 666.255H241.71c-16.33 0-29.61-13.286-29.61-29.61v-58.498c0-5.584 4.522-10.101 10.1-10.101 5.578 0 10.1 4.517 10.1 10.1v58.498c0 5.189 4.222 9.41 9.41 9.41h526.581c5.188 0 9.41-4.221 9.41-9.41v-58.498c0-5.583 4.522-10.1 10.099-10.1 5.578 0 10.1 4.517 10.1 10.1v58.498c0 16.325-13.28 29.61-29.609 29.61z"/><path fill="#3BAFDA" d="M222.2 578.146v-282.8c0-10.78 8.73-19.51 19.51-19.51h526.581c10.78 0 19.509 8.73 19.509 19.51v282.8"/><path fill="#454545" d="M787.8 588.246c-5.577 0-10.1-4.518-10.1-10.1v-282.8c0-5.188-4.222-9.41-9.409-9.41H241.71c-5.188 0-9.41 4.222-9.41 9.41v282.8c0 5.583-4.522 10.1-10.1 10.1-5.578 0-10.1-4.517-10.1-10.1v-282.8c0-16.323 13.28-29.61 29.61-29.61h526.581c16.328 0 29.61 13.287 29.61 29.61v282.8c0 5.583-4.523 10.1-10.101 10.1z"/><path fill="#FFF" d="M436.736 656.154h136.528v78.02H436.736z"/><path fill="#454545" d="M573.264 744.273H436.736c-5.577 0-10.1-4.517-10.1-10.1v-78.019c0-5.582 4.523-10.1 10.1-10.1h136.528c5.578 0 10.1 4.518 10.1 10.1v78.02c0 5.582-4.522 10.1-10.1 10.1zm-126.428-20.2h116.328v-57.818H446.836v57.818z"/><g><path fill="#454545" d="M787.8 588.246H222.2c-5.578 0-10.1-4.518-10.1-10.1 0-5.583 4.522-10.1 10.1-10.1h565.6c5.578 0 10.1 4.517 10.1 10.1 0 5.583-4.522 10.1-10.1 10.1z"/></g><g><path fill="#454545" d="M612.283 744.273H397.717c-5.577 0-10.1-4.517-10.1-10.1 0-5.582 4.523-10.1 10.1-10.1h214.566c5.577 0 10.1 4.518 10.1 10.1 0 5.583-4.523 10.1-10.1 10.1z"/></g><path fill="#454545" d="M514.755 614.709c0 5.386-4.38 9.755-9.755 9.755-5.385 0-9.755-4.37-9.755-9.755 0-5.385 4.37-9.755 9.755-9.755 5.375 0 9.755 4.37 9.755 9.755z"/></g><g id="screen-cart-cart"><path fill="#FFF" d="M426.212 346.517h187.333l-24.43 97.745H426.211"/><path fill="#454545" d="M597 454.361H416.112v-20.199H581.23l19.38-77.545H416.112v-20.2h210.37L597 454.361z"/><path fill="#454545" d="M599.214 486.94H416.112V324.038h-32.588v-20.2h52.788V466.74h162.902v20.2z"/><path fill="#454545" d="M442.497 501.272c13.502 0 24.44 10.948 24.44 24.44 0 13.504-10.938 24.433-24.44 24.433-13.494 0-24.432-10.93-24.432-24.432 0-13.493 10.938-24.441 24.432-24.441z"/><path fill="#454545" d="M572.82 501.272c13.502 0 24.442 10.948 24.442 24.44 0 13.504-10.94 24.433-24.442 24.433-13.493 0-24.431-10.93-24.431-24.432 0-13.493 10.938-24.441 24.431-24.441z"/><path fill="#454545" d="M599.629 423.628H420.462v-20.2h179.167v20.2z"/><g><path fill="#454545" d="M604.313 389.955H419.14v-20.2h185.173v20.2z"/></g></g></g></g><metadata><rdf:RDF xmlns:rdf="http://www.w3.org/1999/02/22-rdf-syntax-ns#" xmlns:rdfs="http://www.w3.org/2000/01/rdf-schema#" xmlns:dc="http://purl.org/dc/elements/1.1/"><rdf:Description about="https://iconscout.com/legal#licenses" dc:title="screen,cart" dc:description="screen,cart" dc:publisher="Iconscout" dc:date="2017-09-22" dc:format="image/svg+xml" dc:language="en"><dc:creator><rdf:Bag><rdf:li>EcommDesign</rdf:li></rdf:Bag></dc:creator></rdf:Description></rdf:RDF></metadata></svg>