<?xml version="1.0" encoding="UTF-8"?><!DOCTYPE svg PUBLIC "-//W3C//DTD SVG 1.1//EN" "http://www.w3.org/Graphics/SVG/1.1/DTD/svg11.dtd"><svg xmlns="http://www.w3.org/2000/svg" xmlns:xlink="http://www.w3.org/1999/xlink" version="1.1" id="secure-creditcard" x="0px" y="0px" viewBox="0 0 1010 1010" xml:space="preserve"><g id="secure-creditcard-secure-creditcard"><path id="secure-creditcard-label" fill="#FC6E51" d="M1010 505c0 278.904-226.096 505-505 505S0 783.904 0 505C0 226.086 226.096 0 505 0s505 226.086 505 505z"/><g id="secure-creditcard-secure-creditcard_1_"><path fill="#FFF" d="M294.774 441.342V315.526c0-22.35 18.464-40.617 40.972-40.617h395.951c22.548 0 40.953 18.267 40.953 40.617v270.708c0 22.389-18.405 40.637-40.953 40.637H517.39"/><path fill="#3BAFDA" d="M294.774 332.51h473.734v58.55H294.774z"/><path fill="#454545" d="M731.697 636.97H517.39v-20.2h214.308c17.015 0 30.853-13.7 30.853-30.536V315.526c0-16.827-13.838-30.517-30.853-30.517h-395.95c-17.025 0-30.873 13.69-30.873 30.517v125.816h-20.2V315.526c0-27.962 22.912-50.716 51.072-50.716h395.951c28.15 0 51.053 22.754 51.053 50.716v270.708c0 27.972-22.902 50.737-51.053 50.737z"/><path fill="#454545" d="M772.729 347.01H298.936v-20.2H772.73v20.2z"/><path fill="#454545" d="M772.729 401.16H298.936v-20.201H772.73v20.2z"/><path fill="#454545" d="M732.664 504.96H562.898v-20.2h169.766v20.2z"/><path fill="#454545" d="M601.404 559.13h-72.18v-20.2h72.18v20.2z"/><path fill="#454545" d="M732.664 559.13H617.816v-20.2h114.848v20.2z"/><g><path fill="#ACAF48" d="M499.575 562.148c-20.022-48.035 22.035-73.442 22.035-73.442l-47.896-47.384H285.266l-47.916 47.384s42.057 25.407 22.035 73.442c0 0-9.923 22.961-15.505 46.14-4.735 19.647-2.565 40.598 7.16 58.352 6.47 11.776 16.492 22.744 31.78 24.835 4.734.67 9.449 1.795 13.966 3.472 21.581 7.831 76.914 28.9 82.694 40.144 5.78-11.244 61.093-32.313 82.694-40.144 4.517-1.676 9.212-2.801 13.986-3.472 15.248-2.091 25.29-13.059 31.76-24.835 9.745-17.754 11.894-38.705 7.14-58.352-5.562-23.179-15.485-46.14-15.485-46.14z"/><path fill="#454545" d="M379.381 745.349c-3.689 0-6.993-2.17-8.758-5.406-4.044-5.177-31.77-18.986-77.28-35.498-3.708-1.38-7.702-2.367-11.944-2.968-16.067-2.2-29.648-12.567-39.206-29.975-10.721-19.568-13.612-42.855-8.137-65.581 5.72-23.751 15.643-46.812 16.057-47.777 16.432-39.434-16.57-59.94-17.99-60.798a10.092 10.092 0 0 1-1.874-15.82l47.915-47.383a10.077 10.077 0 0 1 7.102-2.92h188.448c2.663 0 5.208 1.045 7.101 2.92l47.896 47.382a10.09 10.09 0 0 1 2.93 8.374 10.088 10.088 0 0 1-4.804 7.447c-1.37.848-34.265 21.749-17.941 60.916.375.847 10.288 23.918 15.989 47.669 5.494 22.725 2.613 46.022-8.108 65.571-9.567 17.408-23.14 27.775-39.246 29.984-4.192.582-8.187 1.578-11.846 2.93-45.815 16.61-73.6 30.487-77.417 35.616-1.726 3.363-5.1 5.317-8.887 5.317zm-126.733-257.57c15.564 14.489 31.168 42.007 16.057 78.255-.148.345-9.705 22.597-15.002 44.621-4.3 17.833-2.1 35.992 6.194 51.132 6.451 11.736 14.617 18.356 24.294 19.677 5.71.818 11.115 2.16 16.107 4.014 48.083 17.448 69.407 28.604 79.26 35.676 9.973-7.122 31.425-18.395 79.173-35.705 4.942-1.835 10.357-3.177 16.028-3.975 9.686-1.331 17.853-7.96 24.313-19.697 8.295-15.12 10.484-33.27 6.174-51.112-5.286-22.034-14.844-44.286-14.943-44.513-15.15-36.345.455-63.884 16.009-78.374l-36.75-36.355H289.417l-36.77 36.355z"/><g><path fill="#FFB933" d="M447.655 582.299c0 37.647-30.517 68.175-68.175 68.175s-68.175-30.528-68.175-68.175c0-37.649 30.517-68.176 68.175-68.176s68.175 30.527 68.175 68.176z"/><path fill="#454545" d="M368.562 625.125c-2.94 0-5.741-1.282-7.674-3.531l-21.818-25.457c-3.63-4.232-3.136-10.614 1.105-14.242 4.231-3.61 10.603-3.147 14.242 1.104l13.138 15.327 36.257-54.356c3.088-4.646 9.36-5.899 14.006-2.802 4.646 3.098 5.899 9.371 2.802 14.006l-43.655 65.453a10.08 10.08 0 0 1-7.792 4.479c-.207.01-.414.019-.611.019z"/></g></g></g></g><metadata><rdf:RDF xmlns:rdf="http://www.w3.org/1999/02/22-rdf-syntax-ns#" xmlns:rdfs="http://www.w3.org/2000/01/rdf-schema#" xmlns:dc="http://purl.org/dc/elements/1.1/"><rdf:Description about="https://iconscout.com/legal#licenses" dc:title="secure,creditcard" dc:description="secure,creditcard" dc:publisher="Iconscout" dc:date="2017-09-22" dc:format="image/svg+xml" dc:language="en"><dc:creator><rdf:Bag><rdf:li>EcommDesign</rdf:li></rdf:Bag></dc:creator></rdf:Description></rdf:RDF></metadata></svg>