<?xml version="1.0" encoding="UTF-8"?><!DOCTYPE svg PUBLIC "-//W3C//DTD SVG 1.1//EN" "http://www.w3.org/Graphics/SVG/1.1/DTD/svg11.dtd"><svg xmlns="http://www.w3.org/2000/svg" xmlns:xlink="http://www.w3.org/1999/xlink" version="1.1" id="sign-open" x="0px" y="0px" viewBox="0 0 1010 1010" xml:space="preserve"><g id="sign-open-sign-open"><circle id="sign-open-label" fill="#FC6E51" cx="505" cy="505" r="505"/><g id="sign-open-sign-open_1_"><path fill="#454545" d="M339.47 465.96c-2.338 0-4.686-.808-6.594-2.455-4.222-3.64-4.69-10.03-1.05-14.252l139.15-161.265c3.64-4.221 10.022-4.685 14.248-1.046 4.222 3.64 4.69 10.022 1.05 14.243L347.124 462.45a10.08 10.08 0 0 1-7.654 3.512z"/><path fill="#454545" d="M670.53 465.96a10.079 10.079 0 0 1-7.653-3.51L523.726 301.184c-3.64-4.221-3.171-10.603 1.05-14.243 4.216-3.649 10.598-3.175 14.247 1.046l139.152 161.265c3.64 4.222 3.17 10.612-1.051 14.252a10.058 10.058 0 0 1-6.594 2.456z"/><path fill="#FFB933" d="M773.213 678.574c0 24.875-20.615 45.233-45.865 45.233H283.796c-25.23 0-45.884-20.358-45.884-45.233V501.351c0-24.896 20.654-45.253 45.884-45.253h443.552c25.25 0 45.865 20.357 45.865 45.253v177.223z"/><path fill="#454545" d="M727.348 733.907H283.796c-30.872 0-55.983-24.816-55.983-55.333V501.351c0-30.517 25.111-55.353 55.983-55.353h443.552c30.857 0 55.965 24.836 55.965 55.353v177.223c0 30.517-25.108 55.333-55.965 55.333zm-443.552-267.71c-19.731 0-35.784 15.762-35.784 35.154v177.223c0 19.371 16.052 35.133 35.784 35.133h443.552c19.721 0 35.764-15.762 35.764-35.133V501.351c0-19.392-16.043-35.154-35.764-35.154H283.796z"/><g fill="#454545"><path d="M404.36 592.37c0 28.286-22.971 50.213-52.6 50.213-29.635 0-52.602-21.927-52.602-50.214 0-28.446 22.967-49.948 52.601-49.948 29.63 0 52.601 21.65 52.601 49.948zm-88.187 0c0 19.656 16.304 35.22 35.725 35.22 19.425 0 35.305-15.564 35.305-35.22 0-19.669-15.88-34.946-35.305-34.946-19.565 0-35.725 15.277-35.725 34.945z"/><path d="M463.229 542.856c24.95 0 39.271 12.308 39.271 33.81 0 22.35-14.322 35.36-39.271 35.36H440.4v29.857h-16.728v-99.027h39.557zM440.4 597.034h22.124c15.303 0 23.953-6.51 23.953-19.953 0-13.01-8.65-19.233-23.953-19.233H440.4v39.186z"/><path d="M537.253 557.848v26.739h48.493v14.992h-48.493v27.302h55.866v15.002h-72.594v-99.028h70.892v14.993h-54.164z"/><path d="M684.59 641.883l-52.886-71.016v71.016h-16.738v-99.028h16.452l53.173 71.154v-71.154h16.442v99.028h-16.442z"/></g><path fill="#454545" d="M298.512 509.152h-20.2v-20.2h20.2v20.2z"/><path fill="#454545" d="M298.512 690.952h-20.2v-20.2h20.2v20.2z"/><path fill="#454545" d="M732.813 509.152h-20.2v-20.2h20.2v20.2z"/><path fill="#454545" d="M732.813 690.952h-20.2v-20.2h20.2v20.2z"/><g><path fill="#FFF" d="M536.7 277.474c0 17.497-14.202 31.68-31.69 31.68-17.497 0-31.69-14.183-31.69-31.68 0-17.478 14.193-31.681 31.69-31.681 17.488 0 31.69 14.203 31.69 31.68z"/><path fill="#454545" d="M505.01 319.255c-23.046 0-41.79-18.74-41.79-41.781 0-23.04 18.744-41.781 41.79-41.781s41.79 18.74 41.79 41.78c0 23.042-18.744 41.782-41.79 41.782zm0-63.362c-11.905 0-21.591 9.686-21.591 21.58 0 11.906 9.686 21.582 21.59 21.582 11.906 0 21.592-9.676 21.592-21.581 0-11.895-9.686-21.581-21.591-21.581z"/></g></g></g><metadata><rdf:RDF xmlns:rdf="http://www.w3.org/1999/02/22-rdf-syntax-ns#" xmlns:rdfs="http://www.w3.org/2000/01/rdf-schema#" xmlns:dc="http://purl.org/dc/elements/1.1/"><rdf:Description about="https://iconscout.com/legal#licenses" dc:title="sign,open" dc:description="sign,open" dc:publisher="Iconscout" dc:date="2017-09-22" dc:format="image/svg+xml" dc:language="en"><dc:creator><rdf:Bag><rdf:li>EcommDesign</rdf:li></rdf:Bag></dc:creator></rdf:Description></rdf:RDF></metadata></svg>