<?xml version="1.0" encoding="UTF-8"?><!DOCTYPE svg PUBLIC "-//W3C//DTD SVG 1.1//EN" "http://www.w3.org/Graphics/SVG/1.1/DTD/svg11.dtd"><svg xmlns="http://www.w3.org/2000/svg" xmlns:xlink="http://www.w3.org/1999/xlink" version="1.1" id="telephone-support" x="0px" y="0px" viewBox="0 0 1010 1010" xml:space="preserve"><g id="telephone-support-telephone-support"><circle id="telephone-support-label" fill="#ACAF48" cx="505" cy="505" r="505"/><g id="telephone-support-telephone-support_1_"><path fill="#454545" d="M230.392 747.4c-.962 0-1.939-.138-2.905-.424-5.346-1.608-8.38-7.23-6.776-12.576l20.614-68.757c1.677-5.622 6.746-9.42 12.615-9.429h.044c5.86 0 10.944 3.768 12.655 9.39l10.963 36.533 10.948-36.494c1.677-5.621 6.752-9.42 12.625-9.429h.045c5.863 0 10.953 3.768 12.664 9.39l10.953 36.544 10.939-36.505c1.73-5.671 6.81-9.429 12.684-9.429h.123c5.898.05 10.943 3.896 12.56 9.567l10.924 36.367 10.954-36.505c1.681-5.631 6.77-9.439 12.664-9.439 5.893 0 10.983 3.808 12.67 9.46l10.952 36.503 10.959-36.524c1.627-5.572 6.687-9.4 12.57-9.429h.08c5.868 0 10.953 3.758 12.664 9.39l7.136 23.76c6.781 22.627 27.223 37.837 50.865 37.837 20.284 0 45.716-5.357 51.674-30.843 1.267-5.435 6.721-8.769 12.132-7.535 5.43 1.271 8.807 6.697 7.535 12.13-6.998 29.956-32.332 46.448-71.341 46.448-32.638 0-60.857-20.99-70.217-52.236l-.433-1.441-10.949 36.494c-1.676 5.642-6.771 9.44-12.675 9.44-5.902 0-10.997-3.798-12.678-9.46l-10.944-36.474-10.948 36.494c-1.677 5.642-6.766 9.44-12.664 9.44-5.899 0-10.988-3.798-12.67-9.46l-10.953-36.474-10.938 36.494c-1.677 5.642-6.772 9.44-12.675 9.44s-10.997-3.798-12.679-9.46l-10.938-36.493-10.954 36.513c-1.676 5.642-6.766 9.44-12.664 9.44s-10.988-3.798-12.67-9.46l-10.938-36.463-13.932 46.465c-1.311 4.38-5.326 7.2-9.67 7.2z"/><path fill="#FFF" d="M606.828 680.586l36.1-36.08c14.4-14.42 12.922-38.19-3.136-50.678l-56.517-43.99c-12.31-9.587-29.55-9.527-41.8.148l-12.546 9.922c-13.494 10.643-32.826 9.519-44.977-2.603L382.873 456.196c-12.151-12.151-13.276-31.464-2.624-44.937l9.903-12.575c9.686-12.24 9.765-29.482.178-41.771l-44.01-56.517c-12.467-16.097-36.238-17.557-50.638-3.176l-36.12 36.1c-24.855 24.885-24.756 94.648 113.94 233.326 138.718 138.716 210.443 136.833 233.326 113.94z"/><path fill="#454545" d="M573.24 702.394h-.01c-35.706-.01-100.582-22.32-206.868-128.608C203.223 410.677 232.33 346.29 252.416 326.18l36.124-36.1c8.31-8.295 19.337-12.862 31.065-12.862 13.685 0 26.335 6.194 34.699 16.995l43.995 56.496c12.477 15.999 12.389 38.3-.227 54.239l-9.887 12.566c-7.487 9.459-6.693 23.02 1.829 31.543l101.079 101.108c8.295 8.266 22.335 9.104 31.582 1.814l12.536-9.912c15.387-12.162 38.812-12.24 54.268-.197l56.517 43.99a43.961 43.961 0 0 1 16.865 31.928 44.035 44.035 0 0 1-12.787 33.86l-36.104 36.08c-6.688 6.687-19.179 14.667-40.73 14.667zM319.604 297.417c-6.337 0-12.294 2.466-16.788 6.954l-36.114 36.09c-24.229 24.264-8.931 96.186 113.94 219.043 106.746 106.741 166.483 122.69 192.591 122.69h.005c14.632 0 22.46-4.754 26.449-8.749l36.1-36.08a23.834 23.834 0 0 0 6.913-18.316 23.777 23.777 0 0 0-9.108-17.251l-56.522-43.99c-8.423-6.559-20.955-6.5-29.339.108l-12.54 9.913c-7.743 6.115-17.429 9.469-27.282 9.469-11.747 0-22.79-4.557-31.09-12.842L375.733 463.338c-15.772-15.772-17.236-40.855-3.408-58.342l9.893-12.566c6.83-8.63 6.885-20.673.148-29.303L338.35 306.6c-4.527-5.849-11.358-9.183-18.745-9.183z"/><g><path fill="#FFB933" d="M779.613 294.557v144.26c0 11.906-9.962 21.847-21.877 21.847H631.014l-43.715 48.084v-48.084h-39.334c-11.896 0-21.877-9.941-21.877-21.847v-144.26c0-11.895 9.981-21.857 21.877-21.857h209.771c11.915 0 21.877 9.962 21.877 21.857z"/><path fill="#454545" d="M587.299 517.842c-1.1 0-2.21-.207-3.28-.611a9.1 9.1 0 0 1-5.809-8.483v-38.99h-30.245c-16.788 0-30.966-14.173-30.966-30.94V294.556c0-16.778 14.178-30.951 30.966-30.951h209.771c17.075 0 30.967 13.887 30.967 30.95v144.261c0 17.064-13.892 30.94-30.967 30.94H635.033l-41.007 45.106a9.09 9.09 0 0 1-6.727 2.979zm-39.334-236.048c-6.93 0-12.788 5.839-12.788 12.763v144.26c0 6.914 5.859 12.753 12.788 12.753h39.334c5.021 0 9.09 4.075 9.09 9.094v24.57l27.898-30.685a9.099 9.099 0 0 1 6.727-2.979h126.722c6.93 0 12.788-5.839 12.788-12.753v-144.26c0-6.924-5.858-12.763-12.788-12.763H547.965z"/><g fill="#454545"><path d="M613.294 345.925c0 7.575-5.548 15.545-13.222 23.415l-15.648 16.353h31.297v13.326h-51.99V388.12l25.54-27.055c4.34-4.448 7.369-9.39 7.369-12.822 0-4.439-3.433-7.072-9.287-7.072-5.853 0-13.024 3.432-19.282 8.896l-6.155-11.915c8.581-6.568 17.966-10.494 27.76-10.494 13.829 0 23.618 7.16 23.618 18.267z"/><path d="M657.037 370.15v-15.545h14.84v15.544h9.794v12.921h-9.794v15.949h-14.84V383.07h-33.613v-11.303l22.917-43.409h15.343l-21.606 41.791h16.96z"/><path d="M746.71 364.902v34.117h-15.545v-29.58c0-6.865-4.039-11.106-10.702-11.106-7.772.108-12.516 5.957-12.516 13.937v26.749h-15.545v-74.902h15.545V354.3c3.836-6.756 10.297-10.09 18.775-10.189 12.216 0 19.988 8.068 19.988 20.792z"/></g></g></g></g><metadata><rdf:RDF xmlns:rdf="http://www.w3.org/1999/02/22-rdf-syntax-ns#" xmlns:rdfs="http://www.w3.org/2000/01/rdf-schema#" xmlns:dc="http://purl.org/dc/elements/1.1/"><rdf:Description about="https://iconscout.com/legal#licenses" dc:title="telephone,support" dc:description="telephone,support" dc:publisher="Iconscout" dc:date="2017-09-22" dc:format="image/svg+xml" dc:language="en"><dc:creator><rdf:Bag><rdf:li>EcommDesign</rdf:li></rdf:Bag></dc:creator></rdf:Description></rdf:RDF></metadata></svg>