<?xml version="1.0" encoding="UTF-8"?><!DOCTYPE svg PUBLIC "-//W3C//DTD SVG 1.1//EN" "http://www.w3.org/Graphics/SVG/1.1/DTD/svg11.dtd"><svg xmlns="http://www.w3.org/2000/svg" xmlns:xlink="http://www.w3.org/1999/xlink" version="1.1" id="wallet" x="0px" y="0px" viewBox="0 0 1010 1010" xml:space="preserve"><g id="wallet-wallet"><path id="wallet-label" fill="#3BAFDA" d="M1010 505c0 278.904-226.106 505-505 505C226.086 1010 0 783.904 0 505S226.086 0 505 0c278.894 0 505 226.096 505 505z"/><g id="wallet-wallet_1_"><path fill="#FFB933" d="M757.5 595.9h-101c-11.165 0-20.2-9.044-20.2-20.2v-60.6c0-11.156 9.035-20.2 20.2-20.2h101c11.146 0 20.2 9.044 20.2 20.2v60.6c0 11.155-9.055 20.2-20.2 20.2z"/><path fill="#454545" d="M757.5 606h-101c-16.708 0-30.3-13.592-30.3-30.3v-60.6c0-16.708 13.592-30.3 30.3-30.3h101c16.709 0 30.3 13.592 30.3 30.3v60.6c0 16.708-13.591 30.3-30.3 30.3zm-101-101c-5.567 0-10.1 4.537-10.1 10.1v60.6c0 5.563 4.533 10.1 10.1 10.1h101c5.568 0 10.1-4.537 10.1-10.1v-60.6c0-5.563-4.532-10.1-10.1-10.1h-101z"/><path fill="#454545" d="M686.8 565.6c-11.14 0-20.2-9.055-20.2-20.2 0-11.146 9.06-20.2 20.2-20.2 11.14 0 20.2 9.054 20.2 20.2 0 11.145-9.06 20.2-20.2 20.2z"/><path fill="#ACAF48" d="M656.5 595.9c-11.165 0-20.2-9.044-20.2-20.2v-60.6c0-11.156 9.035-20.2 20.2-20.2h101V373.7c0-22.31-18.089-40.4-40.4-40.4H272.7c-22.31 0-40.4-18.09-40.4-40.4v424.2c0 22.31 18.09 40.4 40.4 40.4h444.4c22.311 0 40.4-18.09 40.4-40.4V595.9h-101z"/><path fill="#454545" d="M717.1 767.6H272.7c-27.844 0-50.5-22.657-50.5-50.5V292.9c0-5.583 4.523-10.1 10.1-10.1 5.578 0 10.1 4.517 10.1 10.1 0 16.708 13.592 30.3 30.3 30.3h444.4c27.844 0 50.5 22.656 50.5 50.5v121.2c0 5.582-4.522 10.1-10.1 10.1h-101c-5.567 0-10.1 4.537-10.1 10.1v60.6c0 5.563 4.533 10.1 10.1 10.1h101c5.578 0 10.1 4.517 10.1 10.1v121.2c0 27.843-22.656 50.5-50.5 50.5zM242.4 333.28V717.1c0 16.709 13.592 30.3 30.3 30.3h444.4c16.709 0 30.3-13.591 30.3-30.3V606h-90.9c-16.708 0-30.3-13.592-30.3-30.3v-60.6c0-16.708 13.592-30.3 30.3-30.3h90.9V373.7c0-16.709-13.591-30.3-30.3-30.3H272.7a50.259 50.259 0 0 1-30.3-10.12z"/><path fill="none" d="M717.1 454.5"/><path fill="#454545" d="M717.1 424.2c-5.558 0-10.1-4.547-10.1-10.1 0-5.563 4.542-10.1 10.1-10.1 5.553 0 10.1 4.537 10.1 10.1 0 5.553-4.547 10.1-10.1 10.1z"/><path fill="none" d="M717.1 373.7"/><path fill="#454545" d="M676.7 383.8c-5.557 0-10.1-4.547-10.1-10.1 0-5.563 4.543-10.1 10.1-10.1 5.553 0 10.1 4.537 10.1 10.1 0 5.553-4.547 10.1-10.1 10.1zm-40.4 0c-5.558 0-10.1-4.547-10.1-10.1 0-5.563 4.542-10.1 10.1-10.1 5.554 0 10.1 4.537 10.1 10.1 0 5.553-4.546 10.1-10.1 10.1zm-40.4 0c-5.558 0-10.1-4.547-10.1-10.1 0-5.563 4.542-10.1 10.1-10.1 5.553 0 10.1 4.537 10.1 10.1 0 5.553-4.547 10.1-10.1 10.1zm-40.4 0c-5.558 0-10.1-4.547-10.1-10.1 0-5.563 4.542-10.1 10.1-10.1 5.553 0 10.1 4.537 10.1 10.1 0 5.553-4.547 10.1-10.1 10.1zm-40.4 0c-5.558 0-10.1-4.547-10.1-10.1 0-5.563 4.542-10.1 10.1-10.1 5.553 0 10.1 4.537 10.1 10.1 0 5.553-4.547 10.1-10.1 10.1zm-40.4 0c-5.558 0-10.1-4.547-10.1-10.1 0-5.563 4.542-10.1 10.1-10.1 5.553 0 10.1 4.537 10.1 10.1 0 5.553-4.547 10.1-10.1 10.1zm-40.4 0c-5.558 0-10.1-4.547-10.1-10.1 0-5.563 4.542-10.1 10.1-10.1 5.553 0 10.1 4.537 10.1 10.1 0 5.553-4.547 10.1-10.1 10.1zm-40.4 0c-5.558 0-10.1-4.547-10.1-10.1 0-5.563 4.542-10.1 10.1-10.1 5.553 0 10.1 4.537 10.1 10.1 0 5.553-4.547 10.1-10.1 10.1zm-40.4 0c-5.558 0-10.1-4.547-10.1-10.1 0-5.563 4.542-10.1 10.1-10.1 5.553 0 10.1 4.537 10.1 10.1 0 5.553-4.547 10.1-10.1 10.1zm-40.4 0c-5.558 0-10.1-4.547-10.1-10.1 0-5.563 4.542-10.1 10.1-10.1 5.553 0 10.1 4.537 10.1 10.1 0 5.553-4.547 10.1-10.1 10.1z"/><path fill="none" d="M272.7 373.7"/><g><path fill="none" d="M717.1 636.3"/><path fill="#454545" d="M717.1 686.8c-5.558 0-10.1-4.547-10.1-10.1 0-5.563 4.542-10.1 10.1-10.1 5.553 0 10.1 4.537 10.1 10.1 0 5.553-4.547 10.1-10.1 10.1z"/><path fill="none" d="M717.1 717.1"/><path fill="#454545" d="M676.7 727.2c-5.557 0-10.1-4.548-10.1-10.1 0-5.563 4.543-10.1 10.1-10.1 5.553 0 10.1 4.537 10.1 10.1 0 5.552-4.547 10.1-10.1 10.1zm-40.4 0c-5.558 0-10.1-4.548-10.1-10.1 0-5.563 4.542-10.1 10.1-10.1 5.554 0 10.1 4.537 10.1 10.1 0 5.552-4.546 10.1-10.1 10.1zm-40.4 0c-5.558 0-10.1-4.548-10.1-10.1 0-5.563 4.542-10.1 10.1-10.1 5.553 0 10.1 4.537 10.1 10.1 0 5.552-4.547 10.1-10.1 10.1zm-40.4 0c-5.558 0-10.1-4.548-10.1-10.1 0-5.563 4.542-10.1 10.1-10.1 5.553 0 10.1 4.537 10.1 10.1 0 5.552-4.547 10.1-10.1 10.1zm-40.4 0c-5.558 0-10.1-4.548-10.1-10.1 0-5.563 4.542-10.1 10.1-10.1 5.553 0 10.1 4.537 10.1 10.1 0 5.552-4.547 10.1-10.1 10.1zm-40.4 0c-5.558 0-10.1-4.548-10.1-10.1 0-5.563 4.542-10.1 10.1-10.1 5.553 0 10.1 4.537 10.1 10.1 0 5.552-4.547 10.1-10.1 10.1zm-40.4 0c-5.558 0-10.1-4.548-10.1-10.1 0-5.563 4.542-10.1 10.1-10.1 5.553 0 10.1 4.537 10.1 10.1 0 5.552-4.547 10.1-10.1 10.1zm-40.4 0c-5.558 0-10.1-4.548-10.1-10.1 0-5.563 4.542-10.1 10.1-10.1 5.553 0 10.1 4.537 10.1 10.1 0 5.552-4.547 10.1-10.1 10.1zm-40.4 0c-5.558 0-10.1-4.548-10.1-10.1 0-5.563 4.542-10.1 10.1-10.1 5.553 0 10.1 4.537 10.1 10.1 0 5.552-4.547 10.1-10.1 10.1zm-40.4 0c-5.558 0-10.1-4.548-10.1-10.1 0-5.563 4.542-10.1 10.1-10.1 5.553 0 10.1 4.537 10.1 10.1 0 5.552-4.547 10.1-10.1 10.1z"/><path fill="none" d="M272.7 717.1"/></g><g><path fill="#818336" d="M717.1 333.3H272.7c-22.31 0-40.4-18.09-40.4-40.4 0-22.311 18.09-40.4 40.4-40.4h404c22.31 0 40.4 18.089 40.4 40.4v40.4z"/><path fill="#454545" d="M717.1 343.4H272.7c-27.844 0-50.5-22.656-50.5-50.5s22.656-50.5 50.5-50.5h404c27.844 0 50.5 22.656 50.5 50.5v40.4c0 5.583-4.522 10.1-10.1 10.1zm-444.4-80.8c-16.708 0-30.3 13.591-30.3 30.3s13.592 30.3 30.3 30.3H707v-30.3c0-16.709-13.592-30.3-30.3-30.3h-404z"/></g></g></g><metadata><rdf:RDF xmlns:rdf="http://www.w3.org/1999/02/22-rdf-syntax-ns#" xmlns:rdfs="http://www.w3.org/2000/01/rdf-schema#" xmlns:dc="http://purl.org/dc/elements/1.1/"><rdf:Description about="https://iconscout.com/legal#licenses" dc:title="wallet" dc:description="wallet" dc:publisher="Iconscout" dc:date="2017-09-22" dc:format="image/svg+xml" dc:language="en"><dc:creator><rdf:Bag><rdf:li>EcommDesign</rdf:li></rdf:Bag></dc:creator></rdf:Description></rdf:RDF></metadata></svg>