<?xml version="1.0" encoding="UTF-8"?><!DOCTYPE svg PUBLIC "-//W3C//DTD SVG 1.1//EN" "http://www.w3.org/Graphics/SVG/1.1/DTD/svg11.dtd"><svg xmlns="http://www.w3.org/2000/svg" xmlns:xlink="http://www.w3.org/1999/xlink" version="1.1" id="wish-list" x="0px" y="0px" viewBox="0 0 1010 1010" xml:space="preserve"><g id="wish-list-wish-list"><circle id="wish-list-label" fill="#FC6E51" cx="505" cy="505" r="505"/><g id="wish-list-wish-list_1_"><path fill="#FFB933" d="M702.828 772.65H307.172V361.006l120.56-123.656h275.096z"/><path fill="#454545" d="M702.828 782.75H307.172c-5.577 0-10.1-4.518-10.1-10.1V361.006a10.1 10.1 0 0 1 2.87-7.052l120.56-123.656a10.078 10.078 0 0 1 7.23-3.048h275.096c5.582 0 10.1 4.518 10.1 10.1v535.3c0 5.582-4.518 10.1-10.1 10.1zm-385.555-20.2h375.455v-515.1H431.992l-114.72 117.67v397.43z"/><g><path fill="#3BAFDA" d="M318.811 376.994h116.367V248.988"/><path fill="#454545" d="M435.178 387.094H318.81c-5.578 0-10.1-4.517-10.1-10.1 0-5.582 4.522-10.1 10.1-10.1h106.267V248.988c0-5.582 4.523-10.1 10.1-10.1 5.578 0 10.1 4.518 10.1 10.1v128.006c0 5.583-4.522 10.1-10.1 10.1z"/></g><g><path fill="#FFF" d="M505.01 411.21l23.84 73.393H606l-62.425 42.352 23.86 71.835-62.425-46.1-62.435 45.005 23.86-70.562L404 484.603h77.16z"/><path fill="#454545" d="M567.435 608.89c-2.11 0-4.217-.662-6.002-1.973l-56.497-41.722-56.453 40.697c-3.56 2.574-8.369 2.524-11.91-.07a10.108 10.108 0 0 1-3.565-11.362l21.403-63.293-56.097-38.22a10.095 10.095 0 0 1-3.965-11.323 10.101 10.101 0 0 1 9.651-7.121h69.822l21.581-66.41a10.104 10.104 0 0 1 9.607-6.983c4.374 0 8.256 2.82 9.607 6.983l21.57 66.41H606a10.099 10.099 0 0 1 5.672 18.454l-56.103 38.062 21.452 64.584a10.111 10.111 0 0 1-3.654 11.364 10.1 10.1 0 0 1-5.932 1.923zm-62.425-66.301c2.11 0 4.217.661 6.002 1.972l36.795 27.173-13.819-41.592a10.106 10.106 0 0 1 3.916-11.54l35.222-23.899H528.85a10.105 10.105 0 0 1-9.607-6.983l-14.233-43.823-14.242 43.823a10.105 10.105 0 0 1-9.607 6.983h-44.395l35.355 24.086a10.088 10.088 0 0 1 3.881 11.58l-13.76 40.696 36.86-26.573a10.092 10.092 0 0 1 5.908-1.903z"/></g></g></g><metadata><rdf:RDF xmlns:rdf="http://www.w3.org/1999/02/22-rdf-syntax-ns#" xmlns:rdfs="http://www.w3.org/2000/01/rdf-schema#" xmlns:dc="http://purl.org/dc/elements/1.1/"><rdf:Description about="https://iconscout.com/legal#licenses" dc:title="wish,list" dc:description="wish,list" dc:publisher="Iconscout" dc:date="2017-09-22" dc:format="image/svg+xml" dc:language="en"><dc:creator><rdf:Bag><rdf:li>EcommDesign</rdf:li></rdf:Bag></dc:creator></rdf:Description></rdf:RDF></metadata></svg>