<svg xmlns="http://www.w3.org/2000/svg" data-name="Layer 1" viewBox="0 0 120 120"><defs><linearGradient id="a" x1="60" x2="60" y1="-.84" y2="119.16" gradientUnits="userSpaceOnUse"><stop offset="0" stop-color="#1d70f2"/><stop offset="1" stop-color="#1ac7fb"/></linearGradient></defs><rect width="120" height="120" fill="url(#a)" rx="26"/><path fill="#fff" d="M67.06,65.1,98.57,33.59A6,6,0,0,0,96,33H24a6,6,0,0,0-2.58.59L52.92,65.1A10,10,0,0,0,67.06,65.1Z"/><path fill="#fff" d="M24 87H96a6 6 0 0 0 2.56-.58L75 62.85l-5.08 5.08a14 14 0 0 1-19.8 0L45 62.85 21.43 86.42A5.93 5.93 0 0 0 24 87zM101.39 83.61A6 6 0 0 0 102 81V39a6 6 0 0 0-.59-2.58L77.8 60zM42.18 60l-23.6-23.6A5.86 5.86 0 0 0 18 39V81a6 6 0 0 0 .6 2.61z"/></svg>