<svg xmlns="http://www.w3.org/2000/svg" viewBox="0 0 120 120"><defs><linearGradient id="a" x2="120" y1="60" y2="60" gradientUnits="userSpaceOnUse"><stop offset="0" stop-color="#fefefe"/><stop offset="1" stop-color="#fefefe"/></linearGradient><linearGradient id="b" x1="59.99" x2="59.99" y1="54.57" y2="9.84" gradientUnits="userSpaceOnUse"><stop offset="0" stop-color="#f5b650"/><stop offset="1" stop-color="#f5b650"/></linearGradient><linearGradient id="c" x1="59.99" x2="59.99" y1="66.42" y2="110.1" gradientUnits="userSpaceOnUse"><stop offset="0" stop-color="#76a5dc"/><stop offset="1" stop-color="#76a5dc"/></linearGradient><linearGradient id="d" x1="63.99" x2="111.99" y1="60" y2="60" gradientTransform="rotate(-90 87.99 60)" gradientUnits="userSpaceOnUse"><stop offset="0" stop-color="#d4ec64"/><stop offset="1" stop-color="#d4ec64"/></linearGradient><linearGradient id="e" x1="55.43" x2="7.43" y1="60" y2="60" gradientTransform="rotate(-90 31.99 60)" gradientUnits="userSpaceOnUse"><stop offset="0" stop-color="#ee6ca7"/><stop offset="1" stop-color="#ee6ca7"/></linearGradient><linearGradient id="f" x1="64.45" x2="95.71" y1="54.91" y2="24.93" gradientTransform="rotate(-45 79.783 40.203)" gradientUnits="userSpaceOnUse"><stop offset="0" stop-color="#eae532"/><stop offset="1" stop-color="#eae532"/></linearGradient><linearGradient id="g" x1="56.03" x2="23.29" y1="64.71" y2="95.9" gradientTransform="rotate(-45 40.186 79.804)" gradientUnits="userSpaceOnUse"><stop offset="0" stop-color="#aa7adb"/><stop offset="1" stop-color="#aa7adb"/></linearGradient><linearGradient id="h" x1="64.52" x2="94.81" y1="64.19" y2="95.15" gradientTransform="rotate(-135 79.787 79.797)" gradientUnits="userSpaceOnUse"><stop offset="0" stop-color="#7bd464"/><stop offset="1" stop-color="#7bd464"/></linearGradient><linearGradient id="i" x1="55.23" x2="24.6" y1="55.24" y2="24.62" gradientTransform="rotate(-135 40.19 40.203)" gradientUnits="userSpaceOnUse"><stop offset="0" stop-color="#fc6852"/><stop offset="1" stop-color="#fc6852"/></linearGradient></defs><g data-name="Layer 1"><rect width="120" height="120" fill="url(#a)" rx="26"/><rect width="32" height="48" x="43.99" y="8" fill="url(#b)" rx="16" style="mix-blend-mode:multiply"/><rect width="32" height="48" x="43.99" y="64" fill="url(#c)" rx="16" style="mix-blend-mode:multiply"/><rect width="32" height="48" x="71.99" y="36" fill="url(#d)" rx="16" transform="rotate(90 87.99 60)" style="mix-blend-mode:multiply"/><rect width="32" height="48" x="15.99" y="36" fill="url(#e)" rx="16" transform="rotate(90 31.99 60)" style="mix-blend-mode:multiply"/><rect width="32" height="48" x="63.79" y="16.2" fill="url(#f)" rx="16" transform="rotate(45 79.785 40.208)" style="mix-blend-mode:multiply"/><rect width="32" height="48" x="24.19" y="55.8" fill="url(#g)" rx="16" transform="rotate(45 40.196 79.8)" style="mix-blend-mode:multiply"/><rect width="32" height="48" x="63.79" y="55.8" fill="url(#h)" rx="16" transform="rotate(135 79.786 79.8)" style="mix-blend-mode:multiply"/><rect width="32" height="48" x="24.19" y="16.2" fill="url(#i)" rx="16" transform="rotate(135 40.187 40.2)" style="mix-blend-mode:multiply"/></g></svg>