<svg xmlns="http://www.w3.org/2000/svg" data-name="Layer 1" viewBox="0 0 120 120"><defs><linearGradient id="a" x1="60.43" x2="59.58" y1="-.9" y2="118.99" gradientUnits="userSpaceOnUse"><stop offset="0" stop-color="#fefefe"/><stop offset="1" stop-color="#fefefe"/></linearGradient></defs><rect width="120" height="120" fill="url(#a)" rx="26"/><circle cx="22" cy="30" r="6" fill="#007aff"/><path fill="#007aff" d="M22,40A10,10,0,1,1,32,30,10,10,0,0,1,22,40Zm0-18a8,8,0,1,0,8,8A8,8,0,0,0,22,22Z"/><circle cx="22" cy="60" r="6" fill="#fe3b30"/><path fill="#fe3b30" d="M22,70A10,10,0,1,1,32,60,10,10,0,0,1,22,70Zm0-18a8,8,0,1,0,8,8A8,8,0,0,0,22,52Z"/><circle cx="22" cy="90" r="6" fill="#fe9500"/><path fill="#fe9500" d="M22,100A10,10,0,1,1,32,90,10,10,0,0,1,22,100Zm0-18a8,8,0,1,0,8,8A8,8,0,0,0,22,82Z"/><rect width="60" height="2" x="45" y="29" fill="#c7c7cc"/><rect width="60" height="2" x="45" y="59" fill="#c7c7cc"/><rect width="60" height="2" x="45" y="89" fill="#c7c7cc"/></svg>