<?xml version="1.0" encoding="UTF-8" standalone="no"?>
<svg xmlns="http://www.w3.org/2000/svg" xmlns:xlink="http://www.w3.org/1999/xlink" width="2105" height="2500" viewBox="0 0 240 285.001"><circle cx="120" cy="120" r="120" fill="#2a58d3"/><defs><filter id="a" filterUnits="userSpaceOnUse" x="0" y="0" width="240" height="240"><feColorMatrix values="1 0 0 0 0 0 1 0 0 0 0 0 1 0 0 0 0 0 1 0"/></filter></defs><mask maskUnits="userSpaceOnUse" x="0" y="0" width="240" height="240" id="b"/><circle cx="120" cy="120" r="120" opacity=".5" mask="url(#b)"/><defs><filter id="c" filterUnits="userSpaceOnUse" x="0" y="0" width="240" height="240"><feColorMatrix values="1 0 0 0 0 0 1 0 0 0 0 0 1 0 0 0 0 0 1 0"/></filter></defs><mask maskUnits="userSpaceOnUse" x="0" y="0" width="240" height="240" id="e"><g filter="url(#c)"><radialGradient id="d" cx="-1119.93" cy="1361.325" r="71" gradientTransform="translate(1239.93 -1326.825)" gradientUnits="userSpaceOnUse"><stop offset="0" stop-color="#fff"/><stop offset=".057" stop-color="#e9e9e9"/><stop offset=".192" stop-color="#bcbcbc"/><stop offset=".312" stop-color="#9b9b9b"/><stop offset=".411" stop-color="#868686"/><stop offset=".478" stop-color="#7f7f7f"/><stop offset="1" stop-color="#2e2e2e"/></radialGradient><path d="M120 157c50.502 0 94.449-25.523 117.13-63.167C225.188 40.144 177.286 0 120 0S14.812 40.144 2.87 93.833C25.551 131.477 69.499 157 120 157z" fill="url(#d)"/></g></mask><circle cx="120" cy="120" r="120" opacity=".54" mask="url(#e)" fill="#fff" enable-background="new"/><g><path d="M78.756 12.091C91.566 7.191 105.468 4.5 120 4.5c31.213 0 59.529 12.384 80.314 32.504C179.441 16.301 150.723 3.5 119 3.5c-14.532 0-33.523 4.767-46.333 9.667 1.703-.233 4.142-.686 6.885-1.177-.265.033-.537.065-.796.101z" fill="#404040"/><path d="M41.227 35.542c8.134-2.446 17.533-4.208 27.772-4.208 30.017 0 51.894 22.876 75.333 45.667 14.992 14.579 56.686 53.278 89.85 60.502-33.164-7.224-73.854-46.923-88.85-61.502-23.439-22.791-45.316-45.667-75.333-45.667-10.24 0-19.639 1.762-27.772 4.208a131.512 131.512 0 0 0-6.276 6.255 114.68 114.68 0 0 1 5.276-5.255z" fill="#595959"/></g><g><linearGradient id="f" gradientUnits="userSpaceOnUse" x1="-1161.174" y1="1377.325" x2="-1008.932" y2="1377.325" gradientTransform="translate(1239.93 -1326.825)"><stop offset=".538" stop-color="#fff"/><stop offset=".615" stop-color="#f7f7f7"/><stop offset=".845" stop-color="#e3e3e3"/><stop offset="1" stop-color="#dbdbdb"/></linearGradient><path d="M120 4.5c-14.532 0-28.434 2.691-41.244 7.591C83.673 11.417 89.56 11 96.625 11c40.294 0 63.143 17.536 79.75 36.125C187.458 59.531 206.706 96.5 221 96.5c4.158-.36 7.428-3.585 9.998-8.523C217.113 39.767 172.678 4.5 120 4.5z" fill="url(#f)"/><radialGradient id="g" cx="-1118.337" cy="1420.195" r="90.898" gradientTransform="translate(1239.93 -1326.825)" gradientUnits="userSpaceOnUse"><stop offset=".676" stop-color="#fff"/><stop offset=".729" stop-color="#f7f7f7"/><stop offset=".891" stop-color="#e3e3e3"/><stop offset="1" stop-color="#dbdbdb"/></radialGradient><path d="M49.333 64.333c39.021 0 107.685 82.677 180.63 91.074a114.819 114.819 0 0 0 4.219-17.905c-33.164-7.224-74.854-45.923-89.85-60.502-23.439-22.791-45.316-45.667-75.333-45.667-10.24 0-19.639 1.762-27.772 4.208C26.164 49.596 14.863 67.628 9.004 87.969c12.038-12.033 25.795-23.636 40.329-23.636z" fill="url(#g)"/><radialGradient id="h" cx="-1124.278" cy="1518.273" r="74.676" gradientTransform="translate(1239.93 -1326.825)" gradientUnits="userSpaceOnUse"><stop offset=".676" stop-color="#fff"/><stop offset=".729" stop-color="#f7f7f7"/><stop offset=".891" stop-color="#e3e3e3"/><stop offset="1" stop-color="#dbdbdb"/></radialGradient><path d="M165.125 194.125C98.125 194.125 47.5 158 29.5 158c-7.34 0-11.575 5.128-14.018 11.201 11.564 24.521 31.501 44.314 56.127 55.695-3.472-8.922-5.566-20.729 7.682-20.729 11.708 0 23.375 10.083 66.583 10.083 19.729 0 37.899-4.116 51.258-8.287a116.14 116.14 0 0 0 18.69-21.462c-12.761 4.544-31.347 9.624-50.697 9.624z" fill="url(#h)"/></g>
	<metadata>
		<rdf:RDF xmlns:rdf="http://www.w3.org/1999/02/22-rdf-syntax-ns#" xmlns:rdfs="http://www.w3.org/2000/01/rdf-schema#" xmlns:dc="http://purl.org/dc/elements/1.1/">
			<rdf:Description about="https://iconscout.com/legal#licenses" dc:title="google-earth" dc:description="google-earth" dc:publisher="Iconscout" dc:date="2017-06-06" dc:format="image/svg+xml" dc:language="en">
				<dc:creator>
					<rdf:Bag>
						<rdf:li>Icon Mafia</rdf:li>
					</rdf:Bag>
				</dc:creator>
			</rdf:Description>
		</rdf:RDF>
    </metadata></svg>
