<svg xmlns="http://www.w3.org/2000/svg" width="64" height="64" viewBox="0 0 64 64"><g transform="translate(-748 -1110.362)"><path fill="#cfd3d6" style="line-height:normal;text-indent:0;text-align:start;text-decoration-line:none;text-decoration-style:solid;text-decoration-color:#000;text-transform:none;block-progression:tb;isolation:auto;mix-blend-mode:normal" d="M773.14844 1140.1289l-1.95117 7.2852c-.81054 3.025-3.53675 4.9891-6.51758 4.9492l-.004 0-1.67578 0-3 0c-1.09936 0-2 .9007-2 2l0 1 1 0 0-1c0-.5626.43734-1 1-1l3 0 1.67188 0c3.42717.043 6.56477-2.2302 7.49218-5.6914l1.95117-7.2832-.96679-.2598zM771.42383 1122.3633a.50005.50005 0 0 0-.46485.3691l-2.10351 7.8516c-1.00128 3.7368 1.21369 7.5708 4.95117 8.5722 3.73746 1.0015 7.57098-1.2104 8.57227-4.9472l2.10351-7.8535a.50005.50005 0 0 0-.35351-.6114l-1.52149-.4082a.50029197.50029197 0 0 0-.25781.9668l1.03906.2774-1.97656 7.3691c-.86235 3.2184-4.12854 5.1048-7.34766 4.2422-3.21912-.8625-5.10453-4.1293-4.24218-7.3476l1.97461-7.3692 1.0371.2774a.50005.50005 0 1 0 .25977-.9649l-1.52148-.4082a.50005.50005 0 0 0-.14844-.016z" color="#000" font-family="sans-serif" font-weight="400" overflow="visible" white-space="normal"/><path fill="#f4608a" d="m 771.64844,148.39648 a 0.79121252,0.79121252 0 0 0 -0.45703,1.42188 c 0.40176,0.31225 0.84138,0.58079 1.31054,0.80859 l -0.19922,0.74024 c -0.20416,0.762 0.24382,1.54004 1.00586,1.74414 0.76204,0.2042 1.53996,-0.24571 1.74414,-1.00781 l 0.19727,-0.73829 c 0.52049,0.0373 1.037,0.0226 1.54102,-0.0469 a 0.79121252,0.79121252 0 1 0 -0.2168,-1.56641 c -0.75268,0.1037 -1.5375,0.0621 -2.32422,-0.14843 -0.78652,-0.2107 -1.48789,-0.56886 -2.08789,-1.03516 a 0.79121252,0.79121252 0 0 0 -0.51367,-0.17188 z" transform="translate(0 988.362)"/><path fill="#cfd3d6" style="line-height:normal;text-indent:0;text-align:start;text-decoration-line:none;text-decoration-style:solid;text-decoration-color:#000;text-transform:none;block-progression:tb;isolation:auto;mix-blend-mode:normal" d="m 770.71094,1125.2578 -1.01758,3.7969 c -0.94313,3.5198 1.13788,7.1232 4.6582,8.0664 3.52035,0.9433 7.12329,-1.1364 8.06641,-4.6563 l 1.01758,-3.7988 -0.48243,-0.1289 -1.01757,3.7988 c -0.87366,3.2606 -4.19389,5.1747 -7.45508,4.3008 -3.26116,-0.8738 -5.17836,-4.1925 -4.30469,-7.4531 l 1.01758,-3.7969 -0.48242,-0.1289 z" color="#000" font-family="sans-serif" font-weight="400" overflow="visible" white-space="normal"/><path fill="#1395bf" d="M773.37305 134.03516c-.15432.0215-.28913.13299-.33203.29296l-.31055 1.15821c-.0572.2133.0699.43323.2832.49023l.38672.10352.96484.25781c.52877.1646 1.08127-.17213 1.22461-.70703.14333-.5349-.17211-1.07936-.70703-1.22266l-.57812-.15625-.77344-.20703c-.0533-.0143-.10676-.0169-.1582-.01zM780.66992 136.03906c-.38596.0533-.72063.33125-.82812.73242-.14333.535.16681 1.10281.70703 1.22461l.58008.1543.77148.20703c.21331.057.43308-.0695.49023-.2832l.31055-1.1582c.0571-.2133-.0699-.43304-.2832-.49024l-.38672-.10351-.96484-.25782c-.13373-.0358-.26784-.0431-.39649-.0254z" transform="translate(0 988.362)"/><path fill="#474545" d="m 761.00002,1140.3622 27.99996,0 c 0.55401,0 1.00002,0.4672 1.00002,1.0476 l 0,19.9047 c 0,0.5804 -0.44601,1.0477 -1.00002,1.0477 l -27.99996,0 c -0.55401,0 -1.00002,-0.4673 -1.00002,-1.0477 l 0,-19.9047 c 0,-0.5804 0.44601,-1.0476 1.00002,-1.0476 z"/><path fill="#cfd3d6" d="m 757,171 0,1 c 0,1.108 0.892,2 2,2 l 32,0 c 1.108,0 2,-0.892 2,-2 l 0,-1 -36,0 z" transform="translate(0 988.362)"/><path fill="#eff4f7" d="m 757,1159.3622 0,1 36,0 0,-1 z"/><path fill="#726f6f" d="m 779,1159.3622 c 0,0.554 -0.446,1 -1.00001,1 l -5.99998,0 c -0.55401,0 -1.00001,-0.446 -1.00001,-1 1,0 5,0 8,0 z"/><path fill="#49b2d6" d="m 762,1142.3622 26,0 0,15 -26,0 z"/><path fill="#ffdc73" d="m 776.43188,1147.8446 a 2.0000072,2.0000072 0 0 1 -1.41423,2.4495 2.0000072,2.0000072 0 0 1 -2.4495,-1.4143 2.0000072,2.0000072 0 0 1 1.41422,-2.4495 2.0000072,2.0000072 0 0 1 2.44951,1.4143 z"/><path fill="#cfd3d6" style="line-height:normal;text-indent:0;text-align:start;text-decoration-line:none;text-decoration-style:solid;text-decoration-color:#000;text-transform:none;block-progression:tb;isolation:auto;mix-blend-mode:normal" d="m 774,1148.8613 0,7.5 c 0,1.1167 -0.88329,2 -2,2 l -5,0 -2,0 -5,0 c -0.56266,0 -1,-0.4373 -1,-1 l 0,-2.3984 -1,0 0,2.3984 c 0,1.0994 0.90064,2 2,2 l 5,0 2,0 5,0 c 1.65339,0 3,-1.3466 3,-3 l 0,-7.5 -1,0 z" color="#000" font-family="sans-serif" font-weight="400" overflow="visible" white-space="normal"/><path fill="#5e5c5c" d="m 775.46594,1148.1034 a 1.000006,1.000006 0 0 1 -0.70711,1.2247 1.000006,1.000006 0 0 1 -1.22475,-0.7071 1.000006,1.000006 0 0 1 0.70711,-1.2247 1.000006,1.000006 0 0 1 1.22475,0.7071 z"/><path fill="#f4608a" fill-rule="evenodd" style="line-height:normal;text-indent:0;text-align:start;text-decoration-line:none;text-decoration-style:solid;text-decoration-color:#000;text-transform:none;block-progression:tb;isolation:auto;mix-blend-mode:normal" d="m 781.56836,1145.3633 a 0.50005,0.50005 0 0 0 -0.44727,0.334 l -0.92578,2.664 -1.68945,0 a 0.50005,0.50005 0 1 0 0,1 l 2.04492,0 a 0.50005,0.50005 0 0 0 0.47266,-0.334 l 0.56054,-1.6113 0.57813,1.7402 1.04297,3.1368 a 0.50005,0.50005 0 0 0 0.95117,-0.01 l 0.93164,-2.9258 0.67773,0 a 0.50005,0.50005 0 0 0 0.45899,-0.3027 l 0.39648,-0.9238 0.39453,0.9238 a 0.50005,0.50005 0 0 0 0.45899,0.3027 l 0.52734,0 0.65625,1.2364 a 0.50005,0.50005 0 0 0 0.88282,0 l 0.6582,-1.2364 0.49609,0 0.79883,0 a 0.50005,0.50005 0 1 0 0,-1 l -0.79883,0 -0.79687,0 a 0.50005,0.50005 0 0 0 -0.44141,0.2657 l -0.35742,0.6699 -0.35547,-0.6699 a 0.50005,0.50005 0 0 0 -0.44141,-0.2657 l -0.49804,0 -0.72461,-1.6953 a 0.50005,0.50005 0 0 0 -0.91992,0 l -0.72461,1.6953 -0.71289,0 a 0.50005,0.50005 0 0 0 -0.47657,0.3496 l -0.57617,1.8106 -0.55859,-1.6797 -1.04297,-3.1367 a 0.50005,0.50005 0 0 0 -0.5,-0.3418 z" color="#000" font-family="sans-serif" font-weight="400" overflow="visible" white-space="normal"/><path fill="#7ed0ed" d="m 796.00002,1152.3622 4.99996,0 c 0.55401,0 1.00002,0.446 1.00002,1 l 0,8 c 0,0.554 -0.44601,1 -1.00002,1 l -4.99996,0 c -0.55401,0 -1.00002,-0.446 -1.00002,-1 l 0,-8 c 0,-0.554 0.44601,-1 1.00002,-1 z"/><path fill="#ffdc73" d="m 795,1155.3622 7,0 0,5 -7,0"/><path fill="none" stroke="#f4608a" d="M798.5 1156.3622l0 3M800 1157.8622l-3 0"/><path fill="#dfe3e6" d="m 795.00002,1150.3622 6.99996,0 c 0.55401,0 1.00002,0.446 1.00002,1 l 0,1.5 -0.5,0.5 -8,0 -0.5,-0.5 0,-1.5 c 0,-0.554 0.44601,-1 1.00002,-1 z"/><path fill="#eff4f7" fill-rule="evenodd" d="M795.49219 1151.3622A.50005.50005 0 0 0 795 1151.87l0 1.4922 1 0 0-1.4922a.50005.50005 0 0 0-.50781-.5078zM797.49213 1151.3622a.50005.50005 0 0 0-.49219.5078l0 1.4922 1 0 0-1.4922a.50005.50005 0 0 0-.50781-.5078zM799.49213 1151.3622a.50005.50005 0 0 0-.49219.5078l0 1.4922 1 0 0-1.4922a.50005.50005 0 0 0-.50781-.5078zM801.49213 1151.3622a.50005.50005 0 0 0-.49219.5078l0 1.4922 1 0 0-1.4922a.50005.50005 0 0 0-.50781-.5078z" color="#000" font-family="sans-serif" font-weight="400" overflow="visible" white-space="normal" style="line-height:normal;text-indent:0;text-align:start;text-decoration-line:none;text-decoration-style:solid;text-decoration-color:#000;text-transform:none;block-progression:tb;isolation:auto;mix-blend-mode:normal"/><path fill="#dfe3e6" d="M803 1152.8622a.5.5 0 0 1-.5.5.5.5 0 0 1-.5-.5.5.5 0 0 1 .5-.5.5.5 0 0 1 .5.5zM795 1152.8622a.5.5 0 0 1-.5.5.5.5 0 0 1-.5-.5.5.5 0 0 1 .5-.5.5.5 0 0 1 .5.5z"/><path fill="#f4608a" d="m 790,1157.3622 2,0 c 0.554,0 1,0.446 1,1 0,0.554 -0.446,1 -1,1 l -2,0 c -0.554,0 -1,-0.446 -1,-1 0,-0.554 0.446,-1 1,-1 z"/><path fill="#ffdc73" d="m 790,1157.3622 1,0 0,2 -1,0 c -0.554,0 -1,-0.446 -1,-1 0,-0.554 0.446,-1 1,-1 z"/><path fill="#49b2d6" d="m 795.94884,1161.2504 a 1.5,1.5 0 0 1 -1.83712,1.0607 1.5,1.5 0 0 1 -1.06066,-1.8371 1.5,1.5 0 0 1 1.83712,-1.0607 1.5,1.5 0 0 1 1.06066,1.8371 z"/><path fill="#7ed0ed" fill-rule="evenodd" d="m 794.88818,1159.4133 a 1.5,1.5 0 0 0 -0.24704,-0.044 l -0.76534,2.8563 a 1.5,1.5 0 0 0 0.23592,0.085 1.5,1.5 0 0 0 0.24704,0.044 l 0.76534,-2.8562 a 1.5,1.5 0 0 0 -0.23592,-0.086 z" color="#000" font-family="sans-serif" font-weight="400" overflow="visible" white-space="normal" style="line-height:normal;text-indent:0;text-align:start;text-decoration-line:none;text-decoration-style:solid;text-decoration-color:#000;text-transform:none;block-progression:tb;isolation:auto;mix-blend-mode:normal"/></g></svg>