<svg xmlns="http://www.w3.org/2000/svg" width="64" height="64" viewBox="0 0 64 64"><g transform="translate(-593 -1109.362)"><path fill="#726f6f" d="m 604.98828,1136.3622 2,-9e-4 0,-1 -2,0 -0.14844,0.01 -0.48242,0.042 -0.0508,0.01 -0.0488,0.016 -0.44726,0.1387 -0.0488,0.014 -0.043,0.024 -0.11719,0.064 0.47656,0.8789 0.0703,-0.039 0.35937,-0.1114 0.43164,-0.043 z m 3,-9e-4 2,0 0,-1 -2,0 z m 3,0 2,0 0,-1 -2,0 z m 3,0 2,0 0,-1 -2,0 z m 3,0 2,0 0,-1 -2,0 z m 3,0 2,0 0,-1 -2,0 z m 3,0 2,0 0,-1 -2,0 z m 3,0 2,0 0,-1 -2,0 z m 3,0 2,0 0,-1 -2,0 z m 3,0 2,0 0,-1 -2,0 z m 3,0 2,0 0,-1 -2,0 z m 3,0 2,0 0,-1 -2,0 z m 3,0 2,0 0,-1 -2,0 z m 2.86914,0.031 -0.0332,0.106 0.0253,0.02 0.32031,0.1738 0.27149,0.2227 0.23828,0.2871 0.16992,0.3144 0.024,0.047 0.0605,-0.033 0.88282,-0.2714 -0.0254,-0.08 -0.0156,-0.049 -0.0234,-0.043 -0.21875,-0.4043 -0.0234,-0.043 -0.0312,-0.037 -0.29102,-0.3535 -0.0312,-0.037 -0.0371,-0.031 -0.35352,-0.291 -0.0371,-0.031 -0.041,-0.022 -0.40625,-0.2207 -0.043,-0.024 -0.0488,-0.014 -0.0723,-0.024 z m -41.33594,0.2031 -0.0312,0.037 -0.0234,0.043 -0.21875,0.4043 -0.0234,0.043 -0.0156,0.049 -0.13867,0.4472 -0.0137,0.049 -0.006,0.049 -0.0488,0.4824 -0.002,0.025 0,0.025 0,0.3418 1,0 0,-0.3125 0.0391,-0.4102 0.10938,-0.3535 0.17187,-0.3183 0.12696,-0.1524 -0.77149,-0.6367 z m 42.47852,4.7383 1,0 0,-2.9531 -1,0 z m -43,0.2578 1,0 0,-2 -1,0 z m 43,2.7422 1,0 0,-2 -1,0 z m -43,0.2578 1,0 0,-2 -1,0 z m 44,0.7422 -1,0 z m -44,2.2578 1,0 0,-2 -1,0 z m 0,3 1,0 0,-2 -1,0 z m 0,3 1,0 0,-2 -1,0 z m 0,3 1,0 0,-2 -1,0 z m 0,3 1,0 0,-2 -1,0 z m 0,3.7666 1,0 4e-5,-1.2629 0,-1.5039 -1,0 z" color="#000" font-family="sans-serif" font-weight="400" overflow="visible" white-space="normal" style="line-height:normal;text-indent:0;text-align:start;text-decoration-line:none;text-decoration-style:solid;text-decoration-color:#000;text-transform:none;block-progression:tb;isolation:auto;mix-blend-mode:normal"/><path fill="#474545" d="m 606.00002,1137.3622 35.99996,0 c 1.10801,0 2.00002,0.892 2.00002,2 l 0,23 c 0,1.108 -0.89201,2 -2.00002,2 l -35.99996,0 c -1.10801,0 -2.00002,-0.892 -2.00002,-2 l 0,-23 c 0,-1.108 0.89201,-2 2.00002,-2 z"/><path fill="#f4608a" d="m 644.5,151 c -0.831,0 -1.5,0.669 -1.5,1.5 l 0,2 3,0 0,-2 c 0,-0.831 -0.669,-1.5 -1.5,-1.5 z" transform="translate(0 988.362)"/><path fill="#cfd3d6" d="m 600,1162.3622 0,2 c 0,1.662 1.338,3 3,3 l 42,0 c 1.662,0 3,-1.338 3,-3 l 0,-2 -48,0 z"/><path fill="#474545" d="M623.2207 1127.7441a.50005.50005 0 0 0-.49218.5079c-.00002.5838-.46363 1.0468-1.05079 1.0468a.50005.50005 0 1 0 0 1c1.12629 0 2.05076-.9213 2.05079-2.0468a.50005.50005 0 0 0-.50782-.5079zM624.76758 1127.7441a.50005.50005 0 0 0-.49219.5079c.00002 1.1255.92449 2.0468 2.05078 2.0468a.50005.50005 0 1 0 0-1c-.58715 0-1.05077-.463-1.05078-1.0468a.50005.50005 0 0 0-.50781-.5079z" color="#000" font-family="sans-serif" font-weight="400" overflow="visible" white-space="normal" style="line-height:normal;text-indent:0;text-align:start;text-decoration-line:none;text-decoration-style:solid;text-decoration-color:#000;text-transform:none;block-progression:tb;isolation:auto;mix-blend-mode:normal"/><path fill="#474545" fill-rule="evenodd" d="M616.48047 1119.4922a.50005.50005 0 0 0-.45313.664l.51954 1.5489a.50005.50005 0 0 0 .40429.3359l3.64258.5137a.5000682.5000682 0 0 0 .14063-.9902l-3.33594-.4707-.42188-1.2559a.50005.50005 0 0 0-.49609-.3457zM631.50391 1119.4902a.50005.50005 0 0 0-.48047.3496l-.41992 1.254-3.33399.4707a.50005.50005 0 1 0 .13867.9902l3.64258-.5137a.50005.50005 0 0 0 .4043-.3379l.51758-1.5469a.50005.50005 0 0 0-.46875-.666zM618.49414 1115.3613a.50005.50005 0 0 0-.49219.5078l0 2.5782a.50005.50005 0 0 0 .21094.4082l2.90039 2.0625a.50005.50005 0 1 0 .58008-.8145l-2.69141-1.914 0-2.3204a.50005.50005 0 0 0-.50781-.5078zM629.49414 1115.3613a.50005.50005 0 0 0-.49219.5078l0 2.3204-2.69531 1.914a.50074988.50074988 0 1 0 .58008.8164l2.9043-2.0644a.50005.50005 0 0 0 .21093-.4082l0-2.5782a.50005.50005 0 0 0-.50781-.5078zM621.11328 1122.6816l-3.11133 2.2129 0 11.4677 1 0 0-10.952 2.69141-1.9141zM626.88672 1122.6816l-.58008.8145 2.69531 1.9141 0 10.952 1 0 0-11.4677z" color="#000" font-family="sans-serif" font-weight="400" overflow="visible" white-space="normal" style="line-height:normal;text-indent:0;text-align:start;text-decoration-line:none;text-decoration-style:solid;text-decoration-color:#000;text-transform:none;block-progression:tb;isolation:auto;mix-blend-mode:normal"/><path fill="#f4608a" d="m 621.41459,1126.4456 a 2.585415,2.5792164 0 0 1 2.58541,-2.5792 2.585415,2.5792164 0 0 1 2.58542,2.5792 2.585415,2.5792164 0 0 1 -2.58542,2.5792 2.585415,2.5792164 0 0 1 -2.58541,-2.5792 z"/><path fill="#49b2d6" d="m 619.34625,1120.7713 a 4.6537506,4.6425931 0 0 1 4.65375,-4.6425 4.6537506,4.6425931 0 0 1 4.65375,4.6425 4.6537506,4.6425931 0 0 1 -4.65375,4.6426 4.6537506,4.6425931 0 0 1 -4.65375,-4.6426 z"/><path fill="#1395bf" d="M624.25854 1125.4049a4.6537506 4.6425931 0 0 0 4.39521-4.6336 4.6537506 4.6425931 0 0 0-2.58542-4.1519c-1.08569.5553-1.80979 1.5286-1.80979 2.6497l0 6.1358zM623.74146 1125.4008l0-6.1317c0-1.1226-.72564-2.0978-1.81383-2.6527a4.6537506 4.6425931 0 0 0-2.58138 4.1549 4.6537506 4.6425931 0 0 0 4.39521 4.6295z"/><path fill="#f47b9f" fill-rule="evenodd" d="m 644,1140.8613 0,2 1,0 0,-2 -1,0 z" color="#000" font-family="sans-serif" font-weight="400" overflow="visible" white-space="normal" style="line-height:normal;text-indent:0;text-align:start;text-decoration-line:none;text-decoration-style:solid;text-decoration-color:#000;text-transform:none;block-progression:tb;isolation:auto;mix-blend-mode:normal"/><path fill="#eff4f7" d="m 600,1162.3622 0,2 48,0 0,-2 z"/><path fill="#cfd3d6" d="m 642,1142.3622 5,0 0,2 -5,0 z"/><path fill="#49b2d6" d="m 606,1139.3622 36,0 0,21 -36,0 z"/><path fill="#726f6f" d="m 630,1162.3622 0,0 c 0,1.108 -0.892,2 -1.99999,2 l -8.00002,0 c -1.10799,0 -1.99999,-0.892 -1.99999,-2 l 0,0 c 2,0 9,0 12,0 z"/><path fill="#5e5c5c" d="m 640.1,1143.3622 8.8,0 c 0.6094,0 1.1,0.446 1.1,1 l 0,17 c 0,0.554 -0.4906,1 -1.1,1 l -8.8,0 c -0.6094,0 -1.1,-0.446 -1.1,-1 l 0,-17 c 0,-0.554 0.4906,-1 1.1,-1 z"/><path fill="none" stroke="#474545" d="m 646.49288,1144.8623 -2,0"/><path fill="#474545" d="M641.99287 1144.8622a.5.5 0 0 0 .5.5.5.5 0 0 0 .5-.5.5.5 0 0 0-.5-.5.5.5 0 0 0-.5.5zM643.50001 1160.3622a.9999913.9999913 0 0 0 .99999 1 .9999913.9999913 0 0 0 .99999-1 .9999913.9999913 0 0 0-.99999-1 .9999913.9999913 0 0 0-.99999 1z"/><path fill="#ffdc73" d="m 640,1146.3622 9,0 0,12 -9,0 z"/><path fill="#49b2d6" d="m 642,161 0,2 -4,0 0,2 4,0 0,2 4,-3 -4,-3 z" transform="translate(0 988.362)"/><path fill="#5e5c5c" d="m 636,163 -4,3 4,3 0,-2 4,0 0,-2 -4,0 0,-2 z" transform="translate(0 988.362)"/><path fill="#474545" d="m 607,1118.8613 0,2.7071 5,5 0,9.7929 1,0 0,-10.207 -5,-5 0,-2.293 -1,0 z" color="#000" font-family="sans-serif" font-weight="400" overflow="visible" white-space="normal" style="line-height:normal;text-indent:0;text-align:start;text-decoration-line:none;text-decoration-style:solid;text-decoration-color:#000;text-transform:none;block-progression:tb;isolation:auto;mix-blend-mode:normal"/><path fill="#474545" d="M607.5 1116.3613c-.8225 0-1.5.6775-1.5 1.5 0 .8225.6775 1.5 1.5 1.5.8225 0 1.5-.6775 1.5-1.5 0-.8225-.6775-1.5-1.5-1.5zm0 1c.28206 0 .5.218.5.5 0 .2821-.21794.5-.5.5-.28206 0-.5-.2179-.5-.5 0-.282.21794-.5.5-.5zM640 1118.8613l0 2.293-5 5 0 10.207 1 0 0-9.7929 5-5 0-2.7071-1 0z" color="#000" font-family="sans-serif" font-weight="400" overflow="visible" white-space="normal" style="line-height:normal;text-indent:0;text-align:start;text-decoration-line:none;text-decoration-style:solid;text-decoration-color:#000;text-transform:none;block-progression:tb;isolation:auto;mix-blend-mode:normal"/><path fill="#474545" d="m 640.5,1116.3613 c -0.8225,0 -1.5,0.6775 -1.5,1.5 0,0.8225 0.6775,1.5 1.5,1.5 0.8225,0 1.5,-0.6775 1.5,-1.5 0,-0.8225 -0.6775,-1.5 -1.5,-1.5 z m 0,1 c 0.28206,0 0.5,0.218 0.5,0.5 0,0.2821 -0.21794,0.5 -0.5,0.5 -0.28206,0 -0.5,-0.2179 -0.5,-0.5 0,-0.282 0.21794,-0.5 0.5,-0.5 z" color="#000" font-family="sans-serif" font-weight="400" overflow="visible" white-space="normal" style="line-height:normal;text-indent:0;text-align:start;text-decoration-line:none;text-decoration-style:solid;text-decoration-color:#000;text-transform:none;block-progression:tb;isolation:auto;mix-blend-mode:normal"/><path fill="#474545" style="line-height:125%;-inkscape-font-specification:Dosis" d="M617.56442 1152.3622c.09 0 .1725-.038.195-.1275l.345-1.155 2.0775 0 .345 1.155c.03.09.105.1275.1875.1275.135 0 .3-.098.3-.2175 0-.015-.007-.03-.007-.045l-1.56-5.0925c-.0375-.1125-.165-.1725-.3-.1725-.1275 0-.255.052-.2925.1725l-1.5675 5.0925c-.008.015-.008.037-.008.053 0 .1275.1575.21.285.21zm.6675-1.71l.915-3.0225.9075 3.0225-1.8225 0zM621.93739 1146.6397c-.135 0-.24.075-.24.18l0 5.3475c0 .097.105.195.24.195.1425 0 .2475-.098.2475-.195l0-5.3475c0-.105-.105-.18-.2475-.18zM624.48762 1148.7697c-.7875 0-1.4325.63-1.4325 1.38l0 .84c0 .855.6675 1.425 1.6125 1.425.6975 0 1.125-.315 1.125-.495 0-.09-.09-.2325-.21-.2325-.165 0-.3075.3-.9.3-.66 0-1.14-.375-1.14-.975l0-.2775 1.695 0c.33 0 .6525-.023.6525-.6 0-.795-.66-1.365-1.4025-1.365zm-.945 1.605l0-.285c0-.5025.42-.915.9375-.915.555 0 .9375.465.9375.945 0 .21-.075.255-.375.255l-1.5 0zM628.3725 1149.2197c.105 0 .195-.105.195-.225 0-.12-.09-.225-.195-.225l-.2625 0c-.4875 0-.84.2925-1.005.5925l0-.3675c0-.105-.105-.18-.2325-.18-.135 0-.24.075-.24.18l0 3.1725c0 .097.105.195.24.195.1425 0 .2475-.098.2475-.195l0-1.8525c0-.6825.495-1.095.99-1.095l.2625 0zM629.58059 1149.2197l.9675 0c.0975 0 .1725-.098.1725-.2025 0-.105-.075-.2025-.1725-.2025l-.9675 0 0-1.5075c0-.105-.1275-.18-.2475-.18-.1125 0-.24.075-.24.18l0 3.9525c0 .7725.4125 1.1025 1.185 1.1025l.21 0c.135 0 .225-.105.225-.225 0-.1125-.09-.2175-.225-.2175l-.21 0c-.5175 0-.6975-.1725-.6975-.66l0-2.04z" font-family="Dosis" font-size="7.5" font-weight="400" letter-spacing="0" word-spacing="0"/><path fill="#474545" d="M608 1141.3613l0 2.5 1 0 0-1.5 1.5 0 0-1-2.5 0zM608 1155.8613l0 2.5 2.5 0 0-1-1.5 0 0-1.5-1 0z" color="#000" font-family="sans-serif" font-weight="400" overflow="visible" white-space="normal" style="line-height:normal;text-indent:0;text-align:start;text-decoration-line:none;text-decoration-style:solid;text-decoration-color:#000;text-transform:none;block-progression:tb;isolation:auto;mix-blend-mode:normal"/></g></svg>