<svg xmlns="http://www.w3.org/2000/svg" width="64" height="64" viewBox="0 0 64 64"><g transform="translate(-271.624 -965.39)"><path fill="#474545" d="m 285.62445,982.3901 35.99996,0 c 1.10801,0 2.00002,0.892 2.00002,2 l 0,23 c 0,1.108 -0.89201,2 -2.00002,2 l -35.99996,0 c -1.10801,0 -2.00002,-0.892 -2.00002,-2 l 0,-23 c 0,-1.108 0.89201,-2 2.00002,-2 z"/><path fill="#49b2d6" d="m 285.62443,984.3901 36,0 0,21 -36,0 z"/><path fill="#cfd3d6" d="m 279.62443,1007.3901 0,1.5 c 0,1.939 1.56101,3.5 3.5,3.5 l 41,0 c 1.93899,0 3.5,-1.561 3.5,-3.5 l 0,-1.5 -48,0 z"/><path fill="#eff4f7" d="m 279.62443,1007.3901 0,2 48,0 0,-2 z"/><path fill="#726f6f" d="m 309.62443,1007.3901 0,0 c 0,1.108 -0.892,2 -1.99999,2 l -8.00002,0 c -1.10799,0 -1.99999,-0.892 -1.99999,-2 l 0,0 c 2,0 9,0 12,0 z"/><path fill="#ffdc73" d="m 283.62443,990.3901 40,0 0,10 -40,0 z"/><path fill="#474545" style="line-height:125%;-inkscape-font-specification:Dosis" d="M292.83813 994.3846c.005.076.054.1352.17837.1352.12433 0 .17838-.038.17838-.2163 0-.4865-.4054-.9027-1.11351-.9027-.61621 0-1.13513.3135-1.13513 1.1514l0 1.6757c0 .8432.50811 1.1567 1.11892 1.1567.71351 0 1.12972-.4216 1.12972-.9135 0-.1784-.0541-.2216-.17838-.2216-.11351 0-.16756.054-.17837.1405-.0324.2595-.0919.6649-.73514.6649-.52432 0-.8-.2595-.8-.827l0-1.6757c0-.5622.27568-.8216.77838-.8216.64324 0 .74595.4216.75676.654zM295.00265 995.0873c.0757 0 .14054-.076.14054-.1621 0-.087-.0649-.1622-.14054-.1622l-.18919 0c-.35135 0-.6054.2108-.72432.427l0-.2648c0-.076-.0757-.1298-.16757-.1298-.0973 0-.17297.054-.17297.1298l0 2.2864c0 .07.0757.1406.17297.1406.1027 0 .17838-.07.17838-.1406l0-1.3351c0-.4919.35676-.7892.71351-.7892l.18919 0zM295.70578 994.7954c-.0973 0-.17298.054-.17298.1298l0 2.2864c0 .07.0757.1406.17298.1406.0973 0 .17837-.07.17837-.1406l0-2.2864c0-.076-.0811-.1298-.17837-.1298zm0-1.2054c-.13514 0-.24325.1027-.24325.2216 0 .119.10811.2271.24325.2271.12973 0 .23243-.1081.23243-.2271 0-.1189-.1027-.2216-.23243-.2216zM298.17283 997.217c0 .097.0919.1352.17297.1352.0865 0 .17838-.038.17838-.1352l0-1.4648c0-.4054.31892-.6649.63244-.6649.29729 0 .61621.2325.61621.6865l0 1.4378c0 .07.0811.1406.17297.1406.10271 0 .17838-.07.17838-.1406l0-1.4378c0-.6432-.44324-1.0108-.90811-1.0108-.31351 0-.63243.173-.82162.5405-.12973-.3189-.41081-.5405-.76756-.5405-.35676 0-.6.2-.71892.4108l0-.2486c0-.076-.0757-.1298-.16757-.1298-.0973 0-.17297.054-.17297.1298l0 2.2864c0 .07.0757.1406.17297.1406.0973 0 .17838-.07.17838-.1406l0-1.4378c0-.4378.32432-.6865.63784-.6865.33513 0 .61621.2811.61621.6703l0 1.4594zM301.71497 994.763c-.56756 0-1.03243.454-1.03243.9946l0 .6054c0 .6162.48108 1.027 1.16216 1.027.5027 0 .81081-.227.81081-.3567 0-.065-.0649-.1676-.15135-.1676-.11892 0-.22162.2162-.64865.2162-.47567 0-.82162-.2703-.82162-.7027l0-.2 1.22162 0c.23784 0 .47027-.016.47027-.4324 0-.573-.47567-.9838-1.01081-.9838zm-.68108 1.1567l0-.2054c0-.3621.30271-.6594.67568-.6594.4 0 .67567.3351.67567.6811 0 .1513-.054.1837-.27027.1837l-1.08108 0zM305.27823 997.0549c-.67568 0-.78379-.4487-.92433-.4487-.0811 0-.16216.1135-.16216.2 0 .1946.41622.5838 1.10811.5838.66486 0 1.14054-.3459 1.14054-1.1135 0-1.4973-1.79459-.9297-1.79459-1.9351 0-.4811.38378-.6271.78378-.6271.47567 0 .65405.2055.75676.2055.0973 0 .15675-.1298.15675-.2 0-.1946-.5027-.3298-.9081-.3298-.50271 0-1.14595.1946-1.14595.9838 0 1.3189 1.79459.7351 1.79459 1.9351 0 .4919-.3027.746-.8054.746zM307.96547 997.39c.47568 0 .78919-.2108.78919-.3567 0-.081-.0649-.173-.16216-.173-.10811 0-.1946.2054-.61081.2054-.47568 0-.71352-.2649-.71352-.7027l0-.5784c0-.4324.23784-.6973.70811-.6973.39459 0 .48649.2.58919.2.0865 0 .15676-.097.15676-.173 0-.1459-.30271-.3513-.76216-.3513-.71892 0-1.04325.4486-1.04325 1.0216l0 .5784c0 .5892.32973 1.027 1.04865 1.027zM310.12924 994.763c-.56757 0-1.03243.454-1.03243.9946l0 .6054c0 .6162.48107 1.027 1.16216 1.027.5027 0 .8108-.227.8108-.3567 0-.065-.0649-.1676-.15135-.1676-.11892 0-.22162.2162-.64864.2162-.47568 0-.82163-.2703-.82163-.7027l0-.2 1.22162 0c.23784 0 .47028-.016.47028-.4324 0-.573-.47568-.9838-1.01081-.9838zm-.68109 1.1567l0-.2054c0-.3621.30271-.6594.67568-.6594.4 0 .67567.3351.67567.6811 0 .1513-.054.1837-.27027.1837l-1.08108 0zM312.02645 995.7738c0-.4324.32432-.6865.64324-.6865.37297 0 .67567.3406.67567.6865l0 1.4378c0 .092.0919.1406.17298.1406.0865 0 .17837-.049.17837-.1406l0-1.4378c0-.5568-.44324-1.0108-.96216-1.0108-.36216 0-.61081.2-.72432.4108l0-.2486c0-.076-.0757-.1298-.16216-.1298-.1027 0-.17298.054-.17298.1298l0 2.2864c0 .07.0703.1406.17298.1406.0973 0 .17838-.07.17838-.1406l0-1.4378zM315.29181 994.763c-.56756 0-1.03243.454-1.03243.9946l0 .6054c0 .6162.48108 1.027 1.16216 1.027.5027 0 .81081-.227.81081-.3567 0-.065-.0649-.1676-.15135-.1676-.11892 0-.22162.2162-.64865.2162-.47567 0-.82162-.2703-.82162-.7027l0-.2 1.22162 0c.23784 0 .47027-.016.47027-.4324 0-.573-.47567-.9838-1.01081-.9838zm-.68108 1.1567l0-.2054c0-.3621.3027-.6594.67568-.6594.4 0 .67567.3351.67567.6811 0 .1513-.0541.1837-.27027.1837l-1.08108 0z" font-family="Dosis" font-weight="400" letter-spacing="0" word-spacing="0"/><path fill="#474545" d="M283.62443 991.3901l0 1 .5-1-.5 0zm1.5 0l-.5 1 1 0 .5-1-1 0zm2 0l-.5 1 1 0 .5-1-1 0zm2 0l-.5 1 1 0 .5-1-1 0zm2 0l-.5 1 1 0 .5-1-1 0zm2 0l-.5 1 1 0 .5-1-1 0zm2 0l-.5 1 1 0 .5-1-1 0zm2 0l-.5 1 1 0 .5-1-1 0zm2 0l-.5 1 1 0 .5-1-1 0zm2 0l-.5 1 1 0 .5-1-1 0zm2 0l-.5 1 1 0 .5-1-1 0zm2 0l-.5 1 1 0 .5-1-1 0zm2 0l-.5 1 1 0 .5-1-1 0zm2 0l-.5 1 1 0 .5-1-1 0zm2 0l-.5 1 1 0 .5-1-1 0zm2 0l-.5 1 1 0 .5-1-1 0zm2 0l-.5 1 1 0 .5-1-1 0zm2 0l-.5 1 1 0 .5-1-1 0zm2 0l-.5 1 1 0 .5-1-1 0zm2 0l-.5 1 1 0 .5-1-1 0zm2 0l-.5 1 1 0 0-1-.5 0zM283.62443 998.3901l0 1 .5-1-.5 0zm1.5 0l-.5 1 1 0 .5-1-1 0zm2 0l-.5 1 1 0 .5-1-1 0zm2 0l-.5 1 1 0 .5-1-1 0zm2 0l-.5 1 1 0 .5-1-1 0zm2 0l-.5 1 1 0 .5-1-1 0zm2 0l-.5 1 1 0 .5-1-1 0zm2 0l-.5 1 1 0 .5-1-1 0zm2 0l-.5 1 1 0 .5-1-1 0zm2 0l-.5 1 1 0 .5-1-1 0zm2 0l-.5 1 1 0 .5-1-1 0zm2 0l-.5 1 1 0 .5-1-1 0zm2 0l-.5 1 1 0 .5-1-1 0zm2 0l-.5 1 1 0 .5-1-1 0zm2 0l-.5 1 1 0 .5-1-1 0zm2 0l-.5 1 1 0 .5-1-1 0zm2 0l-.5 1 1 0 .5-1-1 0zm2 0l-.5 1 1 0 .5-1-1 0zm2 0l-.5 1 1 0 .5-1-1 0zm2 0l-.5 1 1 0 .5-1-1 0zm2 0l-.5 1 1 0 0-1-.5 0z"/></g></svg>