<svg xmlns="http://www.w3.org/2000/svg" width="64" height="64" viewBox="0 0 64 64"><g transform="translate(-748 -1051.362)"><path fill="#f47b9f" d="M794 1091.3613l0 1 7.79297 0 3 3 2.70703 0 0-1-2.29297 0-3-3-8.20703 0zM794 1096.3613l0 1 5.79297 0 1.20703 1.2071 0 1.2929 1 0 0-1.707-1.79297-1.793-6.20703 0z" color="#000" font-family="sans-serif" font-weight="400" overflow="visible" white-space="normal" style="line-height:normal;text-indent:0;text-align:start;text-decoration-line:none;text-decoration-style:solid;text-decoration-color:#000;text-transform:none;block-progression:tb;isolation:auto;mix-blend-mode:normal"/><path fill="#f47b9f" d="M801.5 1099.3613c-.8225 0-1.5.6775-1.5 1.5 0 .8225.6775 1.5 1.5 1.5.8225 0 1.5-.6775 1.5-1.5 0-.8225-.6775-1.5-1.5-1.5zm0 1c.28206 0 .5.218.5.5 0 .2821-.21794.5-.5.5-.28206 0-.5-.2179-.5-.5 0-.282.21794-.5.5-.5zM808.5 1093.3613c-.8225 0-1.5.6775-1.5 1.5 0 .8225.6775 1.5 1.5 1.5.8225 0 1.5-.6775 1.5-1.5 0-.8225-.6775-1.5-1.5-1.5zm0 1c.28206 0 .5.218.5.5 0 .2821-.21794.5-.5.5-.28206 0-.5-.2179-.5-.5 0-.282.21794-.5.5-.5zM804.79297 1084.3613l-3 3-7.79297 0 0 1 8.20703 0 3-3 2.29297 0 0-1-2.70703 0zM801 1079.8613l0 1.293-1.20703 1.207-5.79297 0 0 1 6.20703 0 1.79297-1.7929 0-1.7071-1 0z" color="#000" font-family="sans-serif" font-weight="400" overflow="visible" white-space="normal" style="line-height:normal;text-indent:0;text-align:start;text-decoration-line:none;text-decoration-style:solid;text-decoration-color:#000;text-transform:none;block-progression:tb;isolation:auto;mix-blend-mode:normal"/><path fill="#f47b9f" d="M801.5 1077.3613c-.8225 0-1.5.6775-1.5 1.5 0 .8225.6775 1.5 1.5 1.5.8225 0 1.5-.6775 1.5-1.5 0-.8225-.6775-1.5-1.5-1.5zm0 1c.28206 0 .5.218.5.5 0 .2821-.21794.5-.5.5-.28206 0-.5-.2179-.5-.5 0-.282.21794-.5.5-.5zM808.5 1083.3613c-.8225 0-1.5.6775-1.5 1.5 0 .8225.6775 1.5 1.5 1.5.8225 0 1.5-.6775 1.5-1.5 0-.8225-.6775-1.5-1.5-1.5zm0 1c.28206 0 .5.218.5.5 0 .2821-.21794.5-.5.5-.28206 0-.5-.2179-.5-.5 0-.282.21794-.5.5-.5zM757.79297 1091.3613l-3 3-2.29297 0 0 1 2.70703 0 3-3 7.79297 0 0-1-8.20703 0zM759.79297 1096.3613l-1.79297 1.793 0 1.707 1 0 0-1.2929 1.20703-1.2071 5.79297 0 0-1-6.20703 0z" color="#000" font-family="sans-serif" font-weight="400" overflow="visible" white-space="normal" style="line-height:normal;text-indent:0;text-align:start;text-decoration-line:none;text-decoration-style:solid;text-decoration-color:#000;text-transform:none;block-progression:tb;isolation:auto;mix-blend-mode:normal"/><path fill="#f47b9f" d="M758.5 1099.3613c-.8225 0-1.5.6775-1.5 1.5 0 .8225.6775 1.5 1.5 1.5.8225 0 1.5-.6775 1.5-1.5 0-.8225-.6775-1.5-1.5-1.5zm0 1c.28206 0 .5.218.5.5 0 .2821-.21794.5-.5.5-.28206 0-.5-.2179-.5-.5 0-.282.21794-.5.5-.5zM751.5 1093.3613c-.8225 0-1.5.6775-1.5 1.5 0 .8225.6775 1.5 1.5 1.5.8225 0 1.5-.6775 1.5-1.5 0-.8225-.6775-1.5-1.5-1.5zm0 1c.28206 0 .5.218.5.5 0 .2821-.21794.5-.5.5-.28206 0-.5-.2179-.5-.5 0-.282.21794-.5.5-.5zM752.5 1084.3613l0 1 2.29297 0 3 3 8.20703 0 0-1-7.79297 0-3-3-2.70703 0zM758 1079.8613l0 1.7071 1.79297 1.7929 6.20703 0 0-1-5.79297 0-1.20703-1.207 0-1.293-1 0z" color="#000" font-family="sans-serif" font-weight="400" overflow="visible" white-space="normal" style="line-height:normal;text-indent:0;text-align:start;text-decoration-line:none;text-decoration-style:solid;text-decoration-color:#000;text-transform:none;block-progression:tb;isolation:auto;mix-blend-mode:normal"/><path fill="#f47b9f" d="M758.5 1077.3613c-.8225 0-1.5.6775-1.5 1.5 0 .8225.6775 1.5 1.5 1.5.8225 0 1.5-.6775 1.5-1.5 0-.8225-.6775-1.5-1.5-1.5zm0 1c.28206 0 .5.218.5.5 0 .2821-.21794.5-.5.5-.28206 0-.5-.2179-.5-.5 0-.282.21794-.5.5-.5zM751.5 1083.3613c-.8225 0-1.5.6775-1.5 1.5 0 .8225.6775 1.5 1.5 1.5.8225 0 1.5-.6775 1.5-1.5 0-.8225-.6775-1.5-1.5-1.5zm0 1c.28206 0 .5.218.5.5 0 .2821-.21794.5-.5.5-.28206 0-.5-.2179-.5-.5 0-.282.21794-.5.5-.5zM787 1066.8613l0 2.293-5 5 0 7.207 1 0 0-6.7929 5-5 0-2.7071-1 0z" color="#000" font-family="sans-serif" font-weight="400" overflow="visible" white-space="normal" style="line-height:normal;text-indent:0;text-align:start;text-decoration-line:none;text-decoration-style:solid;text-decoration-color:#000;text-transform:none;block-progression:tb;isolation:auto;mix-blend-mode:normal"/><path fill="#f47b9f" d="M787.5 1064.3613c-.8225 0-1.5.6775-1.5 1.5 0 .8225.6775 1.5 1.5 1.5.8225 0 1.5-.6775 1.5-1.5 0-.8225-.6775-1.5-1.5-1.5zm0 1c.28206 0 .5.218.5.5 0 .2821-.21794.5-.5.5-.28206 0-.5-.2179-.5-.5 0-.282.21794-.5.5-.5zM773 1066.8613l0 2.7071 5 5 0 6.7929 1 0 0-7.207-5-5 0-2.293-1 0zM787.79297 1073.3613l-1.79297 1.793 0 6.207 1 0 0-5.7929 1.20703-1.2071 2.29297 0 0-1-2.70703 0zM769.5 1073.3613l0 1 2.29297 0 1.20703 1.2071 0 5.7929 1 0 0-6.207-1.79297-1.793-2.70703 0z" color="#000" font-family="sans-serif" font-weight="400" overflow="visible" white-space="normal" style="line-height:normal;text-indent:0;text-align:start;text-decoration-line:none;text-decoration-style:solid;text-decoration-color:#000;text-transform:none;block-progression:tb;isolation:auto;mix-blend-mode:normal"/><path fill="#474545" d="m 780.5,1092.3622 a 0.5,0.5 0 0 1 -0.5,0.5 0.5,0.5 0 0 1 -0.5,-0.5 0.5,0.5 0 0 1 0.5,-0.5 0.5,0.5 0 0 1 0.5,0.5 z"/><path fill="#f47b9f" d="m 768.5,1072.3613 c -0.8225,0 -1.5,0.6775 -1.5,1.5 0,0.8225 0.6775,1.5 1.5,1.5 0.8225,0 1.5,-0.6775 1.5,-1.5 0,-0.8225 -0.6775,-1.5 -1.5,-1.5 z m 0,1 c 0.28206,0 0.5,0.218 0.5,0.5 0,0.2821 -0.21794,0.5 -0.5,0.5 -0.28206,0 -0.5,-0.2179 -0.5,-0.5 0,-0.282 0.21794,-0.5 0.5,-0.5 z" color="#000" font-family="sans-serif" font-weight="400" overflow="visible" white-space="normal" style="line-height:normal;text-indent:0;text-align:start;text-decoration-line:none;text-decoration-style:solid;text-decoration-color:#000;text-transform:none;block-progression:tb;isolation:auto;mix-blend-mode:normal"/><path fill="none" stroke="#f47b9f" d="m 792.5,1073.8622 a 1,1 0 0 1 -1,1 1,1 0 0 1 -1,-1 1,1 0 0 1 1,-1 1,1 0 0 1 1,1 z"/><path fill="#f47b9f" d="m 773.5,1064.3613 c -0.8225,0 -1.5,0.6775 -1.5,1.5 0,0.8225 0.6775,1.5 1.5,1.5 0.8225,0 1.5,-0.6775 1.5,-1.5 0,-0.8225 -0.6775,-1.5 -1.5,-1.5 z m 0,1 c 0.28206,0 0.5,0.218 0.5,0.5 0,0.2821 -0.21794,0.5 -0.5,0.5 -0.28206,0 -0.5,-0.2179 -0.5,-0.5 0,-0.282 0.21794,-0.5 0.5,-0.5 z" color="#000" font-family="sans-serif" font-weight="400" overflow="visible" white-space="normal" style="line-height:normal;text-indent:0;text-align:start;text-decoration-line:none;text-decoration-style:solid;text-decoration-color:#000;text-transform:none;block-progression:tb;isolation:auto;mix-blend-mode:normal"/><path fill="#474545" d="m 766.00002,1080.3622 27.99996,0 c 0.55401,0 1.00002,0.4672 1.00002,1.0476 l 0,19.9047 c 0,0.5804 -0.44601,1.0477 -1.00002,1.0477 l -27.99996,0 c -0.55401,0 -1.00002,-0.4673 -1.00002,-1.0477 l 0,-19.9047 c 0,-0.5804 0.44601,-1.0476 1.00002,-1.0476 z"/><path fill="#cfd3d6" d="m 798,1100.3622 c 0,1.108 -0.892,2 -2,2 l -32,0 c -1.108,0 -2,-0.892 -2,-2 3,0 31,0 36,0 z"/><path fill="#eff4f7" d="m 762,1099.3622 0,1 36,0 0,-1 z"/><path fill="#726f6f" d="m 784,1099.3622 c 0,0.554 -0.446,1 -1.00001,1 l -5.99998,0 c -0.55401,0 -1.00001,-0.446 -1.00001,-1 1,0 5,0 8,0 z"/><path fill="#49b2d6" d="m 767,1082.3622 26,0 0,15 -26,0 z"/><path fill="#eff4f7" d="m 780,96 c -2.493,0 -4.5,2.007 -4.5,4.5 l 0,0.32812 0,2.17188 c 0,1.108 0.89199,2 2,2 l 0,2 c 0,0.554 0.446,1 1,1 l 3,0 c 0.554,0 1,-0.446 1,-1 l 0,-2 c 1.10801,0 2,-0.892 2,-2 l 0,-2.17188 0,-0.32812 c 0,-2.493 -2.007,-4.5 -4.5,-4.5 z" transform="translate(0 988.362)"/><path fill="#726f6f" fill-rule="evenodd" d="M778.5 1094.3613l0 2 1 0 0-2-1 0zM780.5 1094.3613l0 2 1 0 0-2-1 0z" color="#000" font-family="sans-serif" font-weight="400" overflow="visible" white-space="normal" style="line-height:normal;text-indent:0;text-align:start;text-decoration-line:none;text-decoration-style:solid;text-decoration-color:#000;text-transform:none;block-progression:tb;isolation:auto;mix-blend-mode:normal"/><path fill="#726f6f" d="m 777.5,99.134766 c -0.35029,0.2022 -0.54499,0.595092 -0.49219,0.996094 0.0528,0.401 0.34174,0.73124 0.73242,0.83594 0.39069,0.1047 0.80653,-0.0365 1.05274,-0.35742 0.2462,-0.3209 0.27446,-0.75908 0.0723,-1.10938 L 777.5,99.134766 Z m 5,0 L 781.13477,99.5 c -0.2022,0.350265 -0.17394,0.7885 0.0723,1.10938 0.24621,0.32088 0.66205,0.46209 1.05274,0.35742 0.39067,-0.10469 0.67963,-0.43494 0.73242,-0.83594 0.0528,-0.400987 -0.14193,-0.793872 -0.49219,-0.996094 z M 780,102 l -1,2 2,0 -1,-2 z" transform="translate(0 988.362)"/></g></svg>