<svg xmlns="http://www.w3.org/2000/svg" width="64" height="64" viewBox="0 0 64 64"><g transform="translate(-818 -1220.362)"><path fill="#474545" fill-rule="evenodd" style="line-height:normal;text-indent:0;text-align:start;text-decoration-line:none;text-decoration-style:solid;text-decoration-color:#000;text-transform:none;block-progression:tb;isolation:auto;mix-blend-mode:normal" d="M861.24219 1259.9258l-.48438.873 8.74219 4.8574 0 8.7051 1 0 0-9.2929zM838.75781 1259.9258l-9.25781 5.1426 0 9.2929 1 0 0-8.7051 8.74219-4.8574zM869.5 1233.3613l0 8.7071-8.74219 4.8574.48438.873 9.25781-5.1426 0-9.2949zM829.5 1233.3613l0 9.2949 9.25781 5.1426.48438-.873-8.74219-4.8574 0-8.7071zM860 1255.8613l0 1 17 0 0-1zM823 1255.8613l0 1 17 0 0-1zM849.5 1224.3613l0 11 1 0 0-11zM849.5 1266.3613l0 13 1 0 0-13z" color="#000" font-family="sans-serif" font-weight="400" overflow="visible" white-space="normal"/><path fill="#dfe3e6" style="line-height:normal;text-indent:0;text-align:start;text-decoration-line:none;text-decoration-style:solid;text-decoration-color:#000;text-transform:none;block-progression:tb;isolation:auto;mix-blend-mode:normal" d="m 850,1234.3613 c -4.39519,0 -7.98828,3.568 -7.98828,7.9512 l 0,8.5996 a 1.50015,1.50015 0 1 0 3,0 l 0,-8.5996 c 0,-2.7634 2.19349,-4.9512 4.98828,-4.9512 2.79479,0 4.98828,2.1878 4.98828,4.9512 l 0,0.5488 a 1.50015,1.50015 0 1 0 3,0 l 0,-0.5488 c 0,-4.3832 -3.59309,-7.9512 -7.98828,-7.9512 z" color="#000" font-family="sans-serif" font-weight="400" overflow="visible" white-space="normal"/><path fill="#49b2d6" d="m 839.00002,1246.3622 21.99996,0 c 0.55401,0 1.00002,0.446 1.00002,1 l 0,20 c 0,0.554 -0.44601,1 -1.00002,1 l -21.99996,0 c -0.55401,0 -1.00002,-0.446 -1.00002,-1 l 0,-20 c 0,-0.554 0.44601,-1 1.00002,-1 z"/><path fill="#eff4f7" fill-rule="evenodd" d="m 838,1266.3622 24,0 0,-6 -24,0 z"/><path fill="#5e5c5c" d="M841 1262.3622l2 0 0 2-2 0zM845 1262.3622l2 0 0 2-2 0zM849 1262.3622l2 0 0 2-2 0zM853 1262.3622l2 0 0 2-2 0zM857 1262.3622l2 0 0 2-2 0z"/><path fill="#474545" d="m 852,1252.3622 a 2,2 0 0 1 -2,2 2,2 0 0 1 -2,-2 2,2 0 0 1 2,-2 2,2 0 0 1 2,2 z"/><path fill="#474545" d="m 849,1252.3622 2,0 0,5 -2,0 z"/><path fill="#dfe3e6" d="M848 1222.3622l4 0 0 4-4 0zM876 1254.3622l4 0 0 4-4 0zM848 1278.3622l4 0 0 4-4 0zM820 1254.3622l4 0 0 4-4 0z"/><path fill="#f4608a" d="M828 1272.3622l4 0 0 4-4 0zM868 1272.3622l4 0 0 4-4 0zM828 1231.3622l4 0 0 4-4 0zM868 1231.3622l4 0 0 4-4 0z"/><path fill="#726f6f" d="M831 1265.3622a1 1 0 0 1-1 1 1 1 0 0 1-1-1 1 1 0 0 1 1-1 1 1 0 0 1 1 1zM871 1265.3622a1 1 0 0 1-1 1 1 1 0 0 1-1-1 1 1 0 0 1 1-1 1 1 0 0 1 1 1zM831 1242.3622a1 1 0 0 1-1 1 1 1 0 0 1-1-1 1 1 0 0 1 1-1 1 1 0 0 1 1 1zM871 1242.3622a1 1 0 0 1-1 1 1 1 0 0 1-1-1 1 1 0 0 1 1-1 1 1 0 0 1 1 1z"/></g></svg>