<svg xmlns="http://www.w3.org/2000/svg" width="64" height="64" viewBox="0 0 64 64"><g transform="translate(-593 -995.362)"><path fill="#474545" fill-rule="evenodd" style="line-height:normal;text-indent:0;text-align:start;text-decoration-line:none;text-decoration-style:solid;text-decoration-color:#000;text-transform:none;block-progression:tb;isolation:auto;mix-blend-mode:normal" d="M636.24219 1034.9258l-.48438.873 8.74219 4.8574 0 8.7051 1 0 0-9.2929-9.25781-5.1426zM613.75781 1034.9258l-9.25781 5.1426 0 9.2929 1 0 0-8.7051 8.74219-4.8574-.48438-.873zM644.5 1008.3613l0 8.7071-8.74219 4.8574.48438.873 9.25781-5.1426 0-9.2949-1 0zM604.5 1008.3613l0 9.2949 9.25781 5.1426.48438-.873-8.74219-4.8574 0-8.7071-1 0zM635 1030.8613l0 1 17 0 0-1-17 0zM598 1030.8613l0 1 17 0 0-1-17 0zM624.5 999.36133l0 10.99997 1 0 0-10.99997zM624.5 1041.3613l0 13 1 0 0-13-1 0z" color="#000" font-family="sans-serif" font-weight="400" overflow="visible" white-space="normal"/><path fill="#dfe3e6" d="m 625,21 c -4.39519,0 -7.98828,3.567972 -7.98828,7.951172 l 0,6.048828 3,0 0,-6.048828 C 620.01172,26.187772 622.20521,24 625,24 c 2.79479,0 4.98828,2.187772 4.98828,4.951172 l 0,6.048828 3,0 0,-6.048828 C 632.98828,24.567972 629.39519,21 625,21 Z" color="#000" font-family="sans-serif" font-weight="400" overflow="visible" transform="translate(0 988.362)" white-space="normal" style="line-height:normal;text-indent:0;text-align:start;text-decoration-line:none;text-decoration-style:solid;text-decoration-color:#000;text-transform:none;block-progression:tb;isolation:auto;mix-blend-mode:normal"/><path fill="#49b2d6" d="m 614.00002,1021.3622 21.99996,0 c 0.55401,0 1.00002,0.446 1.00002,1 l 0,20 c 0,0.554 -0.44601,1 -1.00002,1 l -21.99996,0 c -0.55401,0 -1.00002,-0.446 -1.00002,-1 l 0,-20 c 0,-0.554 0.44601,-1 1.00002,-1 z"/><path fill="#eff4f7" fill-rule="evenodd" d="m 613,1041.3622 24,0 0,-6 -24,0 z"/><path fill="#5e5c5c" d="M616 1037.3622l2 0 0 2-2 0zM620 1037.3622l2 0 0 2-2 0zM624 1037.3622l2 0 0 2-2 0zM628 1037.3622l2 0 0 2-2 0zM632 1037.3622l2 0 0 2-2 0z"/><path fill="#474545" d="m 627,1027.3622 a 2,2 0 0 1 -2,2 2,2 0 0 1 -2,-2 2,2 0 0 1 2,-2 2,2 0 0 1 2,2 z"/><path fill="#474545" d="m 624,1027.3622 2,0 0,5 -2,0 z"/><path fill="#dfe3e6" d="M623 997.36218l4 0 0 4.00002-4 0zM651 1029.3622l4 0 0 4-4 0zM623 1053.3622l4 0 0 4-4 0zM595 1029.3622l4 0 0 4-4 0z"/><path fill="#f4608a" d="M603 1047.3622l4 0 0 4-4 0zM643 1047.3622l4 0 0 4-4 0zM603 1006.3622l4 0 0 4-4 0zM643 1006.3622l4 0 0 4-4 0z"/><path fill="#726f6f" d="M606 1040.3622a1 1 0 0 1-1 1 1 1 0 0 1-1-1 1 1 0 0 1 1-1 1 1 0 0 1 1 1zM646 1040.3622a1 1 0 0 1-1 1 1 1 0 0 1-1-1 1 1 0 0 1 1-1 1 1 0 0 1 1 1zM606 1017.3622a1 1 0 0 1-1 1 1 1 0 0 1-1-1 1 1 0 0 1 1-1 1 1 0 0 1 1 1zM646 1017.3622a1 1 0 0 1-1 1 1 1 0 0 1-1-1 1 1 0 0 1 1-1 1 1 0 0 1 1 1z"/></g></svg>