<svg xmlns="http://www.w3.org/2000/svg" width="64" height="64" viewBox="0 0 64 64"><g transform="translate(-341.624 -960.39)"><path fill="#eff4f7" d="m 367.62445,1002.3901 27.99996,0 c 0.55401,0 1.00002,0.446 1.00002,1 l 0,8 c 0,0.554 -0.44601,1 -1.00002,1 l -27.99996,0 c -0.55401,0 -1.00002,-0.446 -1.00002,-1 l 0,-8 c 0,-0.554 0.44601,-1 1.00002,-1 z"/><path fill="#cfd3d6" d="m 367.62445,1006.3901 27.99996,0 c 0.55401,0 1.00002,0.446 1.00002,1 l 0,3.9999 c 0,0.5541 -0.44601,1.0001 -1.00002,1.0001 l -27.99996,0 c -0.55401,0 -1.00002,-0.446 -1.00002,-1.0001 l 0,-3.9999 c 0,-0.554 0.44601,-1 1.00002,-1 z"/><path fill="#dfe3e6" d="m 367.62445,1004.3901 27.99996,0 c 0.55401,0 1.00002,0.446 1.00002,1 l 0,3.9999 c 0,0.554 -0.44601,1 -1.00002,1 l -27.99996,0 c -0.55401,0 -1.00002,-0.446 -1.00002,-1 l 0,-3.9999 c 0,-0.554 0.44601,-1 1.00002,-1 z"/><path fill="#eff4f7" d="m 367.62445,992.3901 27.99996,0 c 0.55401,0 1.00002,0.446 1.00002,1 l 0,8 c 0,0.554 -0.44601,1 -1.00002,1 l -27.99996,0 c -0.55401,0 -1.00002,-0.446 -1.00002,-1 l 0,-8 c 0,-0.554 0.44601,-1 1.00002,-1 z"/><path fill="#cfd3d6" d="m 367.62445,996.3901 27.99996,0 c 0.55401,0 1.00002,0.446 1.00002,1 l 0,3.9999 c 0,0.5541 -0.44601,1.0001 -1.00002,1.0001 l -27.99996,0 c -0.55401,0 -1.00002,-0.446 -1.00002,-1.0001 l 0,-3.9999 c 0,-0.554 0.44601,-1 1.00002,-1 z"/><path fill="#dfe3e6" d="m 367.62445,994.3901 27.99996,0 c 0.55401,0 1.00002,0.446 1.00002,1 l 0,3.9999 c 0,0.554 -0.44601,1 -1.00002,1 l -27.99996,0 c -0.55401,0 -1.00002,-0.446 -1.00002,-1 l 0,-3.9999 c 0,-0.554 0.44601,-1 1.00002,-1 z"/><path fill="#eff4f7" d="m 367.62445,982.3901 27.99996,0 c 0.55401,0 1.00002,0.446 1.00002,1 l 0,8 c 0,0.554 -0.44601,1 -1.00002,1 l -27.99996,0 c -0.55401,0 -1.00002,-0.446 -1.00002,-1 l 0,-8 c 0,-0.554 0.44601,-1 1.00002,-1 z"/><path fill="#cfd3d6" d="m 367.62445,986.3901 27.99996,0 c 0.55401,0 1.00002,0.446 1.00002,1 l 0,3.9999 c 0,0.5541 -0.44601,1.0001 -1.00002,1.0001 l -27.99996,0 c -0.55401,0 -1.00002,-0.446 -1.00002,-1.0001 l 0,-3.9999 c 0,-0.554 0.44601,-1 1.00002,-1 z"/><path fill="#dfe3e6" d="m 367.62445,984.3901 27.99996,0 c 0.55401,0 1.00002,0.446 1.00002,1 l 0,3.9999 c 0,0.554 -0.44601,1 -1.00002,1 l -27.99996,0 c -0.55401,0 -1.00002,-0.446 -1.00002,-1 l 0,-3.9999 c 0,-0.554 0.44601,-1 1.00002,-1 z"/><path fill="#eff4f7" d="m 367.62445,972.3901 27.99996,0 c 0.55401,0 1.00002,0.446 1.00002,1 l 0,8 c 0,0.554 -0.44601,1 -1.00002,1 l -27.99996,0 c -0.55401,0 -1.00002,-0.446 -1.00002,-1 l 0,-8 c 0,-0.554 0.44601,-1 1.00002,-1 z"/><path fill="#cfd3d6" d="m 367.62445,976.3901 27.99996,0 c 0.55401,0 1.00002,0.446 1.00002,1 l 0,3.9999 c 0,0.5541 -0.44601,1.0001 -1.00002,1.0001 l -27.99996,0 c -0.55401,0 -1.00002,-0.446 -1.00002,-1.0001 l 0,-3.9999 c 0,-0.554 0.44601,-1 1.00002,-1 z"/><path fill="#dfe3e6" d="m 367.62445,974.3901 27.99996,0 c 0.55401,0 1.00002,0.446 1.00002,1 l 0,3.9999 c 0,0.554 -0.44601,1 -1.00002,1 l -27.99996,0 c -0.55401,0 -1.00002,-0.446 -1.00002,-1 l 0,-3.9999 c 0,-0.554 0.44601,-1 1.00002,-1 z"/><path fill="#5e5c5c" d="M376.62443 976.3901l2 0 0 2-2 0zM380.62443 976.3901l2 0 0 2-2 0zM384.62443 976.3901l2 0 0 2-2 0zM376.62443 986.3901l2 0 0 2-2 0zM380.62443 986.3901l2 0 0 2-2 0zM384.62443 986.3901l2 0 0 2-2 0zM376.62443 996.3901l2 0 0 2-2 0zM380.62443 996.3901l2 0 0 2-2 0zM384.62443 996.3901l2 0 0 2-2 0zM376.62443 1006.3901l2 0 0 2-2 0zM380.62443 1006.3901l2 0 0 2-2 0zM384.62443 1006.3901l2 0 0 2-2 0z"/><path fill="#5e5c5c" style="line-height:normal;text-indent:0;text-align:start;text-decoration-line:none;text-decoration-style:solid;text-decoration-color:#000;text-transform:none;block-progression:tb;isolation:auto;mix-blend-mode:normal" d="m 362.62443,978.3901 c -4.39519,0 -7.98828,3.568 -7.98828,7.9512 l 0,6.0488 3,0 0,-6.0488 c 0,-2.7634 2.19349,-4.9512 4.98828,-4.9512 2.79479,0 4.98828,2.1878 4.98828,4.9512 l 0,6.0488 3,0 0,-6.0488 c 0,-4.3832 -3.59309,-7.9512 -7.98828,-7.9512 z" color="#000" font-family="sans-serif" font-weight="400" overflow="visible" white-space="normal"/><path fill="#49b2d6" d="m 351.62445,990.3901 21.99996,0 c 0.55401,0 1.00002,0.446 1.00002,1 l 0,20 c 0,0.554 -0.44601,1 -1.00002,1 l -21.99996,0 c -0.55401,0 -1.00002,-0.446 -1.00002,-1 l 0,-20 c 0,-0.554 0.44601,-1 1.00002,-1 z"/><path fill="#eff4f7" fill-rule="evenodd" d="m 350.62443,1010.3901 24,0 0,-6 -24,0 z"/><path fill="#5e5c5c" d="M353.62443 1006.3901l2 0 0 2-2 0zM357.62443 1006.3901l2 0 0 2-2 0zM361.62443 1006.3901l2 0 0 2-2 0zM365.62443 1006.3901l2 0 0 2-2 0zM369.62443 1006.3901l2 0 0 2-2 0z"/><path fill="#474545" d="m 364.62443,996.3901 a 2,2 0 0 1 -2,2 2,2 0 0 1 -2,-2 2,2 0 0 1 2,-2 2,2 0 0 1 2,2 z"/><path fill="#474545" d="m 361.62443,996.3901 2,0 0,5 -2,0 z"/></g></svg>