<svg xmlns="http://www.w3.org/2000/svg" width="64" height="64" viewBox="0 0 64 64"><g transform="translate(-818 -1165.362)"><path fill="#474545" d="m 832.00002,1182.3622 35.99996,0 c 1.10801,0 2.00002,0.892 2.00002,2 l 0,23 c 0,1.108 -0.89201,2 -2.00002,2 l -35.99996,0 c -1.10801,0 -2.00002,-0.892 -2.00002,-2 l 0,-23 c 0,-1.108 0.89201,-2 2.00002,-2 z"/><path fill="#49b2d6" d="m 832,1184.3622 36,0 0,21 -36,0 z"/><path fill="#cfd3d6" d="m 826,1207.3622 0,1.5 c 0,1.939 1.56101,3.5 3.5,3.5 l 41,0 c 1.93899,0 3.5,-1.561 3.5,-3.5 l 0,-1.5 -48,0 z"/><path fill="#eff4f7" d="m 826,1207.3622 0,2 48,0 0,-2 z"/><path fill="#726f6f" d="m 856,1207.3622 0,0 c 0,1.108 -0.892,2 -1.99999,2 l -8.00002,0 c -1.10799,0 -1.99999,-0.892 -1.99999,-2 l 0,0 c 2,0 9,0 12,0 z"/><path fill="#ffcb59" d="m 841,1190.3622 16,0 c 0.554,0 1,0.446 1,1 l 0,11 c 0,0.554 -0.446,1 -1,1 l -16,0 c -0.554,0 -1,-0.446 -1,-1 l 0,-11 c 0,-0.554 0.446,-1 1,-1 z"/><path fill="#ffcb59" d="m 841.02857,1187.3622 3.94286,0 c 0.56983,0 1.02857,0.446 1.02857,1 l 0,13 c 0,0.554 -0.45874,1 -1.02857,1 l -3.94286,0 c -0.56983,0 -1.02857,-0.446 -1.02857,-1 l 0,-13 c 0,-0.554 0.45874,-1 1.02857,-1 z"/><path fill="#ffdc73" d="m 844,1192.3622 14,0 c 0.554,0 1,0.446 1,1 l 0,9 c 0,0.554 -0.446,1 -1,1 l -14,0 c -0.554,0 -1,-0.446 -1,-1 l 0,-9 c 0,-0.554 0.446,-1 1,-1 z"/><path fill="#ffcb59" d="m 847,1190.3622 c -0.554,0 -1,-0.446 -1,-1 l 0,1 z"/><path fill="#ffdc73" d="M844 1203.3622c-.554 0-1-.446-1-1l0 1zM842 1203.3622c.554 0 1-.446 1-1l0 1z"/><path fill="none" stroke="#474545" d="m 848.5,1201.3622 0,-1"/><path fill="#474545" fill-rule="evenodd" d="M849 1199.3613l0 1 1 0 0-1-1 0zM850 1200.3613l0 1 1 0 0-1-1 0zM851 1199.3613l0 1 1 0 0-1-1 0zM852 1200.3613l0 1 1 0 0-1-1 0zM853 1199.3613l0 1 1 0 0-1-1 0zM854 1200.3613l0 1 1 0 0-1-1 0z" color="#000" font-family="sans-serif" font-weight="400" overflow="visible" white-space="normal" style="line-height:normal;text-indent:0;text-align:start;text-decoration-line:none;text-decoration-style:solid;text-decoration-color:#000;text-transform:none;block-progression:tb;isolation:auto;mix-blend-mode:normal"/><path fill="#474545" d="m 846,1199.3622 2,0 c 0.554,0 1,0.446 1,1 0,0.554 -0.446,1 -1,1 l -2,0 c -0.554,0 -1,-0.446 -1,-1 0,-0.554 0.446,-1 1,-1 z"/><path fill="#ffdc73" d="m 846.5,1200.3622 a 0.5,0.5 0 0 1 -0.5,0.5 0.5,0.5 0 0 1 -0.5,-0.5 0.5,0.5 0 0 1 0.5,-0.5 0.5,0.5 0 0 1 0.5,0.5 z"/><path fill="#5e5c5c" fill-rule="evenodd" d="m 848,1199.3613 0,2 1,0 0,-2 -1,0 z" color="#000" font-family="sans-serif" font-weight="400" overflow="visible" white-space="normal" style="line-height:normal;text-indent:0;text-align:start;text-decoration-line:none;text-decoration-style:solid;text-decoration-color:#000;text-transform:none;block-progression:tb;isolation:auto;mix-blend-mode:normal"/><path fill="#474545" fill-rule="evenodd" d="M856 1200.3613l0 1 1 0 0-1-1 0zM857 1199.3613l0 1 1 0 0-1-1 0zM858 1200.3613l0 1 1 0 0-1-1 0zM855 1199.3613l0 1 1 0 0-1-1 0z" color="#000" font-family="sans-serif" font-weight="400" overflow="visible" white-space="normal" style="line-height:normal;text-indent:0;text-align:start;text-decoration-line:none;text-decoration-style:solid;text-decoration-color:#000;text-transform:none;block-progression:tb;isolation:auto;mix-blend-mode:normal"/><path fill="#eff4f7" d="m 845.00002,1194.3622 11.99996,0 c 10e-6,0 2e-5,0 2e-5,0 l 0,3 c 0,0 -10e-6,0 -2e-5,0 l -11.99996,0 c -10e-6,0 -2e-5,0 -2e-5,0 l 0,-3 c 0,0 10e-6,0 2e-5,0 z"/><path fill="#474545" d="M846.5 1195.3622c.277 0 .5.223.5.5 0 .277-.223.5-.5.5-.277 0-.5-.223-.5-.5 0-.277.223-.5.5-.5zM848.5 1195.3622c.277 0 .5.223.5.5 0 .277-.223.5-.5.5-.277 0-.5-.223-.5-.5 0-.277.223-.5.5-.5zM850.5 1195.3622c.277 0 .5.223.5.5 0 .277-.223.5-.5.5-.277 0-.5-.223-.5-.5 0-.277.223-.5.5-.5zM852.5 1195.3622c.277 0 .5.223.5.5 0 .277-.223.5-.5.5-.277 0-.5-.223-.5-.5 0-.277.223-.5.5-.5zM854.5 1195.3622c.277 0 .5.223.5.5 0 .277-.223.5-.5.5-.277 0-.5-.223-.5-.5 0-.277.223-.5.5-.5z"/></g></svg>