<svg xmlns="http://www.w3.org/2000/svg" width="64" height="64" viewBox="0 0 64 64"><g transform="translate(-668 -992.362)"><path fill="#474545" d="m 682.00002,1017.3622 35.99996,0 c 1.10801,0 2.00002,0.892 2.00002,2 l 0,23 c 0,1.108 -0.89201,2 -2.00002,2 l -35.99996,0 c -1.10801,0 -2.00002,-0.892 -2.00002,-2 l 0,-23 c 0,-1.108 0.89201,-2 2.00002,-2 z"/><path fill="#49b2d6" d="m 682,1019.3622 36,0 0,21 -36,0 z"/><path fill="#cfd3d6" fill-rule="evenodd" style="line-height:normal;text-indent:0;text-align:start;text-decoration-line:none;text-decoration-style:solid;text-decoration-color:#000;text-transform:none;block-progression:tb;isolation:auto;mix-blend-mode:normal" d="m 685.80078,1009.3613 -0.60156,0.8008 3.80078,2.8496 0,10.7012 -3.80078,2.8496 0.60156,0.7988 4.19922,-3.1484 0,-11.7012 -4.19922,-3.1504 z" color="#000" font-family="sans-serif" font-weight="400" overflow="visible" white-space="normal"/><path fill="#cfd3d6" fill-rule="evenodd" style="line-height:normal;text-indent:0;text-align:start;text-decoration-line:none;text-decoration-style:solid;text-decoration-color:#000;text-transform:none;block-progression:tb;isolation:auto;mix-blend-mode:normal" d="m 688,1003.3613 0,4.2403 5,4 0,13.5195 -5,4 0,4.2402 1,0 0,-3.7597 5,-4 0,-14.4805 -5,-4 0,-3.7598 -1,0 z" color="#000" font-family="sans-serif" font-weight="400" overflow="visible" white-space="normal"/><path fill="#cfd3d6" fill-rule="evenodd" style="line-height:normal;text-indent:0;text-align:start;text-decoration-line:none;text-decoration-style:solid;text-decoration-color:#000;text-transform:none;block-progression:tb;isolation:auto;mix-blend-mode:normal" d="M700.00781 1002.3622l0 3.2667-3.01367 2.5.006 19.4883-3.93945 2.9414.59765.8008 4.3418-3.2403-.006-19.5214 3.01367-2.5 0-3.7355zM710 1003.3613l0 3.7598-5 4 0 15.0019 5 3.5 0 3.7383 1 0 0-4.2597-5-3.5 0-14 5-4 0-4.2403-1 0z" color="#000" font-family="sans-serif" font-weight="400" overflow="visible" white-space="normal"/><path fill="#1395bf" d="m 686,1027.3622 a 1,1 0 0 1 -1,1 1,1 0 0 1 -1,-1 1,1 0 0 1 1,-1 1,1 0 0 1 1,1 z"/><path fill="#eff4f7" d="m 689.5,1033.3622 a 1,1 0 0 1 -1,1 1,1 0 0 1 -1,-1 1,1 0 0 1 1,-1 1,1 0 0 1 1,1 z"/><path fill="#1395bf" d="M689.5 1033.3622a1 1 0 0 1-1 1 1 1 0 0 1-1-1 1 1 0 0 1 1-1 1 1 0 0 1 1 1zM694 1031.3622a1 1 0 0 1-1 1 1 1 0 0 1-1-1 1 1 0 0 1 1-1 1 1 0 0 1 1 1zM711.5 1033.3622a1 1 0 0 1-1 1 1 1 0 0 1-1-1 1 1 0 0 1 1-1 1 1 0 0 1 1 1z"/><path fill="#cfd3d6" d="M689.5 1003.3622a1 1 0 0 0-1-1 1 1 0 0 0-1 1 1 1 0 0 0 1 1 1 1 0 0 0 1-1zM686 1009.3622a1 1 0 0 0-1-1 1 1 0 0 0-1 1 1 1 0 0 0 1 1 1 1 0 0 0 1-1z"/><path fill="#cfd3d6" fill-rule="evenodd" style="line-height:normal;text-indent:0;text-align:start;text-decoration-line:none;text-decoration-style:solid;text-decoration-color:#000;text-transform:none;block-progression:tb;isolation:auto;mix-blend-mode:normal" d="m 705.3418,1006.3652 -4.32813,3.2403 -0.0273,19.9902 3.01367,2.5 0,3.2656 1,0 0,-3.7363 -3.01367,-2.498 0.0273,-19.0196 3.92578,-2.9414 -0.59765,-0.8008 z" color="#000" font-family="sans-serif" font-weight="400" overflow="visible" white-space="normal"/><path fill="#cfd3d6" d="M705 1006.3622a1 1 0 0 1 1-1 1 1 0 0 1 1 1 1 1 0 0 1-1 1 1 1 0 0 1-1-1zM709.5 1003.3622a1 1 0 0 1 1-1 1 1 0 0 1 1 1 1 1 0 0 1-1 1 1 1 0 0 1-1-1z"/><path fill="#cfd3d6" fill-rule="evenodd" style="line-height:normal;text-indent:0;text-align:start;text-decoration-line:none;text-decoration-style:solid;text-decoration-color:#000;text-transform:none;block-progression:tb;isolation:auto;mix-blend-mode:normal" d="m 713.19922,1009.3613 -4.19922,3.1504 0,11.7012 4.19922,3.1484 0.60156,-0.7988 -3.80078,-2.8496 0,-10.7012 3.80078,-2.8496 -0.60156,-0.8008 z" color="#000" font-family="sans-serif" font-weight="400" overflow="visible" white-space="normal"/><path fill="#cfd3d6" d="m 713,1009.3622 a 1,1 0 0 1 1,-1 1,1 0 0 1 1,1 1,1 0 0 1 -1,1 1,1 0 0 1 -1,-1 z"/><path fill="#1395bf" d="M705.5 1035.3622a1 1 0 0 1-1 1 1 1 0 0 1-1-1 1 1 0 0 1 1-1 1 1 0 0 1 1 1zM715 1027.3622a1 1 0 0 1-1 1 1 1 0 0 1-1-1 1 1 0 0 1 1-1 1 1 0 0 1 1 1z"/><path fill="#cfd3d6" d="m 701.50677,1002.3622 a 1,1 0 0 0 -1,-1 1,1 0 0 0 -1,1 1,1 0 0 0 1,1 1,1 0 0 0 1,-1 z"/><path fill="#1395bf" fill-rule="evenodd" style="line-height:normal;text-indent:0;text-align:start;text-decoration-line:none;text-decoration-style:solid;text-decoration-color:#000;text-transform:none;block-progression:tb;isolation:auto;mix-blend-mode:normal" d="M689 1018.5625l0 5.1504-3.80078 2.8496.60156.7988 4.19922-3.1484 0-5.6504-1 0zM693 1018.5625l0 6.5586-5 4 0 4.2402 1 0 0-3.7597 5-4 0-7.0391-1 0zM696.99414 1018.5625l.006 9.0547-3.93945 2.9414.59765.8008 4.3418-3.2403-.006-9.5566-1 0zM705 1018.5625l0 7.5605 5 3.5 0 3.7383 1 0 0-4.2597-5-3.5 0-7.0391-1 0zM701.01367 1018.5605l-.0273 11.0352 3.01367 2.5 0 3.2656 1 0 0-3.7363-3.01172-2.498.0254-10.5625-1 0zM709 1018.5625l0 5.6504 4.19922 3.1484.60156-.7988-3.80078-2.8496 0-5.1504-1 0z" color="#000" font-family="sans-serif" font-weight="400" overflow="visible" white-space="normal"/><path fill="#cfd3d6" d="m 676,1042.3622 0,2 c 0,1.662 1.338,3 3,3 l 42,0 c 1.662,0 3,-1.338 3,-3 l 0,-2 -48,0 z"/><path fill="#474545" d="m 682,1017.3622 c -1.10801,0 -2,0.892 -2,2 l 0,23 c 0,1.108 0.89199,2 2,2 l 36,0 c 1.10801,0 2,-0.892 2,-2 l 0,-23 c 0,-1.108 -0.89199,-2 -2,-2 l -36,0 z m 0,2 36,0 0,21 -36,0 0,-21 z"/><path fill="#eff4f7" d="m 676,1042.3622 0,2 48,0 0,-2 z"/><path fill="#726f6f" d="m 706,1042.3622 0,0 c 0,1.108 -0.892,2 -1.99999,2 l -8.00002,0 c -1.10799,0 -1.99999,-0.892 -1.99999,-2 l 0,0 c 2,0 9,0 12,0 z"/></g></svg>