<svg xmlns="http://www.w3.org/2000/svg" width="64" height="64" viewBox="0 0 64 64"><g transform="translate(-818 -1104.361)"><path fill="#726f6f" fill-rule="evenodd" style="line-height:normal;text-indent:0;text-align:start;text-decoration-line:none;text-decoration-style:solid;text-decoration-color:#000;text-transform:none;block-progression:tb;isolation:auto;mix-blend-mode:normal" d="m 822,1137.3613 0,1 11,0 0,-1 -11,0 z" color="#000" font-family="sans-serif" font-weight="400" overflow="visible" white-space="normal"/><path fill="#726f6f" style="line-height:normal;text-indent:0;text-align:start;text-decoration-line:none;text-decoration-style:solid;text-decoration-color:#000;text-transform:none;block-progression:tb;isolation:auto;mix-blend-mode:normal" d="m 821.5,1136.3613 c -0.8225,0 -1.5,0.6775 -1.5,1.5 0,0.8225 0.6775,1.5 1.5,1.5 0.8225,0 1.5,-0.6775 1.5,-1.5 0,-0.8225 -0.6775,-1.5 -1.5,-1.5 z m 0,1 c 0.28206,0 0.5,0.218 0.5,0.5 0,0.2821 -0.21794,0.5 -0.5,0.5 -0.28206,0 -0.5,-0.2179 -0.5,-0.5 0,-0.282 0.21794,-0.5 0.5,-0.5 z" color="#000" font-family="sans-serif" font-weight="400" overflow="visible" white-space="normal"/><path fill="#726f6f" fill-rule="evenodd" style="line-height:normal;text-indent:0;text-align:start;text-decoration-line:none;text-decoration-style:solid;text-decoration-color:#000;text-transform:none;block-progression:tb;isolation:auto;mix-blend-mode:normal" d="m 824,1143.3613 0,3.5 1,0 0,-2.5 8,0 0,-1 -9,0 z" color="#000" font-family="sans-serif" font-weight="400" overflow="visible" white-space="normal"/><path fill="#726f6f" style="line-height:normal;text-indent:0;text-align:start;text-decoration-line:none;text-decoration-style:solid;text-decoration-color:#000;text-transform:none;block-progression:tb;isolation:auto;mix-blend-mode:normal" d="m 824.5,1146.3613 c -0.8225,0 -1.5,0.6775 -1.5,1.5 0,0.8225 0.6775,1.5 1.5,1.5 0.8225,0 1.5,-0.6775 1.5,-1.5 0,-0.8225 -0.6775,-1.5 -1.5,-1.5 z m 0,1 c 0.28206,0 0.5,0.218 0.5,0.5 0,0.2821 -0.21794,0.5 -0.5,0.5 -0.28206,0 -0.5,-0.2179 -0.5,-0.5 0,-0.282 0.21794,-0.5 0.5,-0.5 z" color="#000" font-family="sans-serif" font-weight="400" overflow="visible" white-space="normal"/><path fill="#726f6f" fill-rule="evenodd" style="line-height:normal;text-indent:0;text-align:start;text-decoration-line:none;text-decoration-style:solid;text-decoration-color:#000;text-transform:none;block-progression:tb;isolation:auto;mix-blend-mode:normal" d="m 824,1128.8613 0,3.5 9,0 0,-1 -8,0 0,-2.5 -1,0 z" color="#000" font-family="sans-serif" font-weight="400" overflow="visible" white-space="normal"/><path fill="#726f6f" style="line-height:normal;text-indent:0;text-align:start;text-decoration-line:none;text-decoration-style:solid;text-decoration-color:#000;text-transform:none;block-progression:tb;isolation:auto;mix-blend-mode:normal" d="m 824.5,1126.3613 c -0.8225,0 -1.5,0.6775 -1.5,1.5 0,0.8225 0.6775,1.5 1.5,1.5 0.8225,0 1.5,-0.6775 1.5,-1.5 0,-0.8225 -0.6775,-1.5 -1.5,-1.5 z m 0,1 c 0.28206,0 0.5,0.218 0.5,0.5 0,0.2821 -0.21794,0.5 -0.5,0.5 -0.28206,0 -0.5,-0.2179 -0.5,-0.5 0,-0.282 0.21794,-0.5 0.5,-0.5 z" color="#000" font-family="sans-serif" font-weight="400" overflow="visible" white-space="normal"/><path fill="#726f6f" fill-rule="evenodd" style="line-height:normal;text-indent:0;text-align:start;text-decoration-line:none;text-decoration-style:solid;text-decoration-color:#000;text-transform:none;block-progression:tb;isolation:auto;mix-blend-mode:normal" d="m 867,1137.3613 0,1 11,0 0,-1 -11,0 z" color="#000" font-family="sans-serif" font-weight="400" overflow="visible" white-space="normal"/><path fill="#726f6f" style="line-height:normal;text-indent:0;text-align:start;text-decoration-line:none;text-decoration-style:solid;text-decoration-color:#000;text-transform:none;block-progression:tb;isolation:auto;mix-blend-mode:normal" d="m 878.5,1136.3613 c -0.8225,0 -1.5,0.6775 -1.5,1.5 0,0.8225 0.6775,1.5 1.5,1.5 0.8225,0 1.5,-0.6775 1.5,-1.5 0,-0.8225 -0.6775,-1.5 -1.5,-1.5 z m 0,1 c 0.28206,0 0.5,0.218 0.5,0.5 0,0.2821 -0.21794,0.5 -0.5,0.5 -0.28206,0 -0.5,-0.2179 -0.5,-0.5 0,-0.282 0.21794,-0.5 0.5,-0.5 z" color="#000" font-family="sans-serif" font-weight="400" overflow="visible" white-space="normal"/><path fill="#726f6f" fill-rule="evenodd" style="line-height:normal;text-indent:0;text-align:start;text-decoration-line:none;text-decoration-style:solid;text-decoration-color:#000;text-transform:none;block-progression:tb;isolation:auto;mix-blend-mode:normal" d="m 853,1149.3301 0,11.0312 1,0 0,-11.0312 -1,0 z" color="#000" font-family="sans-serif" font-weight="400" overflow="visible" white-space="normal"/><path fill="#726f6f" style="line-height:normal;text-indent:0;text-align:start;text-decoration-line:none;text-decoration-style:solid;text-decoration-color:#000;text-transform:none;block-progression:tb;isolation:auto;mix-blend-mode:normal" d="m 853.5,1159.3613 c -0.8225,0 -1.5,0.6775 -1.5,1.5 0,0.8225 0.6775,1.5 1.5,1.5 0.8225,0 1.5,-0.6775 1.5,-1.5 0,-0.8225 -0.6775,-1.5 -1.5,-1.5 z m 0,1 c 0.28206,0 0.5,0.218 0.5,0.5 0,0.2821 -0.21794,0.5 -0.5,0.5 -0.28206,0 -0.5,-0.2179 -0.5,-0.5 0,-0.282 0.21794,-0.5 0.5,-0.5 z" color="#000" font-family="sans-serif" font-weight="400" overflow="visible" white-space="normal"/><path fill="#726f6f" fill-rule="evenodd" style="line-height:normal;text-indent:0;text-align:start;text-decoration-line:none;text-decoration-style:solid;text-decoration-color:#000;text-transform:none;block-progression:tb;isolation:auto;mix-blend-mode:normal" d="m 867,1143.3613 0,1 8,0 0,2.5 1,0 0,-3.5 -9,0 z" color="#000" font-family="sans-serif" font-weight="400" overflow="visible" white-space="normal"/><path fill="#726f6f" style="line-height:normal;text-indent:0;text-align:start;text-decoration-line:none;text-decoration-style:solid;text-decoration-color:#000;text-transform:none;block-progression:tb;isolation:auto;mix-blend-mode:normal" d="m 875.5,1146.3613 c -0.8225,0 -1.5,0.6775 -1.5,1.5 0,0.8225 0.6775,1.5 1.5,1.5 0.8225,0 1.5,-0.6775 1.5,-1.5 0,-0.8225 -0.6775,-1.5 -1.5,-1.5 z m 0,1 c 0.28206,0 0.5,0.218 0.5,0.5 0,0.2821 -0.21794,0.5 -0.5,0.5 -0.28206,0 -0.5,-0.2179 -0.5,-0.5 0,-0.282 0.21794,-0.5 0.5,-0.5 z" color="#000" font-family="sans-serif" font-weight="400" overflow="visible" white-space="normal"/><path fill="#726f6f" fill-rule="evenodd" style="line-height:normal;text-indent:0;text-align:start;text-decoration-line:none;text-decoration-style:solid;text-decoration-color:#000;text-transform:none;block-progression:tb;isolation:auto;mix-blend-mode:normal" d="m 875,1128.8613 0,2.5 -8,0 0,1 9,0 0,-3.5 -1,0 z" color="#000" font-family="sans-serif" font-weight="400" overflow="visible" white-space="normal"/><path fill="#726f6f" style="line-height:normal;text-indent:0;text-align:start;text-decoration-line:none;text-decoration-style:solid;text-decoration-color:#000;text-transform:none;block-progression:tb;isolation:auto;mix-blend-mode:normal" d="m 875.5,1126.3613 c -0.8225,0 -1.5,0.6775 -1.5,1.5 0,0.8225 0.6775,1.5 1.5,1.5 0.8225,0 1.5,-0.6775 1.5,-1.5 0,-0.8225 -0.6775,-1.5 -1.5,-1.5 z m 0,1 c 0.28206,0 0.5,0.218 0.5,0.5 0,0.2821 -0.21794,0.5 -0.5,0.5 -0.28206,0 -0.5,-0.2179 -0.5,-0.5 0,-0.282 0.21794,-0.5 0.5,-0.5 z" color="#000" font-family="sans-serif" font-weight="400" overflow="visible" white-space="normal"/><path fill="#726f6f" fill-rule="evenodd" style="line-height:normal;text-indent:0;text-align:start;text-decoration-line:none;text-decoration-style:solid;text-decoration-color:#000;text-transform:none;block-progression:tb;isolation:auto;mix-blend-mode:normal" d="m 859,1149.3301 0,8.0312 3.5,0 0,-1 -2.5,0 0,-7.0312 -1,0 z" color="#000" font-family="sans-serif" font-weight="400" overflow="visible" white-space="normal"/><path fill="#726f6f" style="line-height:normal;text-indent:0;text-align:start;text-decoration-line:none;text-decoration-style:solid;text-decoration-color:#000;text-transform:none;block-progression:tb;isolation:auto;mix-blend-mode:normal" d="m 863.5,1155.3613 c -0.8225,0 -1.5,0.6775 -1.5,1.5 0,0.8225 0.6775,1.5 1.5,1.5 0.8225,0 1.5,-0.6775 1.5,-1.5 0,-0.8225 -0.6775,-1.5 -1.5,-1.5 z m 0,1 c 0.28206,0 0.5,0.218 0.5,0.5 0,0.2821 -0.21794,0.5 -0.5,0.5 -0.28206,0 -0.5,-0.2179 -0.5,-0.5 0,-0.282 0.21794,-0.5 0.5,-0.5 z" color="#000" font-family="sans-serif" font-weight="400" overflow="visible" white-space="normal"/><path fill="#726f6f" fill-rule="evenodd" style="line-height:normal;text-indent:0;text-align:start;text-decoration-line:none;text-decoration-style:solid;text-decoration-color:#000;text-transform:none;block-progression:tb;isolation:auto;mix-blend-mode:normal" d="M840 1149.3301l0 7.0312-2.5 0 0 1 3.5 0 0-8.0312-1 0zM846 1149.3301l0 11.0312 1 0 0-11.0312-1 0z" color="#000" font-family="sans-serif" font-weight="400" overflow="visible" white-space="normal"/><path fill="#5e5c5c" d="M842.00001 1146.3622l0 4-3 0 0-4zM848.00001 1146.3622l0 4-3 0 0-4zM855.00001 1146.3622l0 4-3 0 0-4zM861.00001 1146.3622l0 4-3 0 0-4zM832.00001 1142.3622l4 0 0 3-4 0zM832.00001 1136.3622l4 0 0 3-4 0zM832.00001 1130.3622l4 0 0 3-4 0zM864.00001 1142.3622l4 0 0 3-4 0zM864.00001 1136.3622l4 0 0 3-4 0zM864.00001 1130.3622l4 0 0 3-4 0z"/><path fill="#ffcb59" d="m 864.26954,1127.831 -11.26953,-9.5353 -6,0 -11.26953,9.5353 7.13476,12 7.13477,0 7.13476,0 z"/><path fill="#dfe3e6" d="m 843.00003,1111.3622 13.99997,0 c 2.216,0 4.00001,1.784 4.00001,4 l 0,21 c 0,2.216 -1.78401,4 -4.00001,4 l -13.99997,0 c -2.21601,0 -4.00002,-1.784 -4.00002,-4 l 0,-21 c 0,-2.216 1.78401,-4 4.00002,-4 z"/><path fill="#ffdc73" d="m 865.00001,1137.3622 0,8 c 0,1.108 -0.89201,2 -2.00002,2 l -25.99996,0 c -1.10801,0 -2.00002,-0.892 -2.00002,-2 l 0,-8 z"/><path fill="#ffeca6" d="M835.73048 1127.827c-.44266.3663-.73047.9132-.73047 1.5352l0 16c0 .622.28781 1.1689.73047 1.5352l11.26953-9.5352-11.26953-9.5352zM864.26954 1127.827c.44266.3663.73047.9132.73047 1.5352l0 16c0 .622-.28781 1.1689-.73047 1.5352l-11.26953-9.5352 11.26953-9.5352z"/><path fill="#ffcb59" d="m 835.00001,1144.3622 0,1 c 0,1.108 0.89199,2 2,2 l 26,0 c 1.10801,0 2,-0.892 2,-2 l 0,-1 c 0,1.108 -0.89199,2 -2,2 l -26,0 c -1.10801,0 -2,-0.892 -2,-2 z"/><path fill="#eff4f7" d="m 850,130 c -2.77,0 -5,2.23 -5,5 l 0,2.77734 c 0,1.2311 0.99154,2.22266 2.22266,2.22266 l 2.77734,0 2.77734,0 C 854.00846,140 855,139.00844 855,137.77734 L 855,135 c 0,-2.77 -2.23001,-5 -5,-5 z" transform="translate(0 988.362)"/><path fill="#eff4f7" d="m 848.2,1126.5621 3.6,0 c 0.66481,0 1.2,0.5353 1.2,1.2001 l 0,2.4 c 0,0.6648 -0.53519,1.2 -1.2,1.2 l -3.6,0 c -0.66479,0 -1.2,-0.5352 -1.2,-1.2 l 0,-2.4 c 0,-0.6648 0.53521,-1.2001 1.2,-1.2001 z"/><path fill="none" stroke="#726f6f" d="M848.8889 1131.3622l0-2.2222M851.11112 1131.3622l0-2.2222"/><path fill="#726f6f" d="m 847.22266,133.48242 c -0.3892,0.2247 -0.60558,0.66182 -0.54688,1.10742 0.0587,0.4455 0.38037,0.81144 0.81445,0.92774 0.43408,0.1163 0.89634,-0.04 1.16993,-0.39649 0.27358,-0.3566 0.3048,-0.84322 0.0801,-1.23242 l -1.51757,-0.40625 z m 5.55468,0 -1.51757,0.40625 a 1.1111103,1.1111103 0 0 0 0.0801,1.23242 1.1111103,1.1111103 0 0 0 1.16993,0.39649 1.1111103,1.1111103 0 0 0 0.81445,-0.92774 1.1111103,1.1111103 0 0 0 -0.54688,-1.10742 z m -2.77734,3.1836 -1.11133,2.22265 2.22266,0 L 850,136.66602 Z" transform="translate(0 988.362)"/><path fill="#eff4f7" d="M861.00001 1111.3622a4.0000005 4.0000005 0 0 1 4 4l-4 0zM843.00001 1111.3622l18 0 0 4-18 0z"/><path fill="#dfe3e6" d="m 843.00001,1111.3622 a 4.0000005,4.0000005 0 0 1 4,4 l -4,0 z"/><path fill="#726f6f" style="line-height:normal;text-indent:0;text-align:start;text-decoration-line:none;text-decoration-style:solid;text-decoration-color:#000;text-transform:none;block-progression:tb;isolation:auto;mix-blend-mode:normal" d="M846.5 1159.3613c-.8225 0-1.5.6775-1.5 1.5 0 .8225.6775 1.5 1.5 1.5.8225 0 1.5-.6775 1.5-1.5 0-.8225-.6775-1.5-1.5-1.5zm0 1c.28206 0 .5.218.5.5 0 .2821-.21794.5-.5.5-.28206 0-.5-.2179-.5-.5 0-.282.21794-.5.5-.5zM836.5 1155.3613c-.8225 0-1.5.6775-1.5 1.5 0 .8225.6775 1.5 1.5 1.5.8225 0 1.5-.6775 1.5-1.5 0-.8225-.6775-1.5-1.5-1.5zm0 1c.28206 0 .5.218.5.5 0 .2821-.21794.5-.5.5-.28206 0-.5-.2179-.5-.5 0-.282.21794-.5.5-.5z" color="#000" font-family="sans-serif" font-weight="400" overflow="visible" white-space="normal"/></g></svg>