<svg xmlns="http://www.w3.org/2000/svg" width="64" height="64" viewBox="0 0 64 64"><path fill="#f4608a" d="m 32.345648,1000.3587 c -4.26885,-0.074 -8.4919,1.2222 -12.01953,3.7578 a 0.50030005,0.50030005 0 1 0 0.58399,0.8125 c 4.46878,-3.2121 10.10939,-4.3301 15.46484,-3.0625 a 0.50005,0.50005 0 1 0 0.23047,-0.9726 c -1.40918,-0.3335 -2.83681,-0.5106 -4.25977,-0.5352 z m 6.9961,1.4317 a 0.50005,0.50005 0 0 0 -0.1836,0.9668 c 7.8605,3.1977 12.64666,11.214 11.73047,19.6504 a 0.50005,0.50005 0 1 0 0.99414,0.1074 c 0.96391,-8.8758 -4.07775,-17.3193 -12.34765,-20.6836 a 0.50005,0.50005 0 0 0 -0.19336,-0.041 z m -7.53125,1.455 c -0.38476,0 -0.76913,0.022 -1.1543,0.053 a 0.50005,0.50005 0 1 0 0.0781,0.9961 c 2.90129,-0.2285 5.81024,0.3349 8.41796,1.627 a 0.50007008,0.50007008 0 1 0 0.44336,-0.8965 c -2.42334,-1.2008 -5.09187,-1.8089 -7.78515,-1.7793 z m -4.10547,0.5645 a 0.50005,0.50005 0 0 0 -0.13477,0.02 c -7.47824,2.0037 -12.68167,8.7852 -12.68164,16.5273 0,2.1127 0.17273,3.0469 -0.043,4.9512 -0.12524,0.9142 -0.52458,1.7692 -1.14648,2.4512 a 0.50049658,0.50049658 0 1 0 0.74023,0.6738 c 0.75959,-0.8329 1.24654,-1.8772 1.39844,-2.9941 a 0.50005,0.50005 0 0 0 0.002,-0.012 c 0.22772,-2.0045 0.0488,-3.0114 0.0488,-5.0703 -3e-5,-7.2943 4.89569,-13.6746 11.94141,-15.5625 a 0.50005,0.50005 0 0 0 -0.125,-0.9844 z m -9.50391,2.2539 a 0.50005,0.50005 0 0 0 -0.34375,0.1504 c -4.62038,4.6204 -6.6922,11.2092 -5.54883,17.6426 a 0.50005,0.50005 0 1 0 0.98438,-0.1758 c -1.08638,-6.1127 0.8814,-12.3697 5.27148,-16.7598 a 0.50005,0.50005 0 0 0 -0.36328,-0.8574 z m 13.69141,0.07 c -0.38115,0 -0.76143,0.019 -1.13867,0.053 l 0,0 c -4.52696,0.3998 -8.70595,2.9613 -11.07032,7.0566 a 0.50005,0.50005 0 1 0 0.86524,0.5 c 2.93294,-5.0801 8.8569,-7.6187 14.55859,-6.2402 5.70168,1.3784 9.80937,6.3424 10.09766,12.2012 a 0.50064983,0.50064983 0 1 0 1,-0.051 c -0.30987,-6.2974 -4.73482,-11.6433 -10.86328,-13.125 -1.14909,-0.2778 -2.30577,-0.4054 -3.44922,-0.3965 z m 10.03711,0.4219 a 0.50005,0.50005 0 0 0 -0.27344,0.9043 c 2.67697,2.0046 4.66444,4.7919 5.68555,7.9765 a 0.50005,0.50005 0 1 0 0.95117,-0.3046 c -1.08445,-3.3822 -3.19408,-6.3439 -6.03711,-8.4727 a 0.50005,0.50005 0 0 0 -0.32617,-0.1035 z m -9.92969,2.4671 c -3.40207,1e-4 -6.6252,1.5293 -8.77734,4.1641 -2.15215,2.6348 -3.00721,6.0981 -2.32813,9.4316 a 0.50025244,0.50025244 0 1 0 0.98047,-0.1992 c -0.61929,-3.0401 0.16038,-6.1968 2.12305,-8.5996 1.96267,-2.4029 4.8994,-3.7968 8.00195,-3.7969 a 0.50005,0.50005 0 1 0 0,-1 z m 3.28516,0.5059 a 0.50005,0.50005 0 0 0 -0.0508,0 0.50005,0.50005 0 0 0 -0.10547,0.9785 c 4.29164,1.3639 7.2031,5.3445 7.20312,9.8476 a 0.50005,0.50005 0 0 0 0.002,0.01 c 0.0563,2.674 0.0457,5.4569 -0.22265,7.8672 a 0.50017715,0.50017715 0 1 0 0.99414,0.1113 c 0.27706,-2.4883 0.28301,-5.3026 0.22656,-7.9902 -8.7e-4,-4.9339 -3.1981,-9.3043 -7.90039,-10.7988 a 0.50005,0.50005 0 0 0 -0.14648,-0.027 z m -3.76954,2.3964 c -1.09439,0.063 -2.18299,0.34 -3.20117,0.834 a 0.50010598,0.50010598 0 1 0 0.43555,0.9004 c 2.39496,-1.162 5.22679,-0.9574 7.42969,0.5371 a 0.50005,0.50005 0 1 0 0.56054,-0.8281 c -1.24869,-0.8471 -2.67577,-1.3283 -4.13085,-1.4336 -0.36378,-0.026 -0.72896,-0.031 -1.09376,-0.01 z m -5.14257,2.3086 a 0.50005,0.50005 0 0 0 -0.34375,0.1524 c -1.58346,1.5835 -2.47461,3.7313 -2.47461,5.9707 l 0,3.3144 c -2e-5,4.2351 -1.75136,8.1536 -4.67383,11.0196 a 0.50005,0.50005 0 1 0 0.69922,0.7129 c 3.10537,-3.0454 4.97459,-7.2214 4.97461,-11.7325 l 0,-3.3144 c 0,-1.9746 0.78542,-3.8674 2.18164,-5.2637 a 0.50005,0.50005 0 0 0 -0.36328,-0.8594 z m 5.62695,0.5723 a 0.50005,0.50005 0 0 0 -0.18555,0.035 c -1.39101,0.049 -2.72197,0.5928 -3.70898,1.584 -1.03292,1.0371 -1.61328,2.4424 -1.61328,3.9082 l -0.0156,2.1797 a 0.50005,0.50005 0 1 0 1,0.01 l 0.0156,-2.1817 c 0,-1.202 0.47621,-2.3536 1.32226,-3.2031 0.84557,-0.8491 1.9906,-1.3256 3.18555,-1.3262 l 0.002,0 c 2.52091,0 4.55274,2.0335 4.55274,4.5547 l 0,1.4453 c 0,2.6349 -0.27271,5.2613 -0.81446,7.8399 a 0.50009069,0.50009069 0 0 0 0.97852,0.207 c 0.55595,-2.6462 0.83594,-5.3429 0.83594,-8.0469 l 0,-1.4453 c 0,-2.9966 -2.39737,-5.4137 -5.36914,-5.5176 a 0.50005,0.50005 0 0 0 -0.1836,-0.037 l -0.002,0 0,-0.01 z m 6.61328,0.6504 a 0.50005,0.50005 0 0 0 -0.41211,0.7832 c 0.93528,1.409 1.36312,3.0929 1.21289,4.7773 a 0.5000788,0.5000788 0 0 0 0.9961,0.09 c 0.17039,-1.9105 -0.3142,-3.8219 -1.375,-5.4199 a 0.50005,0.50005 0 0 0 -0.42188,-0.2305 z m -19.89258,0.8418 a 0.50005,0.50005 0 0 0 -0.45898,0.3769 c -0.38457,1.4355 -0.54072,2.9239 -0.46484,4.4082 0.0508,1.5791 -0.0375,2.1464 -0.0195,4.3516 a 0.50005,0.50005 0 0 0 0,0.01 c 0.0472,1.8821 -0.95602,3.6387 -2.625,4.584 a 0.50026648,0.50026648 0 0 0 0.49219,0.8711 c 1.98287,-1.1231 3.18935,-3.2272 3.13281,-5.4805 -0.0174,-2.1722 0.0705,-2.7481 0.0176,-4.3769 a 0.50005,0.50005 0 0 0 0,-0.01 c -0.0705,-1.3799 0.0761,-2.761 0.4336,-4.0957 a 0.50005,0.50005 0 0 0 -0.50788,-0.6387 z m 13.2793,1.3906 c -1.4668,0 -2.66602,1.2012 -2.66602,2.668 l -0.0293,2.7363 c -0.11999,2.699 -0.61482,5.3674 -1.47071,7.9297 a 0.50005,0.50005 0 1 0 0.94727,0.3164 c 0.88529,-2.6504 1.39737,-5.4096 1.52148,-8.2012 a 0.50005,0.50005 0 0 0 0.002,-0.019 l 0.0293,-2.7597 c 0,-0.9264 0.73964,-1.6681 1.66602,-1.668 0.92639,0 1.66602,0.7416 1.66602,1.668 a 0.50005,0.50005 0 1 0 1,0 c 0,-1.4668 -1.19921,-2.6681 -2.66602,-2.668 l 0,0 z m 16.44727,0.01 0,0.01 a 0.50005,0.50005 0 0 0 -0.47266,0.5703 c 0.0798,0.6116 0.1255,1.2271 0.13477,1.8438 l 0,3.1308 c 0,3.0417 -0.41401,6.0686 -1.23243,8.9981 a 0.50005,0.50005 0 1 0 0.96289,0.2695 c 0.84289,-3.0171 1.26953,-6.1349 1.26954,-9.2676 l 0,-3.1386 a 0.50005,0.50005 0 0 0 0,-0.012 c -0.01,-0.6549 -0.0578,-1.3094 -0.14258,-1.959 a 0.50005,0.50005 0 0 0 -0.51953,-0.4414 z m -2.74805,4.3477 a 0.50005,0.50005 0 0 0 -0.48438,0.5156 c 0.0792,4.5249 -0.625,9.0298 -2.08203,13.3144 a 0.50029935,0.50029935 0 1 0 0.94727,0.3223 c 1.49417,-4.3939 2.21602,-9.014 2.13476,-13.6543 a 0.50005,0.50005 0 0 0 -0.51562,-0.498 z m -11.70117,0.6875 a 0.50005,0.50005 0 0 0 -0.48047,0.4668 c -0.44397,5.7017 -2.26351,11.2209 -5.3086,16.1035 a 0.50005,0.50005 0 1 0 0.84961,0.5273 c 3.12951,-5.0179 4.99859,-10.69 5.45508,-16.5527 a 0.50005,0.50005 0 0 0 -0.51562,-0.5449 z m 5.9414,0.75 a 0.50005,0.50005 0 0 0 -0.50195,0.498 c -0.0997,5.2342 -1.26639,10.3939 -3.42773,15.1621 a 0.50005,0.50005 0 1 0 0.91015,0.4121 c 2.21748,-4.892 3.41529,-10.1845 3.51758,-15.5547 a 0.50005,0.50005 0 0 0 -0.49805,-0.5175 z m -18.82031,1.4336 a 0.50005,0.50005 0 0 0 -0.47656,0.4726 c -0.19209,2.843 -1.54805,5.4805 -3.75,7.2891 a 0.50005,0.50005 0 1 0 0.63476,0.7715 c 2.41468,-1.9833 3.90264,-4.8746 4.11328,-7.9922 a 0.50005,0.50005 0 0 0 -0.52148,-0.541 z m 5.48633,0.01 a 0.50005,0.50005 0 0 0 -0.002,0 0.50005,0.50005 0 0 0 -0.46485,0.4277 c -0.64543,4.0973 -2.29471,7.9721 -4.80078,11.2773 a 0.50005,0.50005 0 1 0 0.79688,0.6035 c 2.60573,-3.4367 4.32109,-7.4643 4.99218,-11.7246 a 0.50005,0.50005 0 0 0 -0.52148,-0.5859 z m 15.54101,5.7656 a 0.50005,0.50005 0 0 0 -0.48242,0.4082 c -0.4705,2.3542 -1.18542,4.6535 -2.13281,6.8594 a 0.50005,0.50005 0 1 0 0.91797,0.3945 c 0.97483,-2.2697 1.71118,-4.6363 2.19531,-7.0586 a 0.50005,0.50005 0 0 0 -0.49805,-0.6035 z m -6.65234,1.4355 a 0.50005,0.50005 0 0 0 -0.4668,0.3653 c -0.72125,2.4706 -1.69161,4.8613 -2.89453,7.1367 a 0.50063572,0.50063572 0 1 0 0.88477,0.4687 c 1.23446,-2.335 2.22858,-4.7887 2.96875,-7.3242 a 0.50005,0.50005 0 0 0 -0.49219,-0.6465 z m -8.37109,1.4587 a 0.50005,0.50005 0 0 0 -0.41407,0.2988 c -0.68125,1.4938 -1.48721,2.9273 -2.41015,4.2852 a 0.50005,0.50005 0 1 0 0.82617,0.5625 c 0.95464,-1.4045 1.78948,-2.8884 2.49414,-4.4336 a 0.50005,0.50005 0 0 0 -0.44531,-0.7129 0.50005,0.50005 0 0 0 -0.0508,0 z" color="#000" font-family="sans-serif" font-weight="400" overflow="visible" transform="translate(0 -988.362)" white-space="normal" style="line-height:normal;text-indent:0;text-align:start;text-decoration-line:none;text-decoration-style:solid;text-decoration-color:#000;text-transform:none;block-progression:tb;isolation:auto;mix-blend-mode:normal"/></svg>