<svg xmlns="http://www.w3.org/2000/svg" width="64" height="64" viewBox="0 0 64 64"><g transform="translate(-593 -1168.362)"><path fill="#49b2d6" d="m 625,190 c -2.6,0 -7.80078,6.09259 -7.80078,10.40039 0,2.10075 0.83497,4.00384 2.18555,5.40625 l -4.78516,2.39258 C 613.31126,208.84342 612,209.36038 612,210.80078 l 0,15.39844 c 0,1.4404 1.15919,2.60156 2.59961,2.60156 l 20.80078,0 c 1.44042,0 2.59961,-1.16116 2.59961,-2.60156 l 0,-15.39844 c 0,-1.4404 -1.31126,-1.95736 -2.59961,-2.60156 l -4.78516,-2.39258 c 1.35058,-1.40241 2.18555,-3.3055 2.18555,-5.40625 C 632.80078,196.09259 627.6,190 625,190 Z" transform="translate(0 988.362)"/><path fill="#ffeca6" d="m 630.2,1188.7622 c 0,2.8718 -2.6,7.8 -5.2,7.8 -2.6,0 -5.2,-4.9282 -5.2,-7.8 0,-2.8719 2.32812,-5.2 5.2,-5.2 2.87188,0 5.2,2.3281 5.2,5.2 z"/><path fill="#cfd3d6" d="m 607,1219.3622 0,1 c 0,1.108 0.892,2 2,2 l 32,0 c 1.108,0 2,-0.892 2,-2 l 0,-1 -36,0 z"/><path fill="#474545" d="m 611.00002,1200.3622 27.99996,0 c 0.55401,0 1.00002,0.446 1.00002,1 l 0,18 c 0,0.554 -0.44601,1 -1.00002,1 l -27.99996,0 c -0.55401,0 -1.00002,-0.446 -1.00002,-1 l 0,-18 c 0,-0.554 0.44601,-1 1.00002,-1 z"/><path fill="#726f6f" d="m 626.14694,1207.5208 c 0.0452,0.6765 -0.49611,1.2628 -1.17264,1.353 -0.0902,-0.6765 0.45102,-1.2628 1.17264,-1.353 z m -2.16488,1.3079 c 0.49611,0 0.76673,0.2255 1.12754,0.2255 0.40592,0 0.67653,-0.2255 1.12755,-0.2255 0.40591,0 0.85693,0.2255 1.08245,0.5863 -0.40592,0.2256 -0.63143,0.5864 -0.63143,1.0825 0,0.4961 0.31571,0.9923 0.81183,1.1727 -0.27061,0.7216 -0.85694,1.5334 -1.35306,1.5334 -0.40591,0 -0.63142,-0.2255 -1.03734,-0.2255 -0.40591,0 -0.63143,0.2255 -1.08244,0.2255 -0.54122,0 -1.21775,-0.9472 -1.39816,-1.7138 -0.1804,-0.7217 -0.2255,-1.4434 0.22551,-2.0748 0.22551,-0.3156 0.72163,-0.5863 1.12755,-0.5863 z" class="st1"/></g></svg>