<svg xmlns="http://www.w3.org/2000/svg" width="64" height="64" viewBox="0 0 64 64"><g transform="translate(-668 -1174.862)"><path fill="#cfd3d6" fill-rule="evenodd" style="line-height:normal;text-indent:0;text-align:start;text-decoration-line:none;text-decoration-style:solid;text-decoration-color:#000;text-transform:none;block-progression:tb;isolation:auto;mix-blend-mode:normal" d="m 680.18164,1197.4902 -1.41406,1.4141 0.70703,0.707 1.41406,-1.414 -0.70703,-0.7071 z" color="#000" font-family="sans-serif" font-weight="400" overflow="visible" white-space="normal"/><path fill="#cfd3d6" d="m 676,1217.3622 0,2 c 0,1.662 1.338,3 3,3 l 42,0 c 1.662,0 3,-1.338 3,-3 l 0,-2 -48,0 z"/><path fill="#474545" d="m 682.00002,1192.3622 35.99996,0 c 1.10801,0 2.00002,0.892 2.00002,2 l 0,23 c 0,1.108 -0.89201,2 -2.00002,2 l -35.99996,0 c -1.10801,0 -2.00002,-0.892 -2.00002,-2 l 0,-23 c 0,-1.108 0.89201,-2 2.00002,-2 z"/><path fill="#eff4f7" d="m 676,1217.3622 0,2 48,0 0,-2 z"/><path fill="#49b2d6" d="m 682,1194.3622 36,0 0,21 -36,0 z"/><path fill="#726f6f" d="m 706,1217.3622 0,0 c 0,1.108 -0.892,2 -1.99999,2 l -8.00002,0 c -1.10799,0 -1.99999,-0.892 -1.99999,-2 l 0,0 c 2,0 9,0 12,0 z"/><path fill="#474545" d="m 717.99287,1199.8622 a 0.5,0.5 0 0 0 0.5,0.5 0.5,0.5 0 0 0 0.5,-0.5 0.5,0.5 0 0 0 -0.5,-0.5 0.5,0.5 0 0 0 -0.5,0.5 z"/><path fill="#cfd3d6" style="line-height:normal;text-indent:0;text-align:start;text-decoration-line:none;text-decoration-style:solid;text-decoration-color:#000;text-transform:none;block-progression:tb;isolation:auto;mix-blend-mode:normal" d="m 699,1200.3613 c -3.30186,0 -6,2.6982 -6,6 0,3.3019 2.69814,6 6,6 3.30186,0 6,-2.6981 6,-6 0,-3.3018 -2.69814,-6 -6,-6 z m 0,2 c 2.22098,0 4,1.779 4,4 0,2.221 -1.77902,4 -4,4 -2.22098,0 -4,-1.779 -4,-4 0,-2.221 1.77902,-4 4,-4 z" color="#000" font-family="sans-serif" font-weight="400" overflow="visible" white-space="normal"/><path fill="#cfd3d6" d="m 697.00002,1197.3622 3.99996,0 c 0.55401,0 1.00002,0.3717 1.00002,0.8334 l 0,3.3332 c 0,0.4617 -0.44601,0.8334 -1.00002,0.8334 l -3.99996,0 c -0.55401,0 -1.00002,-0.3717 -1.00002,-0.8334 l 0,-3.3332 c 0,-0.4617 0.44601,-0.8334 1.00002,-0.8334 z"/><path fill="#5e5c5c" d="m 699,210 a 1,1 0 0 0 -1,1 1,1 0 0 0 0.5,0.86328 l 0,1.13672 1,0 0,-1.13477 A 1,1 0 0 0 700,211 a 1,1 0 0 0 -1,-1 z" transform="translate(0 988.362)"/><path fill="#cfd3d6" style="line-height:normal;text-indent:0;text-align:start;text-decoration-line:none;text-decoration-style:solid;text-decoration-color:#000;text-transform:none;block-progression:tb;isolation:auto;mix-blend-mode:normal" d="m 699,1191.3613 c -0.82235,0 -1.5,0.6777 -1.5,1.5 l 0,1 c 0,0.8224 0.67765,1.5 1.5,1.5 0.82235,0 1.5,-0.6776 1.5,-1.5 l 0,-1 c 0,-0.8223 -0.67765,-1.5 -1.5,-1.5 z m 0,1 c 0.28563,0 0.5,0.2144 0.5,0.5 l 0,1 c 0,0.2857 -0.21437,0.5 -0.5,0.5 -0.28565,0 -0.5,-0.2143 -0.5,-0.5 l 0,-1 c 0,-0.2856 0.21435,-0.5 0.5,-0.5 z" color="#000" font-family="sans-serif" font-weight="400" overflow="visible" white-space="normal"/><path fill="#cfd3d6" fill-rule="evenodd" style="line-height:normal;text-indent:0;text-align:start;text-decoration-line:none;text-decoration-style:solid;text-decoration-color:#000;text-transform:none;block-progression:tb;isolation:auto;mix-blend-mode:normal" d="m 698.5,1194.7656 0,3.1055 1,0 0,-3.1055 -1,0 z" color="#000" font-family="sans-serif" font-weight="400" overflow="visible" white-space="normal"/><path fill="#cfd3d6" style="line-height:normal;text-indent:0;text-align:start;text-decoration-line:none;text-decoration-style:solid;text-decoration-color:#000;text-transform:none;block-progression:tb;isolation:auto;mix-blend-mode:normal" d="m 680.74414,214.06641 c -0.23185,-0.0401 -0.49448,0.004 -0.73437,0.14257 l -3.46485,2 c -0.47977,0.277 -0.68006,0.82286 -0.44922,1.22266 l 1.49024,2.58203 c -1.02776,1.79575 -1.10845,4.07709 -0.004,5.99024 1.65094,2.8595 5.33582,3.84816 8.19531,2.19726 2.85948,-1.6509 3.84622,-5.33776 2.19532,-8.19726 -1.10461,-1.91319 -3.11999,-2.98072 -5.18946,-2.98829 l -1.49218,-2.58398 c -0.11542,-0.1999 -0.31503,-0.32516 -0.54688,-0.36523 z M 682.86719,219 c 1.34925,0.0278 2.64623,0.74172 3.375,2.00391 1.11047,1.9235 0.45857,4.35434 -1.46485,5.46484 -1.92342,1.1105 -4.35434,0.45866 -5.46484,-1.46484 -1.11048,-1.9234 -0.45857,-4.35239 1.46484,-5.46289 0.48086,-0.2776 0.99411,-0.44477 1.50977,-0.50977 0.19337,-0.0244 0.38733,-0.0352 0.58008,-0.0312 z" color="#000" font-family="sans-serif" font-weight="400" overflow="visible" transform="translate(0 988.362)" white-space="normal"/><path fill="#5e5c5c" d="m 679.25391,215.94141 a 1,1 0 0 0 -0.47657,0.13476 1,1 0 0 0 -0.36523,1.36524 1,1 0 0 0 0.86328,0.5 l 0.56836,0.98242 0.86719,-0.5 -0.56836,-0.98438 a 1,1 0 0 0 0,-0.99804 1,1 0 0 0 -0.88867,-0.5 z" transform="translate(0 988.362)"/><path fill="#cfd3d6" style="line-height:normal;text-indent:0;text-align:start;text-decoration-line:none;text-decoration-style:solid;text-decoration-color:#000;text-transform:none;block-progression:tb;isolation:auto;mix-blend-mode:normal" d="m 678.20312,1198.6621 c -0.38494,0 -0.7698,0.1448 -1.06054,0.4356 l -0.70703,0.707 c -0.58144,0.5815 -0.58151,1.5396 0,2.1211 0.58146,0.5816 1.53962,0.5815 2.12109,0 l 0.70703,-0.707 c 0.5815,-0.5815 0.58143,-1.5396 0,-2.1211 -0.29075,-0.2908 -0.6756,-0.4356 -1.06055,-0.4356 z m -0.35351,1.1426 c 0.20197,-0.202 0.50505,-0.202 0.70703,0 0.20204,0.2021 0.20196,0.5051 0,0.707 l -0.70703,0.7071 c -0.20201,0.202 -0.50504,0.202 -0.70703,0 -0.20197,-0.202 -0.20205,-0.505 0,-0.7071 l 0.70703,-0.707 z" color="#000" font-family="sans-serif" font-weight="400" overflow="visible" white-space="normal"/><path fill="#cfd3d6" fill-rule="evenodd" style="line-height:normal;text-indent:0;text-align:start;text-decoration-line:none;text-decoration-style:solid;text-decoration-color:#000;text-transform:none;block-progression:tb;isolation:auto;mix-blend-mode:normal" d="m 677.63477,1201.5879 -0.86329,0.5039 1.09961,1.8867 0.86329,-0.5039 -1.09961,-1.8867 z" color="#000" font-family="sans-serif" font-weight="400" overflow="visible" white-space="normal"/></g></svg>