<svg xmlns="http://www.w3.org/2000/svg" width="64" height="64" viewBox="0 0 64 64"><g transform="translate(-662.5 -1050.362)"><path fill="#726f6f" fill-rule="evenodd" d="M694 1064.3613l0 17 1 0 0-17-1 0zM704 1094.3555l0 1 13.5 0 0 4.8711 1 0 0-5.8711-14.5 0zM671.5 1094.3555l0 5.8711 1 0 0-4.8711 13.5 0 0-1-14.5 0zM702.5 1069.3613l0 12 1 0 0-11 13.5 0 0-1-14.5 0zM672 1069.3613l0 1 13.5 0 0 11 1 0 0-12-14.5 0zM667.5 1085.8613l0 1 55 0 0-1-55 0z" color="#000" font-family="sans-serif" font-weight="400" overflow="visible" white-space="normal" style="line-height:normal;text-indent:0;text-align:start;text-decoration-line:none;text-decoration-style:solid;text-decoration-color:#000;text-transform:none;block-progression:tb;isolation:auto;mix-blend-mode:normal"/><path fill="#474545" d="m 680.50002,1080.3622 27.99996,0 c 0.55401,0 1.00002,0.4672 1.00002,1.0476 l 0,19.9047 c 0,0.5804 -0.44601,1.0477 -1.00002,1.0477 l -27.99996,0 c -0.55401,0 -1.00002,-0.4673 -1.00002,-1.0477 l 0,-19.9047 c 0,-0.5804 0.44601,-1.0476 1.00002,-1.0476 z"/><path fill="#cfd3d6" d="m 676.5,111 0,1 c 0,1.108 0.892,2 2,2 l 32,0 c 1.108,0 2,-0.892 2,-2 l 0,-1 -36,0 z" transform="translate(0 988.362)"/><path fill="#eff4f7" d="m 676.5,1099.3622 0,1 36,0 0,-1 z"/><path fill="#726f6f" d="m 698.5,1099.3622 c 0,0.554 -0.446,1 -1.00001,1 l -5.99998,0 c -0.55401,0 -1.00001,-0.446 -1.00001,-1 1,0 5,0 8,0 z"/><path fill="#49b2d6" d="m 681.5,1082.3622 26.00001,0 0,15 -26.00001,0 z"/><path fill="#dfe3e6" d="m 694.5,95.986328 c -1.37575,0 -2.5,1.121694 -2.5,2.496094 L 692,101 l 1,0 0,-2.517578 c 0,-0.8365 0.65975,-1.496094 1.5,-1.496094 0.84025,0 1.5,0.659594 1.5,1.496094 L 696,101 l 1,0 0,-2.517578 c 0,-1.3744 -1.12425,-2.496094 -2.5,-2.496094 z" color="#000" font-family="sans-serif" font-weight="400" overflow="visible" transform="translate(0 988.362)" white-space="normal" style="line-height:normal;text-indent:0;text-align:start;text-decoration-line:none;text-decoration-style:solid;text-decoration-color:#000;text-transform:none;block-progression:tb;isolation:auto;mix-blend-mode:normal"/><path fill="#ffdc73" d="m 691.50002,1088.3622 5.99996,0 c 0.55401,0 1.00002,0.446 1.00002,1 l 0,5.0001 c 0,0.554 -0.44601,1 -1.00002,1 l -5.99996,0 c -0.55401,0 -1.00002,-0.446 -1.00002,-1 l 0,-5.0001 c 0,-0.554 0.44601,-1 1.00002,-1 z"/><path fill="#eff4f7" fill-rule="evenodd" d="m 690.5,1092.3622 8,0 0,-3 -8,0 z"/><path fill="#5e5c5c" d="M692 1090.3622l1.00003 0 0 1-1.00003 0zM694 1090.3622l1.00003 0 0 1-1.00003 0zM696.00002 1090.3622l1.00003 0 0 1-1.00003 0zM690.5 1094.3622c0 .554.44599 1 1 1l6 0c.55401 0 1-.446 1-1l-8 0z"/><path fill="#ffdc73" d="M691 1094.3622l-.30273.5977c.18173.247.47119.4023.80273.4023l.5-1zM693.5 1093.3622l1 0-1 2-1 0zM695.5 1093.3622l1 0-1 2-1 0zM697.5 1093.3622l1 0-1 2-1 0z"/><path fill="#cfd3d6" d="M692.5 1062.3622l4 0 0 4-4 0zM670.5 1068.3622l3.00002 0 0 3-3.00002 0zM664.5 1084.3622l4 0 0 4-4 0zM670.5 1099.3622l2.99998 0 0 3-2.99998 0zM719.5 1068.3622l-3.00002 0 0 3 3.00002 0zM725.5 1084.3622l-4 0 0 4 4 0zM719.5 1099.3622l-3 0 0 3 3 0z"/><path fill="#f4608a" d="m 674.5,1077.3622 2,0 0,2 -2,0 z"/><path fill="#5e5c5c" d="m 718.5,1090.3622 2,0 0,2 -2,0 z"/><path fill="#f4608a" d="m 721.5,1093.3622 0.99998,0 0,1 -0.99998,0 z"/><path fill="#eff4f7" d="M665.5 1085.3622l2 0 0 2-2 0zM693.5 1063.3622l2 0 0 2-2 0zM722.5 1085.3622l2 0 0 2-2 0z"/><path fill="#5e5c5c" d="m 688.5,1074.3622 2,0 0,2 -2,0 z"/><path fill="#ffdc73" d="m 691.5,1070.3622 1,0 0,1 -1,0 z"/><path fill="#f4608a" d="m 684.5,1065.3622 1,0 0,1 -1,0 z"/><path fill="#49b2d6" d="m 697.5,1073.3622 1,0 0,1 -1,0 z"/><path fill="#ffdc73" d="m 703.5,1063.3622 2,0 0,2 -2,0 z"/><path fill="#5e5c5c" d="m 673.50002,1089.3622 0.99998,0 0,1 -0.99998,0 z"/><path fill="#f47b9f" d="m 668.5,1094.3622 0.99998,0 0,1 -0.99998,0 z"/><path fill="#49b2d6" d="m 714.5,1080.3622 2,0 0,2 -2,0 z"/><path fill="#cfd3d6" d="m 715.5,1073.3622 1,0 0,1 -1,0 z"/><path fill="#f4608a" d="m 708.5,1075.3622 1,0 0,1 -1,0 z"/><path fill="#cfd3d6" d="m 680.5,1073.3622 1,0 0,1 -1,0 z"/></g></svg>