<svg xmlns="http://www.w3.org/2000/svg" width="64" height="64" viewBox="0 0 64 64"><g transform="translate(-116.624 -1016.39)"><g transform="translate(-631.376 -34.972)"><path fill="#f47b9f" style="line-height:normal;text-indent:0;text-align:start;text-decoration-line:none;text-decoration-style:solid;text-decoration-color:#000;text-transform:none;block-progression:tb;isolation:auto;mix-blend-mode:normal" d="M794 1091.3613l0 1 7.79297 0 3 3 2.70703 0 0-1-2.29297 0-3-3-8.20703 0zM794 1096.3613l0 1 5.79297 0 1.20703 1.2071 0 1.2929 1 0 0-1.707-1.79297-1.793-6.20703 0z" color="#000" font-family="sans-serif" font-weight="400" overflow="visible" white-space="normal"/><path fill="#f47b9f" style="line-height:normal;text-indent:0;text-align:start;text-decoration-line:none;text-decoration-style:solid;text-decoration-color:#000;text-transform:none;block-progression:tb;isolation:auto;mix-blend-mode:normal" d="M801.5 1099.3613c-.8225 0-1.5.6775-1.5 1.5 0 .8225.6775 1.5 1.5 1.5.8225 0 1.5-.6775 1.5-1.5 0-.8225-.6775-1.5-1.5-1.5zm0 1c.28206 0 .5.218.5.5 0 .2821-.21794.5-.5.5-.28206 0-.5-.2179-.5-.5 0-.282.21794-.5.5-.5zM808.5 1093.3613c-.8225 0-1.5.6775-1.5 1.5 0 .8225.6775 1.5 1.5 1.5.8225 0 1.5-.6775 1.5-1.5 0-.8225-.6775-1.5-1.5-1.5zm0 1c.28206 0 .5.218.5.5 0 .2821-.21794.5-.5.5-.28206 0-.5-.2179-.5-.5 0-.282.21794-.5.5-.5zM804.79297 1084.3613l-3 3-7.79297 0 0 1 8.20703 0 3-3 2.29297 0 0-1-2.70703 0zM801 1079.8613l0 1.293-1.20703 1.207-5.79297 0 0 1 6.20703 0 1.79297-1.7929 0-1.7071-1 0z" color="#000" font-family="sans-serif" font-weight="400" overflow="visible" white-space="normal"/><path fill="#f47b9f" style="line-height:normal;text-indent:0;text-align:start;text-decoration-line:none;text-decoration-style:solid;text-decoration-color:#000;text-transform:none;block-progression:tb;isolation:auto;mix-blend-mode:normal" d="M801.5 1077.3613c-.8225 0-1.5.6775-1.5 1.5 0 .8225.6775 1.5 1.5 1.5.8225 0 1.5-.6775 1.5-1.5 0-.8225-.6775-1.5-1.5-1.5zm0 1c.28206 0 .5.218.5.5 0 .2821-.21794.5-.5.5-.28206 0-.5-.2179-.5-.5 0-.282.21794-.5.5-.5zM808.5 1083.3613c-.8225 0-1.5.6775-1.5 1.5 0 .8225.6775 1.5 1.5 1.5.8225 0 1.5-.6775 1.5-1.5 0-.8225-.6775-1.5-1.5-1.5zm0 1c.28206 0 .5.218.5.5 0 .2821-.21794.5-.5.5-.28206 0-.5-.2179-.5-.5 0-.282.21794-.5.5-.5zM757.79297 1091.3613l-3 3-2.29297 0 0 1 2.70703 0 3-3 7.79297 0 0-1-8.20703 0zM759.79297 1096.3613l-1.79297 1.793 0 1.707 1 0 0-1.2929 1.20703-1.2071 5.79297 0 0-1-6.20703 0z" color="#000" font-family="sans-serif" font-weight="400" overflow="visible" white-space="normal"/><path fill="#f47b9f" style="line-height:normal;text-indent:0;text-align:start;text-decoration-line:none;text-decoration-style:solid;text-decoration-color:#000;text-transform:none;block-progression:tb;isolation:auto;mix-blend-mode:normal" d="M758.5 1099.3613c-.8225 0-1.5.6775-1.5 1.5 0 .8225.6775 1.5 1.5 1.5.8225 0 1.5-.6775 1.5-1.5 0-.8225-.6775-1.5-1.5-1.5zm0 1c.28206 0 .5.218.5.5 0 .2821-.21794.5-.5.5-.28206 0-.5-.2179-.5-.5 0-.282.21794-.5.5-.5zM751.5 1093.3613c-.8225 0-1.5.6775-1.5 1.5 0 .8225.6775 1.5 1.5 1.5.8225 0 1.5-.6775 1.5-1.5 0-.8225-.6775-1.5-1.5-1.5zm0 1c.28206 0 .5.218.5.5 0 .2821-.21794.5-.5.5-.28206 0-.5-.2179-.5-.5 0-.282.21794-.5.5-.5zM752.5 1084.3613l0 1 2.29297 0 3 3 8.20703 0 0-1-7.79297 0-3-3-2.70703 0zM758 1079.8613l0 1.7071 1.79297 1.7929 6.20703 0 0-1-5.79297 0-1.20703-1.207 0-1.293-1 0z" color="#000" font-family="sans-serif" font-weight="400" overflow="visible" white-space="normal"/><path fill="#f47b9f" style="line-height:normal;text-indent:0;text-align:start;text-decoration-line:none;text-decoration-style:solid;text-decoration-color:#000;text-transform:none;block-progression:tb;isolation:auto;mix-blend-mode:normal" d="M758.5 1077.3613c-.8225 0-1.5.6775-1.5 1.5 0 .8225.6775 1.5 1.5 1.5.8225 0 1.5-.6775 1.5-1.5 0-.8225-.6775-1.5-1.5-1.5zm0 1c.28206 0 .5.218.5.5 0 .2821-.21794.5-.5.5-.28206 0-.5-.2179-.5-.5 0-.282.21794-.5.5-.5zM751.5 1083.3613c-.8225 0-1.5.6775-1.5 1.5 0 .8225.6775 1.5 1.5 1.5.8225 0 1.5-.6775 1.5-1.5 0-.8225-.6775-1.5-1.5-1.5zm0 1c.28206 0 .5.218.5.5 0 .2821-.21794.5-.5.5-.28206 0-.5-.2179-.5-.5 0-.282.21794-.5.5-.5zM787 1066.8613l0 2.293-5 5 0 7.207 1 0 0-6.7929 5-5 0-2.7071-1 0z" color="#000" font-family="sans-serif" font-weight="400" overflow="visible" white-space="normal"/><path fill="#f47b9f" style="line-height:normal;text-indent:0;text-align:start;text-decoration-line:none;text-decoration-style:solid;text-decoration-color:#000;text-transform:none;block-progression:tb;isolation:auto;mix-blend-mode:normal" d="M787.5 1064.3613c-.8225 0-1.5.6775-1.5 1.5 0 .8225.6775 1.5 1.5 1.5.8225 0 1.5-.6775 1.5-1.5 0-.8225-.6775-1.5-1.5-1.5zm0 1c.28206 0 .5.218.5.5 0 .2821-.21794.5-.5.5-.28206 0-.5-.2179-.5-.5 0-.282.21794-.5.5-.5zM773 1066.8613l0 2.7071 5 5 0 6.7929 1 0 0-7.207-5-5 0-2.293-1 0zM787.79297 1073.3613l-1.79297 1.793 0 6.207 1 0 0-5.7929 1.20703-1.2071 2.29297 0 0-1-2.70703 0zM769.5 1073.3613l0 1 2.29297 0 1.20703 1.2071 0 5.7929 1 0 0-6.207-1.79297-1.793-2.70703 0z" color="#000" font-family="sans-serif" font-weight="400" overflow="visible" white-space="normal"/><path fill="#f47b9f" style="line-height:normal;text-indent:0;text-align:start;text-decoration-line:none;text-decoration-style:solid;text-decoration-color:#000;text-transform:none;block-progression:tb;isolation:auto;mix-blend-mode:normal" d="M768.5 1072.3613c-.8225 0-1.5.6775-1.5 1.5 0 .8225.6775 1.5 1.5 1.5.8225 0 1.5-.6775 1.5-1.5 0-.8225-.6775-1.5-1.5-1.5zm0 1c.28206 0 .5.218.5.5 0 .2821-.21794.5-.5.5-.28206 0-.5-.2179-.5-.5 0-.282.21794-.5.5-.5zM791.5 1072.3613c-.8225 0-1.5.6775-1.5 1.5 0 .8225.6775 1.5 1.5 1.5.8225 0 1.5-.6775 1.5-1.5 0-.8225-.6775-1.5-1.5-1.5zm0 1c.28206 0 .5.218.5.5 0 .2821-.21794.5-.5.5-.28206 0-.5-.2179-.5-.5 0-.282.21794-.5.5-.5zM773.5 1064.3613c-.8225 0-1.5.6775-1.5 1.5 0 .8225.6775 1.5 1.5 1.5.8225 0 1.5-.6775 1.5-1.5 0-.8225-.6775-1.5-1.5-1.5zm0 1c.28206 0 .5.218.5.5 0 .2821-.21794.5-.5.5-.28206 0-.5-.2179-.5-.5 0-.282.21794-.5.5-.5z" color="#000" font-family="sans-serif" font-weight="400" overflow="visible" white-space="normal"/></g><path fill="#474545" d="m 149.12443,1057.3902 a 0.5,0.5 0 0 1 -0.5,0.5 0.5,0.5 0 0 1 -0.5,-0.5 0.5,0.5 0 0 1 0.5,-0.5 0.5,0.5 0 0 1 0.5,0.5 z"/><path fill="#474545" d="m 134.62445,1045.3902 27.99996,0 c 0.55401,0 1.00002,0.4672 1.00002,1.0476 l 0,17.9047 c 0,0.5804 -0.44601,1.0477 -1.00002,1.0477 l -27.99996,0 c -0.55401,0 -1.00002,-0.4673 -1.00002,-1.0477 l 0,-17.9047 c 0,-0.5804 0.44601,-1.0476 1.00002,-1.0476 z"/><path fill="#cfd3d6" d="m 130.62443,1064.3902 0,1 c 0,1.108 0.892,2 2,2 l 32,0 c 1.108,0 2,-0.892 2,-2 l 0,-1 -36,0 z"/><path fill="#eff4f7" d="m 130.62443,1064.3902 0,1 36,0 0,-1 z"/><path fill="#726f6f" d="m 152.62443,1064.3902 c 0,0.554 -0.446,1 -1.00001,1 l -5.99998,0 c -0.55401,0 -1.00001,-0.446 -1.00001,-1 1,0 5,0 8,0 z"/><path fill="#49b2d6" d="m 135.62443,1047.3902 26,0 0,15 -26,0 z"/><path fill="#ffcb59" d="m 150.45512,1060.3902 c -0.61641,-10e-5 -1.97303,0 -3.0147,0 -2.47507,0 -2.79373,0 -2.95854,-0.036 -0.33514,-0.066 -0.5888,-0.1927 -0.8261,-0.4115 -0.36216,-0.3338 -0.55048,-0.7531 -0.55879,-1.244 -0.005,-0.2877 0.0471,-0.5192 0.17534,-0.7805 0.0346,-0.071 0.29004,-0.52 0.5676,-0.9987 0.27757,-0.4788 1.13109,-1.9527 1.89671,-3.2752 0.76562,-1.3226 1.42899,-2.4585 1.47416,-2.5242 0.23159,-0.3372 0.55905,-0.5666 0.9773,-0.6846 0.15086,-0.043 0.52601,-0.06 0.70173,-0.032 0.24455,0.038 0.50548,0.1408 0.70672,0.2773 0.13961,0.095 0.32683,0.2845 0.43566,0.4417 0.0532,0.077 0.35425,0.5843 0.66896,1.1275 0.31469,0.5432 1.16806,2.0158 1.89638,3.2726 0.7283,1.2568 1.3471,2.3316 1.3751,2.3886 0.27282,0.5548 0.23293,1.1886 -0.10757,1.7093 -0.13815,0.2113 -0.36847,0.427 -0.58326,0.5463 -0.13453,0.075 -0.36426,0.1545 -0.53506,0.1859 -0.16132,0.03 -0.61861,0.037 -2.29164,0.037 z"/><path fill="#474545" fill-rule="evenodd" style="line-height:normal;text-indent:0;text-align:start;text-decoration-line:none;text-decoration-style:solid;text-decoration-color:#000;text-transform:none;block-progression:tb;isolation:auto;mix-blend-mode:normal" d="m 148.12443,1053.3893 0,3.5723 1,0 0,-3.5723 -1,0 z" color="#000" font-family="sans-serif" font-weight="400" overflow="visible" white-space="normal"/><path fill="#474545" d="m 148.12443,1057.8902 1,0 0,1 -1,0 z"/></g></svg>