<svg xmlns="http://www.w3.org/2000/svg" width="64" height="64" viewBox="0 0 64 64"><g transform="translate(-593 -1222.362)"><path fill="#f47b9f" style="line-height:normal;text-indent:0;text-align:start;text-decoration-line:none;text-decoration-style:solid;text-decoration-color:#000;text-transform:none;block-progression:tb;isolation:auto;mix-blend-mode:normal" d="m 632,1233.8613 0,2.293 -5,5 0,6.707 1,0 0,-6.2929 5,-5 0,-2.7071 z" color="#000" font-family="sans-serif" font-weight="400" overflow="visible" white-space="normal"/><path fill="#f47b9f" style="line-height:normal;text-indent:0;text-align:start;text-decoration-line:none;text-decoration-style:solid;text-decoration-color:#000;text-transform:none;block-progression:tb;isolation:auto;mix-blend-mode:normal" d="M632.5 1231.3613c-.8225 0-1.5.6775-1.5 1.5 0 .8225.6775 1.5 1.5 1.5.8225 0 1.5-.6775 1.5-1.5 0-.8225-.6775-1.5-1.5-1.5zm0 1c.28206 0 .5.218.5.5 0 .2821-.21794.5-.5.5-.28206 0-.5-.2179-.5-.5 0-.282.21794-.5.5-.5zM618 1233.8613l0 2.7071 5 5 0 6.2929 1 0 0-6.707-5-5 0-2.293zM632.79297 1240.3613l-1.79297 1.793 0 7.207 1 0 0-6.7929 1.20703-1.2071 2.29297 0 0-1zM614.5 1240.3613l0 1 2.29297 0 1.20703 1.2071 0 6.7929 1 0 0-7.207-1.79297-1.793z" color="#000" font-family="sans-serif" font-weight="400" overflow="visible" white-space="normal"/><path fill="#f47b9f" style="line-height:normal;text-indent:0;text-align:start;text-decoration-line:none;text-decoration-style:solid;text-decoration-color:#000;text-transform:none;block-progression:tb;isolation:auto;mix-blend-mode:normal" d="M613.5 1239.3613c-.8225 0-1.5.6775-1.5 1.5 0 .8225.6775 1.5 1.5 1.5.8225 0 1.5-.6775 1.5-1.5 0-.8225-.6775-1.5-1.5-1.5zm0 1c.28206 0 .5.218.5.5 0 .2821-.21794.5-.5.5-.28206 0-.5-.2179-.5-.5 0-.282.21794-.5.5-.5zM636.5 1239.3613c-.8225 0-1.5.6775-1.5 1.5 0 .8225.6775 1.5 1.5 1.5.8225 0 1.5-.6775 1.5-1.5 0-.8225-.6775-1.5-1.5-1.5zm0 1c.28206 0 .5.218.5.5 0 .2821-.21794.5-.5.5-.28206 0-.5-.2179-.5-.5 0-.282.21794-.5.5-.5zM618.5 1231.3613c-.8225 0-1.5.6775-1.5 1.5 0 .8225.6775 1.5 1.5 1.5.8225 0 1.5-.6775 1.5-1.5 0-.8225-.6775-1.5-1.5-1.5zm0 1c.28206 0 .5.218.5.5 0 .2821-.21794.5-.5.5-.28206 0-.5-.2179-.5-.5 0-.282.21794-.5.5-.5z" color="#000" font-family="sans-serif" font-weight="400" overflow="visible" white-space="normal"/><path fill="#474545" d="m 607.00002,1247.3622 35.99996,0 c 1.10801,0 2.00002,0.892 2.00002,2 l 0,23 c 0,1.108 -0.89201,2 -2.00002,2 l -35.99996,0 c -1.10801,0 -2.00002,-0.892 -2.00002,-2 l 0,-23 c 0,-1.108 0.89201,-2 2.00002,-2 z"/><path fill="#49b2d6" d="m 607,1249.3622 36,0 0,21 -36,0 z"/><path fill="#cfd3d6" d="m 601,1272.3622 0,1.5 c 0,1.939 1.56101,3.5 3.5,3.5 l 41,0 c 1.93899,0 3.5,-1.561 3.5,-3.5 l 0,-1.5 -48,0 z"/><path fill="#eff4f7" d="m 601,1272.3622 0,2 48,0 0,-2 z"/><path fill="#726f6f" d="m 631,1272.3622 0,0 c 0,1.108 -0.892,2 -1.99999,2 l -8.00002,0 c -1.10799,0 -1.99999,-0.892 -1.99999,-2 l 0,0 c 2,0 9,0 12,0 z"/><path fill="#726f6f" fill-rule="evenodd" style="line-height:normal;text-indent:0;text-align:start;text-decoration-line:none;text-decoration-style:solid;text-decoration-color:#000;text-transform:none;block-progression:tb;isolation:auto;mix-blend-mode:normal" d="M618 1249.3613l0 4.9999 1 0 0-4.9999zM623.03711 1249.3613l0 5.0009.92578 0 0-5.0009zM627.04297 1249.3613l0 5 .91406 0 0-5zM631.0332 1249.3613l0 5 .9336 0 0-5z" color="#000" font-family="sans-serif" font-weight="400" overflow="visible" white-space="normal"/><path fill="#ffcb59" d="m 616,1255.3622 16,0 c 0.554,0 1,0.446 1,1 l 0,11 c 0,0.554 -0.446,1 -1,1 l -16,0 c -0.554,0 -1,-0.446 -1,-1 l 0,-11 c 0,-0.554 0.446,-1 1,-1 z"/><path fill="#eff4f7" fill-rule="evenodd" d="m 624.00002,1252.3622 5.99996,0 c 1.10801,0 2.00002,0.892 2.00002,2 l 0,10 c 0,1.108 -0.89201,2 -2.00002,2 l -5.99996,0 c -1.10801,0 -2.00002,-0.892 -2.00002,-2 l 0,-10 c 0,-1.108 0.89201,-2 2.00002,-2 z"/><path fill="#ffcb59" d="m 616.02857,1252.3622 3.94286,0 c 0.56983,0 1.02857,0.446 1.02857,1 l 0,13 c 0,0.554 -0.45874,1 -1.02857,1 l -3.94286,0 c -0.56983,0 -1.02857,-0.446 -1.02857,-1 l 0,-13 c 0,-0.554 0.45874,-1 1.02857,-1 z"/><path fill="#ffdc73" d="m 620.14621,1258.3621 13.96394,0 c 0.55257,0 0.94647,0.4055 0.8832,0.9091 l -1.02786,8.1817 c -0.0633,0.5037 -0.55907,0.9092 -1.11164,0.9092 l -13.96394,0 c -0.55257,0 -0.94648,-0.4055 -0.8832,-0.9092 l 1.02786,-8.1817 c 0.0633,-0.5036 0.55907,-0.9091 1.11164,-0.9091 z"/><path fill="#ffcb59" d="m 622,1255.3622 c -0.554,0 -1,-0.446 -1,-1 l 0,1 z"/><path fill="#ffdc73" d="M617 1268.3622c.554 0 1-.446 1-1l0 1zM619 1268.3622c-.554 0-1-.446-1-1l0 1z"/><path fill="#474545" d="m 624.80273,1265.3613 1,0 0,-1 -1,0 z m 2,0 1,0 0,-1 -1,0 z m 2,0 1,0 0,-1 -1,0 z m 2,0 1,0 0,-1 -1,0 z m 2,0 1,0 0,-1 -1,0 z m -9.17187,-0.8281 -0.0371,0.01 -0.0352,0.016 -0.45703,0.1856 -0.0351,0.016 -0.0332,0.019 -0.37304,0.2227 0.51367,0.8574 0.33984,-0.2031 0.38867,-0.1582 0.0293,-0.01 0,0 0.004,0 -0.0117,-0.031 -0.22266,-0.9356 z m -1.82813,1.2578 -0.0254,0.029 -0.0215,0.031 -0.26758,0.4062 -0.0195,0.031 -0.0156,0.035 -0.20507,0.4453 0.9082,0.418 0.18945,-0.4141 0.2461,-0.373 -0.29688,-0.1953 -0.47851,-0.4297 z" color="#000" font-family="sans-serif" font-weight="400" overflow="visible" white-space="normal" style="line-height:normal;text-indent:0;text-align:start;text-decoration-line:none;text-decoration-style:solid;text-decoration-color:#000;text-transform:none;block-progression:tb;isolation:auto;mix-blend-mode:normal"/><path fill="#dfe3e6" d="m 632,1252.3622 a 2.0000081,2.0000081 0 0 1 2.00001,2 l -2.00001,0 z"/><path fill="#474545" d="m 623.59808,1268.5943 -1.73205,-1 c -0.47978,-0.277 -0.64303,-0.8863 -0.36603,-1.366 0.277,-0.4798 0.88625,-0.6431 1.36603,-0.3661 l 1.73205,1 c 0.47978,0.277 0.64302,0.8863 0.36602,1.3661 -0.277,0.4797 -0.88624,0.643 -1.36602,0.366 z"/><path fill="#ffdc73" d="m 623.66507,1267.4783 a 0.5,0.5 0 0 1 0.68301,-0.183 0.5,0.5 0 0 1 0.18301,0.683 0.5,0.5 0 0 1 -0.68301,0.183 0.5,0.5 0 0 1 -0.18301,-0.683 z"/><path fill="none" stroke="#5e5c5c" d="m 622.43302,1265.6122 -1,1.7321"/><path fill="#dfe3e6" d="m 624,1252.3622 8,0 0,2 -8,0 z"/><path fill="#474545" d="m 621.81641,1262.9492 0.30859,0.3438 0.0254,0.029 0.0293,0.023 0.375,0.3086 0.0273,0.023 0.0332,0.02 0.0449,0.027 0.4375,-0.7305 0.0918,-0.1113 -0.0176,-0.014 0.002,0 -0.0117,-0.01 -0.31836,-0.2617 -0.2832,-0.3165 z m 1.88476,1.2598 0.41797,0.1 0.0391,0.01 0.0391,0 0.51367,0.041 0.0195,0 0.0195,0 0.0527,0 0,-1 -0.0391,0 -0.0137,0 -0.43359,-0.033 -0.38477,-0.092 z m 2.10156,0.1523 1,0 0,-1 -1,0 z m 2,0 1,0 0,-1 -1,0 z m 2,0 1,0 0,-1 -1,0 z m 2,0 1,0 0,-1 -1,0 z m 2,0 0.44727,0 0,-1 -0.44727,0 z" color="#000" font-family="sans-serif" font-weight="400" overflow="visible" white-space="normal" style="line-height:normal;text-indent:0;text-align:start;text-decoration-line:none;text-decoration-style:solid;text-decoration-color:#000;text-transform:none;block-progression:tb;isolation:auto;mix-blend-mode:normal"/><path fill="#eff4f7" d="m 624,1252.3622 a 2.0000081,2.0000081 0 0 1 2.00001,2 l -2.00001,0 z"/></g></svg>