<svg xmlns="http://www.w3.org/2000/svg" width="64" height="64" viewBox="0 0 64 64"><g transform="translate(-668 -1224.361)"><path fill="#474545" fill-rule="evenodd" style="line-height:normal;text-indent:0;text-align:start;text-decoration-line:none;text-decoration-style:solid;text-decoration-color:#000;text-transform:none;block-progression:tb;isolation:auto;mix-blend-mode:normal" d="m 709.26953,1257.3652 -0.10351,0.9942 9.98046,1.0312 1.88672,4.6602 0.92774,-0.377 -2.11328,-5.2168 -10.57813,-1.0918 z" color="#000" font-family="sans-serif" font-weight="400" overflow="visible" white-space="normal"/><path fill="#474545" style="line-height:normal;text-indent:0;text-align:start;text-decoration-line:none;text-decoration-style:solid;text-decoration-color:#000;text-transform:none;block-progression:tb;isolation:auto;mix-blend-mode:normal" d="M706.49219 1235.3613c-2.63616 0-4.78316 2.149-4.78321 4.7852a.50005.50005 0 1 0 1 0c.00004-2.0957 1.68748-3.7852 3.78321-3.7852a.50005.50005 0 1 0 0-1zM693.50781 1235.3613a.50005.50005 0 1 0 0 1c2.09573 0 3.78317 1.6895 3.78321 3.7852a.50005.50005 0 1 0 1 0c-.00005-2.6362-2.14705-4.7852-4.78321-4.7852z" color="#000" font-family="sans-serif" font-weight="400" overflow="visible" white-space="normal"/><path fill="#474545" fill-rule="evenodd" style="line-height:normal;text-indent:0;text-align:start;text-decoration-line:none;text-decoration-style:solid;text-decoration-color:#000;text-transform:none;block-progression:tb;isolation:auto;mix-blend-mode:normal" d="M690.72852 1257.3652l-10.57813 1.0918-2.11328 5.2168.92578.377 1.88672-4.6602 9.98242-1.0312-.10351-.9942zM707.46484 1261.3828l-.58789.8067 8.12305 5.9277 0 6.5215 1 0 0-7.0313-8.53516-6.2246zM692.53516 1261.3828l-8.52735 6.2246 0 7.0313 1 0 0-6.5215 8.11719-5.9277-.58984-.8067zM715 1241.8613l0 6.7403-8.11523 5.6386.57226.8203 8.54297-5.9375 0-7.2617-1 0zM684 1241.8613l0 7.2617 8.54297 5.9375.57226-.8203-8.11523-5.6386 0-6.7403-1 0z" color="#000" font-family="sans-serif" font-weight="400" overflow="visible" white-space="normal"/><path fill="#f4608a" d="m 707.13993,1245.3583 a 7.1399474,7.1399474 0 0 1 -7.13995,7.1399 7.1399474,7.1399474 0 0 1 -7.13994,-7.1399 7.1399474,7.1399474 0 0 1 7.13994,-7.14 7.1399474,7.1399474 0 0 1 7.13995,7.14 z"/><path fill="#49b2d6" d="M 712.85192,1261.066 A 12.851915,12.851915 0 0 1 700,1273.918 12.851915,12.851915 0 0 1 687.14808,1261.066 12.851915,12.851915 0 0 1 700,1248.2141 a 12.851915,12.851915 0 0 1 12.85192,12.8519 z"/><path fill="#1395bf" d="M699.286 1248.2393a12.851915 12.851915 0 0 0-12.13792 12.8268 12.851915 12.851915 0 0 0 7.13995 11.4937c2.99828-1.5372 4.99797-4.2317 4.99797-7.3352l0-16.9853zM700.71399 1248.2505l0 16.9741c0 3.1078 2.00395 5.8075 5.00912 7.3435a12.851915 12.851915 0 0 0 7.1288-11.502 12.851915 12.851915 0 0 0-12.13792-12.8156z"/><path fill="#474545" fill-rule="evenodd" style="line-height:normal;text-indent:0;text-align:start;text-decoration-line:none;text-decoration-style:solid;text-decoration-color:#000;text-transform:none;block-progression:tb;isolation:auto;mix-blend-mode:normal" d="M684.5 1274.3613c-.8225 0-1.5.6775-1.5 1.5 0 .8225.6775 1.5 1.5 1.5.8225 0 1.5-.6775 1.5-1.5 0-.8225-.6775-1.5-1.5-1.5zm0 1c.28206 0 .5.218.5.5 0 .2821-.21794.5-.5.5-.28206 0-.5-.2179-.5-.5 0-.282.21794-.5.5-.5zM715.5 1274.3613c-.8225 0-1.5.6775-1.5 1.5 0 .8225.6775 1.5 1.5 1.5.8225 0 1.5-.6775 1.5-1.5 0-.8225-.6775-1.5-1.5-1.5zm0 1c.28206 0 .5.218.5.5 0 .2821-.21794.5-.5.5-.28206 0-.5-.2179-.5-.5 0-.282.21794-.5.5-.5zM678.5 1263.3613c-.8225 0-1.5.6775-1.5 1.5 0 .8225.6775 1.5 1.5 1.5.8225 0 1.5-.6775 1.5-1.5 0-.8225-.6775-1.5-1.5-1.5zm0 1c.28206 0 .5.218.5.5 0 .2821-.21794.5-.5.5-.28206 0-.5-.2179-.5-.5 0-.282.21794-.5.5-.5zM721.5 1263.3613c-.8225 0-1.5.6775-1.5 1.5 0 .8225.6775 1.5 1.5 1.5.8225 0 1.5-.6775 1.5-1.5 0-.8225-.6775-1.5-1.5-1.5zm0 1c.28206 0 .5.218.5.5 0 .2821-.21794.5-.5.5-.28206 0-.5-.2179-.5-.5 0-.282.21794-.5.5-.5zM684.5 1239.3613c-.8225 0-1.5.6775-1.5 1.5 0 .8225.6775 1.5 1.5 1.5.8225 0 1.5-.6775 1.5-1.5 0-.8225-.6775-1.5-1.5-1.5zm0 1c.28206 0 .5.218.5.5 0 .2821-.21794.5-.5.5-.28206 0-.5-.2179-.5-.5 0-.282.21794-.5.5-.5zM715.5 1239.3613c-.8225 0-1.5.6775-1.5 1.5 0 .8225.6775 1.5 1.5 1.5.8225 0 1.5-.6775 1.5-1.5 0-.8225-.6775-1.5-1.5-1.5zm0 1c.28206 0 .5.218.5.5 0 .2821-.21794.5-.5.5-.28206 0-.5-.2179-.5-.5 0-.282.21794-.5.5-.5z" color="#000" font-family="sans-serif" font-weight="400" overflow="visible" white-space="normal"/></g></svg>