<?xml version="1.0" encoding="UTF-8"?>
<!DOCTYPE svg PUBLIC "-//W3C//DTD SVG 1.1//EN" "http://www.w3.org/Graphics/SVG/1.1/DTD/svg11.dtd">
<svg xmlns="http://www.w3.org/2000/svg" xmlns:xlink="http://www.w3.org/1999/xlink" xml:space="preserve" width="176.389mm" height="176.389mm" version="1.1" style="shape-rendering:geometricPrecision; text-rendering:geometricPrecision; image-rendering:optimizeQuality; fill-rule:evenodd; clip-rule:evenodd" viewBox="0 0 17639 17639">
 <defs>
  <style type="text/css">
   <![CDATA[
    .fil1 {fill:#252653}
    .fil0 {fill:#36E7D6}
    .fil2 {fill:#36E7D6}
   ]]>
  </style>
 </defs>
 <g id="Layer_x0020_1">
  
  <rect class="fil0" x="1082" y="1129" width="15475" height="15381" style="fill: #36E7D6;"/>
  <rect class="fil1" x="2379" y="2418" width="12881" height="12803" style="fill: #252653;"/>
  <path class="fil2" d="M7529 10603l505 1674c27,98 78,123 148,122l1295 0c100,0 107,-29 91,-96l-2138 -7132c-4,-14 -14,-23 -34,-23l-1793 -5c-70,0 -72,37 -66,105 22,249 10,387 -42,582l-1894 6477c-20,61 -15,92 66,92l1222 -1c129,-4 136,-38 158,-104l425 -1692 2057 1zm-261 -1303l-1485 0 720 -2910 765 2910z" style="fill: #36E7D6;"/>
  <path class="fil2" d="M9997 7222l1167 2c94,3 108,42 107,151l-5 3264c36,1030 1342,547 1343,236l6 -3514c0,-105 33,-146 152,-147l1095 1c119,-2 128,65 128,172l8 4218c1,473 155,787 -86,787l-886 0c-269,0 -292,-170 -293,-415 0,0 -4,3 -12,9 -349,315 -846,513 -1325,510 -1289,-9 -1547,-1014 -1498,-2013l-9 -3138c0,-99 12,-123 108,-123z" style="fill: #36E7D6;"/>
 </g>

	<metadata>
		<rdf:RDF xmlns:rdf="http://www.w3.org/1999/02/22-rdf-syntax-ns#" xmlns:rdfs="http://www.w3.org/2000/01/rdf-schema#" xmlns:dc="http://purl.org/dc/elements/1.1/">
			<rdf:Description about="https://iconscout.com/legal#licenses" dc:title="Adobe_Audition _CC_Creative Cloud" dc:description="Adobe_Audition _CC_Creative Cloud" dc:publisher="Iconscout" dc:date="2017-04-21" dc:format="image/svg+xml" dc:language="en">
				<dc:creator>
					<rdf:Bag>
						<rdf:li>Alexander Panasovsky</rdf:li>
					</rdf:Bag>
				</dc:creator>
			</rdf:Description>
		</rdf:RDF>
    </metadata></svg>
