<?xml version="1.0" encoding="UTF-8"?>
<!DOCTYPE svg PUBLIC "-//W3C//DTD SVG 1.1//EN" "http://www.w3.org/Graphics/SVG/1.1/DTD/svg11.dtd">
<svg xmlns="http://www.w3.org/2000/svg" xmlns:xlink="http://www.w3.org/1999/xlink" xml:space="preserve" width="176.389mm" height="176.389mm" version="1.1" style="shape-rendering:geometricPrecision; text-rendering:geometricPrecision; image-rendering:optimizeQuality; fill-rule:evenodd; clip-rule:evenodd" viewBox="0 0 17639 17639">
 <defs>
  <style type="text/css">
   <![CDATA[
    .fil1 {fill:#262000}
    .fil0 {fill:#FFDA00}
    .fil2 {fill:#FFDA00}
   ]]>
  </style>
 </defs>
 <g id="Layer_x0020_1">
  
  <rect class="fil0" x="1082" y="1129" width="15476" height="15381" style="fill: #FFDA00;"/>
  <rect class="fil1" x="2379" y="2302" width="12882" height="12803" style="fill: #262000;"/>
  <g id="_1927316352">
   <path class="fil2" d="M10340 11351c-1,-3 -3,-7 -3,-11l-7 -3058c0,-80 20,-121 71,-132 444,-94 930,-35 1232,247 395,369 450,946 436,1521 -22,898 -832,1708 -1729,1433zm-1181 -3803c89,254 58,512 58,748 0,588 -2,5305 -8,5638 260,11 863,-26 1143,-109l3 -1436c522,-2 834,45 1600,-342 847,-528 1361,-1578 1300,-2567 -159,-2585 -2204,-2762 -4058,-2066 -55,21 -54,88 -38,134z" style="fill: #FFDA00;"/>
   <path class="fil2" d="M7781 6578c190,79 280,0 274,-157 -12,-322 -10,-740 -32,-901 -1732,-639 -3601,-148 -3588,1817 18,793 633,1390 1235,1759 486,263 1315,630 1413,1198 230,1323 -1541,1147 -2282,652 -171,-115 -345,-199 -347,-113 -5,149 18,945 25,1092 7,135 71,153 284,242 867,362 2165,312 2891,-293 627,-524 843,-1585 475,-2333 -614,-1247 -2896,-1485 -2498,-2660 425,-801 1461,-548 2150,-303z" style="fill: #FFDA00;"/>
  </g>
 </g>

	<metadata>
		<rdf:RDF xmlns:rdf="http://www.w3.org/1999/02/22-rdf-syntax-ns#" xmlns:rdfs="http://www.w3.org/2000/01/rdf-schema#" xmlns:dc="http://purl.org/dc/elements/1.1/">
			<rdf:Description about="https://iconscout.com/legal#licenses" dc:title="Adobe_Spark_CC_Creative Cloud" dc:description="Adobe_Spark_CC_Creative Cloud" dc:publisher="Iconscout" dc:date="2017-04-21" dc:format="image/svg+xml" dc:language="en">
				<dc:creator>
					<rdf:Bag>
						<rdf:li>Alexander Panasovsky</rdf:li>
					</rdf:Bag>
				</dc:creator>
			</rdf:Description>
		</rdf:RDF>
    </metadata></svg>
