<?xml version="1.0" encoding="UTF-8"?>
<!DOCTYPE svg PUBLIC "-//W3C//DTD SVG 1.1//EN" "http://www.w3.org/Graphics/SVG/1.1/DTD/svg11.dtd">
<svg xmlns="http://www.w3.org/2000/svg" xmlns:xlink="http://www.w3.org/1999/xlink" xml:space="preserve" width="176.389mm" height="176.389mm" version="1.1" style="shape-rendering:geometricPrecision; text-rendering:geometricPrecision; image-rendering:optimizeQuality; fill-rule:evenodd; clip-rule:evenodd" viewBox="0 0 17639 17639">
 <defs>
  <style type="text/css">
   <![CDATA[
    .fil1 {fill:#252653}
    .fil0 {fill:#BC85F3}
    .fil2 {fill:#BC85F3}
   ]]>
  </style>
 </defs>
 <g id="Layer_x0020_1">
  
  <rect class="fil0" x="1082" y="1129" width="15476" height="15381" style="fill: #BC85F3;"/>
  <rect class="fil1" x="2379" y="2418" width="12882" height="12803" style="fill: #252653;"/>
  <path class="fil2" d="M7304 10585l539 1782 1514 0 -2150 -7172c-4,-13 -14,-22 -35,-22l-1779 -5c-69,0 -71,36 -65,104 22,247 10,385 -41,578l-1906 6518 1436 -2 447 -1782 2040 1zm-258 -1292l-1474 0 715 -2887 759 2887z" style="fill: #BC85F3;"/>
  <path class="fil2" d="M11123 10006l2779 4c175,-224 207,-645 202,-921 -19,-1120 -761,-2192 -2101,-2199 -2250,-13 -2676,2832 -1910,4473 241,516 725,844 1293,1000 259,71 534,107 812,108 550,2 1109,-131 1558,-387 7,-4 19,-4 20,-12l0 -32 -1 -927c0,-42 -32,-66 -80,-51 -568,171 -2492,717 -2581,-1004 -1,-13 -4,-52 9,-52zm1393 -929l-1415 0c7,-752 352,-1179 885,-1181 484,-2 792,334 807,1163 0,38 0,18 0,18l-277 0z" style="fill: #BC85F3;"/>
 </g>

	<metadata>
		<rdf:RDF xmlns:rdf="http://www.w3.org/1999/02/22-rdf-syntax-ns#" xmlns:rdfs="http://www.w3.org/2000/01/rdf-schema#" xmlns:dc="http://purl.org/dc/elements/1.1/">
			<rdf:Description about="https://iconscout.com/legal#licenses" dc:title="Adobe_After Effects_CC_Creative Cloud digital visual effects, motion graphics, and compositing application" dc:description="Adobe_After Effects_CC_Creative Cloud digital visual effects, motion graphics, and compositing application" dc:publisher="Iconscout" dc:date="2017-04-21" dc:format="image/svg+xml" dc:language="en">
				<dc:creator>
					<rdf:Bag>
						<rdf:li>Alexander Panasovsky</rdf:li>
					</rdf:Bag>
				</dc:creator>
			</rdf:Description>
		</rdf:RDF>
    </metadata></svg>
