<?xml version="1.0" encoding="UTF-8"?>
<!DOCTYPE svg PUBLIC "-//W3C//DTD SVG 1.1//EN" "http://www.w3.org/Graphics/SVG/1.1/DTD/svg11.dtd">
<svg xmlns="http://www.w3.org/2000/svg" xmlns:xlink="http://www.w3.org/1999/xlink" xml:space="preserve" width="176.389mm" height="176.389mm" version="1.1" style="shape-rendering:geometricPrecision; text-rendering:geometricPrecision; image-rendering:optimizeQuality; fill-rule:evenodd; clip-rule:evenodd" viewBox="0 0 17639 17639">
 <defs>
  <style type="text/css">
   <![CDATA[
    .fil0 {fill:red}
   ]]>
  </style>
 </defs>
 <g id="Layer_x0020_1">
  
  <path class="fil0" d="M1094 1147l15451 0 0 15345 -15451 0 0 -15345zm6485 11437c51,31 334,221 372,269 -1248,47 -2293,122 -3342,-565 -659,-431 -1362,-1317 -1454,-2451 -177,-2147 1654,-3976 3884,-3592 1229,212 1746,908 2345,1491 167,162 314,315 478,480 124,125 366,296 381,582 15,285 -180,504 -392,568 -344,102 -537,-108 -673,-243 -328,-328 -634,-636 -956,-959 -299,-300 -599,-615 -1154,-762 -1776,-473 -3156,1166 -2728,2706 284,1018 1157,1620 2202,1622 201,1 204,77 314,183 85,83 149,150 233,234l490 437zm6674 -2394c-72,347 -465,945 -641,1158 -898,1084 -2254,1709 -3807,1453 -1519,-250 -2256,-1188 -3209,-2143 -191,-191 -803,-741 -862,-969 -120,-155 36,-731 540,-725 309,4 548,322 796,574l1371 1369c445,417 1044,786 1909,822 2361,95 3911,-2554 2478,-4608 -729,-1045 -2151,-1495 -3410,-1013 -175,67 -323,168 -472,223 -87,-46 -160,-109 -243,-163 -378,-249 -422,-233 -804,-421 53,-174 870,-586 1005,-645 1285,-561 2862,-328 3893,424 1013,740 1692,1886 1700,3250 2,343 -95,1217 -244,1414zm-11765 -30c107,1039 854,2119 1680,2681 1187,806 2002,720 3642,720 728,0 1455,0 2183,0 1785,0 2717,-314 3943,-1511l445 -557c43,-48 15,-20 53,-48 13,-78 137,-251 193,-352 215,-390 354,-772 459,-1214 285,-1200 49,-2555 -609,-3583 -1292,-2017 -3902,-2841 -6136,-1711 -358,181 -1058,646 -1262,938 -176,5 -389,-32 -583,-33 -1724,-8 -3228,1055 -3813,2635 -209,566 -323,1367 -195,2035z" style="fill: red;"/>
 </g>

	<metadata>
		<rdf:RDF xmlns:rdf="http://www.w3.org/1999/02/22-rdf-syntax-ns#" xmlns:rdfs="http://www.w3.org/2000/01/rdf-schema#" xmlns:dc="http://purl.org/dc/elements/1.1/">
			<rdf:Description about="https://iconscout.com/legal#licenses" dc:title="Adobe_CC_Creative Cloud" dc:description="Adobe_CC_Creative Cloud" dc:publisher="Iconscout" dc:date="2017-04-21" dc:format="image/svg+xml" dc:language="en">
				<dc:creator>
					<rdf:Bag>
						<rdf:li>Alexander Panasovsky</rdf:li>
					</rdf:Bag>
				</dc:creator>
			</rdf:Description>
		</rdf:RDF>
    </metadata></svg>
