<?xml version="1.0" encoding="UTF-8"?>
<!DOCTYPE svg PUBLIC "-//W3C//DTD SVG 1.1//EN" "http://www.w3.org/Graphics/SVG/1.1/DTD/svg11.dtd">
<svg xmlns="http://www.w3.org/2000/svg" xmlns:xlink="http://www.w3.org/1999/xlink" xml:space="preserve" width="176.389mm" height="176.389mm" version="1.1" style="shape-rendering:geometricPrecision; text-rendering:geometricPrecision; image-rendering:optimizeQuality; fill-rule:evenodd; clip-rule:evenodd" viewBox="0 0 17639 17639">
 <defs>
  <style type="text/css">
   <![CDATA[
    .fil1 {fill:#296CBD}
    .fil0 {fill:#E7E7E7}
   ]]>
  </style>
 </defs>
 <g id="Layer_x0020_1">
  
  <polygon class="fil0" points="1082,1129 16557,1129 16557,16510 1082,16510 " style="fill: #E7E7E7;"/>
  <path class="fil1" d="M8345 5229l116 994c26,59 -40,29 55,39 68,0 174,-13 225,17l-44 5 -237 1 70 667c-38,-57 -84,-555 -90,-664l-818 2 -60 -2 -1077 0 -59 0 -440 2 -176 0c-41,51 -17,32 -20,49l0 272c0,0 0,0 0,0 1,47 1,101 0,157l0 487c1,3 1,5 2,7 -1,1 -1,2 -2,3l0 108c4,57 8,109 1,156l0 749 19 8 617 -3 58 3 1081 1 52 0 545 0c2,-44 -7,-303 12,-338l14 341c100,14 302,-6 371,10 -74,32 -277,10 -374,10l2 190 0 56 -2 787 163 18 -161 3 -19 110 -4 -106 -542 1 -62 0 -1073 0 -62 4 -622 -5 1 261 -2 58 3 1083 -2 54 4 573c1,156 12,573 -4,807l-1 154 131 20 -131 3 0 657 0 60c-1,120 17,784 -11,836 -29,-53 -10,-713 -12,-834l0 -65 1 -654 -427 0 -58 -1 -510 9 -45 1 -101 -4 -1 657 1 54c-1,76 14,193 -16,247 -30,-55 -15,-172 -15,-249l-2 -61 2 -648 -396 -1 -57 2c-128,-3 -553,28 -635,-17 80,-43 511,-15 638,-15l54 0c68,0 133,-1 200,0l146 0c51,-12 20,9 50,-27l0 -19c-21,-1071 0,-2147 -2,-3214 -1,-296 14,-3018 -7,-3227l5 -616c10,-74 3,-43 19,-57 143,48 4021,-23 4114,30l-43 4 -350 0zm1851 3764l1989 -18c0,0 -4,-54 -10,-129 -112,-1343 -1993,-1193 -1979,147zm11 -2006c56,-26 651,-16 764,-13l55 -1 1080 4 52 0c96,-2 443,-18 505,10 -77,34 -883,4 -1057,14 920,154 1493,786 1465,1755 7,-138 -9,-962 18,-1013 34,64 10,634 11,752l1 61 5 752 -3 323 0 65 -1 245 139 1 58 -2c102,2 277,-26 356,14 -141,-13 -283,-7 -361,13l-58 1 -134 -1c0,75 22,214 -13,271 -36,-57 -14,-196 -14,-272l-778 5 -130 -2 -69 0 -1072 -1 -63 4 -744 -7c-49,37 -16,-7 -33,55 98,1788 2098,1373 2525,1129l5 -326 1 -52 10 -33 21 32 2 60 -2 306c2,-1 3,-1 4,-1 108,-49 270,-146 411,-234l19 44c0,1 -1,1 -2,1 -135,98 -351,213 -425,250l-7 697 -6 221c312,-110 654,-329 870,-494l27 40c0,0 -1,0 -2,1 -141,137 -591,416 -887,513 -9,109 9,592 -18,641 -30,-53 -11,-529 -12,-631 -1216,403 -2912,288 -3482,-824 -100,-196 -165,-422 -187,-682 -7,-82 -10,-168 -8,-256l-26 -166c-9,-54 -31,-112 -32,-172l-5 -308 -1 -211 31 -947 8 558c68,-934 589,-1935 1742,-2175 -119,-7 -479,19 -553,-14z" style="fill: #296CBD;"/>
  <rect class="fil1" x="10173" y="6945" width="2490.28" height="56.23" style="fill: #296CBD;"/>
  <rect class="fil1" x="7646" y="8287" width="931.47" height="56.23" style="fill: #296CBD;"/>
  <rect class="fil1" transform="matrix(9.90634E-15 -0.374042 1.35756 3.59543E-14 8130.54 8895.58)" width="2490.28" height="41.42" style="fill: #296CBD;"/>
  <rect class="fil1" x="7456" y="9312" width="931.47" height="56.23" style="fill: #296CBD;"/>
  <rect class="fil1" transform="matrix(9.90634E-15 -0.226557 1.35756 2.17774E-14 8130.22 9589.46)" width="2490.28" height="41.42" style="fill: #296CBD;"/>
  <rect class="fil1" transform="matrix(9.90634E-15 -1.01465 1.35756 9.75316E-14 13067 10251)" width="2490.28" height="41.42" style="fill: #296CBD;"/>
  <rect class="fil1" x="11913" y="9911" width="1742.3" height="56.23" style="fill: #296CBD;"/>
  <rect class="fil1" transform="matrix(1.56348E-15 -1.10939 1.35756 1.24338E-13 8985.13 11330.3)" width="2490.28" height="41.42" style="fill: #296CBD;"/>
  <rect class="fil1" transform="matrix(1.56348E-15 -1.10939 1.35756 1.24338E-13 9694 11329.1)" width="2490.28" height="41.42" style="fill: #296CBD;"/>
  <rect class="fil1" transform="matrix(1.56348E-15 -0.864947 1.35756 9.69415E-14 12698.5 12814.9)" width="2490.28" height="41.42" style="fill: #296CBD;"/>
  <rect class="fil1" transform="matrix(1.56348E-15 -0.988499 1.35756 1.10789E-13 5755.3 13953.8)" width="2490.28" height="41.42" style="fill: #296CBD;"/>
  <rect class="fil1" transform="matrix(1.56348E-15 -0.95513 1.35756 1.07049E-13 4603.65 13417.6)" width="2490.28" height="41.42" style="fill: #296CBD;"/>
  <rect class="fil1" x="3468" y="12347" width="2604.57" height="56.23" style="fill: #296CBD;"/>
  <rect class="fil1" x="6128" y="5205" width="2754.22" height="56.23" style="fill: #296CBD;"/>
  <rect class="fil1" x="6029" y="6232" width="2754.22" height="56.23" style="fill: #296CBD;"/>
  <polygon class="fil1" points="8347,5250 8550,7051 8494,7057 8291,5257 " style="fill: #296CBD;"/>
 </g>

	<metadata>
		<rdf:RDF xmlns:rdf="http://www.w3.org/1999/02/22-rdf-syntax-ns#" xmlns:rdfs="http://www.w3.org/2000/01/rdf-schema#" xmlns:dc="http://purl.org/dc/elements/1.1/">
			<rdf:Description about="https://iconscout.com/legal#licenses" dc:title="Adobe_Project_Felix_CC_Creative Cloud" dc:description="Adobe_Project_Felix_CC_Creative Cloud" dc:publisher="Iconscout" dc:date="2017-04-21" dc:format="image/svg+xml" dc:language="en">
				<dc:creator>
					<rdf:Bag>
						<rdf:li>Alexander Panasovsky</rdf:li>
					</rdf:Bag>
				</dc:creator>
			</rdf:Description>
		</rdf:RDF>
    </metadata></svg>
