<?xml version="1.0" encoding="UTF-8"?>
<!DOCTYPE svg PUBLIC "-//W3C//DTD SVG 1.1//EN" "http://www.w3.org/Graphics/SVG/1.1/DTD/svg11.dtd">
<svg xmlns="http://www.w3.org/2000/svg" xmlns:xlink="http://www.w3.org/1999/xlink" xml:space="preserve" width="176.389mm" height="176.389mm" version="1.1" style="shape-rendering:geometricPrecision; text-rendering:geometricPrecision; image-rendering:optimizeQuality; fill-rule:evenodd; clip-rule:evenodd" viewBox="0 0 17639 17639">
 <defs>
  <style type="text/css">
   <![CDATA[
    .fil1 {fill:#252653}
    .fil0 {fill:#99C4CD}
    .fil2 {fill:#99C4CD}
   ]]>
  </style>
 </defs>
 <g id="Layer_x0020_1">
  
  <rect class="fil0" x="1082" y="1129" width="15475" height="15381" style="fill: #99C4CD;"/>
  <rect class="fil1" x="2379" y="2418" width="12881" height="12803" style="fill: #252653;"/>
  <path class="fil2" d="M9792 8383l3 4047 1408 7 5 -3480 -5 -154c510,-446 841,-593 1540,-576 57,1 74,1 74,-69l0 -1023c5,-181 -35,-230 -242,-223 -555,18 -716,63 -1101,389 -83,70 -325,361 -325,361 0,-353 -80,-593 -178,-664 -67,-49 -84,-46 -182,-46l-187 0 -780 -11c-86,15 -92,35 -89,133 10,442 59,754 59,1309zm-4971 -3035c0,7 0,15 0,23 3,906 19,5944 22,6899 0,14 0,27 0,39 -1,139 103,114 147,113l3682 -10c148,-3 183,-49 203,-140l189 -951c14,-67 14,-150 -115,-144l-2689 0 0 -5840c-3,-59 9,-139 -121,-135l-1198 28c-10,0 -19,0 -27,0 -111,6 -90,53 -93,118z" style="fill: #99C4CD;"/>
 </g>

	<metadata>
		<rdf:RDF xmlns:rdf="http://www.w3.org/1999/02/22-rdf-syntax-ns#" xmlns:rdfs="http://www.w3.org/2000/01/rdf-schema#" xmlns:dc="http://purl.org/dc/elements/1.1/">
			<rdf:Description about="https://iconscout.com/legal#licenses" dc:title="Adobe_Lightroom_Lr_CC_Creative Cloud" dc:description="Adobe_Lightroom_Lr_CC_Creative Cloud" dc:publisher="Iconscout" dc:date="2017-04-21" dc:format="image/svg+xml" dc:language="en">
				<dc:creator>
					<rdf:Bag>
						<rdf:li>Alexander Panasovsky</rdf:li>
					</rdf:Bag>
				</dc:creator>
			</rdf:Description>
		</rdf:RDF>
    </metadata></svg>
