<?xml version="1.0" encoding="UTF-8"?>
<!DOCTYPE svg PUBLIC "-//W3C//DTD SVG 1.1//EN" "http://www.w3.org/Graphics/SVG/1.1/DTD/svg11.dtd">
<svg xmlns="http://www.w3.org/2000/svg" xmlns:xlink="http://www.w3.org/1999/xlink" xml:space="preserve" width="176.389mm" height="176.389mm" version="1.1" style="shape-rendering:geometricPrecision; text-rendering:geometricPrecision; image-rendering:optimizeQuality; fill-rule:evenodd; clip-rule:evenodd" viewBox="0 0 17639 17639">
 <defs>
  <style type="text/css">
   <![CDATA[
    .fil1 {fill:#252653}
    .fil2 {fill:#D6E94F}
    .fil0 {fill:#D7EA50}
   ]]>
  </style>
 </defs>
 <g id="Layer_x0020_1">
  
  <rect class="fil0" x="1117" y="1164" width="15405" height="15311" style="fill: #D7EA50;"/>
  <rect class="fil1" x="2408" y="2447" width="12822" height="12744" style="fill: #252653;"/>
  <g id="_1927305440">
   <path class="fil2" d="M10441 6988l0 -5 0 5zm2420 2l980 -8 58 4939c-272,248 -2658,1125 -3303,-370 -228,-530 -195,-1283 -185,-1945l0 0 -8 -2618 38 0 993 -1 14 2075c0,0 0,-1 0,-1 8,446 -51,1536 88,1880 202,498 781,459 1303,284 7,-513 -50,-4090 22,-4235z" style="fill: #D6E94F;"/>
   <path class="fil2" d="M9402 5212l160 4406c44,989 88,2572 75,2796 -198,12 -893,34 -1050,-17 -41,-628 -52,-1540 -54,-2449l-40 -3160 -1373 5600 -953 17 -572 -2686c-2,0 -4,-1 -6,-1l-710 -2914 -87 2971c-1,1 -2,1 -3,2l-81 2621c-153,40 -821,41 -968,2l196 -4248 127 -2941 1485 -1 437 1958c45,210 265,1126 358,1642 1,0 1,1 1,2l102 498c13,57 19,108 30,169l207 1096c66,-83 625,-2579 647,-2670l670 -2693 1402 0z" style="fill: #D6E94F;"/>
  </g>
 </g>

	<metadata>
		<rdf:RDF xmlns:rdf="http://www.w3.org/1999/02/22-rdf-syntax-ns#" xmlns:rdfs="http://www.w3.org/2000/01/rdf-schema#" xmlns:dc="http://purl.org/dc/elements/1.1/">
			<rdf:Description about="https://iconscout.com/legal#licenses" dc:title="Adobe_Muse_Website_Builder_CC_Creative Cloud" dc:description="Adobe_Muse_Website_Builder_CC_Creative Cloud" dc:publisher="Iconscout" dc:date="2017-04-21" dc:format="image/svg+xml" dc:language="en">
				<dc:creator>
					<rdf:Bag>
						<rdf:li>Alexander Panasovsky</rdf:li>
					</rdf:Bag>
				</dc:creator>
			</rdf:Description>
		</rdf:RDF>
    </metadata></svg>
