<?xml version="1.0" encoding="UTF-8"?>
<!DOCTYPE svg PUBLIC "-//W3C//DTD SVG 1.1//EN" "http://www.w3.org/Graphics/SVG/1.1/DTD/svg11.dtd">
<svg xmlns="http://www.w3.org/2000/svg" xmlns:xlink="http://www.w3.org/1999/xlink" xml:space="preserve" width="176.389mm" height="176.389mm" version="1.1" style="shape-rendering:geometricPrecision; text-rendering:geometricPrecision; image-rendering:optimizeQuality; fill-rule:evenodd; clip-rule:evenodd" viewBox="0 0 17639 17639">
 <defs>
  <style type="text/css">
   <![CDATA[
    .fil1 {fill:#252653}
    .fil0 {fill:#D573F7}
    .fil2 {fill:#D573F7}
   ]]>
  </style>
 </defs>
 <g id="Layer_x0020_1">
  
  <rect class="fil0" x="1082" y="1129" width="15476" height="15381" style="fill: #D573F7;"/>
  <rect class="fil1" x="2379" y="2418" width="12882" height="12803" style="fill: #252653;"/>
  <path class="fil2" d="M4638 5273l0 7090 1411 2 0 -2236c481,0 982,-2 1385,-91 530,-118 904,-358 1236,-707 348,-365 618,-868 618,-1619 0,-1736 -1132,-2559 -2908,-2499l-1742 60zm1411 3735l2 -2650c590,-12 1104,-5 1442,295 265,235 363,491 353,1089 -19,1158 -795,1266 -1797,1266z" style="fill: #D573F7;"/>
  <path class="fil2" d="M9990 8374l3 4048 1409 7 4 -3480 -4 -154c509,-446 840,-593 1540,-577 56,2 74,2 74,-69l0 -1023c4,-181 -36,-229 -243,-222 -555,18 -715,63 -1101,389 -82,70 -325,361 -325,361 0,-354 -79,-593 -177,-665 -68,-49 -85,-45 -183,-45l-186 0 -781 -11c-86,14 -91,34 -89,133 10,442 59,753 59,1308z" style="fill: #D573F7;"/>
 </g>

	<metadata>
		<rdf:RDF xmlns:rdf="http://www.w3.org/1999/02/22-rdf-syntax-ns#" xmlns:rdfs="http://www.w3.org/2000/01/rdf-schema#" xmlns:dc="http://purl.org/dc/elements/1.1/">
			<rdf:Description about="https://iconscout.com/legal#licenses" dc:title="Adobe_Premiere_Pro_CC_Creative Cloud" dc:description="Adobe_Premiere_Pro_CC_Creative Cloud" dc:publisher="Iconscout" dc:date="2017-04-21" dc:format="image/svg+xml" dc:language="en">
				<dc:creator>
					<rdf:Bag>
						<rdf:li>Alexander Panasovsky</rdf:li>
					</rdf:Bag>
				</dc:creator>
			</rdf:Description>
		</rdf:RDF>
    </metadata></svg>
