<?xml version="1.0" encoding="UTF-8" standalone="no"?>
<svg xmlns:dc="http://purl.org/dc/elements/1.1/" xmlns:cc="http://creativecommons.org/ns#" xmlns:rdf="http://www.w3.org/1999/02/22-rdf-syntax-ns#" xmlns:svg="http://www.w3.org/2000/svg" xmlns="http://www.w3.org/2000/svg" xmlns:sodipodi="http://sodipodi.sourceforge.net/DTD/sodipodi-0.dtd" xmlns:inkscape="http://www.inkscape.org/namespaces/inkscape" width="1792" height="1792" viewBox="0 0 1792 1792" version="1.1" inkscape:version="0.91 r13725" sodipodi:docname="cc-amex.svg">
  
  <defs/>
  <sodipodi:namedview pagecolor="#ffffff" bordercolor="#666666" borderopacity="1" objecttolerance="10" gridtolerance="10" guidetolerance="10" inkscape:pageopacity="0" inkscape:pageshadow="2" inkscape:window-width="1366" inkscape:window-height="705" showgrid="true" inkscape:snap-bbox="true" inkscape:bbox-paths="true" inkscape:snap-bbox-edge-midpoints="true" inkscape:snap-bbox-midpoints="true" inkscape:bbox-nodes="true" inkscape:zoom="0.18624688" inkscape:cx="-110.37384" inkscape:cy="38.778842" inkscape:window-x="-8" inkscape:window-y="-8" inkscape:window-maximized="1" inkscape:current-layer="svg2">
    <inkscape:grid type="xygrid"/>
  </sodipodi:namedview>
  <path d="m 92.55556,728.22226 69.22222,0 -35,-84 z m 483,409.11104 57.55555,-61.4444 -54.44444,-61.4445 -126.77778,0 0,38.1112 110.44444,0 0,42.7777 -110.44444,0 0,42 123.66667,0 z m 122.88888,-60.6666 77,85.5555 0,-168.77777 z m 224,-36.5556 q 0,-25.6667 -31.11111,-25.6667 l -65.33333,0 0,53.6667 64.55556,0 q 31.88888,0 31.88888,-28 z M 1147.2222,1037 q 0,-22.5556 -32.6666,-22.5556 l -63.7778,0 0,47.4445 63,0 q 33.4444,0 33.4444,-24.8889 z M 931,674.5556 q 0,-22.55556 -32.66667,-22.55556 l -63.77777,0 0,46.66666 63,0 Q 931,698.6667 931,674.5556 Z m 357,53.66666 69.2222,0 -34.2222,-84 z M 543.66667,607.6667 l 0,210.77778 -51.33334,0 0,-164.88888 -73.11111,164.88888 -44.33333,0 -73.11111,-164.88888 0,164.88888 -102.66667,0 -19.44444,-46.66666 -105,0 -19.44445,46.66666 -54.44444,0 L 91,607.6667 l 74.66667,0 85.55555,199.8889 0,-199.88889 82.44445,0 66.11111,143.11111 59.88889,-143.11111 84,0 z m 432.44444,432.4444 q 0,15.5556 -4.27778,27.2222 -4.27777,11.6667 -10.88889,19.4445 -6.61111,7.7778 -17.5,12.8333 -10.88888,5.0556 -20.22222,7.7778 -9.33333,2.7222 -24.5,3.5 -15.16666,0.7778 -24.5,0.7778 -9.33333,0 -25.27778,-0.3889 Q 833,1110.8889 826,1110.8889 l 0,70.7778 -98,0 -62.22222,-70 -64.55556,70 -199.11111,0 0,-210.77777 202.22222,0 62.22223,69.22217 63.77777,-69.22217 161,0 q 84.77778,0 84.77778,69.22217 z m -226.33333,-265.22217 0,43.55555 -168.77778,0 0,-210.77777 168.77778,0 0,44.33333 -118.22222,0 0,38.11111 115.11111,0 0,42.77778 -115.11111,0 0,42 118.22222,0 z M 1792,1209.6667 l 0,178.1111 q 0,42.7778 -29.9444,73.5 Q 1732.1111,1492 1689.3333,1492 l -1586.66663,0 Q 59.88889,1492 29.94444,1461.2778 0,1430.5556 0,1387.7778 l 0,-527.33336 86.33333,0 19.44445,-47.4444 42.77778,0 19.44444,47.4444 169.55556,0 0,-35.77773 14.77777,35.77773 87.88889,0 15.55556,-36.55551 0,36.55551 420.77778,0 0,-76.99996 7.77777,-0.77777 q 7.77778,0 7.77778,10.88889 l 0,66.88884 216.99999,0 0,-17.8888 q 17.8889,9.3333 42.7778,14 24.8889,4.6666 40.8333,5.0555 15.9445,0.3889 49,-0.3889 33.0556,-0.7778 40.0556,-0.7778 l 19.4444,-47.4444 43.5556,0 19.4444,47.4444 176.5556,0 0,-45.11107 26.4444,45.11107 141.5556,0 0,-293.99996 -140,0 0,34.22223 -19.4445,-34.22223 -143.8889,0 0,34.22223 -17.8888,-34.22223 -193.6667,0 q -53.6667,0 -84.7778,17.11112 l 0,-17.11112 -133.77777,0 0,17.11112 q -18.66666,-17.11112 -56.77777,-17.11112 l -488.44445,0 -33.44444,75.44445 -33.44445,-75.44445 -154,0 0,34.22223 -17.11111,-34.22223 -131.44444,0 L 0,705.6667 0,401.5556 q 0,-42.77778 29.94444,-73.5 29.94445,-30.72223 72.72223,-30.72223 l 1586.66663,0 q 42.7778,0 72.7223,30.72223 29.9444,30.72222 29.9444,73.5 l 0,527.33333 -93.3333,0 q -39.6667,0 -63,17.11111 l 0,-17.11111 -137.6667,0 q -42.7778,0 -60.6667,17.11111 l 0,-17.11111 -245.7777,0 0,17.11111 q -24.1112,-17.11111 -67.6667,-17.11111 l -162.55557,0 0,17.11111 q -17.88889,-17.11111 -70.77777,-17.11111 l -182,0 -42,45.11111 -38.88889,-45.11111 -271.44445,0 0,293.99997 266.77778,0 42.77778,-45.8889 40.44444,45.8889 164.11111,0 0,-69.2222 16.33334,0 q 45.88889,0 70,-10.1111 l 0,79.3333 135.33333,0 0,-77 6.2222,0 q 6.2222,0 7.7778,1.5555 1.5556,1.5556 1.5556,7.7778 l 0,67.6667 411.4444,0 q 44.3333,0 68.4444,-18.6667 l 0,18.6667 130.6667,0 q 46.6667,0 73.8889,-13.2222 z m -589.5556,-182 q 0,17.8889 -9.3333,33.4444 -9.3333,15.5556 -26.4444,22.5556 19.4444,7 26.4444,20.2222 7,13.2222 7,35.7778 l 0,42 -50.5555,0 0,-35 q 0,-25.6667 -9.3334,-33.8334 -9.3333,-8.1666 -35.7778,-8.1666 l -53.6666,0 0,77 -50.5556,0 0,-210.77777 119.7778,0 q 37.3333,0 59.8889,11.6667 22.5555,11.6666 22.5555,45.11107 z M 987,664.44448 q 0,18.66666 -9.72222,34.22222 -9.72222,15.55556 -26.05556,22.55556 20.22222,7 26.83334,19.83334 6.61111,12.83333 6.61111,36.16666 l 0,41.22222 -50.55556,0 q 0,-7 0.38889,-20.61112 0.38889,-13.61111 0,-19.44444 -0.38889,-5.83333 -2.33333,-14.38888 -1.94445,-8.55556 -6.61111,-12.44444 -4.66667,-3.88889 -13.61112,-6.61112 Q 903,742.22226 889,742.22226 l -54.44444,0 0,76.22222 -49.77778,0 0,-210.77778 119,0.77778 q 38.11111,0 60.66666,11.27778 Q 987,631.00004 987,664.44448 Z m 411.4444,473.66662 0,43.5556 -168,0 0,-210.77777 168,0 0,43.55547 -117.4444,0 0,38.1112 115.1111,0 0,42.7777 -115.1111,0 0,42 z m -331.3333,-530.44439 0,210.77777 -51.3333,0 0,-210.77777 51.3333,0 z m 539,507.11109 q 0,66.8889 -79.3333,66.8889 l -98,0 0,-45.1111 98,0 q 26.4444,0 26.4444,-19.4445 0,-12.4444 -13.2222,-16.3333 -13.2222,-3.8889 -32.2778,-3.8889 -19.0555,0 -38.5,-2.7222 -19.4444,-2.7223 -32.6666,-17.5 -13.2223,-14.7778 -13.2223,-42.7778 0,-30.3333 20.2223,-46.66667 20.2222,-16.3333 51.3333,-16.3333 l 101.1111,0 0,44.33327 -92.5556,0 q -28,0 -28,19.4445 0,12.4444 13.6112,15.9444 13.6111,3.5 32.6666,3.1111 19.0556,-0.3889 38.1111,1.9445 19.0556,2.3333 32.6667,16.7222 13.6111,14.3889 13.6111,42.3889 z M 1792,1075.8889 l 0,78.5555 q -18.6667,27.2223 -68.4444,27.2223 l -97.2223,0 0,-45.1111 97.2223,0 q 25.6666,0 25.6666,-19.4445 0,-10.1111 -9.7222,-14.7778 -9.7222,-4.6666 -24.1111,-4.2777 -14.3889,0.3888 -31.1111,-1.5556 -16.7222,-1.9444 -31.1111,-6.2222 -14.3889,-4.2778 -24.1111,-18.6667 -9.7223,-14.3889 -9.7223,-37.7222 0,-30.3333 20.6111,-46.66667 20.6112,-16.3333 51.7223,-16.3333 l 100.3333,0 0,44.33327 -91.7778,0 q -28,0 -28,19.4445 0,15.5555 22.5556,17.1111 22.5555,1.5555 53.2778,3.8889 30.7222,2.3333 43.9444,20.2222 z m -128.3333,-467.44442 0,210 -71.5556,0 -94.8889,-157.88888 0,157.88888 -102.6666,0 -20.2223,-46.66666 -104.2222,0 -19.4444,46.66666 -58.3334,0 Q 1092,818.44448 1092,715.00004 1092,607.6667 1195.4444,607.6667 l 49,0 0,45.8889 q -5.4444,0 -21.7777,-0.77778 -16.3334,-0.77778 -22.1667,-0.3889 -5.8333,0.38889 -17.8889,1.55556 -12.0555,1.16666 -16.7222,5.05556 -4.6667,3.88888 -11.2778,10.5 -6.6111,6.61111 -8.9444,17.88888 -2.3334,11.27778 -2.3334,26.05556 0,29.55556 10.5,45.11112 10.5,15.55555 38.5,15.55555 l 22.5556,0 71.5555,-165.66667 75.4445,0 84.7778,199.11112 0,-199.11112 77,0 88.6666,146.22222 0,-146.22222 51.3334,0 z" inkscape:connector-curvature="0"/>

	
	<metadata>
		<rdf:RDF xmlns:rdf="http://www.w3.org/1999/02/22-rdf-syntax-ns#" xmlns:rdfs="http://www.w3.org/2000/01/rdf-schema#" xmlns:dc="http://purl.org/dc/elements/1.1/">
			<rdf:Description about="https://iconscout.com/legal#licenses" dc:title="American, Express, Credit, Debit, Card, Bank, Transaction" dc:description="American, Express, Credit, Debit, Card, Bank, Transaction" dc:publisher="Iconscout" dc:date="2016-12-14" dc:format="image/svg+xml" dc:language="en">
				<dc:creator>
					<rdf:Bag>
						<rdf:li>Font Awesome</rdf:li>
					</rdf:Bag>
				</dc:creator>
			</rdf:Description>
		</rdf:RDF>
    </metadata></svg>
