<?xml version="1.0" encoding="UTF-8" standalone="no"?>
<svg xmlns="http://www.w3.org/2000/svg" width="1792" height="1792" viewBox="0 0 1792 1792"><path d="M685 483q16 0 27.5-11.5t11.5-27.5-11.5-27.5-27.5-11.5-27 11.5-11 27.5 11 27.5 27 11.5zm422 0q16 0 27-11.5t11-27.5-11-27.5-27-11.5-27.5 11.5-11.5 27.5 11.5 27.5 27.5 11.5zm-812 184q42 0 72 30t30 72v430q0 43-29.5 73t-72.5 30-73-30-30-73v-430q0-42 30-72t73-30zm1060 19v666q0 46-32 78t-77 32h-75v227q0 43-30 73t-73 30-73-30-30-73v-227h-138v227q0 43-30 73t-73 30q-42 0-72-30t-30-73l-1-227h-74q-46 0-78-32t-32-78v-666h918zm-232-405q107 55 171 153.5t64 215.5h-925q0-117 64-215.5t172-153.5l-71-131q-7-13 5-20 13-6 20 6l72 132q95-42 201-42t201 42l72-132q7-12 20-6 12 7 5 20zm477 488v430q0 43-30 73t-73 30q-42 0-72-30t-30-73v-430q0-43 30-72.5t72-29.5q43 0 73 29.5t30 72.5z"/>
	
	<metadata>
		<rdf:RDF xmlns:rdf="http://www.w3.org/1999/02/22-rdf-syntax-ns#" xmlns:rdfs="http://www.w3.org/2000/01/rdf-schema#" xmlns:dc="http://purl.org/dc/elements/1.1/">
			<rdf:Description about="https://iconscout.com/legal#licenses" dc:title="Android, Device, Symbol, Logo, Version, Software, Operating, System, Os" dc:description="Android, Device, Symbol, Logo, Version, Software, Operating, System, Os" dc:publisher="Iconscout" dc:date="2016-12-14" dc:format="image/svg+xml" dc:language="en">
				<dc:creator>
					<rdf:Bag>
						<rdf:li>Font Awesome</rdf:li>
					</rdf:Bag>
				</dc:creator>
			</rdf:Description>
		</rdf:RDF>
    </metadata></svg>
