<?xml version="1.0" encoding="UTF-8" standalone="no"?>
<svg xmlns="http://www.w3.org/2000/svg" width="1792" height="1792" viewBox="0 0 1792 1792"><path d="M1585 1215q-39 125-123 250-129 196-257 196-49 0-140-32-86-32-151-32-61 0-142 33-81 34-132 34-152 0-301-259-147-261-147-503 0-228 113-374 112-144 284-144 72 0 177 30 104 30 138 30 45 0 143-34 102-34 173-34 119 0 213 65 52 36 104 100-79 67-114 118-65 94-65 207 0 124 69 223t158 126zm-376-1173q0 61-29 136-30 75-93 138-54 54-108 72-37 11-104 17 3-149 78-257 74-107 250-148 1 3 2.5 11t2.5 11q0 4 .5 10t.5 10z"/>
	
	<metadata>
		<rdf:RDF xmlns:rdf="http://www.w3.org/1999/02/22-rdf-syntax-ns#" xmlns:rdfs="http://www.w3.org/2000/01/rdf-schema#" xmlns:dc="http://purl.org/dc/elements/1.1/">
			<rdf:Description about="https://iconscout.com/legal#licenses" dc:title="Apple, Ios, Operating, System, Iphone, Os" dc:description="Apple, Ios, Operating, System, Iphone, Os" dc:publisher="Iconscout" dc:date="2016-12-14" dc:format="image/svg+xml" dc:language="en">
				<dc:creator>
					<rdf:Bag>
						<rdf:li>Font Awesome</rdf:li>
					</rdf:Bag>
				</dc:creator>
			</rdf:Description>
		</rdf:RDF>
    </metadata></svg>
