<?xml version="1.0" encoding="UTF-8" standalone="no"?>
<svg xmlns="http://www.w3.org/2000/svg" width="1792" height="1792" viewBox="0 0 1792 1792"><path d="M1792 896q0 26-19 45l-256 256q-19 19-45 19t-45-19-19-45v-128h-1024v128q0 26-19 45t-45 19-45-19l-256-256q-19-19-19-45t19-45l256-256q19-19 45-19t45 19 19 45v128h1024v-128q0-26 19-45t45-19 45 19l256 256q19 19 19 45z"/>
	
	<metadata>
		<rdf:RDF xmlns:rdf="http://www.w3.org/1999/02/22-rdf-syntax-ns#" xmlns:rdfs="http://www.w3.org/2000/01/rdf-schema#" xmlns:dc="http://purl.org/dc/elements/1.1/">
			<rdf:Description about="https://iconscout.com/legal#licenses" dc:title="Arrows, Horizontal, Both, Side, Bidirectional, Way" dc:description="Arrows, Horizontal, Both, Side, Bidirectional, Way" dc:publisher="Iconscout" dc:date="2016-12-14" dc:format="image/svg+xml" dc:language="en">
				<dc:creator>
					<rdf:Bag>
						<rdf:li>Font Awesome</rdf:li>
					</rdf:Bag>
				</dc:creator>
			</rdf:Description>
		</rdf:RDF>
    </metadata></svg>
