<?xml version="1.0" encoding="UTF-8" standalone="no"?>
<svg xmlns="http://www.w3.org/2000/svg" width="1792" height="1792" viewBox="0 0 1792 1792"><path d="M1546 1050q46 26 59.5 77.5t-12.5 97.5l-64 110q-26 46-77.5 59.5t-97.5-12.5l-266-153v307q0 52-38 90t-90 38h-128q-52 0-90-38t-38-90v-307l-266 153q-46 26-97.5 12.5t-77.5-59.5l-64-110q-26-46-12.5-97.5t59.5-77.5l266-154-266-154q-46-26-59.5-77.5t12.5-97.5l64-110q26-46 77.5-59.5t97.5 12.5l266 153v-307q0-52 38-90t90-38h128q52 0 90 38t38 90v307l266-153q46-26 97.5-12.5t77.5 59.5l64 110q26 46 12.5 97.5t-59.5 77.5l-266 154z"/>
	
	<metadata>
		<rdf:RDF xmlns:rdf="http://www.w3.org/1999/02/22-rdf-syntax-ns#" xmlns:rdfs="http://www.w3.org/2000/01/rdf-schema#" xmlns:dc="http://purl.org/dc/elements/1.1/">
			<rdf:Description about="https://iconscout.com/legal#licenses" dc:title="Asterisk, Multiply, Sign, Symbol, Multiplication, Maths, Star" dc:description="Asterisk, Multiply, Sign, Symbol, Multiplication, Maths, Star" dc:publisher="Iconscout" dc:date="2016-12-14" dc:format="image/svg+xml" dc:language="en">
				<dc:creator>
					<rdf:Bag>
						<rdf:li>Font Awesome</rdf:li>
					</rdf:Bag>
				</dc:creator>
			</rdf:Description>
		</rdf:RDF>
    </metadata></svg>
