<?xml version="1.0" encoding="UTF-8" standalone="no"?>
<svg xmlns:dc="http://purl.org/dc/elements/1.1/" xmlns:cc="http://creativecommons.org/ns#" xmlns:rdf="http://www.w3.org/1999/02/22-rdf-syntax-ns#" xmlns:svg="http://www.w3.org/2000/svg" xmlns="http://www.w3.org/2000/svg" xmlns:sodipodi="http://sodipodi.sourceforge.net/DTD/sodipodi-0.dtd" xmlns:inkscape="http://www.inkscape.org/namespaces/inkscape" width="1792" height="1792" viewBox="0 0 1792 1792" version="1.1" inkscape:version="0.91 r13725" sodipodi:docname="balance-scale.svg">
  
  <defs/>
  <sodipodi:namedview pagecolor="#ffffff" bordercolor="#666666" borderopacity="1" objecttolerance="10" gridtolerance="10" guidetolerance="10" inkscape:pageopacity="0" inkscape:pageshadow="2" inkscape:window-width="1366" inkscape:window-height="705" showgrid="true" inkscape:zoom="0.26339286" inkscape:cx="261.42057" inkscape:cy="523.37572" inkscape:window-x="-8" inkscape:window-y="-8" inkscape:window-maximized="1" inkscape:current-layer="svg2">
    <inkscape:grid type="xygrid"/>
  </sodipodi:namedview>
  <path d="m 1423.0588,527.05882 -316.2353,579.76478 632.4706,0 z m -1054.11762,0 -316.2353,579.76478 632.47059,0 z M 1045.0588,368.94117 q -11.5294,32.94118 -37.4706,58.88236 -25.94114,25.94117 -58.88232,37.47058 l 0,1063.17649 500.70592,0 q 11.5294,0 18.9411,7.4118 7.4118,7.4118 7.4118,18.9412 l 0,52.7059 q 0,11.5294 -7.4118,18.9411 -7.4117,7.4118 -18.9411,7.4118 l -1106.82357,0 q -11.52941,0 -18.94117,-7.4118 -7.41177,-7.4117 -7.41177,-18.9411 l 0,-52.7059 q 0,-11.5294 7.41177,-18.9412 7.41176,-7.4118 18.94117,-7.4118 l 500.70589,0 0,-1063.17649 Q 810.35294,453.7647 784.41176,427.82353 758.47059,401.88235 746.94118,368.94117 l -404.35295,0 q -11.52941,0 -18.94117,-7.41176 -7.41177,-7.41177 -7.41177,-18.94118 l 0,-52.70588 q 0,-11.52941 7.41177,-18.94118 7.41176,-7.41176 18.94117,-7.41176 l 404.35295,0 q 17.29411,-46.94118 57.64706,-76.17647 40.35294,-29.2353 91.41176,-29.2353 51.05882,0 91.41176,29.2353 40.35294,29.23529 57.64704,76.17647 l 404.353,0 q 11.5294,0 18.9411,7.41176 7.4118,7.41177 7.4118,18.94118 l 0,52.70588 q 0,11.52941 -7.4118,18.94118 -7.4117,7.41176 -18.9411,7.41176 l -404.353,0 z M 896,382.11764 q 27.17647,0 46.52941,-19.35294 19.35294,-19.35294 19.35294,-46.52941 0,-27.17647 -19.35294,-46.52941 Q 923.17647,250.35294 896,250.35294 q -27.17647,0 -46.52941,19.35294 -19.35294,19.35294 -19.35294,46.52941 0,27.17647 19.35294,46.52941 19.35294,19.35294 46.52941,19.35294 z m 896,724.70596 q 0,60.1176 -38.2941,107.8823 -38.2941,47.7647 -96.7647,74.9412 -58.4706,27.1765 -119,40.7647 Q 1477.4118,1344 1423.0588,1344 q -54.3529,0 -114.8823,-13.5882 -60.5294,-13.5882 -119,-40.7647 -58.4706,-27.1765 -96.7647,-74.9412 -38.2941,-47.7647 -38.2941,-107.8823 0,-9.0588 28.8235,-66.7059 28.8235,-57.64715 75.7647,-143.70595 46.9412,-86.05881 88.1176,-160.99999 41.1765,-74.94117 84,-151.52941 42.8236,-76.58824 46.1177,-82.35294 14.8235,-27.17647 46.1176,-27.17647 31.2941,0 46.1177,27.17647 3.2941,5.7647 46.1176,82.35294 42.8235,76.58824 84,151.52941 41.1765,74.94118 88.1177,160.99999 46.9411,86.0588 75.7647,143.70595 28.8235,57.6471 28.8235,66.7059 z m -1054.11765,0 q 0,60.1176 -38.29411,107.8823 -38.29412,47.7647 -96.76471,74.9412 -58.47059,27.1765 -119,40.7647 Q 423.29412,1344 368.94118,1344 q -54.35295,0 -114.88236,-13.5882 -60.52941,-13.5882 -119,-40.7647 -58.47058,-27.1765 -96.7647,-74.9412 Q 0,1166.9412 0,1106.8236 q 0,-9.0588 28.82353,-66.7059 28.82353,-57.64715 75.76471,-143.70595 46.94117,-86.05881 88.11764,-160.99999 41.17647,-74.94117 84,-151.52941 42.82353,-76.58824 46.11765,-82.35294 14.82353,-27.17647 46.11765,-27.17647 31.29411,0 46.11764,27.17647 3.29412,5.7647 46.11765,82.35294 42.82353,76.58824 84,151.52941 41.17647,74.94118 88.11765,160.99999 46.94117,86.0588 75.7647,143.70595 28.82353,57.6471 28.82353,66.7059 z" inkscape:connector-curvature="0"/>

	
	<metadata>
		<rdf:RDF xmlns:rdf="http://www.w3.org/1999/02/22-rdf-syntax-ns#" xmlns:rdfs="http://www.w3.org/2000/01/rdf-schema#" xmlns:dc="http://purl.org/dc/elements/1.1/">
			<rdf:Description about="https://iconscout.com/legal#licenses" dc:title="Balance, Scale, Weight, Control, Justice, Law, Measure" dc:description="Balance, Scale, Weight, Control, Justice, Law, Measure" dc:publisher="Iconscout" dc:date="2016-12-14" dc:format="image/svg+xml" dc:language="en">
				<dc:creator>
					<rdf:Bag>
						<rdf:li>Font Awesome</rdf:li>
					</rdf:Bag>
				</dc:creator>
			</rdf:Description>
		</rdf:RDF>
    </metadata></svg>
