<?xml version="1.0" encoding="UTF-8" standalone="no"?>
<svg xmlns="http://www.w3.org/2000/svg" width="1792" height="1792" viewBox="0 0 1792 1792"><path d="M1440 893q0-161-87-295l-754 753q137 89 297 89 111 0 211.5-43.5t173.5-116.5 116-174.5 43-212.5zm-999 299l755-754q-135-91-300-91-148 0-273 73t-198 199-73 274q0 162 89 299zm1223-299q0 157-61 300t-163.5 246-245 164-298.5 61-298.5-61-245-164-163.5-246-61-300 61-299.5 163.5-245.5 245-164 298.5-61 298.5 61 245 164 163.5 245.5 61 299.5z"/>
	
	<metadata>
		<rdf:RDF xmlns:rdf="http://www.w3.org/1999/02/22-rdf-syntax-ns#" xmlns:rdfs="http://www.w3.org/2000/01/rdf-schema#" xmlns:dc="http://purl.org/dc/elements/1.1/">
			<rdf:Description about="https://iconscout.com/legal#licenses" dc:title="Ban, Block, Suspend, Round, No, Not" dc:description="Ban, Block, Suspend, Round, No, Not" dc:publisher="Iconscout" dc:date="2016-12-14" dc:format="image/svg+xml" dc:language="en">
				<dc:creator>
					<rdf:Bag>
						<rdf:li>Font Awesome</rdf:li>
					</rdf:Bag>
				</dc:creator>
			</rdf:Description>
		</rdf:RDF>
    </metadata></svg>
