<?xml version="1.0" encoding="UTF-8" standalone="no"?>
<svg xmlns="http://www.w3.org/2000/svg" width="1792" height="1792" viewBox="0 0 1792 1792"><path d="M63 1536h-63v-1408h63v1408zm63-1h-32v-1407h32v1407zm94 0h-31v-1407h31v1407zm157 0h-31v-1407h31v1407zm157 0h-62v-1407h62v1407zm126 0h-31v-1407h31v1407zm63 0h-31v-1407h31v1407zm63 0h-31v-1407h31v1407zm157 0h-63v-1407h63v1407zm157 0h-63v-1407h63v1407zm126 0h-63v-1407h63v1407zm126 0h-63v-1407h63v1407zm94 0h-63v-1407h63v1407zm189 0h-94v-1407h94v1407zm63 0h-32v-1407h32v1407zm94 1h-63v-1408h63v1408z"/>
	
	<metadata>
		<rdf:RDF xmlns:rdf="http://www.w3.org/1999/02/22-rdf-syntax-ns#" xmlns:rdfs="http://www.w3.org/2000/01/rdf-schema#" xmlns:dc="http://purl.org/dc/elements/1.1/">
			<rdf:Description about="https://iconscout.com/legal#licenses" dc:title="Barcode, Reader, Scanner, Electronic, Device" dc:description="Barcode, Reader, Scanner, Electronic, Device" dc:publisher="Iconscout" dc:date="2016-12-14" dc:format="image/svg+xml" dc:language="en">
				<dc:creator>
					<rdf:Bag>
						<rdf:li>Font Awesome</rdf:li>
					</rdf:Bag>
				</dc:creator>
			</rdf:Description>
		</rdf:RDF>
    </metadata></svg>
