<?xml version="1.0" encoding="UTF-8" standalone="no"?>
<svg xmlns="http://www.w3.org/2000/svg" width="1792" height="1792" viewBox="0 0 1792 1792"><path d="M128 1024h1728q26 0 45 19t19 45v448h-256v-256h-1536v256h-256v-1216q0-26 19-45t45-19h128q26 0 45 19t19 45v704zm576-320q0-106-75-181t-181-75-181 75-75 181 75 181 181 75 181-75 75-181zm1216 256v-64q0-159-112.5-271.5t-271.5-112.5h-704q-26 0-45 19t-19 45v384h1152z"/>
	
	<metadata>
		<rdf:RDF xmlns:rdf="http://www.w3.org/1999/02/22-rdf-syntax-ns#" xmlns:rdfs="http://www.w3.org/2000/01/rdf-schema#" xmlns:dc="http://purl.org/dc/elements/1.1/">
			<rdf:Description about="https://iconscout.com/legal#licenses" dc:title="Bed, Rest, Person, Room, Sleep, Take, Care" dc:description="Bed, Rest, Person, Room, Sleep, Take, Care" dc:publisher="Iconscout" dc:date="2016-12-14" dc:format="image/svg+xml" dc:language="en">
				<dc:creator>
					<rdf:Bag>
						<rdf:li>Font Awesome</rdf:li>
					</rdf:Bag>
				</dc:creator>
			</rdf:Description>
		</rdf:RDF>
    </metadata></svg>
