<?xml version="1.0" encoding="UTF-8" standalone="no"?>
<svg xmlns:dc="http://purl.org/dc/elements/1.1/" xmlns:cc="http://creativecommons.org/ns#" xmlns:rdf="http://www.w3.org/1999/02/22-rdf-syntax-ns#" xmlns:svg="http://www.w3.org/2000/svg" xmlns="http://www.w3.org/2000/svg" xmlns:sodipodi="http://sodipodi.sourceforge.net/DTD/sodipodi-0.dtd" xmlns:inkscape="http://www.inkscape.org/namespaces/inkscape" width="1792" height="1792" viewBox="0 0 1792 1792" version="1.1" inkscape:version="0.91 r13725" sodipodi:docname="behance.svg">
  
  <defs/>
  <sodipodi:namedview pagecolor="#ffffff" bordercolor="#666666" borderopacity="1" objecttolerance="10" gridtolerance="10" guidetolerance="10" inkscape:pageopacity="0" inkscape:pageshadow="2" inkscape:window-width="1366" inkscape:window-height="705" showgrid="true" inkscape:snap-bbox="true" inkscape:bbox-paths="true" inkscape:bbox-nodes="true" inkscape:snap-bbox-edge-midpoints="true" inkscape:snap-bbox-midpoints="true" inkscape:zoom="0.18624688" inkscape:cx="229.62275" inkscape:cy="533.22986" inkscape:window-x="-8" inkscape:window-y="-8" inkscape:window-maximized="1" inkscape:current-layer="svg2">
    <inkscape:grid type="xygrid"/>
  </sodipodi:namedview>
  <path d="m 1617,408.925 -447.125,0 0,108.5 447.125,0 0,-108.5 z m -220.5,372.75 q -78.75,0 -127.75,45.9375 -49,45.9375 -54.25,124.6875 l 357,0 q -15.75,-170.625 -175,-170.625 z m 14,511.875 q 55.125,0 106.75,-28 51.625,-28 66.5,-76.125 l 193.375,0 q -87.5,268.625 -373.625,268.625 -187.25,0 -297.9375,-115.5 -110.6875,-115.5 -110.6875,-303.625 0,-182 114.1875,-302.3125 Q 1223.25,616.3 1403.5,616.3 q 120.75,0 210.4375,59.5 89.6875,59.5 133.875,156.625 44.1875,97.125 44.1875,217 0,14.875 -1.75,41.125 l -575.75,0 q 0,97.125 50.3125,150.0625 50.3125,52.9375 145.6875,52.9375 z m -1168.125,-43.75 259,0 q 179.375,0 179.375,-146.125 0,-157.5 -174.125,-157.5 l -264.25,0 0,303.625 z m 0,-469.875 245.875,0 q 68.25,0 108.0625,-31.9375 39.8125,-31.9375 39.8125,-99.3125 0,-126 -166.25,-126 l -227.5,0 0,257.25 z M 0,334.55 l 519.75,0 q 76.125,0 135.625,12.25 59.5,12.25 110.6875,41.5625 51.1875,29.3125 78.75,84.4375 27.5625,55.125 27.5625,134.75 0,158.375 -150.5,230.125 99.75,28 150.5,100.625 50.75,72.625 50.75,178.5 0,65.625 -21.4375,119.4375 -21.4375,53.8125 -57.75,90.5625 -36.3125,36.75 -86.1875,62.125 -49.875,25.375 -105.875,36.75 -56,11.375 -117.25,11.375 L 0,1437.05 0,334.55 Z" inkscape:connector-curvature="0"/>

	
	<metadata>
		<rdf:RDF xmlns:rdf="http://www.w3.org/1999/02/22-rdf-syntax-ns#" xmlns:rdfs="http://www.w3.org/2000/01/rdf-schema#" xmlns:dc="http://purl.org/dc/elements/1.1/">
			<rdf:Description about="https://iconscout.com/legal#licenses" dc:title="Behance, Design, Logo, Symbol, Tool, Software, Site" dc:description="Behance, Design, Logo, Symbol, Tool, Software, Site" dc:publisher="Iconscout" dc:date="2016-12-14" dc:format="image/svg+xml" dc:language="en">
				<dc:creator>
					<rdf:Bag>
						<rdf:li>Font Awesome</rdf:li>
					</rdf:Bag>
				</dc:creator>
			</rdf:Description>
		</rdf:RDF>
    </metadata></svg>
