<?xml version="1.0" encoding="UTF-8" standalone="no"?>
<svg xmlns="http://www.w3.org/2000/svg" width="1792" height="1792" viewBox="0 0 1792 1792"><path d="M1430 852q61 356 298 556 0 52-38 90t-90 38h-448q0 106-75 181t-181 75-180.5-74.5-75.5-180.5zm-534 860q16 0 16-16t-16-16q-59 0-101.5-42.5t-42.5-101.5q0-16-16-16t-16 16q0 73 51.5 124.5t124.5 51.5zm1002-1600q8 10 7.5 23.5t-10.5 22.5l-1872 1622q-10 8-23.5 7t-21.5-11l-84-96q-8-10-7.5-23.5t10.5-21.5l186-161q-19-32-19-66 50-42 91-88t85-119.5 74.5-158.5 50-206 19.5-260q0-152 117-282.5t307-158.5q-8-19-8-39 0-40 28-68t68-28 68 28 28 68q0 20-8 39 124 18 219 82.5t148 157.5l418-363q10-8 23.5-7t21.5 11z"/>
	
	<metadata>
		<rdf:RDF xmlns:rdf="http://www.w3.org/1999/02/22-rdf-syntax-ns#" xmlns:rdfs="http://www.w3.org/2000/01/rdf-schema#" xmlns:dc="http://purl.org/dc/elements/1.1/">
			<rdf:Description about="https://iconscout.com/legal#licenses" dc:title="Bell, Slash, No, Not, Ring, Alarm, Voice, Reminder" dc:description="Bell, Slash, No, Not, Ring, Alarm, Voice, Reminder" dc:publisher="Iconscout" dc:date="2016-12-14" dc:format="image/svg+xml" dc:language="en">
				<dc:creator>
					<rdf:Bag>
						<rdf:li>Font Awesome</rdf:li>
					</rdf:Bag>
				</dc:creator>
			</rdf:Description>
		</rdf:RDF>
    </metadata></svg>
