<?xml version="1.0" encoding="UTF-8" standalone="no"?>
<svg xmlns:dc="http://purl.org/dc/elements/1.1/" xmlns:cc="http://creativecommons.org/ns#" xmlns:rdf="http://www.w3.org/1999/02/22-rdf-syntax-ns#" xmlns:svg="http://www.w3.org/2000/svg" xmlns="http://www.w3.org/2000/svg" xmlns:sodipodi="http://sodipodi.sourceforge.net/DTD/sodipodi-0.dtd" xmlns:inkscape="http://www.inkscape.org/namespaces/inkscape" width="1792" height="1792" viewBox="0 0 1792 1792" version="1.1" inkscape:version="0.91 r13725" sodipodi:docname="bicycle.svg">
  
  <defs/>
  <sodipodi:namedview pagecolor="#ffffff" bordercolor="#666666" borderopacity="1" objecttolerance="10" gridtolerance="10" guidetolerance="10" inkscape:pageopacity="0" inkscape:pageshadow="2" inkscape:window-width="1366" inkscape:window-height="705" showgrid="true" inkscape:snap-bbox="true" inkscape:bbox-paths="true" inkscape:bbox-nodes="true" inkscape:snap-bbox-edge-midpoints="true" inkscape:snap-bbox-midpoints="true" inkscape:zoom="0.7449875" inkscape:cx="270.61767" inkscape:cy="514.78836" inkscape:window-x="-8" inkscape:window-y="-8" inkscape:window-maximized="1" inkscape:current-layer="svg2">
    <inkscape:grid type="xygrid"/>
  </sodipodi:namedview>
  <path d="m 592.66667,1093.3333 -244.22223,0 q -31.11111,0 -44.72222,-27.2222 -13.61111,-27.2222 5.05556,-52.1111 L 455,818.77776 q -50.55556,-24.11111 -106.55556,-24.11111 -102.66666,0 -175.77777,73.11113 -73.11111,73.1111 -73.11111,175.77782 0,102.6666 73.11111,175.7777 73.11111,73.1111 175.77777,73.1111 89.44445,0 157.88889,-56.3888 68.44445,-56.3889 86.33334,-142.7223 z M 448,993.77778 l 144.66667,0 q -14,-66.1111 -58.33334,-115.1111 z m 373.33333,0 223.99997,-298.66669 -373.3333,0 -77,102.66667 q 81.66667,80.11112 98,196.00002 l 128.33333,0 z m 871.11107,49.77782 q 0,-102.66672 -73.1111,-175.77782 -73.1111,-73.11113 -175.7777,-73.11113 -46.6667,0 -94.1112,18.66666 l 135.3334,202.22229 q 11.6666,17.8888 7.7778,38.1111 -3.8889,20.2222 -21,31.1111 -11.6667,8.5555 -28,8.5555 -27.2223,0 -41.2223,-22.5555 L 1267,868.55558 q -72.3333,73.8888 -72.3333,175.00002 0,102.6666 73.1111,175.7777 73.1111,73.1111 175.7778,73.1111 102.6666,0 175.7777,-73.1111 73.1111,-73.1111 73.1111,-175.7777 z m 99.5556,0 q 0,143.8888 -102.2778,246.1666 Q 1587.4444,1392 1443.5556,1392 q -143.8889,0 -246.1667,-102.2778 -102.2778,-102.2778 -102.2778,-246.1666 0,-75.44452 30.7222,-142.72232 30.7223,-67.27774 85.1667,-116.27774 l -50.5556,-76.22223 -274.55551,364.77779 q -14,20.2222 -39.66667,20.2222 l -153.22222,0 Q 675.11111,1220.8889 577.11111,1306.4444 479.11111,1392 348.44444,1392 204.55556,1392 102.27778,1289.7222 0,1187.4444 0,1043.5556 0,899.66668 102.27778,797.38887 204.55556,695.11109 348.44444,695.11109 q 88.66667,0 167.22223,42.77778 l 106.55555,-142.33333 -174.22222,0 q -20.22222,0 -35,-14.77778 -14.77778,-14.77778 -14.77778,-35 0,-20.22222 14.77778,-35 14.77778,-14.77778 35,-14.77778 l 298.66667,0 0,99.55556 338.33333,0 -66.1111,-99.55556 -172.66668,0 q -20.22222,0 -35,-14.77778 -14.77778,-14.77778 -14.77778,-35 0,-20.22222 14.77778,-35 14.77778,-14.77778 35,-14.77778 l 199.11108,0 q 25.6667,0 41.2223,21.77778 l 207.6666,311.11111 q 70.7778,-34.22222 149.3334,-34.22222 143.8888,0 246.1666,102.27778 Q 1792,899.66668 1792,1043.5556 Z" inkscape:connector-curvature="0"/>

	
	<metadata>
		<rdf:RDF xmlns:rdf="http://www.w3.org/1999/02/22-rdf-syntax-ns#" xmlns:rdfs="http://www.w3.org/2000/01/rdf-schema#" xmlns:dc="http://purl.org/dc/elements/1.1/">
			<rdf:Description about="https://iconscout.com/legal#licenses" dc:title="Bicycle, Ride, Travel, Cycle, Vehicle, Helath" dc:description="Bicycle, Ride, Travel, Cycle, Vehicle, Helath" dc:publisher="Iconscout" dc:date="2016-12-14" dc:format="image/svg+xml" dc:language="en">
				<dc:creator>
					<rdf:Bag>
						<rdf:li>Font Awesome</rdf:li>
					</rdf:Bag>
				</dc:creator>
			</rdf:Description>
		</rdf:RDF>
    </metadata></svg>
