<?xml version="1.0" encoding="UTF-8" standalone="no"?>
<svg xmlns="http://www.w3.org/2000/svg" width="1792" height="1792" viewBox="0 0 1792 1792"><path d="M704 320v768q0 26-19 45t-45 19v576q0 26-19 45t-45 19h-512q-26 0-45-19t-19-45v-512l249-873q7-23 31-23h424zm320 0v704h-256v-704h256zm768 896v512q0 26-19 45t-45 19h-512q-26 0-45-19t-19-45v-576q-26 0-45-19t-19-45v-768h424q24 0 31 23zm-1056-1184v224h-352v-224q0-14 9-23t23-9h288q14 0 23 9t9 23zm672 0v224h-352v-224q0-14 9-23t23-9h288q14 0 23 9t9 23z"/>
	
	<metadata>
		<rdf:RDF xmlns:rdf="http://www.w3.org/1999/02/22-rdf-syntax-ns#" xmlns:rdfs="http://www.w3.org/2000/01/rdf-schema#" xmlns:dc="http://purl.org/dc/elements/1.1/">
			<rdf:Description about="https://iconscout.com/legal#licenses" dc:title="Binoculars, Watch, Near, Far, Device, Instrument, Tool, Lense, Glass" dc:description="Binoculars, Watch, Near, Far, Device, Instrument, Tool, Lense, Glass" dc:publisher="Iconscout" dc:date="2016-12-14" dc:format="image/svg+xml" dc:language="en">
				<dc:creator>
					<rdf:Bag>
						<rdf:li>Font Awesome</rdf:li>
					</rdf:Bag>
				</dc:creator>
			</rdf:Description>
		</rdf:RDF>
    </metadata></svg>
