<?xml version="1.0" encoding="UTF-8" standalone="no"?>
<svg xmlns="http://www.w3.org/2000/svg" width="1792" height="1792" viewBox="0 0 1792 1792"><path d="M969 1053l148 148-149 149zm-1-611l149 149-148 148zm-130 1224l464-464-306-306 306-306-464-464v611l-255-255-93 93 320 321-320 321 93 93 255-255v611zm719-770q0 209-32 365.5t-87.5 257-140.5 162.5-181.5 86.5-219.5 24.5-219.5-24.5-181.5-86.5-140.5-162.5-87.5-257-32-365.5 32-365.5 87.5-257 140.5-162.5 181.5-86.5 219.5-24.5 219.5 24.5 181.5 86.5 140.5 162.5 87.5 257 32 365.5z"/>
	
	<metadata>
		<rdf:RDF xmlns:rdf="http://www.w3.org/1999/02/22-rdf-syntax-ns#" xmlns:rdfs="http://www.w3.org/2000/01/rdf-schema#" xmlns:dc="http://purl.org/dc/elements/1.1/">
			<rdf:Description about="https://iconscout.com/legal#licenses" dc:title="Bluetooth, Transfer, File, Data, Sharing, Sign, Exchange" dc:description="Bluetooth, Transfer, File, Data, Sharing, Sign, Exchange" dc:publisher="Iconscout" dc:date="2016-12-14" dc:format="image/svg+xml" dc:language="en">
				<dc:creator>
					<rdf:Bag>
						<rdf:li>Font Awesome</rdf:li>
					</rdf:Bag>
				</dc:creator>
			</rdf:Description>
		</rdf:RDF>
    </metadata></svg>
