<?xml version="1.0" encoding="UTF-8" standalone="no"?>
<svg xmlns="http://www.w3.org/2000/svg" width="1792" height="1792" viewBox="0 0 1792 1792"><path d="M1333 566q18 20 7 44l-540 1157q-13 25-42 25-4 0-14-2-17-5-25.5-19t-4.5-30l197-808-406 101q-4 1-12 1-18 0-31-11-18-15-13-39l201-825q4-14 16-23t28-9h328q19 0 32 12.5t13 29.5q0 8-5 18l-171 463 396-98q8-2 12-2 19 0 34 15z"/>
	
	<metadata>
		<rdf:RDF xmlns:rdf="http://www.w3.org/1999/02/22-rdf-syntax-ns#" xmlns:rdfs="http://www.w3.org/2000/01/rdf-schema#" xmlns:dc="http://purl.org/dc/elements/1.1/">
			<rdf:Description about="https://iconscout.com/legal#licenses" dc:title="Bolt, Thunder, Weather, Change, Effect" dc:description="Bolt, Thunder, Weather, Change, Effect" dc:publisher="Iconscout" dc:date="2016-12-14" dc:format="image/svg+xml" dc:language="en">
				<dc:creator>
					<rdf:Bag>
						<rdf:li>Font Awesome</rdf:li>
					</rdf:Bag>
				</dc:creator>
			</rdf:Description>
		</rdf:RDF>
    </metadata></svg>
