<?xml version="1.0" encoding="UTF-8" standalone="no"?>
<svg xmlns="http://www.w3.org/2000/svg" width="1792" height="1792" viewBox="0 0 1792 1792"><path d="M640 256h512v-128h-512v128zm1152 640v480q0 66-47 113t-113 47h-1472q-66 0-113-47t-47-113v-480h672v160q0 26 19 45t45 19h320q26 0 45-19t19-45v-160h672zm-768 0v128h-256v-128h256zm768-480v384h-1792v-384q0-66 47-113t113-47h352v-160q0-40 28-68t68-28h576q40 0 68 28t28 68v160h352q66 0 113 47t47 113z"/>
	
	<metadata>
		<rdf:RDF xmlns:rdf="http://www.w3.org/1999/02/22-rdf-syntax-ns#" xmlns:rdfs="http://www.w3.org/2000/01/rdf-schema#" xmlns:dc="http://purl.org/dc/elements/1.1/">
			<rdf:Description about="https://iconscout.com/legal#licenses" dc:title="Briefcase, Case, Work, Bag, Suitcase, Stationary" dc:description="Briefcase, Case, Work, Bag, Suitcase, Stationary" dc:publisher="Iconscout" dc:date="2016-12-14" dc:format="image/svg+xml" dc:language="en">
				<dc:creator>
					<rdf:Bag>
						<rdf:li>Font Awesome</rdf:li>
					</rdf:Bag>
				</dc:creator>
			</rdf:Description>
		</rdf:RDF>
    </metadata></svg>
