<?xml version="1.0" encoding="UTF-8" standalone="no"?>
<svg xmlns="http://www.w3.org/2000/svg" width="1792" height="1792" viewBox="0 0 1792 1792"><path d="M1696 960q0 26-19 45t-45 19h-224q0 171-67 290l208 209q19 19 19 45t-19 45q-18 19-45 19t-45-19l-198-197q-5 5-15 13t-42 28.5-65 36.5-82 29-97 13v-896h-128v896q-51 0-101.5-13.5t-87-33-66-39-43.5-32.5l-15-14-183 207q-20 21-48 21-24 0-43-16-19-18-20.5-44.5t15.5-46.5l202-227q-58-114-58-274h-224q-26 0-45-19t-19-45 19-45 45-19h224v-294l-173-173q-19-19-19-45t19-45 45-19 45 19l173 173h844l173-173q19-19 45-19t45 19 19 45-19 45l-173 173v294h224q26 0 45 19t19 45zm-480-576h-640q0-133 93.5-226.5t226.5-93.5 226.5 93.5 93.5 226.5z"/>
	
	<metadata>
		<rdf:RDF xmlns:rdf="http://www.w3.org/1999/02/22-rdf-syntax-ns#" xmlns:rdfs="http://www.w3.org/2000/01/rdf-schema#" xmlns:dc="http://purl.org/dc/elements/1.1/">
			<rdf:Description about="https://iconscout.com/legal#licenses" dc:title="Bug, Ladybug, Kit, Error, Animal, Insect" dc:description="Bug, Ladybug, Kit, Error, Animal, Insect" dc:publisher="Iconscout" dc:date="2016-12-14" dc:format="image/svg+xml" dc:language="en">
				<dc:creator>
					<rdf:Bag>
						<rdf:li>Font Awesome</rdf:li>
					</rdf:Bag>
				</dc:creator>
			</rdf:Description>
		</rdf:RDF>
    </metadata></svg>
