<?xml version="1.0" encoding="UTF-8" standalone="no"?>
<svg xmlns:dc="http://purl.org/dc/elements/1.1/" xmlns:cc="http://creativecommons.org/ns#" xmlns:rdf="http://www.w3.org/1999/02/22-rdf-syntax-ns#" xmlns:svg="http://www.w3.org/2000/svg" xmlns="http://www.w3.org/2000/svg" xmlns:sodipodi="http://sodipodi.sourceforge.net/DTD/sodipodi-0.dtd" xmlns:inkscape="http://www.inkscape.org/namespaces/inkscape" width="1792" height="1792" viewBox="0 0 1792 1792" version="1.1" inkscape:version="0.91 r13725" sodipodi:docname="cab.svg">
  
  <defs/>
  <sodipodi:namedview pagecolor="#ffffff" bordercolor="#666666" borderopacity="1" objecttolerance="10" gridtolerance="10" guidetolerance="10" inkscape:pageopacity="0" inkscape:pageshadow="2" inkscape:window-width="1366" inkscape:window-height="705" showgrid="true" inkscape:snap-bbox="true" inkscape:bbox-paths="true" inkscape:snap-bbox-edge-midpoints="true" inkscape:bbox-nodes="true" inkscape:snap-bbox-midpoints="true" inkscape:zoom="0.13169643" inkscape:cx="-88.032883" inkscape:cy="876.82191" inkscape:window-x="-8" inkscape:window-y="-8" inkscape:window-maximized="1" inkscape:current-layer="svg2">
    <inkscape:grid type="xygrid"/>
  </sodipodi:namedview>
  <path d="m 1596,898 q 81.375,0 138.6875,57.3125 Q 1792,1012.625 1792,1094 l 0,336 q 0,12.25 -7.875,20.125 Q 1776.25,1458 1764,1458 l -84,0 0,56 q 0,70 -49,119 -49,49 -119,49 -70,0 -119,-49 -49,-49 -49,-119 l 0,-56 -896,0 0,56 q 0,70 -49,119 -49,49 -119,49 -70,0 -119,-49 -49,-49 -49,-119 l 0,-56 -84,0 Q 15.75,1458 7.875,1450.125 0,1442.25 0,1430 L 0,1094 Q 0,1012.625 57.3125,955.3125 114.625,898 196,898 l 24.5,0 91.875,-366.625 q 20.125,-82.25 91,-137.8125 Q 474.25,338 560,338 l 112,0 0,-196 q 0,-12.25 7.875,-20.125 Q 687.75,114 700,114 l 392,0 q 12.25,0 20.125,7.875 Q 1120,129.75 1120,142 l 0,196 112,0 q 85.75,0 156.625,55.5625 70.875,55.5625 91,137.8125 L 1571.5,898 1596,898 Z M 280,1318 q 57.75,0 98.875,-41.125 Q 420,1235.75 420,1178 420,1120.25 378.875,1079.125 337.75,1038 280,1038 q -57.75,0 -98.875,41.125 Q 140,1120.25 140,1178 q 0,57.75 41.125,98.875 Q 222.25,1318 280,1318 Z m 171.5,-420 889,0 -77.875,-312.375 q -1.75,-7 -12.25,-15.3125 Q 1239.875,562 1232,562 l -672,0 q -7.875,0 -18.375,8.3125 -10.5,8.3125 -12.25,15.3125 z M 1512,1318 q 57.75,0 98.875,-41.125 Q 1652,1235.75 1652,1178 q 0,-57.75 -41.125,-98.875 Q 1569.75,1038 1512,1038 q -57.75,0 -98.875,41.125 Q 1372,1120.25 1372,1178 q 0,57.75 41.125,98.875 Q 1454.25,1318 1512,1318 Z" inkscape:connector-curvature="0"/>

	
	<metadata>
		<rdf:RDF xmlns:rdf="http://www.w3.org/1999/02/22-rdf-syntax-ns#" xmlns:rdfs="http://www.w3.org/2000/01/rdf-schema#" xmlns:dc="http://purl.org/dc/elements/1.1/">
			<rdf:Description about="https://iconscout.com/legal#licenses" dc:title="Cab, Texi, Transport, Travel, Car, Vehicle" dc:description="Cab, Texi, Transport, Travel, Car, Vehicle" dc:publisher="Iconscout" dc:date="2016-12-14" dc:format="image/svg+xml" dc:language="en">
				<dc:creator>
					<rdf:Bag>
						<rdf:li>Font Awesome</rdf:li>
					</rdf:Bag>
				</dc:creator>
			</rdf:Description>
		</rdf:RDF>
    </metadata></svg>
