<?xml version="1.0" encoding="UTF-8" standalone="no"?>
<svg xmlns:dc="http://purl.org/dc/elements/1.1/" xmlns:cc="http://creativecommons.org/ns#" xmlns:rdf="http://www.w3.org/1999/02/22-rdf-syntax-ns#" xmlns:svg="http://www.w3.org/2000/svg" xmlns="http://www.w3.org/2000/svg" xmlns:sodipodi="http://sodipodi.sourceforge.net/DTD/sodipodi-0.dtd" xmlns:inkscape="http://www.inkscape.org/namespaces/inkscape" width="1792" height="1792" viewBox="0 0 1792 1792" version="1.1" inkscape:version="0.91 r13725" sodipodi:docname="cc.svg">
  
  <defs/>
  <sodipodi:namedview pagecolor="#ffffff" bordercolor="#666666" borderopacity="1" objecttolerance="10" gridtolerance="10" guidetolerance="10" inkscape:pageopacity="0" inkscape:pageshadow="2" inkscape:window-width="1366" inkscape:window-height="705" showgrid="true" inkscape:snap-bbox="true" inkscape:bbox-paths="true" inkscape:bbox-nodes="true" inkscape:snap-bbox-edge-midpoints="true" inkscape:snap-bbox-midpoints="true" inkscape:zoom="0.26339286" inkscape:cx="4.7353525" inkscape:cy="-141.52769" inkscape:window-x="-8" inkscape:window-y="-8" inkscape:window-maximized="1" inkscape:current-layer="svg2">
    <inkscape:grid type="xygrid"/>
  </sodipodi:namedview>
  <path d="M 686.875,998 868,998 q -12.25,138.25 -86.1875,217.4375 -73.9375,79.1875 -187.6875,79.1875 -141.75,0 -222.6875,-101.5 -80.9375,-101.5 -80.9375,-276.5 0,-169.75 81.375,-272.5625 Q 453.25,541.25 575.75,541.25 q 129.5,0 203,76.125 73.5,76.125 84.875,216.125 L 686,833.5 q -4.375,-56 -31.0625,-86.625 Q 628.25,716.25 583.625,716.25 q -49.875,0 -77.4375,52.9375 Q 478.625,822.125 478.625,924.5 q 0,42 4.375,73.5 4.375,31.5 15.75,60.8125 11.375,29.3125 35,45.0625 23.625,15.75 57.75,15.75 83.125,0 95.375,-121.625 z m 623,0 180.25,0 q -12.25,138.25 -85.75,217.4375 -73.5,79.1875 -187.25,79.1875 -141.75,0 -222.6875,-101.5 -80.9375,-101.5 -80.9375,-276.5 0,-169.75 81.375,-272.5625 Q 1076.25,541.25 1198.75,541.25 q 129.5,0 203,76.125 73.5,76.125 84.875,216.125 l -178.5,0 q -3.5,-56 -30.625,-86.625 -27.125,-30.625 -70.875,-30.625 -49.875,0 -77.4375,52.9375 -27.5625,52.9375 -27.5625,155.3125 0,42 4.375,73.5 4.375,31.5 15.75,60.8125 11.375,29.3125 34.5625,45.0625 23.1875,15.75 57.3125,15.75 42.875,0 66.9375,-33.25 24.0625,-33.25 29.3125,-88.375 z M 1624,893.875 q 0,-181.125 -13.5625,-268.625 -13.5625,-87.5 -52.9375,-140.875 -5.25,-7 -11.8125,-12.25 -6.5625,-5.25 -18.8125,-13.125 -12.25,-7.875 -14,-9.625 Q 1437.625,394.25 903,394.25 q -546.875,0 -621.25,55.125 -4.375,3.5 -15.3125,10.0625 Q 255.5,466 248.0625,471.6875 240.625,477.375 235.375,484.375 196,536.875 182.875,623.9375 169.75,711 169.75,893.875 q 0,182 13.125,269.0625 13.125,87.0625 52.5,140.4375 5.25,7 13.125,13.125 7.875,6.125 17.9375,12.25 10.0625,6.125 15.3125,10.5 38.5,28.875 209.5625,42.875 171.0625,14 411.6875,14 533.75,0 609.875,-56.875 4.375,-3.5 14.875,-9.625 10.5,-6.125 17.9375,-12.25 7.4375,-6.125 11.8125,-14 40.25,-52.5 53.375,-139.125 Q 1624,1077.625 1624,893.875 Z M 1792,228 l 0,1344 -1792,0 0,-1344 1792,0 z" inkscape:connector-curvature="0"/>

	
	<metadata>
		<rdf:RDF xmlns:rdf="http://www.w3.org/1999/02/22-rdf-syntax-ns#" xmlns:rdfs="http://www.w3.org/2000/01/rdf-schema#" xmlns:dc="http://purl.org/dc/elements/1.1/">
			<rdf:Description about="https://iconscout.com/legal#licenses" dc:title="Cc, Credit, Debit, Card, Bank, Transaction" dc:description="Cc, Credit, Debit, Card, Bank, Transaction" dc:publisher="Iconscout" dc:date="2016-12-14" dc:format="image/svg+xml" dc:language="en">
				<dc:creator>
					<rdf:Bag>
						<rdf:li>Font Awesome</rdf:li>
					</rdf:Bag>
				</dc:creator>
			</rdf:Description>
		</rdf:RDF>
    </metadata></svg>
