<?xml version="1.0" encoding="UTF-8" standalone="no"?>
<svg xmlns="http://www.w3.org/2000/svg" width="1792" height="1792" viewBox="0 0 1792 1792"><path d="M1504 896l138 135q30 28 20 70-12 41-52 51l-188 48 53 186q12 41-19 70-29 31-70 19l-186-53-48 188q-10 40-51 52-12 2-19 2-31 0-51-22l-135-138-135 138q-28 30-70 20-41-11-51-52l-48-188-186 53q-41 12-70-19-31-29-19-70l53-186-188-48q-40-10-52-51-10-42 20-70l138-135-138-135q-30-28-20-70 12-41 52-51l188-48-53-186q-12-41 19-70 29-31 70-19l186 53 48-188q10-41 51-51 41-12 70 19l135 139 135-139q29-30 70-19 41 10 51 51l48 188 186-53q41-12 70 19 31 29 19 70l-53 186 188 48q40 10 52 51 10 42-20 70z"/>
	
	<metadata>
		<rdf:RDF xmlns:rdf="http://www.w3.org/1999/02/22-rdf-syntax-ns#" xmlns:rdfs="http://www.w3.org/2000/01/rdf-schema#" xmlns:dc="http://purl.org/dc/elements/1.1/">
			<rdf:Description about="https://iconscout.com/legal#licenses" dc:title="Certificate, Label, Decoration, Celebration, Ribbon, Decore" dc:description="Certificate, Label, Decoration, Celebration, Ribbon, Decore" dc:publisher="Iconscout" dc:date="2016-12-14" dc:format="image/svg+xml" dc:language="en">
				<dc:creator>
					<rdf:Bag>
						<rdf:li>Font Awesome</rdf:li>
					</rdf:Bag>
				</dc:creator>
			</rdf:Description>
		</rdf:RDF>
    </metadata></svg>
