<?xml version="1.0" encoding="UTF-8" standalone="no"?>
<svg xmlns="http://www.w3.org/2000/svg" width="1792" height="1792" viewBox="0 0 1792 1792"><path d="M893 0q240-2 451 120 232 134 352 372l-742-39q-160-9-294 74.5t-185 229.5l-276-424q128-159 311-245.5t383-87.5zm-747 405l337 663q72 143 211 217t293 45l-230 451q-212-33-385-157.5t-272.5-316-99.5-411.5q0-267 146-491zm1586 169q58 150 59.5 310.5t-48.5 306-153 272-246 209.5q-230 133-498 119l405-623q88-131 82.5-290.5t-106.5-277.5zm-836 20q125 0 213.5 88.5t88.5 213.5-88.5 213.5-213.5 88.5-213.5-88.5-88.5-213.5 88.5-213.5 213.5-88.5z"/>
	
	<metadata>
		<rdf:RDF xmlns:rdf="http://www.w3.org/1999/02/22-rdf-syntax-ns#" xmlns:rdfs="http://www.w3.org/2000/01/rdf-schema#" xmlns:dc="http://purl.org/dc/elements/1.1/">
			<rdf:Description about="https://iconscout.com/legal#licenses" dc:title="Chrome, Web, Browser, Google, Symbol" dc:description="Chrome, Web, Browser, Google, Symbol" dc:publisher="Iconscout" dc:date="2016-12-14" dc:format="image/svg+xml" dc:language="en">
				<dc:creator>
					<rdf:Bag>
						<rdf:li>Font Awesome</rdf:li>
					</rdf:Bag>
				</dc:creator>
			</rdf:Description>
		</rdf:RDF>
    </metadata></svg>
