<?xml version="1.0" encoding="UTF-8" standalone="no"?>
<svg xmlns="http://www.w3.org/2000/svg" width="1792" height="1792" viewBox="0 0 1792 1792"><path d="M768 1664h896v-640h-416q-40 0-68-28t-28-68v-416h-384v1152zm256-1440v-64q0-13-9.5-22.5t-22.5-9.5h-704q-13 0-22.5 9.5t-9.5 22.5v64q0 13 9.5 22.5t22.5 9.5h704q13 0 22.5-9.5t9.5-22.5zm256 672h299l-299-299v299zm512 128v672q0 40-28 68t-68 28h-960q-40 0-68-28t-28-68v-160h-544q-40 0-68-28t-28-68v-1344q0-40 28-68t68-28h1088q40 0 68 28t28 68v328q21 13 36 28l408 408q28 28 48 76t20 88z"/>
	
	<metadata>
		<rdf:RDF xmlns:rdf="http://www.w3.org/1999/02/22-rdf-syntax-ns#" xmlns:rdfs="http://www.w3.org/2000/01/rdf-schema#" xmlns:dc="http://purl.org/dc/elements/1.1/">
			<rdf:Description about="https://iconscout.com/legal#licenses" dc:title="Clipboard, Note, Document, File, Important" dc:description="Clipboard, Note, Document, File, Important" dc:publisher="Iconscout" dc:date="2016-12-14" dc:format="image/svg+xml" dc:language="en">
				<dc:creator>
					<rdf:Bag>
						<rdf:li>Font Awesome</rdf:li>
					</rdf:Bag>
				</dc:creator>
			</rdf:Description>
		</rdf:RDF>
    </metadata></svg>
