<?xml version="1.0" encoding="UTF-8" standalone="no"?>
<svg xmlns="http://www.w3.org/2000/svg" width="1792" height="1792" viewBox="0 0 1792 1792"><path d="M1664 1632v-1088q0-13-9.5-22.5t-22.5-9.5h-1088q-13 0-22.5 9.5t-9.5 22.5v1088q0 13 9.5 22.5t22.5 9.5h1088q13 0 22.5-9.5t9.5-22.5zm128-1088v1088q0 66-47 113t-113 47h-1088q-66 0-113-47t-47-113v-1088q0-66 47-113t113-47h1088q66 0 113 47t47 113zm-384-384v160h-128v-160q0-13-9.5-22.5t-22.5-9.5h-1088q-13 0-22.5 9.5t-9.5 22.5v1088q0 13 9.5 22.5t22.5 9.5h160v128h-160q-66 0-113-47t-47-113v-1088q0-66 47-113t113-47h1088q66 0 113 47t47 113z"/>
	
	<metadata>
		<rdf:RDF xmlns:rdf="http://www.w3.org/1999/02/22-rdf-syntax-ns#" xmlns:rdfs="http://www.w3.org/2000/01/rdf-schema#" xmlns:dc="http://purl.org/dc/elements/1.1/">
			<rdf:Description about="https://iconscout.com/legal#licenses" dc:title="Clone, Copy, Duplicate, File" dc:description="Clone, Copy, Duplicate, File" dc:publisher="Iconscout" dc:date="2016-12-14" dc:format="image/svg+xml" dc:language="en">
				<dc:creator>
					<rdf:Bag>
						<rdf:li>Font Awesome</rdf:li>
					</rdf:Bag>
				</dc:creator>
			</rdf:Description>
		</rdf:RDF>
    </metadata></svg>
