<?xml version="1.0" encoding="UTF-8" standalone="no"?>
<svg xmlns="http://www.w3.org/2000/svg" width="1792" height="1792" viewBox="0 0 1792 1792"><path d="M1600 640q0-80-56-136t-136-56h-64v384h64q80 0 136-56t56-136zm-1664 768h1792q0 106-75 181t-181 75h-1280q-106 0-181-75t-75-181zm1856-768q0 159-112.5 271.5t-271.5 112.5h-64v32q0 92-66 158t-158 66h-704q-92 0-158-66t-66-158v-736q0-26 19-45t45-19h1152q159 0 271.5 112.5t112.5 271.5z"/>
	
	<metadata>
		<rdf:RDF xmlns:rdf="http://www.w3.org/1999/02/22-rdf-syntax-ns#" xmlns:rdfs="http://www.w3.org/2000/01/rdf-schema#" xmlns:dc="http://purl.org/dc/elements/1.1/">
			<rdf:Description about="https://iconscout.com/legal#licenses" dc:title="Coffee, Drink, Cup, Mug, Tea, Hot" dc:description="Coffee, Drink, Cup, Mug, Tea, Hot" dc:publisher="Iconscout" dc:date="2016-12-14" dc:format="image/svg+xml" dc:language="en">
				<dc:creator>
					<rdf:Bag>
						<rdf:li>Font Awesome</rdf:li>
					</rdf:Bag>
				</dc:creator>
			</rdf:Description>
		</rdf:RDF>
    </metadata></svg>
