<?xml version="1.0" encoding="UTF-8" standalone="no"?>
<svg xmlns="http://www.w3.org/2000/svg" width="1792" height="1792" viewBox="0 0 1792 1792"><path d="M640 896q0-53-37.5-90.5t-90.5-37.5-90.5 37.5-37.5 90.5 37.5 90.5 90.5 37.5 90.5-37.5 37.5-90.5zm384 0q0-53-37.5-90.5t-90.5-37.5-90.5 37.5-37.5 90.5 37.5 90.5 90.5 37.5 90.5-37.5 37.5-90.5zm384 0q0-53-37.5-90.5t-90.5-37.5-90.5 37.5-37.5 90.5 37.5 90.5 90.5 37.5 90.5-37.5 37.5-90.5zm384 0q0 174-120 321.5t-326 233-450 85.5q-110 0-211-18-173 173-435 229-52 10-86 13-12 1-22-6t-13-18q-4-15 20-37 5-5 23.5-21.5t25.5-23.5 23.5-25.5 24-31.5 20.5-37 20-48 14.5-57.5 12.5-72.5q-146-90-229.5-216.5t-83.5-269.5q0-174 120-321.5t326-233 450-85.5 450 85.5 326 233 120 321.5z"/>
	
	<metadata>
		<rdf:RDF xmlns:rdf="http://www.w3.org/1999/02/22-rdf-syntax-ns#" xmlns:rdfs="http://www.w3.org/2000/01/rdf-schema#" xmlns:dc="http://purl.org/dc/elements/1.1/">
			<rdf:Description about="https://iconscout.com/legal#licenses" dc:title="Commenting, Typing, Chat, Communication, Text, Bubble, Chatting" dc:description="Commenting, Typing, Chat, Communication, Text, Bubble, Chatting" dc:publisher="Iconscout" dc:date="2016-12-14" dc:format="image/svg+xml" dc:language="en">
				<dc:creator>
					<rdf:Bag>
						<rdf:li>Font Awesome</rdf:li>
					</rdf:Bag>
				</dc:creator>
			</rdf:Description>
		</rdf:RDF>
    </metadata></svg>
