<?xml version="1.0" encoding="UTF-8" standalone="no"?>
<svg xmlns:dc="http://purl.org/dc/elements/1.1/" xmlns:cc="http://creativecommons.org/ns#" xmlns:rdf="http://www.w3.org/1999/02/22-rdf-syntax-ns#" xmlns:svg="http://www.w3.org/2000/svg" xmlns="http://www.w3.org/2000/svg" xmlns:sodipodi="http://sodipodi.sourceforge.net/DTD/sodipodi-0.dtd" xmlns:inkscape="http://www.inkscape.org/namespaces/inkscape" width="1792" height="1792" viewBox="0 0 1792 1792" version="1.1" inkscape:version="0.91 r13725" sodipodi:docname="connect develop.svg">
  
  <defs/>
  <sodipodi:namedview pagecolor="#ffffff" bordercolor="#666666" borderopacity="1" objecttolerance="10" gridtolerance="10" guidetolerance="10" inkscape:pageopacity="0" inkscape:pageshadow="2" inkscape:window-width="1366" inkscape:window-height="705" showgrid="true" inkscape:snap-bbox="true" inkscape:bbox-nodes="true" inkscape:snap-bbox-edge-midpoints="true" inkscape:snap-bbox-midpoints="true" inkscape:bbox-paths="true" inkscape:zoom="0.26339286" inkscape:cx="364.00245" inkscape:cy="494.15319" inkscape:window-x="-8" inkscape:window-y="-8" inkscape:window-maximized="1" inkscape:current-layer="svg2">
    <inkscape:grid type="xygrid"/>
  </sodipodi:namedview>
  <path d="m 1792,897.125 q 0,18.375 -11.375,31.9375 -11.375,13.5625 -28.875,17.0625 l -179.375,311.5 q 2.625,7.875 2.625,15.75 0,17.5 -10.9375,31.0625 Q 1553.125,1318 1535.625,1321.5 l -168.875,294.875 q 2.625,7 2.625,14 0,20.125 -14.4375,35 -14.4375,14.875 -35.4375,14.875 -21.875,0 -35.875,-15.75 l -350,0 Q 918.75,1682 896,1682 q -22.75,0 -37.625,-17.5 l -349.125,0 q -14.875,17.5 -37.625,17.5 -20.125,0 -35,-14.4375 -14.875,-14.4375 -14.875,-35.4375 0,-7 3.5,-17.5 L 256.375,1321.5 q -17.5,-3.5 -28.4375,-17.0625 Q 217,1290.875 217,1273.375 q 0,-7.875 2.625,-15.75 L 39.375,946.125 Q 21.875,941.75 10.9375,928.1875 0,914.625 0,897.125 0,878.75 11.8125,865.1875 23.625,851.625 41.125,848.125 l 174.125,-301 q 0,-0.875 -0.4375,-2.625 -0.4375,-1.75 -0.4375,-2.625 0,-31.5 29.75,-44.625 L 427,179.625 q -3.5,-8.75 -3.5,-15.75 0,-21 14.875,-35.4375 Q 453.25,114 473.375,114 q 22.75,0 38.5,18.375 l 346.5,0 Q 872.375,114 896,114 q 23.625,0 37.625,18.375 l 348.25,0 q 15.75,-18.375 38.5,-18.375 20.125,0 35,14.4375 14.875,14.4375 14.875,35.4375 0,5.25 -3.5,15.75 l 181.125,313.25 q 20.125,0.875 34.125,15.3125 14,14.4375 14,33.6875 0,11.375 -6.125,23.625 L 1753.5,849 q 16.625,3.5 27.5625,17.0625 Q 1792,879.625 1792,897.125 Z m -861.875,699.125 340.375,0 -299.25,-309.75 -125.125,0 -299.25,309.75 315,0 q 15.75,-14 34.125,-14 18.375,0 34.125,14 z M 98,885.75 q 0.875,3.5 0.875,11.375 0,8.75 -1.75,13.125 l 182,315 q 1.75,0 3.9375,0.875 2.1875,0.875 4.8125,2.1875 l 4.375,2.1875 164.5,-174.125 0,-303.625 L 293.125,583 q -11.375,7 -25.375,8.75 z m 764.75,-686 -339.5,0 166.25,175 484.75,-175 -245,0 q -14,14 -33.25,14 -19.25,0 -33.25,-14 z m 615.125,1060.5 q 0.875,-5.25 4.375,-9.625 l -56,-59.5 -14.875,69.125 66.5,0 z m -92.75,0 19.25,-91.875 -220.5,-232.75 -259,268.625 55.125,56 405.125,0 z m -77,322 14,-24.5 56.875,-271.25 -373.625,0 291.375,300.125 q 7,-3.5 11.375,-4.375 z m -802.375,14 4.375,0 299.25,-309.75 -326.375,0 0,293.125 3.5,5.25 q 12.25,4.375 19.25,11.375 z m -22.75,-336 351.75,0 56,-57.75 L 620.375,921.625 483,1066.875 l 0,193.375 z m -168.875,0 142.625,0 0,-165.375 -147,154.875 q 3.5,7 4.375,10.5 z M 313.25,538.375 q 0,0.875 0.4375,1.75 0.4375,0.875 0.4375,1.75 0,14 -7,25.375 l 149.625,154.875 0,-235.375 z M 483,477.125 483,749.25 616.875,886.625 876.75,611.875 681.625,405.375 Z m 3.5,-266 -3.5,7 0,231 179.375,-64.75 L 495.25,208.5 q -5.25,1.75 -8.75,2.625 z m 779.625,-11.375 -14,0 -543.375,196 186.375,196.875 z m -371,430.5 L 635.25,905.875 907.375,1185 l 259,-268.625 z M 602,903.25 483,779.875 l 0,248.5 z m 306.25,318.5 -36.75,38.5 74.375,0 z m 294,-304.5 208.25,219.625 115.5,-546 -2.625,-4.375 -0.875,-0.875 z m 301,-350 q -7,-11.375 -7,-25.375 l 0,-1.75 -189,-329 q -4.375,-0.875 -11.375,-4.375 L 913.5,611.875 1184.75,898 Z m -1046.5,-108.5 0,-195.125 -142.625,246.75 z m 0,827.75 -142.625,0 142.625,247.625 0,-247.625 z m 949.375,0 -42,198.625 113.75,-198.625 -71.75,0 z m 106.75,-61.25 L 1694,909.375 q -1.75,-8.75 -1.75,-12.25 0,-0.875 2.625,-14 l -149.625,-259 -112.875,535.5 67.375,71.75 q 4.375,-2.625 13.125,-6.125 z" inkscape:connector-curvature="0"/>

	
	<metadata>
		<rdf:RDF xmlns:rdf="http://www.w3.org/1999/02/22-rdf-syntax-ns#" xmlns:rdfs="http://www.w3.org/2000/01/rdf-schema#" xmlns:dc="http://purl.org/dc/elements/1.1/">
			<rdf:Description about="https://iconscout.com/legal#licenses" dc:title="Connect, Develop, Design, Hexagon, Zigzag" dc:description="Connect, Develop, Design, Hexagon, Zigzag" dc:publisher="Iconscout" dc:date="2016-12-14" dc:format="image/svg+xml" dc:language="en">
				<dc:creator>
					<rdf:Bag>
						<rdf:li>Font Awesome</rdf:li>
					</rdf:Bag>
				</dc:creator>
			</rdf:Description>
		</rdf:RDF>
    </metadata></svg>
