<?xml version="1.0" encoding="UTF-8" standalone="no"?>
<svg xmlns="http://www.w3.org/2000/svg" width="1792" height="1792" viewBox="0 0 1792 1792"><path d="M1696 384q40 0 68 28t28 68v1216q0 40-28 68t-68 28h-960q-40 0-68-28t-28-68v-288h-544q-40 0-68-28t-28-68v-672q0-40 20-88t48-76l408-408q28-28 76-48t88-20h416q40 0 68 28t28 68v328q68-40 128-40h416zm-544 213l-299 299h299v-299zm-640-384l-299 299h299v-299zm196 647l316-316v-416h-384v416q0 40-28 68t-68 28h-416v640h512v-256q0-40 20-88t48-76zm956 804v-1152h-384v416q0 40-28 68t-68 28h-416v640h896z"/>
	
	<metadata>
		<rdf:RDF xmlns:rdf="http://www.w3.org/1999/02/22-rdf-syntax-ns#" xmlns:rdfs="http://www.w3.org/2000/01/rdf-schema#" xmlns:dc="http://purl.org/dc/elements/1.1/">
			<rdf:Description about="https://iconscout.com/legal#licenses" dc:title="Copy, Duplicate, Clone, Document, Zerox, Print" dc:description="Copy, Duplicate, Clone, Document, Zerox, Print" dc:publisher="Iconscout" dc:date="2016-12-14" dc:format="image/svg+xml" dc:language="en">
				<dc:creator>
					<rdf:Bag>
						<rdf:li>Font Awesome</rdf:li>
					</rdf:Bag>
				</dc:creator>
			</rdf:Description>
		</rdf:RDF>
    </metadata></svg>
