<?xml version="1.0" encoding="UTF-8" standalone="no"?>
<svg xmlns:dc="http://purl.org/dc/elements/1.1/" xmlns:cc="http://creativecommons.org/ns#" xmlns:rdf="http://www.w3.org/1999/02/22-rdf-syntax-ns#" xmlns:svg="http://www.w3.org/2000/svg" xmlns="http://www.w3.org/2000/svg" xmlns:sodipodi="http://sodipodi.sourceforge.net/DTD/sodipodi-0.dtd" xmlns:inkscape="http://www.inkscape.org/namespaces/inkscape" width="1792" height="1792" viewBox="0 0 1792 1792" version="1.1" inkscape:version="0.91 r13725" sodipodi:docname="credit-card-alt.svg">
  
  <defs/>
  <sodipodi:namedview pagecolor="#ffffff" bordercolor="#666666" borderopacity="1" objecttolerance="10" gridtolerance="10" guidetolerance="10" inkscape:pageopacity="0" inkscape:pageshadow="2" inkscape:window-width="1366" inkscape:window-height="705" showgrid="true" inkscape:zoom="0.13169643" inkscape:cx="22.148803" inkscape:cy="1475.3181" inkscape:window-x="-8" inkscape:window-y="-8" inkscape:window-maximized="1" inkscape:current-layer="svg2">
    <inkscape:grid type="xygrid"/>
  </sodipodi:namedview>
  <path d="m 0,1368.8889 0,-472.88886 1792,0 0,472.88886 q 0,51.3333 -36.5556,87.8888 -36.5555,36.5556 -87.8888,36.5556 l -1543.11116,0 q -51.33333,0 -87.88888,-36.5556 Q 0,1420.2222 0,1368.8889 Z m 497.77778,-174.2223 0,99.5556 298.66666,0 0,-99.5556 -298.66666,0 z m -298.66667,0 0,99.5556 199.11111,0 0,-99.5556 -199.11111,0 z M 1667.5556,298.66667 q 51.3333,0 87.8888,36.55556 Q 1792,371.77778 1792,423.11112 l 0,174.22222 -1792,0 0,-174.22222 q 0,-51.33334 36.55556,-87.88889 36.55555,-36.55556 87.88888,-36.55556 l 1543.11116,0 z" inkscape:connector-curvature="0"/>

	
	<metadata>
		<rdf:RDF xmlns:rdf="http://www.w3.org/1999/02/22-rdf-syntax-ns#" xmlns:rdfs="http://www.w3.org/2000/01/rdf-schema#" xmlns:dc="http://purl.org/dc/elements/1.1/">
			<rdf:Description about="https://iconscout.com/legal#licenses" dc:title="Credit, Card, Debit, Bank, Transaction, Atm" dc:description="Credit, Card, Debit, Bank, Transaction, Atm" dc:publisher="Iconscout" dc:date="2016-12-14" dc:format="image/svg+xml" dc:language="en">
				<dc:creator>
					<rdf:Bag>
						<rdf:li>Font Awesome</rdf:li>
					</rdf:Bag>
				</dc:creator>
			</rdf:Description>
		</rdf:RDF>
    </metadata></svg>
