<?xml version="1.0" encoding="UTF-8" standalone="no"?>
<svg xmlns="http://www.w3.org/2000/svg" width="1792" height="1792" viewBox="0 0 1792 1792"><path d="M621 1280h595v-595zm-45-45l595-595h-595v595zm1152 77v192q0 14-9 23t-23 9h-224v224q0 14-9 23t-23 9h-192q-14 0-23-9t-9-23v-224h-864q-14 0-23-9t-9-23v-864h-224q-14 0-23-9t-9-23v-192q0-14 9-23t23-9h224v-224q0-14 9-23t23-9h192q14 0 23 9t9 23v224h851l246-247q10-9 23-9t23 9q9 10 9 23t-9 23l-247 246v851h224q14 0 23 9t9 23z"/>
	
	<metadata>
		<rdf:RDF xmlns:rdf="http://www.w3.org/1999/02/22-rdf-syntax-ns#" xmlns:rdfs="http://www.w3.org/2000/01/rdf-schema#" xmlns:dc="http://purl.org/dc/elements/1.1/">
			<rdf:Description about="https://iconscout.com/legal#licenses" dc:title="Crop, Image, Resize, Small, Compress, Picture" dc:description="Crop, Image, Resize, Small, Compress, Picture" dc:publisher="Iconscout" dc:date="2016-12-14" dc:format="image/svg+xml" dc:language="en">
				<dc:creator>
					<rdf:Bag>
						<rdf:li>Font Awesome</rdf:li>
					</rdf:Bag>
				</dc:creator>
			</rdf:Description>
		</rdf:RDF>
    </metadata></svg>
