<?xml version="1.0" encoding="UTF-8" standalone="no"?>
<svg xmlns="http://www.w3.org/2000/svg" width="1792" height="1792" viewBox="0 0 1792 1792"><path d="M1325 1024h-109q-26 0-45-19t-19-45v-128q0-26 19-45t45-19h109q-32-108-112.5-188.5t-188.5-112.5v109q0 26-19 45t-45 19h-128q-26 0-45-19t-19-45v-109q-108 32-188.5 112.5t-112.5 188.5h109q26 0 45 19t19 45v128q0 26-19 45t-45 19h-109q32 108 112.5 188.5t188.5 112.5v-109q0-26 19-45t45-19h128q26 0 45 19t19 45v109q108-32 188.5-112.5t112.5-188.5zm339-192v128q0 26-19 45t-45 19h-143q-37 161-154.5 278.5t-278.5 154.5v143q0 26-19 45t-45 19h-128q-26 0-45-19t-19-45v-143q-161-37-278.5-154.5t-154.5-278.5h-143q-26 0-45-19t-19-45v-128q0-26 19-45t45-19h143q37-161 154.5-278.5t278.5-154.5v-143q0-26 19-45t45-19h128q26 0 45 19t19 45v143q161 37 278.5 154.5t154.5 278.5h143q26 0 45 19t19 45z"/>
	
	<metadata>
		<rdf:RDF xmlns:rdf="http://www.w3.org/1999/02/22-rdf-syntax-ns#" xmlns:rdfs="http://www.w3.org/2000/01/rdf-schema#" xmlns:dc="http://purl.org/dc/elements/1.1/">
			<rdf:Description about="https://iconscout.com/legal#licenses" dc:title="Crosshairs, Target, Select, Bullseye, Goal, Eye" dc:description="Crosshairs, Target, Select, Bullseye, Goal, Eye" dc:publisher="Iconscout" dc:date="2016-12-14" dc:format="image/svg+xml" dc:language="en">
				<dc:creator>
					<rdf:Bag>
						<rdf:li>Font Awesome</rdf:li>
					</rdf:Bag>
				</dc:creator>
			</rdf:Description>
		</rdf:RDF>
    </metadata></svg>
