<?xml version="1.0" encoding="UTF-8" standalone="no"?>
<svg xmlns="http://www.w3.org/2000/svg" width="1792" height="1792" viewBox="0 0 1792 1792"><path d="M896 1629l640-349v-636l-640 233v752zm-64-865l698-254-698-254-698 254zm832-252v768q0 35-18 65t-49 47l-704 384q-28 16-61 16t-61-16l-704-384q-31-17-49-47t-18-65v-768q0-40 23-73t61-47l704-256q22-8 44-8t44 8l704 256q38 14 61 47t23 73z"/>
	
	<metadata>
		<rdf:RDF xmlns:rdf="http://www.w3.org/1999/02/22-rdf-syntax-ns#" xmlns:rdfs="http://www.w3.org/2000/01/rdf-schema#" xmlns:dc="http://purl.org/dc/elements/1.1/">
			<rdf:Description about="https://iconscout.com/legal#licenses" dc:title="Cube, Symmetrical, Three, Dimensional, Shapedesign" dc:description="Cube, Symmetrical, Three, Dimensional, Shapedesign" dc:publisher="Iconscout" dc:date="2016-12-14" dc:format="image/svg+xml" dc:language="en">
				<dc:creator>
					<rdf:Bag>
						<rdf:li>Font Awesome</rdf:li>
					</rdf:Bag>
				</dc:creator>
			</rdf:Description>
		</rdf:RDF>
    </metadata></svg>
