<?xml version="1.0" encoding="UTF-8" standalone="no"?>
<svg xmlns="http://www.w3.org/2000/svg" width="1792" height="1792" viewBox="0 0 1792 1792"><path d="M985.5 1536h-172q-13 0-22.5-9t-9.5-23v-330h-288q-13 0-22.5-9t-9.5-23v-103q0-13 9.5-22.5t22.5-9.5h288v-85h-288q-13 0-22.5-9t-9.5-23v-104q0-13 9.5-22.5t22.5-9.5h214l-321-578q-8-16 0-32 10-16 28-16h194q19 0 29 18l215 425q19 38 56 125 10-24 30.5-68t27.5-61l191-420q8-19 29-19h191q17 0 27 16 9 14 1 31l-313 579h215q13 0 22.5 9.5t9.5 22.5v104q0 14-9.5 23t-22.5 9h-290v85h290q13 0 22.5 9.5t9.5 22.5v103q0 14-9.5 23t-22.5 9h-290v330q0 13-9.5 22.5t-22.5 9.5z"/>
	
	<metadata>
		<rdf:RDF xmlns:rdf="http://www.w3.org/1999/02/22-rdf-syntax-ns#" xmlns:rdfs="http://www.w3.org/2000/01/rdf-schema#" xmlns:dc="http://purl.org/dc/elements/1.1/">
			<rdf:Description about="https://iconscout.com/legal#licenses" dc:title="Currency, Yen, Income, Finance, Earn" dc:description="Currency, Yen, Income, Finance, Earn" dc:publisher="Iconscout" dc:date="2016-12-14" dc:format="image/svg+xml" dc:language="en">
				<dc:creator>
					<rdf:Bag>
						<rdf:li>Font Awesome</rdf:li>
					</rdf:Bag>
				</dc:creator>
			</rdf:Description>
		</rdf:RDF>
    </metadata></svg>
