<?xml version="1.0" encoding="UTF-8" standalone="no"?>
<svg xmlns="http://www.w3.org/2000/svg" width="1792" height="1792" viewBox="0 0 1792 1792"><path d="M832 64v640q0 61-35.5 111t-92.5 70v779q0 52-38 90t-90 38h-128q-52 0-90-38t-38-90v-779q-57-20-92.5-70t-35.5-111v-640q0-26 19-45t45-19 45 19 19 45v416q0 26 19 45t45 19 45-19 19-45v-416q0-26 19-45t45-19 45 19 19 45v416q0 26 19 45t45 19 45-19 19-45v-416q0-26 19-45t45-19 45 19 19 45zm768 0v1600q0 52-38 90t-90 38h-128q-52 0-90-38t-38-90v-512h-224q-13 0-22.5-9.5t-9.5-22.5v-800q0-132 94-226t226-94h256q26 0 45 19t19 45z"/>
	
	<metadata>
		<rdf:RDF xmlns:rdf="http://www.w3.org/1999/02/22-rdf-syntax-ns#" xmlns:rdfs="http://www.w3.org/2000/01/rdf-schema#" xmlns:dc="http://purl.org/dc/elements/1.1/">
			<rdf:Description about="https://iconscout.com/legal#licenses" dc:title="Cutlery, Tool, Knive, Fork, Spoon, Utensil" dc:description="Cutlery, Tool, Knive, Fork, Spoon, Utensil" dc:publisher="Iconscout" dc:date="2016-12-14" dc:format="image/svg+xml" dc:language="en">
				<dc:creator>
					<rdf:Bag>
						<rdf:li>Font Awesome</rdf:li>
					</rdf:Bag>
				</dc:creator>
			</rdf:Description>
		</rdf:RDF>
    </metadata></svg>
