<?xml version="1.0" encoding="UTF-8" standalone="no"?>
<svg xmlns="http://www.w3.org/2000/svg" width="1792" height="1792" viewBox="0 0 1792 1792"><path d="M384 1152q0-53-37.5-90.5t-90.5-37.5-90.5 37.5-37.5 90.5 37.5 90.5 90.5 37.5 90.5-37.5 37.5-90.5zm192-448q0-53-37.5-90.5t-90.5-37.5-90.5 37.5-37.5 90.5 37.5 90.5 90.5 37.5 90.5-37.5 37.5-90.5zm428 481l101-382q6-26-7.5-48.5t-38.5-29.5-48 6.5-30 39.5l-101 382q-60 5-107 43.5t-63 98.5q-20 77 20 146t117 89 146-20 89-117q16-60-6-117t-72-91zm660-33q0-53-37.5-90.5t-90.5-37.5-90.5 37.5-37.5 90.5 37.5 90.5 90.5 37.5 90.5-37.5 37.5-90.5zm-640-640q0-53-37.5-90.5t-90.5-37.5-90.5 37.5-37.5 90.5 37.5 90.5 90.5 37.5 90.5-37.5 37.5-90.5zm448 192q0-53-37.5-90.5t-90.5-37.5-90.5 37.5-37.5 90.5 37.5 90.5 90.5 37.5 90.5-37.5 37.5-90.5zm320 448q0 261-141 483-19 29-54 29h-1402q-35 0-54-29-141-221-141-483 0-182 71-348t191-286 286-191 348-71 348 71 286 191 191 286 71 348z"/>
	
	<metadata>
		<rdf:RDF xmlns:rdf="http://www.w3.org/1999/02/22-rdf-syntax-ns#" xmlns:rdfs="http://www.w3.org/2000/01/rdf-schema#" xmlns:dc="http://purl.org/dc/elements/1.1/">
			<rdf:Description about="https://iconscout.com/legal#licenses" dc:title="Dashboard, Measure, Progress, Report, Key, Performance, Indicators" dc:description="Dashboard, Measure, Progress, Report, Key, Performance, Indicators" dc:publisher="Iconscout" dc:date="2016-12-14" dc:format="image/svg+xml" dc:language="en">
				<dc:creator>
					<rdf:Bag>
						<rdf:li>Font Awesome</rdf:li>
					</rdf:Bag>
				</dc:creator>
			</rdf:Description>
		</rdf:RDF>
    </metadata></svg>
