<?xml version="1.0" encoding="UTF-8" standalone="no"?>
<svg xmlns:dc="http://purl.org/dc/elements/1.1/" xmlns:cc="http://creativecommons.org/ns#" xmlns:rdf="http://www.w3.org/1999/02/22-rdf-syntax-ns#" xmlns:svg="http://www.w3.org/2000/svg" xmlns="http://www.w3.org/2000/svg" xmlns:sodipodi="http://sodipodi.sourceforge.net/DTD/sodipodi-0.dtd" xmlns:inkscape="http://www.inkscape.org/namespaces/inkscape" width="1792" height="1792" viewBox="0 0 1792 1792" version="1.1" inkscape:version="0.91 r13725" sodipodi:docname="diamond gems crystal jewellery cubic.svg">
  
  <defs/>
  <sodipodi:namedview pagecolor="#ffffff" bordercolor="#666666" borderopacity="1" objecttolerance="10" gridtolerance="10" guidetolerance="10" inkscape:pageopacity="0" inkscape:pageshadow="2" inkscape:window-width="1366" inkscape:window-height="705" showgrid="true" inkscape:snap-bbox="true" inkscape:bbox-nodes="true" inkscape:bbox-paths="true" inkscape:snap-bbox-edge-midpoints="true" inkscape:snap-bbox-midpoints="true" inkscape:zoom="0.18624688" inkscape:cx="1862.4204" inkscape:cy="738.36097" inkscape:window-x="-8" inkscape:window-y="-8" inkscape:window-maximized="1" inkscape:current-layer="svg2">
    <inkscape:grid type="xygrid"/>
  </sodipodi:namedview>
  <path d="m 185.54626,736.05833 545.08951,581.83707 -262.48291,-581.83707 -282.6066,0 z M 896,1411.5144 l 305.3552,-675.45606 -610.71032,0 z M 470.77769,624.06562 649.26607,288.08749 l -229.23508,0 -251.98359,335.97814 302.73029,0 z m 590.58651,693.82978 545.0896,-581.83707 -282.6066,0 z m -463.71977,-693.82978 596.71117,0 -178.4884,-335.97813 -239.73439,0 z m 723.57787,0 302.7303,0 -251.9836,-335.97813 -229.235,0 z m 123.367,-425.22232 335.9781,447.97084 q 12.2492,15.74897 11.3743,36.31014 -0.8749,20.56116 -14.874,35.43519 L 937.12233,1614.5011 Q 921.37335,1632 896,1632 q -25.37334,0 -41.12232,-17.4989 L 14.932359,718.55947 Q 0.93327916,703.68544 0.05832916,683.12428 -0.81661084,662.56311 11.432589,646.81414 L 347.41072,198.8433 q 15.74897,-22.74851 44.62209,-22.74851 l 1007.93439,0 q 28.8731,0 44.6221,22.74851 z" inkscape:connector-curvature="0"/>

	
	<metadata>
		<rdf:RDF xmlns:rdf="http://www.w3.org/1999/02/22-rdf-syntax-ns#" xmlns:rdfs="http://www.w3.org/2000/01/rdf-schema#" xmlns:dc="http://purl.org/dc/elements/1.1/">
			<rdf:Description about="https://iconscout.com/legal#licenses" dc:title="Diamond, Gems, Crystal, Jewellery, Cubic" dc:description="Diamond, Gems, Crystal, Jewellery, Cubic" dc:publisher="Iconscout" dc:date="2016-12-14" dc:format="image/svg+xml" dc:language="en">
				<dc:creator>
					<rdf:Bag>
						<rdf:li>Font Awesome</rdf:li>
					</rdf:Bag>
				</dc:creator>
			</rdf:Description>
		</rdf:RDF>
    </metadata></svg>
