<?xml version="1.0" encoding="UTF-8" standalone="no"?>
<svg xmlns:dc="http://purl.org/dc/elements/1.1/" xmlns:cc="http://creativecommons.org/ns#" xmlns:rdf="http://www.w3.org/1999/02/22-rdf-syntax-ns#" xmlns:svg="http://www.w3.org/2000/svg" xmlns="http://www.w3.org/2000/svg" xmlns:sodipodi="http://sodipodi.sourceforge.net/DTD/sodipodi-0.dtd" xmlns:inkscape="http://www.inkscape.org/namespaces/inkscape" width="1792" height="1792" viewBox="0 0 1792 1792" version="1.1" inkscape:version="0.91 r13725" sodipodi:docname="cc-diners-club.svg">
  
  <defs/>
  <sodipodi:namedview pagecolor="#ffffff" bordercolor="#666666" borderopacity="1" objecttolerance="10" gridtolerance="10" guidetolerance="10" inkscape:pageopacity="0" inkscape:pageshadow="2" inkscape:window-width="1366" inkscape:window-height="705" showgrid="true" inkscape:snap-bbox="true" inkscape:bbox-paths="true" inkscape:bbox-nodes="true" inkscape:snap-bbox-edge-midpoints="true" inkscape:zoom="0.13169643" inkscape:cx="-41.762712" inkscape:cy="896" inkscape:window-x="-8" inkscape:window-y="-8" inkscape:window-maximized="1" inkscape:current-layer="svg2">
    <inkscape:grid type="xygrid"/>
  </sodipodi:namedview>
  <path d="m 667.33333,1143 0,-538.99996 q -82.44444,31.88888 -133.77777,105.38888 -51.33334,73.5 -51.33334,164.50001 0,91 51.33334,164.49997 51.33333,73.5 133.77777,104.6111 z M 1059.3333,873.88893 q 0,-91.00001 -51.3333,-164.50001 -51.33333,-73.5 -133.77778,-105.38888 l 0,539.77776 Q 956.66667,1111.8889 1008,1038.3889 q 51.3333,-73.49997 51.3333,-164.49997 z m 167.2223,0 q 0,123.66667 -61.0556,228.66667 -61.0556,105 -166.05556,166.0555 -105,61.0556 -228.66666,61.0556 -92.55556,0 -176.94445,-36.1667 -84.38889,-36.1667 -145.44444,-97.2222 -61.05556,-61.0556 -97.22222,-145.4445 Q 315,966.44444 315,873.88893 q 0,-123.66668 61.05556,-228.66668 61.05555,-105 166.05555,-166.05555 105,-61.05556 228.66667,-61.05556 123.66666,0 228.66666,61.05556 104.99996,61.05555 166.05556,166.05555 61.0556,105 61.0556,228.66668 z m 297.8888,5.44441 q 0,-108.11108 -43.1666,-203.38886 Q 1438.1111,580.6667 1366.5556,516.11115 1295,451.5556 1200.5,414.22226 1106,376.88892 1004.1111,376.88892 l -234.1111,0 q -136.88889,0 -251.61111,63 -114.72222,63 -182.77778,178.88889 -68.05555,115.88889 -68.05555,260.55552 0,132.99997 67.66666,246.94447 67.66667,113.9444 183.55556,180.0555 115.88889,66.1111 251.22222,66.1111 l 234.1111,0 q 100.3333,0 195.6111,-39.2777 95.2778,-39.2778 166.8334,-105 71.5555,-65.7223 114.7222,-157.5 43.1666,-91.7778 43.1666,-191.33337 z M 1792,376.88892 l 0,995.55548 q 0,40.4445 -29.5556,70 -29.5555,29.5556 -70,29.5556 l -1592.88884,0 q -40.44445,0 -70,-29.5556 Q 0,1412.8889 0,1372.4444 L 0,376.88893 q 0,-40.44445 29.55556,-70 29.55555,-29.55556 70,-29.55556 l 1592.88884,0 q 40.4445,0 70,29.55556 29.5556,29.55555 29.5556,70 z" inkscape:connector-curvature="0"/>

	
	<metadata>
		<rdf:RDF xmlns:rdf="http://www.w3.org/1999/02/22-rdf-syntax-ns#" xmlns:rdfs="http://www.w3.org/2000/01/rdf-schema#" xmlns:dc="http://purl.org/dc/elements/1.1/">
			<rdf:Description about="https://iconscout.com/legal#licenses" dc:title="Diners, Club, Credit, Debit, Card, Bank, Transaction" dc:description="Diners, Club, Credit, Debit, Card, Bank, Transaction" dc:publisher="Iconscout" dc:date="2016-12-14" dc:format="image/svg+xml" dc:language="en">
				<dc:creator>
					<rdf:Bag>
						<rdf:li>Font Awesome</rdf:li>
					</rdf:Bag>
				</dc:creator>
			</rdf:Description>
		</rdf:RDF>
    </metadata></svg>
