<?xml version="1.0" encoding="UTF-8" standalone="no"?>
<svg xmlns:dc="http://purl.org/dc/elements/1.1/" xmlns:cc="http://creativecommons.org/ns#" xmlns:rdf="http://www.w3.org/1999/02/22-rdf-syntax-ns#" xmlns:svg="http://www.w3.org/2000/svg" xmlns="http://www.w3.org/2000/svg" xmlns:sodipodi="http://sodipodi.sourceforge.net/DTD/sodipodi-0.dtd" xmlns:inkscape="http://www.inkscape.org/namespaces/inkscape" width="1792" height="1792" viewBox="0 0 1792 1792" version="1.1" inkscape:version="0.91 r13725" sodipodi:docname="cc-discover.svg">
  
  <defs/>
  <sodipodi:namedview pagecolor="#ffffff" bordercolor="#666666" borderopacity="1" objecttolerance="10" gridtolerance="10" guidetolerance="10" inkscape:pageopacity="0" inkscape:pageshadow="2" inkscape:window-width="1366" inkscape:window-height="705" showgrid="true" inkscape:snap-bbox="true" inkscape:bbox-paths="true" inkscape:bbox-nodes="true" inkscape:snap-bbox-edge-midpoints="true" inkscape:snap-bbox-midpoints="true" inkscape:zoom="0.13169643" inkscape:cx="554.70391" inkscape:cy="-385.75232" inkscape:window-x="-8" inkscape:window-y="-8" inkscape:window-maximized="1" inkscape:current-layer="svg2">
    <inkscape:grid type="xygrid"/>
  </sodipodi:namedview>
  <path d="m 243.44444,792.11115 q 0,39.66669 -28,65.33329 -22.55555,20.2223 -69.22222,20.2223 l -13.22222,0 0,-171.11114 13.22222,0 q 47.44445,0 69.22222,21 28,24.11111 28,64.55555 z M 1624.7778,741.5556 q 0,40.44444 -49.7778,40.44444 l -14.7778,0 0,-78.55556 15.5556,0 q 49,0 49,38.11112 z M 295.55556,792.11115 q 0,-57.55555 -38.88889,-93.72222 -38.88889,-36.16667 -100.33334,-36.16667 l -73.88889,0 0,258.99997 73.88889,0 q 57.55556,0 92.55556,-29.55549 46.66667,-39.6667 46.66667,-99.55559 z m 23.33333,129.11109 50.55555,0 0,-258.99998 -50.55555,0 0,258.99998 z m 248.88889,-78.5555 q 0,-31.11114 -15.94445,-48.22226 -15.94444,-17.11111 -58.72222,-32.66666 -22.55555,-7.77778 -30.72222,-14.77778 -8.16667,-7 -8.16667,-17.88889 0,-12.44444 10.5,-20.61111 10.5,-8.16667 26.83334,-8.16667 22.55555,0 41.22222,21 l 26.44444,-34.22222 Q 527.33333,658.33337 483,658.33337 q -34.22222,0 -57.55556,21.38889 -23.33333,21.38888 -23.33333,52.5 0,27.22222 14,43.16666 14,15.94444 49.77778,28.38889 28.77778,10.11111 35,14.77782 14.77778,9.3333 14.77778,26.44441 0,15.55559 -10.88889,26.05559 -10.88889,10.5 -28,10.5 -37.33334,0 -55.22222,-34.22229 l -32.66667,31.1111 q 34.22222,49.7778 89.44444,49.7778 39.66667,0 64.55556,-23.7222 24.88889,-23.7222 24.88889,-61.8333 z m 216.22222,70 0,-59.8889 q -28.77778,28.7778 -60.66667,28.7778 -38.11111,0 -62.61111,-25.2778 -24.5,-25.2778 -24.5,-64.16669 0,-37.33333 24.5,-63.38889 24.5,-26.05555 60.27778,-26.05555 33.44444,0 63,29.55555 l 0,-59.88889 q -31.11111,-15.55555 -62.22222,-15.55555 -57.55556,0 -97.61111,39.27778 -40.05556,39.27777 -40.05556,96.05555 0,56.77779 39.66667,96.05559 39.66666,39.2777 97.22222,39.2777 32.66667,0 63,-14.7777 z m 958.2222,469.77766 0,-409.88876 q -50.5555,31.11106 -112.3889,65.33326 -61.8333,34.2222 -184.7222,91 -122.8889,56.7778 -256.2778,106.9444 -133.3889,50.1667 -324.72219,104.6111 -191.33333,54.4445 -392,91.7778 l 1220.33329,0 q 20.2223,0 35,-14.7778 14.7778,-14.7777 14.7778,-35 z M 1080.3333,793.6667 q 0,-58.33334 -41.2222,-99.55556 -41.22221,-41.22222 -99.55554,-41.22222 -58.33334,0 -99.55556,41.22222 -41.22222,41.22222 -41.22222,99.55556 0,58.33334 41.22222,99.55553 41.22222,41.2222 99.55556,41.2222 58.33333,0 99.55554,-41.2222 41.2222,-41.22219 41.2222,-99.55553 z m 118.2223,134.55553 112,-265.99998 -55.2223,0 -70,174.22218 -69.2222,-174.22218 -55.2222,0 110.4444,265.99998 27.2223,0 z m 134.5555,-7 143.1111,0 0,-43.55549 -92.5555,0 0,-70.00004 89.4444,0 0,-43.55556 -89.4444,0 0,-57.55555 92.5555,0 0,-44.33334 -143.1111,0 0,258.99998 z m 304.1111,0 62.2222,0 -81.6666,-108.88887 q 59.1111,-12.44444 59.1111,-73.11111 0,-36.55555 -24.1111,-56.77778 -24.1111,-20.22222 -67.6667,-20.22222 l -75.4444,0 0,258.99998 50.5555,0 0,-103.44442 7,0 z M 1792,391.5556 l 0,986.2222 q 0,43.5555 -29.9444,73.8889 Q 1732.1111,1482 1689.3333,1482 l -1586.66663,0 Q 59.88889,1482 29.94444,1451.6667 0,1421.3333 0,1377.7778 L 0,391.5556 q 0,-43.55556 29.94444,-73.88889 29.94445,-30.33334 72.72223,-30.33334 l 1586.66663,0 q 42.7778,0 72.7223,30.33334 Q 1792,348.00004 1792,391.5556 Z" inkscape:connector-curvature="0"/>

	
	<metadata>
		<rdf:RDF xmlns:rdf="http://www.w3.org/1999/02/22-rdf-syntax-ns#" xmlns:rdfs="http://www.w3.org/2000/01/rdf-schema#" xmlns:dc="http://purl.org/dc/elements/1.1/">
			<rdf:Description about="https://iconscout.com/legal#licenses" dc:title="Discover, Diners, Club, Credit, Card, Bank, Transaction" dc:description="Discover, Diners, Club, Credit, Card, Bank, Transaction" dc:publisher="Iconscout" dc:date="2016-12-14" dc:format="image/svg+xml" dc:language="en">
				<dc:creator>
					<rdf:Bag>
						<rdf:li>Font Awesome</rdf:li>
					</rdf:Bag>
				</dc:creator>
			</rdf:Description>
		</rdf:RDF>
    </metadata></svg>
