<?xml version="1.0" encoding="UTF-8" standalone="no"?>
<svg xmlns="http://www.w3.org/2000/svg" width="1792" height="1792" viewBox="0 0 1792 1792"><path d="M402 707l494 305-342 285-490-319zm986 555v108l-490 293v1l-1-1-1 1v-1l-489-293v-108l147 96 342-284v-2l1 1 1-1v2l343 284zm-834-1144l342 285-494 304-338-270zm836 589l338 271-489 319-343-285zm-151-589l489 319-338 270-494-304z"/>
	
	<metadata>
		<rdf:RDF xmlns:rdf="http://www.w3.org/1999/02/22-rdf-syntax-ns#" xmlns:rdfs="http://www.w3.org/2000/01/rdf-schema#" xmlns:dc="http://purl.org/dc/elements/1.1/">
			<rdf:Description about="https://iconscout.com/legal#licenses" dc:title="Dropbox, File, Hosting, Service, Logo" dc:description="Dropbox, File, Hosting, Service, Logo" dc:publisher="Iconscout" dc:date="2016-12-14" dc:format="image/svg+xml" dc:language="en">
				<dc:creator>
					<rdf:Bag>
						<rdf:li>Font Awesome</rdf:li>
					</rdf:Bag>
				</dc:creator>
			</rdf:Description>
		</rdf:RDF>
    </metadata></svg>
