<?xml version="1.0" encoding="UTF-8" standalone="no"?>
<svg xmlns="http://www.w3.org/2000/svg" width="1792" height="1792" viewBox="0 0 1792 1792"><path d="M45 1651q-19 19-32 13t-13-32v-1472q0-26 13-32t32 13l710 710q8 8 13 19v-710q0-26 13-32t32 13l710 710q8 8 13 19v-678q0-26 19-45t45-19h128q26 0 45 19t19 45v1408q0 26-19 45t-45 19h-128q-26 0-45-19t-19-45v-678q-5 10-13 19l-710 710q-19 19-32 13t-13-32v-710q-5 10-13 19z"/>
	
	<metadata>
		<rdf:RDF xmlns:rdf="http://www.w3.org/1999/02/22-rdf-syntax-ns#" xmlns:rdfs="http://www.w3.org/2000/01/rdf-schema#" xmlns:dc="http://purl.org/dc/elements/1.1/">
			<rdf:Description about="https://iconscout.com/legal#licenses" dc:title="Fast, Forward, Front, Music, Player" dc:description="Fast, Forward, Front, Music, Player" dc:publisher="Iconscout" dc:date="2016-12-14" dc:format="image/svg+xml" dc:language="en">
				<dc:creator>
					<rdf:Bag>
						<rdf:li>Font Awesome</rdf:li>
					</rdf:Bag>
				</dc:creator>
			</rdf:Description>
		</rdf:RDF>
    </metadata></svg>
