<?xml version="1.0" encoding="UTF-8" standalone="no"?>
<svg xmlns="http://www.w3.org/2000/svg" width="1792" height="1792" viewBox="0 0 1792 1792"><path d="M1747 141q19-19 32-13t13 32v1472q0 26-13 32t-32-13l-710-710q-9-9-13-19v710q0 26-13 32t-32-13l-710-710q-9-9-13-19v678q0 26-19 45t-45 19h-128q-26 0-45-19t-19-45v-1408q0-26 19-45t45-19h128q26 0 45 19t19 45v678q4-11 13-19l710-710q19-19 32-13t13 32v710q4-11 13-19z"/>
	
	<metadata>
		<rdf:RDF xmlns:rdf="http://www.w3.org/1999/02/22-rdf-syntax-ns#" xmlns:rdfs="http://www.w3.org/2000/01/rdf-schema#" xmlns:dc="http://purl.org/dc/elements/1.1/">
			<rdf:Description about="https://iconscout.com/legal#licenses" dc:title="Fast, Backward, Reverse, Back, Music, Player" dc:description="Fast, Backward, Reverse, Back, Music, Player" dc:publisher="Iconscout" dc:date="2016-12-14" dc:format="image/svg+xml" dc:language="en">
				<dc:creator>
					<rdf:Bag>
						<rdf:li>Font Awesome</rdf:li>
					</rdf:Bag>
				</dc:creator>
			</rdf:Description>
		</rdf:RDF>
    </metadata></svg>
