<?xml version="1.0" encoding="UTF-8" standalone="no"?>
<svg xmlns="http://www.w3.org/2000/svg" width="1792" height="1792" viewBox="0 0 1792 1792"><path d="M288 384q66 0 113 47t47 113v1088q0 66-47 113t-113 47h-128q-66 0-113-47t-47-113v-1088q0-66 47-113t113-47h128zm1376 163q58 34 93 93t35 128v768q0 106-75 181t-181 75h-864q-66 0-113-47t-47-113v-1536q0-40 28-68t68-28h672q40 0 88 20t76 48l152 152q28 28 48 76t20 88v163zm-736 989v-128q0-14-9-23t-23-9h-128q-14 0-23 9t-9 23v128q0 14 9 23t23 9h128q14 0 23-9t9-23zm0-256v-128q0-14-9-23t-23-9h-128q-14 0-23 9t-9 23v128q0 14 9 23t23 9h128q14 0 23-9t9-23zm0-256v-128q0-14-9-23t-23-9h-128q-14 0-23 9t-9 23v128q0 14 9 23t23 9h128q14 0 23-9t9-23zm256 512v-128q0-14-9-23t-23-9h-128q-14 0-23 9t-9 23v128q0 14 9 23t23 9h128q14 0 23-9t9-23zm0-256v-128q0-14-9-23t-23-9h-128q-14 0-23 9t-9 23v128q0 14 9 23t23 9h128q14 0 23-9t9-23zm0-256v-128q0-14-9-23t-23-9h-128q-14 0-23 9t-9 23v128q0 14 9 23t23 9h128q14 0 23-9t9-23zm256 512v-128q0-14-9-23t-23-9h-128q-14 0-23 9t-9 23v128q0 14 9 23t23 9h128q14 0 23-9t9-23zm0-256v-128q0-14-9-23t-23-9h-128q-14 0-23 9t-9 23v128q0 14 9 23t23 9h128q14 0 23-9t9-23zm0-256v-128q0-14-9-23t-23-9h-128q-14 0-23 9t-9 23v128q0 14 9 23t23 9h128q14 0 23-9t9-23zm96-384v-256h-160q-40 0-68-28t-28-68v-160h-640v512h896z"/>
	
	<metadata>
		<rdf:RDF xmlns:rdf="http://www.w3.org/1999/02/22-rdf-syntax-ns#" xmlns:rdfs="http://www.w3.org/2000/01/rdf-schema#" xmlns:dc="http://purl.org/dc/elements/1.1/">
			<rdf:Description about="https://iconscout.com/legal#licenses" dc:title="Fax, Device, Machine, Paper, Call" dc:description="Fax, Device, Machine, Paper, Call" dc:publisher="Iconscout" dc:date="2016-12-14" dc:format="image/svg+xml" dc:language="en">
				<dc:creator>
					<rdf:Bag>
						<rdf:li>Font Awesome</rdf:li>
					</rdf:Bag>
				</dc:creator>
			</rdf:Description>
		</rdf:RDF>
    </metadata></svg>
