<?xml version="1.0" encoding="UTF-8" standalone="no"?>
<svg xmlns="http://www.w3.org/2000/svg" width="1792" height="1792" viewBox="0 0 1792 1792"><path d="M1536 1056q0 40-28 68t-68 28q-51 0-80-43l-227-341h-45v132l247 411q9 15 9 33 0 26-19 45t-45 19h-192v272q0 46-33 79t-79 33h-160q-46 0-79-33t-33-79v-272h-192q-26 0-45-19t-19-45q0-18 9-33l247-411v-132h-45l-227 341q-29 43-80 43-40 0-68-28t-28-68q0-29 16-53l256-384q73-107 176-107h384q103 0 176 107l256 384q16 24 16 53zm-416-800q0 93-65.5 158.5t-158.5 65.5-158.5-65.5-65.5-158.5 65.5-158.5 158.5-65.5 158.5 65.5 65.5 158.5z"/>
	
	<metadata>
		<rdf:RDF xmlns:rdf="http://www.w3.org/1999/02/22-rdf-syntax-ns#" xmlns:rdfs="http://www.w3.org/2000/01/rdf-schema#" xmlns:dc="http://purl.org/dc/elements/1.1/">
			<rdf:Description about="https://iconscout.com/legal#licenses" dc:title="Female, People, Person, Girl, Woman" dc:description="Female, People, Person, Girl, Woman" dc:publisher="Iconscout" dc:date="2016-12-14" dc:format="image/svg+xml" dc:language="en">
				<dc:creator>
					<rdf:Bag>
						<rdf:li>Font Awesome</rdf:li>
					</rdf:Bag>
				</dc:creator>
			</rdf:Description>
		</rdf:RDF>
    </metadata></svg>
