<?xml version="1.0" encoding="UTF-8" standalone="no"?>
<svg xmlns="http://www.w3.org/2000/svg" width="1792" height="1792" viewBox="0 0 1792 1792"><path d="M1856 960q-1 32-288 96l-352 32-224 64h-64l-293 352h69q26 0 45 4.5t19 11.5-19 11.5-45 4.5h-320v-32h64v-416h-160l-192 224h-96l-32-32v-192h32v-32h128v-8l-192-24v-128l192-24v-8h-128v-32h-32v-192l32-32h96l192 224h160v-416h-64v-32h320q26 0 45 4.5t19 11.5-19 11.5-45 4.5h-69l293 352h64l224 64 352 32q261 58 287 93z"/>
	
	<metadata>
		<rdf:RDF xmlns:rdf="http://www.w3.org/1999/02/22-rdf-syntax-ns#" xmlns:rdfs="http://www.w3.org/2000/01/rdf-schema#" xmlns:dc="http://purl.org/dc/elements/1.1/">
			<rdf:Description about="https://iconscout.com/legal#licenses" dc:title="Fighter, Jet, Attack, Airforce, Planeattack" dc:description="Fighter, Jet, Attack, Airforce, Planeattack" dc:publisher="Iconscout" dc:date="2016-12-14" dc:format="image/svg+xml" dc:language="en">
				<dc:creator>
					<rdf:Bag>
						<rdf:li>Font Awesome</rdf:li>
					</rdf:Bag>
				</dc:creator>
			</rdf:Description>
		</rdf:RDF>
    </metadata></svg>
