<?xml version="1.0" encoding="UTF-8" standalone="no"?>
<svg xmlns="http://www.w3.org/2000/svg" width="1792" height="1792" viewBox="0 0 1792 1792"><path d="M1600 1696v64q0 13-9.5 22.5t-22.5 9.5h-1344q-13 0-22.5-9.5t-9.5-22.5v-64q0-13 9.5-22.5t22.5-9.5h1344q13 0 22.5 9.5t9.5 22.5zm-256-1056q0 78-24.5 144t-64 112.5-87.5 88-96 77.5-87.5 72-64 81.5-24.5 96.5q0 96 67 224l-4-1 1 1q-90-41-160-83t-138.5-100-113.5-122.5-72.5-150.5-27.5-184q0-78 24.5-144t64-112.5 87.5-88 96-77.5 87.5-72 64-81.5 24.5-96.5q0-94-66-224l3 1-1-1q90 41 160 83t138.5 100 113.5 122.5 72.5 150.5 27.5 184z"/>
	
	<metadata>
		<rdf:RDF xmlns:rdf="http://www.w3.org/1999/02/22-rdf-syntax-ns#" xmlns:rdfs="http://www.w3.org/2000/01/rdf-schema#" xmlns:dc="http://purl.org/dc/elements/1.1/">
			<rdf:Description about="https://iconscout.com/legal#licenses" dc:title="Fire, Heat, Science, Flame, Light" dc:description="Fire, Heat, Science, Flame, Light" dc:publisher="Iconscout" dc:date="2016-12-14" dc:format="image/svg+xml" dc:language="en">
				<dc:creator>
					<rdf:Bag>
						<rdf:li>Font Awesome</rdf:li>
					</rdf:Bag>
				</dc:creator>
			</rdf:Description>
		</rdf:RDF>
    </metadata></svg>
