<?xml version="1.0" encoding="UTF-8" standalone="no"?>
<svg xmlns="http://www.w3.org/2000/svg" width="1792" height="1792" viewBox="0 0 1792 1792"><path d="M512 1536h768v-384h-768v384zm896 0h128v-896q0-14-10-38.5t-20-34.5l-281-281q-10-10-34-20t-39-10v416q0 40-28 68t-68 28h-576q-40 0-68-28t-28-68v-416h-128v1280h128v-416q0-40 28-68t68-28h832q40 0 68 28t28 68v416zm-384-928v-320q0-13-9.5-22.5t-22.5-9.5h-192q-13 0-22.5 9.5t-9.5 22.5v320q0 13 9.5 22.5t22.5 9.5h192q13 0 22.5-9.5t9.5-22.5zm640 32v928q0 40-28 68t-68 28h-1344q-40 0-68-28t-28-68v-1344q0-40 28-68t68-28h928q40 0 88 20t76 48l280 280q28 28 48 76t20 88z"/>
	
	<metadata>
		<rdf:RDF xmlns:rdf="http://www.w3.org/1999/02/22-rdf-syntax-ns#" xmlns:rdfs="http://www.w3.org/2000/01/rdf-schema#" xmlns:dc="http://purl.org/dc/elements/1.1/">
			<rdf:Description about="https://iconscout.com/legal#licenses" dc:title="Floppy, Disk, Harware, Save, File, Data" dc:description="Floppy, Disk, Harware, Save, File, Data" dc:publisher="Iconscout" dc:date="2016-12-14" dc:format="image/svg+xml" dc:language="en">
				<dc:creator>
					<rdf:Bag>
						<rdf:li>Font Awesome</rdf:li>
					</rdf:Bag>
				</dc:creator>
			</rdf:Description>
		</rdf:RDF>
    </metadata></svg>
