<?xml version="1.0" encoding="UTF-8" standalone="no"?>
<svg xmlns="http://www.w3.org/2000/svg" width="1792" height="1792" viewBox="0 0 1792 1792"><path d="M1600 1312v-704q0-40-28-68t-68-28h-704q-40 0-68-28t-28-68v-64q0-40-28-68t-68-28h-320q-40 0-68 28t-28 68v960q0 40 28 68t68 28h1216q40 0 68-28t28-68zm128-704v704q0 92-66 158t-158 66h-1216q-92 0-158-66t-66-158v-960q0-92 66-158t158-66h320q92 0 158 66t66 158v32h672q92 0 158 66t66 158z"/>
	
	<metadata>
		<rdf:RDF xmlns:rdf="http://www.w3.org/1999/02/22-rdf-syntax-ns#" xmlns:rdfs="http://www.w3.org/2000/01/rdf-schema#" xmlns:dc="http://purl.org/dc/elements/1.1/">
			<rdf:Description about="https://iconscout.com/legal#licenses" dc:title="Folder, Data, File, Collection, Document, Important" dc:description="Folder, Data, File, Collection, Document, Important" dc:publisher="Iconscout" dc:date="2016-12-14" dc:format="image/svg+xml" dc:language="en">
				<dc:creator>
					<rdf:Bag>
						<rdf:li>Font Awesome</rdf:li>
					</rdf:Bag>
				</dc:creator>
			</rdf:Description>
		</rdf:RDF>
    </metadata></svg>
