<?xml version="1.0" encoding="UTF-8" standalone="no"?>
<svg xmlns:dc="http://purl.org/dc/elements/1.1/" xmlns:cc="http://creativecommons.org/ns#" xmlns:rdf="http://www.w3.org/1999/02/22-rdf-syntax-ns#" xmlns:svg="http://www.w3.org/2000/svg" xmlns="http://www.w3.org/2000/svg" xmlns:sodipodi="http://sodipodi.sourceforge.net/DTD/sodipodi-0.dtd" xmlns:inkscape="http://www.inkscape.org/namespaces/inkscape" width="1792" height="1792" viewBox="0 0 1792 1792" version="1.1" inkscape:version="0.91 r13725" sodipodi:docname="folder open data file collection document important.svg">
  
  <defs/>
  <sodipodi:namedview pagecolor="#ffffff" bordercolor="#666666" borderopacity="1" objecttolerance="10" gridtolerance="10" guidetolerance="10" inkscape:pageopacity="0" inkscape:pageshadow="2" inkscape:window-width="1366" inkscape:window-height="705" showgrid="true" inkscape:snap-bbox="true" inkscape:bbox-nodes="true" inkscape:bbox-paths="true" inkscape:snap-bbox-edge-midpoints="true" inkscape:snap-bbox-midpoints="true" inkscape:zoom="0.18624688" inkscape:cx="-53.451804" inkscape:cy="393.01627" inkscape:window-x="-8" inkscape:window-y="-8" inkscape:window-maximized="1" inkscape:current-layer="svg2">
    <inkscape:grid type="xygrid"/>
  </sodipodi:namedview>
  <path d="m 1792,1015.04 q 0,29.5646 -29.5647,62.944 l -320.4428,377.6647 q -41.009,48.6387 -114.9207,82.495 Q 1253.1602,1572 1190.2161,1572 l -1037.6243,0 q -32.42575,0 -57.698772,-12.3981 -25.273017,-12.3981 -25.273017,-41.009 0,-29.5647 29.564662,-62.9442 L 419.62746,1077.984 q 41.00905,-48.6386 114.9207,-82.49487 73.91166,-33.85631 136.85578,-33.85631 l 1037.62426,0 q 32.4258,0 57.6988,12.39809 Q 1792,986.42899 1792,1015.04 Z m -327.1187,-328.07242 0,152.5918 -793.47736,0 q -89.64769,0 -187.87866,45.30069 -98.23097,45.30069 -156.4066,113.96701 L 5.722193,1376.4918 l -4.768494,5.7221 q 0,-3.8148 -0.47685,-11.9212 Q 0,1362.1863 0,1358.3715 L 0,442.82069 Q 0,355.0804 62.944119,292.13628 125.88824,229.19216 213.62853,229.19216 l 305.1836,0 q 87.74029,0 150.68441,62.94412 62.94412,62.94412 62.94412,150.68441 l 0,30.51836 518.81214,0 q 87.7403,0 150.6844,62.94412 62.9441,62.94412 62.9441,150.68441 z" inkscape:connector-curvature="0"/>

	
	<metadata>
		<rdf:RDF xmlns:rdf="http://www.w3.org/1999/02/22-rdf-syntax-ns#" xmlns:rdfs="http://www.w3.org/2000/01/rdf-schema#" xmlns:dc="http://purl.org/dc/elements/1.1/">
			<rdf:Description about="https://iconscout.com/legal#licenses" dc:title="Folder, Open, Data, File, Collection, Document, Important" dc:description="Folder, Open, Data, File, Collection, Document, Important" dc:publisher="Iconscout" dc:date="2016-12-14" dc:format="image/svg+xml" dc:language="en">
				<dc:creator>
					<rdf:Bag>
						<rdf:li>Font Awesome</rdf:li>
					</rdf:Bag>
				</dc:creator>
			</rdf:Description>
		</rdf:RDF>
    </metadata></svg>
