<?xml version="1.0" encoding="UTF-8" standalone="no"?>
<svg xmlns:dc="http://purl.org/dc/elements/1.1/" xmlns:cc="http://creativecommons.org/ns#" xmlns:rdf="http://www.w3.org/1999/02/22-rdf-syntax-ns#" xmlns:svg="http://www.w3.org/2000/svg" xmlns="http://www.w3.org/2000/svg" xmlns:sodipodi="http://sodipodi.sourceforge.net/DTD/sodipodi-0.dtd" xmlns:inkscape="http://www.inkscape.org/namespaces/inkscape" width="1792" height="1792" viewBox="0 0 1792 1792" version="1.1" inkscape:version="0.91 r13725" sodipodi:docname="folder open data file collection document important new.svg">
  
  <defs/>
  <sodipodi:namedview pagecolor="#ffffff" bordercolor="#666666" borderopacity="1" objecttolerance="10" gridtolerance="10" guidetolerance="10" inkscape:pageopacity="0" inkscape:pageshadow="2" inkscape:window-width="1366" inkscape:window-height="705" showgrid="true" inkscape:snap-bbox="true" inkscape:bbox-paths="true" inkscape:bbox-nodes="true" inkscape:snap-bbox-edge-midpoints="true" inkscape:snap-bbox-midpoints="true" inkscape:zoom="0.093123438" inkscape:cx="464.22928" inkscape:cy="533.85983" inkscape:window-x="-8" inkscape:window-y="-8" inkscape:window-maximized="1" inkscape:current-layer="svg2">
    <inkscape:grid type="xygrid"/>
  </sodipodi:namedview>
  <path d="m 1671.8449,984.07962 q 0,-32.8549 -49.7517,-32.8549 l -1021.31792,0 q -37.54846,0 -80.25983,20.1823 -42.71136,20.18229 -67.11786,49.28238 l -275.98114,340.7522 q -16.89681,22.5291 -16.89681,37.5484 0,32.8549 49.75171,32.8549 l 1021.31795,0 q 37.5485,0 80.7292,-20.6516 43.1807,-20.6517 66.6485,-49.7517 l 275.9811,-340.7522 q 16.8968,-20.6517 16.8968,-36.60977 z M 600.77528,831.06967 l 720.93032,0 0,-150.19382 q 0,-37.54845 -26.2839,-63.83236 -26.2839,-26.28392 -63.8324,-26.28392 l -540.69773,0 q -37.54846,0 -63.83238,-26.28392 -26.28391,-26.28392 -26.28391,-63.83237 l 0,-60.07753 q 0,-37.54845 -26.28392,-63.83237 -26.28392,-26.28392 -63.83238,-26.28392 l -300.38763,0 q -37.54846,0 -63.83238,26.28392 -26.28391,26.28392 -26.28391,63.83237 l 0,800.72075 240.31011,-295.69403 q 41.3033,-49.75171 108.89051,-82.13725 67.58722,-32.38554 131.4196,-32.38554 z M 1792,984.07962 q 0,58.20008 -43.1807,112.64538 l -276.9199,340.7522 q -40.3646,49.7517 -108.8905,82.1373 Q 1294.483,1552 1231.5893,1552 l -1021.31795,0 Q 123.9099,1552 61.95495,1490.045 0,1428.0901 0,1341.7287 L 0,440.56574 Q 0,354.2043 61.95495,292.24935 123.9099,230.29439 210.27135,230.29439 l 300.38763,0 q 86.36145,0 148.3164,61.95496 61.95495,61.95495 61.95495,148.31639 l 0,30.03877 510.65897,0 q 86.3615,0 148.3164,61.95496 61.955,61.95494 61.955,148.31639 l 0,150.19382 180.2325,0 q 50.6905,0 92.9325,22.99843 42.242,22.99843 62.8936,66.17915 Q 1792,950.28602 1792,984.07962 Z" inkscape:connector-curvature="0"/>

	
	<metadata>
		<rdf:RDF xmlns:rdf="http://www.w3.org/1999/02/22-rdf-syntax-ns#" xmlns:rdfs="http://www.w3.org/2000/01/rdf-schema#" xmlns:dc="http://purl.org/dc/elements/1.1/">
			<rdf:Description about="https://iconscout.com/legal#licenses" dc:title="Folder, Open, Data, File, Collection, Document, Important, New" dc:description="Folder, Open, Data, File, Collection, Document, Important, New" dc:publisher="Iconscout" dc:date="2016-12-14" dc:format="image/svg+xml" dc:language="en">
				<dc:creator>
					<rdf:Bag>
						<rdf:li>Font Awesome</rdf:li>
					</rdf:Bag>
				</dc:creator>
			</rdf:Description>
		</rdf:RDF>
    </metadata></svg>
