<?xml version="1.0" encoding="UTF-8" standalone="no"?>
<svg xmlns="http://www.w3.org/2000/svg" width="1792" height="1792" viewBox="0 0 1792 1792"><path d="M640 1008v-224q0-16-16-16h-96q-16 0-16 16v224q0 16 16 16h96q16 0 16-16zm512 0v-224q0-16-16-16h-96q-16 0-16 16v224q0 16 16 16h96q16 0 16-16zm512 32v752h-640v-320q0-80-56-136t-136-56-136 56-56 136v320h-640v-752q0-16 16-16h96q16 0 16 16v112h128v-624q0-16 16-16h96q16 0 16 16v112h128v-112q0-16 16-16h96q16 0 16 16v112h128v-112q0-16 16-16h16v-393q-32-19-32-55 0-26 19-45t45-19 45 19 19 45q0 36-32 55v9h272q16 0 16 16v224q0 16-16 16h-272v128h16q16 0 16 16v112h128v-112q0-16 16-16h96q16 0 16 16v112h128v-112q0-16 16-16h96q16 0 16 16v624h128v-112q0-16 16-16h96q16 0 16 16z"/>
	
	<metadata>
		<rdf:RDF xmlns:rdf="http://www.w3.org/1999/02/22-rdf-syntax-ns#" xmlns:rdfs="http://www.w3.org/2000/01/rdf-schema#" xmlns:dc="http://purl.org/dc/elements/1.1/">
			<rdf:Description about="https://iconscout.com/legal#licenses" dc:title="Fort, Flag, Host, Indian, Proud, Awesome" dc:description="Fort, Flag, Host, Indian, Proud, Awesome" dc:publisher="Iconscout" dc:date="2016-12-14" dc:format="image/svg+xml" dc:language="en">
				<dc:creator>
					<rdf:Bag>
						<rdf:li>Font Awesome</rdf:li>
					</rdf:Bag>
				</dc:creator>
			</rdf:Description>
		</rdf:RDF>
    </metadata></svg>
