<?xml version="1.0" encoding="UTF-8" standalone="no"?>
<svg xmlns="http://www.w3.org/2000/svg" width="1792" height="1792" viewBox="0 0 1792 1792"><path d="M1256 434l37-194q5-23-9-40t-35-17h-712q-23 0-38.5 17t-15.5 37v1101q0 7 6 1l291-352q23-26 38-33.5t48-7.5h239q22 0 37-14.5t18-29.5q24-130 37-191 4-21-11.5-40t-36.5-19h-294q-29 0-48-19t-19-48v-42q0-29 19-47.5t48-18.5h346q18 0 35-13.5t20-29.5zm227-222q-15 73-53.5 266.5t-69.5 350-35 173.5q-6 22-9 32.5t-14 32.5-24.5 33-38.5 21-58 10h-271q-13 0-22 10-8 9-426 494-22 25-58.5 28.5t-48.5-5.5q-55-22-55-98v-1410q0-55 38-102.5t120-47.5h888q95 0 127 53t10 159zm0 0l-158 790q4-17 35-173.5t69.5-350 53.5-266.5z"/>
	
	<metadata>
		<rdf:RDF xmlns:rdf="http://www.w3.org/1999/02/22-rdf-syntax-ns#" xmlns:rdfs="http://www.w3.org/2000/01/rdf-schema#" xmlns:dc="http://purl.org/dc/elements/1.1/">
			<rdf:Description about="https://iconscout.com/legal#licenses" dc:title="Foursquare, Local, Search, Discovery, Service, Mobile, App, Logo" dc:description="Foursquare, Local, Search, Discovery, Service, Mobile, App, Logo" dc:publisher="Iconscout" dc:date="2016-12-14" dc:format="image/svg+xml" dc:language="en">
				<dc:creator>
					<rdf:Bag>
						<rdf:li>Font Awesome</rdf:li>
					</rdf:Bag>
				</dc:creator>
			</rdf:Description>
		</rdf:RDF>
    </metadata></svg>
