<?xml version="1.0" encoding="UTF-8" standalone="no"?>
<svg xmlns:dc="http://purl.org/dc/elements/1.1/" xmlns:cc="http://creativecommons.org/ns#" xmlns:rdf="http://www.w3.org/1999/02/22-rdf-syntax-ns#" xmlns:svg="http://www.w3.org/2000/svg" xmlns="http://www.w3.org/2000/svg" xmlns:sodipodi="http://sodipodi.sourceforge.net/DTD/sodipodi-0.dtd" xmlns:inkscape="http://www.inkscape.org/namespaces/inkscape" width="1792" height="1792" viewBox="0 0 1792 1792" version="1.1" inkscape:version="0.91 r13725" sodipodi:docname="gamepad.svg">
  
  <defs/>
  <sodipodi:namedview pagecolor="#ffffff" bordercolor="#666666" borderopacity="1" objecttolerance="10" gridtolerance="10" guidetolerance="10" inkscape:pageopacity="0" inkscape:pageshadow="2" inkscape:window-width="1366" inkscape:window-height="705" showgrid="true" inkscape:snap-bbox="true" inkscape:bbox-paths="true" inkscape:bbox-nodes="true" inkscape:snap-bbox-edge-midpoints="true" inkscape:snap-bbox-midpoints="true" inkscape:zoom="0.093123438" inkscape:cx="494.68545" inkscape:cy="409.19131" inkscape:window-x="-8" inkscape:window-y="-8" inkscape:window-maximized="1" inkscape:current-layer="svg2">
    <inkscape:grid type="xygrid"/>
  </sodipodi:namedview>
  <path d="m 776.53333,953.86667 0,-119.4667 q 0,-13.06667 -8.4,-21.46667 -8.4,-8.4 -21.46666,-8.4 l -179.2,0 0,-179.2 q 0,-13.06666 -8.4,-21.46666 -8.4,-8.4 -21.46667,-8.4 l -119.46667,0 q -13.06666,0 -21.46666,8.4 -8.4,8.4 -8.4,21.46666 l 0,179.2 -179.2,0 q -13.06667,0 -21.46667,8.4 -8.4,8.4 -8.4,21.46667 l 0,119.4667 q 0,13.0666 8.4,21.4666 8.4,8.4 21.46667,8.4 l 179.2,0 0,179.20003 q 0,13.0667 8.4,21.4667 8.4,8.4 21.46666,8.4 l 119.46667,0 q 13.06667,0 21.46667,-8.4 8.4,-8.4 8.4,-21.4667 l 0,-179.20003 179.2,0 q 13.06666,0 21.46666,-8.4 8.4,-8.4 8.4,-21.4666 z M 1314.1333,1013.6 q 0,-49.46674 -35,-84.46674 -35,-35 -84.4666,-35 -49.4667,0 -84.4667,35 -35,35 -35,84.46674 0,49.4667 35,84.4667 35,35 84.4667,35 49.4666,0 84.4666,-35 35,-35 35,-84.4667 z m 238.9334,-238.93337 q 0,-49.46667 -35,-84.46667 -35,-35 -84.4667,-35 -49.4667,0 -84.4667,35 -35,35 -35,84.46667 0,49.46666 35,84.46663 35,35 84.4667,35 49.4667,0 84.4667,-35 35,-34.99996 35,-84.46663 z M 1792,894.13326 Q 1792,1092 1652,1232 q -140,140 -337.8667,140 -179.2,0 -315.46663,-119.4667 l -205.33334,0 Q 657.06667,1372 477.86667,1372 280,1372 140,1232 0,1092 0,894.13326 0,696.26663 140,556.26663 q 140,-140 337.86667,-140 l 836.26663,0 q 197.8667,0 337.8667,140 140,140 140,337.86663 z" inkscape:connector-curvature="0"/>

	
	<metadata>
		<rdf:RDF xmlns:rdf="http://www.w3.org/1999/02/22-rdf-syntax-ns#" xmlns:rdfs="http://www.w3.org/2000/01/rdf-schema#" xmlns:dc="http://purl.org/dc/elements/1.1/">
			<rdf:Description about="https://iconscout.com/legal#licenses" dc:title="Gamepad, Play, Remote, Playstation, Videogame, Joystick" dc:description="Gamepad, Play, Remote, Playstation, Videogame, Joystick" dc:publisher="Iconscout" dc:date="2016-12-14" dc:format="image/svg+xml" dc:language="en">
				<dc:creator>
					<rdf:Bag>
						<rdf:li>Font Awesome</rdf:li>
					</rdf:Bag>
				</dc:creator>
			</rdf:Description>
		</rdf:RDF>
    </metadata></svg>
