<?xml version="1.0" encoding="UTF-8" standalone="no"?>
<svg xmlns="http://www.w3.org/2000/svg" width="1792" height="1792" viewBox="0 0 1792 1792"><path d="M1601 128q65 0 110 45.5t45 110.5v519q0 176-68 336t-182.5 275-274 182.5-334.5 67.5q-176 0-335.5-67.5t-274.5-182.5-183-275-68-336v-519q0-64 46-110t110-46h1409zm-704 1064q47 0 82-33l404-388q37-35 37-85 0-49-34.5-83.5t-83.5-34.5q-47 0-82 33l-323 310-323-310q-35-33-81-33-49 0-83.5 34.5t-34.5 83.5q0 51 36 85l405 388q33 33 81 33z"/>
	
	<metadata>
		<rdf:RDF xmlns:rdf="http://www.w3.org/1999/02/22-rdf-syntax-ns#" xmlns:rdfs="http://www.w3.org/2000/01/rdf-schema#" xmlns:dc="http://purl.org/dc/elements/1.1/">
			<rdf:Description about="https://iconscout.com/legal#licenses" dc:title="Get, Pocket, Wallet, Money, Save, Income, Transfer, Transaction" dc:description="Get, Pocket, Wallet, Money, Save, Income, Transfer, Transaction" dc:publisher="Iconscout" dc:date="2016-12-14" dc:format="image/svg+xml" dc:language="en">
				<dc:creator>
					<rdf:Bag>
						<rdf:li>Font Awesome</rdf:li>
					</rdf:Bag>
				</dc:creator>
			</rdf:Description>
		</rdf:RDF>
    </metadata></svg>
