<?xml version="1.0" encoding="UTF-8" standalone="no"?>
<svg xmlns="http://www.w3.org/2000/svg" width="1792" height="1792" viewBox="0 0 1792 1792"><path d="M896 786h725q12 67 12 128 0 217-91 387.5t-259.5 266.5-386.5 96q-157 0-299-60.5t-245-163.5-163.5-245-60.5-299 60.5-299 163.5-245 245-163.5 299-60.5q300 0 515 201l-209 201q-123-119-306-119-129 0-238.5 65t-173.5 176.5-64 243.5 64 243.5 173.5 176.5 238.5 65q87 0 160-24t120-60 82-82 51.5-87 22.5-78h-436v-264z"/>
	
	<metadata>
		<rdf:RDF xmlns:rdf="http://www.w3.org/1999/02/22-rdf-syntax-ns#" xmlns:rdfs="http://www.w3.org/2000/01/rdf-schema#" xmlns:dc="http://purl.org/dc/elements/1.1/">
			<rdf:Description about="https://iconscout.com/legal#licenses" dc:title="Google, Search, Engine, Find, Anything" dc:description="Google, Search, Engine, Find, Anything" dc:publisher="Iconscout" dc:date="2016-12-14" dc:format="image/svg+xml" dc:language="en">
				<dc:creator>
					<rdf:Bag>
						<rdf:li>Font Awesome</rdf:li>
					</rdf:Bag>
				</dc:creator>
			</rdf:Description>
		</rdf:RDF>
    </metadata></svg>
