<?xml version="1.0" encoding="UTF-8" standalone="no"?>
<svg xmlns:dc="http://purl.org/dc/elements/1.1/" xmlns:cc="http://creativecommons.org/ns#" xmlns:rdf="http://www.w3.org/1999/02/22-rdf-syntax-ns#" xmlns:svg="http://www.w3.org/2000/svg" xmlns="http://www.w3.org/2000/svg" xmlns:sodipodi="http://sodipodi.sourceforge.net/DTD/sodipodi-0.dtd" xmlns:inkscape="http://www.inkscape.org/namespaces/inkscape" width="1792" height="1792" viewBox="0 0 1792 1792" version="1.1" inkscape:version="0.91 r13725" sodipodi:docname="google plus share find anything social media.svg">
  
  <defs/>
  <sodipodi:namedview pagecolor="#ffffff" bordercolor="#666666" borderopacity="1" objecttolerance="10" gridtolerance="10" guidetolerance="10" inkscape:pageopacity="0" inkscape:pageshadow="2" inkscape:window-width="1366" inkscape:window-height="705" showgrid="true" inkscape:snap-bbox="true" inkscape:bbox-paths="true" inkscape:bbox-nodes="true" inkscape:snap-bbox-edge-midpoints="true" inkscape:snap-bbox-midpoints="true" inkscape:zoom="0.13169643" inkscape:cx="136.30047" inkscape:cy="772.33678" inkscape:window-x="-8" inkscape:window-y="-8" inkscape:window-maximized="1" inkscape:current-layer="svg2">
    <inkscape:grid type="xygrid"/>
  </sodipodi:namedview>
  <path d="m 1117.6667,915.11111 q 0,161.77779 -67.6667,288.16669 -67.66667,126.3889 -192.88889,197.5555 -125.22222,71.1667 -287,71.1667 -115.88889,0 -221.66667,-45.1111 -105.77777,-45.1111 -182,-121.3333 -76.22222,-76.2223 -121.33333,-182 Q 0,1017.7778 0,901.88891 0,786.00001 45.11111,680.22223 q 45.11111,-105.77778 121.33333,-182 76.22223,-76.22222 182,-121.33333 105.77778,-45.11111 221.66667,-45.11111 222.44445,0 381.88889,149.33333 L 797.22222,629.66668 q -91,-87.88889 -227.11111,-87.88889 -95.66667,0 -176.94444,48.22222 Q 311.88889,638.22223 264.44444,721.05557 217,803.8889 217,901.88891 q 0,98 47.44444,180.83329 47.44445,82.8334 128.72223,131.0556 Q 474.44444,1262 570.11111,1262 q 64.55556,0 118.61111,-17.8889 54.05556,-17.8889 89.05556,-44.7222 35,-26.8333 61.05555,-61.0556 26.05556,-34.2222 38.11111,-64.5555 12.05556,-30.3334 16.72223,-57.5556 l -323.55556,0 0,-195.99997 538.22219,0 q 9.3334,48.99998 9.3334,94.88888 z M 1792,820.22223 l 0,163.33338 -162.5556,0 0,162.55549 -163.3333,0 0,-162.55549 -162.5555,0 0,-163.33338 162.5555,0 0,-162.55555 163.3333,0 0,162.55555 162.5556,0 z" inkscape:connector-curvature="0"/>

	
	<metadata>
		<rdf:RDF xmlns:rdf="http://www.w3.org/1999/02/22-rdf-syntax-ns#" xmlns:rdfs="http://www.w3.org/2000/01/rdf-schema#" xmlns:dc="http://purl.org/dc/elements/1.1/">
			<rdf:Description about="https://iconscout.com/legal#licenses" dc:title="Google, Plus, Share, Find, Anything, Social, Media" dc:description="Google, Plus, Share, Find, Anything, Social, Media" dc:publisher="Iconscout" dc:date="2016-12-14" dc:format="image/svg+xml" dc:language="en">
				<dc:creator>
					<rdf:Bag>
						<rdf:li>Font Awesome</rdf:li>
					</rdf:Bag>
				</dc:creator>
			</rdf:Description>
		</rdf:RDF>
    </metadata></svg>
