<?xml version="1.0" encoding="UTF-8" standalone="no"?>
<svg xmlns:dc="http://purl.org/dc/elements/1.1/" xmlns:cc="http://creativecommons.org/ns#" xmlns:rdf="http://www.w3.org/1999/02/22-rdf-syntax-ns#" xmlns:svg="http://www.w3.org/2000/svg" xmlns="http://www.w3.org/2000/svg" xmlns:sodipodi="http://sodipodi.sourceforge.net/DTD/sodipodi-0.dtd" xmlns:inkscape="http://www.inkscape.org/namespaces/inkscape" width="1792" height="1792" viewBox="0 0 1792 1792" version="1.1" inkscape:version="0.91 r13725" sodipodi:docname="group team communication compney employee community.svg">
  
  <defs/>
  <sodipodi:namedview pagecolor="#ffffff" bordercolor="#666666" borderopacity="1" objecttolerance="10" gridtolerance="10" guidetolerance="10" inkscape:pageopacity="0" inkscape:pageshadow="2" inkscape:window-width="1366" inkscape:window-height="705" showgrid="true" inkscape:zoom="0.18624688" inkscape:cx="-7.4659727" inkscape:cy="616.78945" inkscape:window-x="-8" inkscape:window-y="-8" inkscape:window-maximized="1" inkscape:current-layer="svg2">
    <inkscape:grid type="xygrid"/>
  </sodipodi:namedview>
  <path d="m 553.46667,896 q -151.2,4.66667 -247.33334,119.4667 l -125.06666,0 q -76.53334,0 -128.800003,-37.80003 Q 0,939.86667 0,867.06667 0,537.6 115.73333,537.6 q 5.6,0 40.6,19.6 35,19.6 91,39.66667 56,20.06667 111.06667,20.06667 62.53333,0 124.13333,-21.46667 -4.66666,34.53333 -4.66666,61.6 0,129.73333 75.6,238.93333 z m 999.60003,594.5334 q 0,112 -68.1334,176.8666 -68.1333,64.8667 -181.0666,64.8667 l -815.73337,0 q -112.93333,0 -181.06666,-64.8667 -68.13334,-64.8666 -68.13334,-176.8666 0,-49.4667 3.26667,-96.6 3.26667,-47.1334 13.06667,-101.7334 9.8,-54.6 24.73333,-101.2666 14.93333,-46.6667 40.13333,-91 25.2,-44.3334 57.86667,-75.6 32.66667,-31.26673 79.8,-49.93343 47.13333,-18.6666 104.06667,-18.6666 9.33333,0 40.13333,20.0666 30.8,20.0667 68.13333,44.80003 37.33334,24.7334 99.86667,44.8 62.53333,20.0667 126,20.0667 63.46667,0 126,-20.0667 62.5333,-20.0666 99.8667,-44.8 37.3333,-24.73333 68.1333,-44.80003 30.8,-20.0666 40.1333,-20.0666 56.9334,0 104.0667,18.6666 47.1333,18.6667 79.8,49.93343 32.6667,31.2666 57.8667,75.6 25.2,44.3333 40.1333,91 14.9333,46.6666 24.7333,101.2666 9.8,54.6 13.0667,101.7334 3.2667,47.1333 3.2667,96.6 z M 597.33333,298.66667 q 0,98.93333 -70,168.93333 -70,70 -168.93333,70 -98.93333,0 -168.93333,-70 -70,-70 -70,-168.93333 0,-98.93334 70,-168.93334 70,-69.999995 168.93333,-69.999995 98.93333,0 168.93333,69.999995 70,70 70,168.93334 z m 657.06667,358.4 q 0,148.4 -105,253.4 -105,105.00003 -253.4,105.00003 -148.4,0 -253.4,-105.00004 -105,-105 -105,-253.4 0,-148.4 105,-253.4 105,-105 253.4,-105 148.4,0 253.4,105 105,105 105,253.4 z m 537.6,210 q 0,72.79999 -52.2667,110.59999 -52.2666,37.80004 -128.8,37.80004 l -125.0666,0 q -96.1334,-114.80004 -247.3334,-119.46671 75.6,-109.2 75.6,-238.93333 0,-27.06667 -4.6666,-61.6 61.6,21.46667 124.1333,21.46667 55.0667,0 111.0667,-20.06667 56,-20.06667 91,-39.66667 35,-19.6 40.6,-19.6 Q 1792,537.6 1792,867.06667 Z m -119.4667,-568.4 q 0,98.93333 -70,168.93333 -70,70 -168.9333,70 -98.9333,0 -168.9333,-70 -70,-70 -70,-168.93333 0,-98.93334 70,-168.93334 70,-69.999995 168.9333,-69.999995 98.9333,0 168.9333,69.999995 70,70 70,168.93334 z" inkscape:connector-curvature="0"/>

	
	<metadata>
		<rdf:RDF xmlns:rdf="http://www.w3.org/1999/02/22-rdf-syntax-ns#" xmlns:rdfs="http://www.w3.org/2000/01/rdf-schema#" xmlns:dc="http://purl.org/dc/elements/1.1/">
			<rdf:Description about="https://iconscout.com/legal#licenses" dc:title="Group, Team, Communication, Compney, Employee, Community" dc:description="Group, Team, Communication, Compney, Employee, Community" dc:publisher="Iconscout" dc:date="2016-12-14" dc:format="image/svg+xml" dc:language="en">
				<dc:creator>
					<rdf:Bag>
						<rdf:li>Font Awesome</rdf:li>
					</rdf:Bag>
				</dc:creator>
			</rdf:Description>
		</rdf:RDF>
    </metadata></svg>
