<?xml version="1.0" encoding="UTF-8" standalone="no"?>
<svg xmlns:dc="http://purl.org/dc/elements/1.1/" xmlns:cc="http://creativecommons.org/ns#" xmlns:rdf="http://www.w3.org/1999/02/22-rdf-syntax-ns#" xmlns:svg="http://www.w3.org/2000/svg" xmlns="http://www.w3.org/2000/svg" xmlns:sodipodi="http://sodipodi.sourceforge.net/DTD/sodipodi-0.dtd" xmlns:inkscape="http://www.inkscape.org/namespaces/inkscape" width="1792" height="1792" viewBox="0 0 1792 1792" version="1.1" inkscape:version="0.91 r13725" sodipodi:docname="hand-lizard-o.svg">
  
  <defs/>
  <sodipodi:namedview pagecolor="#ffffff" bordercolor="#666666" borderopacity="1" objecttolerance="10" gridtolerance="10" guidetolerance="10" inkscape:pageopacity="0" inkscape:pageshadow="2" inkscape:window-width="1366" inkscape:window-height="705" showgrid="true" inkscape:snap-bbox="true" inkscape:bbox-paths="true" inkscape:bbox-nodes="true" inkscape:snap-bbox-edge-midpoints="true" inkscape:snap-bbox-midpoints="true" inkscape:zoom="0.26339286" inkscape:cx="302.70918" inkscape:cy="825.71886" inkscape:window-x="-8" inkscape:window-y="-8" inkscape:window-maximized="1" inkscape:current-layer="svg2">
    <inkscape:grid type="xygrid"/>
  </sodipodi:namedview>
  <path d="m 1007.125,232 q 53.375,0 101.5,24.33221 48.125,24.33221 79.625,66.91358 l 500.5,678.69481 Q 1792,1140.1129 1792,1313.9145 l 0,308.4976 q 0,69.5207 -49,118.1851 -49,48.6644 -119,48.6644 l -336,0 q -70,0 -119,-48.6644 -49,-48.6644 -49,-118.1851 l 0,-153.8143 -250.25,-124.2681 -477.75,0 q -70,0 -119,-48.6644 -49,-48.6644 -49,-118.185 l 0,-27.8083 Q 224,1046.2601 297.9375,972.82895 371.875,899.39781 476,899.39781 l 367.5,0 36.75,-111.23297 -600.25,0 q -87.5,0 -151.8125,-58.65801 Q 63.875,670.84882 56.875,584.81707 0,516.16547 0,426.65769 L 0,398.84945 Q 0,329.32884 49,280.66442 97.999996,232 168,232 l 839.125,0 z M 1680,1622.4121 l 0,-308.4976 q 0,-136.4342 -81.375,-246.7982 L 1097.25,388.42136 q -34.125,-45.1884 -90.125,-45.1884 l -839.125,0 q -22.75,0 -39.375,16.51115 Q 112,376.25525 112,398.84945 q 0,27.80824 1.3125,43.01587 1.3125,15.20764 8.3125,35.19481 7,19.98717 21.875,37.36733 8.75,-26.93924 31.0625,-43.45038 Q 196.875,454.46593 224,454.46593 l 728,0 0,27.80825 -728,0 q -22.75,0 -39.375,16.51114 Q 168,515.29646 168,537.89066 q 0,38.23633 2.625,50.40244 7,38.23633 38.5,63.43755 31.5,25.20122 70.875,25.20122 l 639.625,0 q 35,0 59.5,24.33221 24.5,24.33221 24.5,59.09252 0,13.03511 -4.375,26.07022 l -56,166.84946 q -8.75,25.20122 -30.625,41.27786 -21.875,16.07666 -49,16.07666 l -387.625,0 q -57.75,0 -98.875,40.8434 Q 336,1092.3175 336,1149.672 l 0,27.8083 q 0,22.5942 16.625,39.1053 16.625,16.5112 39.375,16.5112 l 490.875,0 q 14,0 25.375,6.083 l 277.375,137.3032 q 21,11.2971 33.6875,31.2843 12.6875,19.9872 12.6875,43.4504 l 0,171.1944 q 0,22.5942 16.625,39.1054 16.625,16.5111 39.375,16.5111 l 336,0 q 22.75,0 39.375,-16.5111 16.625,-16.5112 16.625,-39.1054 z" inkscape:connector-curvature="0"/>

	
	<metadata>
		<rdf:RDF xmlns:rdf="http://www.w3.org/1999/02/22-rdf-syntax-ns#" xmlns:rdfs="http://www.w3.org/2000/01/rdf-schema#" xmlns:dc="http://purl.org/dc/elements/1.1/">
			<rdf:Description about="https://iconscout.com/legal#licenses" dc:title="Hand, Lizard, Sign, Symbol, Gesture, Shadow" dc:description="Hand, Lizard, Sign, Symbol, Gesture, Shadow" dc:publisher="Iconscout" dc:date="2016-12-14" dc:format="image/svg+xml" dc:language="en">
				<dc:creator>
					<rdf:Bag>
						<rdf:li>Font Awesome</rdf:li>
					</rdf:Bag>
				</dc:creator>
			</rdf:Description>
		</rdf:RDF>
    </metadata></svg>
