<?xml version="1.0" encoding="UTF-8" standalone="no"?>
<svg xmlns:dc="http://purl.org/dc/elements/1.1/" xmlns:cc="http://creativecommons.org/ns#" xmlns:rdf="http://www.w3.org/1999/02/22-rdf-syntax-ns#" xmlns:svg="http://www.w3.org/2000/svg" xmlns="http://www.w3.org/2000/svg" xmlns:sodipodi="http://sodipodi.sourceforge.net/DTD/sodipodi-0.dtd" xmlns:inkscape="http://www.inkscape.org/namespaces/inkscape" width="1792" height="1792" viewBox="0 0 1792 1792" version="1.1" inkscape:version="0.91 r13725" sodipodi:docname="hand-spock-o.svg">
  
  <defs/>
  <sodipodi:namedview pagecolor="#ffffff" bordercolor="#666666" borderopacity="1" objecttolerance="10" gridtolerance="10" guidetolerance="10" inkscape:pageopacity="0" inkscape:pageshadow="2" inkscape:window-width="1366" inkscape:window-height="705" showgrid="true" inkscape:zoom="0.18624688" inkscape:cx="-536.96051" inkscape:cy="469.83927" inkscape:window-x="-8" inkscape:window-y="-8" inkscape:window-maximized="1" inkscape:current-layer="svg2">
    <inkscape:grid type="xygrid"/>
  </sodipodi:namedview>
  <path d="m 761.6,195.30765 q -44.8,0 -74.2,31.73334 -29.4,31.73333 -29.4,76.53333 0,13.06667 2.8,26.13333 l 140,582.4 -24.26667,0 -108.26666,-449.86666 q -8.4,-35.46667 -36.86667,-57.86667 -28.46667,-22.4 -64.86667,-22.4 -43.86666,0 -73.73333,31.73333 -29.86667,31.73334 -29.86667,75.6 0,10.26667 3.73334,27.06667 2.8,12.13333 36.4,150.26667 33.6,138.13333 63.46666,263.2 Q 596.4,1054.9077 596.4,1058.6411 l 0,211.8666 -286.53333,-214.6666 Q 278.13333,1031.5744 238,1031.5744 q -48.53333,0 -83.53333,34.0667 -35,34.0666 -35,82.6 0,62.5333 52.26666,102.6666 l 473.2,353.7334 q 31.73334,24.2666 70.93334,24.2666 l 647.73333,0 q 30.8,0 55.0667,-19.1333 24.2666,-19.1333 31.7333,-49 l 93.3333,-374.2667 q 7.4667,-28 9.3334,-82.1333 1.8666,-54.1333 8.4,-80.2667 l 108.2666,-446.13338 q 2.8,-11.2 2.8,-24.26667 0,-42.93333 -30.8,-73.73333 -30.8,-30.8 -74.6666,-30.8 -35.4667,0 -64.4,23.8 -28.9334,23.8 -37.3334,58.33333 l -92.4,380.8 -24.2666,0 123.2,-510.53333 q 2.8,-13.06667 2.8,-26.13333 0,-43.86667 -29.8667,-74.66667 -29.8667,-30.8 -74.6667,-30.8 -35.4666,0 -63.9333,22.4 -28.4667,22.4 -36.8667,57.86667 L 1134,912.10765 l -118.5333,0 L 862.4,275.57432 q -8.4,-35.46667 -36.86667,-57.86667 -28.46666,-22.4 -63.93333,-22.4 z m 602,1553.06675 -647.73333,0 q -79.33334,0 -142.8,-47.6 L 99.866667,1346.1077 Q 53.2,1310.6411 26.6,1258.3744 0,1206.1077 0,1148.2411 q 0,-98 70,-167.06678 70,-69.06667 168,-69.06667 23.33333,0 46.2,5.13333 22.86667,5.13333 38.73333,10.26666 15.86667,5.13334 38.26667,19.13334 22.4,14.00003 32.66667,21.46663 10.26666,7.4667 35.93333,27.5334 25.66667,20.06659 35,26.60009 L 350,544.37432 q -6.53333,-32.66667 -6.53333,-55.06667 0,-86.8 56,-151.2 56,-64.4 141.86666,-73.73333 13.06667,-81.2 75.13334,-134.86667 Q 678.53333,75.840988 761.6,75.840988 q 77.46667,0 138.13333,48.066662 60.66667,48.06667 79.33334,123.66667 l 96.13333,399.46667 77.4667,-324.8 q 18.6666,-75.6 79.3333,-123.66667 60.6667,-48.06667 138.1333,-48.06667 81.2,0 142.3334,50.4 61.1333,50.4 77,129.73334 86.8,9.33333 144.6666,72.8 Q 1792,466.90765 1792,553.70765 q 0,28 -6.5333,53.2 L 1677.2,1052.1077 q -4.6667,20.5334 -4.6667,62.5334 0,47.6 -12.1333,100.8 l -94.2667,374.2666 q -17.7333,70 -74.2,114.3334 -56.4666,44.3333 -128.3333,44.3333 z" inkscape:connector-curvature="0"/>

	
	<metadata>
		<rdf:RDF xmlns:rdf="http://www.w3.org/1999/02/22-rdf-syntax-ns#" xmlns:rdfs="http://www.w3.org/2000/01/rdf-schema#" xmlns:dc="http://purl.org/dc/elements/1.1/">
			<rdf:Description about="https://iconscout.com/legal#licenses" dc:title="Hand, Spock, Sign, Symbol, Gesture, Fun" dc:description="Hand, Spock, Sign, Symbol, Gesture, Fun" dc:publisher="Iconscout" dc:date="2016-12-14" dc:format="image/svg+xml" dc:language="en">
				<dc:creator>
					<rdf:Bag>
						<rdf:li>Font Awesome</rdf:li>
					</rdf:Bag>
				</dc:creator>
			</rdf:Description>
		</rdf:RDF>
    </metadata></svg>
