<?xml version="1.0" encoding="UTF-8" standalone="no"?>
<svg xmlns="http://www.w3.org/2000/svg" width="1792" height="1792" viewBox="0 0 1792 1792"><path d="M896 1664q-26 0-44-18l-624-602q-10-8-27.5-26t-55.5-65.5-68-97.5-53.5-121-23.5-138q0-220 127-344t351-124q62 0 126.5 21.5t120 58 95.5 68.5 76 68q36-36 76-68t95.5-68.5 120-58 126.5-21.5q224 0 351 124t127 344q0 221-229 450l-623 600q-18 18-44 18z"/>
	
	<metadata>
		<rdf:RDF xmlns:rdf="http://www.w3.org/1999/02/22-rdf-syntax-ns#" xmlns:rdfs="http://www.w3.org/2000/01/rdf-schema#" xmlns:dc="http://purl.org/dc/elements/1.1/">
			<rdf:Description about="https://iconscout.com/legal#licenses" dc:title="Heart, Love, Like, Favorite, Save" dc:description="Heart, Love, Like, Favorite, Save" dc:publisher="Iconscout" dc:date="2016-12-14" dc:format="image/svg+xml" dc:language="en">
				<dc:creator>
					<rdf:Bag>
						<rdf:li>Font Awesome</rdf:li>
					</rdf:Bag>
				</dc:creator>
			</rdf:Description>
		</rdf:RDF>
    </metadata></svg>
