<?xml version="1.0" encoding="UTF-8" standalone="no"?>
<svg xmlns="http://www.w3.org/2000/svg" width="1792" height="1792" viewBox="0 0 1792 1792"><path d="M1280 1024h305q-5 6-10 10.5t-9 7.5l-3 4-623 600q-18 18-44 18t-44-18l-624-602q-5-2-21-20h369q22 0 39.5-13.5t22.5-34.5l70-281 190 667q6 20 23 33t39 13q21 0 38-13t23-33l146-485 56 112q18 35 57 35zm512-428q0 145-103 300h-369l-111-221q-8-17-25.5-27t-36.5-8q-45 5-56 46l-129 430-196-686q-6-20-23.5-33t-39.5-13-39 13.5-22 34.5l-116 464h-423q-103-155-103-300 0-220 127-344t351-124q62 0 126.5 21.5t120 58 95.5 68.5 76 68q36-36 76-68t95.5-68.5 120-58 126.5-21.5q224 0 351 124t127 344z"/>
	
	<metadata>
		<rdf:RDF xmlns:rdf="http://www.w3.org/1999/02/22-rdf-syntax-ns#" xmlns:rdfs="http://www.w3.org/2000/01/rdf-schema#" xmlns:dc="http://purl.org/dc/elements/1.1/">
			<rdf:Description about="https://iconscout.com/legal#licenses" dc:title="Heartbeat, Heart, Love, Like, Favorite, Save" dc:description="Heartbeat, Heart, Love, Like, Favorite, Save" dc:publisher="Iconscout" dc:date="2016-12-14" dc:format="image/svg+xml" dc:language="en">
				<dc:creator>
					<rdf:Bag>
						<rdf:li>Font Awesome</rdf:li>
					</rdf:Bag>
				</dc:creator>
			</rdf:Description>
		</rdf:RDF>
    </metadata></svg>
