<?xml version="1.0" encoding="UTF-8" standalone="no"?>
<svg xmlns="http://www.w3.org/2000/svg" width="1792" height="1792" viewBox="0 0 1792 1792"><path d="M1632 1600q14 0 23 9t9 23v128q0 14-9 23t-23 9h-1472q-14 0-23-9t-9-23v-128q0-14 9-23t23-9h1472zm-1374-64q3-55 16-107t30-95 46-87 53.5-76 64.5-69.5 66-60 70.5-55 66.5-47.5 65-43q-43-28-65-43t-66.5-47.5-70.5-55-66-60-64.5-69.5-53.5-76-46-87-30-95-16-107h1276q-3 55-16 107t-30 95-46 87-53.5 76-64.5 69.5-66 60-70.5 55-66.5 47.5-65 43q43 28 65 43t66.5 47.5 70.5 55 66 60 64.5 69.5 53.5 76 46 87 30 95 16 107h-1276zm1374-1536q14 0 23 9t9 23v128q0 14-9 23t-23 9h-1472q-14 0-23-9t-9-23v-128q0-14 9-23t23-9h1472z"/>
	
	<metadata>
		<rdf:RDF xmlns:rdf="http://www.w3.org/1999/02/22-rdf-syntax-ns#" xmlns:rdfs="http://www.w3.org/2000/01/rdf-schema#" xmlns:dc="http://purl.org/dc/elements/1.1/">
			<rdf:Description about="https://iconscout.com/legal#licenses" dc:title="Hourglass, Full, Time, Manage, Control" dc:description="Hourglass, Full, Time, Manage, Control" dc:publisher="Iconscout" dc:date="2016-12-14" dc:format="image/svg+xml" dc:language="en">
				<dc:creator>
					<rdf:Bag>
						<rdf:li>Font Awesome</rdf:li>
					</rdf:Bag>
				</dc:creator>
			</rdf:Description>
		</rdf:RDF>
    </metadata></svg>
