<?xml version="1.0" encoding="UTF-8" standalone="no"?>
<svg xmlns="http://www.w3.org/2000/svg" width="1792" height="1792" viewBox="0 0 1792 1792"><path d="M1536 128q0 261-106.5 461.5t-266.5 306.5q160 106 266.5 306.5t106.5 461.5h96q14 0 23 9t9 23v64q0 14-9 23t-23 9h-1472q-14 0-23-9t-9-23v-64q0-14 9-23t23-9h96q0-261 106.5-461.5t266.5-306.5q-160-106-266.5-306.5t-106.5-461.5h-96q-14 0-23-9t-9-23v-64q0-14 9-23t23-9h1472q14 0 23 9t9 23v64q0 14-9 23t-23 9h-96zm-128 0h-1024q0 66 9 128h1006q9-61 9-128zm0 1536q0-130-34-249.5t-90.5-208-126.5-152-146-94.5h-230q-76 31-146 94.5t-126.5 152-90.5 208-34 249.5h1024z"/>
	
	<metadata>
		<rdf:RDF xmlns:rdf="http://www.w3.org/1999/02/22-rdf-syntax-ns#" xmlns:rdfs="http://www.w3.org/2000/01/rdf-schema#" xmlns:dc="http://purl.org/dc/elements/1.1/">
			<rdf:Description about="https://iconscout.com/legal#licenses" dc:title="Hourglass, Start, Ready, Time, Manage, Control" dc:description="Hourglass, Start, Ready, Time, Manage, Control" dc:publisher="Iconscout" dc:date="2016-12-14" dc:format="image/svg+xml" dc:language="en">
				<dc:creator>
					<rdf:Bag>
						<rdf:li>Font Awesome</rdf:li>
					</rdf:Bag>
				</dc:creator>
			</rdf:Description>
		</rdf:RDF>
    </metadata></svg>
