<?xml version="1.0" encoding="UTF-8"?><svg xmlns="http://www.w3.org/2000/svg" xmlns:xlink="http://www.w3.org/1999/xlink" version="1.1" id="Layer_1" x="0px" y="0px" viewBox="0 0 160 240" xml:space="preserve"><path fill="#656565" d="M55.6 77.6c-.1 6.6-2 14.5-3.7 20s-.7 11.3-.1 12.5c.6 1.2 2 5.3 2.3 6.2s1.8.9 2-.9c.3-1.8-.4-5.5.2-6.6.7-1.1 2.6-.1 3-2.6.4-2.5-.7-6.5-.1-8.4.5-1.9 3.2-6.3 3.1-9.3s.1-10.3.1-10.3l-6.8-.6z"/><path fill="#656565" d="M56.9 194.4c-2.2 2.3-5.1 5.4-8.1 7-3 1.6-5.8 3.8-5.3 6s3.9 4.6 10.1 3c3.7-.9 5.3-4.4 7.9-5.1 2.6-.7 6.5-2.3 6.8-3.6s.3-5.2.3-5.2l-11.7-2.1z"/><path opacity="0.5" d="M68.2 201.7c.1-.4.1-.9.2-1.5-1.3 1.1-4.3 2.5-7.1 3.3-3.4.9-5.8 4.8-9.4 5.9-3.2.9-8-.5-8.4-3.3-.2.5-.2.9-.1 1.4.5 2.2 3.9 4.6 10.1 3 3.7-.9 5.3-4.4 7.9-5.1 2.5-.8 6.5-2.3 6.8-3.7z"/><path fill="#262626" d="M57.7 101.8s-3 9.5-4 23.3-.1 35.1-.1 46-.7 20.1-1.4 22.2c-.7 2.1-1.3 6-.4 6.8 1.3 1.1 7.9 2.7 10.8 3.2 6.1 1 8.4-3.8 9-5.7.6-1.9 2.7-23.2 2.4-30.6s.8-11.2 1.8-18.9c.9-6.8 3.3-27.2 3.3-27.2l.3-13.9-21.7-5.2z"/><path opacity="0.2" d="M57.7 101.8s-3 9.5-4 23.3-.1 35.1-.1 46-.7 20.1-1.4 22.2c-.7 2.1-1.3 6-.4 6.8 1.3 1.1 7.9 2.7 10.8 3.2 6.1 1 8.4-3.8 9-5.7.6-1.9 2.7-23.2 2.4-30.6s.8-11.2 1.8-18.9c.9-6.8 3.3-27.2 3.3-27.2l.3-13.9-21.7-5.2z"/><path fill="#FC0" d="M53.5 180.3s3.3 2.7 7.4 2.9c4 .3 12.8-2.7 12.8-2.7l-.2 2.3s-7.2 2.5-12.2 2.4c-5-.1-7.9-3-7.9-3l.1-1.9z"/><path fill="#FC0" d="M53 186.1s3.3 2.7 7.4 2.9c4 .3 12.8-2.7 12.8-2.7l-.2 2.3s-7.2 2.5-12.2 2.4-7.9-3-7.9-3l.1-1.9z"/><path fill="#262626" d="M56.9 36.2s5.1 3.1 14.8 4.5c9.6 1.3 12.4 1.1 12.4 1.1S78.6 36.2 71 35s-14.1 1.2-14.1 1.2z"/><path opacity="0.2" d="M104.4 231.1c26.9-13.2 1-17.9-14.1-26.3-20.8-11.6-27.5-15.7-43-6.1-17.1 10.6.2 17.9 16.1 25.3 18 8.5 25 15 41 7.1z"/><path fill="#656565" d="M95.4 214c-1 2.5-2.7 5.6-5.3 8.1-2.7 2.6-4.7 6.3-3.2 8.1s8.1 2.5 11.4.6 10-7.7 10.5-8.8c.5-1.2-.1-6.2-.1-6.2L95.4 214z"/><path opacity="0.5" d="M108.7 222c.2-.4.2-1.2.2-2.2-1.1 1.5-3.6 3.6-5.4 5.4-2.2 2.1-5.5 5-9.6 5.5-3.2.4-6.3-.2-7.6-2.5-.1.8 0 1.5.5 2.1 1.5 1.9 8.1 2.5 11.4.6s10-7.7 10.5-8.9z"/><path fill="#262626" d="M66.7 105c-.1 1.4.3 20 1.5 23.5s5.1 5.3 7.9 13.3 2.7 15 5.3 23.5c2.7 8.4 6.7 35.2 8.1 42.8 1 5.6 2 11.3 2.8 11.8 1.6 1 4.1 1.4 6.4 1.7 4.6.5 8.1.4 10.2-.9 2.2-1.3 2.6-4.5 1.8-9.5s-3.3-23.4-4.9-32.4c-1.3-7.2-6.7-32.9-7-41.4s.5-17.2-2.8-24.3c-3.3-7.1-6.4-9.4-6.4-9.4L66.7 105z"/><path fill="#FC0" d="M88.1 200.7l.3 2.6s6.2 1.8 10.9 1.2c4.7-.6 9.9-3.2 9.9-3.2l-.3-2.3s-7.2 3-10.4 3.1c-5.4.1-10.4-1.4-10.4-1.4z"/><path fill="#FC0" d="M89.1 207.1l.3 2.6s6.2 1.8 10.9 1.2c4.7-.6 9.9-3.2 9.9-3.2l-.3-2.3s-7.2 3-10.4 3.1c-5.4.2-10.4-1.4-10.4-1.4z"/><path fill="#262626" d="M117.6 79.6l-1.2-1.2v-.1c-.7-1-5.9-8.4-7.8-11.8-1.9-3.4-5-10.1-9.4-12.2-4.3-2.2-9.7-2.6-11.3-3.3-1.6-.7.5-3.3-.1-4.3-.7-.9-10.1-5.2-16.7-2.9-4.6 1.6-11 2-12.9 7.5-1.9 5.6-5 14.7-4.3 20.5.2 1.4-.7 13.1-1.3 15.2-.7 2.4-2.7 6.9-2.4 7.9.3 1 1.4 2 1.4 2l-.3 2.6s2.6.1 4.6.2c.3 0-3 11.6.1 13 6.1 2.7 20.1.5 27.1-.4 6.5-.9 7.5-7.3 7.5-7.3l-2.4 2s2 3 3.1 4.9c1 1.9 1.7 3.7 1.7 3.7l3.5-1.8s.1 1.8 2.4 1.3 23.4-13.3 24-20.5c.6-7.1-1.8-11.4-5.3-15zM97.3 94.3c-1.4 1.6-1.9 2.6-2.9 3.9 0-.1-.5-2.1.3-6.5.8-4.5.6-11.1.6-11.1s1.4 2.8 2.9 5c1.5 2.1 3.3 3.6 3.3 3.9.3.8-2.1 2.4-4.2 4.8z"/><path fill="#FBD7C7" d="M66.2 61.8l2.8-4.6s3.3-.9 6.2-3.5c2.9-2.6 8.6-5.4 8.6-5.4s-2.5-1.7-2.8-4.6c-.3-2.9 3.1-7.1 1.8-13.9-1.2-6.7-7.1-11.5-16.4-7.4s-8.5 19.2-6.5 25.8c1.9 6.6 7.3 4.3 7.3 4.3s-.6 2.8-.9 4.6c-.3 1.9-.1 4.7-.1 4.7z"/><path fill="#FC0" d="M95.4 80.6l1.1 2.4s4.9-4.6 7.2-7.4c3.2-3.9 7.5-5.2 7.5-5.2l-1.7-2.6s-5.4 2.8-7.6 5.5c-3.5 4.2-6.5 7.3-6.5 7.3z"/><path fill="#FC0" d="M99 86.6l1.6 2.2s4.7-4.4 7-7.2c3.2-3.9 7.5-5.2 7.5-5.2l-1.7-2.6s-5.4 2.8-7.6 5.5c-3.4 4.1-6.8 7.3-6.8 7.3z"/><path fill="#FC0" d="M95.4 80.6l.2 2.7s-8.5-.7-14.4-1.3c-6.6-.7-15.2-.9-15.2-.9l.3-2.7s7.5.2 14.4.7 14.7 1.5 14.7 1.5z"/><path fill="#FC0" d="M95.2 87.9l-.2 2.5s-8.4-.7-14.2-1.3c-6.5-.6-14.9-.8-14.9-.8l.1-2.7s7.5.2 14.4.7c7 .6 14.8 1.6 14.8 1.6z"/><path fill="#FC0" d="M54.7 76.7l.3 2.8 7.6 1.2-.1-2.7z"/><path fill="#FC0" d="M55.6 83.9l.3 2.8 6.6 1.4.1-3z"/><path fill="#656565" d="M88.8 105.5c-.3.3-.6.5-.8.5-2 .7-3 1-4.3.6-1.3-.4-5.2-1.5-6.9-1.8-1.6-.4-4.4-.5-3.8 1.3.6 1.7 3.6 2.7 4.5 3 1 .3 1.5.9.5 2.2-1 1.2-9.1 4.6-8.4 7.2 1.1 4.2 4.5 6.2 11.1 4.5 2.7-.7 9.9-5.2 13.2-7.7-3.6-4.9-4.2-8.6-5.1-9.8z"/><path fill="#FC0" d="M57.5 33.8c.6 2.3 9.2 1.2 16.2 3.1 8.2 2.2 10 4 10.7 2.1 3-8.2-1.8-20.4-12.7-20.4-10.1 0-16 7.5-14.2 15.2z"/><path opacity="0.5" fill="#999" d="M84.4 38.9S65.2 22 58.1 24.4s-2.5 9 .1 8.4c5.1-1.3 26.2 6.1 26.2 6.1z"/><path fill="#262626" d="M51.4 31.5c8.2-2.2 23.8 1.9 29 4.6 5.4 2.8 9.2 5 9.2 5l-5.5.8S79 40.1 72 38.1c-7-2-15.1-1.8-15.1-1.8s-9.5-3.7-5.5-4.8z"/><metadata><rdf:RDF xmlns:rdf="http://www.w3.org/1999/02/22-rdf-syntax-ns#" xmlns:rdfs="http://www.w3.org/2000/01/rdf-schema#" xmlns:dc="http://purl.org/dc/elements/1.1/"><rdf:Description about="https://iconscout.com/legal#licenses" dc:title="fireman" dc:description="fireman" dc:publisher="Iconscout" dc:date="2017-09-20" dc:format="image/svg+xml" dc:language="en"><dc:creator><rdf:Bag><rdf:li>Icograms</rdf:li></rdf:Bag></dc:creator></rdf:Description></rdf:RDF></metadata></svg>