<?xml version="1.0" encoding="UTF-8"?><svg xmlns="http://www.w3.org/2000/svg" xmlns:xlink="http://www.w3.org/1999/xlink" version="1.1" id="Layer_1" x="0px" y="0px" viewBox="0 0 80 160" xml:space="preserve"><path opacity="0.2" d="M27.6 136.2c-7.4 5.1-7.2 10.7.7 15 8.7 4.7 14.4 1.1 21.2-2.8s6.9-9-3-13c-8.1-3.2-14.7-2.1-18.9.8z"/><path fill="#262626" d="M39.9 135.5c1.3.4 1.6.7 1.6 1.7s-.8 2.5-2.4 3.9c-1.6 1.4-5.3 6.1-9.7 6.2-4.4.2-5.4-2.2-4.6-4 1.2-3.1 11.5-8.9 15.1-7.8z"/><path fill="#262626" d="M48.8 140.4c.7.4 1.2 1.7.6 2.7-.6 1.1-2.4 2-4.5 4.3s-5.6 5.3-9.8 4.1c-4.2-1.1-1.6-5-.8-5.8.8-.7 9.1-8.3 14.5-5.3z"/><path fill="#FBD7C7" d="M26.3 56.9c-1.6 2.7-3.3 5.6-4.3 10.4-1 4.8-2 8.2-2.9 9.9s-2.7 4.3-1.8 7.4c.9 3.1 2 3.4 3.3 3.1 1.2-.4 2-1.4 2-2.1s-.8-2.3-.4-3.5c.4-1.2 1.4-2.5 1.4-3.5s-.5-1.7-.4-2.1 3.9-7.8 4.6-8.9 3.1-4.3 3.1-4.9c.1-.6-4.6-5.8-4.6-5.8z"/><path fill="#FFF" d="M39.8 137.6s-2 2.1-3.3 3.4c-1.3 1.3-4.5 5.1-8.4 4.7-3.8-.4-3.7-2-2.8-3.2.9-1.2 4.3-4.5 5.1-5.5.7-1 1.4-2.6 2.9-1.8s2.4 2.3 4 2.5c1.8.2 2.5-.1 2.5-.1z"/><path fill="#FFF" d="M48.4 142.1s-1.4 1.6-3.6 3.7-4.4 4.1-7.1 4.3c-2.7.2-5-.7-4.3-2.7s2.7-3.3 4-5.1 2.3-4 4.1-2.7c1.8 1.3 3.1 2.7 4.7 2.8 1.6.1 2.2-.3 2.2-.3z"/><path fill="#06547A" d="M25.9 71.1s-2 9.1-1.2 16.3c.7 7.2 4 21.8 4.1 23.3.1 1.6.5 5.3 1.3 8.1s2.4 10.9 1.7 12.9c-.7 2.1-1.8 4-.5 5s5.1 1.8 7.7 1.5c2.4-.3 2.9-1.8 3.3-3 .4-1.2-1.9-7.1-2.2-12.1-.2-4.9-2.1-28.1-1.2-31.9.8-3.7-.6-20.6-.6-20.6l-12.4.5z"/><path opacity="0.2" d="M25.9 71.1s-2 9.1-1.2 16.3c.7 7.2 4 21.8 4.1 23.3.1 1.6.5 5.3 1.3 8.1s2.4 10.9 1.7 12.9c-.7 2.1-1.8 4-.5 5s5.1 1.8 7.7 1.5c2.4-.3 2.9-1.8 3.3-3 .4-1.2-1.9-7.1-2.2-12.1-.2-4.9-2.1-28.1-1.2-31.9.8-3.7-.6-20.6-.6-20.6l-12.4.5z"/><path fill="#06547A" d="M35.3 72.5s-.5 13-.5 18.5 2.1 19.3 3.1 23.7c1.1 4.3 2.5 12.8 2.7 15.1s-.7 7.7-1.6 8.6c-.8.8-.4 2.9 1.8 4.1 2.2 1.2 7.5 1 8.3-1 .8-1.9-.4-4.3-.1-7.5.4-3.3 1.2-9.1 1-13.6-.2-5.4-3.4-10-3.1-12.7s5.4-21.1 4.8-26.2c-.6-5.1-5.6-10.9-5.6-10.9l-10.8 1.9z"/><path fill="#CC291F" d="M35.4 35.6s-5.6-.2-7.5 1.3-3 4.1-2.7 5.7c.4 1.6 1 2.7 1 2.7s-1.3 3.9-1.3 6.3c-.1 4.2.8 11.6.8 14.6s-1.4 12.1-1.4 12.1 5.6 2.9 13.4 2.3c10.4-.7 13.4-3.8 13.4-3.8S48 73 47.8 69.3c-.3-4 2.5-11.4 2.5-11.4l3.5-.7s.1-4.7-.2-6.6c-.3-1.9-1.6-5.1-3.9-7.8-2.4-2.7-5.6-5.7-5.6-5.7l-8.7-1.5z"/><path fill="#FBD7C7" d="M53.4 57.2c-.8.1-2.1.3-3.4.7-1.2.3-2.5.8-3.4 1.1.6 2.9 1 5.9 1.6 8 .6 2.2 1.6 5.4 1.6 5.4s-1.1 4.7-2 8.7c-.9 4-1.9 8.2-1.9 8.2s-3.9 1.9-4.4 2.5c-.5.6-1 2.2-1.4 3-.4.8.1 1.5.8.9.7-.6 1.4-1.8 1.6-2s.6.5.6 1.8-.2 1-.6 1.5c-.4.5-1.4 1-1.6 1.1-.3.2.3 1.1 1.9 1.1 1.6 0 3.4-1 4.3-1.9s2.1-2.7 2.5-4.5 0-1.5.5-2.8 5.4-14.2 5.8-16.3.3-3.1 0-4.8c-.4-1.3-2.3-8.4-2.5-11.7z"/><path fill="#825012" d="M46.6 14.8s-4-3.5-10.6-.5-7.4 8-7.2 11c.2 3 1.6 11.8-1.9 16.1-1.1 1.3 2.5 2 5.2 1.2 5-1.4 7.9-9.9 7.9-9.9l6.6-17.9z"/><path fill="#FBD7C7" d="M35.4 19c-2 1.3-5.9 1.4-5.7 7.4.2 5.9 1.1 9.7 2.5 10.4 1.4.6 2.9.2 2.9.2s.2.7-.2 2-2 3.1-.5 4.5 6.2.7 8.5-.9c2.4-1.6 2.5-3.5 2.5-3.5s-1.3.1-1.4-1.4c-.1-1.6.4-4.3 1.1-5.9.8-1.6 4.1-3.6 4.1-9S43.1 14 35.4 19z"/><path fill="#825012" d="M34.4 19c-1.6 1.3-.8 5.4 1.4 8.5 2 2.7 4.7 2.3 5.6 8.5.4 3-.7 7.8-3.3 13.2-1 2.1 7.2 1.1 9.9.4 2.4-.6 6.2-1.5 5.3-4.1-2.8-8.5-2.6-13.2-2.4-17.1.2-3.6 1.1-7.9-1.5-11.3-4.1-5.2-9.9-2.2-15 1.9z"/><metadata><rdf:RDF xmlns:rdf="http://www.w3.org/1999/02/22-rdf-syntax-ns#" xmlns:rdfs="http://www.w3.org/2000/01/rdf-schema#" xmlns:dc="http://purl.org/dc/elements/1.1/"><rdf:Description about="https://iconscout.com/legal#licenses" dc:title="kid" dc:description="kid" dc:publisher="Iconscout" dc:date="2017-09-20" dc:format="image/svg+xml" dc:language="en"><dc:creator><rdf:Bag><rdf:li>Icograms</rdf:li></rdf:Bag></dc:creator></rdf:Description></rdf:RDF></metadata></svg>