<?xml version="1.0" encoding="UTF-8"?><svg xmlns="http://www.w3.org/2000/svg" xmlns:xlink="http://www.w3.org/1999/xlink" version="1.1" id="Layer_1" x="0px" y="0px" viewBox="0 0 80 240" xml:space="preserve"><path opacity="0.2" d="M26.4 213.6c-8.7 6-8.5 12.6.8 17.6 10.2 5.5 16.9 1.3 24.9-3.3s8.1-10.6-3.6-15.3c-9.5-3.7-17.2-2.4-22.1 1z"/><path fill="#262626" d="M40.8 212.8c1.6.5 1.8.8 1.8 2s-1 2.9-2.9 4.6c-1.9 1.7-6.2 7.1-11.4 7.3-5.2.2-6.3-2.6-5.5-4.6 1.7-3.8 13.8-10.7 18-9.3z"/><path fill="#262626" d="M51.3 218.6c.8.4 1.4 2 .7 3.2s-2.8 2.3-5.3 5-6.6 6.2-11.6 4.8c-4.9-1.3-1.8-5.9-1-6.8 1-.8 10.8-9.8 17.2-6.2z"/><path fill="#FBD7C7" d="M24.9 115.3c-1.8 3.2-3.9 7.4-5.1 13.1-1.2 5.7-2.3 9.6-3.4 11.6s-3.2 5.1-2.1 8.7c1.1 3.6 2.4 4 3.8 3.6 1.5-.4 2.3-1.7 2.3-2.5s-.9-2.6-.4-4.1c.5-1.4 1.6-2.9 1.6-4.1 0-1.2-.6-2-.4-2.5s4.5-9.1 5.4-10.4 3.6-5.9 3.7-6.7-5.4-6.7-5.4-6.7z"/><path fill="#FBD7C7" d="M36.1 89.1c-3.2.3-6.9-.5-9.3 1.9s-3 5-2.8 6.2c.2 1.2 1.1 3.8 1.1 3.8s-1.7 5.1-1.9 8.6c-.3 3.5 1.8 12.1 1.8 16 0 3.9-.7 12.5-1.3 18.6s.1 13 1.7 20.4c1.6 7.4 3.4 17.1 3.7 18.4.3 1.3-.3 3.9 1.3 8.9s4.1 14.6 3.4 17.5c-.7 2.9-1.9 4.9-3.6 6.9-1.7 2-6 4.5-4 6.6 2 2.1 8.4-2 10-3.5s5.6-4.9 5.8-5.8c.2-.9-.6-2.9-1.3-4.1-.7-1.2-.9-1.9-.8-4.1s.2-8.1.6-10.9c.4-2.6.2-5.3.2-5.3s.7 4 1.1 7.2c.5 3.2 1.9 8.8 1.8 11.6-.1 2.8 0 5.8-1.7 8.5s-9.8 9.6-7.3 11.4 9.6-1.6 11.7-3.5 5.1-4 5.1-5.3c0-1.3-2-3.3-1.8-5.9.2-2.6 3-16.4 2.4-20.5-.9-5.7-3.8-10.1-3.8-14.7 0-4.5 6.1-26.4 6-33.4s-6.5-11.3-6.6-13.8c-.1-2.6 3.8-13.7 5.5-16.6s4.4-5 3.4-8.1c-1-3.1-2.3-5.7-4.9-8.1-2.6-2.5-5.3-6.1-5.8-6.6-.5-.4-9.7-2.3-9.7-2.3z"/><path fill="#F90" d="M40.7 215.2s-2.3 2.5-3.9 4-5.3 6-9.8 5.5c-4.5-.5-4.3-2.3-3.3-3.8 1-1.4 5.1-5.3 6-6.5s1.6-3.1 3.4-2.1c1.8 1 2.8 2.7 4.8 2.9 1.9.4 2.8 0 2.8 0z"/><path fill="#F90" d="M50.8 220.5s-1.7 1.9-4.2 4.3-5.2 4.8-8.3 5.1-5.9-.8-5.1-3.2 3.1-3.8 4.8-6c1.1-1.5 2.4-3.4 3.1-3.5.6-.1 1.6-.1 2.3.3 2.6 1.6 3.1 3.1 5 3.3 1.7.2 2.4-.3 2.4-.3z"/><path fill="#CC291F" d="M30.4 89.1c-1.9 1.5-4 7.4-4.7 9.5-.7 2.1-3.7 8-3.1 13.3.5 4.1 1.7 13.1 1.7 13.1s-5.3 15.3-6.4 19.2c-1.6 5.8-3.1 11.9-2.4 12.5.7.7 3.6.1 6.1 3.2s4.7-.5 8.8 3.3c4.1 3.8 15.7 5.1 21 3.3s8-4.9 7.9-5.6c-4-15.9-8.7-26.5-9.8-31.2-.5-1.9.5-6 0-8.8-1-5.1-3.3-12.5-1.9-15.2 2.5-5 6.9-4.2 6.9-4.2s-2.5-3.3-3.4-4.3-3.4-3.9-3.4-3.9-7.1 12.3-13.1 10c-5.9-2.2 1.8-14.4 1.8-14.4l-6 .2z"/><path fill="#FBD7C7" d="M34.5 65.7c-2.4 1.5-5.9 4.6-5.7 11.6.2 7 1.3 12.3 2.9 12.7 1.6.5 3.4.2 3.4.2s.3 1.7-.2 3.2-2.3 3.7-.6 5.3c1.7 1.6 8.6.2 10-1 1.4-1.2 2.9-4.1 2.9-4.1s-1.5-.7-1.7-2.5c-.1-1.8.4-5 1.3-6.9.9-1.8 4.9-4.8 4.8-11.1.1-6.3-8-13.2-17.1-7.4z"/><path fill="#825012" d="M32.3 71s3.5-1.2 7.3 2.6c2.7 2.7 3.3 5.9 4.7 6.3 1.4.3 2.7-2 3.8-.6s-2.9 5.1-2.9 5.1 0 3.9 3.7 2.9c5.9-1.6 6.7-13.2 4.7-17.8-3.9-9.3-11.3-7-12.1-7.3-.8-.3-4.3-2-8 .4-3.6 2.4-5.9 6.2-5.8 10.4.1 5.3.3 8.9-2.1 9.3 1.1 1.7 3.6 1 3.6.2-.1-1.5-.5-5.9-.2-8 .2-2.2.9-4.1 3.3-3.5z"/><path fill="#FBD7C7" d="M47.4 109.7c.1 2.4.6 5.1 1.2 7.6.8 3.4 1.2 8.1 2 10.7.8 2.6 1.9 6.3 1.9 6.3s-1.3 5.5-2.3 10.2c-1 4.7-2.3 9.6-2.3 9.6s-4.6 2.3-5.2 2.9c-.6.7-1.2 2.6-1.6 3.6s.1 1.8.9 1.1 1.6-2.1 1.9-2.3c.3-.2.7.6.7 2.1s-.2 1.2-.7 1.8c-.5.6-1.6 1.1-1.9 1.3-.3.2.4 1.3 2.2 1.3s4-1.2 5.1-2.3c1.1-1.1 2.5-3.1 3-5.3.5-2.1 0-1.7.5-3.3s6.4-16.7 6.8-19.1.4-3.7 0-5.6c-.4-2-3.1-12.8-2.9-15.7s.8-7-.1-9.2c-.9-2.2-1.6-3.6-4.1-3.3-2.4.5-5.2 2-5.1 7.6z"/><path fill="#FBD7C7" d="M40.4 218.6s.9 0 1.9.6 1.6 1.9 2.7 2.4c1.2.5 2.1.6 2.1.6s-2.6 3-4.9 3.3c-2.6.4-4.5-.5-5-1.3-.3-.4-.5-1.2 0-1.9.8-.9 3.2-3.7 3.2-3.7z"/><path fill="#FBD7C7" d="M31 214s.3-.4 1.3.2 2 1.9 3.2 2.4c.8.3 1.8.5 1.8.5s-2.4 3-4.6 3.5c-2.7.5-4.7-.7-5.2-1.4-.5-.6-.1-1.4.5-2.1 1.2-1.2 3-3.1 3-3.1z"/><metadata><rdf:RDF xmlns:rdf="http://www.w3.org/1999/02/22-rdf-syntax-ns#" xmlns:rdfs="http://www.w3.org/2000/01/rdf-schema#" xmlns:dc="http://purl.org/dc/elements/1.1/"><rdf:Description about="https://iconscout.com/legal#licenses" dc:title="kid" dc:description="kid" dc:publisher="Iconscout" dc:date="2017-09-20" dc:format="image/svg+xml" dc:language="en"><dc:creator><rdf:Bag><rdf:li>Icograms</rdf:li></rdf:Bag></dc:creator></rdf:Description></rdf:RDF></metadata></svg>