<?xml version="1.0" encoding="UTF-8"?><svg xmlns="http://www.w3.org/2000/svg" xmlns:xlink="http://www.w3.org/1999/xlink" version="1.1" id="Layer_1" x="0px" y="0px" viewBox="0 0 80 160" xml:space="preserve"><path opacity="0.2" d="M28.9 138.2c-7.1 4.9-7.6 8.8 0 12.9 8.3 4.5 14.5 2.5 20.9-1.2s6.6-8.6-2.9-12.4c-7.7-3.1-14-2-18 .7z"/><path fill="#262626" d="M26.2 143.4c-.6.6-.7 2.1.5 3.1s5.5-.2 7.1-.5c2.2-.5 7.6-1.1 8.7-3.1.5-1 .1-3.6-3.5-3.6-2.9 0-12.8 4.1-12.8 4.1z"/><path fill="#262626" d="M34.9 147.4c-.6.6-1.3 2.3-.1 3.3s6-.3 8.9-.9c1.6-.3 5.9-1.5 6.8-2.9.6-.9.7-2.8-2.4-3.1-6.5-.5-13.2 3.6-13.2 3.6z"/><path fill="#FBD7C7" d="M25.4 41c-1.8 1-3.1 2.7-2.8 7 .2 4.3-.6 6.3-1.5 10.1-.9 3.7-1.6 6.9-.7 9.1.8 2.2 4 7.2 4.8 9.8.8 2.6 2 4.7 2 4.7l3.2-3.4s-1.6-6.5-2.3-9.2-2-4.9-2-4.9 1.4-3.5 2-6.3c.4-3-2.7-16.9-2.7-16.9z"/><path fill="#FFF" d="M38.7 149.6s2.4-.2 4.9-.8c2.2-.5 5.5-1.2 6.1-2.8.7-2-2.2-1.9-3.8-2.3-1.6-.4-4-1.6-4.4-1.3-.1.4 1.6.9.3 3.6-1.3 2.4-3.1 3.6-3.1 3.6z"/><path fill="#06547A" d="M39.8 68.4l-10.5-.8s-4.2 6.6-4.7 10.6c-1.1 8.6 3.4 19 3.1 25.4-.3 6.4-1.3 9.3-1.8 14.8s.6 15.3 0 19c-.6 3.7-1.8 7.2.6 8s8.5-.3 9.3-2.9c.9-2.6.9-3.8 0-7.4-.9-3.6 0-10.3.2-14.4s.5-7.2 1.9-11.4c1.4-4.3 3.8-13.2 3.3-18.3-.7-5.3-1.4-22.6-1.4-22.6z"/><path opacity="0.2" d="M39.8 68.4l-10.5-.8s-4.2 6.6-4.7 10.6c-1.1 8.6 3.4 19 3.1 25.4-.3 6.4-1.3 9.3-1.8 14.8s.6 15.3 0 19c-.6 3.7-1.8 7.2.6 8s8.5-.3 9.3-2.9c.9-2.6.9-3.8 0-7.4-.9-3.6 0-10.3.2-14.4s.5-7.2 1.9-11.4c1.4-4.3 3.8-13.2 3.3-18.3-.7-5.3-1.4-22.6-1.4-22.6z"/><path fill="#06547A" d="M48.7 70s2.3 10.3 2.2 18.2c-.2 7.9-3.1 19.1-3.5 24.8-.6 7.8-2.3 11.8-2.9 16.7-.6 4.8-1.9 9.7-1.1 11.2.8 1.4 2.3 1.5 1.7 3.7-.5 1.9-2.8 4.7-6.3 5.1s-4.8-.1-4.9-1.8c-.2-1.8.2-3.6.2-7.1 0-3.5 0-13.8.7-18.1.7-4.3 3.1-16.5 3-22.4-.2-6-3-10.7-3.1-17.5-.4-7.1 2-14.8 2-14.8l12 2z"/><path fill="#CC291F" d="M29.2 38.7s1.6 2.8 5.4 3.7 7.7-.6 7.7-.6 3 2.4 4.1 3c1.1.6 3.9 2.8 4.3 5.9.4 3.1-.4 9-.6 11.2-.2 2.2-1 6.5-.7 8.5.4 2 .7 4 .7 4s-7.1 2.4-14.2.6c-8.9-2.3-9.6-3.3-9.6-3.3s2.2-3.6 2-6.8c-.1-3.1-.6-8.7-.6-8.7l-6.1-2.3s.5-2.7.4-4.4c-.1-1.7 0-7.2 2.4-8.2 3.3-1.4 4.8-2.6 4.8-2.6z"/><path fill="#FBD7C7" d="M54 80.4c-.5-2.7-2.7-7.8-3.3-8.5-.6-.7-.4-1.6-.4-4.3-.1-2.8-.4-8.6-.8-10.4-1 0-2.3 0-3.5.2-.9.2-2.1.3-3.2.5.1.5.2 1.1.3 1.8.6 3.7 1 10.5 1 12.2s1 4.4 2.4 6.6c1.4 2.2 5.9 10.9 5.9 10.9s-.3.4-.4 1.8 1 2.8 1.3 4c.2 1.2-.9 1.8-.8 2.1s.7 1.4 2.8.7c1.9-.6 2.8-3.5 3-5.6s-.5-2.7-1.4-4.2-2.3-5.2-2.9-7.8z"/><path fill="#825012" d="M35.3 14.5c6.3-.8 11.8 2.9 11.8 10.6 0 8.6-1.9 12.7-.2 18.2 1.1 3.4-.7 8.4-10.8 8.2-9.7-.2-11.2-4.5-11.7-6-1-3.4 1.4-8.2 1-15.6-.3-5.6 0-14.2 9.9-15.4z"/><metadata><rdf:RDF xmlns:rdf="http://www.w3.org/1999/02/22-rdf-syntax-ns#" xmlns:rdfs="http://www.w3.org/2000/01/rdf-schema#" xmlns:dc="http://purl.org/dc/elements/1.1/"><rdf:Description about="https://iconscout.com/legal#licenses" dc:title="kid" dc:description="kid" dc:publisher="Iconscout" dc:date="2017-09-20" dc:format="image/svg+xml" dc:language="en"><dc:creator><rdf:Bag><rdf:li>Icograms</rdf:li></rdf:Bag></dc:creator></rdf:Description></rdf:RDF></metadata></svg>