<?xml version="1.0" encoding="UTF-8"?><svg xmlns="http://www.w3.org/2000/svg" xmlns:xlink="http://www.w3.org/1999/xlink" version="1.1" id="Layer_1" x="0px" y="0px" viewBox="0 0 160 160" xml:space="preserve"><path opacity="0.2" d="M47.9 155.5c8.6 4.1 40.7-11 57.2-17.5 12.2-4.8 27.9-11.1 20.5-15-5.1-2.7-10.2-.7-27.3 5.5-17.8 6.5-57.6 23.6-50.4 27z"/><path fill="#FBD7C7" d="M76.5 26.7S65 24.9 61.6 24.3c-3.4-.6-4.8-1.5-7.8-1.5-3.1.1-5.5 1-9.4 1.7s-4.5.8-6.1.2c-1.6-.6-5-1.5-6.1-1.5-1.1 0-2.4 1.2-2.2 3.8.2 2.3 1.8 3.9 2.6 4 .8.2 3.6 0 5-.4s3-1.1 4.6-1.1c1.7 0 7.7.9 9.4.7 1.8-.2 4.4-.5 4.4-.5s5 1.5 11.6 2.9c6.5 1.5 8.9-5.9 8.9-5.9z"/><path fill="#262626" d="M115.1 110.4c1.2-.4 3.3-.1 3.4 1.7s-.7 4-.6 5.9c.1 1.3 1.2 3.8 1.7 7.3.4 2.5-.1 3.8-1.8 4.7-1.3.6-4.1.7-4.9-1.6-.6-1.7-1.1-8.5-1.1-8.5l3.3-9.5z"/><path fill="#FFF" d="M114.8 110.3c.8 0 2.2-.3 2 1.9s-.7 5.6-.1 7.7c.6 2.1 2.2 7.2.7 9-.8 1-3.5 1.2-4.1-.9-.5-1.7-.6-4.4-1.1-6.5-.3-1.3-1.9-2.6-1.9-2.6l4.5-8.6z"/><path fill="#06547A" d="M83.2 66.9c-1.1 3.3-2.6 10.2-2.4 15.7.1 5.5.5 21.4 3.1 25.2 2.6 3.8 9.5 6.1 14.1 8.4 4.6 2.3 11 7.2 11.9 6.8.9-.4 4.7-2.2 5.6-8.5.8-5.4-.2-6.5-1.1-6.6-.9-.1-1.6-.1-4.8-1.6s-5.9-4.5-8.6-5c-2.7-.6-4.9-1.8-4.9-1.8s.8-11.2.7-18.4C96.7 74 95.5 66 95.5 66l-12.3.9z"/><path opacity="0.2" d="M83.2 66.9c-1.1 3.3-2.6 10.2-2.4 15.7.1 5.5.5 21.4 3.1 25.2 2.6 3.8 9.5 6.1 14.1 8.4 4.6 2.3 11 7.2 11.9 6.8.9-.4 4.7-2.2 5.6-8.5.8-5.4-.2-6.5-1.1-6.6-.9-.1-1.6-.1-4.8-1.6s-5.9-4.5-8.6-5c-2.7-.6-4.9-1.8-4.9-1.8s.8-11.2.7-18.4C96.7 74 95.5 66 95.5 66l-12.3.9z"/><path fill="#06547A" d="M91.2 67.4c-3.6 1.4-8.1 3.3-11.6 4.7-3.6 1.4-9 3.6-12.2 6.9s-8 10.7-11.1 13.5-11.8 10.2-11.9 11 1 6.3 3 8.3c2 2 5.1 5.4 6.5 4.5 1.4-.9 8.4-8.7 10.2-10.9 1.8-2.1 11-14.4 12.2-15.1 1.1-.7 9.7-2.4 15-3.1 5.3-.7 12.5-1.9 14.5-8.7 2-6.8-.1-11.1-.1-11.1H91.2z"/><path fill="#FFF" d="M40.8 104.2s1.4 1 3 1.1c1.6.1 2 .4 2 .4s1.4 1.2 2.7 2.9c.9 1.1 1.6 2.9 1.6 2.9s-.3 4-.5 4.6c-.2.6-.6.8-.6.8s-2.1-2.6-4-4.6-2.1-2.6-2.7-4.7c-.6-2-1.5-3.4-1.5-3.4z"/><path fill="#9C3" d="M81.7 25.9c-3.6-.3-6.5-.5-9.7-.8S63.2 24 63.2 24s-1.6.1-2 3.6c-.2 2.8.2 5.8.7 5.9s10.1 1.8 12.7 4.6c2.1 2.3 3.7 6.5 4.9 10.7 1.4 4.6 3.2 10 3.1 12.9-.1 3.4-.5 7.6-.6 8.1-.1.5 3.8-1.1 6.9-1.1 12.6-.2 17.8 5.7 17.8 5.7s.9-7.1.8-14.9c-.1-3.4-1-9-1-9s2.2-.5 4.4-2.1c2.1-1.6 2.6-3 2.5-3.4-.1-.4-4.2-8.3-6.7-10.9-2.4-2.7-7.4-6.4-9.8-7.2-7.2-2.4-15.2-1-15.2-1z"/><path fill="#FBD7C7" d="M91.7 22.9s-.3 1.3.9 2.3 3.3 1.9 3.3 1.9-4.8 8.6-9.5 8.2c-4.8-.4-5.1-5.2-5.1-5.2s-1.7.4-3.1-.8c-1.4-1.2-5.7-8.5-4.8-15.4.9-7 8.1-11.5 13.8-9.7 5.8 1.8 8.9 6.2 7.9 11.4-1.1 5.8-3.4 7.3-3.4 7.3z"/><path fill="#825012" d="M89.6 21.2s1.6-4.2 3.2-3.6c1.5.5.6 3.3.6 3.3s3.4-4.3 1.9-11.5-11.7-9-16.8-5.8c-5.8 3.6-8.8 13.3-3.7 16.3s9.3-1.1 11.2-1.4c1.9-.3 2 2.3 3.6 2.7z"/><path fill="#FBD7C7" d="M106.9 49.3s1.1-1.4 2.9-2.6c1.7-1.2 2.4-1.2 2.4-1.2s4 5 4.8 6.2c.7 1.1 1.9 2.9.2 4.7-1.7 1.8-4.2 3.1-6 3.9s-3.8 3.7-6.2 3.6c-2.4-.2-3-2-2.7-3.4.2-1 1.1-1.7 2.1-2.1 1.6-.7 1.5-1.2.3-.9-1.2.3-2.3.7-2.7.3-.4-.4.6-1.3 1.4-1.5.8-.2 2.6-1 3.4-.7.8.3 1.1 1 1.6 1 .5.1 2.8-1.5 2.5-2-.5-1-4-5.3-4-5.3z"/><path fill="#262626" d="M35.8 100.6c1.8-1.3 4.3.5 6.1 3.4 1.8 3 3.7 6.9 5.3 8.6 1.6 1.7 2.1 2.6 2.3 3.5.2 1.2-1.1 2.7-2.7 2.2-1.8-.6-7.5-6-8.9-7.2-1.3-1.4-6.1-7.5-2.1-10.5z"/><metadata><rdf:RDF xmlns:rdf="http://www.w3.org/1999/02/22-rdf-syntax-ns#" xmlns:rdfs="http://www.w3.org/2000/01/rdf-schema#" xmlns:dc="http://purl.org/dc/elements/1.1/"><rdf:Description about="https://iconscout.com/legal#licenses" dc:title="kid" dc:description="kid" dc:publisher="Iconscout" dc:date="2017-09-20" dc:format="image/svg+xml" dc:language="en"><dc:creator><rdf:Bag><rdf:li>Icograms</rdf:li></rdf:Bag></dc:creator></rdf:Description></rdf:RDF></metadata></svg>