<?xml version="1.0" encoding="UTF-8"?><svg xmlns="http://www.w3.org/2000/svg" xmlns:xlink="http://www.w3.org/1999/xlink" version="1.1" id="Layer_1" x="0px" y="0px" viewBox="0 0 160 240" xml:space="preserve"><path fill="#825012" d="M66.6 67.2c-5.8.4-8.4 3.1-10.2 8.3-1.8 5.2-.9 6.5-1.8 7.9-.8 1.2-2.1 1.1-3.6.7 5.4 7 7.3 1.1 7.3 1.1s-1.6-7.7.2-9.9c1.4-1.7 3.5-2.2 5.4-1.7l8.6-4.7c-1-.5-2.7-1.9-5.9-1.7z"/><path fill="#262626" d="M113.1 156.1s-.3-2.6 2.2-3.2c1.9-.4 3.3-.1 6.5 3.3s6.4 6.1 6.8 10.3c.3 3.3-2.2 5.4-4.5 5.3-1.9-.1-4.5-2.4-6.3-5.3s-4.7-10.4-4.7-10.4z"/><path fill="#262626" d="M77.4 203.8c.6-.3 2.9-.8 3.7.7.7 1.5-.1 5.5.1 7.6.2 2.1.5 7.2-1.5 11.3-1.5 3.1-5.3 4.1-7 2.7-1.7-1.4-1.8-5-.8-6.7.8-1.8 5.5-15.6 5.5-15.6z"/><path opacity="0.2" d="M69 227.2c7.3 3.5 18.5-2.7 32.6-8.2 10.4-4.1 43.3-18 39.3-21.2-3.8-3.1-30.5 7.9-45.1 13.1-15.2 5.5-33 13.4-26.8 16.3z"/><path fill="#FBD7C7" d="M59.1 93.5s0 3.2-2.7 3.1c-2.7-.1-10-1-13.1-2.3-3.1-1.1-12.2-4.2-13.3-5.3-1-1-3.5-4.4-5.9-6.5s-5.4-4.2-7-6.3c-1.8-2.4-6.3-6.6-8.8-6.6-1.2 0-3 1.7-2.8 2.6s3.5 3 4.2 3.6 2.3 1.9 1.6 1.9c-.7 0-3.4.1-3.9.3-.5.3-.1 1.5 1.1 1.5 1.2.1 3.7.5 4.2.1s1.4-.6 1.4-.6 3 5.3 4.4 7.7 4.4 6.9 6.9 7.9c2.4 1 20.7 8.2 21.4 12.6s1.2 15.4 2.8 21.5c1.7 6.1 6.8 20.1 6.6 21.8s-1.8 8.6-1.7 17.8-.2 20.7.8 21.9c1 1.2 11.4 12.4 12.9 15.2s3.1 4.1 3.2 5.9c.1 1.7-.2 9.8 3 10s5.7-14.1 5.1-16.2c-.6-2.1-1.8-2-2.8-2h-2.3s-1.9-7.8-3.5-11.2c-1.6-3.3-4.9-6.2-4.9-6.2s1.6-14.8 2.8-17.5c1.2-2.7 2.5-7.7 2.5-7.7h2.9s4.2 4.7 7.7 8.2 14.9 16.5 18.4 16.2 8.6-7.7 10.8-11.2c2.2-3.5 4.8-7.3 6.1-7.4 1.4-.1 4.2 5.7 7 3.5s-.1-7.9-2.4-10.2c-2.4-2.4-3.4-4.8-6.5-4.8-3.1.1-2.9 3.2-2.6 4.6.3 1.4-.3 3.1-2.1 3.7s-5 1.7-7.7 3.5c-2.2 1.4-3.3 3.7-3.3 3.7s-8.3-12.4-10.4-17.3c-2.1-4.9-3.3-9.6-5.3-12.7-2.1-3.1-8-5.5-8-6.9-.1-1.4 2.3-16.5 5.2-19.8 2.9-3.3 11.7-9.1 16.3-10.6 4.6-1.5 8.8-1.9 10.8-3.9 2.1-2 13-14.5 14.9-15.4 1.9-.9 4.3-2.3 5.5-3 1.2-.7 5.3-3.9 5.9-5s.3-4.6-2.3-4.9c-2.6-.3-6.1 3.5-7.9 3.2-1.7-.4-2.5-1.4-2.8-2.6-.3-1.2-.8-2.3-1.6-2.4s-1.2.1-.7 1.1.6 2.6.5 3.5c-.1.8.3 3-.1 4.1-.5 1.2-1 3-3.7 4.9-2.3 1.6-5.6 3.6-8.9 6.6-3.3 3-3.3 3.9-4.6 4.4s-7.9 2.4-14.3 5.2c-6.4 2.8-12.4 3.3-15.1 1.4-2.7-1.9-4.2-4.1-2.9-6.2 1.4-2.2 9.5-7.2 9.9-14.1s-8-14.1-16.5-9.3-9 18.6-8.4 20.6c.5 2 4 2.3 4 2.3z"/><path fill="#825012" d="M68.3 77.6c1.7 4.5 2 7.5 2.7 7.9s2.5-.5 3.1.4c.9 1.1 0 2.6-2 3.9-1.4.9-3.7 2.1-2.8 3.7.6 1.1 4.5 3 8.8 0 4.3-3 6.3-10.5 4.3-16.6-2-6.1-8.7-7.7-9.6-7.9-.9-.2-2.6-2.1-6.2-1.8-5.8.4-8.4 3.1-10.2 8.3-1.8 5.2-.9 6.5-1.8 7.9-.8 1.2-2.1 1.1-3.6.7 3.7 5 4.1 1.1 4.1 1.1s1.7-7.7 3.4-9.9c2.7-3.4 8-2.2 9.8 2.3z"/><path fill="#F90" d="M119.8 157.1s2.4 2.8 3.7 4.1c1.3 1.3 4.2 4.9 2.8 7.8-1.2 2.5-3.1 2.3-4.4 1.6-1.9-.9-4.2-4.2-4.2-4.2s2-.4 2.6-2.2c.8-2.5-.5-7.1-.5-7.1z"/><path fill="#F90" d="M79.8 206s-.1 4.4-.2 6.2c-.1 1.7.1 8.2-2.1 11-2 2.5-5.2 2.9-5.7 0-.6-3.3-1-11.4-.2-12.2 4.3 2.3 8.2-5 8.2-5z"/><path fill="#CC291F" d="M51.9 139.2c.8 3.2-2.5 18.8-3.2 23.1-.8 4.6-.4 6.2 1.6 7 2.8 1.2 5.3-1.8 10.7.4 12.5 5.1 24.8-1.2 30.9-6.6s5.1-6.6 5.1-6.6-4.8-12.6-10-16.7c-4.4-3.4-9.1-5.8-9.4-7.4-.8-5.1 2.9-17.3 2.9-17.3s-2.1-2.2-2.9-6.1c-.8-3.9-.4-8-.4-8s-2.1-.1-3.5-.7-1.9-1.2-1.9-1.2-4.2 16.3-11.5 14.7c-7-1.5-3.1-17.9-3.1-17.9s-2.3.3-3.5.1c-1.2-.3-4.1-.8-4.1-.8s1.4 2.8.3 6.1c-1.1 3.3-3.5 7.7-3.5 7.7s.9 9.8 1.2 14.4c.4 4.7 3.5 12.6 4.3 15.8z"/><path fill="#FBD7C7" d="M118.8 167.1s2-.6 2.6-2.2c.5-1.5.3-3.7.3-3.7s3.1 3.9 1.5 6.3-4.4-.4-4.4-.4z"/><path fill="#FBD7C7" d="M71.7 213.4s1.1.1 2.6 0c1.4-.2 3.1-1.6 3.1-1.6s.4 8-3.3 8.3c-3 .1-2.4-6.7-2.4-6.7z"/><metadata><rdf:RDF xmlns:rdf="http://www.w3.org/1999/02/22-rdf-syntax-ns#" xmlns:rdfs="http://www.w3.org/2000/01/rdf-schema#" xmlns:dc="http://purl.org/dc/elements/1.1/"><rdf:Description about="https://iconscout.com/legal#licenses" dc:title="kid" dc:description="kid" dc:publisher="Iconscout" dc:date="2017-09-20" dc:format="image/svg+xml" dc:language="en"><dc:creator><rdf:Bag><rdf:li>Icograms</rdf:li></rdf:Bag></dc:creator></rdf:Description></rdf:RDF></metadata></svg>