<?xml version="1.0" encoding="UTF-8"?><svg xmlns="http://www.w3.org/2000/svg" xmlns:xlink="http://www.w3.org/1999/xlink" version="1.1" id="Layer_1" x="0px" y="0px" viewBox="0 0 80 240" xml:space="preserve"><path opacity="0.2" d="M27.5 215.9c-8.3 5.8-8.9 10.4 0 15.2 9.8 5.2 17 2.9 24.6-1.5 7.6-4.3 7.7-10.2-3.4-14.6-9.1-3.6-16.5-2.3-21.2.9z"/><path fill="#262626" d="M24.4 222c-.7.7-.8 2.3.7 3.5 1.5 1.2 6.5-.2 8.3-.6 2.6-.6 8.5-1 9.9-3.5.6-1.1.6-4.5-3.6-4.5-3.6-.1-15.3 5.1-15.3 5.1z"/><path fill="#F90" d="M29.4 223.6s3.5-.7 6-1.1c2.4-.4 6.8-1.1 7.3-2.2.6-1.2.4-3.9-3.4-4-3.1 0-3.6-.4-5.7-.5 0 .6 1.9.8.7 2.8-1.3 2-4.9 5-4.9 5z"/><path fill="#262626" d="M34.5 226.7c-.7.7-1.6 2.7-.1 3.9 1.5 1.2 7 .3 10.3-.9 1.8-.7 6.4-1.1 7.6-3.1.7-1.1 1.1-4.2-2.5-4.5-7.6-.6-15.3 4.6-15.3 4.6z"/><path fill="#FBD7C7" d="M23.4 95.9c-2.1 1.2-3.6 3.1-3.3 8.2.3 5-.7 8-1.8 12.4s-1.8 8.1-.9 10.6c1 2.6 4.7 9.4 5.6 12.4s1.6 7.1 1.6 7.1l3.8-4s-1.1-9.2-2-12.3-2.3-6.7-2.3-6.7 1.7-4.1 2.3-7.4c.7-3.3-3-20.3-3-20.3z"/><path fill="#FBD7C7" d="M30.2 84.9s1.4 5.4.3 6.5c-1.1 1.1-4.6 3.7-5.9 4s-3.7 2.7-3.5 5c.2 2.3 1.6 5.7 2 8.4.4 2.6 1.8 5 3.2 9.4s4 8.1 2 11.6-6.9 9.6-5.9 16.4 3.9 15.7 4.3 24.2c.4 8.5 1.1 8.9-.6 14.2-1.8 5.3-2 10.8-1.1 19 .9 8.2 2.3 12.3.8 14.4-1.5 2.1-2.1 4.5-.6 5.5.9.6 2.4.7 4.3.2 2.1-2.2 6.8-5.6 4.4-7.6-.5-.4-.6-.4-1-1.4-.6-1.6-.9-6.2-.2-9.4s1.3-6.3 1.7-11.7c.4-5.4.6-6.4 1-7.3.4-.9 1.6-6.5 1.6-6.5s-.4 5.3-.1 7.3c.2 2.1.4 3.2-.3 6.2-.6 3-2.4 7.2-2.1 10.5.4 3.3 2.3 13.2 2.1 15.6s-2.1 5.3-2.4 6.4c-.3 1.1-.8 3.7 2.4 3.7s13.7-1.9 14.1-4c.4-2.1-5.4-2.6-6.7-3-1.3-.4-2.5-1.3-2-5.2s4.1-18 4.4-19.4.6-5.9.6-8.7 4.5-21.4 5.1-25.3c.6-3.9.3-14 .1-18.9-.1-4.9-2-11.1-2-13.3 0-2.2 3.1-18 2.6-21.1-.5-3.1-.7-7-3.5-8.7-2.8-1.8-7.3-5-7.8-7.2s-.2-7.2.5-8.1c.7-.9 4-.4 4.6-2.5.6-2.1 2.8-10.1-1.3-17S28.5 61.9 26 68.9c-2.3 7 .8 14.6 4.2 16z"/><path fill="#825012" d="M49.9 84.9c-2.1 3.1-9.9 4.6-16.1 4s-13.7-6.7-10.9-18.7S39 59.4 43.6 62.3c3.8 2.4 7.5 6 6 11.1-1.6 5.4-3.9 10.4.3 11.5z"/><path fill="#F90" d="M39 229.3s2.8-.3 5.8-1c2.6-.6 6.5-1.4 7.1-3.3.8-2.3-2.2-3.2-4.6-3.3-1.9 0-3.6-.1-4.7-.2 0 .3 1.5.3-.1 3.4-1.3 3.1-3.5 4.4-3.5 4.4z"/><path fill="#CC291F" d="M51.8 131.1c.1 4.4 11.1 26.3 8.9 32-.6 1.6-2.7 3.1-8.8 4.8-6.1 1.7-13.5 2-17.5-2.1s-13.8-5.1-15.8-6.2-.6-10.9 1-16.6c1.5-5.6 7.7-13.9 7.7-13.9 1-2.7-.4-8.6-1.9-12-1.5-3.4-3.4-11.5-3.6-12.3-.2-.8-1.6-4.5-.7-6.5.9-1.9 3.3-3.3 4.3-3.7 1-.4 3.3-2.1 3.3-2.1s.3 3 4.8 4c4.5 1.1 8.8-1.2 8.8-1.2s3.3 3.8 5.3 4.9c2 1.1 5.7 4.3 5.5 11.2-.1 7.1-1.4 15.3-1.3 19.7z"/><path fill="#FBD7C7" d="M42.7 108.5c-.5-3.8 4.8-8.7 7.6-6.1s2.8 5 2.4 7.4c-.4 2.4-1.3 3.5-.9 5.6.4 2.1.9 9 .9 12.3s-.2 5.1.5 6c.7.9 3.2 6.9 3.8 10 .6 3.1 2.3 7 3.5 8.9 1.1 1.8 1.9 2.5 1.7 5-.2 2.5-1.3 5.9-3.5 6.6-2.5.8-3.3-.5-3.3-.9s1.3-1 1-2.4c-.3-1.4-1.6-3-1.5-4.7.1-1.7.4-2.1.4-2.1s-5.3-10.2-7-12.8c-1.7-2.6-2.8-5.7-2.8-7.7s-.4-10.8-1.1-15.2c-.7-4.4-1.3-6.3-1.7-9.9z"/><path fill="#FBD7C7" d="M44.5 222.1c0 .2.3 1 0 2.2-.3 1.3-1.4 2.5-1.4 2.5s5.7-.1 5.3-3.5c-.1-1.2-3.1-1.2-3.9-1.2z"/><path fill="#FBD7C7" d="M35.6 216.5c.2.3.5.4.1 2-.3 1.3-1.3 2.2-1.3 2.2s5.1-.3 5.1-2.3c-.1-1.5-3.2-1.9-3.9-1.9z"/><metadata><rdf:RDF xmlns:rdf="http://www.w3.org/1999/02/22-rdf-syntax-ns#" xmlns:rdfs="http://www.w3.org/2000/01/rdf-schema#" xmlns:dc="http://purl.org/dc/elements/1.1/"><rdf:Description about="https://iconscout.com/legal#licenses" dc:title="kid" dc:description="kid" dc:publisher="Iconscout" dc:date="2017-09-20" dc:format="image/svg+xml" dc:language="en"><dc:creator><rdf:Bag><rdf:li>Icograms</rdf:li></rdf:Bag></dc:creator></rdf:Description></rdf:RDF></metadata></svg>