<?xml version="1.0" encoding="UTF-8"?><svg xmlns="http://www.w3.org/2000/svg" xmlns:xlink="http://www.w3.org/1999/xlink" version="1.1" id="Layer_1" x="0px" y="0px" viewBox="0 0 160 240" xml:space="preserve"><path opacity="0.2" d="M27.9 235c7.1 3.4 33.1-9 46.8-14.4 10.1-4 23.8-9.2 17.7-12.4-4.2-2.2-9.2-.6-23.4 4.5-14.8 5.4-47.1 19.5-41.1 22.3z"/><path fill="#FBD7C7" d="M100.4 70.4c-.4.8-1.2 7.1 0 8.7.6.8 2.5 2.6 5.6 2 3.1-.6 4.1-2 5.7-3s6.6-5.8 9.5-7.6c2.9-1.7 6.7-3.9 6.7-3.9s1.9-6 4.8-9 5.2-7.3 5.9-9c.7-1.7 3.1-6.6 6.1-8.6s5.6 3.1 3.5 5.3c-2.1 2.2-4.6 3.3-4.9 4.1-.3.8-3.6 8.5-5.5 12.5s-3.2 7.5-3.9 8.4-13.6 9.7-16.2 13.4c-2.6 3.8-6.4 7.7-6.8 10.4-.5 2.7-1.9 14.1-3.8 18.8-1.8 4.7-4.5 14.2-4.2 17.4.3 3.2 1.6 8.4 1.6 13.9s-.1 17-.9 20.4c-.8 3.3-2.2 7-2.7 8.7-.5 1.7-7.3 15.8-9.8 21.9s-3.4 7.1-3.4 7.1l-.6 7.6s-7.6-8.7-7.6-9.3c.1-.6 3.6-2.4 4.5-3.5s2-7 2.6-11.2c.6-4.2 2.9-12.3 4.4-15.4s2.1-5.1 1.6-8.1c-.6-3-3.4-21.6-3.4-21.6s-3.1-2-4.5-3.7c-1.4-1.7-2.2-2.9-2.2-2.9s-5.1 6.3-8.4 9.4c-3.3 3.1-7.3 9.4-8.3 10.5-1 1.1-2 2.2-3.3 2.5-1.3.3-3 2.7-3.9 3.5-.8.8-5.5 4.1-7.2 5.2s-2 2.9-3.3 4.1c-1.3 1.1-2.8 2-3.4 2.5s-1.6 1.9-1.6 1.9-.5-9.2 1.1-10.3 5.4-8.8 7.6-10.6c2.1-1.7 5.7-4.1 5.7-4.1s7.4-11.1 11-18.1c3.6-7 6.4-15 9.6-18 3.2-2.9 5.8-5.2 5.8-5.2s-.9-6.3-2.2-9c-1.3-2.8-2.2-5.9-3.1-7.9-.9-2-3.4-5.1-6.4-7.3-2.9-2.2-9.3-6-13-7.4-3.7-1.4-5.5-2.3-8.4-6.4-2.8-3.8-9.8-14.9-10.3-15s-4.4-1.5-6.7-2-5.6-1.8-5.6-2.2c0-.4.6-1.7 2.4-2s7.2 0 7.6-.2c.4-.2 1.8-1.1 2.5-2.1s1-2.3 1.9-2.6c.9-.3 1.5.2 1.3.5-.2.3-1.2 1-.9 2.1.2 1.2-.4 3.9.5 5s6.4 6.6 9 9.3c2.6 2.7 5.8 7.2 7.1 7.9 1.2.6 9.8 3.8 14.4 6.6 4.7 2.8 11 4.6 12.6 3.7 1.6-.9 3.4-2.4 3.6-4.1s-9.6-4.5-9.3-11.8c.3-7.3 5.3-10.4 9.6-11.5 7.9-2.1 12.8 7.7 13.5 13.1s-3.6 6.2-3.6 6.2z"/><path fill="#825012" d="M85.1 50.2c-3.6 1.6-8.4 7.6-7 14.6 1.2 6.1 4.8 9.6 8.7 11.2 4.2 1.7 10.7.7 15-2.4 4.3-3.1 6.1-8.3 6.1-8.3s-2.6 1.1-3.2-1.5c-.6-2.6-1.7-10.4-5.5-12.8-4.5-2.8-9.1-3.1-14.1-.8z"/><path fill="#F90" d="M41.4 180.8s2-4.6 2.9-5.7c.9-1.1 1.2-.8 1.2-1.8s.3-2.9.6-4.1c.2-1.2-.8-3.7-.8-3.7l-3.9 15.3z"/><path fill="#F90" d="M83 205.2s2.1.6 4.1-1c.7-.5.6-1.7.6-1.7l.2-.3s.8 1.5.3 3-.5 6.6-1.1 7.1c-.7.5-.5-1.8-1.3-3.2-.9-1.4-2.8-3.9-2.8-3.9z"/><path fill="#CC291F" d="M82.8 106.5s-7.2 5.8-11.7 11.5c-4.6 5.9-8.6 15.8-7.5 18.2 1.1 2.4 14.1 2.6 16 5.3 1.8 2.8 8.1 12.7 19.5 7.4s13.9-8.8 13.9-10.7-4.6-16.4-5.7-21.2c-.6-2.6 2.2-8.4 3.4-13.9.9-4.5.6-9 .6-9s-2.9-2.8-3.7-6.6-.5-6.9-.5-6.9-3 .6-4.3 0c-3.8 2.1-14.7 2.5-16.2-2.4-1.6.1-2.7 0-2.7 0s-1.1 3.9-3.2 7.5c-1.2 2-3.4 3.4-3.4 3.4s2.2 4.3 2.5 6.2c.7 5.6 3 11.2 3 11.2z"/><path fill="#262626" d="M44 163.4c1.6.9 2.1 2 1.4 5.2s-2 5.3-2.5 8-1.7 6.1-3.7 7.9c-1.9 1.6-4.4 1.7-6.4.6-2.6-1.4-4-5.7-.7-10.3 3-4.1 4.9-7.1 6.1-8.9 1.2-2 4-3.6 5.8-2.5z"/><path fill="#262626" d="M79.5 200.8c-.6-.1-1.9.3-2.1 1.5-.2 1.3.5 2.8 1.3 3.9s1.4 2 2.6 3.5c1.3 1.5 3.2 3.3 4 3.4 1.2.2 1.7-.6 1.7-.9.1-.6-.3-1.8-.9-2.9-.6-1-1.6-1.8-2.2-3.4-.3-.6-.8-1.7-2-3.1-1.1-1.4-1.8-2-2.4-2z"/><metadata><rdf:RDF xmlns:rdf="http://www.w3.org/1999/02/22-rdf-syntax-ns#" xmlns:rdfs="http://www.w3.org/2000/01/rdf-schema#" xmlns:dc="http://purl.org/dc/elements/1.1/"><rdf:Description about="https://iconscout.com/legal#licenses" dc:title="kid" dc:description="kid" dc:publisher="Iconscout" dc:date="2017-09-20" dc:format="image/svg+xml" dc:language="en"><dc:creator><rdf:Bag><rdf:li>Icograms</rdf:li></rdf:Bag></dc:creator></rdf:Description></rdf:RDF></metadata></svg>