<?xml version="1.0" encoding="UTF-8"?><svg xmlns="http://www.w3.org/2000/svg" xmlns:xlink="http://www.w3.org/1999/xlink" version="1.1" id="Layer_1" x="0px" y="0px" viewBox="0 0 80 160" xml:space="preserve"><path opacity="0.2" d="M27.3 135c-8.2 5.7-5.6 8.7 3.2 13.4 9.6 5.2 13.5 4.5 21 .2s7.6-10-3.4-14.4c-8.8-3.7-16.1-2.4-20.8.8z"/><path fill="#FBD7C7" d="M22 52.7c-.4 2.5-1.2 6.7-.9 8.5.2 1.8 1.5 7.2 2.2 9.9s1.6 6.9 2 8.3c.4 1.5.7 2.7.7 2.7l2.4-4.5s-.8-10.9-1-15.3c-.2-4.5 1.7-8.7 1.7-8.7l-7.1-.9z"/><path fill="#262626" d="M35.2 147.3c0 1.2.3 2.9 2.5 3s6.2-1.8 8.5-2.5 6.8-2.3 7.2-5.4c.4-3.1-5.2-3.5-8.3-1.6-3.2 1.7-9.9 6.5-9.9 6.5z"/><path fill="#FFF" d="M36.5 147.4c1.2.7 5.7-.2 8.2-.9s6.9-2.3 7.5-4.6c.6-2.4-4-2.4-5.3-1.8s-10.4 7.3-10.4 7.3z"/><path fill="#262626" d="M26.9 141.9c-.3 1.1-.7 3 1.2 3.7 1.8.7 3.6-.1 6.1-1.1 2.5-1 10.5-3.1 11.2-5.3.7-2.2-3.2-4.1-7-3.2-3.9.9-11.5 5.9-11.5 5.9z"/><path fill="#06547A" d="M26.3 75.8c-.9 1.6-1.5 6.1-.7 9.4.8 3.3 2.3 16.6.9 23.7-1.4 7.1-2.3 25.8-2.2 28.2.1 3.8.7 6.5 2.6 6.8 6.8 1.1 11.2-3.7 11.2-3.7l1.7-62-13.5-2.4z"/><path opacity="0.2" d="M26.3 75.8c-.9 1.6-1.5 6.1-.7 9.4.8 3.3 2.3 16.6.9 23.7-1.4 7.1-2.3 25.8-2.2 28.2.1 3.8.7 6.5 2.6 6.8 6.8 1.1 11.2-3.7 11.2-3.7l1.7-62-13.5-2.4z"/><path fill="#06547A" d="M33.4 78.6c-.4 2-1.9 5.2-.9 7.9.9 2.7 2.3 4.8 3.3 5.8s2.4 6.5 1.8 15.2c-.5 8.7-3.2 19.6-3.9 25-.7 5.4-1.2 14.4.9 15.7 2.2 1.3 10.6.2 12.5-2.7 2.9-4.3.7-7.5 1-13.1.2-3.2 1.4-11.5 2.7-20.2s1.6-21.7.5-27.8c-1.1-6.1-1.2-6.5-1.2-6.5l-16.7.7z"/><path fill="#FBD7C7" d="M36.5 10.2c-5.1 1.8-9.4 6.5-6.9 13.1s5.2 8.1 3.3 10.5-4.2 1.6-4.2 1.6.9 3.3 5.9 4.7c5 1.4 10.8-.4 10.8-.4s-2.1-1.1-2.3-2.5.2-4.9 1.5-5.7 4.5-3.6 4.9-6.8c.4-3.3.7-9.9-2.2-12.3s-6-3.9-10.8-2.2z"/><path fill="#825012" d="M46 26.6s1.3-.7 1.3-2.9 0-4.1 1.3-4.6c1.3-.4 2.4-1.6 1.6-4.6-.8-3-8.8-10.3-17.7-4.7-7.8 4.9-4.8 14-2.9 17.3s3.6 4.9 6 5c2.4.1 6.5-1.8 7.3-4.5s1.2-3.4 2.2-3.3c1.2 0 .9 2.3.9 2.3z"/><path fill="#9C3" d="M31.7 34.8s-3.6 1.6 3.5 3.8c7.1 2.2 9 .1 9 .1s5.6 3.7 7.3 6.2 2 4.7 2 8.2-.5 10.2-.5 10.2l-2 .9.2 16.2s-7.4 2.5-15.6.8-9.4-5.2-9.4-5.2 1.3-7.7 1.3-11.5c0-3.9-.4-7.8-.4-7.8s-2.1-.4-3.5-1.2c-1.5-.8-2.3-1.6-2.3-1.6s-.6-12.2 2-15.4 8.4-3.7 8.4-3.7z"/><path fill="#FBD7C7" d="M45.8 64.6s1.3 0 3.1-.1 3.2-.8 3.2-.8.4 5.7.6 6.2c.2.5 2.4 3.6 3 8s.9 6.5 1.4 7.8c.5 1.3 1.5 5.7 1.2 7.4-.4 1.7-2.8 5.3-4.6 5.7-1.8.4-2.3 0-2.1-.7.1-.8 1.4-1.3 1.4-2.9s-1.2-3.6-.6-5.3c.5-1.6 1-1.4.5-2.7-.5-1.3-1.8-4.4-3.6-8.1-1.8-3.7-3-6.5-3.2-8.6-.3-2-.3-5.9-.3-5.9z"/><metadata><rdf:RDF xmlns:rdf="http://www.w3.org/1999/02/22-rdf-syntax-ns#" xmlns:rdfs="http://www.w3.org/2000/01/rdf-schema#" xmlns:dc="http://purl.org/dc/elements/1.1/"><rdf:Description about="https://iconscout.com/legal#licenses" dc:title="kid" dc:description="kid" dc:publisher="Iconscout" dc:date="2017-09-20" dc:format="image/svg+xml" dc:language="en"><dc:creator><rdf:Bag><rdf:li>Icograms</rdf:li></rdf:Bag></dc:creator></rdf:Description></rdf:RDF></metadata></svg>