<?xml version="1.0" encoding="UTF-8"?><svg xmlns="http://www.w3.org/2000/svg" xmlns:xlink="http://www.w3.org/1999/xlink" version="1.1" id="Layer_1" x="0px" y="0px" viewBox="0 0 80 160" xml:space="preserve"><path opacity="0.2" d="M25.7 134.8c-8.2 5.7-7.2 11 1.6 15.7 9.6 5.2 15.1 2.1 22.6-2.1 7.5-4.3 7.6-10-3.4-14.4-8.9-3.7-16.2-2.4-20.8.8z"/><path fill="#FBD7C7" d="M25.4 55.4c-1.1 1.9-2.5 4.2-3.2 8.2-.7 4-.4 8.9-1.2 11.5-.8 2.5-1.6 6.7-.6 9.6s2.2 4.9 4.1 3.7c1.9-1.2.1-5 .2-6.4.1-1.3 1.2-4 .9-5.3-.3-1.4-.9-1.2-.5-2.3.4-1.1 3.3-9.4 3.3-9.4l-3-9.6z"/><path fill="#262626" d="M31.4 135.3c-.9 1.5-5.1 4.4-6.3 5.3-1.8 1.2-3.5 4.9 1.1 5.7s7.9-3 10.3-4.1c2.4-1.1 4.9-3.3 6.7-3.6 1.8-.2-.7-5.6-.7-5.6l-11.1 2.3z"/><path fill="#FFF" d="M31.5 134.8c-.2 1.4-7.2 5.9-7.2 7.5s3 2.6 5.6 1.9 5.7-3.6 7.8-4.6c2-1.1 4.2-1.2 3.8-3.3-.4-1.9-10-1.5-10-1.5z"/><path fill="#262626" d="M40.6 139.5c-2.7 2.5-8.1 6.1-8.4 7.8-.4 2.2 1.7 3.8 6 3.3 4.2-.6 6-3.4 8.3-4.7 2.3-1.2 3.6-1.9 3.6-3 0-1.2-9.5-3.4-9.5-3.4z"/><path fill="#FFF" d="M41.2 139s-2.3 2-6.6 5.9c-.9.8-3.7 2.9 1 3.7 5.3.9 8-3.1 10-4.3s3.7-1.4 3.7-3c-.1-1.6-8.1-2.3-8.1-2.3z"/><path fill="#06547A" d="M25.6 76.3c-.1 2.2-1.4 13.8-1 19.8s2.5 14.5 3 20.6.8 20.7.8 21.6c0 .9 3.2 1.7 6.5 1.7s7.2-2.4 7.2-2.4L38 81.9l-12.4-5.6z"/><path opacity="0.2" d="M25.6 76.3c-.1 2.2-1.4 13.8-1 19.8s2.5 14.5 3 20.6.8 20.7.8 21.6c0 .9 3.2 1.7 6.5 1.7s7.2-2.4 7.2-2.4L38 81.9l-12.4-5.6z"/><path fill="#06547A" d="M30.6 79.9c-.1 2.5.4 8.7 1.3 9.9 1 1.2 1.7 3.3 2.1 7.8.4 4.5 2.4 15.3 2.9 19.1.5 3.9 1.5 12.6 2.1 20.4.3 3.8-2.2 4.6 3.8 6.3s8.9.1 10-1c1.1-1 .4-3.6.3-7.5-.1-4-2-18.5-3-22.5-1.1-3.9-.4-13.7.6-20.1 1-6.4-2.7-14.6-2.7-14.6l-17.4 2.2z"/><path fill="#FBD7C7" d="M33.5 33c-1.3 2.8-4.1 3.2-4.1 3.2s-.4 6.5 4.6 7.2 13.8-5 13.8-5-3.5-2.4-4.1-4.8.2-9.5.2-9.5L33.5 33z"/><path fill="#9C3" d="M32.1 33.4c-2.1.4-7.3 1.7-7.9 3.7s-.4 12.4-.4 14.3c0 2 1.1 8.1 1.1 14.5s-.8 9.6-.7 10c.2.4.4 6.2 9.7 7.1S49 79.4 49 79.4V63.9s2.7-.2 3.8-.8c1.6-.8 2.6-1.6 2.6-1.6s.7-11.7-1.1-15.4-8.6-9.3-8.6-9.3S39.5 42 35 41.5c-5.3-.7-2.9-8.1-2.9-8.1z"/><path fill="#FBD7C7" d="M48.4 63.4s2.5.3 3.9-.1c1.4-.5 2.9-1.4 2.9-1.4s1.4 5.3 1.1 7.4c-.3 2.1-3 16.9-3.8 19.6-.7 2.7-1.6 4.8-3.7 7.2-1.8 2-4.1 2.8-5.7 2.8s-2.3-.9-1.9-1.5 1.6-1 2.2-2.6c.6-1.6.9-2.8.9-2.8s-.6-.3-1.1.3-.8 2.1-1.7 2c-.9-.1-.7-1.5-.1-2.6.6-1 .7-2.1 1.9-2.7s4.6-2.1 4.8-2.5.6-7.7 1-10.6c.4-2.9.9-4.6 1-6.3.2-1.8-1.7-6.2-1.7-6.2z"/><path fill="#FBD7C7" d="M28.5 15.2c-1.6 2.6-1.5 10.7-.5 14 1 3.3.9 6.1 4.2 5.9s9.3-3.6 11-4.9c1.6-1.3 5.9-4.1 5.7-12.5-.3-8.5-14.3-12.3-20.4-2.5z"/><path fill="#825012" d="M42.2 27.4s2.7-4.7 4.4-3.3c1.3 1-.5 3.3-.5 3.3s6-5.9 2.7-13.5c-3.3-7.7-15.1-7-19.6-1.7-4.5 5.5-3.3 9.6.5 10.5 4.4 1 9.3-1.2 10.9.4 1.5 1.5 1.6 4.3 1.6 4.3z"/><metadata><rdf:RDF xmlns:rdf="http://www.w3.org/1999/02/22-rdf-syntax-ns#" xmlns:rdfs="http://www.w3.org/2000/01/rdf-schema#" xmlns:dc="http://purl.org/dc/elements/1.1/"><rdf:Description about="https://iconscout.com/legal#licenses" dc:title="kid" dc:description="kid" dc:publisher="Iconscout" dc:date="2017-09-20" dc:format="image/svg+xml" dc:language="en"><dc:creator><rdf:Bag><rdf:li>Icograms</rdf:li></rdf:Bag></dc:creator></rdf:Description></rdf:RDF></metadata></svg>