<?xml version="1.0" encoding="UTF-8"?><svg xmlns="http://www.w3.org/2000/svg" xmlns:xlink="http://www.w3.org/1999/xlink" version="1.1" id="Layer_1" x="0px" y="0px" viewBox="0 0 16 48" xml:space="preserve"><ellipse fill="#999" cx="8" cy="34.3" rx="1.5" ry="0.8"/><path fill="#999" d="M8 7l4-2-4-4-4 4z"/><path fill="#999" d="M9 10.7H7v23.5c0 .3.4.5 1 .5s1-.2 1-.5V10.7z"/><path opacity="0.2" d="M9 10.7H7v23.5c0 .3.4.5 1 .5s1-.2 1-.5V10.7z"/><path fill="#999" d="M8 35c-.8 0-1.5-.3-1.5-.8v10c0 .5.7.8 1.5.8s1.5-.3 1.5-.8v-10c0 .5-.7.8-1.5.8z"/><path opacity="0.2" d="M8 35c-.8 0-1.5-.3-1.5-.8v10c0 .5.7.8 1.5.8s1.5-.3 1.5-.8v-10c0 .5-.7.8-1.5.8z"/><path fill="#999" d="M8 7L4 5l2 7 2 1 2-1 2-7z"/><path fill="#FC0" d="M8.5 7.3L11.2 6l-1.6 5.7-1.1.5z"/><path opacity="0.15" d="M9 7l2.2-1-1.6 5.7z"/><path fill="#FC0" d="M6.4 11.7L4.8 6l2.7 1.3v4.9z"/><path opacity="0.2" fill="#FFF" d="M6.4 11.7L4.8 6l2.7 6.2z"/><path opacity="0.39" d="M8 13l2-1 2-7-4 2z"/><path opacity="0.06" d="M8 13l-2-1-2-7 4 2z"/><circle fill="#999" cx="8" cy="1" r="1"/><metadata><rdf:RDF xmlns:rdf="http://www.w3.org/1999/02/22-rdf-syntax-ns#" xmlns:rdfs="http://www.w3.org/2000/01/rdf-schema#" xmlns:dc="http://purl.org/dc/elements/1.1/"><rdf:Description about="https://iconscout.com/legal#licenses" dc:title="lantern" dc:description="lantern" dc:publisher="Iconscout" dc:date="2017-09-20" dc:format="image/svg+xml" dc:language="en"><dc:creator><rdf:Bag><rdf:li>Icograms</rdf:li></rdf:Bag></dc:creator></rdf:Description></rdf:RDF></metadata></svg>