<?xml version="1.0" encoding="UTF-8"?><svg xmlns="http://www.w3.org/2000/svg" xmlns:xlink="http://www.w3.org/1999/xlink" version="1.1" id="Layer_1" x="0px" y="0px" viewBox="0 0 80 240" xml:space="preserve"><path opacity="0.2" d="M65.7 233.1c21.2-5.9 7.4-23.7-17.8-25.9-8.7-.8-12.5-13.3-34 .4-17.3 11-1.3 16.3 7.5 20.5 12.1 5.6 23.4 10.8 44.3 5z"/><path fill="#FBD7C7" d="M9 65c-1.4 5.7-3.5 18-3 20.4.5 2.4 4.6 18.3 5.2 21.1.5 2.8.5 6.4.5 6.4l10-9.1-5.2-29.3L9 65z"/><path fill="#825012" d="M11.5 211.3c-.6 2-2.9 7.7 1.6 9 5.2 1.5 7.6-.7 12.3-2.5s11.9-3.3 14.8-5.9c2.2-2-1.8-5.9-6-6.4s-5.3 1.4-6.5 1c-1.2-.3-1.9-1.2-1.9-1.2s-1.3 4.9-5.9 5.8c-4.6 1-8.4.2-8.4.2z"/><path fill="#06547A" d="M15.1 104.6C12.3 108 9.2 112 9.5 121c.3 9.1.3 23.9 1.4 30.2s.6 13.2-.2 20.7-2.5 20-2.3 25.3c.2 6.6.9 14.3 1 17.4.1 2.5 3.3 4 6.8 3.1s9.5-4.9 10.5-5.6c.9-.7 3-2.8 2-5.1s-.9-14.1-.1-19.3c.8-5.2 2.8-20.8 2.8-25.3 0-4.4 7.8-15.2 8.1-24.2s.3-32.2.3-32.2l-24.7-1.4z"/><path opacity="0.2" d="M15.1 104.6C12.3 108 9.2 112 9.5 121c.3 9.1.3 23.9 1.4 30.2s.6 13.2-.2 20.7-2.5 20-2.3 25.3c.2 6.6.9 14.3 1 17.4.1 2.5 3.3 4 6.8 3.1s9.5-4.9 10.5-5.6c.9-.7 3-2.8 2-5.1s-.9-14.1-.1-19.3c.8-5.2 2.8-20.8 2.8-25.3 0-4.4 7.8-15.2 8.1-24.2s.3-32.2.3-32.2l-24.7-1.4z"/><path opacity="0.4" d="M31.5 213.5c-4.4 1.1-11.2 4.2-15 5-2.4.5-4.7-.5-6.1-1.4.2 1.4.9 2.7 2.7 3.2 5.2 1.5 7.6-.7 12.3-2.5s11.9-3.3 14.8-5.9c1.3-1.2.5-3-1.3-4.4.2.3.4.7.6 1.2 1.2 2.6-3.6 3.7-8 4.8z"/><path fill="#825012" d="M37.1 222.6c-1.1 2.7-1.9 7.9 2 8.7s12.2-1.1 16.1-1.2 13.2-1.6 14.4-4.4-1.2-6.4-6.8-6-8.2-1.2-8.2-1.2-4.5 4.1-8.7 4.7-8.8-.6-8.8-.6z"/><path opacity="0.4" d="M69.5 225.7c.6-1.3.3-2.8-.6-3.9.4 1.2.4 2.4-.6 3.5-2.9 3.1-7.6 1.9-17.5 3.1-8.2 1-12.1.8-14.6-.3.2 1.6 1 2.9 2.8 3.3 3.9.9 12.2-1.1 16.1-1.2 3.9-.2 13.2-1.7 14.4-4.5z"/><path fill="#06547A" d="M24.5 105.5s-1.8 13.4.4 19.3 6.4 13.8 7 20.8c.6 7 3.3 19.3 2.3 26.7s-1.1 19-.7 27.9c.4 7.7 1.7 23.6 1.8 25.9.1 3.8 7.4 4 11.4 2.4 5.2-2.1 10.7-6.2 10-7.8-.6-1.6-1.5-8-1.8-14.5-.3-6.5-1.1-29.3 0-34.5 1.1-5.1 3-16.2 3.5-33.3.4-16.3.9-23.6.5-26.7-.4-3.1-34.4-6.2-34.4-6.2z"/><path fill="#999" d="M26 48.5c-3.8-1.3-9.2-3.6-15.5 2s-.7 23.2 1.1 27.6c1.8 4.4 2.8 10.5 2.7 13-.1 2.5-1.4 3.3-1.9 5.9-.5 2.6-.5 7.9-1.4 9.6s-1.9 5-.1 5.6c1.8.6 21.6 6.4 31.2 6.3s14.8-3.8 16.2-4.8c1.4-.9 2.2-18.3 1.7-23.4s-.4-12.1-.3-15.3c.2-4.3-1.7-10.3-4.9-12.5-3.1-2.1-7.4-5.6-12.2-8s-16.6-6-16.6-6z"/><path fill="#FBD7C7" d="M20.2 48.1c1.2-.3 4.8-3.3 4.8-5.4s-4-9.4-2.4-14.1c1.6-4.7 9.2-11.4 18.2-8.6S48 30.8 47 37.3s-1.7 7.3-2.9 8.1c-1.3.8-2.9 1.4-2.9 3.1.1 1.7.3 4.6.9 5.8.6 1.2-9.1 2.2-14.9-.1s-7-6.1-7-6.1z"/><path fill="#2D3134" d="M22.7 39.8c.5 1.6 1.8 4.9 5.6 5.8s8.7-3.4 9.4-5.5 1-4.1 2.9-4.4c1.9-.3 1.7 2.2 1.7 2.2s2.5-1.3 2.9-5.4c.2-1.7-.1-4.6 1.7-5.8 1.8-1.1-1.8-8.4-10.1-8.3-9.4.1-12.7 4.3-14.4 8.7-1.8 4.8-.6 9.9.3 12.7z"/><path fill="#FBD7C7" d="M62.9 121.5c-.8-2.5-5.1-15.8-6.2-18.6-1.1-2.7-.7-6-.7-10.6 0-1.8-.1-5.7-.4-10-1.9.2-6.5.8-12.2 2.5-1.5.4-2.9.9-4.1 1.3.3 1.2.7 2.3.8 3.1 1 4.4 4.8 14.1 5.8 16 1 1.9 1.1 4.4 3.5 9.6 2.3 5.2 8.2 13.5 8.8 14.8.5 1.3-1.3 4.6-1.3 6 0 1.4-.1 8.7-.1 9.6-.1.9-3.6 2.1-3.1 3.3.5 1.1 4.4-.5 5.8-1.4 1.4-.9 3.3-5.4 4-7.3.7-1.9 1.3-9.4 1.3-11.2 0-1.7-1.1-4.6-1.9-7.1z"/><path fill="#999" d="M7.7 57.9c-.3 3-.6 12.6-.6 12.6L13 75 7.7 57.9z"/><metadata><rdf:RDF xmlns:rdf="http://www.w3.org/1999/02/22-rdf-syntax-ns#" xmlns:rdfs="http://www.w3.org/2000/01/rdf-schema#" xmlns:dc="http://purl.org/dc/elements/1.1/"><rdf:Description about="https://iconscout.com/legal#licenses" dc:title="man" dc:description="man" dc:publisher="Iconscout" dc:date="2017-09-20" dc:format="image/svg+xml" dc:language="en"><dc:creator><rdf:Bag><rdf:li>Icograms</rdf:li></rdf:Bag></dc:creator></rdf:Description></rdf:RDF></metadata></svg>