<?xml version="1.0" encoding="UTF-8"?><svg xmlns="http://www.w3.org/2000/svg" xmlns:xlink="http://www.w3.org/1999/xlink" version="1.1" id="Layer_1" x="0px" y="0px" viewBox="0 0 80 240" xml:space="preserve"><path opacity="0.2" d="M68.8 230C86 220.3 73 213 57 205.3c-17.8-8.5-24.9-11.7-40.5-1.6-9.5 6.1-2.4 15.9 13.8 23.5 18.4 8.7 26.3 9.6 38.5 2.8z"/><path fill="#262626" d="M16.8 213.2c0 2.1-.1 5.9 3.8 5.9s5.9-2.9 6.2-3.8c.3-1-.1-3 1.3-3.8 1.3-.8 6.3-2.5 6.6-7.1.4-4.9-1.8-5-3.5-5s-5.9.3-5.9.3l-8.5 13.5z"/><path opacity="0.5" d="M33.2 199.7c1.2 1.5 1 3.9.1 5.7-1.9 3.6-6.4 3.1-6.8 5.2-.4 2.1-2.7 5.6-5.4 6-2 .3-3.2-.3-4.2-1.2.2 1.8 1 3.6 3.8 3.6 4 0 5.9-2.9 6.2-3.8.3-1-.1-3 1.3-3.8 1.3-.8 6.3-2.5 6.6-7.1.2-2.9-.6-4.1-1.6-4.6z"/><path fill="#656565" d="M16.2 125.3c-.3 6 1.4 21.3 1.2 32.8-.2 11.5-2.8 43.8-2.5 47.6s-.3 8.8 3.8 9.6c3.2.6 7.4-1.8 9-4.3 1.6-2.5 2.6-6.2 2.7-10.5.1-4.3 9.4-58.4 9.5-60.6.1-2.2-1-13.8-1-13.8l-22.7-.8z"/><path opacity="0.3" d="M16.2 125.3c-.3 6 1.4 21.3 1.2 32.8-.2 11.5-2.8 43.8-2.5 47.6s-.3 8.8 3.8 9.6c3.2.6 7.4-1.8 9-4.3 1.6-2.5 2.6-6.2 2.7-10.5.1-4.3 9.4-58.4 9.5-60.6.1-2.2-1-13.8-1-13.8l-22.7-.8z"/><path fill="#FBD7C7" d="M45.1 27.4c2.5 1 4.3 3.8 4.7 10.3.4 6.5 0 11.6-1.5 12.3-1.5.7-2.5.4-2.5.4l1.1 7.1-16.8-4.7s.3-3.9-.6-6.4c-.9-2.4-3.5-11.2-.8-15.2s8.4-6.9 16.4-3.8z"/><path fill="#FBD7C7" d="M5.4 113.6s-.8 7-.5 8.7c.3 1.7 3.5 9.6 5.3 10 1.8.4 3.6-1 3.4-2.3-.2-1.2-2-3.3-2.1-5.4-.2-2.1-.1-5.3.8-5.7.9-.5 2.9 2 3.8 3.1.9 1.1 2.5.7 2.5-.2 0-.8-1.9-2.6-2.3-4.1-.4-1.5-1.2-2.7-2.3-4-1.1-1.4-1.5-2.3-1.5-2.3l-7.1 2.2z"/><path fill="#FFF" d="M4.2 111.5s-.6 3.1.5 3.8c.9.5 4.5 1.2 6.8.3 2-.8 3.1-1.5 3.2-2.2.1-.7-.8-2-.8-2l-9.7.1z"/><path fill="#262626" d="M43.9 224v4.1c0 .8.1 2.9 4.3 2.6s6.4-1.2 6.6-1.5.7-1.1.7-1.1 7.2.6 12.4-1.6c5.4-2.3 8.6-7.3 4-9.4-2.8-1.3-4.4.3-8.6-.2-4.5-.5-7.1-2.7-7.1-2.7L43.9 224z"/><path opacity="0.5" d="M68 226.3c5.4-2.3 8.6-7.3 4-9.4 4.8 4.5-4.5 8.7-8.6 9-2.7.2-8.6.5-12.4 1.3-3.1.6-6.2.4-7.1-.8v1.7c0 .8.1 2.9 4.3 2.6 4.3-.3 6.4-1.2 6.6-1.5.2-.3.7-1.1.7-1.1s7.3.4 12.5-1.8z"/><path fill="#656565" d="M33.3 128.3c-.4 6.2 2.3 19.4 3.4 26.8s2.9 38.7 3.7 46.5c.6 6.3 2.7 23.4 3.9 24.3 1.2.9 9.6-.3 13.1-2.6 2.3-1.6 4.9-4.7 4.5-6.8-.4-2.1-3.1-4.1-3.5-14.9-.3-10.8.9-30.2.6-44.9-.3-14.8-1-31.5-1-31.5l-24.7 3.1z"/><path opacity="0.15" d="M33.3 128.3c-.4 6.2 2.3 19.4 3.4 26.8s2.9 38.7 3.7 46.5c.6 6.3 2.7 23.4 3.9 24.3 1.2.9 9.6-.3 13.1-2.6 2.3-1.6 4.9-4.7 4.5-6.8-.4-2.1-3.1-4.1-3.5-14.9-.3-10.8.9-30.2.6-44.9-.3-14.8-1-31.5-1-31.5l-24.7 3.1z"/><path fill="#656565" d="M12.6 55.9c-1.2 1.4-2 5.5-2.3 7.6-.3 2.1-5.8 19.4-6.7 22.7-.9 3.4-.8 9.1-.6 14.4.2 5.3.2 11.7.3 12.6.1 1 4 2 6.9 1.6 2.9-.4 4.6-1.2 4.9-3.6s1.8-13.9 3.8-18.1c2-4.2 4.9-11.7 4.9-11.7L12.6 55.9z"/><path opacity="0.15" d="M12.6 55.9c-1.2 1.4-2 5.5-2.3 7.6-.3 2.1-5.8 19.4-6.7 22.7-.9 3.4-.8 9.1-.6 14.4.2 5.3.2 11.7.3 12.6.1 1 4 2 6.9 1.6 2.9-.4 4.6-1.2 4.9-3.6s1.8-13.9 3.8-18.1c2-4.2 4.9-11.7 4.9-11.7L12.6 55.9z"/><path fill="#FBD7C7" d="M65.7 103.2l.1 8.8s4.1 1.1 7.1-.5 5.2-4.7 5.2-5.8c0-1.1-.3-2.4-1.3-2.4-1.1 0-2 1.6-3.2.3s-.4-2.2.6-2.9c.9-.7 1.3-2.5-.8-2.3-1 .1-1.9.8-2.5 1.3-.9.8-1.8 1.8-3 2.8-1.3 1.2-2.2.7-2.2.7z"/><path fill="#656565" d="M30.2 49.3l-3.6.8.1.9s-5.5-.7-9.4 1.4c-4 2.1-6.1 4-5.6 7.3.6 3.4 3.9 15.1 6.1 21.1 2.2 6 3.5 9.3 2.9 14.2s-7.1 27.7-6.7 31.2 5.8 6.1 12.5 7.9c6.9 1.8 31.9 3.2 32.4-1.9.5-5 .5-18.9.5-18.9s7.1 1.3 8.4-.4c1.3-1.7 2.8-4.5 1.2-7.9-1.5-3.4-2.1-3.5-3.1-3.8s-5.5-1-6.8-2.7c-1.3-1.6-.3-7.8-.3-15.7s.3-13.6-3.2-17.3c-3.5-3.7-7.5-8.9-10.8-10.1-4.4-1.4-15.3-1.1-14.6-6.1z"/><path opacity="0.2" d="M27.5 49.9s.1 5.2 7.4 6.1c6.9.9 19 8.5 19 8.5s-13-7.3-18.9-7.8c-8.8-.7-8.4-6.8-8.4-6.8h.9z"/><path fill="#762C07" d="M43.7 42.8c.1.8 1-1.3 1.7-3.1.7-1.9 2-4.3 2.7-7 .7-2.7 1.3-1.7 1.4-2.9s-5.7-8.9-16.3-5.2S25 40.6 26 44c1 3.4 4.1 7.3 7.1 7.3 3-.1 6.5-2.4 6.8-6.8.4-4.4 3.6-3.5 3.8-1.7z"/><metadata><rdf:RDF xmlns:rdf="http://www.w3.org/1999/02/22-rdf-syntax-ns#" xmlns:rdfs="http://www.w3.org/2000/01/rdf-schema#" xmlns:dc="http://purl.org/dc/elements/1.1/"><rdf:Description about="https://iconscout.com/legal#licenses" dc:title="man" dc:description="man" dc:publisher="Iconscout" dc:date="2017-09-20" dc:format="image/svg+xml" dc:language="en"><dc:creator><rdf:Bag><rdf:li>Icograms</rdf:li></rdf:Bag></dc:creator></rdf:Description></rdf:RDF></metadata></svg>