<?xml version="1.0" encoding="UTF-8"?><svg xmlns="http://www.w3.org/2000/svg" xmlns:xlink="http://www.w3.org/1999/xlink" version="1.1" id="Layer_1" x="0px" y="0px" viewBox="0 0 160 240" xml:space="preserve"><path opacity="0.2" d="M48.3 230.6c10.3 5.6 32.4-7.7 45.2-15.1 12.8-7.5 36.7-22.2 26.3-28.5-10.4-6.3-25.9 4.1-39.7 12.4s-46.3 23.4-31.8 31.2z"/><path fill="#FBD7C7" d="M91.2 28.5c5.8-1.2 13.3 3 14.1 10.2.7 6 .4 14.9-1.9 16-2.3 1.1-3.8.4-5.4 2.3-1.6 1.9-2.1 4.8-1.1 7.5s1.3 4 1.3 4S74.7 77.3 73 80.3s-7.2 10.3-7.2 11.3.4 6.5.1 10.6c-.3 4.1 0 5.8 1.3 7.5 1.3 1.7 3.6 3.5 4.1 5.7.5 2.2-.9 11.7-.9 11.7s-.8.1-1.8-.5-1-.3-1.7-.2-2.2-.3-2.5-.9c-.3-.6-.4-1.1-.4-1.1s-.7.7-1.2.3c-.5-.4-2.7-2.4-2.7-4.1 0-1.8.6-7.5.1-9.5-.5-2.1-4.7-17.7-3.6-20.9 1.1-3.2 6.7-17.3 7-18.5.3-1.2-.7-8.1 3.4-11s9.3-2 10.6-1.9c1.3.1 6.9-3.9 6.5-6.6-.3-2.9-10.5-20.1 7.1-23.7z"/><path fill="#262626" d="M89.6 203.8c.8 1.8 4.1 4.1 7.8 1.9 3.6-2.3 8.1-5.3 11.4-6.6 3.2-1.3 5-2.8 4.7-5.6-.3-3.5-4.3-4.7-8.8-3-4.5 1.6-15.1 13.3-15.1 13.3z"/><path fill="#FFF" d="M94.3 204.3c3.8-2 7.2-5.2 10.7-6.5 3.5-1.3 7.7-2.4 8-4.8s-4.3-4.2-8.8-2.3c-4.5 1.9-13.5 3.3-13.5 3.3l3.6 10.3z"/><path fill="#262626" d="M52.5 225.9c1.6.6 1.4 1.4 5 1.6 1.5.1 3.8-.4 5.8-.5 2.8-.1 4.6.1 6.7-.6 3.3-1.1 7.7-3.5 8.6-5.1 1.4-2.3-.9-6.5-4.5-5.5-3.4.9-5.7 2-7.7 2s-8.8-1.2-8.8-1.2l-5.1 9.3z"/><path fill="#FFF" d="M55.4 223.6c2.7.8 13.1 1.2 14.3.7 1.3-.5 7.6-2.6 8.1-5.1.3-1.4-.5-3.2-2.8-3.4-1.2-.1-3.7.6-5.7 1.1-5.8 1.6-10.7-.5-10.7-.5l-3.2 7.2z"/><path fill="#06547A" d="M71.7 114.2c-3.3 3.6-6.5 13.1-2 21.4 4.5 8.3 21.8 20.6 22.3 22.4.5 1.8-5.3 18-5.3 23.2 0 5.2 1.5 13.5 1.1 15.1-.4 1.7-1.7 10.6 3.8 10.5 5.5-.1 11.3-5.1 12.5-9.1s-.2-7-.2-7-.4.3-.5-1.7-.4-10.8.8-13.5c1.3-2.7.9-9.5 1.2-11.1.3-1.6 2.1-7.9 2.2-11.2.1-3 0-10.2-5.1-18.8-4.6-7.8-11.9-14.8-11.9-14.8l-18.9-5.4z"/><path opacity="0.2" d="M71.7 114.2c-3.3 3.6-6.5 13.1-2 21.4 4.5 8.3 21.8 20.6 22.3 22.4.5 1.8-5.3 18-5.3 23.2 0 5.2 1.5 13.5 1.1 15.1-.4 1.7-1.7 10.6 3.8 10.5 5.5-.1 11.3-5.1 12.5-9.1s-.2-7-.2-7-.4.3-.5-1.7-.4-10.8.8-13.5c1.3-2.7.9-9.5 1.2-11.1.3-1.6 2.1-7.9 2.2-11.2.1-3 0-10.2-5.1-18.8-4.6-7.8-11.9-14.8-11.9-14.8l-18.9-5.4z"/><path fill="#06547A" d="M77.2 117.7s-2.4 6.3-1.6 11.7c.8 5.4 4.4 13 4.4 13s-1.5 15.1-2.6 19S67 179 63.7 185.8s-14.6 27.6-15 31.9.7 9 5.7 9.2c5 .2 13.5-6.5 14.1-8.2.7-1.8-.6-3.5-.6-3.5s1.5 0 2.8-3.5c1.4-3.5 5.7-11.6 8.1-14.5s7.1-12.5 8.5-14 3.9-2.7 5-5 7.8-22.5 9.2-27.4c1.5-4.9 4.4-13.3 4-18.8-.4-5.3-1.2-10.6-1.2-10.6l-27.1-3.7z"/><path fill="#825012" d="M91.1 27.9c-17.7 3-6.9 24.9-7 25.3 1.8.9 5.3.9 6.9-.3 1.8-1.3 2.8-5.9 4.8-7.6 2-1.7 3.1-.1 3.2.5.1.6.1 1.3.1 1.3l1.4-.5s.8-2.5.9-5.8c.1-3.4-.7-6.8-.4-7.5.2-.6 1.4-.1 2.1-.3-2.6-4.1-7.9-5.8-12-5.1z"/><path fill="#E5E5E5" d="M80.1 58.3s-5.1 1.3 1.6 4.4S97 64.5 97 64.5s9.2 2 12.7 6.5c2.1 2.7 2.5 7.9 2.2 9-.3 1.2-4.4 7-4.3 10.8.1 3.8-2.4 19.6-2.3 23.6.1 3.9 0 9.5.1 10.4.1.9-11.8 2.4-21.4-1.1s-13.3-8.7-13.3-9.4 4.9-7.7 4.3-11.4c-.6-3.7-6.6-22.7-7.6-27s-1.6-6.3-1.6-6.3l-2.3-1.2s-.1-7.4 4.1-9.2 12.5-.9 12.5-.9z"/><path fill="#FBD7C7" d="M98.3 84.6s5.6.2 7.6-.4c3.8-1.2 5.7-3.6 5.7-3.6s-.8 3.6-.8 6.5.4 4.1.7 6.6c.4 3.7-.1 6.6 1.2 8 1.3 1.4 5.4 5 8.1 8.1s3.8 3.6 6.3 4.6 5.5 1.6 6.5 2.6 2.1 1.9 1.6 3.4 0 2.6-.5 3.3-1.3.3-1.2 1.7c.1 1.4-.8 1-1 1.7s-1.8 1.2-2.9.9c-1.2-.3-3-.8-3-1.6s1.7-1.1 1.7-1.1-2.6-.9-3.4-2.1c-.8-1.2-1.8-2.4-3.8-3.5s-15-9.5-16.2-12.2c-1.5-2.8-6.6-22.9-6.6-22.9z"/><metadata><rdf:RDF xmlns:rdf="http://www.w3.org/1999/02/22-rdf-syntax-ns#" xmlns:rdfs="http://www.w3.org/2000/01/rdf-schema#" xmlns:dc="http://purl.org/dc/elements/1.1/"><rdf:Description about="https://iconscout.com/legal#licenses" dc:title="basicman" dc:description="basicman" dc:publisher="Iconscout" dc:date="2017-09-20" dc:format="image/svg+xml" dc:language="en"><dc:creator><rdf:Bag><rdf:li>Icograms</rdf:li></rdf:Bag></dc:creator></rdf:Description></rdf:RDF></metadata></svg>