<?xml version="1.0" encoding="UTF-8"?><svg xmlns="http://www.w3.org/2000/svg" xmlns:xlink="http://www.w3.org/1999/xlink" version="1.1" id="Layer_1" x="0px" y="0px" viewBox="0 0 80 240" xml:space="preserve"><path opacity="0.2" d="M5.5 231.2c16 10.8 26.2-7.9 40.9-11.6 17.3-4.4 37.7-9.6 29.3-19.3s-25.5-12.8-36.1 0c-8.2 9.9-51.6 19-34.1 30.9z"/><path fill="#262626" d="M26.3 214.2c-.1 2.9-1.7 4.1-2.8 6.4-1.1 2-1.9 7.5-6.2 9.2-3.9 1.5-8.2.9-9.5 0s-1.6-3.3-.6-5.2c1-1.9 3.3-4 4.4-8.1s2.6-6.1 2.6-6.1l12.1 3.8z"/><path fill="#FFF" d="M25 213.7s-1 .8-2.4 3.9c-1.5 3.1-2.3 7.6-5.4 8.9-3.8 1.6-8.2 1.2-9.4.3s.3-3.1 2.4-5.5 1.9-9.2 1.9-9.2l12.9 1.6z"/><path fill="#262626" d="M50.2 196.5c0 1.4.6 2.2 2.7 3.8s3.1 4.3 5.7 6.4c3.8 3 7.8 3.3 11.5 2.1 1.9-.6 2.1-1.3 2.4-2s.4-3.1-.1-3.7c-1.4-1.5-5.7-3.3-6.4-4.7-.7-1.4-2-5.1-2-5.1l-13.8-.6v3.8z"/><path fill="#FFF" d="M50.4 194.6c.7.6 3.4 2.5 4.7 4 1.2 1.4 5.7 6.7 9.1 7.3 3.5.5 6.8-.3 7.6-1.3s0-1.6-1-2.3c-1-.7-4.3-2.5-5-3.6-.7-1.2-1.5-5-1.5-5l-13.9.9z"/><path fill="#06547A" d="M64.4 110.5c2.8 3.7 4.3 7.4 4.5 15.7.2 8.3.3 26-.6 29.4-1 4.1-3.9 19.4-3.7 23.6.2 4.2.5 6.7-.2 8-.7 1.3-.8 1.6.3 2.8 1.1 1.3 1.3 3.3 1.1 4.7-.2 1.4 1 1.5-1 1.4-2-.1-3.6.4-6.5 1.2s-7.9-.2-8.2-.2c-.3 0 .1-1.7-.4-2.7-.5-1.1-.9-2.3-.9-4.9s-1.1-17.3-1.1-23c0-5.7 1.4-11.8 1.7-15.3.3-4.3-.7-12-1.1-13.6s-4-22.4-4-22.4l20.1-4.7z"/><path opacity="0.2" d="M64.4 110.5c2.8 3.7 4.3 7.4 4.5 15.7.2 8.3.3 26-.6 29.4-1 4.1-3.9 19.4-3.7 23.6.2 4.2.5 6.7-.2 8-.7 1.3-.8 1.6.3 2.8 1.1 1.3 1.3 3.3 1.1 4.7-.2 1.4 1 1.5-1 1.4-2-.1-3.6.4-6.5 1.2s-7.9-.2-8.2-.2c-.3 0 .1-1.7-.4-2.7-.5-1.1-.9-2.3-.9-4.9s-1.1-17.3-1.1-23c0-5.7 1.4-11.8 1.7-15.3.3-4.3-.7-12-1.1-13.6s-4-22.4-4-22.4l20.1-4.7z"/><path fill="#06547A" d="M53.8 121.7s1.7 10.5 1 12.6c-.7 2.2-4.7 6.6-6 10s-2 9.6-4.3 14.7-8.2 17.4-9.2 21.7c-1 4.3-1.8 9.4-3.4 11-1.7 1.7-1.5 3.4-2.2 6.9-.7 3.5-2.5 7.5-2.4 10.7.1 3.1-.8 3.3-.7 4.3.1 1 1.3 2.2-.4 2.7-1.7.5-6.1 0-9.5-.6s-5.4-.1-5.4-.1-.9-4-.2-5.7c1-2.4 3.2-3.6 3-5.1-.2-1.5-1.8-5.1-.3-7.7s2.2-5.2 2.2-9.7c.1-4.5 2.6-10.7 3.8-14.6 1.2-3.9 5.2-21.1 5.2-26.2s.5-13.8 1.5-17.6c1.2-4.7.5-12.2 1.3-14.3.9-2.1 26 7 26 7z"/><path fill="#FBD7C7" d="M35.8 42.2c.3 2.8.5 5.2-.5 7.1-1.7 3.2-4.3 5-5.4 5.5s3.2 10.6 10 11.6 23.7 4 24.8 4.7c1 .7 5.2 5.1 5.2 5.1s-4.9 6.9-6.3 9.3c-2.3 4-6.3 11.5-6.3 11.5s1.9 4.4 3.9 3.8c2-.6 2-5.1 2.5-6.1s14.5-15.9 15.4-17.5c.9-1.6 1.5-3.8-.7-6s-7.5-9-9-10.6c-1-1-3.3-3.5-5.9-5.4-2.6-1.9-12.3-5-12.3-5l-1.6-7.1-13.8-.9z"/><path fill="#E5E5E5" d="M30.8 54.3s7.7 9.3 16.1 7S52 50.9 52 50.9s6-1 10.7 2.5c4.5 3.4 5.3 4.6 5.7 5.8-.3.8-3.2 4.8-3.2 4.8s.7 4.4.1 8.3-3.6 13.4-3.2 19c.4 5.6 1.6 12.5 2.5 15.2.9 2.6 1.9 6.8 1.9 6.8s-3 6.7-12.5 8.4-18.8 1.9-22.8-1c-4.5-3.3-4.2-4.8-3.4-6.3.8-1.5 3.8-7.2 3.5-11-.3-3.8-8-26.8-8-26.8l-8.5-8.8s1.5-6.4 5.7-8.5 10.3-5 10.3-5z"/><path fill="#FBD7C7" d="M15 67.7s1.4.3 3.3 1.2 6.9 4.2 7.8 5c1 .8.5 1.2-.8 2.3-1.2 1.1-13.6 15-13.6 15s5.3 3.9 7 5.7c1.7 1.8 6 4.3 7.4 4.1 1.4-.2 5.1-2.8 7.3-1.2 2.2 1.6 4.9 5.8 2 7.2-2.9 1.4-8.3 2.6-10.6 1.8S5.3 99.3 3 97.4c-2.7-2.1-4.1-5.9-1.8-9.2S15 67.7 15 67.7z"/><path fill="#FBD7C7" d="M33 39s-1.6.7.2 3.6c1.8 2.8 2.9 3.4 3.7 3.3.8-.1 1-.4 1-.4s.9 3.5 3.8 5.2c2.8 1.7 8.7 3.8 11.4 2.8 2.7-1 2.7-14.2 2-16.9-.7-2.7-2.8-12-11.8-12.7S28.6 30.2 33 39z"/><path fill="#825012" d="M42.9 23.6c-9-.7-14.3 6.6-9.9 15.3 0 0 1.3-.6 3 .6 1.6 1.2 2.2 2.6 2.2 2.6l1.1-.8s-.2-6.7 3.6-8.6c2.4-1.2 5.5.6 7.6-.4 1.1-.5 2-1.7 2.3-2.7-2.2-3.7-6-5.6-9.9-6z"/><metadata><rdf:RDF xmlns:rdf="http://www.w3.org/1999/02/22-rdf-syntax-ns#" xmlns:rdfs="http://www.w3.org/2000/01/rdf-schema#" xmlns:dc="http://purl.org/dc/elements/1.1/"><rdf:Description about="https://iconscout.com/legal#licenses" dc:title="basicman" dc:description="basicman" dc:publisher="Iconscout" dc:date="2017-09-20" dc:format="image/svg+xml" dc:language="en"><dc:creator><rdf:Bag><rdf:li>Icograms</rdf:li></rdf:Bag></dc:creator></rdf:Description></rdf:RDF></metadata></svg>