<?xml version="1.0" encoding="UTF-8"?><svg xmlns="http://www.w3.org/2000/svg" xmlns:xlink="http://www.w3.org/1999/xlink" version="1.1" id="Layer_1" x="0px" y="0px" viewBox="0 0 160 240" xml:space="preserve"><path opacity="0.2" d="M33 231c11.2 6.1 44.5-13.9 58.5-22.1 13.9-8.1 50.5-32.3 39.2-39.2-11.4-6.9-38.7 12.6-53.7 21.6S17.2 222.4 33 231z"/><path fill="#FBD7C7" d="M106.7 44.9s5.3-1.2 7.8-1.4c2.5-.3 7.3 2.1 8.3 3.8 1 1.7.4 3-1.1 3.9-1.5.9-2.4-1.2-4.3-1.2s-3.1.5-5.3 1c-2.3.5-4.1-.6-5-.9-1-.3-1.9-.3-1.9-.3l1.5-4.9z"/><path fill="#FFF" d="M100.3 44.2l7.4-.1s1.5 1.1 1 3.7-1.4 3.9-1.4 3.9h-5.5l-1.5-7.5z"/><path fill="#656565" d="M94.1 42.6l11.8-.1s2.4 1.7 1.6 5.8c-.8 4.1-2.3 6.1-2.3 6.1h-8.7l-2.4-11.8z"/><path fill="#FBD7C7" d="M96.5 15.9c2.4.9 4.1 3.8 4.5 10.2.4 6.4 0 11.5-1.5 12.2s-2.4.4-2.4.4l-.1 8.1L82.3 41s.3-3.9-.6-6.3c-.9-2.4-3.3-11.1-.7-15.1 2.6-3.9 7.9-6.7 15.5-3.7z"/><path fill="#762C07" d="M95.1 31.1c.1.8.9-1.2 1.6-3.1.7-1.9 1.9-4.2 2.5-6.9.7-2.7 1.3-1.7 1.3-2.8.1-1.2-5.4-8.8-15.5-5.1S77.4 29 78.3 32.3s3.9 7.3 6.8 7.2c2.9-.1 6.2-2.3 6.5-6.7s3.4-3.5 3.5-1.7z"/><path fill="#262626" d="M32.9 212.5c-.1.6-1.1 3.7-1.1 3.7s-1.9 1.6-1.6 3c.4 1.4 19.2 8.9 20.8 9.1 1.6.2 2.1-.9 1.9-2.1-.2-1.1-1.3-2.9-2.2-3.9-.9-.9-2.6-4.2-3-5.5-.4-1.3-.6-2.1-.6-2.1l-14.2-2.2z"/><path opacity="0.5" d="M30.2 219.2c.4 1.4 19.2 8.9 20.8 9.1 1.3.2 2-.6 2-1.6-.9-.2-2.4-.6-4.8-1.4-4.1-1.5-8.6-4.4-10.9-5.6-1.6-.9-4.3-2.6-5.6-3.5-.3.3-1.9 1.7-1.5 3z"/><path fill="#262626" d="M105.2 182.4c.1 2.6 2.5 4.7 6.1 3.6s5.4-4.3 5.4-4.3 6.8-2.3 10.2-5.9c3.4-3.6 5.3-9.3 4.9-11.3-.3-1.9-2.3-3.6-5.6-2.6-3.3 1.1-9.9 4.9-11.3 6.7-1.4 2-9.7 13.8-9.7 13.8z"/><path opacity="0.5" d="M116.6 181.8s6.8-2.3 10.2-5.9c3.4-3.6 5.3-9.3 4.9-11.3-.1-.9-.6-1.7-1.4-2.2 0 .2.1.3.1.5.8 3.6-1 7.1-4.1 11s-9.9 5.7-9.9 5.7-4.1 7.2-10.7 5c1 1.4 2.9 2.2 5.4 1.5 3.8-1.1 5.5-4.3 5.5-4.3z"/><path fill="#656565" d="M59 107.3c-2.5 4.5-6.1 13.7-6.3 23-.2 9.3-7.9 39.1-11.4 48.9-3.4 9.8-9.4 31.3-9.4 33 0 1.7 1.1 4.9 7.5 6.3s10-1.3 10.3-2 .8-8.1 2.1-12.1c1.4-4 11.5-24.9 15.2-37.1 3.8-12.2 9.3-33.1 12.3-37.4 3-4.3 3.1-18.3 3.1-18.3L59 107.3z"/><path opacity="0.3" d="M59 107.3c-2.5 4.5-6.1 13.7-6.3 23-.2 9.3-7.9 39.1-11.4 48.9-3.4 9.8-9.4 31.3-9.4 33 0 1.7 1.1 4.9 7.5 6.3s10-1.3 10.3-2 .8-8.1 2.1-12.1c1.4-4 11.5-24.9 15.2-37.1 3.8-12.2 9.3-33.1 12.3-37.4 3-4.3 3.1-18.3 3.1-18.3L59 107.3z"/><path fill="#656565" d="M77 111.9s-.5 4.2.1 10.1c.6 5.9 3.5 5.7 7.1 12.8 3.5 7.1 6.5 17 10.9 28.6s8.6 19.4 9.9 20.6c1.3 1.2 7.2 1.5 10.9-4.4 3.8-5.9 4.3-8.3 3.6-9.9-.6-1.6-3.6-2.3-4.5-4.1s-3.1-9.4-4.9-20.1c-1.8-10.7-2.7-15-5.3-20.8s-4.9-15.3-4.9-15.3L77 111.9z"/><path opacity="0.15" d="M77 111.9s-.5 4.2.1 10.1c.6 5.9 3.5 5.7 7.1 12.8 3.5 7.1 6.5 17 10.9 28.6s8.6 19.4 9.9 20.6c1.3 1.2 7.2 1.5 10.9-4.4 3.8-5.9 4.3-8.3 3.6-9.9-.6-1.6-3.6-2.3-4.5-4.1s-3.1-9.4-4.9-20.1c-1.8-10.7-2.7-15-5.3-20.8s-4.9-15.3-4.9-15.3L77 111.9z"/><path fill="#656565" d="M79.7 37.6c-2.5-1.5-10.3-3-12.8 0-2.8 3.6-2.6 5.4-1.8 17.8 1 14.5-3.2 32.6-7 43.3s-6.7 17-6.4 19.3 15.5 9.2 27.3 12.9c11.8 3.6 22.6-3 24.7-7.7 2-4.7-.4-11.1-.8-19.5s-.6-25.3.5-34.2c1.2-8.9-.5-14.8-3.1-18.2-2.6-3.4-5.8-6.8-11.1-8.1-5.4-1.5-9.5-5.6-9.5-5.6z"/><path opacity="0.15" d="M97.8 62.2c-1.2 3.1-6.2 10.6-8.7 13.7-2.5 3.1-3 4.2-3.3 6-.3 1.8-1.9 32.2-1.9 32.2s4.2-21.7 7.4-26.4c3.2-4.7 6.5-25.5 6.5-25.5z"/><path fill="#FBD7C7" d="M74.3 114.9l6.6.4s-.2 1.6-1.1 5.3c-.9 3.6-1.1 9.2-3.9 11.2s-7 3.3-9.1 3.3c-2.1 0-4-4.3-1.7-5.5 2.3-1.2 4.6-2.1 5.7-6.3 1.1-4.1 1.4-5.3 3.5-8.4z"/><path fill="#FFF" d="M79.6 37.7s8 3.4 11.4 4.5c3.4 1.1 7.5 6.3 7.5 6.3s-2.5-2.9-7.9-4.4c-5.4-1.4-9.8-5-11-6.4z"/><path fill="#FFF" d="M73 116l8 1.2.6-2-8.1-.9z"/><metadata><rdf:RDF xmlns:rdf="http://www.w3.org/1999/02/22-rdf-syntax-ns#" xmlns:rdfs="http://www.w3.org/2000/01/rdf-schema#" xmlns:dc="http://purl.org/dc/elements/1.1/"><rdf:Description about="https://iconscout.com/legal#licenses" dc:title="man" dc:description="man" dc:publisher="Iconscout" dc:date="2017-09-20" dc:format="image/svg+xml" dc:language="en"><dc:creator><rdf:Bag><rdf:li>Icograms</rdf:li></rdf:Bag></dc:creator></rdf:Description></rdf:RDF></metadata></svg>