<?xml version="1.0" encoding="UTF-8"?><svg xmlns="http://www.w3.org/2000/svg" xmlns:xlink="http://www.w3.org/1999/xlink" version="1.1" id="Layer_1" x="0px" y="0px" viewBox="0 0 160 240" xml:space="preserve"><path opacity="0.2" d="M44 231.8c10.3 5.6 30.1-3.1 45.7-10.6 13.4-6.4 41.7-18.9 31.3-25.2s-28 1.4-44.7 9.1C61.6 211.8 29.4 224 44 231.8z"/><path fill="#825012" d="M38.4 213.2s4.7 2.5 7.5 2.6c2.7.1 5.6-.8 5.6-.8s.4 4.8 4.3 6.8c1.3.7 6.7 2 7.5 3.3 2 3.1-2.9 6.2-8.2 6.1-4.5 0-7.6-1.7-10.9-3.3-3.9-1.8-9.7-2.2-10.1-4.4-.9-4.1 4.3-10.3 4.3-10.3z"/><path opacity="0.4" d="M63.3 225.3c0-.1-.1-.1-.2-.2-.2.7-.5 1.4-.9 1.9-1.6 2-6 3.8-10.7 2.1-3.4-1.2-5.1-2.6-9.1-3.7-2.6-.7-6.3-1.4-8.3-3.9-.1.8-.2 1.5 0 2.3.4 2.2 6.2 2.6 10.1 4.4 3.3 1.5 6.4 3.2 10.9 3.3 5.3 0 10.2-3.1 8.2-6.2z"/><path fill="#825012" d="M91 201.1s6.6 2.2 9.3.9 3.5-5.2 3.5-5.2 2.9-1.4 4.9-2.4 4-2.5 6.6-1.8c2.6.7 6.3 3.2 4.2 7.2-1.8 3.4-5.5 5.2-10 7.1-3.6 1.5-9.6 4.8-13.8 4.5-3.7-.3-5.1-3-4.6-5.4.6-2.4-.1-4.9-.1-4.9z"/><path opacity="0.4" d="M119.6 199.8c2.1-4.1-1.6-6.6-4.2-7.2-.5-.1-.9-.1-1.4-.1 4.7 1.5 4.8 3.9 3.9 6.5-1.4 4-10.1 6.8-16.3 9.7-3.1 1.5-7.9 2-10.3-.6.5 1.6 2 3 4.5 3.2 4.1.3 10.2-3 13.8-4.5 4.4-1.7 8.2-3.6 10-7z"/><path fill="#BAA794" d="M54.9 99.7c-.8 2.6-3 6.6-5 10.4-2 3.8-3.9 7.3-3.5 14 .4 7.3 2.6 40.2 1.4 44.2-1.2 4.1-2.9 10.2-5.3 18.8-2.4 8.5-6.1 24.6-7.1 27.3-.5 1.5.4 3.4 5.5 4.6 3.6.8 11.3 1.8 12.7.5.9-.8 2.4-10.5 4.5-15.8 2-5.1 6.8-25.2 7.6-28.9.8-3.7 9.4-22.4 9.4-38.6 0-2.1.8-26.9.8-26.9l-21-9.6z"/><path opacity="0.2" d="M54.9 99.7c-.8 2.6-3 6.6-5 10.4-2 3.8-3.9 7.3-3.5 14 .4 7.3 2.6 40.2 1.4 44.2-1.2 4.1-2.9 10.2-5.3 18.8-2.4 8.5-6.1 24.6-7.1 27.3-.5 1.5.4 3.4 5.5 4.6 3.6.8 11.3 1.8 12.7.5.9-.8 2.4-10.5 4.5-15.8 2-5.1 6.8-25.2 7.6-28.9.8-3.7 9.4-22.4 9.4-38.6 0-2.1.8-26.9.8-26.9l-21-9.6z"/><path fill="#BAA794" d="M64.8 104.5s-1.6 11.7-.8 18.2c.8 6.6 5.1 12.3 8.4 16.5 3.4 4.3 9.2 13.5 11.7 16.7 2.3 3 2.4 4.2 2.2 7.6-.1 3.4-.8 10.2.6 19.1 1.5 9.4 3.5 19 3.6 20.9.1 1.8 5.1 1.4 9.3-.4s7.3-5.3 6.9-7.2-2.3-6.8-3.3-14.7-.5-21.5-.2-26.6c.3-5.1.1-19-2.4-25.2-2.5-6.2-3.9-9.1-4.7-12.5-.8-3.4-.4-8.5-.4-8.5l-30.9-3.9z"/><path fill="#E5E5E5" d="M68.1 49.3c-3.1-.4-6.7-3-11.5.7-4.9 3.7-4.6 8.1-4.2 11.8.4 3.7-.9 8.1 1 15.2s3.3 14.4 2.5 16.8c-.8 2.4-2.2 6.5-3.4 9.3-1.3 3-3.6 7.3-4 8.6-.4 1.3 8 6 18.1 7.3s29.9 2.8 30.5.7c1-3.4.1-6.6.3-9.7.1-3.1 1.1-15.2 1.3-19.6.2-3.4 1.2-6 1.7-10.1s.7-5.6-1.8-9.8c-2.5-4.2-4-9.2-7.9-11.8-3.5-2.3-4.9-2.9-7.2-3.6-2.4-.8-15.4-5.8-15.4-5.8z"/><path fill="#FBD7C7" d="M76.7 76.1l15.5 4.5s-2 6.6-3.3 10.1c-1.3 3.5-2.6 5.2-2.2 7s3.9 25.1 4.3 27.6c.4 2.5 0 10.9-.8 12.9s-5 4.2-7.2 3.9c-2.2-.3-2.8-2.9-3-3.9-.3-1 .7-2.2 2-2.6s2.2-1.8 2.2-1.8-.1-1.3-.3-2.9c-.1-1.6.8-3.5.8-3.5s-5.4-14-7-19-2.2-8.3-2.8-10.8c-.5-2.5-.4-9.2.4-13.4.8-4.5 1.4-8.1 1.4-8.1z"/><path fill="#FBD7C7" d="M64.3 49.7c1.2-.3 4.7-3.3 4.7-5.2s-3.8-9.2-2.4-13.8c2.6-8.5 8.8-11.4 17.6-8.7s7.3 10.8 6.3 17.2c-1 6.4-1.6 7.2-2.9 7.9-1.2.8-2.9 1.4-2.8 3.1.1 1.7.3 4.5.9 5.7.6 1.2-8.9 2.2-14.6-.1s-6.8-6.1-6.8-6.1z"/><path fill="#999" d="M89.1 27.8c-3.9 2.9-10.8 6.9-17.2 4.8-5.1-1.7-2.8-6.6 1.4-10.6-3.9 1.6-5.7 4.4-6.8 7.3-1.8 4.6-.6 9.6.3 12.3.5 1.6 1.8 4.8 5.5 5.6 3.7.9 8.5-3.3 9.2-5.4.7-2 1-4 2.8-4.3 1.8-.3 1.6 2.2 1.6 2.2s2.4-1.2 2.8-5.2c.2-1.2 0-4.5.4-6.7z"/><path opacity="0.2" d="M97 119.8c-.7-3.5-2.3-10.7-3.7-14.6-1.9-5.3-2.8-7.4-2.5-9.8C91 93 94 79.8 94 79.8l-17.6-2.9S71.1 90.1 71.5 98c.5 10.8 5.2 18.4 8.2 22.2 8.1.5 16 .6 17.3-.4z"/><path fill="#E5E5E5" d="M76.9 74.7s-4.3 16.4-4.1 22.9 5.5 19.2 6.8 21.8 3.8 5.6 3.8 5.6l.6 2.1 7.3.5.1-2.6s1-4.7.5-11.1c-.4-5.2-3.5-15.7-3.7-17.1-.1-1.3 4.7-11.6 5.5-14.8s.8-4.7.8-4.7l-17.6-2.6z"/><metadata><rdf:RDF xmlns:rdf="http://www.w3.org/1999/02/22-rdf-syntax-ns#" xmlns:rdfs="http://www.w3.org/2000/01/rdf-schema#" xmlns:dc="http://purl.org/dc/elements/1.1/"><rdf:Description about="https://iconscout.com/legal#licenses" dc:title="man" dc:description="man" dc:publisher="Iconscout" dc:date="2017-09-20" dc:format="image/svg+xml" dc:language="en"><dc:creator><rdf:Bag><rdf:li>Icograms</rdf:li></rdf:Bag></dc:creator></rdf:Description></rdf:RDF></metadata></svg>