<?xml version="1.0" encoding="UTF-8"?><svg xmlns="http://www.w3.org/2000/svg" xmlns:xlink="http://www.w3.org/1999/xlink" version="1.1" id="Layer_1" x="0px" y="0px" viewBox="0 0 80 240" xml:space="preserve"><path fill="#FBD7C7" d="M13.4 105s1 9.1 1.3 12.3 1.3 5.5 2.1 7.3 4.5 6.2 5 5.9c.5-.3-.3-2.1-.3-2.5 0-.4.4-1.7-.2-2.5-.6-.7-1.7-4-1.6-4.7.1-.7 1.4-.9 1.5-1.4l.1-.5s-3.6-6-3.6-8.6c0-2.7-.1-6.1-.1-6.1s-.6-.3-2 0c-1.4.2-2.2.8-2.2.8z"/><path opacity="0.3" fill="#262626" d="M28.1 216.9c.6 1.8-6.7 11.8 7.1 13.5 20.6 2.7 21.6-13.7 29.3-18.2 13.9-8.1-3.1-14.1-22.5-14.1-16.3.1-30.5 1.9-29.4 10.1.7 6.1 14.6 5.6 15.5 8.7z"/><path fill="#762C07" d="M34 200.2s-1.6 1.2-5.5 1.1-7.3-.8-11.4 1.5c-4.8 2.7-1.2 7 .1 7.4 1.3.4 18.1.9 21.2.7s2.1-8.2 2.1-8.2l-6.5-2.5z"/><path fill="#262626" d="M39.4 209.1c-1.5.1-9 .6-13.5.5-5-.1-6.4-.5-7.8-1-1.7-.6-3.2-1.4-3.3-3.1-.5 2.2.9 4.1 2.5 4.6 1.5.5 3.3.9 8.6 1.1 4.2.1 11.3-.3 12.6-.4.8-.1 1.4-.7 1.7-1.6-.4.3-.5-.1-.8-.1z"/><path fill="#762C07" d="M39.7 211s-3.9 4.4-6.6 7.6c-2.7 3.2-3.8 5.6-3.6 7.9s3.5 3.4 8 3.4 9.3-2.8 11.5-5.9c2.3-3.1 5.6-5.9 5.6-7.4s-.1-6.2-.1-6.2l-14.8.6z"/><path fill="#262626" d="M54.6 210.4h-.5c0 1.5.1 3.3.1 4.1 0 1.5-3.4 4.3-5.6 7.4-2.3 3.1-7 5.9-11.5 5.9-3.5 0-6.3-.6-7.4-2v.6c.1 2.3 3.5 3.4 8 3.4 4.6 0 9.3-2.8 11.5-5.9 2.3-3.1 5.6-5.9 5.6-7.4-.1-1.4-.2-6.1-.2-6.1z"/><path fill="#39C" d="M19.7 114.3s-.5 13 1.6 23.9c2.1 10.9 9.5 26.4 9.5 31.1s2.3 19 2.1 22.8c-.1 3.8-.9 8.6-.9 8.6s2.7 5 6.2 6.7c3.5 1.7 7.2-.4 7.2-.4L39 116.5l-19.3-2.2z"/><path opacity="0.2" d="M19.7 114.3s-.5 13 1.6 23.9c2.1 10.9 9.5 26.4 9.5 31.1s2.3 19 2.1 22.8c-.1 3.8-.9 8.6-.9 8.6s2.7 5 6.2 6.7c3.5 1.7 7.2-.4 7.2-.4L39 116.5l-19.3-2.2z"/><path fill="#39C" d="M31.1 119.4s.3 14.3-.3 25.6c-.5 11.3 2.3 21.7 3.4 25.3 1.1 3.6 1.5 9.7 1.5 15.2s.2 26.2 1 27c.8.8 5.2 3.6 10.9 4 4.3.3 9-2.4 9-3.1s1.5-16.4.3-29.1c-1.2-12.7-3.8-19.3-3.6-21.3.1-2 3.1-29.1 2.8-34.7-.3-5.6-2-18.4-2-18.4l-23 9.5z"/><path fill="#FC0" d="M17.9 69.4s-2.2 7.4-3.6 17.6c-1.5 10.7-.7 25.3-.7 25.3s2.1-1.6 6.2-1.6-1.9-41.3-1.9-41.3z"/><path opacity="0.2" d="M17.9 69.4s-2.2 7.4-3.6 17.6c-1.5 10.7-.7 25.3-.7 25.3s2.1-1.6 6.2-1.6-1.9-41.3-1.9-41.3z"/><path fill="#FBD7C7" d="M51.5 127s-.4 2.9-2.3 5.1c-1.9 2.1-3.5 5.8-3.5 7.3 0 2.1 0 3.9.9 4 1.8.2 1.1-1.3 1.7-1.3s.3 2.6 3 2.7c3.5.1 8.5-2.3 8.5-4.6 0-1.2-.5-4.4-.9-6.2-.5-1.9-.5-4.5-.5-4.5l-6.9-2.5z"/><path fill="#FC0" d="M38.8 44c9.5 2.5 20.1 4.6 23.7 12.3 3.1 6.6 2.9 8.7 2.7 14.9-.3 6.2-.8 18.5-.5 22.5.3 4-1.1 20.8-2.3 26.4s-1.6 10.3-2.5 10.6c-.9.3-10.2-.9-9.5-2.3.9-2 1.2-7.6 1.2-7.6s-4.4 5.4-14.2 4c-9.8-1.3-18.2-6.1-19.1-8.6-.4-1.2-.6-19.8.3-24.8s-2-15.7-2.1-20.4c-.1-4.7 2.9-17.4 3.1-19.7.1-3.4 4.2-11.2 19.2-7.3z"/><path opacity="0.2" d="M51.5 120.9s.7-5.2.7-9.8c0-4.6.1-11.3-.4-13.9-.5-2.7-2.2-12.2-2.5-14.7-.7-6.1-.3-9.8.2-11.1-2.4 4.1-1 19-.3 25.2.9 8.7-.3 25.8-.6 26.6-.3.7 2.9-2.3 2.9-2.3z"/><path fill="#FBD7C7" d="M42.5 38.2s0 5.2.9 6.1 3 1.3 2.3 2.6c-.7 1.3-8.1 9.7-13.5 9.2-5.3-.5-4-9.4-4-9.4l14.3-8.5z"/><path fill="#FBD7C7" d="M22.8 26.5c-2.2 2.8-1.3 11-.3 14.7s2.2 5.9 2.7 7.3c.4 1.4 1.9 3.6 3.9 3.5s8.2-4.1 10.1-7.1c1.8-3 4.4-5.9 4.8-7.9.4-2 .6-2.9-1.1-3.3-1.7-.4-5.3-7.8-9.9-8.1s-8.9-.8-10.2.9z"/><path fill="#825012" d="M21.5 28.4c-.4 1.6.8 3.3 5.5 3.3s7.6-2.3 8.1-.8c.5 1.5 1.8 5.7 2.2 6.6.4.9 1 2 1.3 1.6s1.8-3.9 2.9-4.7c1.1-.8 1.7-.8 1.7-.8s1.6-8.3-2-12.6c-3.6-4.3-16.2-5.4-19.7 7.4z"/><path fill="#825012" d="M25 46.6s.7-.7 1.6-.8c.4 0 1.3.1 1.9.2.8.2 2.7 1.1 2.7 1.1s-2.8 0-3.7-.1c-1.1-.1-2.5-.4-2.5-.4z"/><path fill="#825012" d="M26.8 49l1.2.1s-.2.6.6 1.3 2.9.8 2.9.8-1.7 1.3-3.2.9c-1.5-.4-2.3-1.8-2.3-1.8s.5-.1.6-.5c.2-.4.2-.8.2-.8z"/><metadata><rdf:RDF xmlns:rdf="http://www.w3.org/1999/02/22-rdf-syntax-ns#" xmlns:rdfs="http://www.w3.org/2000/01/rdf-schema#" xmlns:dc="http://purl.org/dc/elements/1.1/"><rdf:Description about="https://iconscout.com/legal#licenses" dc:title="man" dc:description="man" dc:publisher="Iconscout" dc:date="2017-09-20" dc:format="image/svg+xml" dc:language="en"><dc:creator><rdf:Bag><rdf:li>Icograms</rdf:li></rdf:Bag></dc:creator></rdf:Description></rdf:RDF></metadata></svg>