<?xml version="1.0" encoding="UTF-8"?><svg xmlns="http://www.w3.org/2000/svg" xmlns:xlink="http://www.w3.org/1999/xlink" version="1.1" id="Layer_1" x="0px" y="0px" viewBox="0 0 80 240" xml:space="preserve"><path fill="#FBD7C7" d="M15.3 80.5c-.1 5.9-1.4 12.4-2.9 17.4s-1 10.6-.5 11.7c.5 1 1.8 4.7 2 5.5.3.8 1.6.8 1.8-.8.3-1.6-.4-4.9.2-5.9.6-1 2.3-.1 2.7-2.3.4-2.2-.6-5.8-.1-7.5.5-1.7 2.9-5.6 2.8-8.3-.1-2.7.1-9.2.1-9.2l-6.1-.6z"/><path opacity="0.2" d="M63.8 231.3c26.8-13.1 1-17.8-14.1-26.2C29 193.5 22.4 189.5 6.9 199c-17 10.5.2 17.8 16 25.2 18.1 8.5 25 14.9 40.9 7.1z"/><path fill="#762C07" d="M16.3 194.8c-2.1 2.2-5.1 5.4-8.1 6.9-3 1.6-5.8 3.8-5.3 6 .5 2.1 3.8 4.6 10.1 3 3.7-.9 5.3-4.4 7.8-5.1s6.4-2.2 6.7-3.6c.3-1.4.3-5.2.3-5.2l-11.5-2z"/><path fill="#762C07" d="M54.6 214.2c-1 2.4-2.6 5.6-5.3 8.1-2.6 2.5-4.7 6.2-3.2 8.1s8.1 2.4 11.3.6 10-7.6 10.4-8.8c.5-1.2-.1-6.2-.1-6.2l-13.1-1.8z"/><path opacity="0.5" d="M27.6 202c.1-.4.1-.9.2-1.5-1.3 1.1-4.3 2.5-7 3.3-3.4.9-5.7 4.8-9.3 5.9-3.2.9-7.9-.5-8.4-3.3-.2.5-.2.9-.1 1.4.5 2.1 3.8 4.6 10.1 3 3.7-.9 5.3-4.4 7.8-5.1s6.4-2.3 6.7-3.7z"/><path opacity="0.5" d="M67.9 222.3c.2-.4.2-1.2.2-2.2-1.1 1.5-3.5 3.6-5.4 5.3-2.1 2.1-5.5 5-9.5 5.5-3.2.4-6.3-.2-7.5-2.5-.1.8 0 1.5.4 2 1.5 1.9 8.1 2.4 11.3.6 3.3-1.8 10-7.6 10.5-8.7z"/><path fill="#656565" d="M17.2 102.8s-3 9.5-4 23.1.6 35.5.6 46.4 1.1 19.2.4 21.3c-.7 2.1-1.2 3.3 0 3.3s5.9 2.1 8.7 2.7 5.1 1 5.7-.9 3-23.6 2.7-31c-.3-7.4.2-12.7 2-19.2s5.3-26.8 5.3-26.8l.3-13.9-21.7-5z"/><path opacity="0.2" d="M17.2 102.8s-3 9.5-4 23.1.6 35.5.6 46.4 1.1 19.2.4 21.3c-.7 2.1-1.2 3.3 0 3.3s5.9 2.1 8.7 2.7 5.1 1 5.7-.9 3-23.6 2.7-31c-.3-7.4.2-12.7 2-19.2s5.3-26.8 5.3-26.8l.3-13.9-21.7-5z"/><path fill="#656565" d="M26.1 105.9c-.1 1.4.3 19.9 1.5 23.3 1.2 3.4 5.1 5.3 7.8 13.2 2.7 7.9 3.5 15.2 6.2 23.6s10.1 36 10.5 41.7c.5 5.7-.5 8.7.4 9.2 1.6 1 3.6 1.7 5.8 2.4 2.3.7 7.4 1.1 9.6-.1 2.1-1.3 2.5-2.2 1.8-7.2-.8-5-3.2-25.1-5.2-32.1s-6.2-33.4-6.4-41.9c-.3-8.5.5-17.1-2.8-24.1s-6.3-9.4-6.3-9.4l-22.9 1.4z"/><path fill="#762C07" d="M16.6 100.7l-.1 3.6s1.1 5.9 13.8 7.1c12.7 1.2 20.4-4.8 20.4-4.8l-.7-3.1s-11 5.3-21.5 3.6-11.9-6.4-11.9-6.4z"/><path fill="#E5E5E5" d="M30.6 45.8c-4.5 1.6-11 1.3-12.9 6.8S12.8 67.3 13.5 73c.7 5.7 2.4 12 2.5 15.2.1 3.2-.6 8.2.1 10.7s.8 5 4.9 6.8c6.1 2.7 11.6 3.4 18.6 2.4 8-1.1 10.6-3.3 11.3-5.3.7-2.1 1.2-5.5 2-10s2.3-10.4 2.3-10.4 3.1 4.6 4.5 5.2c1.5.7 3.2.6 3.2.6s1.6 1.4 2.2 1.4c.7 0 4.5-1 7.2-2.7 2.7-1.6 3.9-2.8 3.9-3.2 0-.4-1.1-2.3-1.1-2.3s1.2-1.1.5-2.1-6.5-8.3-8.4-11.7c-1.9-3.4-4.8-10-9-12.1s-9.3-1.9-10.9-2.6c-1.6-.7.3-3.3-.4-4.2-.7-.9-9.8-5.3-16.3-2.9z"/><path fill="#FBD7C7" d="M25 67.3l3.9-7.9s3.3-.8 6.2-3.4c2.9-2.6 8.5-5.3 8.5-5.3s-2.9-2.7-3.3-5.5c-.3-2.9 3.1-7.1 1.8-13.9-1.2-6.6-7.1-11.5-16.3-7.4S17.3 43 19.3 49.5c1.9 6.5 7.3 4.3 7.3 4.3s-1.1 5.1-1.2 7c-.1 1.8-.4 6.5-.4 6.5z"/><path fill="#FBD7C7" d="M76 84s3 3.9 3.9 6.7-3 8.6-9.7 13.2c-6.7 4.6-15.3 8.9-17.2 10.2-1.9 1.4-8.5 6.7-11.1 7.3-5.4 1.4-8.1-.6-8.7-2.7-.6-2.1 6.3-5.3 7.1-6.2s0-2.8-.8-3c-.8-.3-2.8-.6-3.3-2s1.2-.9 2.6-.6 4.5 1.1 5.5 1.5c1 .3 1.6 1.5 3.2.9s8.7-9.1 12.7-12.4c3.6-3.1 7.5-4.1 7.5-4.1l-2-3.3s2.6-.5 6.1-2.3C73.8 86 76 84 76 84z"/><path fill="#825012" d="M19.1 31.1c-.1 1.2.9 2.5 3.9 3.3 3.8.9 7.8-2.1 11-.2 1.7 1.1 2.3 7.2 3.3 7.2.4-1.9 1.1-3.8 2.8-3.5 1.5.3 1.3 2.2 1.2 2.9.9.4 3.7-7.9.2-13.9C38 21 30 20.8 25.2 23.5s-6 6.4-6.1 7.6z"/><metadata><rdf:RDF xmlns:rdf="http://www.w3.org/1999/02/22-rdf-syntax-ns#" xmlns:rdfs="http://www.w3.org/2000/01/rdf-schema#" xmlns:dc="http://purl.org/dc/elements/1.1/"><rdf:Description about="https://iconscout.com/legal#licenses" dc:title="man" dc:description="man" dc:publisher="Iconscout" dc:date="2017-09-20" dc:format="image/svg+xml" dc:language="en"><dc:creator><rdf:Bag><rdf:li>Icograms</rdf:li></rdf:Bag></dc:creator></rdf:Description></rdf:RDF></metadata></svg>