<?xml version="1.0" encoding="UTF-8"?><svg xmlns="http://www.w3.org/2000/svg" xmlns:xlink="http://www.w3.org/1999/xlink" version="1.1" id="Layer_1" x="0px" y="0px" viewBox="0 0 80 240" xml:space="preserve"><path opacity="0.2" d="M64.8 232c19.4-9.4 1.8-21.9-17.4-25.3-8.4-1.5-13.5-14.9-34.6-1.6-16.9 10.8 0 17.9 8.6 22 12 5.5 25.3 13.6 43.4 4.9z"/><path fill="#FBD7C7" d="M23.3 93.5s-2 9.7-3.1 12.8c-1.2 3-2 7.7-1.5 11.1s2.1 10.4 2.7 11.5c.7 1.1 3.2 3.6 4 4 .8.4 2.4-14.9 2.4-14.9l-4.5-24.5z"/><path fill="#E5E5E5" d="M19 108.7l4.1 2.2 1.6-12-.9-14.9s-2.3 5.6-3.2 11.5c-.9 5.8-.7 9.1-.7 9.1l-.9 4.1z"/><path fill="#825012" d="M27.2 201.6s2.2 2.9 6.2 2.3c4-.5 7.9-2.1 7.9-2.1s1.1 6.3-.7 7.9c-1.8 1.6-8.5 1.9-11.4 3.3-2.9 1.4-6.9 4.2-11.2 4.5-9.2.7-7.8-6.8-3.6-8.7 3.3-1.4 6.7-3 8.8-4.2 2.1-1.1 4-3 4-3z"/><path opacity="0.4" d="M41.6 207.4c-2.7 1.3-8.3 2.4-11.1 3-3.4.6-9.7 5.7-14.1 5.8-3.1.1-4.9-1.3-4.9-4-1 2.7.4 5.9 6.6 5.5 4.3-.3 8.3-3.1 11.2-4.5 2.9-1.4 9.6-1.6 11.4-3.3.5-.6.7-1.5.9-2.5z"/><path fill="#825012" d="M53.9 214.6s2.4 2.1 5.7 1.7c3.3-.4 7.9-3.8 8.2-2.1.3 1.7 2 5.2.6 6.3-1.4 1.1-9.1 5.7-10.4 7.1-1.4 1.4-5.6 4.8-9.9 5.3-4.8.5-9.2-1.3-9.2-4.8 0-4.1 6.6-6.9 9.4-8.8 2.7-2.1 5.6-4.7 5.6-4.7z"/><path opacity="0.4" d="M57.9 227.5c1.4-1.4 9.1-6 10.4-7.1.7-.5.6-1.6.4-2.7-2 1.7-5.9 3.7-9.5 5.9-5.2 3.3-6.2 7.4-13.4 7.7-5 .2-6.9-2.2-6.9-4.6-.1.4-.2.8-.2 1.2 0 3.5 4.4 5.4 9.2 4.8 4.4-.4 8.6-3.8 10-5.2z"/><path fill="#BAA794" d="M22.9 109.3c-1 3.9-.6 15.3.2 21.4.8 6 1.7 19.1 3.2 31.7 1 8.5-.7 31.9-1.9 37.4-.7 3.7-3.4 6.2 1 7.7 4.8 1.7 10 2 15.1.5 2.2-.6 1.7-2.8 1.8-6.3.1-4.7 1.5-15.8 1.9-19.9s.7-9.4.9-14c.3-4.6 1.7-20.7 2.2-24.4.5-3.7.5-32.6.5-32.6l-24.9-1.5z"/><path opacity="0.2" d="M22.9 109.3c-1 3.9-.6 15.3.2 21.4.8 6 1.7 19.1 3.2 31.7 1 8.5-.7 31.9-1.9 37.4-.7 3.7-3.4 6.2 1 7.7 4.8 1.7 10 2 15.1.5 2.2-.6 1.7-2.8 1.8-6.3.1-4.7 1.5-15.8 1.9-19.9s.7-9.4.9-14c.3-4.6 1.7-20.7 2.2-24.4.5-3.7.5-32.6.5-32.6l-24.9-1.5z"/><path fill="#BAA794" d="M30.4 109.5s-1.5 8.2 2.2 12.8c3.7 4.6 8.6 6.7 8.5 9.9-.1 3.3 2.9 21.3 5 27.4s2.6 14.4 3.3 20.2c.7 5.8 1.5 21.9 1.2 26.2-.3 5.6-1.8 10.8-2.2 12.8-.3 1.4 5 3.5 8.2 3.7 5.4.3 8.3-1.5 10.4-3 1.9-1.3 1.8-1.5 1.7-4.6-.1-3.1-.7-31.8-1.2-39s2.4-38.8 2.2-45.2c-.5-11.6-4.1-22.1-4.1-22.1l-35.2.9z"/><path fill="#E5E5E5" d="M49.1 46.1c-8.4-.5-15.3-2.4-18.2 2.4s-2.7 7.9-4.1 10.2-4.3 8.8-4.2 13.4c.1 4.6 1.4 7.3.8 9.9-.7 2.6-1.5 11.7-1.6 15.2-.2 6.8-.6 13.1.5 14.8 1.7 2.6 16.6 4.1 27.2 2.8 12-1.4 19.9-5.1 19.9-6.2s-4.7-13.4-5.5-15c-6.6-13.8 10.1-18.4 10-19.1-.1-2 .7-8.6.2-11.5-.5-2.9-4.1-7.6-6.7-10-2.6-2.5-6.8-6.5-9.7-7.3-2.7-.8-8.6.4-8.6.4z"/><path fill="#FBD7C7" d="M58.1 78.2s5.2.4 9.1-.8 6-2.4 6-2.4 1.3 12.9 2.3 15.6c1 2.7.9 7.3-.5 12.6s-4.1 23.6-4 26.4c.1 2.8-.2 6.3-.7 8.3s-1.9 5.8-4.5 7.3c-3 1.7-6.4 1.4-7.6.4-1.9-1.5 1.9-7.3 1.1-8.1-.8-.8-2.4-.6-2.9.7s-2.4 2.7-3.4 2c-1-.7.2-1.8.8-2.9.6-1.2 2-3.9 3.4-4.8s4-1.4 4.6-3.8c.6-2.5 0-13 .6-18.5s2.9-10.5 2.8-11.6c-.1-1.1-3.6-9.2-5.2-14.1-1.5-4.4-1.9-6.3-1.9-6.3z"/><path fill="#FBD7C7" d="M35.5 24.5c-2.8 4.3-1.3 14.8-.9 17.5.4 2.6 1.1 5.4 3 6.2 1.9.7 3.6 1.5 3.6 2.7 0 1.2-3 3.9-1.7 4.7 1.3.8 8.5.9 14.5-1.5 5.6-2.3 7.2-5 6.4-6-.7-.9-4.2-2.9-4.2-5.9.1-3.1 3.1-7.8 3.2-12.4.1-9.1-13.3-14.6-21.1-8.3-1 .7-2 1.7-2.8 3z"/><path fill="#999" d="M49.1 20.1c5.6 3.1-3.8 6.8-1.6 9 1.9 1.8 1.9 7.3 2.9 9 1.2 2.1 2.4-2.3 3.5-3.4 1-1 2.8-1.2 3.3.3s-.4 3.7-.5 4.3c1.6-.3 3.7-5.7 3.3-11.4-.4-6.8-10.1-13.2-20.6-7.3-2.1 1.2-2.8 2.5-1.7 1.6 2-1.6 7.9-4.1 11.4-2.1z"/><path opacity="0.2" d="M57.6 78.2s2.8 13.9 2.7 17.9-4.3 17.7-4.3 17.7l9.9-2.4 2.9-15.8-11.2-17.4z"/><path fill="#E5E5E5" d="M61.2 120.9c.2 1.6.6 5.3.6 5.3l-.8 3.3s5.2-.1 6.9.8c1.6.9 3.4 2.1 3.4 2.1V127s4.1-14 5.2-18.9c1.1-4.8.3-13.7.1-15.3-.3-1.6-2.2-19.6-2.2-22.8s-.4-6.5-.4-6.5L54.5 70s7.2 18.5 7.9 23c.7 4.6-2.1 19.2-1.2 27.9z"/><metadata><rdf:RDF xmlns:rdf="http://www.w3.org/1999/02/22-rdf-syntax-ns#" xmlns:rdfs="http://www.w3.org/2000/01/rdf-schema#" xmlns:dc="http://purl.org/dc/elements/1.1/"><rdf:Description about="https://iconscout.com/legal#licenses" dc:title="man" dc:description="man" dc:publisher="Iconscout" dc:date="2017-09-20" dc:format="image/svg+xml" dc:language="en"><dc:creator><rdf:Bag><rdf:li>Icograms</rdf:li></rdf:Bag></dc:creator></rdf:Description></rdf:RDF></metadata></svg>