<?xml version="1.0" encoding="UTF-8"?><svg xmlns="http://www.w3.org/2000/svg" xmlns:xlink="http://www.w3.org/1999/xlink" version="1.1" id="Layer_1" x="0px" y="0px" viewBox="0 0 80 240" xml:space="preserve"><path opacity="0.2" d="M64.5 231.1c19.4-9.4 1.8-21.9-17.4-25.3-8.4-1.5-13.5-14.9-34.6-1.6-16.9 10.8 0 17.9 8.6 22 12 5.6 25.4 13.7 43.4 4.9z"/><path fill="#825012" d="M26.4 200.8s2.2 2.9 6.2 2.3 7.9-2.1 7.9-2.1 1.1 6.3-.7 7.9c-1.8 1.6-8.5 1.9-11.4 3.3-2.9 1.4-6.9 4.2-11.2 4.5-9.2.7-7.8-6.8-3.6-8.7 3.3-1.4 6.7-3 8.8-4.2s4-3 4-3z"/><path opacity="0.4" d="M40.7 206.6c-2.7 1.3-8.3 2.4-11.1 3-3.4.6-9.7 5.7-14.1 5.8-3.1.1-4.9-1.3-4.9-4-1 2.7.4 5.9 6.6 5.5 4.3-.3 8.3-3.1 11.2-4.5 2.9-1.4 9.6-1.6 11.4-3.3.5-.6.8-1.5.9-2.5z"/><path fill="#825012" d="M53.1 213.8s2.4 2.1 5.7 1.7c3.3-.4 7.9-3.8 8.2-2.1s2 5.2.6 6.3c-1.4 1.1-9.1 5.7-10.4 7.1-1.4 1.4-5.6 4.8-9.9 5.3-4.8.5-9.2-1.3-9.2-4.8 0-4.1 6.6-6.9 9.4-8.8 2.7-2.1 5.6-4.7 5.6-4.7z"/><path opacity="0.4" d="M57.1 226.7c1.4-1.4 9.1-6 10.4-7.1.7-.5.6-1.6.4-2.7-2 1.7-5.9 3.7-9.5 5.9-5.2 3.3-6.2 7.4-13.4 7.7-5 .2-6.9-2.2-6.9-4.6-.1.4-.2.8-.2 1.2 0 3.5 4.4 5.4 9.2 4.8 4.4-.4 8.6-3.8 10-5.2z"/><path fill="#FBD7C7" d="M22.5 92.7s-2 9.7-3.1 12.8c-1.2 3-2 7.7-1.5 11.1s2.1 10.4 2.7 11.5c.7 1.1 3.2 3.6 4 4 .8.4 2.4-14.9 2.4-14.9l-4.5-24.5z"/><path fill="#06547A" d="M22 108.5c-1 3.9-.6 15.3.2 21.4.8 6 1.7 19.1 3.2 31.7 1 8.5-.7 31.9-1.9 37.4-.7 3.7-3.4 6.2 1 7.7 4.8 1.7 10 2 15.1.5 2.2-.6 1.7-2.8 1.8-6.3.1-4.7 1.5-15.8 1.9-19.9.4-4.1.7-9.4.9-14s1.7-20.7 2.2-24.4c.5-3.7.5-32.6.5-32.6L22 108.5z"/><path opacity="0.2" d="M22 108.5c-1 3.9-.6 15.3.2 21.4.8 6 1.7 19.1 3.2 31.7 1 8.5-.7 31.9-1.9 37.4-.7 3.7-3.4 6.2 1 7.7 4.8 1.7 10 2 15.1.5 2.2-.6 1.7-2.8 1.8-6.3.1-4.7 1.5-15.8 1.9-19.9.4-4.1.7-9.4.9-14s1.7-20.7 2.2-24.4c.5-3.7.5-32.6.5-32.6L22 108.5z"/><path fill="#06547A" d="M29.6 108.7s-1.5 8.2 2.2 12.8 8.6 6.7 8.5 9.9c-.1 3.3 2.9 21.3 5 27.4s2.6 14.4 3.3 20.2c.7 5.8 1.5 21.9 1.2 26.2-.3 5.6-1.8 10.8-2.2 12.8-.3 1.4 5 3.5 8.2 3.7 5.4.3 8.3-1.5 10.4-3 1.9-1.3 1.8-1.5 1.7-4.6-.1-3.1-.7-31.8-1.2-39-.5-7.2 2.4-38.8 2.2-45.2-.5-11.6-4.1-22.1-4.1-22.1l-35.2.9z"/><path fill="#999" d="M48.3 45.3c-8.4-.5-15.3-2.4-18.2 2.4s-2.7 7.9-4.1 10.2-4.3 8.8-4.2 13.4c.1 4.6 1.4 7.3.8 9.9-.7 2.6-1.5 11.7-1.6 15.2-.2 6.8-.6 13.1.5 14.8 1.7 2.6 16.6 4.1 27.2 2.8 12-1.4 19.9-5.1 19.9-6.2 0-1-4.7-13.4-5.5-15-6.6-13.8 10.1-18.4 10-19.1-.1-2 .7-8.6.2-11.5-.5-2.9-4.1-7.6-6.7-10-2.6-2.5-6.8-6.5-9.7-7.3s-8.6.4-8.6.4z"/><path fill="#FBD7C7" d="M57.2 77.4s5.2.4 9.1-.8c3.9-1.3 6-2.4 6-2.4s1.3 12.9 2.3 15.6.9 7.3-.5 12.6-4.1 23.6-4 26.4c.1 2.8-.2 6.3-.7 8.3s-1.9 5.8-4.5 7.3c-3 1.7-6.4 1.4-7.6.4-1.9-1.5 1.9-7.3 1.1-8.1-.8-.8-2.4-.6-2.9.7-.5 1.4-2.4 2.7-3.4 2-1-.7.2-1.8.8-2.9.6-1.2 2-3.9 3.4-4.8 1.5-.9 4-1.4 4.6-3.8.6-2.5 0-13 .6-18.5s2.9-10.5 2.8-11.6c-.1-1.1-3.6-9.2-5.2-14.1-1.4-4.5-1.9-6.3-1.9-6.3z"/><path fill="#FBD7C7" d="M35.1 23.6c-2.8 4.3-1.7 14.9-1.3 17.5s1.1 5.4 3 6.2c1.9.7 3.6 1.5 3.6 2.7 0 1.2-3 3.9-1.7 4.7s8.5.9 14.5-1.5c5.6-2.3 7.2-5 6.4-6-.7-.9-4.2-2.9-4.2-5.9.1-3.1 3.1-7.8 3.2-12.4.1-10.3-16.5-16.1-23.5-5.3z"/><path fill="#2D3134" d="M33.8 26.1c2.5 3 10.7 0 12.9 2.2 1.9 1.8 1.9 7.3 2.9 9 1.2 2.1 2.4-2.3 3.5-3.4 1-1 2.8-1.2 3.3.3s-.4 3.7-.5 4.3c1.6-.3 3.7-5.7 3.3-11.4-.4-6.8-10.5-13.5-21-7.6-5.6 3.1-4.4 6.6-4.4 6.6z"/><metadata><rdf:RDF xmlns:rdf="http://www.w3.org/1999/02/22-rdf-syntax-ns#" xmlns:rdfs="http://www.w3.org/2000/01/rdf-schema#" xmlns:dc="http://purl.org/dc/elements/1.1/"><rdf:Description about="https://iconscout.com/legal#licenses" dc:title="man" dc:description="man" dc:publisher="Iconscout" dc:date="2017-09-20" dc:format="image/svg+xml" dc:language="en"><dc:creator><rdf:Bag><rdf:li>Icograms</rdf:li></rdf:Bag></dc:creator></rdf:Description></rdf:RDF></metadata></svg>