<?xml version="1.0" encoding="UTF-8"?><svg xmlns="http://www.w3.org/2000/svg" xmlns:xlink="http://www.w3.org/1999/xlink" version="1.1" id="Layer_1" x="0px" y="0px" viewBox="0 0 160 240" xml:space="preserve"><path opacity="0.2" d="M60.1 229.4c19.4-9.4 10.1-21.9-9.2-25.3-8.4-1.5-13.5-14.9-34.6-1.6-16.9 10.8 0 17.9 8.6 22 12.1 5.7 17.2 13.7 35.2 4.9z"/><path fill="#262626" d="M11.5 209c-.6 2.5 0 4.3 2.4 5.6 2.4 1.2 4.8 2 9.2.3s8.7-5.6 13-7.4c4.3-1.8 6.9-3.9 7-7.9.1-3.9-13-6.1-16.4-1.9-3.4 4.2-7.7 6.3-9.8 7.4s-4.8 1.6-5.4 3.9z"/><path fill="#FFF" d="M12.3 209.1c.4 1.2 3.4 3.9 6.5 3.3s7.2-3 10.3-5.1c3.2-2.1 6.7-3.8 9.1-4.9s-7.9-8.1-7.9-8.1-4.7 5.5-9.6 9c-4 2.8-9.2 3.7-8.4 5.8z"/><path fill="#262626" d="M52.6 209.3c-.8 3.1-2.4 6.9-6.6 11.6-4.2 4.6-3.9 4.8-3.6 6.5.3 1.7.2 3.3 3.6 3.7 3.4.3 6.3-.1 8.8-1.7 2.4-1.6 9.3-8.8 11.1-11.1 1.8-2.3 3.1-2.9 3.1-6s-16.4-3-16.4-3z"/><path fill="#FFF" d="M67.1 212.4c-1.8 2.4-6.4 7.6-9.6 10.5-2.7 2.4-3.7 4-7.5 4.6-3.4.6-6.5.3-7.3-.7s1.4-3.6 4.9-7.5c3.6-4 5.2-10.6 5.2-10.6l14.3 3.7z"/><path fill="#06547A" d="M67.8 130.9c-7.6 1.7-24.2 7.9-29 9.3S29 143 28 150s1.1 16.4.7 25.7c-.4 9.3-1 13-.6 14.9.4 2 .5 2.4-1.3 3.7-1.8 1.4-3.2 4.6-2.3 6.4 1 1.8 7.9 6.5 13.9 4.8s5.2-3.3 6.3-9.2c1.1-5.9 1.8-15.9 2.4-24.4.6-8.5 0-12.7 1.1-13.6 1.1-1 7.4-.6 17.2-2.5s20.6-9.2 20.6-9.2l-18.2-15.7z"/><path opacity="0.2" d="M67.8 130.9c-7.6 1.7-24.2 7.9-29 9.3S29 143 28 150s1.1 16.4.7 25.7c-.4 9.3-1 13-.6 14.9.4 2 .5 2.4-1.3 3.7-1.8 1.4-3.2 4.6-2.3 6.4 1 1.8 7.9 6.5 13.9 4.8s5.2-3.3 6.3-9.2c1.1-5.9 1.8-15.9 2.4-24.4.6-8.5 0-12.7 1.1-13.6 1.1-1 7.4-.6 17.2-2.5s20.6-9.2 20.6-9.2l-18.2-15.7z"/><path fill="#06547A" d="M73.9 142.8c-6.3 3.1-15.3 12.7-16.6 16.9-1.3 4.2-1.2 13.9-1.3 17.2-.1 3.2-1.2 21.9-2.7 27.1-.8 2.6-2.3 4.3-2.6 6.4-.3 2.1-1.3 2.7-.1 4 1.2 1.3 7.9 2.8 12.4 2.7 4.5-.1 5.7-.6 6.7-2.3s1.5-3.2.5-5.5-.9-4.2.6-5.9c1.5-1.7 1.4-6.4 1.8-9.9.7-6.1 1.3-22.5 1.9-23.1.6-.6 11.7-5.1 17.1-8.2 6.6-3.8 9.1-11.4 8.1-20.3s-4.4-12.7-4.4-12.7l-21.4 13.6z"/><path fill="#FBD7C7" d="M50.3 85.9c-.8 1.7-1.9 3.5-3.3 6.7-1.7 4-5 9.1-6.1 11.2-1.3 2.6-3.1 4.6-3.1 9.2 0 4.8 2.1 19.3 1.9 21.4-.2 2-.5 4.1 1.4 5.6 1.9 1.6 3.3 2.7 3.5 3.7.2 1 .6 1.2.6 2.4-.1 2.7.1 3.7.7 3.8 1 .2 1.2-3.3 1.2-4.2 0-.9-.1-1.8-.1-1.8s.8 1 1.1 3c.3 2 .2 4.6 1.4 5 1.2.4 1.2-1.4 1-3.2-.2-1.8-.4-3.1-.4-3.1l-.7-2s1.9 1.4 2.7 2.7c.7 1 1.1 2.1 1.3 3.1.2.9.8 2.9 1.6 2.8 1-.1.6-2.4.4-3.4-.2-1-1.2-3.7-1.4-4.1l-.7-1.4s1 0 1.9 1c.9 1 1.5 2.5 2.3 3.5s1.2 1.7 1.9 1.2-1.1-4.1-1.6-4.9c-.5-.9-.6-2-1.9-2.7-1.3-.7-3.7-2.5-4.8-3.3-1.2-.8-3.2-1.7-3.4-2.8-.3-1.2-.6-4.1-.4-6.2 1-12.9.1-16.5.5-17.5.5-1.2 4-6.1 7.5-9.8 3.5-3.7 6.7-7.4 6.7-7.4l-11.7-8.5z"/><path fill="#E5E5E5" d="M64 75.2c-4.5.2-8.6 0-11.8 5.2-3.2 5.2-2.9 7.1-2.9 7.1s6 2.6 6.3 3.3.3 5.8 1.2 8.3 3.7 6.8 3.9 11.4c.2 4.6-.4 20.7.1 22.5.8 2.8 4.1 7.9 10.1 9.5 6 1.6 15.3 1.4 21.2-3.2 5.4-4.2 5.1-5.6 5-7.5-.1-1.9-4.1-5.1-4.6-8.8-.5-3.7 2.2-11.9 2-19.6-.1-7.7-.5-10.9-5.1-16.8C85 81 80.2 76.3 77.5 74.8c-3.4-2-13.5.4-13.5.4z"/><path fill="#FBD7C7" d="M65.2 84.6s1 8 8.5 6.9c7.4-1.1 10.7-5.6 10.5-8.4-.2-2.4-2.3-4-4.6-6.3-1.6-1.7-3.5-2.7-3.4-3.7.2-2 2.7-9.9-1.2-14.6-6.6-7.9-14.4-3.6-16.7-1.9-6 4.6-6.7 11.2-6.1 14.6.6 3.3 2.5 12.9 5 14.5 2.4 1.7 8-1.1 8-1.1z"/><path fill="#825012" d="M74.6 72.6s.7.4 1.7.4c.2-2 2.7-9.9-1.2-14.6-6.6-7.9-14.4-3.6-16.7-1.9-3 2.3-4.7 5.1-5.5 7.7 1 .9.4 2.7 3.1 3.5 2.9.8 4.4-3 7.5-1.5 3.1 1.5 4 8 4 8l2.2-1.6s.9-3.3 3.1-3.2c2.1.2 1.8 3.2 1.8 3.2z"/><path fill="#FBD7C7" d="M62 153.7s1-1.3 2-1.8c.9-.5 2-.9 2.6-.5.6.4 4 2.4 6.3 1.6 2.3-.8 3.1-1.7 4.3-3.4s9.6-8.3 11.5-17.3 4.7-23.4 4.1-24.2c-.5-.8-12.2-3.5-13.7-2.7s.2 9.5.7 13.4c.5 3.9 1.1 8.3.3 9.3-.8.9-2.7 4.4-4.3 8.4-1.5 3.9-2.9 8.8-3.4 8.8s-2.4-1.9-4.6-1.6-2.2.8-3 1.2c-.6.3-1.7 1-2.7 1.6-1 .6-1.8 1.4-1.8 2.5s.9 4.7 1.7 4.7z"/><metadata><rdf:RDF xmlns:rdf="http://www.w3.org/1999/02/22-rdf-syntax-ns#" xmlns:rdfs="http://www.w3.org/2000/01/rdf-schema#" xmlns:dc="http://purl.org/dc/elements/1.1/"><rdf:Description about="https://iconscout.com/legal#licenses" dc:title="basicman" dc:description="basicman" dc:publisher="Iconscout" dc:date="2017-09-20" dc:format="image/svg+xml" dc:language="en"><dc:creator><rdf:Bag><rdf:li>Icograms</rdf:li></rdf:Bag></dc:creator></rdf:Description></rdf:RDF></metadata></svg>