<?xml version="1.0" encoding="UTF-8"?><svg xmlns="http://www.w3.org/2000/svg" xmlns:xlink="http://www.w3.org/1999/xlink" version="1.1" id="Layer_1" x="0px" y="0px" viewBox="0 0 160 160" xml:space="preserve"><path opacity="0.2" d="M21.1 135.6c8.8 4.6 19.7 1.3 24.8-1.3s8.3-.3 9.5 1.9c1.2 2.2 3.3 10 9.1 12.3 5.8 2.3 12.3 2.3 19.7-5 7.5-7.3 14.5-5.5 18.6-3.5s8 8.2 9.7 9.1c1.8.9 1.1-2.8 3.4-1.8 2.4 1.1 8.5 5.1 12 2.7 3.4-2.5-4.7-7.5-9.8-9.8-24.6-11-9-14.8-20.3-22.6s-20.3 2.7-28.3-2.6-17-3.4-24.7 1.4c-7.7 4.8-36.9 12.3-23.7 19.2z"/><path fill="#262626" d="M54.6 129c-3.6 2.1-12.3 6.9-16.2 7.3-4.8.5-7.4-1.6-8.3-5.1-1.4-5.2 18.2-13.5 18.2-13.5l6.3 11.3z"/><path fill="#FFF" d="M52.8 127.7c-4.5 2-12.3 7.5-16.9 6-4.5-1.6-4.6-4.4-3.4-6.7 2.4-4.6 17.4-7.2 17.4-7.2l2.9 7.9z"/><path fill="#262626" d="M47 121.8c1.7-.2 1.3 2.9.4 3.9s-7.6 4.5-11.5 6.1-10.3 3-13.5 2.5-3.4-3.7-1.9-4.9c1.6-1.2 6.4-2.4 9.2-5.7 2-2.4 4.6-6.5 4.6-6.5l12.7 4.6z"/><path fill="#FFF" d="M45.1 123.1c-2.1 1-7.6 4.6-12.4 6.1-4.8 1.5-9.6 2.2-11.6.9-1.3-.9 3.8-1.7 6.5-4 3.8-3.1 5.1-6.6 5.1-6.6l12.4 3.6z"/><path fill="#06547A" d="M58.5 111.1c-3-.3-8.1 1.1-9.9 6.2-1.8 5.1-1.2 9.7 1 10.6 2.2.9 3.5.1 4.4 1.5s3.3 7 4.5 10.1c1.2 3.1 3.2 6.4 5.5 8 2.3 1.6 6.2 2.7 10.2.4 4-2.4 8-6.5 11.6-8.8 4.7-3 14.9-12.6 17.2-16.3 2.3-3.7 2.1-6.2 2.1-6.2l-24.4-10.8s-9.5 9.1-9.7 10.2c-.2 1.1 2.2 3.3 1.9 4.6s-.6 2-.6 2-7.7-10.9-13.8-11.5z"/><path fill="#06547A" d="M80.3 108.2l-9 8.1s-2.3-1.2-3.7-3c-1.6-2.1-5.7-12.6-5.7-12.6s-3.6 7-4.7 9.8c-1.1 2.8-7.6 8.8-7.8 10.5-.2 1.7-.1 3.4-1.9 3.6-1.8.2-14.1-.2-16.6-1.8-1.9-1.2-.7-5.1 2.5-7.1 2-1.3 2.8-3.3 3.8-6.2 1-2.8 3.7-4.9 5.5-8.6 1.8-3.7 7.3-20.2 9.3-24.4 2-4 6.5-9.2 13-4.9 6.8 4.5 7.9 5.7 11.6 10.2 3.5 4.2 7.3 9.2 7.3 9.2l-3.6 17.2z"/><path opacity="0.2" d="M80.3 108.2l-9 8.1s-2.3-1.2-3.7-3c-1.6-2.1-5.7-12.6-5.7-12.6s-3.6 7-4.7 9.8c-1.1 2.8-7.6 8.8-7.8 10.5-.2 1.7-.1 3.4-1.9 3.6-1.8.2-14.1-.2-16.6-1.8-1.9-1.2-.7-5.1 2.5-7.1 2-1.3 2.8-3.3 3.8-6.2 1-2.8 3.7-4.9 5.5-8.6 1.8-3.7 7.3-20.2 9.3-24.4 2-4 6.5-9.2 13-4.9 6.8 4.5 7.9 5.7 11.6 10.2 3.5 4.2 7.3 9.2 7.3 9.2l-3.6 17.2z"/><path fill="#FBD7C7" d="M87.9 59.2c-5 .1-13.4-1.6-17.7-2.6-4.3-1-7.6-1.7-9.5 2.6s-6.6 19.9-7 21.5c-.4 1.6-1.9 8.3-2.1 10.5-.1 1.3.8 5 1.5 5.7.7.7 1.4 0 1.5.4.2.3.9 3.1 1.7 3.5.8.3 1.3-.4 1.6-.2s.8 2.2 2 2.1c1-.1.8-.8.8-.8s.9 1.5 1.8 1.2c1.2-.4-.1-3.1-.3-5.6-.2-3.2.1-4.4.1-4.4s1.1-.3 1.3-1.3.5-5.5-.2-6.7c-.7-1.2-2.6-2.9-2.6-3.9s1.1-4.6 3.7-8c2.6-3.4 3.5-6.5 3.5-6.5s3.8 2.1 9.1 3.8c5.3 1.6 10.5 2.6 10.5 2.6l.3-13.9z"/><path fill="#E5E5E5" d="M95.9 60.7c-3.3-.8-4.1-1.9-7.5-2.2s-4.2-.2-4.9.9-1.5 5-1 8.5 1.8 5.2 2 7.2c.2 2 .2 5 .9 8.2.6 3.2 1.3 4.9 1.3 4.9s-2 .9-3.3 1.6c-1.4.7-2.5 7-3.9 10.4s-3.5 5.7.6 11.2c4.5 5.9 9.7 12.4 16.2 12.9 4 .3 6.4.1 7.6-1.9 1.3-2 2.2-5.3 3.2-6.4 1-1.1 12.1-11.1 13.2-13.6s.3-2.7 1.9-4.5c1.6-1.8 3.5-7.4 2.6-11.2-.9-3.8-6.7-12.4-10.3-16.8-8.1-9.6-18.6-9.2-18.6-9.2z"/><path fill="#FBD7C7" d="M108.8 64.6s.1 1.3 1.5 2.2 4.6 3.8 4.7 6.2c.1 2.4-6.3 9.7-11.6 9.3-5.3-.4-7.5-7.3-7.4-8.6.1-1.3 5.4-9.6 5.4-9.6l7.4.5z"/><path fill="#FBD7C7" d="M111.4 60.6s1.6 1-1 3.9c-2.6 2.8-3.3 1.9-3.3 1.9s-.7 3.8-4.5 5.6c-3.8 1.8-9.9 4.9-12.3 2.4-2.2-2.3-1.7-11.4-1.2-16.7s4.3-12.2 10-13.8c5.2-1.4 13 .9 13.9 7.2s-1.6 9.5-1.6 9.5z"/><path fill="#825012" d="M111.4 60.6s2.5-3.2 1.6-9.5c-.9-6.3-8.7-8.6-13.9-7.2-2.5.7-4.6 2.4-6.2 4.5.3 1.2-.7 3.6 1.4 4.9 2.4 1.4 5.2-.7 8.2.8 3 1.5 2 9.3 2 9.3l2.2-.1s.6-2 2.2-2.6c1.1-.5 1.9-.4 2.5-.1z"/><path fill="#FBD7C7" d="M108.9 96.1s3.6 2.8 6.7 3.1c3.1.3 6.2-.8 6.2-.8s-1.2 5.9-1.4 8.8c-.2 2.9 0 7.5-1.4 11.4s-5.6 17.2-5.2 17.9c.3.7 8.8 4.2 10.3 5 1.5.8 4.1 2.7 4.2 3.2 0 .1 0 .4-.5.7 1 .8 2.8 2.1 2.2 2.8-.5.6-1.1.6-1.5.4.1.1 1.2.9.8 1.5-.7.8-2.5-.1-3.4-.7.3.3.3.7-.2 1.2-.6.6-2.8-.3-4.1-1.1-1.3-.8-7.3-4.1-7.3-4.1s.7 1.6.5 2.8c-.2 1.2-1.4 1.3-1.9.8s-2.2-3.6-2.7-3.9-1.3-1.6-1.2-2.3c.1-.7-.1-1.5-.7-2.9s-.9-2-.5-6.5c.5-4.5.2-10.7 1.3-15.3.7-3.2 1.6-5.2 1.4-6.2-.1-1-1.7-5.8-1.8-9.8-.1-3.1.2-6 .2-6z"/><metadata><rdf:RDF xmlns:rdf="http://www.w3.org/1999/02/22-rdf-syntax-ns#" xmlns:rdfs="http://www.w3.org/2000/01/rdf-schema#" xmlns:dc="http://purl.org/dc/elements/1.1/"><rdf:Description about="https://iconscout.com/legal#licenses" dc:title="basicman" dc:description="basicman" dc:publisher="Iconscout" dc:date="2017-09-20" dc:format="image/svg+xml" dc:language="en"><dc:creator><rdf:Bag><rdf:li>Icograms</rdf:li></rdf:Bag></dc:creator></rdf:Description></rdf:RDF></metadata></svg>