<?xml version="1.0" encoding="UTF-8"?><svg xmlns="http://www.w3.org/2000/svg" xmlns:xlink="http://www.w3.org/1999/xlink" version="1.1" id="Layer_1" x="0px" y="0px" viewBox="0 0 80 240" xml:space="preserve"><path fill="#FBD7C7" d="M37.7 67.9l12.7-7.7-3.1-8.7-6.3-7.4-9.6-1.3c-.1 4-1 10.7-6.9 13.6-1.3.5 13.2 11.5 13.2 11.5z"/><path opacity="0.2" d="M23.7 231.7c-7-2.4-25-17.2-4.2-23 18.4-5.2 23.6-17.9 45.3-5.8 10.7 6 7.3 13.9-10.6 18.2-12 2.9-14.2 16.2-30.5 10.6z"/><path fill="#262626" d="M35.1 202.3c-.3 2.3 1.2 4.4 4.9 5.7 4.1 1.5 9.1 4.3 11.5 5.7 4 2.3 8.7 2.3 11.9 1 2.4-1 2.7-2.5 2.3-5-.4-2.6-3-2.7-7.2-4.3-3.8-1.5-10.1-7.2-10.1-7.2l-13.3 4.1z"/><path fill="#FFF" d="M36.4 203.4c3 1 6.4 2 9.3 3.7 3 1.8 10.3 6.3 14.7 5.4 3.2-.7 4.6-1.9 4.4-3.4-.2-1.5-4.1-2.4-7.1-3.7-2-.8-9-6.8-9-6.8l-12.3 4.8z"/><path fill="#262626" d="M15.9 217.6c2.5 4.3 3.8 10 8.3 12.5 4.5 2.5 8.6 1.9 12.3.3 2.2-1 1.4-3.9.9-5s-2.4-2.3-4.8-4.8c-3-3.1-4.5-7.7-4.5-7.7l-12.2 4.7z"/><path fill="#FFF" d="M18.2 217.1s2.6 7.9 6.4 9.9c4 2.1 6.6 1.6 10 .6 3.4-1 3.2-1.8.7-3.9-2.6-2.2-5.7-5.9-5.8-7.3s-11.3.7-11.3.7z"/><path fill="#06547A" d="M55.3 112c1.8 3.9 4.3 11.7 4.1 24.2-.2 12.5-.1 17.1 0 20.3.1 3.3-.8 5.5-2.7 11.2-1.6 5.1-6.6 23.6-6.3 27.4.1.9 2 1.6 2.4 3.6s.5 2.7-1.9 4c-2.4 1.3-9.4 5.2-14.4 3.2-2.1-.8-3-1-2.8-5.4.2-4.4.6-12.9 1.7-21.5s4.6-15.5 4.1-21.2c-.5-5.7-9-21.5-8.2-29.6s1-10.3 1-10.3l23-5.9z"/><path opacity="0.2" d="M55.3 112c1.8 3.9 4.3 11.7 4.1 24.2-.2 12.5-.1 17.1 0 20.3.1 3.3-.8 5.5-2.7 11.2-1.6 5.1-6.6 23.6-6.3 27.4.1.9 2 1.6 2.4 3.6s.5 2.7-1.9 4c-2.4 1.3-9.4 5.2-14.4 3.2-2.1-.8-3-1-2.8-5.4.2-4.4.6-12.9 1.7-21.5s4.6-15.5 4.1-21.2c-.5-5.7-9-21.5-8.2-29.6s1-10.3 1-10.3l23-5.9z"/><path fill="#06547A" d="M45.4 121.3s2 10.2.8 13.5c-1.2 3.3-3.8 3.5-4 6.7-.2 3.1-.6 12.1-1.8 17.3-1.2 5.2-3.5 16.2-5 20.2s-2.7 14.6-3.9 20.3c-.9 4.7-2.1 8.5-1.6 12s1.1 5.2.7 5.5c-.4.3-4.4.4-7.3 1.6s-6.3 1-8.1-.5-2.7-4.5-1.7-6.9 1.3-3.5.2-7.4.7-5.2 1.3-7.5c.6-2.3-.4-5.5.7-10.1.7-3.4 4-10 3.9-15.6-.1-5.6-3.3-27.2-2.4-36.3 1-9.1 3.3-14.2 3.3-14.2l24.9 1.4z"/><path fill="#FBD7C7" d="M58.3 61.1s-3.9 23.1-3.6 29.4c.3 6.3.8 20.6.8 20.6l-9.7-5.6s-1.5-12.7-1-16.1 5.5-16.3 5.5-16.3l8-12z"/><path fill="#E5E5E5" d="M44.7 51.1s7.9.4 11.5 4.3 2 6.5 1.2 8.4-.3 3-.3 6.6-1.4 9.9-3.1 12.5c-1.7 2.6-.7 5-.6 7.9.1 2.9 1 5.9 1.2 10.5.2 4.6 1.7 12.6 2 13.7.3 1.2-2.7 4.4-11.1 7.4-6.7 2.3-23.4 1.4-25.7-2.4s2.3-6.9 2-11.8c-.3-4.9-5.4-21-5.4-21S11.2 75.3 11 72.9c-.3-2.4-.3-8.9 2.7-11.3s12.1-6.4 12.1-6.4 6.6 11 14.8 8.9c9.2-2.2 4.1-13 4.1-13z"/><path fill="#FBD7C7" d="M25.8 129.2c.2-.9.9-1.2.9-2.7-.1-1.4.1-2.7-.6-3.5-.7-.8-1.6-.7-2.6-2.1-1-1.4-3-7.2-4.5-13.7-1.4-6.5-3.5-11.3-3.7-11.7-.3-.5 2-3.8 4.4-8.7 2.1-4.4 3.5-8.3 5.3-11-2.4.2-7.3.4-9.5-.2-1.7-.5-3.4-1.5-4.5-2.2-1.1 6.9-3.8 15-4.3 16.6-.5 1.8-1.7 4.9.3 10.5s9 19 8.9 21.3c-.1 2.3-.6 7.8-.5 9.6.1 1.8 1.8 1.7 2.6 2.5s2.6.7 2.9 1.7 1.8 1 2.5 1.6c.7.6 2.2 1.2 2.9.7.7-.5.3-1.8-.2-2.6-.4-.8-.5-5.3-.3-6.1z"/><path fill="#FBD7C7" d="M37.4 24.8c-5.4.3-8.4 3.5-8.6 7.1s0 6.2 0 6.2-1-.4-1.3.8c-.3 1.3.7 4.6 2.5 6.2 1.8 1.6 2.7 4.7 4.8 6.9 2.1 2.3 6.7 5.4 9.9 5 3.2-.4 5.7-12.5 5.5-16.4s0-16.5-12.8-15.8z"/><path fill="#825012" d="M37.4 24.5c-5.4.3-8.4 3.6-8.8 7.4-.3 2.8-.1 5.1.1 6.1.6.3 1.6.6 2.3 1.7 1 1.7 1 2.4 1 2.4l1.4-.5s1.5-7.5 3.7-8.3c2.2-.8 4.1 1.9 7 1.3s2.5-2.9 3.7-3c.2 0 .6.1 1 .3-1.4-4-4.5-7.7-11.4-7.4z"/><metadata><rdf:RDF xmlns:rdf="http://www.w3.org/1999/02/22-rdf-syntax-ns#" xmlns:rdfs="http://www.w3.org/2000/01/rdf-schema#" xmlns:dc="http://purl.org/dc/elements/1.1/"><rdf:Description about="https://iconscout.com/legal#licenses" dc:title="basicman" dc:description="basicman" dc:publisher="Iconscout" dc:date="2017-09-20" dc:format="image/svg+xml" dc:language="en"><dc:creator><rdf:Bag><rdf:li>Icograms</rdf:li></rdf:Bag></dc:creator></rdf:Description></rdf:RDF></metadata></svg>