<?xml version="1.0" encoding="UTF-8"?><svg xmlns="http://www.w3.org/2000/svg" xmlns:xlink="http://www.w3.org/1999/xlink" version="1.1" id="Layer_1" x="0px" y="0px" viewBox="0 0 80 240" xml:space="preserve"><path opacity="0.2" d="M67.6 232c26.9-13.2 1-17.9-14.1-26.3-20.8-11.6-27.5-15.7-43-6.1-17.1 10.6.2 17.9 16.1 25.3 18 8.5 25 14.9 41 7.1z"/><path fill="#762C07" d="M10.2 210.9c-.3 1.9-.7 3.5 2 4.2 2.6.7 5.4.3 7.9-1.7s3.7-3.1 7.1-4.1 5-4 5-6.5c0-2.6-2.1-4.7-6.5-3.3-4.5 1.4-6.8 3.3-6.8 3.3l-8.7 8.1z"/><path opacity="0.5" d="M32.2 202.7c0-.8-.2-1.5-.6-2.2.5 2.2.3 6.4-7.5 8-2.4.5-5.8 3.7-8.3 4.5-1.9.6-4.3 0-5.7-1.1-.2 1.4 0 2.6 2.1 3.2 2.6.7 5.4.3 7.9-1.7s3.7-3.1 7.1-4.1c3.5-1 5-4 5-6.6z"/><path fill="#762C07" d="M50 227.8c0 2.6-1.1 5 2.2 5.6s10.3-3.8 13-4.5c2.9-.8 9.9-3.6 9.9-6.1s-2.9-5.2-6.1-5c-3.1.3-9.1.7-9.1.7l-9.9 9.3z"/><path opacity="0.5" d="M75 222.8c0-1.4-.9-2.8-2.2-3.8 3.9 4.7-2.5 6.3-6.2 7.3-4.5 1.2-9.5 4.2-12.2 5-1.9.5-3.5-.1-4.6-.7 0 1.4.3 2.5 2.3 2.9 3.3.6 10.3-3.8 13-4.5 3-.9 9.9-3.7 9.9-6.2z"/><path fill="#656565" d="M29.3 100c-2.6 4.5-6.9 10.8-8.6 19.8-1.7 9-1.9 28.3-4.6 40.1s-4.6 18.2-6.5 31.2c-1.9 13-2.7 19 .6 20.4 3.1 1.4 7.9.8 11.1-1.7 4.2-3.2 3.9-6.9 3.8-9.4s2.3-10.3 3.7-16.8c1.4-6.5 7.5-27.7 10.3-36.5s8.5-38.7 8.5-38.7L29.3 100z"/><path opacity="0.2" d="M29.3 100c-2.6 4.5-6.9 10.8-8.6 19.8-1.7 9-1.9 28.3-4.6 40.1s-4.6 18.2-6.5 31.2c-1.9 13-2.7 19 .6 20.4 3.1 1.4 7.9.8 11.1-1.7 4.2-3.2 3.9-6.9 3.8-9.4s2.3-10.3 3.7-16.8c1.4-6.5 7.5-27.7 10.3-36.5s8.5-38.7 8.5-38.7L29.3 100z"/><path fill="#656565" d="M36.7 107.3c-1.7 3.6-5.9 18.8-3.3 24 3 6 12.1 36.1 13.2 47.7.5 5.1 1 42.2 1.1 45.7s.9 5.6 5.1 5.9c4.3.3 10.4-2.9 11.1-7.8.7-4.9 1.2-27.4 1-35.4s.5-46.9-1.2-57.8c-1.6-10.9-4.5-21.5-4.5-21.5l-22.5-.8z"/><path fill="#FBD7C7" d="M5.5 73.2c-2.9 2.7-4.8 5.2-3.8 8.4s5.2 7.9 11.1 10.9 8.5 2.4 11.1 5.2 3.7 3.5 5.2 3.4c1.4-.1 6.7-1 6.9-3.8.2-2.7-5.7-4.1-8.4-5.2-2.7-1-12.3-9.9-13.1-11.2-.7-1.3-9-7.7-9-7.7z"/><path fill="#762C07" d="M28.1 99.6l-.2 3.3s1.6 4 9.3 6.1c7.8 2.2 18.1 2.3 20.3 2 2.2-.3 3.3-1.1 3.3-1.1l-.8-3.7s-11.1 2.7-20.3.2c-9.1-2.5-11.6-6.8-11.6-6.8z"/><path fill="#E5E5E5" d="M37 50.8s-2.9-1.5-4.3-.3c-1.3 1.2-.4 2.8-.4 2.8s-7.5-1.3-10.2 0c-2.7 1.3-6.6 3.9-8.3 6.6s-4.5 6.7-6.3 7.4-3.2 3.1-3.6 4.4 0 1.7 0 1.7l-1.3 2s.9 2.6 3.5 4.5c3.3 2.4 9.2 1.8 9.2 1.8s.6-1.6 2.1-1.9 4.5-4.4 4.5-4.4 2.5 13 3.3 17c.9 4 1.5 5.9 2.5 6.9s1.4 3.1 3.5 4.3c5.9 3.4 14.4 4.8 20 4.9 5.6 0 10.2-1.3 10.2-1.3s.1-8.8.6-13.2c.5-4 3.8-10.7 1.5-18.4s-8.6-13.5-8.6-13.5-.2-3.8-2.1-4.9c-1.9-1.1-8.1.4-12.7-1.1S35 53.2 35 53.2l2-2.4z"/><path fill="#FBD7C7" d="M34.4 54.2s3.4-3.2 3.4-6.8c0-3.6-4.3-11.8 0-18.1s15.7-7.7 20.2.6c4.7 8.6 0 20.2-1.5 21s-3.9.1-4.5.7c-.6.5-.6 4.1-.5 5.6.1 1.6-7.4 2.8-11.5 2.2s-5.6-5.2-5.6-5.2z"/><path fill="#FBD7C7" d="M48.1 100.4s4.9.4 7.2.3c2.3-.1 3.8.2 3.8.2l.5 3.2s.7 1.1 2.1 2c1.4.9 1.7 2 1.7 2s2.6-.3 3.1 3.6-.1 5.6-1 6.5c-.9 1-2.7 2.7-3.3 2.5-.6-.2-.1-1.9-.7-2.4-.7-.5-.3-1.4-.7-1.5s-6.8-2.4-9.1-5.7c-2.8-3.9-3.6-10.7-3.6-10.7z"/><path fill="#825012" d="M37.6 45.8c.4 1.2 2.7 3.3 6.1 3.1 3.4-.3 6.9-4.1 7.6-6.3.7-2.3 1.2-4.1 2.6-3.7 1.4.3.3 2.4.9 2.4.7 0 4.8-7.9 4.3-9.8-.3-1.2-1.4-4.6-5.7-7-4.5-2.4-15.1-2.3-17.4 7.4-1.5 6.2 1.6 13.9 1.6 13.9z"/><metadata><rdf:RDF xmlns:rdf="http://www.w3.org/1999/02/22-rdf-syntax-ns#" xmlns:rdfs="http://www.w3.org/2000/01/rdf-schema#" xmlns:dc="http://purl.org/dc/elements/1.1/"><rdf:Description about="https://iconscout.com/legal#licenses" dc:title="man" dc:description="man" dc:publisher="Iconscout" dc:date="2017-09-20" dc:format="image/svg+xml" dc:language="en"><dc:creator><rdf:Bag><rdf:li>Icograms</rdf:li></rdf:Bag></dc:creator></rdf:Description></rdf:RDF></metadata></svg>