<?xml version="1.0" encoding="UTF-8"?><svg xmlns="http://www.w3.org/2000/svg" xmlns:xlink="http://www.w3.org/1999/xlink" version="1.1" id="Layer_1" x="0px" y="0px" viewBox="0 0 160 240" xml:space="preserve"><path fill="#262626" d="M104.1 132.1c1.6 2 8.4 11.9 9.8 13.9 2.2 3.1 2.8 6.3.5 9-2.2 2.7-5.4 2.9-8.1 1.3-2.7-1.6-7.5-9.7-7.5-9.7l5.3-14.5z"/><path fill="#FFF" d="M104.6 136.6c2.1 2.6 6.9 10.1 8.5 12.6 1.3 2 1.7 5.2-1.7 6.9-3.4 1.7-6.7-1-8.2-3.3-1.6-2.2-6.5-9.8-6.5-9.8l7.9-6.4z"/><path opacity="0.2" d="M111 196.3c12.6 6.9 18.6 17 7.9 25.4s-28.3 10.2-42.4 2.4-5.8-16.2 3.7-22.3 19.3-11.8 30.8-5.5z"/><path fill="#06547A" d="M40.1 124.3c-.5 5.2-2 11.3.5 20.7 2.5 9.4 4.8 21 7.7 23.7 2.6 2.5 7.6 3.3 13 .9s13.7-6.7 17.7-7.1 18.6-4.8 18.6-4.8-3.8-16.2-6.9-16.1c-3.1.1-28 7.7-28 7.7l-4.1-22-18.5-3z"/><path opacity="0.2" d="M40.1 124.3c-.5 5.2-2 11.3.5 20.7 2.5 9.4 4.8 21 7.7 23.7 2.6 2.5 7.6 3.3 13 .9s13.7-6.7 17.7-7.1 18.6-4.8 18.6-4.8-3.8-16.2-6.9-16.1c-3.1.1-28 7.7-28 7.7l-4.1-22-18.5-3z"/><path fill="#06547A" d="M50.5 131s3.1 15.1 5.1 17.4 7.1 2.6 7.6 4.3c.5 1.7 12.9 22.7 16.2 25.1 4.2 3.1 12.4 3 14.8-1.4 2.2-4.2 2.9-14.3 5.6-19.8s5.6-7.6 7.2-9.6c2.6-3.3 1-17.5-6.2-18.7-7.2-1.2-8.2 5.2-9.9 8.2s-4.7 8.9-4.7 8.9-5.5-13.1-7.5-17.9-4.7-8.9-4.7-8.9L50.5 131z"/><path fill="#FBD7C7" d="M41.2 25.6c.8 0 6.4.8 8.5-.7 1.2-.8 1.5-2.9 1.5-3.9.1-1-.5-4.3-2.4-4.9-1.8-.6-6-.2-8 1.2-1.6 1.1-2 2-3.3 3.4-1.3 1.3-2.5 2.4-3.3 4.2-1.3 2.6-3.2 10.4-5.7 14.1-2.6 3.9-.6 6.7 1.6 9.4s11.2 11.1 11.6 12.2c.4 1.1 16.2-1.6 14.5-4.8-1.6-3.2-6-4.6-8.1-5.2s-2.9-1-4-2.5c-.7-.9-1.8-2.5-3.7-3.8-2.1-1.3-2.9-2-2.9-2s2.7-4.5 3-8.8c.4-4.3.7-7.9.7-7.9z"/><path fill="#E5E5E5" d="M60.2 58.7s-2.6-3.3-5.3-5-5-2.5-5-2.5-2 1.5-4.2 3.9-4.3 5.4-4.3 5.4S38 67 38.5 76.2s3.6 23 2.9 28.3c-.7 5.3-1.8 18.4-1.8 20.6-.1 2.2 5.8 8.3 15.3 8.1 9.4-.2 22.1-4.4 22.3-9.2s-2.5-4.8-2.7-9.4c-.3-4.6 1-20.4 7.9-29.3 5-6.5 4.3-7.2 8.1-9.4 3.7-2.2-.1-13.4-3.8-13.7s-11.6-.5-15.3 0c-3.6.5-11.2-3.5-11.2-3.5z"/><path fill="#FBD7C7" d="M99 60.7s-1.2-3.2-1.9-9.2c-.7-5.9-.5-8.2-2.1-9.7s-4.3-1.4-4.8-2.6c-.5-1.2-2.2-1.7-2.9-3.1-.8-1.5-.7-3.4.7-4.3 1.4-.9 4.5-2.3 5.8-1.6 1.3.6 1.8 1.3 2.6 2.1 1 1.1 1.8 3 3.4 5.7 1.6 2.7 7.8 16.7 9.4 20.2 1.6 3.5 2.8 7.3 0 10.4-2.8 3.1-7.3 2-11 3.3-3.7 1.4-7.2 4.2-8.8 4.2-1.6 0-6.5-1.7-6.9-8.1s4.6-5.6 5.6-5.5 1.4.2 3.8-.9 7.1-.9 7.1-.9z"/><path fill="#FBD7C7" d="M71.1 59.4c.5-.8 3.8-3.9 5.3-4.3 1.5-.3 3-.5 4.4-1.9 1.7-1.7.7-2.9.7-2.9s3.3-3.5 2.2-9.2c-1.1-5.9-10.2-11.6-17.4-6.3-2.8 2.1-9.5 12.7-9 15.1.5 2.3 1.6 2.8.9 4.1-.7 1.3-1.4 5-2 5.4-.5.3-7 6.2 1 9.8C65.8 73 69.4 66.5 71 65c2.1-2 3.1-2.7 3.1-2.7s-4.6-.2-3-2.9z"/><path fill="#825012" d="M83.7 41.1c-.8-4.2-5.7-8.4-11.1-8.4.4.6 1.1 1.4 1.8 2.1 2.7 2.3 4.2 1.1 5.2 4.2s-3.5 10.2-3.5 10.2l1.2.8s2.9-1.5 4.2.3c.4-.5 3.2-3.9 2.2-9.2z"/><metadata><rdf:RDF xmlns:rdf="http://www.w3.org/1999/02/22-rdf-syntax-ns#" xmlns:rdfs="http://www.w3.org/2000/01/rdf-schema#" xmlns:dc="http://purl.org/dc/elements/1.1/"><rdf:Description about="https://iconscout.com/legal#licenses" dc:title="basicman" dc:description="basicman" dc:publisher="Iconscout" dc:date="2017-09-20" dc:format="image/svg+xml" dc:language="en"><dc:creator><rdf:Bag><rdf:li>Icograms</rdf:li></rdf:Bag></dc:creator></rdf:Description></rdf:RDF></metadata></svg>