<?xml version="1.0" encoding="UTF-8"?><svg xmlns="http://www.w3.org/2000/svg" xmlns:xlink="http://www.w3.org/1999/xlink" version="1.1" id="Layer_1" x="0px" y="0px" viewBox="0 0 160 240" xml:space="preserve"><path fill="#FFF" d="M117.7 78.7s-3.2.8-7.1 6.8c-3.9 6-7.5 20.7-7.2 27s2.4 11.1 2.4 11.1 11.7-26 16.5-30.2c4.8-4.3 10.3-11.7 10-13.5-.2-2-2.8-6.5-14.6-1.2z"/><path fill="#CC291F" d="M115.6 86.3l-.1 2.5s-5.1 6.1-7.1 9.7-6.5 14.2-6.5 14.2l3.8 10.3 6.2-14.4s2.6-9.1 3.7-12.5 1.8-6.5 1.8-6.5l1.5-.4-.2-2.7-1.6-.7-1.5.5z"/><path fill="#656565" d="M110.2 80.1c-3.2 1.5-6.1 3.6-8.2 6.6-2 2.9-8.9 10-15.3 14.7-6.4 4.7-27.6 21-28.2 21.5-.7.5-2.1 3.6 1.1 6.5s5.7 3.6 8.5 2 13.8-8.7 17.2-11.1c3.3-2.3 11.2-8.3 14.4-10.2 3.3-1.9 10.5-30 10.5-30z"/><path fill="#656565" d="M120.8 77.9s-4.5-2.2-8-.7c-3.5 1.5-6.7 10-7.8 14.2-1.1 4.1-4.5 10.5-5.2 13.2-.8 2.7-2.2 10.8-5.7 16.6-3.5 5.8-9.8 13.5-9.8 13.5l15.3 7.8 7.3-21.8s-3.3-9.9-.2-19.4c3.1-9.5 4.1-15.3 6.9-18.1 2.7-2.9 7.2-5.3 7.2-5.3z"/><path opacity="0.2" d="M111.5 87.2l.3 2 3.8-2.9 1.6-.6 1.6.7.4 5.6 1.9-.5-2.6 1.8v-6.5l-1.8-.6-5.3 4.4z"/><path opacity="0.2" d="M69.1 229.6c11.1-5.9 10.1-9 5.8-11.5-4.3-2.4-13.4 0-19.3 2.9s-16 8.3-7.3 11.9c8.7 3.5 15.6-.6 20.8-3.3z"/><path fill="#262626" d="M54.5 139.2c-3.7-1-8.4-4.7-15.6-3.7s-7.3 5.9-3.6 9.6c3.9 3.9 8.7 5.1 13.4 5.2 4.7.1 12-.7 12-.7l-6.2-10.4z"/><path opacity="0.5" d="M57.5 149.1s-11.2 1.5-16.5-1.3-6.9-5.4-6-8.8c.8-2.8 2.9-3.1 6-3.7-.7 0-1.4.1-2.1.2-7.2 1-7.3 5.9-3.6 9.6 3.9 3.9 8.7 5.1 13.4 5.2 2.7.1 6.4-.2 8.9-.4l-.1-.8z"/><path fill="#262626" d="M55.4 208.3c-.6 2.8-2.8 8.1-3.8 11.7-1.1 3.6-3.2 9.9.4 12.3 4.7 3.1 10.7-2.2 11.6-7.5.8-4.6 1-8 2-10.3 1-2.3 3.3-6.9 3.3-6.9l-13.5.7z"/><path opacity="0.5" d="M67.3 207.7c-1 2.1-2.8 6.3-3.8 10.6-.8 3.3-.8 8.4-4.5 12-2.7 2.6-5.9 2.1-8.5.2.3.8.8 1.4 1.5 1.9 4.7 3.1 10.7-2.2 11.6-7.5.8-4.6 1-8 2-10.3s3.3-6.9 3.3-6.9h-1.6z"/><path fill="#656565" d="M88.4 134.4C85 138.5 75 149 72.2 151.8c-2.8 2.8-6.1 5.8-8.2 16.5s-6.6 26.4-8.8 33c-2 5.9-3.7 10.6-1.7 10.8 2 .3 6.6.7 9.2 1.6 2.6.9 6 1.6 6.9-.3s6-17.7 8.7-26c2.6-8.3 4.7-16.6 5.4-17.9s7.4-8 12.5-9.6c4-1.2 8.5-1.2 10.7-3.4s5.4-19.4 5.4-19.4l-23.9-2.7z"/><path opacity="0.3" d="M88.4 134.4C85 138.5 75 149 72.2 151.8c-2.8 2.8-6.1 5.8-8.2 16.5s-6.6 26.4-8.8 33c-2 5.9-3.7 10.6-1.7 10.8 2 .3 6.6.7 9.2 1.6 2.6.9 6 1.6 6.9-.3s6-17.7 8.7-26c2.6-8.3 4.7-16.6 5.4-17.9s7.4-8 12.5-9.6c4-1.2 8.5-1.2 10.7-3.4s5.4-19.4 5.4-19.4l-23.9-2.7z"/><path fill="#656565" d="M52 137.1c1.6.1 5.7 1.2 13.7-1.6s27.8-9.8 29.6-10c1.7-.3 5.4-.1 9.2 4.2 3.8 4.4 14.7 16.3 17.2 17s7 .1 7 .1-2 14.3-12.7 15c-10.6.7-17.3-5-19.4-8.2-2-3.2-3.8-7.4-4.5-7.7-.7-.3-13.1 3.2-20.5 4.8-7.4 1.6-10.8 2.6-13.1 2.2s-8.7-2.9-9.3-7.3c-.7-4.3 2.8-8.5 2.8-8.5z"/><path opacity="0.15" d="M52 137.1c1.6.1 5.7 1.2 13.7-1.6s27.8-9.8 29.6-10c1.7-.3 5.4-.1 9.2 4.2 3.8 4.4 14.7 16.3 17.2 17s7 .1 7 .1-2 14.3-12.7 15c-10.6.7-17.3-5-19.4-8.2-2-3.2-3.8-7.4-4.5-7.7-.7-.3-13.1 3.2-20.5 4.8-7.4 1.6-10.8 2.6-13.1 2.2s-8.7-2.9-9.3-7.3c-.7-4.3 2.8-8.5 2.8-8.5z"/><path fill="#FFF" d="M91.5 133.4c-.4 0 .6 3.5 1.3 5.2.7 1.7 2.1 5 3 4.8s.2-4.4-.6-6.1-2.2-3.9-3.7-3.9z"/><path fill="#FBD7C7" d="M92.5 133.7s1.9 1.5 2.7 3.6c.8 2.2 1.1 3.5-.7 4.4-1.8.8-4.1.9-7.4 2.3s-3.8 2.7-5.9 2.7-6.6-3.1-6.5-5.2 4.4-6.3 8.4-7 9.4-.8 9.4-.8z"/><path fill="#FBD7C7" d="M117.1 57.2c-3 2.8-3.3 6.9-3.5 13.4-.3 6.5-.4 9.4.8 10.5 1.3 1 2.2 1.1 2.2 1.1s.3 3.4.8 3.8 8.8-1.6 10.9-4c2.1-2.4 2.6-3.5 2.6-3.5s-.2-2 1.1-3.3c1.3-1.3 5.2-4.5 3.3-13-2.1-8.4-11.8-11-18.2-5z"/><path fill="#762C07" d="M114.6 59.2s1.8.2 3.9 3.6c2.1 3.3 6.3 3.8 8.2 3.1-.3 4 2.5 6.8 2.6 7.1.1.2 1.7-3.4 3.6-2.6 1.8.8-1.5 5-1.3 5.8.2.8 5.6-3 5.8-12.1.3-9.9-16.7-18.5-22.8-4.9z"/><path fill="#FFF" d="M93.9 132.8l-2.4.5s1.5.4 3.1 3.8c1.6 3.3 1.2 6.2 1.2 6.2l5.1-2-7-8.5z"/><path fill="#656565" d="M103.3 128.5s8-22.3 13.1-29.9 12-13.7 13.7-15.6c1.6-2 1.2-6.1 1.2-6.1s2.7 1.1 5.8 5.9 10 12.9 9.8 18.5c-.2 5.6-1.2 5.9-4.1 10.3s-9 14-9.9 18.7c-1 4.7 0 18.7-4.3 25.4-5 7.6-9.8 6.7-9.8 6.7s2.4-5.8 2.9-9.7c.5-4.1-2.4-7-2.4-7l-5.8-5.1-15.5 3.5s-.8-4.2-2.3-7.4c-1.5-3.2-4-4.1-4-4.1l11.6-4.1z"/><path fill="#FFF" d="M58.4 125.8c-.5.6 1 2.6 3 4.1s2.9 1.9 3.4 1.6c.5-.3.4-3.6-1.7-4.7-2.1-1.3-4.2-1.7-4.7-1z"/><path fill="#FBD7C7" d="M59.7 125.6s1.8-1 3.3.3 1.7 2.1 1.5 2.6-.6 4.3-3.3 6.2c-2.7 1.9-6.2 3.4-7.3 5.1s-2 4.3-4.2 4.4c-2.1.2-3.7-2.8-3.1-6s1.9-6.1 4.5-7.3c2.6-1.2 4.8-2 6.4-3.2 1.6-1.1 2.2-2.1 2.2-2.1z"/><path fill="#FFF" d="M59.3 124.7l-1 1.1s2.2-.5 4 .8c1.8 1.2 2 1.9 2.3 2.7.3.7.2 2.2.2 2.2s.6-.4 1-.8c.5-.5.3-3.2-2.1-4.8-2.3-1.8-4.4-1.2-4.4-1.2z"/><path opacity="0.2" d="M107.3 121.4s8.4-14 10.8-17c2.4-3 5.2-6.3 5.2-6.3l.1-2.6 4.4-.9s2.4-5.4 4.4-7.8c2-2.4 3.3-6 3.3-6s-.8 4.1-2.5 6.6-4 8-4 8l-5.1.6.4 3s-2.5 1.9-5.8 6.2c-2.5 3.2-11.2 16.2-11.2 16.2z"/><metadata><rdf:RDF xmlns:rdf="http://www.w3.org/1999/02/22-rdf-syntax-ns#" xmlns:rdfs="http://www.w3.org/2000/01/rdf-schema#" xmlns:dc="http://purl.org/dc/elements/1.1/"><rdf:Description about="https://iconscout.com/legal#licenses" dc:title="man" dc:description="man" dc:publisher="Iconscout" dc:date="2017-09-20" dc:format="image/svg+xml" dc:language="en"><dc:creator><rdf:Bag><rdf:li>Icograms</rdf:li></rdf:Bag></dc:creator></rdf:Description></rdf:RDF></metadata></svg>