<?xml version="1.0" encoding="UTF-8"?><svg xmlns="http://www.w3.org/2000/svg" xmlns:xlink="http://www.w3.org/1999/xlink" version="1.1" id="Layer_1" x="0px" y="0px" viewBox="0 0 160 240" xml:space="preserve"><path opacity="0.2" d="M36 189.1c17.1-9.5 32.9 2.5 50.8 13.5s51.6 21.3 37.8 28.7c-13.7 7.3-39.8-6.3-53.9-13.7s-50-19.9-34.7-28.5z"/><path fill="#FBD7C7" d="M96.8 98.7c2 5.8 4.6 14.5 5.4 16.5s2.2 4.5 1.6 7.5c-.7 3-1.7 5.1-3.8 5.9-2.1.8-4.3.3-4.3.3l1.1-30.2z"/><path fill="#262626" d="M90.6 215c.1 2.8-1.1 5.3 3.5 6.6 3.6 1 7 1.9 11.9 5.4 2 1.4 4.9 3.1 8 3.5 1.5.2 3.7-.4 4.8-.9 3.1-1.2 2.3-3.7 2.2-4.7-.1-1.7-1.8-2.6-5.1-4-3.3-1.5-5.8-2.6-7.8-5.2-2-2.7-6.1-5.3-6.1-5.3L90.6 215z"/><path fill="#FFF" d="M91.2 216.5s7.9 2.2 10.3 3.7c2.8 1.8 9.9 7.5 13.5 7.6 3.1.1 6-1.4 5.6-3.2-.4-1.8-2.8-2.5-5.9-4s-5.8-3.7-7.1-6.1c-1.2-2.3-16.4 2-16.4 2z"/><path fill="#262626" d="M42.2 193.4s6.1 10.2 8.2 11.8c2.2 1.6 11.1 4.6 14.9 3.7 3.8-.9 3.7-.8 3.9-2.7.2-2 .6-2.2-2.6-3.7-3.1-1.6-6.9-5.3-7.5-7.4-.6-2.1-7.2-6.4-10.2-6.3-2.9.1-6.7 4.6-6.7 4.6z"/><path fill="#FFF" d="M45 193.6c2.9 2.3 5.6 8.2 7.5 9.1 1.9.9 8.9 3.4 13 2.7 3.6-.6 3.9-.8 3-1.7s-5-2.3-6.5-4.6c-1.5-2.4-5.3-7.9-5.3-7.9L45 193.6z"/><path fill="#06547A" d="M97.4 125c1.2 3.7 5.7 16.4 7.9 23.6s5.4 18.1 5.7 20.6c.3 2.2-.9 7.8-1.6 11.3-.7 3.5-2.6 19-2.8 22.9-.2 3-.8 4.6.7 6.3s2.6 4.6 2 5.9c-.7 1.3-6.2 3.4-10.5 3.7-4.3.3-8.8-.1-9.3-1.2s-.8-4.7-.4-8.8c.4-4.1 3-33.8 2.1-37.4-.9-3.7-6.2-16.8-8-21.1-1.2-2.9-2.5-5.4-2.5-5.4l2.9-17.4 13.8-3z"/><path opacity="0.2" d="M97.4 125c1.2 3.7 5.7 16.4 7.9 23.6s5.4 18.1 5.7 20.6c.3 2.2-.9 7.8-1.6 11.3-.7 3.5-2.6 19-2.8 22.9-.2 3-.8 4.6.7 6.3s2.6 4.6 2 5.9c-.7 1.3-6.2 3.4-10.5 3.7-4.3.3-8.8-.1-9.3-1.2s-.8-4.7-.4-8.8c.4-4.1 3-33.8 2.1-37.4-.9-3.7-6.2-16.8-8-21.1-1.2-2.9-2.5-5.4-2.5-5.4l2.9-17.4 13.8-3z"/><path fill="#06547A" d="M84.2 131.8s-2.7 11.7-3.5 13.5-1.9 6.5-3.1 10.7c-3.2 10.9-5.2 13.7-7.8 16.9-2.2 2.7-8.2 10.3-9.5 12.2-1.2 1.6-2.1 3.4-1.4 5.1.7 1.7 1.3 5.2 1.3 5.2s-6 2.7-11.8 1.7c-5.8-1-8.2-4.5-8.2-6.9s2.1-5.8 2.1-5.8-.4-4.1 1.6-6.4c2-2.4 4.3-6.9 6.4-9.7 1.7-2.2 3.1-3.8 3.5-6.8.8-4.9 1.6-14.1 2.4-19.6.8-5.5 1.5-10.5 4.6-19.6 2.4-6.9 5.1-8.1 5.1-8.1l18.3 17.6z"/><path fill="#FBD7C7" d="M78 56.1c-.2 2.3.2 4.2-2.6 6.6-2.8 2.4-4.7 3.4-4.7 3.4s7.1 12.7 15.7 11.3 8.3-13.5 8.3-13.5l-8.1-7.3-8.6-.5z"/><path fill="#E5E5E5" d="M91.5 61.5s4-.7 6.8.1c2.9.9 6.3 3.8 5.9 7.1-.4 3.3-.9 5.1-.7 8.2s.4 9.9-2.5 13.9c-2.8 4-3.2 9.1-3.4 12.8-.1 4 .3 16.8 1 22.8.3 2.6-4.8 5.7-13.8 6.3-7.4.6-22.9-5.6-24-10.9-1.1-5.3 4.8-35.2 4.8-35.2s-7-.1-7.2-1.2c-.2-1.1-1.3-8.6.6-11.8 2.2-3.7 5.5-5.1 8.9-6.6 2.6-1.2 4-2 4-2s5.9 12.1 13.9 10.1c10.7-2.4 5.7-13.6 5.7-13.6z"/><path fill="#FBD7C7" d="M71.7 86.4s-5.1.2-7.7.1c-2.6-.1-5.6-.9-5.6-.9s.5 2.2.2 3.5-2.3 14.8-2.6 15.8c-.5 1.6-.5 3.9.9 6.9 1.3 3 9.4 21.2 9.9 23.5.6 2.3 1.2 4.6 1.2 6.9.1 2.2-.1 2.5 1.3 3.9s2.9 1.8 4.6 2.3c1.6.5 2.8-.6 2.8-.6s1 .7 2.1.6c1-.1 1.4-.9 1.4-.9s2.2 1.4 3 .9c.9-.6-1.3-1.8-2.3-2.8-1-1-1.5-2.8-1.5-2.8s.8-3.1-.4-5.5c-1.2-2.4-1.6-3-3.4-4.3-1.8-1.3-1.9-.1-3.3-3.3-1.4-3.2-2.4-9.8-3.9-13.9-1.4-4.2-3.5-7.9-3.4-9 .1-1.1 3.5-6.7 4.9-12.6 1.6-6.1 1.8-7.8 1.8-7.8z"/><path fill="#FBD7C7" d="M84.5 36.1c-5.4.3-8.4 3.5-8.6 7.1s0 6.2 0 6.2-1-.4-1.3.8c-.3 1.3.7 4.6 2.5 6.2 1.8 1.6 2.7 4.7 4.8 6.9 2.1 2.3 6.7 5.4 9.9 5 3.2-.4 5.7-12.5 5.5-16.4s-.1-16.5-12.8-15.8z"/><path fill="#825012" d="M84.5 35.8c-5.4.3-8.4 3.6-8.8 7.4-.3 2.8-.1 5.1.1 6.1.6.3 1.6.6 2.3 1.7 1 1.7 1 2.4 1 2.4l1.4-.5s1.5-7.5 3.7-8.3 4.1 1.9 7 1.3c2.8-.6 2.5-2.9 3.7-3 .2 0 .6.1 1 .3-1.5-4-4.5-7.8-11.4-7.4z"/><metadata><rdf:RDF xmlns:rdf="http://www.w3.org/1999/02/22-rdf-syntax-ns#" xmlns:rdfs="http://www.w3.org/2000/01/rdf-schema#" xmlns:dc="http://purl.org/dc/elements/1.1/"><rdf:Description about="https://iconscout.com/legal#licenses" dc:title="basicman" dc:description="basicman" dc:publisher="Iconscout" dc:date="2017-09-20" dc:format="image/svg+xml" dc:language="en"><dc:creator><rdf:Bag><rdf:li>Icograms</rdf:li></rdf:Bag></dc:creator></rdf:Description></rdf:RDF></metadata></svg>