<?xml version="1.0" encoding="UTF-8"?><svg xmlns="http://www.w3.org/2000/svg" xmlns:xlink="http://www.w3.org/1999/xlink" version="1.1" id="Layer_1" x="0px" y="0px" viewBox="0 0 80 240" xml:space="preserve"><path opacity="0.2" d="M66.2 233.5c21.2-5.9 7.4-23.7-17.8-25.9-8.7-.8-12.5-13.3-34 .4-17.3 11-1.3 16.3 7.5 20.5 12.1 5.7 23.4 10.8 44.3 5z"/><path fill="#E5E5E5" d="M9.2 59.3c-1.4 5.7-2.4 24-1.9 26.4.5 2.4 4.6 18.3 5.2 21.1.5 2.8.5 6.4.5 6.4l10-9.1-5.2-29.3-8.6-15.5z"/><path opacity="0.2" d="M10.3 65.4c-1.4 5.7 2 16.7 2.5 19.2s-1.3 14.5.4 19.9c.9 2.7.2 6.1.2 6.1l9.5-6.5-5.2-29.3-7.4-9.4z"/><path fill="#825012" d="M12.8 211.7c-.6 2-2.9 7.7 1.6 9 5.2 1.5 7.6-.7 12.3-2.5s11.9-3.3 14.8-5.9c2.2-2-1.8-5.9-6-6.4s-5.3 1.4-6.5 1c-1.2-.3-1.9-1.2-1.9-1.2s-1.3 4.9-5.9 5.8-8.4.2-8.4.2z"/><path fill="#BAA794" d="M16.4 105c-2.8 3.4-5.9 7.4-5.6 16.4.3 9.1.3 23.9 1.4 30.2s.6 13.2-.2 20.7-2.5 20-2.3 25.3c.2 6.6.9 14.3 1 17.4.1 2.5 3.3 4 6.8 3.1s9.5-4.9 10.5-5.6c.9-.7 3-2.8 2-5.1s-.9-14.1-.1-19.3 2.8-20.8 2.8-25.3c0-4.4 7.8-15.2 8.1-24.2.3-9 .3-32.2.3-32.2L16.4 105z"/><path opacity="0.2" d="M16.4 105c-2.8 3.4-5.9 7.4-5.6 16.4.3 9.1.3 23.9 1.4 30.2s.6 13.2-.2 20.7-2.5 20-2.3 25.3c.2 6.6.9 14.3 1 17.4.1 2.5 3.3 4 6.8 3.1s9.5-4.9 10.5-5.6c.9-.7 3-2.8 2-5.1s-.9-14.1-.1-19.3 2.8-20.8 2.8-25.3c0-4.4 7.8-15.2 8.1-24.2.3-9 .3-32.2.3-32.2L16.4 105z"/><path opacity="0.4" d="M32.8 213.9c-4.4 1.1-11.2 4.2-15 5-2.4.5-4.7-.5-6.1-1.4.2 1.4.9 2.7 2.7 3.2 5.2 1.5 7.6-.7 12.3-2.5s11.9-3.3 14.8-5.9c1.3-1.2.5-3-1.3-4.4.2.3.4.7.6 1.2 1.2 2.7-3.6 3.7-8 4.8z"/><path fill="#825012" d="M38.4 223c-1.1 2.7-1.9 7.9 2 8.7s12.2-1.1 16.1-1.2 13.2-1.6 14.4-4.4-1.2-6.4-6.8-6c-5.5.4-8.2-1.2-8.2-1.2s-4.5 4.1-8.7 4.7-8.8-.6-8.8-.6z"/><path opacity="0.4" d="M70.8 226.1c.6-1.3.3-2.8-.6-3.9.4 1.2.4 2.4-.6 3.5-2.9 3.1-7.6 1.9-17.5 3.1-8.2 1-12.1.8-14.6-.3.2 1.6 1 2.9 2.8 3.3 3.9.9 12.2-1.1 16.1-1.2 3.9-.2 13.2-1.6 14.4-4.5z"/><path fill="#BAA794" d="M25.8 105.9s-1.8 13.4.4 19.3 6.4 13.8 7 20.8c.6 7 3.3 19.3 2.3 26.7-1 7.4-1.1 19-.7 27.9.4 7.7 1.7 23.6 1.8 25.9.1 3.8 7.4 4 11.4 2.4 5.2-2.1 10.7-6.2 10-7.8s-1.5-8-1.8-14.5c-.3-6.5-1.1-29.3 0-34.5 1.1-5.1 3-16.2 3.5-33.3.4-16.3.9-23.6.5-26.7-.4-3-34.4-6.2-34.4-6.2z"/><path fill="#E5E5E5" d="M27.3 49c-3.8-1.3-9.2-3.6-15.5 2s-.7 23.2 1.1 27.6 2.8 10.5 2.7 13c-.1 2.5-1.4 3.3-1.9 5.9s-.5 7.9-1.4 9.6c-.9 1.7-1.9 5-.1 5.6s21.6 6.4 31.2 6.3 14.8-3.8 16.2-4.8c1.4-.9 2.2-18.3 1.7-23.4-.5-5.2-.3-12.1-.1-15.3.2-4.3-1.7-10.3-4.9-12.5-3.1-2.1-7.4-5.6-12.2-8s-16.8-6-16.8-6z"/><path fill="#FBD7C7" d="M21.5 48.6c1.2-.3 4.8-3.3 4.8-5.4 0-2-3.9-9.4-2.4-14.1 2.7-8.6 9-11.7 18-8.9s7.5 11.1 6.5 17.6c-1 6.5-1.7 7.3-2.9 8.1-1.3.8-2.9 1.4-2.9 3.1.1 1.7.3 4.6.9 5.8.5 1.2-9.2 2.2-15-.1s-7-6.1-7-6.1z"/><path fill="#999" d="M46.8 26.2c-4 3-11 7-17.5 4.9-5.3-1.7-2.8-6.7 1.4-10.8-4 1.6-5.8 4.5-7 7.4-1.8 4.7-.6 9.8.3 12.6.5 1.6 1.8 4.9 5.6 5.8 3.8.9 8.7-3.4 9.4-5.5.7-2.1 1-4.1 2.9-4.4 1.9-.3 1.7 2.2 1.7 2.2s2.5-1.3 2.9-5.4c.1-1.2-.1-4.5.3-6.8z"/><path fill="#FBD7C7" d="M55.1 67.5c1.5 3 2.3 20.6 2.3 25.3 0 4.6-.4 7.8.7 10.6s5.4 16 6.2 18.6c.8 2.5 1.9 5.4 1.9 7.2 0 1.8-.7 9.2-1.3 11.2s-2.6 6.4-4 7.3-5.4 2.5-5.8 1.4c-.5-1.1 3-2.3 3.1-3.3s.1-8.2.1-9.6c0-1.4 1.9-4.8 1.3-6-.5-1.3-6.4-9.6-8.8-14.8s-2.5-7.6-3.5-9.6c-1-1.9-4.8-11.7-5.8-16s-5.2-15-2.2-20.5c3-5.7 12.3-8.7 15.8-1.8z"/><path opacity="0.2" d="M50.8 96.4c-.3-2.6-.3-5.6-.3-8.4-.5-2-1.1-3.6-1.5-4.7-2.5-6.7 6.3-15 6.3-15s-17.9 5.1-18.9 7.1c-1.6 3.2 5.1 25.3 5.4 31.2.3 5.9-3.9 12-3.9 12 2 .2 3.8.4 5.3.4 9.6-.1 14.8-3.8 16.2-4.8 1.5-1-8-12.7-8.6-17.8z"/><path fill="#E5E5E5" d="M49.8 117.9s3.8 5.4 5 7 3.2 3.5 3.2 3.5l.8 2s3.3-1 4.9-1.2 2.8-.7 2.8-.7L66 126s.2-2.4-.1-3.9-5.4-14.3-5.4-14.3-1.7-15.2-3.2-35.7c-1.3-17.8-25.9-8-19.9 9.2 5.5 16 12.4 36.6 12.4 36.6z"/><metadata><rdf:RDF xmlns:rdf="http://www.w3.org/1999/02/22-rdf-syntax-ns#" xmlns:rdfs="http://www.w3.org/2000/01/rdf-schema#" xmlns:dc="http://purl.org/dc/elements/1.1/"><rdf:Description about="https://iconscout.com/legal#licenses" dc:title="man" dc:description="man" dc:publisher="Iconscout" dc:date="2017-09-20" dc:format="image/svg+xml" dc:language="en"><dc:creator><rdf:Bag><rdf:li>Icograms</rdf:li></rdf:Bag></dc:creator></rdf:Description></rdf:RDF></metadata></svg>