<?xml version="1.0" encoding="UTF-8"?><svg xmlns="http://www.w3.org/2000/svg" xmlns:xlink="http://www.w3.org/1999/xlink" version="1.1" id="Layer_1" x="0px" y="0px" viewBox="0 0 160 240" xml:space="preserve"><path opacity="0.2" d="M37.7 231.8c10.3 5.6 32.9-3.3 48.4-10.8 13.4-6.4 41.7-18.9 31.3-25.2-10.4-6.3-28 1.4-44.7 9.1-14.5 6.6-49.5 19-35 26.9z"/><path fill="#825012" d="M50.1 214.7c-1.7 2.5-6 6.6-8.2 7.6-2.2.9-6.1.4-6.8 2.8-.7 2.4.6 4.5 4.5 5.2 3.9.7 7.7 0 9.7-1 2-1 7.8-2.9 11-2.7s4.2-1.4 4.3-3.1c.1-1.8-.7-8.2-.7-8.2l-13.8-.6z"/><path opacity="0.4" d="M49.3 229.2c2-1 7.8-2.9 11-2.7 3.1.2 4.2-1.4 4.3-3.1v-1.1c-.6 1.2-1.7 2.3-3.2 2.4-3.2.1-4.2.3-7.4 1.3-3.2.9-7.8 3.7-13.3 2.9-4-.5-5-2.1-5.3-4.2-.1.1-.1.3-.2.4-.7 2.4.6 4.5 4.5 5.2s7.6-.1 9.6-1.1z"/><path fill="#825012" d="M106 188.3s-.4 1.2-2.3 4.6c-1.9 3.4-4.8 5.4-6.3 6.5-1.5 1.1-3.3 2.7-2.9 4.3 1.6 7.1 15.9 5 19.6-3.5 1.5-3.5 7.5-9.9 6.6-12.5-.8-2.4-2.3-4.9-3.7-5.3-1.4-.5-11 5.9-11 5.9z"/><path opacity="0.4" d="M114 200.1c1.5-3.5 7.5-9.9 6.6-12.5-.1-.4-.3-.8-.5-1.2-.9 3.1-4.7 7.4-6 10.5-4.6 11.2-16.1 11.3-19.7 6.1v.7c1.6 7.1 16 5 19.6-3.6z"/><path fill="#06547A" d="M55.7 118.4s-3.2 5.9-4.4 13.1c-1.2 7.2-2.7 31.4-2.5 39.1.4 20.2-1.3 44.2-1.9 45.9-.5 1.6 6.8 2.5 10.2 2.5 3.4 0 8.6.3 8.7-1.4.1-1.7.6-22.6.9-30.7.3-8.1-1.6-15.2.7-20.5s8.3-20.5 8.9-26.4c.7-5.9-.9-15.5-.9-15.5l-19.7-6.1z"/><path opacity="0.2" d="M55.7 118.4s-3.2 5.9-4.4 13.1c-1.2 7.2-2.7 31.4-2.5 39.1.4 20.2-1.3 44.2-1.9 45.9-.5 1.6 6.8 2.5 10.2 2.5 3.4 0 8.6.3 8.7-1.4.1-1.7.6-22.6.9-30.7.3-8.1-1.6-15.2.7-20.5s8.3-20.5 8.9-26.4c.7-5.9-.9-15.5-.9-15.5l-19.7-6.1z"/><path fill="#06547A" d="M65.8 121.6c.9 3.4 6.6 9.4 8.3 14.4s2.8 12.6 4.3 17.2c1.6 5.1 5 9.8 6.3 14.8s3.8 7.2 6.8 9.2c3 2 7.6 5.1 9.8 9 1.7 3.1 1.2 4.5 3.2 5.6 2 1.2 7.6.2 10.6-2.1 3.3-2.4 5.1-4.4 4.4-6.4-.7-1.8-3.4-10.4-11.1-18.1-3.4-3.4-5.1-4.9-5.5-5.9-.4-1 1-12.3 1.4-18.5.3-5.2.1-20.3-3.7-25-2.5-3.1-3.8-4.4-3.8-4.4s-6.9 3.2-13.9 6.6c-8.1 3.8-17.1 3.6-17.1 3.6z"/><path fill="#999" d="M75.5 51c-5.8-1-14.8-.9-16.8 4.2s-7 20.6-7.2 24c-.3 3.4 1.1 7.9 1.4 11.7.6 6.6 1 16.7.7 24.4-.2 4.2-1.9 8.8-.5 9.3s12.6 3.1 23.2 1.6c13.1-1.8 25-4.8 26-7.5.7-2-2.4-31.6-1.7-36.4.6-4.2.4-8.9-1.4-12.9-1.8-3.9-5.9-7.9-11.4-12.2-4.1-3.1-12.3-6.2-12.3-6.2z"/><path fill="#FBD7C7" d="M85.2 86.8s2.9 0 7.7-1.2c4.9-1.2 6.3-2.1 6.3-2.1s1.6 6.7 2.1 10.1c.5 3.4.5 8.7 1 10.5.5 1.8.8 5.2-2.4 9.7-3.1 4.5-17.3 21.1-20.1 24.5-2.8 3.4-7.7 7.9-10.7 7.9s-6.6-1-7.9-2.3-1.6-4.1-.4-4.9c1.1-.8 4-1.4 4-1.4l.7-1.6h-1.3c-.6 0-1.4 1.4-2.5 1.6s0-2.5.3-3.1c.3-.7 2.5-2 5.4-2.4s6.2 1 7.6-1.2 6.2-12.2 9.2-15.9 7-7.5 7-8-2.7-5.1-4-10.8c-1.1-4.5-2-9.4-2-9.4z"/><path fill="#FBD7C7" d="M63 34.2c-2.8 4.4-1.7 14.9-1.3 17.6s1.1 5.5 3 6.2c1.9.7 3.6 1.5 3.6 2.7s-3 3.9-1.7 4.7c1.3.8 8.5.9 14.5-1.5 5.6-2.3 7.2-5 6.5-6-.8-.9-4.2-2.9-4.2-5.9.1-3.1 3.1-7.9 3.2-12.4.1-10.3-16.6-16.1-23.6-5.4z"/><path fill="#2D3134" d="M61.7 36.7c2.5 3 10.7 0 12.9 2.2 1.9 1.8 1.9 7.3 2.9 9 1.2 2.1 2.4-2.3 3.5-3.4 1-1 2.8-1.2 3.3.3s-.4 3.7-.5 4.3c1.6-.3 3.7-5.7 3.3-11.4-.4-6.8-10.5-13.6-21-7.6-5.5 3.1-4.4 6.6-4.4 6.6z"/><metadata><rdf:RDF xmlns:rdf="http://www.w3.org/1999/02/22-rdf-syntax-ns#" xmlns:rdfs="http://www.w3.org/2000/01/rdf-schema#" xmlns:dc="http://purl.org/dc/elements/1.1/"><rdf:Description about="https://iconscout.com/legal#licenses" dc:title="man" dc:description="man" dc:publisher="Iconscout" dc:date="2017-09-20" dc:format="image/svg+xml" dc:language="en"><dc:creator><rdf:Bag><rdf:li>Icograms</rdf:li></rdf:Bag></dc:creator></rdf:Description></rdf:RDF></metadata></svg>