<?xml version="1.0" encoding="UTF-8"?><svg xmlns="http://www.w3.org/2000/svg" xmlns:xlink="http://www.w3.org/1999/xlink" version="1.1" id="Layer_1" x="0px" y="0px" viewBox="0 0 160 240" xml:space="preserve"><path opacity="0.2" d="M24.2 230c11.2 6.1 44.5-13.9 58.5-22.1 13.9-8.1 50.5-32.3 39.2-39.2s-38.7 12.6-53.7 21.6-59.9 31.1-44 39.7z"/><path fill="#262626" d="M102.5 171.2c-.9 2.4-4.7 12.2-5 13.9-.3 1.6-.6 5.3 3.4 5.1 4-.1 9.8-5.4 11.1-9.6 1.3-4.3 2.8-9.1 2.8-9.1h1s2.2-4.4 1.9-6.6c-.3-2.3-3.2-3.9-3.5-4.2-.3-.4-11.7 10.5-11.7 10.5z"/><path opacity="0.5" d="M116.2 162.2c-.2 2.1-.5 3.1-1.2 5.6-.8 3.1-3.3 13.1-6.2 16.5s-7.9 6.4-11.1 3.9c-.1-.1-.2-.1-.3-.2.3 1.2 1.3 2.2 3.4 2.1 4-.1 9.8-5.4 11.1-9.6 1.3-4.3 2.8-9.1 2.8-9.1h1s2.2-4.4 1.9-6.6c0-1-.7-1.9-1.4-2.6z"/><path fill="#FBD7C7" d="M43 93.2h-1.3s-1.5-1.5-5.7-2-8.9.4-10.2 1.8c-1.4 1.3-.6 5-.3 5.8.3.7 1 2.2 2.9 1.9 1.9-.2 6.8-.4 9 .2 2.2.7 3.4.6 5.1.1 1.7-.5 3.2-1.3 3.2-1.3s-.3-2.4-1.1-3.8-1.6-2.7-1.6-2.7z"/><path fill="#262626" d="M32.7 210.8s-2.9 3-4.6 3.6-6.8.2-8 .9-1.9 2-1.9 2-1.1.5-.9 1.1c.5 1.4 3.9 2.9 8.4 3.7 4.4.9 8.3.9 8.3.9l.3 1.3s10.4 2.2 11.2 1.7c.8-.5.4-2.9.4-2.9l-.4-.3s1-1.4 1.4-2.7c.4-1.4.4-2.4.4-2.4l-14.6-6.9z"/><path opacity="0.5" d="M24.2 220c-2.5-.6-5-2-6.1-2.7-.3.1-1 .6-.8 1.1.5 1.4 3.9 2.9 8.4 3.7 4.4.9 8.3.9 8.3.9l.3 1.3s10.4 2.2 11.2 1.7c.8-.5.4-2.9.4-2.9l-.4-.3c-1.1-.1-7.8-1.3-9.6-1.3-1.8 0-8.5-.7-11.7-1.5z"/><path fill="#656565" d="M53 112.1s-2.9 6.1-4.7 15.7c-1.8 9.5-6.2 28.9-7.5 39.7-1.3 10.7-2.3 28.8-4.3 33.7-2 4.8-5.3 10.8-5.9 11.1-.6.3 3.6.5 6.2 3.2s9.5 6.3 9.5 6.3 3.4-7.6 5.4-14.9S60.1 171 63.1 159s4.4-18.8 9-26.9 6.3-19.4 6.3-19.4l-25.4-.6z"/><path opacity="0.3" d="M53 112.1s-2.9 6.1-4.7 15.7c-1.8 9.5-6.2 28.9-7.5 39.7-1.3 10.7-2.3 28.8-4.3 33.7-2 4.8-5.3 10.8-5.9 11.1-.6.3 3.6.5 6.2 3.2s9.5 6.3 9.5 6.3 3.4-7.6 5.4-14.9S60.1 171 63.1 159s4.4-18.8 9-26.9 6.3-19.4 6.3-19.4l-25.4-.6z"/><path fill="#656565" d="M62.2 113.6c.2 2.4 5.5 14.3 8.3 17.9 3.3 4 5.9 8.8 8.7 13.7 2.8 4.9 3.6 6.9 8.1 10.2 4.5 3.3 10.5 8.3 12 11.5 1.5 3.2 2.1 6.6 4.4 7.2s10.3-3.6 12.2-7.5c1.9-3.9 1.1-4-.3-6.4-1.4-2.5-4.6-9.8-9.2-14.5-3.3-3.3-5.5-5.1-6.9-10.1-1.4-4.9-.6-11.6-2.8-14.8-2.1-3.2-7.2-12-7.2-12l-27.3 4.8z"/><path opacity="0.15" d="M62.2 113.6c.2 2.4 5.5 14.3 8.3 17.9 3.3 4 5.9 8.8 8.7 13.7 2.8 4.9 3.6 6.9 8.1 10.2 4.5 3.3 10.5 8.3 12 11.5 1.5 3.2 2.1 6.6 4.4 7.2s10.3-3.6 12.2-7.5c1.9-3.9 1.1-4-.3-6.4-1.4-2.5-4.6-9.8-9.2-14.5-3.3-3.3-5.5-5.1-6.9-10.1-1.4-4.9-.6-11.6-2.8-14.8-2.1-3.2-7.2-12-7.2-12l-27.3 4.8z"/><path fill="#FFF" d="M55.4 45.5c2.4.2 11.6-.9 14 .3C72 47 71.3 51 71.3 51S57.6 64.5 56.9 73.5s.4 28.3.4 28.3-8-15.3-7.7-25.7c.5-17.6 5.8-30.6 5.8-30.6z"/><path fill="#656565" d="M58.6 48c-2.8 3.3-7.6 10-7.9 24.2s5.8 23.5 7.4 26.2 4.6 26.2 4.4 28.1c-.2 1.9-12.7-1.2-13.5-3.3-.9-2.1 1.9-9.7 2-21.2.1-11.5-3.4-33.8-2.4-41.4 1.1-7.6-.3-10.9 2.7-15.4s7.3 2.8 7.3 2.8z"/><path opacity="0.15" d="M58.6 48c-2.8 3.3-7.6 10-7.9 24.2s5.8 23.5 7.4 26.2 4.6 26.2 4.4 28.1c-.2 1.9-12.7-1.2-13.5-3.3-.9-2.1 1.9-9.7 2-21.2.1-11.5-3.4-33.8-2.4-41.4 1.1-7.6-.3-10.9 2.7-15.4s7.3 2.8 7.3 2.8z"/><path fill="#656565" d="M69.5 45.8s1.9 2.3-1.6 5.9c-3.5 3.6-9.2 7.1-11.7 18.5s-.2 25.3 1.3 30.2c1.5 4.9 6.1 23.3 7.2 26.1 1.1 2.8 3.9 6 10.5 5.6 6.6-.4 21.8-6.1 23.3-9.5 1.5-3.4-.9-6.1-2.6-8.9-1.7-2.8-7.7-20.6-7.9-23-.2-2.5.6-6.7.6-9.2 0-2.9-.4-8.3-.5-11.9-.1-3.6-.3-7.8-3.2-11.6-2.9-3.8-9.5-9.1-11.5-10.4s-3.9-1.8-3.9-1.8z"/><path opacity="0.2" d="M52.7 60l2.9-2.8 1.1.5 1 4.4 1.8-1.4-2.1 2.6-1-5.1-.6-.3-3.4 3.1z"/><path opacity="0.2" d="M57 88.7c-.2-2.8-.8-9.2 1.1-15.2 2.2-7 5-9.3 5-9.3l-.1-2.5 4.9-2.2s.5-3.4 2.1-5.5c1.8-2.4 3.7-4.6 3.7-4.6s-1.6 2.3-3.3 5c-1.2 1.9-1.4 5.8-1.4 5.8L63.5 62l1 2.5s-4.6 4.1-6.5 12c-1.3 5.7-1 12.2-1 12.2z"/><path fill="#CC291F" d="M54.9 61.1l.1-3.3.7-.5 1 .1.7 3.2-.7 1s-1.6 8.6-1.7 13.9 1.4 18.2 1.4 18.2l-1.1-.1s-5.1-10.3-4.1-18.5 3.7-14 3.7-14z"/><path fill="#FBD7C7" d="M53.8 25.9c-3.9 2.8-4.1 10.6-4 15.8.1 5.2.7 9.5 1.5 9.9s2.4.6 2.4.6 1.3 3.1 1.4 5c.1 1.2 7.9-2 11.1-5.2s3.3-4.6 3.3-4.6 4.4-8.1 3.7-14.4-8.5-15-19.4-7.1z"/><path fill="#762C07" d="M50.5 29c-.6 1.1 1.6.9 4.6 5.5 3.1 4.7 6.8 2.6 7.8 2.6.3 2.5 2.4 2.1 4.4 4.4 0 0 .7-2.6 2.1-2.6 1.4-.1 1 4.3 1 4.3s.2 1.8 1.2 2 4.8-9 2.8-15.1c-2.9-9.4-16.9-12.8-23.9-1.1z"/><path fill="#FFF" d="M41.9 92.4l21.2-5.1 8.2 11.1s-24 3.8-25.8 3.9-3.3-1.3-3.9-3.4c-.6-1.9-1.3-6.2.3-6.5z"/><path fill="#656565" d="M43 91.5l25.4-6.1 9.9 13.3s-28.7 4.6-31 4.7c-2.3.1-4-1.5-4.7-4.1-.7-2.3-1.5-7.4.4-7.8z"/><metadata><rdf:RDF xmlns:rdf="http://www.w3.org/1999/02/22-rdf-syntax-ns#" xmlns:rdfs="http://www.w3.org/2000/01/rdf-schema#" xmlns:dc="http://purl.org/dc/elements/1.1/"><rdf:Description about="https://iconscout.com/legal#licenses" dc:title="man" dc:description="man" dc:publisher="Iconscout" dc:date="2017-09-20" dc:format="image/svg+xml" dc:language="en"><dc:creator><rdf:Bag><rdf:li>Icograms</rdf:li></rdf:Bag></dc:creator></rdf:Description></rdf:RDF></metadata></svg>