<?xml version="1.0" encoding="UTF-8"?><svg xmlns="http://www.w3.org/2000/svg" xmlns:xlink="http://www.w3.org/1999/xlink" version="1.1" id="Layer_1" x="0px" y="0px" viewBox="0 0 160 240" xml:space="preserve"><path opacity="0.2" d="M93.5 228c13.8-9.3 1.8-19.8-17.5-23.2-8.4-1.5-31.9-23-53-9.7-17 10.8 18.3 26.1 27 30.1 12 5.6 26.8 14 43.5 2.8z"/><path fill="#825012" d="M80 207.5l12.3-.4s2.4 3.3 1.8 5.9-4.4 6.8-5.3 8.6c-.9 1.8-2.6 7.5-7.7 8.8-5.1 1.3-11.7.9-12.6-2.4-.7-2.6 9.9-15 10.4-16.1.4-1 1.1-4.4 1.1-4.4z"/><path opacity="0.4" d="M88.8 221.6c.9-1.8 4.6-5.9 5.3-8.6.2-.9.1-2-.2-2.9-.5 1.3-1.2 3.2-2.1 4.2-1.5 1.6-4.5 7.9-6.2 10.9-2.2 3.9-12.7 6.7-17 2.2-.1.3-.1.5 0 .7.9 3.3 7.5 3.7 12.6 2.4 5-1.4 6.7-7.1 7.6-8.9z"/><path fill="#825012" d="M39.7 193.9c-4.5 2.8-12.6 4.8-15.2 6.2-2.9 1.6-4.7 7.5 1.3 7.9 6 .4 15.9-3.9 19.3-3.9s9.7-1.1 10.5-3c.9-1.9-.4-6.9-.4-6.9l-15.5-.3z"/><path fill="#BAA794" d="M94.7 124.4s-15 4.7-22.2 7.9-18.3 6.7-21.7 11.4c-3.3 4.7-4.6 14.6-5.6 19.9-1 5.4-4.3 18.5-6.4 24.6-1.1 3.3-3 6.1-2.8 7.1.2 1 8.7 1.8 13.1 2 5.1.2 7 .2 8.6-1.2 1-.9 3.3-14.5 5.2-21.8 2-7.3 4.1-16.5 4.1-16.5s5.2-.6 11.9-1.7c7-1.2 25.5-6.2 28.8-8.1 3.3-2 3.1-17.9 3.1-17.9l-16.1-5.7z"/><path opacity="0.2" d="M94.7 124.4s-15 4.7-22.2 7.9-18.3 6.7-21.7 11.4c-3.3 4.7-4.6 14.6-5.6 19.9-1 5.4-4.3 18.5-6.4 24.6-1.1 3.3-3 6.1-2.8 7.1.2 1 8.7 1.8 13.1 2 5.1.2 7 .2 8.6-1.2 1-.9 3.3-14.5 5.2-21.8 2-7.3 4.1-16.5 4.1-16.5s5.2-.6 11.9-1.7c7-1.2 25.5-6.2 28.8-8.1 3.3-2 3.1-17.9 3.1-17.9l-16.1-5.7z"/><path fill="#FBD7C7" d="M95.3 81.3l7.2 3.9s-5.8 15.3-7.3 18.8c-.8 1.9-2.5 6.5-5.8 11.6-3.4 5.2-7.6 9.8-8.1 11.6-.5 1.8-.9 2.2-2.4 3.5-1.6 1.3-2.5 1.7-4.1 2.6-.9.5-3 3.4-4.2 4.5-1.2 1.1-6.3 1.6-6.9-.9-.4-1.8 3.4-6.5 4.5-7.9 1.2-1.4 5.3-1.8 6.3-3.2 1-1.4 5.9-11.6 7.6-15.6 1.7-4.1 3.7-10.9 7-15.8s6.2-13.1 6.2-13.1z"/><path fill="#BAA794" d="M102 130l-.1 7.5s-4.3 3.7-9.3 8.5c-4.9 4.7-10.7 10.4-12.5 12.2-1.8 1.8-3.3 2.6-3.9 6.5s.2 31.2.1 36c-.1 4.5-.1 10.7 1 11.7 1.2 1 6.2 1.3 10.6.7 5-.7 7.6-1.6 8-2.6s.5-15.6.9-21.9c.4-6.3-.3-16.7-.3-16.7s9-3.3 14.3-5.5 22.7-7 26.3-13.7c3.5-6.7 2.3-14.3 1.4-19-.7-3.9-2.9-5.9-2.9-5.9L102 130z"/><path opacity="0.4" d="M55.6 201.2c.1-.2.2-.5.2-.8-2.9 1.3-7.8 2.1-11.3 2.2-3 .1-13.1 4-18 4-2.3 0-3.8-.8-4.8-1.6.2 1.5 1.3 2.8 4 3 6 .4 15.9-3.9 19.3-3.9 3.5.1 9.8-1 10.6-2.9z"/><path fill="#FBD7C7" d="M119.6 136.2c-.7 1.3-1.2 2.2-1.7 2.4-1.5.5-7.8 1.1-9.9 3.1-2.2 2-4.2 3.8-4.5 5-.3 1.2-1.9 4.7-1.1 5.8.7 1.1 1-1.1 2.3-1.9 1.3-.8 5.2-3.4 9.3-3.9s6-1.2 7.4-2.8c.5-.5 2.2-2.3 4.4-4.6l-6.2-3.1z"/><path fill="#E5E5E5" d="M142.6 94c-.3-3.8.1-7.1-.3-9.2-1.2-6.4-7.4-14.2-15.7-16.3-5.7-1.4-23.4-.3-23.4-.3-.4.1-3.9 3.7-5.8 6.8-1.8 3-4.2 9.3-4.2 9.3-1 1.9-4.7 9.4-5.9 11.7-1.2 2.4-5.8 10.6-6.9 13.4-1.1 2.8-3.6 11-4.4 12.3-.8 1.3-2 3-2 3l8.3 3.3 1.1-2.1s5.6-7.1 7.7-10.2c2-2.9 3-7.2 3.9-9.2-1.1 3.6-2.7 9.8-3.5 14-.9 4.9-1.3 7-.7 8.1.7 1.2 3.3 5.4 14.3 6 4.1.2 9.1.2 13.8.1l-.5 1.6-1.1 1.6s2.9 2 3.8 3.3c.9 1.3 1.3 2.9 1.3 2.9l1.7-1.7s5.4-4.4 7.3-6c.9-.7 1.8-1.8 2.2-2.4 1.1-.1 1.3-.1 1.7-.1 2.6-.2 3.8-.7 3.8-.7s.2-3.4.5-7.9c2.3-2.1 4.8-4.9 5.2-8.9.4-3.4-2-19.6-2.2-22.4z"/><path opacity="0.2" d="M126.1 98.1c-.4 5.1.8 12.1.8 13.8 0 1.7-2 3.4-5.8 8.1-3.7 4.6-7.2 14-7.6 14.9 1.8 0 3.6 0 5.4-.1.3-.9 2.1-6.3 4-10.2 2.1-4.3 6.8-10.8 6.8-10.8s-.9-2.5-1.4-4.9c-.7-2.7-2.2-10.8-2.2-10.8z"/><path opacity="0.2" d="M139.1 133.3s.2-3.4.5-7.9c0 0-1.4 2.2-2.2 3.5-.8 1.2-3.8 5.2-3.8 5.2 1.1-.1 1.3-.1 1.7-.1 2.7-.3 3.8-.7 3.8-.7z"/><path fill="#FBD7C7" d="M102.6 46.8c-3.1 4.2-1.7 14.9-1.3 17.6.4 2.6 1.1 5.5 3 6.2 1.9.7 3.2 1.5 3.6 2.7.7 2.3-.7 5.8.7 6.6s6.5-.4 12.2-3.4c5.3-2.8 8.1-6.3 7.3-7.2-.8-.9-5.1-1.6-5-4.7.1-3.1 3.1-7.9 3.2-12.4-.1-10.3-16.6-15.1-23.7-5.4z"/><path fill="#999" d="M115.8 43c5.6 3.1-3.8 6.9-1.6 9 1.9 1.8 1.9 7.3 2.9 9 1.2 2.1 2.4-2.3 3.5-3.4 1-1 2.8-1.2 3.3.3s-.4 3.7-.5 4.3c1.6-.3 3.7-5.7 3.3-11.4-.4-6.8-10.1-13.3-20.7-7.3-2.1 1.2-2.8 2.5-1.7 1.6 2.1-1.6 8-4.1 11.5-2.1z"/><metadata><rdf:RDF xmlns:rdf="http://www.w3.org/1999/02/22-rdf-syntax-ns#" xmlns:rdfs="http://www.w3.org/2000/01/rdf-schema#" xmlns:dc="http://purl.org/dc/elements/1.1/"><rdf:Description about="https://iconscout.com/legal#licenses" dc:title="man" dc:description="man" dc:publisher="Iconscout" dc:date="2017-09-20" dc:format="image/svg+xml" dc:language="en"><dc:creator><rdf:Bag><rdf:li>Icograms</rdf:li></rdf:Bag></dc:creator></rdf:Description></rdf:RDF></metadata></svg>