<?xml version="1.0" encoding="UTF-8"?><svg xmlns="http://www.w3.org/2000/svg" xmlns:xlink="http://www.w3.org/1999/xlink" version="1.1" id="Layer_1" x="0px" y="0px" viewBox="0 0 80 240" xml:space="preserve"><path fill="#FBD7C7" d="M58.8 116.4s-.5 4.7-2.1 7-3.4 3.5-3.4 3.5l.1-8.3 1.1-4.3 4.3 2.1z"/><path fill="#FBD7C7" d="M8.6 113s-.7 6.3-1.1 7.5c-.3 1.2.7 3.3 2.1 4 3.1 1.6 5.5 1.1 6.3.8 1.2-.4-2.6-12.7-2.6-12.7l-4.7.4z"/><path fill="#FC0" d="M14.4 50.6s-7 1.1-9.7 5.3-.2 14.2-.3 20.7-.2 17.4.2 21.7c.5 4.3 2.2 10.6 2.2 12.4 0 1.8-.4 3.3 2.4 3.5 2.8.3 5.6-.6 5.6-.6s2.7-23.8 2.3-28.9-2.7-34.1-2.7-34.1z"/><path opacity="0.2" d="M10.8 63.9s-1.2 11.1.1 16.2c1.3 5 2.5 9.9 1.8 13.6-.7 3.7-2 9.6-1.3 14.2s2.2 7 2.2 7l5.9-25.3L14 73.2l-3.2-9.3z"/><path opacity="0.3" fill="#262626" d="M19.2 214.2c-3.1 3.1-9.5 10.6-2.8 14.2s13.8 3.5 20.9 3.2 25.2-3.2 28-6.3c2.8-3.2 3.9-7.9-2.8-9.1s-11-5.9-20.1-5.5c-9 .4-22.4 2.7-23.2 3.5z"/><path fill="#262626" d="M18.6 218.2s1.4 6.3 5.7 6.3 18.7-2.2 18.7-2.2l-11.4-8.7-13 4.6z"/><path fill="#762C07" d="M25.6 223.1s-.8 6.5 2.4 6.9 14.4-1 17.6-1c3.2 0 14.8-2.4 15.8-5.1 1-2.8-.4-5.7-4.7-5.7s-12.2.2-13.6-.2c-1.6-.4-17.5 5.1-17.5 5.1z"/><path fill="#262626" d="M61.4 221.1c0 .5-.1.9-.3 1.4-1 2.8-13 5.3-16.2 5.3s-14.8 1.4-18.1 1c-.2 0-.5-.1-.7-.2.4.7.9 1.3 1.8 1.4 3.2.4 14.4-1 17.6-1 3.2 0 14.8-2.4 15.8-5.1.3-1 .3-1.9.1-2.8z"/><path fill="#39C" d="M13.5 112.3c-.8 2.6 3.5 29.6 3.5 32.7s1.8 17 1.4 21.5-1.4 27.2-1.8 34.5.4 18.9 2.4 20.1 8.7 1.2 10.6.8 3.9-105.5 3.9-105.5l-20-4.1z"/><path opacity="0.2" d="M13.5 112.3c-.8 2.6 3.5 29.6 3.5 32.7s1.8 17 1.4 21.5-1.4 27.2-1.8 34.5.4 18.9 2.4 20.1 8.7 1.2 10.6.8 3.9-105.5 3.9-105.5l-20-4.1z"/><path fill="#39C" d="M26.9 118.2s1 11.8 1 17.2-2.8 45-3.4 52.7c-.6 7.7-1.4 33.9-.2 36.5 1.2 2.6 3.4 3.5 7.4 2.6s9.1-2.4 12.1-6.1c.8-1 2.9-2.7 2.9-2.7s-3.2-5-2.6-10.5c.6-5.5 1.2-15.4 1-19.7-.2-4.3-.2-10.6 1.4-16.4s5.7-17.9 6.9-35.9.8-21.5.8-21.5l-27.3 3.8z"/><path fill="#FBD7C7" d="M21.7 49.1s4.9.4 4.9-3.7-.1-6.7-.1-6.7-2.5-1.1-2.3-4.7 1.3-2.8 1.3-2.8L44.9 33s1.3.4.3 3.9c-.4 1.3-1.4 3-1.4 3.5s-1 3.5-1.7 3.9c-.7.4-1.9 4.8-1.9 6.3s.7 3.5.7 3.5-8.1.1-12.8-1c-4.7-1.1-6.4-4-6.4-4z"/><path fill="#825012" d="M26.9 43.1c-.4-.2-.6-4.3-.9-6.6-.3-2.3-2.8-10 1.2-14.9s15.2-4.5 17.3 2.4c1.9 6.2.7 10-1 13.5s-3.5 5.2-4.1 6c-.6.7-6.2 1.5-7.5 1.4-1.2 0-3.6-1.2-5-1.8z"/><path fill="#FC0" d="M40.6 52.1c-.6-.2-6 .6-10.5-.7s-6.5-3.3-6.5-3.3-9.3 1.8-11.7 3c-2.7 1.3-3.1 3.4-3.5 5.5-.5 2.6-.7 5.4-.4 8.4.9 9.1 4.1 11.7 5 14 .9 2.4 2.9 10.9 1.5 17.9s-2 15.4-1.8 17.6 2.4 7.7 14.7 8.3c14.5.7 26.8-4.6 26.8-4.6v-1.1s.7 1.3 2.6 1.2 4-2.3 4-3 .4-7.8.7-9.4c.3-1.6 1.2-2.5 0-6.6-1.1-4.1-3.8-17.8-4.5-24.3-.7-6.5-.9-8.8-4.1-12.6-3.3-3.9-12.3-10.3-12.3-10.3z"/><path opacity="0.2" d="M54.3 117.1s-2.1-3.1-2.4-5.1c-.3-2-1-9.3-1.6-10.9-.6-1.7-.8-4.8-1.9-7.1-1.1-2.4-7.4-16.3-7.4-16.3s.9 6.4 3 11.3c.8 1.9 2.5 3.9 2.5 9.6 0 5.6 2.8 11.4 3.4 12.7 1.6 3.4 1.5 7 1.5 8 1.8-.6 2.9-1.1 2.9-1.1v-1.1c-.1 0 0 0 0 0z"/><metadata><rdf:RDF xmlns:rdf="http://www.w3.org/1999/02/22-rdf-syntax-ns#" xmlns:rdfs="http://www.w3.org/2000/01/rdf-schema#" xmlns:dc="http://purl.org/dc/elements/1.1/"><rdf:Description about="https://iconscout.com/legal#licenses" dc:title="man" dc:description="man" dc:publisher="Iconscout" dc:date="2017-09-20" dc:format="image/svg+xml" dc:language="en"><dc:creator><rdf:Bag><rdf:li>Icograms</rdf:li></rdf:Bag></dc:creator></rdf:Description></rdf:RDF></metadata></svg>