<?xml version="1.0" encoding="UTF-8"?><svg xmlns="http://www.w3.org/2000/svg" xmlns:xlink="http://www.w3.org/1999/xlink" version="1.1" id="Layer_1" x="0px" y="0px" viewBox="0 0 160 160" xml:space="preserve"><path opacity="0.2" d="M27.8 120.5c2.9-4.4 6.5-4.8 17.4-1.4s33.9-1.9 42.7 1.3c8.8 3.1 32 7.3 36.2 9.8 4.2 2.6 11.4 6.6-1.5 15s-29.6 5.3-34.5 2.5c-4.9-2.8-5.3-3.7-9.3-2.5-6.6 2.1-10.9 5.3-21.4.1-9.4-4.6-8.1-15.3-14.6-18s-18-2.4-15-6.8z"/><path fill="#262626" d="M88.1 143.9c-.1 2-1 3 .2 3.4 1.2.4 18.6 1.5 20.5 1.5 3.2 0 8.1-1.9 9.8-3.5 1-1 1.5-5.7-3.6-6.8-5.1-1.2-12.8 1.3-12.8 1.3l-14.1 4.1z"/><path fill="#FFF" d="M95.2 143.8c3.5.5 10.5 1.6 13.7 1.5 3.5-.1 8.3-1.1 8.5-2.9.2-1.4-.9-3.8-6.2-3-3.2.5-11.3-.4-11.3-.4l-4.7 4.8z"/><path fill="#262626" d="M107.6 143.6c2.4.1 11.8-1 13.6-1.5 3.3-.9 6.4-4.3 6.6-7.5.2-3.2-2.4-7.5-6.4-6.5-3.5.8-4.5 2.9-6.3 3.6-1.8.7-6.9 1.1-6.9 1.1l-1.1 10.6.5.2z"/><path fill="#FFF" d="M109 139.7s5.8.2 9.5-.2c3.5-.4 8.8-3.2 8.4-7.1-.4-3.9-4.7-5-7.7-3-2.8 1.8-6.3 2.7-8.3 1.9-2-.8-1.9 8.4-1.9 8.4z"/><path fill="#06547A" d="M86.9 146.8c.6.3 7.9-.5 11.6-1.4s8.6-3.6 8.6-3.6-10.6-26.4-12.6-27.8c-2-1.4-17 2.8-17 2.8l.3 12.3s3.1 6.9 5.5 8.3c2.4 1.5 2.6 2.8 2.8 4.3s-.3 4.5.8 5.1z"/><path opacity="0.2" d="M86.9 146.8c.6.3 7.9-.5 11.6-1.4s8.6-3.6 8.6-3.6-10.6-26.4-12.6-27.8c-2-1.4-17 2.8-17 2.8l.3 12.3s3.1 6.9 5.5 8.3c2.4 1.5 2.6 2.8 2.8 4.3s-.3 4.5.8 5.1z"/><path fill="#06547A" d="M47.3 129.4s2.5 13.1 10.2 16c7.6 2.8 18.5.5 23.9-6S91.5 121 91.5 121s1.9 4.2 3.2 7.3c1.4 3 4.7 7.2 5.9 8.8 1.2 1.7 2.5 5.4 4 6.5 1.6 1.1 6.1-.4 9.6-3.7 3.5-3.3 4.4-6.6 3.6-8.5-.8-1.9-2.5-.4-3.6-2.4-1.4-2.4-5.9-11.7-9.2-19.9s-3.7-15.9-6.3-18.3c-2.6-2.4-6-7-13.1-2.2-7.2 4.8-10 14.9-13 20.7-2.1 4.2-3.8 7.9-3.8 7.9l-21.5 12.2z"/><path fill="#FBD7C7" d="M47.4 122.8c-1.3 1.2-2 2.6-4.1 2.4-2.1-.2-8-1.8-10.1-1.9-1.5-.1-2.9-.2-4.1-.1-.3 0-1.3-.4-.2-.9-.6.1-.9-.1-.9-.1-.6-.8 2.6-1.9 2.1-1.7-.8.2-1.5.5-1.9.2-.6-.5 1.8-1.7 3.6-2 1.2-.2 2.3 0 2.3 0s-.3-.2-1.2-.4-2.2.9-2.9.3c-.6-.5 2.4-2 3.6-1.9s3.5 1.2 4 1.2h3.7s-.9-2.2-1.2-3.6c-.4-1.4-1.1-9.8-1.1-9.8l7.7-2.4.7 20.7z"/><path fill="#FBD7C7" d="M57.1 72s-.9-3.9.3-5.5 1.3-2.4 3.3-2.8c2-.5 3.2-.7 3.4-2s1.3-14-1.2-18.1c-2.9-4.6-13.1-8.5-19-.1-5 7 1.3 13.7 1.5 17 .2 3.1-3.1 6.1-4.9 7.3-1.8 1.2.8 4.5 5 5 4.1.6 11.6-.8 11.6-.8z"/><path fill="#825012" d="M60 43.4c.1-1 .6-1.3 1.3-1.5-4-3.7-12.4-5.7-17.6 1.6-4.7 6.6.7 13 1.4 16.5.6 1 1.4 1.8 2.9 2.1 3.9 1 7.5-5.6 7.5-6.2 0-.6 0-1.4 1.4-2.4s2.4 1 2.4 1h1s.5-2.1.8-4.8c.4-2.7-1.3-4.7-1.1-6.3z"/><path fill="#E5E5E5" d="M40.3 67.8s-.1 2.6 3.4 2.5c3.5-.1 10.8.1 13.8 1 3 1 11.3 3.3 12.5 4.5 1.8 1.9-.6 9.7-1.7 14.2s-2.3 6.9-2.1 8.5c.3 3.3 5.5 13 5.5 13s-.9 1.6-1.7 4.1c-.6 1.8-1 3.3-2.1 4.5-1 1.2-8.9 6.3-13.4 8.5-3.3 1.6-6 2.3-7.1 1.9-1.2-.4-1.1-7.9-3.7-12.2-2.6-4.3-9.9-17.5-11.5-31.6-1.4-12.8-1-17.3 2.3-18.5s5.8-.4 5.8-.4z"/><path fill="#FBD7C7" d="M98.7 90.8s-2.4-2.2-3.7-1.9c-2 .5-2 2.1-4.4 3.1s-3.9.9-7.1 0c-3.1-.9-10.1-1.1-14.1-2.2-3.9-1-4.4-.9-4.4-.9s-1.8-4.4.2-8.4c2-4.2 3.9-4.8 4.6-4.5.8.3 2.9 3.5 6 4.6 3.1 1 7.8 2.4 10.7 2.5 2.9.1 8.6 1.7 9.4 2.8 1 1.1 3.8 4 2.8 4.9z"/><metadata><rdf:RDF xmlns:rdf="http://www.w3.org/1999/02/22-rdf-syntax-ns#" xmlns:rdfs="http://www.w3.org/2000/01/rdf-schema#" xmlns:dc="http://purl.org/dc/elements/1.1/"><rdf:Description about="https://iconscout.com/legal#licenses" dc:title="basicman" dc:description="basicman" dc:publisher="Iconscout" dc:date="2017-09-20" dc:format="image/svg+xml" dc:language="en"><dc:creator><rdf:Bag><rdf:li>Icograms</rdf:li></rdf:Bag></dc:creator></rdf:Description></rdf:RDF></metadata></svg>