<?xml version="1.0" encoding="UTF-8"?><svg xmlns="http://www.w3.org/2000/svg" xmlns:xlink="http://www.w3.org/1999/xlink" version="1.1" id="Layer_1" x="0px" y="0px" viewBox="0 0 240 240" xml:space="preserve"><path opacity="0.2" d="M2.2 235.9c7.1 3.4 33.1-9 46.8-14.4 10.1-4 23.8-9.2 17.7-12.4-4.2-2.2-9.2-.6-23.4 4.5-14.7 5.3-47.1 19.4-41.1 22.3z"/><path fill="#FBD7C7" d="M74.7 71.2c-.4.8-1.2 7.1 0 8.7.6.8 2.5 2.6 5.6 2 3.1-.6 4.1-2 5.7-3 1.7-1 6.6-5.8 9.5-7.6s6.7-3.9 6.7-3.9 1.9-6 4.8-9 5.2-7.3 5.9-9c.7-1.7 3.1-6.6 6.1-8.6 2.9-1.9 5.6 3.1 3.5 5.3s-4.6 3.3-4.9 4.1c-.3.8-3.6 8.5-5.5 12.5s-3.2 7.5-3.9 8.4c-.6.9-13.6 9.7-16.2 13.4-2.6 3.8-6.4 7.7-6.8 10.4-.5 2.7-1.9 14.1-3.8 18.8-1.8 4.7-4.5 14.2-4.2 17.4.3 3.2 1.6 8.4 1.6 13.9s-.1 17-.9 20.4-2.2 7-2.7 8.7c-.5 1.7-7.3 15.8-9.8 21.9s-3.4 7.1-3.4 7.1l-.6 7.6s-7.6-8.7-7.6-9.3c.1-.6 3.6-2.4 4.5-3.5.9-1.1 2-7 2.6-11.2s2.9-12.3 4.4-15.4 2.1-5.1 1.6-8.1c-.6-3-3.4-21.6-3.4-21.6s-3.1-2-4.5-3.7c-1.4-1.7-2.2-2.9-2.2-2.9s-5.1 6.3-8.4 9.4-7.3 9.4-8.3 10.5c-1 1.1-2 2.2-3.3 2.5-1.3.3-3 2.7-3.9 3.5-.8.8-5.5 4.1-7.2 5.2-1.7 1-2 2.9-3.3 4.1s-2.8 2-3.4 2.5c-.6.5-1.6 1.9-1.6 1.9s-.5-9.2 1.1-10.3 5.4-8.8 7.6-10.6c2.1-1.7 5.7-4.1 5.7-4.1s7.4-11.1 11-18.1c3.6-7 6.4-15 9.6-18 3.2-2.9 5.8-5.2 5.8-5.2s-.9-6.3-2.2-9c-1.3-2.8-2.2-5.9-3.1-7.9-.9-2-3.4-5.1-6.4-7.3s-9.3-6-13-7.4c-3.7-1.4-5.5-2.3-8.4-6.4S15.3 55.2 14.7 55s-4.4-1.5-6.7-2-5.6-1.8-5.6-2.2c0-.4.6-1.7 2.4-2s7.2 0 7.6-.2 1.8-1.1 2.5-2.1 1-2.3 1.9-2.6c.9-.3 1.5.2 1.3.5s-1.2 1-.9 2.1-.4 3.9.5 5 6.4 6.6 9 9.3c2.6 2.7 5.8 7.2 7.1 7.9s9.8 3.8 14.4 6.6c4.7 2.8 11 4.6 12.6 3.7 1.6-.9 3.4-2.4 3.6-4.1.1-1.7-9.6-4.5-9.3-11.8s5.3-10.4 9.6-11.5c7.9-2.1 12.8 7.7 13.5 13.1.7 5.5-3.5 6.5-3.5 6.5z"/><path fill="#825012" d="M59.4 51c-3.6 1.6-8.4 7.6-7 14.6 1.2 6.1 4.8 9.6 8.7 11.2 4.2 1.7 10.7.7 15-2.4 4.3-3.1 6.1-8.3 6.1-8.3s-2.6 1.1-3.2-1.5c-.6-2.6-1.7-10.4-5.5-12.8-4.5-2.8-9.1-3-14.1-.8z"/><path fill="#36C" d="M15.7 181.6s2-4.6 2.9-5.7c.9-1.1 1.2-.8 1.2-1.8s.3-2.9.6-4.1c.2-1.2-.8-3.7-.8-3.7l-3.9 15.3z"/><path fill="#36C" d="M57.3 206s2.1.6 4.1-1c.7-.5.6-1.7.6-1.7l.2-.3s.8 1.5.3 3-.5 6.6-1.1 7.1c-.7.5-.5-1.8-1.3-3.2-.9-1.4-2.8-3.9-2.8-3.9z"/><path fill="#36C" d="M57.2 107.4s-7.2 5.8-11.7 11.5c-4.6 5.9-8.6 15.8-7.5 18.2 1.1 2.4 14.1 2.6 16 5.3 1.8 2.8 8.1 12.7 19.5 7.4s13.9-8.8 13.9-10.7-4.6-16.4-5.7-21.2c-.6-2.6 2.2-8.4 3.4-13.9.9-4.5.6-9 .6-9s-2.9-2.8-3.7-6.6-.5-6.9-.5-6.9-3 .6-4.3 0C73.4 83.6 62.5 84 61 79.1c-1.6.1-2.7 0-2.7 0S57.1 83 55 86.6c-1.2 2-3.4 3.4-3.4 3.4s2.2 4.3 2.5 6.2c.8 5.5 3.1 11.2 3.1 11.2z"/><path fill="#262626" d="M18.4 164.2c1.6.9 2.1 2 1.4 5.2-.7 3.1-2 5.3-2.5 8s-1.7 6.1-3.7 7.9c-1.9 1.6-4.4 1.7-6.4.6-2.6-1.4-4-5.7-.7-10.3 3-4.1 4.9-7.1 6.1-8.9s3.9-3.5 5.8-2.5z"/><path fill="#262626" d="M53.9 201.6c-.6-.1-1.9.3-2.1 1.5-.2 1.3.5 2.8 1.3 3.9s1.4 2 2.6 3.5c1.3 1.5 3.2 3.3 4 3.4 1.2.2 1.7-.6 1.7-.9.1-.6-.3-1.8-.9-2.9-.6-1-1.6-1.8-2.2-3.4-.3-.6-.8-1.7-2-3.1-1.2-1.4-1.9-1.9-2.4-2z"/><g><path fill="#825012" d="M169.1 38c-5.3.3-7.7 2.8-9.3 7.6-1.7 4.8-.8 6-1.6 7.2-.7 1.1-1.9 1-3.3.7 5 6.4 6.7 1 6.7 1s-1.4-7.1.2-9.1c1.3-1.6 3.2-2.1 5-1.6l7.8-4.3c-1-.3-2.5-1.6-5.5-1.5z"/><path fill="#262626" d="M211.7 119.4s-.3-2.4 2-2.9c1.7-.4 3-.1 6 3 3 3 5.8 5.6 6.2 9.4.3 3.1-2 5-4.1 4.9-1.7 0-4.1-2.2-5.7-4.8-1.7-2.7-4.4-9.6-4.4-9.6z"/><path fill="#262626" d="M179 163.1c.6-.3 2.7-.8 3.4.6s-.1 5 .1 6.9c.2 1.9.5 6.6-1.4 10.3-1.4 2.9-4.9 3.7-6.4 2.5-1.5-1.3-1.6-4.6-.8-6.2.9-1.4 5.1-14.1 5.1-14.1z"/><path opacity="0.2" d="M171.3 184.5c6.7 3.2 16.9-2.4 29.8-7.5 9.5-3.7 39.7-16.5 36-19.4-3.5-2.8-28 7.2-41.3 12-13.9 5-30.1 12.3-24.5 14.9z"/><path fill="#FBD7C7" d="M162.3 62.2s0 2.9-2.5 2.8c-2.5-.1-9.2-.9-12-2.1-2.8-1.1-11.1-3.9-12.1-4.9-.9-.9-3.2-4.1-5.4-6-2.2-1.9-4.9-3.8-6.4-5.8-1.7-2.2-5.8-6-8.1-6.1-1.1 0-2.7 1.5-2.6 2.4.1.9 3.2 2.8 3.8 3.3.6.5 2.1 1.8 1.5 1.8-.6 0-3.1.1-3.5.3-.4.2-.1 1.4 1 1.4 1.1.1 3.4.5 3.8.1.5-.4 1.2-.6 1.2-.6s2.7 4.8 4.1 7 4.1 6.3 6.3 7.2c2.2.9 18.9 7.5 19.6 11.5.7 3.9 1.1 14.1 2.6 19.7 1.5 5.5 6.2 18.4 6 19.9-.2 1.5-1.7 7.8-1.5 16.3.1 8.5-.2 18.9.8 20 .9 1.1 10.4 11.3 11.8 13.9 1.4 2.6 2.8 3.8 2.9 5.4.1 1.6-.2 9 2.8 9.2s5.2-12.9 4.7-14.9c-.5-1.9-1.7-1.9-2.6-1.9h-2.1s-1.8-7.2-3.2-10.2c-1.5-3.1-4.5-5.7-4.5-5.7s1.5-13.6 2.5-16c1.1-2.5 2.3-7 2.3-7h2.7s3.8 4.3 7 7.5 13.7 15.1 16.9 14.9 7.9-7.1 9.9-10.3c2-3.2 4.4-6.7 5.6-6.8 1.2-.1 3.9 5.2 6.4 3.2 2.5-2.1-.1-7.2-2.2-9.4-2.2-2.2-3.1-4.4-6-4.4-2.8.1-2.7 2.9-2.4 4.2s-.3 2.8-1.9 3.4c-1.7.5-4.5 1.6-7 3.2-2 1.3-3.1 3.4-3.1 3.4s-7.6-11.4-9.5-15.9-3-8.8-4.9-11.6c-1.9-2.8-7.3-5.1-7.4-6.3s2.1-15.1 4.8-18.1c2.7-3 10.7-8.3 14.9-9.7s8-1.7 9.9-3.5c1.9-1.8 11.9-13.3 13.7-14.1 1.8-.8 3.9-2.1 5-2.8 1.1-.6 4.8-3.6 5.4-4.6.5-1 .3-4.2-2.1-4.5s-5.6 3.2-7.2 2.9c-1.6-.4-2.3-1.3-2.5-2.4s-.8-2.1-1.5-2.2c-.7-.2-1.1.1-.6 1 .5.9.5 2.4.4 3.2-.1.8.3 2.7-.1 3.8-.4 1.1-.9 2.8-3.4 4.5-2.1 1.5-5.1 3.3-8.2 6-3.1 2.7-3.1 3.6-4.2 4.1-1.2.5-7.2 2.2-13.1 4.8s-11.3 3-13.8 1.3-3.9-3.7-2.7-5.7c1.2-2 8.7-6.6 9.1-12.9.4-6.3-7.3-12.9-15.1-8.5s-8.3 17-7.7 18.9c.5 2 3.7 2.4 3.7 2.4z"/><path fill="#825012" d="M170.7 47.6c1.6 4.1 1.8 6.9 2.5 7.2.6.4 2.3-.4 2.9.4.8 1 0 2.4-1.8 3.5-1.3.8-3.4 1.9-2.6 3.4.6 1 4.1 2.7 8.1 0 3.9-2.7 5.8-9.6 4-15.2-1.8-5.6-8-7.1-8.8-7.2-.8-.2-2.4-1.9-5.7-1.7-5.3.3-7.7 2.8-9.3 7.6s-.8 6-1.6 7.2c-.7 1.1-1.9 1-3.3.7 3.4 4.5 3.7 1 3.7 1s1.5-7.1 3.1-9.1c2.3-3.1 7.2-1.9 8.8 2.2z"/><path fill="#CC291F" d="M217.8 120.4s2.2 2.5 3.4 3.7 3.8 4.5 2.6 7.1c-1.1 2.3-2.8 2.1-4 1.5-1.7-.9-3.8-3.8-3.8-3.8s1.8-.3 2.4-2c.6-2.3-.6-6.5-.6-6.5z"/><path fill="#CC291F" d="M181.2 165.1s-.1 4.1-.2 5.7 0 7.5-2 10.1c-1.8 2.3-4.8 2.7-5.2 0-.5-3-.9-10.4-.2-11.1 4.1 2 7.6-4.7 7.6-4.7z"/><path fill="#CC291F" d="M155.7 104c.8 2.9-2.3 17.3-2.9 21.2-.7 4.2-.4 5.7 1.5 6.5 2.6 1.1 4.8-1.7 9.8.3 11.4 4.6 22.7-1.1 28.3-6s4.7-6 4.7-6-4.4-11.6-9.2-15.3c-4.1-3.2-8.4-5.3-8.6-6.8-.8-4.7 2.7-15.9 2.7-15.9s-1.9-2-2.7-5.6-.4-7.3-.4-7.3-1.9-.1-3.2-.6c-1.3-.6-1.8-1.1-1.8-1.1s-3.9 14.9-10.5 13.4c-6.4-1.4-2.8-16.4-2.8-16.4s-2.1.3-3.2.1c-1.1-.2-3.7-.8-3.7-.8s1.3 2.6.3 5.6c-1 3-3.2 7.1-3.2 7.1s.8 8.9 1.1 13.2 3 11.5 3.8 14.4z"/><path fill="#FBD7C7" d="M217 129.5s1.9-.6 2.4-2 .2-3.4.2-3.4 2.8 3.6 1.4 5.8c-1.5 2.2-4-.4-4-.4z"/><path fill="#FBD7C7" d="M173.8 171.9s1 .1 2.4 0c1.3-.2 2.8-1.5 2.8-1.5s.4 7.3-3 7.6c-2.7.1-2.2-6.1-2.2-6.1z"/></g><metadata><rdf:RDF xmlns:rdf="http://www.w3.org/1999/02/22-rdf-syntax-ns#" xmlns:rdfs="http://www.w3.org/2000/01/rdf-schema#" xmlns:dc="http://purl.org/dc/elements/1.1/"><rdf:Description about="https://iconscout.com/legal#licenses" dc:title="people" dc:description="people" dc:publisher="Iconscout" dc:date="2017-09-20" dc:format="image/svg+xml" dc:language="en"><dc:creator><rdf:Bag><rdf:li>Icograms</rdf:li></rdf:Bag></dc:creator></rdf:Description></rdf:RDF></metadata></svg>