<?xml version="1.0" encoding="UTF-8"?><svg xmlns="http://www.w3.org/2000/svg" xmlns:xlink="http://www.w3.org/1999/xlink" version="1.1" id="Layer_1" x="0px" y="0px" viewBox="0 0 160 240" xml:space="preserve"><path fill="#762C07" d="M105.4 33.5c-.6 1.9-.5 9.7-1.2 14-.8 5.2-7.1 24 2.1 18.1s7-33.5 3.1-33.7c-3.1-.2-3.4-.3-4 1.6z"/><path opacity="0.2" d="M96.4 204.8c-11.8 7.6-12.4 14.4 0 21 13.5 7.2 22.4 3.3 32.9-2.7s11.8-13.4-3.6-19.6c-12.6-4.9-20.4-4.4-29.3 1.3z"/><path fill="#FBD7C7" d="M100.4 80.9s-3.2 10.8-5.9 19.1-4 10.8-6.2 10.6c-2.2-.2-5.8.7-7.1 1.7-1.3 1-4 3.9-4.3 4.7-.9 2.2.3 4.6.9 4.8.6.2 2.2-.4 2.7-1.2s2-3.5 5.1-3.3 4.3-.4 6-1.1c1.4-.5 3.5-3.1 4.7-5.6 1.2-2.5 6.9-14.5 7.5-16.2.5-1.6-3.4-13.5-3.4-13.5z"/><path fill="#FBD7C7" d="M114.4 53.3s-9.1-4-12.3.3-1.7 11-1.7 11S95 70.7 95 74c0 3.3 5.1 6.5 5.1 6.5s.6 15.8-.3 22.3c-.9 6.5-3.8 23.3-3.1 33.9.7 10.6 1.6 25 1.9 29.2.3 4.1 2.2 10 3 14.8.9 4.8 4.1 13.2.9 19.6s-6.1 9.3-7.4 10.5c-1.3 1.2.2 5.2 3 4.5 2.8-.7 7.2-7.1 9.9-8.1s7.2-4 6-7.7c-1.2-3.6-1.7-2.2-2-5.3-.3-3.1 2.2-16.7 1.3-22.8-.9-6.1-3.2-7.8-3.6-8.8-.4-1.1 5.7-29.5 5.7-29.5s1.2 27.3 1.1 30.2c-.1 2.9 2.1 17.7 2.7 24.6.7 7 1 18.8-2 22.9-2.9 4.1-8 10.3-6 11.7 2 1.4 8.3 2.7 9.8-.9s5.3-11.1 6.7-13.1c1.4-2 1.9-3.1 1-5s-1.5-5-.5-10.3 4.1-14.7 3.3-19.7c-.8-5-3.2-8.1-2.9-11.7.3-3.5 8.1-24.8 6.6-39.7s-9-17.5-10.3-23.5c-1.3-6 3-13.9 5.2-18.2 2.2-4.2 5.3-11.6 2.6-14.2-2.7-2.7-5.9-4.4-7.1-6.4-1.2-2-2.5-8.2-2.5-8.2l-8.7 1.7z"/><path fill="#CC291F" d="M97 209s-4.9 1.7-5.9 3.9c-.8 1.8-.5 3.9 1.2 5 1.8 1 5.2 1.3 8.2-.4 2.9-1.7 6.8-8.4 7.5-8.7.7-.3.2 3.7.2 3.7l2.1 1.1 2.3-.9s-.2-4.5.7-6c.9-1.6 2.6-3.9 2-6.9-.7-3-2.6-3.3-2.6-3.3s0 3.5-4 7.3c-3.8 3.6-5.9 9.6-9.2 9.3-4.5-.7-2.5-4.1-2.5-4.1z"/><path fill="#CC291F" d="M113.9 215.7s-4.6 3.5-4.9 5.7c-.3 2.2-.2 3.7 2.9 4.7s7.1-.2 9-1.8c1.8-1.6 4.4-5.8 4.4-5.8l2 1.1 2.3-1.1s-.3-2.7.4-5.1c.7-2.4 1.4-4.4 1.4-7.4s-2.8-3.3-2.8-3.3 1.7 1.6-.8 5.1-4.4 11.3-8.1 11.5c-7 .5-5.8-3.6-5.8-3.6z"/><path fill="#262626" d="M132.4 109.4c-2.3-3.6-4.4-5.6-5.1-6.4-4.4-6.7 1.9-20.2 3-22.4 2.2-4.2 5.3-11.6 2.6-14.2S127 62 125.8 60c-1.2-2-2.5-8.2-2.5-8.2l-8.9 1.6s-3.6-1.6-7-1.7c-2.2 2.1-4.9 9.8-7.4 12.7-2.5 2.8-5.4 5.4-5.4 9.6 0 3.3 4.3 6.6 4.8 7.5.3.6 2.4 6 2.3 12.3 0 2.9-6.2 26.5-7.1 30-1.9 6.8-6.1 18-5.6 19 2.1 4.2 12.6 3.2 17.4 7.6s17.8 3.7 24 1.6c6.2-2.1 9.4-5.8 9.2-6.5-4.9-18.8-1.9-27.7-7.2-36.1z"/><path fill="#FBD7C7" d="M109.5 52.5s-8.9 14.8-2.4 16.5c6.3 1.7 16-8.7 16-8.7l-7.8-8.7-5.8.9z"/><path fill="#FBD7C7" d="M111.8 53.6s-4.3.7-4.9-.9c-.7-1.7-4.4-15.5 2.4-24.1 6.8-8.5 20.5-3.1 20.5 6 0 8.1-3.2 10.5-4.7 14.5-.9 2.5-1.6 5.8-.1 8.4 1.5 2.7 2.7 4 2.7 4s-7.6 4.6-13.3 3.2c-5.7-1.4-.2-4.2-1-6.6-.7-2.1-1.6-4.5-1.6-4.5z"/><path opacity="0.15" d="M94.7 74.7c3.1 5.9 12.5 10.5 26.6 7.4-.9 2.3-21.2 7.5-26.6-7.4z"/><path fill="#FBD7C7" d="M122.7 73.4c-1.1-2.9-.7-10.2 5.3-10.5 6-.3 6.7 5.7 7.2 13.6s3.5 20.7 3.7 23.3c.2 2.6-1.5 9.7-5.6 16-4.1 6.3-6.9 11.4-7.1 12.3-.2 1-1.4 4.9-3.1 6.1-.7.5-1.5 1.2-1.9 2.5-.4 1.3.5 2.4.7 2.7.3.7-.2 1.5-1.4 2.2-1.3.8-3.2-.5-4.2-1.3-.7-.5-2.5-2.1-2-4.3.4-1.6 1.7-6.6 3.7-7.8 2-1.2 3.9-2.7 4.6-4.1.7-1.4 2.2-11.9 4.8-17.2 1.4-2.9 3.1-4.8 3.1-5.9-.2-.9-6.8-24.6-7.8-27.6z"/><path fill="#762C07" d="M105.4 33.5s3.5-11.5 16.4-9.1c8.1 1.5 10.4 10.5 9.6 16.7-.7 6.2-3.3 9.9-2.1 12.9 2.3 5.6 1 9.4-1.6 12.7-4.3 5.5-13.1 8.2-12.1-2.9.7-8.6-5.1-12.4-3.1-21.5 1.2-5.7-1.1-8.2-3.6-7.7-.9-1.9-1.9-2.6-3.5-1.1z"/><g><path opacity="0.2" d="M30.9 227.7c-17.2-9.6-4.2-17 11.8-24.6 17.8-8.5 24.2-10.6 40.5-1.6 13.9 7.6 1.6 14.9-14.6 22.5-18.5 8.6-25.6 10.5-37.7 3.7z"/><path fill="#656565" d="M71.6 199.3c3.4 2.5 6.8 4 9.8 5.6 3 1.6 4.5 3.1 4.1 4.5s-3 3.2-7.6 3c-4.6-.2-12-4.4-13.4-4.5-1.4-.1-1.1.8-2.1.8s-6.4-1-7-1.7c-.6-.7.1-5.7.1-5.7l16.1-2z"/><path opacity="0.5" d="M55.4 207c-.3-.4-.3-1.8-.2-3.1 1.3 1.2 3.5 1.9 5.7 2 2.6.1 5.7.6 9.3 2.9 3.6 2.3 16 4.2 14.6-1.4.6.7.9 1.4.7 2.1-.3 1.5-3 3.2-7.6 3-4.6-.2-12-4.4-13.4-4.5-1.4-.1-1.1.8-2.1.8s-6.4-1.1-7-1.8z"/><path fill="#2D3134" d="M69.4 120.7c.9 6.6 1.3 29.8.4 40.3-.8 10.6-.7 25.9.1 31.2.6 3.9 2.5 6 2 7.4-.5 1.5-5 4.6-10.2 5.2s-7.2-.2-7.9-2.2c-.6-2-2.8-23.5-3.5-37-.6-12-1.7-45.1-1.7-45.1h20.8z"/><path opacity="0.3" d="M69.4 120.7c.9 6.6 1.3 29.8.4 40.3-.8 10.6-.7 25.9.1 31.2.6 3.9 2.5 6 2 7.4-.5 1.5-5 4.6-10.2 5.2s-7.2-.2-7.9-2.2c-.6-2-2.8-23.5-3.5-37-.6-12-1.7-45.1-1.7-45.1h20.8z"/><path fill="#656565" d="M40.6 211.4c.8 2.3 4.3 8 5 9.4.8 1.4 2.3 3.3 1.3 4.7s-5.7 3.3-10.4 1c-4.7-2.2-5.5-7.7-5.5-7.7h-.8s-1-2.3-1-3.9.3-2.6.3-2.6l11.1-.9z"/><path opacity="0.5" d="M31 218.9h-.8s-1-2.3-1-3.9.3-2.6.3-2.6h.1c.1.2.1.4.1.6.2 1.3 2.5 8.3 3.8 10 3.4 4.4 12.6 5.4 13.5.3.3.8.4 1.6-.1 2.2-1 1.5-5.7 3.3-10.4 1-4.7-2.2-5.5-7.6-5.5-7.6z"/><path fill="#2D3134" d="M57.5 121.5c-.1 4.3-4.5 9.3-5.8 15.4-1.3 6.1-5.3 36.3-6.3 45.2-1.5 12.9-2.8 31.7-3.2 31.9-.4.1-3.7-1.9-6.9-.2s-6.8 1-7.9.2c-1-.8-.6-9.4-.2-14.6.3-5.1 1.9-43.6 1.8-48.8-.1-5.2-1.8-19.3-1.4-22.6.4-3.4 2.3-7.3 2.3-7.3l27.6.8z"/><path opacity="0.15" d="M57.5 121.5c-.1 4.3-4.5 9.3-5.8 15.4-1.3 6.1-5.3 36.3-6.3 45.2-1.5 12.9-2.8 31.7-3.2 31.9-.4.1-3.7-1.9-6.9-.2s-6.8 1-7.9.2c-1-.8-.6-9.4-.2-14.6.3-5.1 1.9-43.6 1.8-48.8-.1-5.2-1.8-19.3-1.4-22.6.4-3.4 2.3-7.3 2.3-7.3l27.6.8z"/><path fill="#2D3134" d="M67.7 74.2c2.5 4 5.1 10.3 6.6 14.5s5.4 11.7 5.7 12.7c.2.9.1 4.6-3.4 5.7-3.5 1-5.2 1.8-5.8.9-.5-.8-4.2-5-4.2-5l1.1-28.8z"/><path opacity="0.15" d="M67.7 74.2c2.5 4 5.1 10.3 6.6 14.5s5.4 11.7 5.7 12.7c.2.9.1 4.6-3.4 5.7-3.5 1-5.2 1.8-5.8.9-.5-.8-4.2-5-4.2-5l1.1-28.8z"/><path fill="#FFF" d="M54.9 46.4c2 1.6 10.2 13.3 10.6 27.7s-3.2 21.1-3.2 21.1-11-29.2-16.9-35.6-5.6-11.5-5.6-11.5 3.8-2.6 7.9-2.9c4.1-.3 7.2 1.2 7.2 1.2z"/><path opacity="0.2" d="M55.2 56.4l-2.3 6.4-6.4-4.3 6.8 6 2.1-7.8 1-.2 3.8 4.3V57c0 .3-.3 1.9-.3 1.9l-3.5-3.4-1.2.9z"/><path fill="#CC291F" d="M58.1 61.1l.1-3.8-1.5-1.6-1.5.7-1 2.7 2.3 2.3s2.1 18.1 2.3 20.4 3.1 13 3.1 13 4.5-12.5 4.3-12.7-8.1-21-8.1-21z"/><path fill="#FBD7C7" d="M21.9 129.7c.3 1 .2 2 2 3.2s3.1 3.6 3.5 5.2c.4 1.6 1.7 3.5 1.9 4.7s-.8 2-1.8 1.1-2.9-4.5-3.9-4.8c-1-.3-1.3 2.9-1.4 4-.1 1 1.5 3 2.2 4 .8 1 .1 1.9-1 1.6s-5.9-2.9-7.1-7.9-.7-12-.7-12l6.3.9z"/><path fill="#FFF" d="M24.1 128.9l.1 2s-3.8.9-6.9.6-3.8-1-3.8-1l.3-3 10.3 1.4z"/><path fill="#2D3134" d="M51.2 45.6c2.1.3 9.2-2 13.2 4.1s4.7 12.6 4.9 18.3c.2 5.7 1.2 43 1.2 49.5s-.1 9.5-3 10.4c-3.4 1.1-5.9-1.9-6-3.8-.1-2 .3-30.7.3-30.7s5.1-12 1.8-25.8-8.5-18.4-8.5-18.4L51 45.7l.2-.1z"/><path fill="#2D3134" d="M41 47.2s-4 3.3-6.2 5.1c-2.3 1.8-12 10.6-13 11.7-1 1.2-2.2 2.4-2.2 5.7s-.4 8.4-1.7 11.9c-4.1 10.6-4.3 15.2-4.6 19.8s-.9 26.6-.9 26.6 1.3 1.2 6.4 1.8 6.4-.1 6.4-.1 1.5-14.2 2.3-19.3c1.3-7.8 5-16.1 5-16.1s.6 3.5.3 5.6-4.1 19.3-4.9 22.1-1.7 6.1-1.7 6.1 4.2 6.6 15.6 6.1c11.4-.4 18.2-4 19.6-11 1.4-7 1.7-24.5-.1-34.3s-9.7-25.6-14.9-31.4S41 47.2 41 47.2z"/><path opacity="0.2" d="M61 93.4s-3.5-8.9-8.9-16.5c-3.8-5.2-7.8-8.6-7.8-8.6l.3-3.4-4.1-1.5L38 49.7l-.5.5 1.7 14.1 4.6 1-1 3.5s5.4 4.7 9 9.2c3.9 4.9 9.2 15.4 9.2 15.4z"/><path fill="#FBD7C7" d="M56.7 25.5c3.8 2.8 4 10.3 3.9 15.4-.1 5.1-.7 9.3-1.5 9.7-.8.4-2.4.6-2.4.6s.1 4.9-1.1 5.1c-1.2.3-7.8-2.8-10.9-6-3.1-3.1-3.5-3.8-3.5-3.8s-4.3-7.9-3.6-14.1 8.5-14.6 19.1-6.9z"/><path fill="#762C07" d="M60 28.6c.6 1-1.5.8-4.5 5.4-3.1 4.6-6.6 2.6-7.6 2.6-.3 2.5-2.4 2.1-4.3 4.3 0 0-.7-2.5-2.1-2.6s-.9 4.2-.9 4.2-.2 1.7-1.2 2c-1 .3-4.7-8.8-2.8-14.7 2.9-9.3 16.5-12.6 23.4-1.2z"/><path fill="#FFF" d="M79.1 101.8c-.5-.5-3.6-.4-5.3 1.3-1.7 1.7-2.2 3.6-1.9 4.1.2.4 2.4.2 4.9-1.5s2.8-3.3 2.3-3.9z"/><path fill="#FBD7C7" d="M78.5 102.2c-1.2-.4-3.1.1-4.3 1.3-1.2 1.1-1.7 2.2-1.6 3 0 .8 1 2.7 1.2 3.6.2.8 2.7 4.2 3.5 5.3.7 1.2 1.6 1.7 1.8 3.5s.8 2.7 2.1 2.8c1.3.1 6.1-2.9 5.2-7.2-.9-4.2-2.6-6.7-3.6-8.1-.5-.7-2.6-1.8-3.3-2.3-.8-.6-.5-1.7-1-1.9z"/></g><metadata><rdf:RDF xmlns:rdf="http://www.w3.org/1999/02/22-rdf-syntax-ns#" xmlns:rdfs="http://www.w3.org/2000/01/rdf-schema#" xmlns:dc="http://purl.org/dc/elements/1.1/"><rdf:Description about="https://iconscout.com/legal#licenses" dc:title="people" dc:description="people" dc:publisher="Iconscout" dc:date="2017-09-20" dc:format="image/svg+xml" dc:language="en"><dc:creator><rdf:Bag><rdf:li>Icograms</rdf:li></rdf:Bag></dc:creator></rdf:Description></rdf:RDF></metadata></svg>