<?xml version="1.0" encoding="UTF-8"?><svg xmlns="http://www.w3.org/2000/svg" xmlns:xlink="http://www.w3.org/1999/xlink" version="1.1" id="Layer_1" x="0px" y="0px" viewBox="0 0 160 240" xml:space="preserve"><path fill="#FBD7C7" d="M86.3 93.3s1 9.1 1.3 12.3c.3 3.2 1.3 5.5 2.1 7.3.8 1.8 4.5 6.2 5 5.9.5-.3-.3-2.1-.3-2.5 0-.4.4-1.7-.2-2.5-.6-.7-1.7-4-1.6-4.7s1.4-.9 1.5-1.4l.1-.5s-3.6-6-3.6-8.6c0-2.7-.1-6.1-.1-6.1s-.6-.3-2 0-2.2.8-2.2.8z"/><path opacity="0.3" fill="#262626" d="M101 205.2c.6 1.8-6.7 11.8 7.1 13.5 20.6 2.7 21.6-13.7 29.3-18.2 13.9-8.1-3.1-14.1-22.5-14.1-16.3.1-30.5 1.9-29.4 10.1.8 6.2 14.6 5.6 15.5 8.7z"/><path fill="#262626" d="M106.9 188.6s-1.6 1.2-5.5 1.1c-3.9-.1-7.3-.8-11.4 1.5-4.8 2.7-1.2 7 .1 7.4s18.1.9 21.2.7c3.1-.3 2.1-8.2 2.1-8.2l-6.5-2.5z"/><path fill="#262626" d="M112.3 197.5c-1.5.1-9 .6-13.5.5-5-.1-6.4-.5-7.8-1-1.7-.6-3.2-1.4-3.3-3.1-.5 2.2.9 4.1 2.5 4.6 1.5.5 3.3.9 8.6 1.1 4.2.1 11.3-.3 12.6-.4.8-.1 1.4-.7 1.7-1.6-.3.2-.5-.2-.8-.1z"/><path fill="#262626" d="M112.6 199.3s-3.9 4.4-6.6 7.6c-2.7 3.2-3.8 5.6-3.6 7.9s3.5 3.4 8 3.4c4.6 0 9.3-2.8 11.5-5.9 2.3-3.1 5.6-5.9 5.6-7.4s-.1-6.2-.1-6.2l-14.8.6z"/><path fill="#262626" d="M127.5 198.8h-.5c0 1.5.1 3.3.1 4.1 0 1.5-3.4 4.3-5.6 7.4-2.3 3.1-7 5.9-11.5 5.9-3.5 0-6.3-.6-7.4-2v.6c.1 2.3 3.5 3.4 8 3.4 4.6 0 9.3-2.8 11.5-5.9 2.3-3.1 5.6-5.9 5.6-7.4s-.2-6.1-.2-6.1z"/><path fill="#06547A" d="M92.7 102.6s-.5 13 1.6 23.9c2.1 10.9 9.5 26.4 9.5 31.1 0 4.7 2.3 19 2.1 22.8-.1 3.8-.9 8.6-.9 8.6s2.7 5 6.2 6.7c3.5 1.7 7.2-.4 7.2-.4l-6.4-90.5-19.3-2.2z"/><path opacity="0.2" d="M92.7 102.6s-.5 13 1.6 23.9c2.1 10.9 9.5 26.4 9.5 31.1 0 4.7 2.3 19 2.1 22.8-.1 3.8-.9 8.6-.9 8.6s2.7 5 6.2 6.7c3.5 1.7 7.2-.4 7.2-.4l-6.4-90.5-19.3-2.2z"/><path fill="#06547A" d="M104.1 107.7s.3 14.3-.3 25.6 2.3 21.7 3.4 25.3c1.1 3.6 1.5 9.7 1.5 15.2s.2 26.2 1 27c.8.8 5.2 3.6 10.9 4 4.3.3 9-2.4 9-3.1 0-.7 1.5-16.4.3-29.1-1.2-12.7-3.8-19.3-3.6-21.3.1-2 3.1-29.1 2.8-34.7s-2-18.4-2-18.4l-23 9.5z"/><path fill="#E5E5E5" d="M90.8 57.7s-2.2 7.4-3.6 17.6c-1.5 10.7-.7 25.3-.7 25.3s2.1-1.6 6.2-1.6-1.9-41.3-1.9-41.3z"/><path opacity="0.2" d="M90.8 57.7s-2.2 7.4-3.6 17.6c-1.5 10.7-.7 25.3-.7 25.3s2.1-1.6 6.2-1.6-1.9-41.3-1.9-41.3z"/><path fill="#FBD7C7" d="M124.4 115.4s-.4 2.9-2.3 5.1c-1.9 2.1-3.5 5.8-3.5 7.3 0 2.1 0 3.9.9 4 1.8.2 1.1-1.3 1.7-1.3s.3 2.6 3 2.7c3.5.1 8.5-2.3 8.5-4.6 0-1.2-.5-4.4-.9-6.2-.5-1.9-.5-4.5-.5-4.5l-6.9-2.5z"/><path fill="#E5E5E5" d="M111.7 32.4c9.5 2.5 20.1 4.6 23.7 12.3 3.1 6.6 2.9 8.7 2.7 14.9-.3 6.2-.8 18.5-.5 22.5.3 4-1.1 20.8-2.3 26.4s-1.6 10.3-2.5 10.6c-.9.3-10.2-.9-9.5-2.3.9-2 1.2-7.6 1.2-7.6s-4.4 5.4-14.2 4c-9.8-1.3-18.2-6.1-19.1-8.6-.4-1.2-.6-19.8.3-24.8s-2-15.7-2.1-20.4c-.1-4.7 2.9-17.4 3.1-19.7.2-3.4 4.2-11.2 19.2-7.3z"/><path opacity="0.2" d="M124.5 109.2s.7-5.2.7-9.8c0-4.6.1-11.3-.4-13.9-.5-2.7-2.2-12.2-2.5-14.7-.7-6.1-.3-9.8.2-11.1-2.4 4.1-1 19-.3 25.2.9 8.7-.3 25.8-.6 26.6-.4.8 2.9-2.3 2.9-2.3z"/><path fill="#FBD7C7" d="M115.5 26.5s0 5.2.9 6.1 3 1.3 2.3 2.6c-.7 1.3-8.1 9.7-13.5 9.2-5.3-.5-4-9.4-4-9.4l14.3-8.5z"/><path fill="#FBD7C7" d="M95.7 14.8c-2.2 2.8-1.3 11-.3 14.7 1.1 3.8 2.2 5.9 2.7 7.3.4 1.4 1.9 3.6 3.9 3.5s8.2-4.1 10.1-7.1 4.4-5.9 4.8-7.9.6-2.9-1.1-3.3c-1.7-.4-5.3-7.8-9.9-8.1s-8.8-.7-10.2.9z"/><path fill="#762C07" d="M94.4 16.8c-.4 1.6.8 3.3 5.5 3.3s7.6-2.3 8.1-.8c.5 1.5 1.8 5.7 2.2 6.6.4.9 1 2 1.3 1.6.3-.4 1.8-3.9 2.9-4.7 1.1-.8 1.7-.8 1.7-.8s1.6-8.3-2-12.6C110.5 5 98 4 94.4 16.8z"/><path fill="#762C07" d="M97.9 34.9s.7-.7 1.6-.8c.4 0 1.3.1 1.9.2.8.2 2.7 1.1 2.7 1.1s-2.8 0-3.7-.1c-1.1 0-2.5-.4-2.5-.4z"/><path fill="#762C07" d="M99.7 37.3l1.2.1s-.2.6.6 1.3 2.9.8 2.9.8-1.7 1.3-3.2.9c-1.5-.4-2.2-1.8-2.2-1.8s.5-.1.6-.5c.2-.3.1-.8.1-.8z"/><g><path fill="#FBD7C7" d="M35 64s-3.7 14-3.7 16.8c0 2.8 2.2 10.2 4.8 14.4 2.6 4.1 5.4 10.5 5.4 10.5l2.1-4s-2.2-10.5-3.5-14.1c-1.3-3.6-1.9-4.2-.9-7.4 1.1-3.3 3-8.6 3-8.6L35 64z"/><path opacity="0.2" d="M38.6 208.8c-9.3 5.7-10 12.5 2.1 18.9 13.2 7.1 20.9 5.5 31.1-.4 9-5.2 6.9-12.2-8.2-18.3-12.2-4.8-18.5-4.3-25-.2z"/><path fill="#FBD7C7" d="M40.3 97.7c-2.4 3.2-11.5 14.3-8.9 30s7.1 24.2 6.3 27.9c-.8 3.7-3.7 10.8-3 18.7.8 9.7 3.7 19.7 3.8 23s1.3 6.3.4 8.8c-.9 2.5-3.1 4.4-.9 6.1 1.8 1.4 1-.6 10.2 2.7 12.3 4.5 9.7-1.8 3.6-2.9-2.2-.4-4.1-4.8-4.8-7.7-.3-1.2-1.2-15.8-.4-22.6.8-6.7.9-17.1.8-20.1s2.4-14.4 3.4-20c1.4-8.5 4-38.5 4-38.5l-14.5-5.4z"/><path fill="#262626" d="M38.5 207.1s-2.3 2.6-2.2 4.9c.1 2.3 1.9 5.7 1.9 7v3.2l1.7 1 1.6-.8s-.7-5.3.5-6.1c1.2-.8 4.8 1.9 7.2 2.5s8.3-.1 10.4-1c2.2-.9.4-3.6-1.5-4.7-2.6-1.4-6.7-1.2-6.7-1.2s1.3.4 2.8 1.9c2.7 2.7-4.8 3.3-11.7-2.6-2.6-2.5-4-4.1-4-4.1z"/><path fill="#FBD7C7" d="M48.8 102s-5.4 12.9-5.4 19.1 4.1 8.5 4.9 10.5c.8 2 1.1 8.5 3 16.2 1.9 7.7 4.2 12.5 2 18.1-3.6 8.8-2.9 16.4-1.8 27.2 1.1 10.7.2 16.8-.1 18.5-.4 2-3.5 3-1.9 5.4 2.2 3.2 8.4 3.6 11.1 4.9 3.2 1.5 7.2 2 8.2.4 1-1.5.2-3.9-3.4-3.8-3.1.1-5.3-5-6.2-7.3-.9-2.2 1-9.6 2.6-21.2 1.5-11.6 2.2-24.2 2.9-29 .8-4.8 3.2-9 3.8-30.5.7-21.6-1.6-27.6-1.6-27.6l-18.1-.9z"/><path fill="#262626" d="M50.5 212.9s-2.4 2-2.4 4.5c0 2.6 2.1 5.4 2.4 7.4s.2 3.5.2 3.5l1.9.9 1.9-.8s-1.6-5.7.1-6.1c1.7-.4 6.8 3.6 9.9 3.6s7.3-3.9 7.3-5.4c0-1.5-3.4-3.1-5.4-2.9-2 .1-2.9.6-2.9.6s3.1 1.3 3.5 2.4c.4 1-.6 1.7-1.9 2-2.6.5-5.1-1.8-9.3-5.2-3.6-3-5.3-4.5-5.3-4.5z"/><path fill="#06547A" d="M67.4 104c.2 5.9 6 36.3 8.1 46.6.4 2.2-3.6 4.2-11.9 6.5s-13.2 2.1-18.6-3.5-13.7-3.7-16.4-5.2c-2.7-1.5 1.4-14.8 1.7-25.7.3-10.9 6.3-19.8 6.3-19.8l30.8 1.1z"/><path fill="#FC0" d="M41.6 56.7c-2.5 1.1-7.9 5.6-6.9 9.3 1 3.7 4.7 16.1 5.5 19.7.8 3.5 1.2 8.7-.2 10.6-1.4 1.9-4.3 7.3-4.3 7.3s9.9 2.7 18.3 2.7 14.2-1.5 14.2-1.5S67 84.1 67.5 83s5-3 4.6-7.5c-.3-2.9-1.9-4.3-3.7-6.1-1.3-1.4-3-3.6-4.4-4.9-1.7-1.6-6-3.6-10.1-6.3-4.2-2.7-12.3-1.5-12.3-1.5z"/><path fill="#FBD7C7" d="M65.6 66.1s1.5 1.2.6 7.6c-1 6.4-1 19.7.9 26 1.8 6.3 5.3 20.2 6.3 22.8 1.1 2.6 2.3 3.2 3 4.2.5.7 1.4 4.8.9 6.3-.5 1.4-2.8 5.1-4.8 5.7-2 .6-4.3.6-4.6-.3-.3-.9 1.7-1.2 2-2.6s.5-6.1.5-7.3c0-1.2-1.2-4.6-5-10.8-3.8-6.2-7.1-11.4-8.2-18.3-1.1-6.9-3.2-26.7-2.7-30.4.6-5.3 7.2-8 11.1-2.9z"/><path fill="#FBD7C7" d="M55.6 26.9C59 28.1 60.2 31 60.8 37c.6 6-.2 9.8-.6 10.9-.5 1.1-4.2 2.3-5.1 3.8-.9 1.5-1.6 4.7-1.1 5.4 1 1.3 1.7 1.2 1.7 1.2s-8.3 2-11.3.7-2.9-3-2.3-3.7 1.7-3.5 1.1-5c-.6-1.5-7.5-7.7-5.3-15 2.7-8.7 10.9-10.8 17.7-8.4z"/><path fill="#762C07" d="M47.1 24.9c-8.2 1.6-11.5 8.5-10 16.1 1.2 6.1 1.3 7.6.3 10-3.4 8-5.7 14.8-2.2 18.9 5.4 6.4 17.6 3.3 22.3-3.6 3.1-4.5 5.6-10.9 3.8-15.9-2.7-7.5-.6-9.5.1-14.8s-6-12.4-14.3-10.7z"/></g><metadata><rdf:RDF xmlns:rdf="http://www.w3.org/1999/02/22-rdf-syntax-ns#" xmlns:rdfs="http://www.w3.org/2000/01/rdf-schema#" xmlns:dc="http://purl.org/dc/elements/1.1/"><rdf:Description about="https://iconscout.com/legal#licenses" dc:title="people" dc:description="people" dc:publisher="Iconscout" dc:date="2017-09-20" dc:format="image/svg+xml" dc:language="en"><dc:creator><rdf:Bag><rdf:li>Icograms</rdf:li></rdf:Bag></dc:creator></rdf:Description></rdf:RDF></metadata></svg>