<?xml version="1.0" encoding="UTF-8"?><svg xmlns="http://www.w3.org/2000/svg" xmlns:xlink="http://www.w3.org/1999/xlink" version="1.1" id="Layer_1" x="0px" y="0px" viewBox="0 0 160 240" xml:space="preserve"><path fill="#FBD7C7" d="M29.8 72.7S28 81 27.4 84.9c-.6 3.8-2.2 7.5-1.8 10.4s2.9 8 5.2 12c2.4 4.3 4.8 5.9 4.9 11.6.1 2.1-1.3 4.8.6 5.6 1.9.8 4.5.6 5.9.1s1.6-7.9 1.6-8.9c0-1.1-2.8-1.2-3.4-3.4S35.7 98.6 36 96.5c.3-2.2 3.8-12.9 3.8-12.9l-10-10.9z"/><path opacity="0.2" d="M88.6 230.4c20.1-7.7 8.6-18.7-10.6-22.1-8.4-1.5-17.1-18.6-38.1-5.2-16.9 10.8-1.6 17.2 7.1 21.2 11.9 5.5 22.9 13.3 41.6 6.1z"/><path fill="#FBD7C7" d="M39.8 62.5c1.3.1 6.4-6.1 5.9-8.8-.5-2.8-10.6-20 7-23.6 5.8-1.2 13.3 3 14.1 10.2.7 6 .4 14.9-1.9 16-2.3 1.1-3.8.4-5.4 2.3-1.6 1.9-1.7 4.4-.7 7.1 1 2.7 3.7 3.4 3.7 3.4H40.3l-.5-6.6z"/><path fill="#825012" d="M52.6 29.5c-17.7 3-6.9 24.9-7 25.3 1.8.9 5.3.9 6.9-.3 1.8-1.3 2.8-5.9 4.8-7.6 2-1.7 3.1-.1 3.2.5s.1 1.3.1 1.3l1.4-.5s.8-2.5.9-5.8c.1-3.4-.7-6.8-.4-7.5.2-.6 1.4-.1 2.1-.3-2.6-4.1-7.9-5.8-12-5.1z"/><path fill="#262626" d="M38.3 214.3c-.2 2.6 2.6 5.1 6 4.2 3.5-.9 7-3.8 10.9-5.4 4.5-1.9 8.3-3.1 9.3-6 1-2.8-.5-6.4-7.3-6.1-6.8.3-11.5 5.7-11.5 5.7l-7.4 7.6z"/><path fill="#FFF" d="M39.8 216.3c4.1-.7 9.7-3.6 11.8-4.8 2.2-1.2 10.5-3.6 11.7-6.3 1.1-2.7-4.8-5.2-9.1-3.7s-8.6 2.7-8.6 2.7l-5.8 12.1z"/><path fill="#262626" d="M62.7 225.9c.3 1.9-.5 4.5 3.3 4.3 3.7-.2 10.9-1.6 13.7-1.8 2.7-.3 13.1-1.5 15.2-5.2 2-3.7.1-7.4-3-7.7-3.1-.3-7 2.2-10.4 1.4-3.4-.7-8.3-2.7-8.3-2.7l-10.5 11.7z"/><path fill="#FFF" d="M65 226.2c2.6.3 8.1 0 12.8-.7 4.8-.7 14.3-1.8 16.3-5.6 1.5-2.9-.6-5-4.6-4.5-4.1.6-3.3 1.4-6.9 1.4-3.6.1-8.6-1.7-8.6-1.7l-9.2 11 .2.1z"/><path fill="#28896D" d="M38.6 113.4c-2 3.1-6.6 9.7-3.6 24.1s5.8 25.2 3.9 30.4c-1.9 5.2-3.7 13-3.4 17.4.3 4.4 0 8.1-.3 10.8-.3 2.7-1.4 14.6 0 17.8 1.4 3.1 3.8 4.7 7.8 3.7s9.1-4.8 9.7-6.9c1.5-4.8-1-14.7.3-19.9 1-3.8 2.1-8 2.3-11.5.2-3.5 1.6-12 3.8-22.4 2.3-10.4 6.8-22.3 6.1-30.2s-26.6-13.3-26.6-13.3z"/><path opacity="0.2" d="M38.6 113.4c-2 3.1-6.6 9.7-3.6 24.1s5.8 25.2 3.9 30.4c-1.9 5.2-3.7 13-3.4 17.4.3 4.4 0 8.1-.3 10.8-.3 2.7-1.4 14.6 0 17.8 1.4 3.1 3.8 4.7 7.8 3.7s9.1-4.8 9.7-6.9c1.5-4.8-1-14.7.3-19.9 1-3.8 2.1-8 2.3-11.5.2-3.5 1.6-12 3.8-22.4 2.3-10.4 6.8-22.3 6.1-30.2s-26.6-13.3-26.6-13.3z"/><path fill="#28896D" d="M46.1 118.7c-2.2 5.7-3.4 14.6-.7 19.1 2.7 4.5 7.2 10.3 8.5 14.3s5.9 12.4 5.8 15.7-2.2 18.1-1.3 28.5c.9 10.4 2.1 21.6 1.8 24.3-.3 2.7.7 9.4 4.3 9.5 3.6.1 13.1-3.6 15.8-8.1 2.1-3.4 1.1-4.9 0-5.7-1.1-.8-2.8-3.6-3.4-7.5-.6-3.8-.1-23.6 1.2-29.1s2-7.9 1-13.1c-1-5.2-4.4-26.3-5.3-32.8s-1.6-12-1.6-12l-26.1-3.1z"/><path fill="#E5E5E5" d="M41 61.9s-6.6-1.9-10.4 1.9c-3.8 3.8-2.4 7.9-.8 13 1.6 5.1 9.9 25.1 9.4 29.5-.5 4.3-3.7 11.1-3.5 12.8.2 1.6 8 8.4 18.6 9.9 10.6 1.4 17.2-.3 17.3-1.4.1-1.2.3-14.8-.9-20.9-1.2-6.2-1.4-11.9.4-17.2 1.8-5.2 3-10.7 1.7-13.9s-3.3-4.7-6.4-6.2-6.7-2-6.7-2-7.9 2.1-14.3 0c-7.9-2.8-4.4-5.5-4.4-5.5z"/><path fill="#FBD7C7" d="M57.9 85.3s5 1.3 8.6.7c3.6-.6 5-1.4 5-1.4s-1.2 4-1.7 5.4c-.9 3-1.8 8.5-1.9 10.9-.1 2.4-.3 5.1-.3 5.1s2.2 2.5 3.3 6.5 1.8 7.4 2.9 9.1 2.3 3.7 2.5 6.7c.2 2.9.8 8.5-1.2 10s-5.9 3-7.5 2.3c-1.6-.8-2.3-2.1-2-2.6.3-.5 1.5 1.3 2.8-.2 1.4-1.5 1.2-2.8.6-5.4-.6-2.6.7-4.5.3-5.4-.4-.9-9.5-12.5-10.5-17.9s-.9-23.8-.9-23.8z"/><g><path opacity="0.2" d="M119.9 206.1c5.5-.2 6.9-2.6 8.2-7.3 1.4-4.7-.4-5.7 2.9-8.1 3.3-2.4 5.9-4.8 5-8.4-1.7-6.9-9-15.1-15.9-15.1s-19.8 10.2-20.2 11.2-3.4 2.3-.4 6.4c4.8 6.5 8.4 21.7 20.4 21.3z"/><path fill="#FFF" d="M104.8 173.2s-2.4 2.3-4.3 3.7c-1.8 1.4-2 4.1-1.9 5s2.1 3.3 5.5 2.7 6-4.3 8.3-6.4c2.3-2.2 2.3-2 4-2.3 1.7-.3 0-4.2-2.3-4.3s-6.8-2.3-6.8-2.3-1.4 2.7-2.5 3.9z"/><path fill="#FFF" d="M104.8 173.2s-2.4 2.3-4.3 3.7c-1.8 1.4-2 4.1-1.9 5s2.1 3.3 5.5 2.7 6-4.3 8.3-6.4c2.3-2.2 2.3-2 4-2.3 1.7-.3 0-4.2-2.3-4.3s-6.8-2.3-6.8-2.3-1.4 2.7-2.5 3.9z"/><path fill="#262626" d="M112.5 178.3c2.3-2.2 2.3-2 4-2.3.2 0 .4-.1.5-.3l-6.6-1.3s.3 2.6-1.8 4.9c-2 2.3-3.2 3.6-5.7 3.6-1.8 0-3.1-.4-4.1-1.6v.7c.1 1 2.1 3.3 5.5 2.7 3.3-.6 5.9-4.3 8.2-6.4z"/><path fill="#2D3134" d="M102.5 88.2s-3.4 9.4-3.1 20.4c.3 11.5 1.6 18.7 2.4 21.7 1.1 4.5 3.4 5.9 3.9 15.7s.6 19.8-.2 22.7c-.8 2.9-2.7 4-2.4 4.7.3.7 3.8-.4 5.5 1.2s4.5 2.7 5.9 2.7c1.4.1 2 0 2 0l-3.7-78.2-10.3-10.9z"/><path opacity="0.2" d="M102.5 88.2s-3.4 9.4-3.1 20.4c.3 11.5 1.6 18.7 2.4 21.7 1.1 4.5 3.4 5.9 3.9 15.7s.6 19.8-.2 22.7c-.8 2.9-2.7 4-2.4 4.7.3.7 3.8-.4 5.5 1.2s4.5 2.7 5.9 2.7c1.4.1 2 0 2 0l-3.7-78.2-10.3-10.9z"/><path fill="#FFF" d="M118.8 194.2s-1.7 4.5-1.7 5.4c0 .9-.2 3.9.4 4.6.5.6 3.2 1.5 5.3 1.2 2.2-.3 4.3-2.4 4.5-3.2.2-.9-.1-6.3-.2-7.1-.1-.8-.5-2.6-.5-2.6l-7.8 1.7z"/><path fill="#262626" d="M126.7 192.5l-1.4.3c.4 1.9.9 6.3.3 8.1-.8 2.1-3 2.7-4.9 2.7-1.1 0-3-.6-3.5-2 0 1.1.1 2.3.4 2.7.5.6 3.2 1.5 5.3 1.2 2.2-.3 4.3-2.4 4.5-3.2.2-.9-.1-6.3-.2-7.1-.1-.9-.5-2.7-.5-2.7z"/><path fill="#2D3134" d="M110.9 100s-3 7.1-3.5 17.3c-.5 10.2.7 17 .9 19.3.1 2.3.5 9.4 1.8 12.1 1.3 2.7 3.7 7.9 4.6 14.4.9 6.6 1.3 18.4 1.4 21.4.1 4-.5 7.3.2 9.2.7 1.9 3-.4 5.5.3s6.4 1.4 7.1 1c.7-.4-.5-7.5-.4-11.6.1-4.1-.2-19.8-1.1-26.4-.8-6.6-5.6-12.8-4.8-19.5.8-6.7 5.4-20.8 6.5-25s1.4-10.2.8-15.7c-.5-5.6-19 3.2-19 3.2z"/><path fill="#FBD7C7" d="M102.5 83.1s-4.3 3.1-5.9 5.1-2.4 2.9-2.4 4.7c0 1.8.8 2.9 1.6 2.7s0-2.7 0-2.7l.8-1.6s-.8 1.4-.4 2c.4.5 2.2 2.4 2.7 2 .6-.4.4-1.2.4-1.2s-1.5-1-1.2-1.6c.3-.5.8-.8.8-.8s-.3 1.8 0 2.4c.3.5 1.6.4 1.6.4l2.4-5.5-.4-5.9z"/><path fill="#9C3" d="M121.9 40c-4.6-.9-13.3-1.6-16.5 2.4s-2.4 5.1-2.4 7.1-1.5 5.3-2.4 7.5c-.9 2.2-2.3 5.9-.8 8.2 1.5 2.4 4.3 3.5 4.3 3.5s-.8 9.3-1.7 12.9c-.9 3.5-2 9.8-2.4 11.8-.4 2 1.6 7.9 5.5 9.4 3.9 1.6 12.8 2.3 18.1-1.6 5.3-3.8 6.3-6.3 6.3-6.3s-1.9-7.7-1.6-10.6c.3-2.9 5.2-17.6 5.2-17.6l3.6-11.8 1.2-.8s.3-2.6-1.2-5.1-4-5.2-7.5-6.3-3.7-1.9-7.7-2.7z"/><path fill="#FBD7C7" d="M111.3 42s-6.9 5.5-2.4 10.2c4.5 4.7 13.3-4.2 14.9-7.9 1.7-3.6-7.1-7.6-12.5-2.3z"/><path opacity="0.2" fill="#262626" d="M99.4 61.6s-.1 4.3 11 6.5c16.5 3.3 19.8-2.9 19.8-2.9s-3.1 8.6-19.2 5.5c-14-2.6-11.6-9.1-11.6-9.1z"/><path fill="#825012" d="M120 13.8c-8.1-.5-12 3-13.5 8.6-1.5 5.4 4 15.3-1.8 17.9.1 2.2 5.1 4.5 7.3 2.1 2.2-2.3 2.9-2.4 2.9-2.4l5.1-26.2z"/><path fill="#FBD7C7" d="M109.4 23.9c-1.5 3.1-1.9 15.6.6 17.6 2.5 2 7.6-1.3 12.5-3.5s5.5-19-1.9-19.2c-7.4-.2-9.6 1.8-11.2 5.1z"/><path fill="#825012" d="M118.5 14c-3.3.8-7.1 5.2-6.4 10 1 6.2 13.2 18.3 4.6 22.2 1.4 4.6 9.5 4.3 14 2 4.3-2.3 4.7-4.5 4.6-5.3-.1-.8-3.8-4.9-3.8-10.9s-.5-21.1-13-18z"/><path fill="#FBD7C7" d="M127.7 57.2s2.8 0 4.8-.3 4.7-2 4.7-2 .2 4.6.8 7.3 1.6 10.4 2 11.5 1.9 2 0 5.9-9.7 15.9-11.1 19.1c-1.4 3.2-1.3 6.2-2 7.1-.6.9-2.5 1.7-2.7 1.6-.3-.1-.7-.1-.7-.1s-.4.4-1.1.4c-.7 0-.9-.4-.9-.4s-.5.8-1.6.7c-1.1-.1-1-.8-1-.8s-1.6.8-2.4.6c-.8-.2-1.2-1-.7-1.3.5-.3 1.6-.2 2.4-.9.8-.7 2.1-2.8 2.1-2.8s-.3-.2-.2-1.4-.1-3.1 1-3.7c1.2-.6 2.6-.6 3.4-1.6 2.5-3 3.2-8.2 5.4-12.7s3.6-6.2 3.6-6.6-2.8-6.7-3.8-10.2c-1.1-3.8-2-9.4-2-9.4z"/></g><metadata><rdf:RDF xmlns:rdf="http://www.w3.org/1999/02/22-rdf-syntax-ns#" xmlns:rdfs="http://www.w3.org/2000/01/rdf-schema#" xmlns:dc="http://purl.org/dc/elements/1.1/"><rdf:Description about="https://iconscout.com/legal#licenses" dc:title="people" dc:description="people" dc:publisher="Iconscout" dc:date="2017-09-20" dc:format="image/svg+xml" dc:language="en"><dc:creator><rdf:Bag><rdf:li>Icograms</rdf:li></rdf:Bag></dc:creator></rdf:Description></rdf:RDF></metadata></svg>