<?xml version="1.0" encoding="UTF-8"?><svg xmlns="http://www.w3.org/2000/svg" xmlns:xlink="http://www.w3.org/1999/xlink" version="1.1" id="Layer_1" x="0px" y="0px" viewBox="0 0 240 320" xml:space="preserve"><path fill="#FBD7C7" d="M140 131.5s-1.6 3-2.2 5.1-1.7 8.6-1.6 9.7 4.1 8.4 5.8 9.2c1.7.8 2-10.2 2-10.2l-.5-4.8 2.7-5.6-6.2-3.4z"/><path opacity="0.2" d="M143.9 224.7c-11.8 7.6-12.4 14.4 0 21 13.5 7.2 22.4 3.3 32.9-2.7s11.8-13.4-3.6-19.6c-12.5-5-20.4-4.4-29.3 1.3z"/><path opacity="0.2" d="M51 282.8c-11.8 7.6-32 14.4-13.7 25.5 17.1 10.4 33.9-3.4 46-9.8 17.7-9.5 26.8-17.7 16-24.5-11.2-6.9-41.3 4.3-48.3 8.8z"/><path fill="#FBD7C7" d="M141.5 142.8c-.4 3.3-1.6 26.2 0 32.2 1.6 6 2.2 8.8 2.6 11 .4 2.2 1.8 4.1 2.5 7.6s3.7 15.1 2.7 19.6c-.9 4.6-1.4 11.7-4.5 15.6-3 3.9-8 6.8-4.8 8 3.1 1.2 6.7.4 8.1-.5s5.2-6.5 8.4-7.7c3.1-1.2 6.3-2.9 6-6-.3-3.1-3.1-3.8-3.3-7.6-.1-3.8 4.5-14.3 3.1-21.3s-3.4-10.5-3.4-10.5l2.4-16.2s1.7 18.9 1.8 20.5c.1 1.6 1 4.7 1 4.7s-.3 8.1.3 12.7 3.8 13.2 2 20c-1.8 6.8-1.4 8-3.9 11.1s-7.2 5.6-3.8 7.3 7.3 2.5 9.9-1.8c2.6-4.3 5.5-5.9 6.9-7.2 1.4-1.3 1.8-2.2.8-6.3s-1-9.4.4-13.6c1.4-4.2 4.7-15.4 4.8-20.2.1-4.7-2.2-9.4-2.2-9.4s4.3-15.1 5.5-26.8c1.2-11.8 1-20.4-1-25.5-2-5.2-42.3 10.3-42.3 10.3z"/><path fill="#E5E5E5" d="M164.8 230.2s1.6 1.7 4.2 1.8c3 .1 6.1-1.6 6.6-2.9.7-1.7.3-4.3.3-4.3s2.8 2.3 2.8 5.1c0 2.5-1.8 5.5-1.9 6.5s.1 3.5.1 3.5l-1.8 1-3-1.4s-.9 2.9-2.9 4.4c-2 1.4-6.8 4.2-11.3 2.5-4.5-1.7-2-5.6-.9-6.9s5-4 6-5.9c1.2-2.3 1.8-3.4 1.8-3.4z"/><path fill="#E5E5E5" d="M147 223s2.4 2.4 5.2 2.3c2.1-.1 5.3-1.5 6.4-3.4.9-1.6 1.4-4.6 1.4-4.6s2.7 1.6 2.7 5.2c0 3.2-2.3 6.3-2.4 8.5s0 1.3 0 1.3l-2.4 1.2-2.4-1.2s.8-2.5 0-2-3.3 4.2-5.1 5.9c-1.8 1.7-5.8 4-9.4 2.9-3.6-1.1-3.4-4.8-1.3-6.6 1.8-1.6 4.1-2.8 5.4-5.2 1.2-2.3 1.9-4.3 1.9-4.3z"/><g opacity="0.4"><path d="M160.1 232.3c0 .4 0 0 0 0z"/><path d="M162.6 222.5v-.1c-.4 1.5-1.2 2.5-3.1 4-2.2 1.8-4 3.3-6.1 5.8-2.1 2.6-6 6-10.7 6-2.7 0-4.7-1.9-4.4-3.8-.6 1.8.1 3.8 2.6 4.6 3.6 1.1 7.7-1.2 9.4-2.9 1.8-1.7 4.3-5.4 5.1-5.9.8-.5 0 2 0 2l2.4 1.2 2.3-1.2c0-.2 0-.6.1-1.3.1-2.1 2.4-5.2 2.4-8.4z"/></g><path opacity="0.4" d="M169.3 243.9c2-1.4 2.9-4.4 2.9-4.4l3 1.4 1.8-1s-.2-2.5-.1-3.5c0-.9 1.5-3.3 1.8-5.7-.2.4-.4.8-.7 1.2-1.4 2.3-3.7 3.4-6.5 8.1-2.6 4.5-9.3 5.9-12 5.4-2.2-.4-3.7-1.3-4-2.7-.2 1.3.4 2.7 2.6 3.5 4.4 1.9 9.2-.9 11.2-2.3z"/><path fill="#06547A" d="M140.6 142.1c-.3 2.1-1.3 27.5-.3 33.8 2 12.5 5 17.6 6.7 29.8.3 2.5.6 7.7.6 7.7s5.5.6 8.1.4c4.2-.4 5.5-.8 5.5-.8s1.7-6.7 1.8-16.8c0-3.7-3.3-13.2-3.3-13.2l1.6-8.4-3-32.8c-9.5-.2-17.7.3-17.7.3z"/><path opacity="0.15" d="M140.6 142.1c-.3 2.1-1.3 27.5-.3 33.8 2 12.5 5 17.6 6.7 29.8.3 2.5.6 7.7.6 7.7s5.5.6 8.1.4c4.2-.4 5.5-.8 5.5-.8s1.7-6.7 1.8-16.8c0-3.7-3.3-13.2-3.3-13.2l1.6-8.4-3-32.8c-9.5-.2-17.7.3-17.7.3z"/><path fill="#06547A" d="M165.1 220s3.5 1.1 6.8.9c4.7-.3 7.7-1.9 7.7-1.9.1.7 1.9-14.1 2.6-21.6.5-5-1.2-9.8-.9-12.4.3-2.6 7.3-29.1 6.3-37.3-.6-4.8-43.1-31.6-40.5-5.5 1.1 11.1 7.4 12 9.8 16.4 3.6 6.6 3.9 12.4 4.2 16 .6 6.3 2.5 22.7 2.9 27s1.1 18.4 1.1 18.4z"/><path fill="#939" d="M143 109.3s-1.9 8.4-2.9 23.8c-.1 2.3 0 5.7-.1 9.7-.1 6.6 11.1 10.9 22.5 11.6 12.5.8 25.4-.6 25.8-6.8 1.1-14.8-9.3-28.5-10.6-34.3-1.3-5.8 6.7-8.6 6.7-8.6s-2-4.7-1.5-11.6-5.4-9.9-7.5-11.3c-1.7-1.2-17.3-8.4-19.8-9.1s-7.1-.9-8.2 3.5c-1.2 4.5 0 9.2-1.4 10.9-1.4 1.7-6.5 8.1-6.3 12.4.1 4.4 3.3 9.8 3.3 9.8z"/><path fill="#FBD7C7" d="M158 47.1c-5.3 3.5-5.8 10.8-5.6 15.8s.3 9.1 2.2 10.8c1.9 1.7 2.1 2.4 2.3 3.6s-5.7 5.7-.6 8c5.1 2.2 6.9-.3 10.9-2.1 4.3-1.9 7.6-1.6 7.6-1.6s-2.6-4.7-2.4-8.1c.2-3.3 1-5.8 2.6-9.3 1.6-3.5 4.2-12.7-1.1-16.4-5.2-3.5-12.3-3-15.9-.7z"/><path fill="#656565" d="M171.4 45.4s-3.4-4.2-10.2-2.1c-6.8 2.1-8.2 7.9-8.2 7.9l2.7-1.8-1.6 3.5 2.5-2.1s-1.1 2.6-1.1 2.5c0-.2 2.6-2.1 2.6-2.1s-1.8 4.6-1.8 4.4c.1-.2 6.5-6.2 6.5-6.2l-3.4 7.2 1.6-.5-1.5 7.3 1.5-2.5.3 5.7 1.8-6.2 1 4.3 1.1-4.1 1.4 6.8 1.3-3.5.9 3 1.8-4.5.4 1.8 1.5-2.7.2 1.6 1-.2-2 7.5 1.9-3.7-.6 6.3 3.1-7.2.3 1.6 1.6-6.7.3 3.2.6-4.9.9.9-.7-4.3 1 .6-1.9-3.6 1.3.5c0-.2-1.9-8-8.1-7.7z"/><path opacity="0.15" d="M170.9 102.4s-6.7 8.3-15.4 7.1c-9.2-1.3-2.7-14.5-2.7-14.5s-8 14.1-12.9 6.3c.9 4 3.2 8 3.2 8 1.8 1.2 3.2.9 5.6-2 1.8 12.4 21.9 6.1 24.9 3.3-.8-2.7-2.7-8.2-2.7-8.2z"/><path fill="#FBD7C7" d="M186.2 120.6c-.7-3.5-2.2-13.2-2.9-15.5l-10.7 2.5.2.6c1 2.6 3.3 14.4 3.5 15.3.2.9-2 3.3-3 5.6-2.7 6.1-3.3 13.9-3.7 15.5-.5 1.6-1.6 2.9-2.9 3.8-1.3.9-5.3 4.7-5.7 5.8-.3.7-1.3 4.8-.7 6.3.6 1.5 4.8 3 5.8 3s1-1.4 1-1.4-1.1-1.8-1.2-3.4c-.1-1.6 1.2-2.7 4.3-5 3.1-2.3 3.4-5.4 7-11.1 3.6-5.7 6.6-9.9 7.8-12.6 1.2-2.9 1.5-7.8 1.2-9.4z"/><path fill="#825012" d="M71.6 263s7.4 1.9 7.4 4.1v5.8c0 1.9-3.9 3.1-3.9 5 0 2.4 4.8 3.9 6 3.5 1.3-.4 2.1-1 2.1-3.3S84 266 84.3 263c.3-3-.9-12.3-.9-12.3L71.6 263z"/><path opacity="0.2" d="M71.6 263s7.4 1.9 7.4 4.1v5.8c0 1.9-3.9 3.1-3.9 5 0 2.4 4.8 3.9 6 3.5 1.3-.4 2.1-1 2.1-3.3S84 266 84.3 263c.3-3-.9-12.3-.9-12.3L71.6 263z"/><path fill="#825012" d="M16 232.8c1.4-.5 6.6-2.3 6.7-3.3.1-1 0-2.6 1.2-3.1 1.2-.6 2.3-3.5 3.9-3.8s2.3.1 5.2 1c2.9.9 6.4 2.8 8.6 4.4 2.3 1.7 3.4 3.3 4.9 5.6s2 2.9 1.8 3.5c-.2.6-.7.3-.3 1.2.5 1.4.8 3.1 2.5 3.5 5.9 1.6 19.6-8 23.1-9.1 8.4-2.7 16.6 1.5 20.8 5 2.8 2.3 5.4 8.4 7.4 12.4s5.6 4.5 5.2 6.2c-.2.7-1.2 1.3-3.4.4-2.7-1.1-8.8-7.8-8.8-7.8s.8 2.5-.4 5.8c-1.2 3.3-3.1 8.8-1.5 10.6 1.7 1.8 3.9 3.7 4.1 5.6.2 1.9 1 15.2 1 15.8s-.4 1.9-1.7 2.3c-3.8 1.2-8.4-1.4-7.8-3.7.7-2.4 3.3-1.8 3.3-5.2 0-1.3-.3-5-.6-5.7-.3-1-1.4-2-2.7-2.5-1.1-.4-6.1-3.1-7.1-6.3s-1.5-6.6-3.1-6.9c-1.6-.2-7.3 9.1-12 12.3s-7.9 3.4-7.9 3.4-.9 15.5-.9 18.5 2.1 6.2 2.5 8.1c.4 2.1.8 5.6-1.8 7.3-3.1 2-7 .1-7.9-.9-.8-1-1-3.1.3-4.3 1.3-1.2 2.7-2.3 2.3-2.8-.4-.6-2.1-3.4-2.4-5.2-.4-2.7-.8-14.3-4.1-16.4-1-.6-3.4-.9-4.1.1-.6 1-.6 7.2-.6 8.3 0 1.6 2.3 5 2.3 7.7s-1 4.2-3.4 5.1c-1.9.6-4.5.2-6.4-2.3-1.2-1.6-.3-3.3 1-4.1.8-.5 1.9-.7 2-1.8s-1.5-2.7-1.5-4.7-.8-10-.8-11c0-3.2-5.4-6.3-7.3-13-1-3.3-.2-7-.5-9.8-.2-1.7-.5-9.2-3.7-9.9-1.2-.3-6.3-.2-7.8-1.8-1.1-1.2-1.7-2.7-1.4-4.6.8-1.7 1.8-4.1 1.8-4.1z"/><path fill="#262626" d="M32.4 234.7s-.6-1.6-2-2.4c-1.3-.8-2.7.7-1 2 1.5 1.2 3 .4 3 .4z"/><path fill="#262626" d="M19.4 235.1c.2-1.5-.8-2.2-2.8-2.7-1.2-.2-2.5.4-2.5 1.9 0 2.1 1.8 3.7 1.8 3.7s3.2 0 3.5-2.9z"/><path fill="#262626" d="M22.9 228s1 .5.3 1.3c-.8.9-.3-1.3-.3-1.3z"/><path fill="#262626" d="M166.7 159.5l-6.8-1.5c-.3-.1-.5-.4-.5-.7.1-.3.4-.5.7-.4l4.7 1.1-4.8-2c-.3-.1-.5-.5-.3-.8.1-.3.5-.4.8-.3l6.6 2.7-.4 1.9z"/><path fill="#262626" d="M49.1 241.2c-.2 0-.4-.1-.5-.3-.2-.3-.1-.6.2-.8l117.1-81.8c.3-.2.6-.1.8.1.2.3.1.6-.2.8L49.4 241.1c-.1.1-.2.1-.3.1z"/><path fill="#262626" d="M26.8 248.6s2.4 1.3 6.1 1.4c3.7 0 7-1.5 8.8-3.3 1.8-1.8 6.7-7.1 6.7-7.1l1.7 1.8s-5.8 7.4-8.3 8.9-5.2 2.8-9 2.7-5.5-1.2-5.5-1.2l-.5-3.2z"/><path opacity="0.2" d="M36.9 233.2s-4.1 15.3.6 15.2c2.4-.1 10.2-10.9 10.2-10.9s-4.6 13.7-11.1 13.7c-6.4.1.3-18 .3-18z"/><metadata><rdf:RDF xmlns:rdf="http://www.w3.org/1999/02/22-rdf-syntax-ns#" xmlns:rdfs="http://www.w3.org/2000/01/rdf-schema#" xmlns:dc="http://purl.org/dc/elements/1.1/"><rdf:Description about="https://iconscout.com/legal#licenses" dc:title="people" dc:description="people" dc:publisher="Iconscout" dc:date="2017-09-20" dc:format="image/svg+xml" dc:language="en"><dc:creator><rdf:Bag><rdf:li>Icograms</rdf:li></rdf:Bag></dc:creator></rdf:Description></rdf:RDF></metadata></svg>