<?xml version="1.0" encoding="UTF-8"?><svg xmlns="http://www.w3.org/2000/svg" xmlns:xlink="http://www.w3.org/1999/xlink" version="1.1" id="Layer_1" x="0px" y="0px" viewBox="0 0 160 240" xml:space="preserve"><path opacity="0.2" d="M70.1 231.2c17.2-9.6 4.2-17-11.8-24.6-17.8-8.5-24.9-11.7-40.5-1.6-9.5 6.1-2.4 15.9 13.8 23.5 18.4 8.6 26.3 9.6 38.5 2.7z"/><path fill="#262626" d="M18.1 214.5c0 2.1-.1 5.9 3.8 5.9s5.9-2.9 6.2-3.8c.3-1-.1-3 1.3-3.8 1.3-.8 6.3-2.5 6.6-7.1.4-4.9-1.8-5-3.5-5s-5.9.3-5.9.3l-8.5 13.5z"/><path opacity="0.5" d="M34.5 201c1.2 1.5 1 3.9.1 5.7-1.9 3.6-6.4 3.1-6.8 5.2-.4 2.1-2.7 5.6-5.4 6-2 .3-3.2-.3-4.2-1.2.2 1.8 1 3.6 3.8 3.6 4 0 5.9-2.9 6.2-3.8.3-1-.1-3 1.3-3.8 1.3-.8 6.3-2.5 6.6-7.1.2-2.9-.6-4.1-1.6-4.6z"/><path fill="#656565" d="M17.5 126.6c-.3 6 1.4 21.3 1.2 32.8-.2 11.5-2.8 43.8-2.5 47.6.3 3.8-.3 8.8 3.8 9.6 3.2.6 7.4-1.8 9-4.3 1.6-2.5 2.6-6.2 2.7-10.5.1-4.3 9.4-58.4 9.5-60.6.1-2.2-1-13.8-1-13.8l-22.7-.8z"/><path opacity="0.3" d="M17.5 126.6c-.3 6 1.4 21.3 1.2 32.8-.2 11.5-2.8 43.8-2.5 47.6.3 3.8-.3 8.8 3.8 9.6 3.2.6 7.4-1.8 9-4.3 1.6-2.5 2.6-6.2 2.7-10.5.1-4.3 9.4-58.4 9.5-60.6.1-2.2-1-13.8-1-13.8l-22.7-.8z"/><path fill="#FBD7C7" d="M46.4 28.7c2.5 1 4.3 3.8 4.7 10.3.4 6.5 0 11.6-1.5 12.3-1.5.7-2.5.4-2.5.4l1.1 7.1L31.4 54s.3-3.9-.6-6.4c-.9-2.4-3.5-11.2-.8-15.2s8.3-6.8 16.4-3.7z"/><path fill="#FBD7C7" d="M6.7 114.9s-.8 7-.5 8.7c.3 1.7 3.5 9.6 5.3 10 1.8.4 3.6-1 3.4-2.3-.2-1.2-2-3.3-2.1-5.4-.2-2.1-.1-5.3.8-5.7.9-.5 2.9 2 3.8 3.1.9 1.1 2.5.7 2.5-.2 0-.8-1.9-2.6-2.3-4.1-.4-1.5-1.2-2.7-2.3-4-1.1-1.4-1.5-2.3-1.5-2.3l-7.1 2.2z"/><path fill="#FFF" d="M5.4 112.8s-.6 3.1.5 3.8c.9.5 4.5 1.2 6.8.3 2-.8 3.1-1.5 3.2-2.2.1-.7-.8-2-.8-2l-9.7.1z"/><path fill="#262626" d="M45.2 225.2v4.1c0 .8.1 2.9 4.3 2.6s6.4-1.2 6.6-1.5.7-1.1.7-1.1 7.2.6 12.4-1.6c5.4-2.3 8.6-7.3 4-9.4-2.8-1.3-4.4.3-8.6-.2-4.5-.5-7.1-2.7-7.1-2.7l-12.3 9.8z"/><path opacity="0.5" d="M69.2 227.6c5.4-2.3 8.6-7.3 4-9.4 4.8 4.5-4.5 8.7-8.6 9-2.7.2-8.6.5-12.4 1.3-3.1.6-6.2.4-7.1-.8v1.7c0 .8.1 2.9 4.3 2.6 4.3-.3 6.4-1.2 6.6-1.5.2-.3.7-1.1.7-1.1s7.3.4 12.5-1.8z"/><path fill="#656565" d="M34.5 129.6c-.4 6.2 2.3 19.4 3.4 26.8s2.9 38.7 3.7 46.5c.6 6.3 2.7 23.4 3.9 24.3 1.2.9 9.6-.3 13.1-2.6 2.3-1.6 4.9-4.7 4.5-6.8-.4-2.1-3.1-4.1-3.5-14.9-.3-10.8.9-30.2.6-44.9-.3-14.8-1-31.5-1-31.5l-24.7 3.1z"/><path opacity="0.15" d="M34.5 129.6c-.4 6.2 2.3 19.4 3.4 26.8s2.9 38.7 3.7 46.5c.6 6.3 2.7 23.4 3.9 24.3 1.2.9 9.6-.3 13.1-2.6 2.3-1.6 4.9-4.7 4.5-6.8-.4-2.1-3.1-4.1-3.5-14.9-.3-10.8.9-30.2.6-44.9-.3-14.8-1-31.5-1-31.5l-24.7 3.1z"/><path fill="#656565" d="M13.8 57.2c-1.2 1.4-2 5.5-2.3 7.6-.3 2.1-5.7 19.3-6.6 22.7-.9 3.3-.9 9.1-.6 14.4.2 5.3.2 11.7.3 12.6.1 1 4 2 6.9 1.6 2.9-.4 4.6-1.2 4.9-3.6s1.8-13.9 3.8-18.1c2-4.2 4.9-11.7 4.9-11.7L13.8 57.2z"/><path opacity="0.15" d="M13.8 57.2c-1.2 1.4-2 5.5-2.3 7.6-.3 2.1-5.7 19.3-6.6 22.7-.9 3.3-.9 9.1-.6 14.4.2 5.3.2 11.7.3 12.6.1 1 4 2 6.9 1.6 2.9-.4 4.6-1.2 4.9-3.6s1.8-13.9 3.8-18.1c2-4.2 4.9-11.7 4.9-11.7L13.8 57.2z"/><path fill="#FBD7C7" d="M66.9 104.5l.1 8.8s4.1 1.1 7.1-.5 5.2-4.7 5.2-5.8c0-1.1-.3-2.4-1.3-2.4-1.1 0-2 1.6-3.2.3s-.4-2.2.6-2.9c.9-.7 1.3-2.5-.8-2.3-1 .1-1.9.8-2.5 1.3-.9.8-1.8 1.8-3 2.8-1.3 1.1-2.2.7-2.2.7z"/><path fill="#656565" d="M31.4 50.5l-3.6.8.1.9s-5.5-.7-9.4 1.4c-4 2.1-6.1 4-5.6 7.3.6 3.4 3.9 15.1 6.1 21.1 2.2 6 3.5 9.3 2.9 14.2s-7.1 27.7-6.7 31.2 5.8 6.1 12.5 7.9c6.9 1.8 31.9 3.2 32.4-1.9.5-5 .5-18.9.5-18.9s7.1 1.3 8.4-.4c1.3-1.7 2.8-4.5 1.2-7.9-1.5-3.4-2.1-3.5-3.1-3.8s-5.5-1-6.8-2.7C59 98.1 60 91.9 60 84s.3-13.6-3.2-17.3C53.3 63 49.3 57.8 46 56.6c-4.4-1.4-15.3-1.1-14.6-6.1z"/><path opacity="0.2" d="M28.7 51.2s.1 5.2 7.4 6.1c6.9.9 19 8.5 19 8.5s-13-7.3-18.9-7.8c-8.8-.7-8.4-6.8-8.4-6.8h.9z"/><path fill="#762C07" d="M44.9 44c.1.8 1-1.3 1.7-3.1.7-1.9 2-4.3 2.7-7 .7-2.7 1.3-1.7 1.4-2.9.1-1.2-5.7-8.9-16.3-5.2s-8 16-7.1 19.4c1 3.4 4.1 7.3 7.1 7.3 3-.1 6.5-2.4 6.8-6.8.4-4.3 3.6-3.5 3.7-1.7z"/><g><path fill="#FBD7C7" d="M98.1 68.9S94.9 79.7 92.2 88s-4.4 13.8-5.3 15.9c-.9 2.1-1.3 5.7-.8 7.3.5 1.6 2.3 5 3 5.7 1.7 1.6 4.4 1.2 4.8.8s.4-2.2-.3-2.9c-.7-.7-2.6-3-1.4-6 1.2-2.9 1-4.2 1-6 0-1.5-.5-1.7.7-4.1s6.9-14.5 7.5-16.2c.5-1.7-3.3-13.6-3.3-13.6z"/><path fill="#06547A" d="M96.3 78.1c-1.5-8.3-1-3.9-2.1-7.8 0-.1-.8-.3-.7 0 .6 3.4.3 8-1.5 12.7-2.1 5.7-6 16-5.5 16.4 1.4 1.6 8.4 2 8.4 2l.8-2.5 1.4-8.4c0-.2.7-4.1-.8-12.4z"/><path opacity="0.15" d="M96.3 78.1c-1.5-8.3-1-3.9-2.1-7.8 0-.1-.8-.3-.7 0 .6 3.4.3 8-1.5 12.7-2.1 5.7-6 16-5.5 16.4 1.4 1.6 8.4 2 8.4 2l.8-2.5 1.4-8.4c0-.2.7-4.1-.8-12.4z"/><path opacity="0.2" d="M94 192.9c-11.8 7.6-12.4 14.4 0 21 13.5 7.2 22.4 3.3 32.9-2.7s11.8-13.4-3.6-19.6c-12.5-5-20.4-4.4-29.3 1.3z"/><path fill="#FBD7C7" d="M112 41.3s-9.1-4-12.3.3-1.7 11-1.7 11-5.4 6.1-5.4 9.4 5.1 6.5 5.1 6.5-.1 17.5-1 24-3 21.6-2.4 32.2c.7 10.6 1.6 25 1.9 29.2.3 4.1 2.2 10 3 14.8.9 4.8 4.1 13.2.9 19.6-3.2 6.5-6.1 9.3-7.4 10.5s.2 5.2 3 4.5c2.8-.7 7.2-7.1 9.9-8.1 2.7-1.1 7.2-4 6-7.7s-1.7-2.2-2-5.3c-.3-3.1 2.2-16.7 1.3-22.8-.9-6.1-3.2-7.8-3.6-8.8-.4-1.1 5.7-29.5 5.7-29.5s1.2 27.3 1.1 30.2 2.1 17.7 2.7 24.6 1 18.8-2 22.9c-2.9 4.1-8 10.3-6 11.7s8.3 2.7 9.8-.9 5.3-11.1 6.7-13.1 1.9-3.1 1-5c-.9-1.9-1.5-5-.5-10.3 1-5.3 4.1-14.7 3.3-19.7-.8-5-3.2-8.1-2.9-11.7.3-3.5 8.1-24.8 6.6-39.7s-9-17.5-10.3-23.5c-1.3-6 3-13.9 5.2-18.2 2.2-4.2 5.3-11.6 2.6-14.2-2.7-2.7-5.9-4.4-7.1-6.4s-2.5-8.2-2.5-8.2l-8.7 1.7z"/><path fill="#06547A" d="M94.7 197s-4.9 1.7-5.9 3.9c-.8 1.8-.5 3.9 1.2 5 1.8 1 5.2 1.3 8.2-.4 2.9-1.7 6.8-8.4 7.5-8.7.7-.3.2 3.7.2 3.7l2.1 1.1 2.3-.9s-.2-4.5.7-6c.9-1.6 2.6-3.9 2-6.9-.7-3-2.6-3.3-2.6-3.3s0 3.5-4 7.3c-3.8 3.6-5.9 9.6-9.2 9.3-4.6-.7-2.5-4.1-2.5-4.1z"/><path fill="#06547A" d="M111.5 203.8s-4.6 3.5-4.9 5.7c-.3 2.2-.2 3.7 2.9 4.7s7.1-.2 9-1.8c1.8-1.6 4.4-5.8 4.4-5.8l2 1.1 2.3-1.1s-.3-2.7.4-5.1c.7-2.4 1.4-4.4 1.4-7.4s-2.8-3.3-2.8-3.3 1.7 1.6-.8 5.1-4.4 11.3-8.1 11.5c-7 .4-5.8-3.6-5.8-3.6z"/><path fill="#262626" d="M95.6 96.6s-2.4 13.8-2.4 23.7 1.9 34.9 1.9 34.9 13.3 3.6 21.5 2.8c9.8-.9 13.2-2.2 13.2-2.2s4.3-23.1 4.7-32.3c.6-13.3-2.9-26.8-5.7-30.3-2.8-3.6-33.2 3.4-33.2 3.4z"/><path fill="#FBD7C7" d="M118.5 63.2s7 8.7 10.5 13.2 7.1 9.3 7.1 9.3-5.9 3.2-9.7 7.4c-3.8 4.2-6.7 7.6-7.7 7.8-1 .2-5.3-.1-8.8 1.8-3 1.6-4.1 2.9-4.4 5s.4 3.8 1.7 4.8c1.3 1 3.1.6 3.7.3 1.5-.8 1.8-2.5 3.2-3.3 1.8-1 4.5-1.1 6.3-2.3 1.7-1.3 20.7-13.4 23-16s3.4-5.6.7-9.4c-2.7-3.9-11.1-17.6-13.3-22-2.2-4.3-4.9-8.8-9.5-8.8-4.5-.2-7.9 6.9-2.8 12.2z"/><path fill="#06547A" d="M146.3 85.5c-1.5-3.6-8.4-18.7-10-22.1s-3.4-8.4-6.3-11.2c-2.8-2.7-6.5-5.4-7.8-6.5-1.3-1.1-13.4-5.3-13.4-5.3-3.9-1-8.6-2-11 2.5s-1 8.3-1 8.3-5.4 5.9-5.5 9.9c-.1 3.7 2.5 7.9 3.9 18.2 1.2 8.3.2 18.1.2 18.1h.1c.5.1 6.7 1.9 12.2 1.8 7.2-.2 10.1-2.3 10.1-2.3s-1.4 3.8.9 7.7c2.3 3.8 5.2 3.8 6 3.3s14.5-10.2 17.7-13c3.3-2.7 5.4-5.8 3.9-9.4zm-16.2 2.8c-2.6 1.6-4.9 3-4.9 3s-1.6-5.5-1.8-9.4C123.2 78 126 73 126 73s3 3.8 4.1 5.4c1.7 2.4 4.3 7.3 4.3 7.3s-2.3 1.4-4.3 2.6z"/><path fill="#FBD7C7" d="M107.2 40.5s-7.1 11.2-2.1 13.7c5 2.6 15.6-5.9 15.6-5.9l-7.8-8.7-5.7.9z"/><path fill="#FFF" d="M104.4 45s-1 6.5 2.1 7.9c3 1.4 9.2-.4 9.2-.4L96.3 65.7s.1-9.1 1.9-12.3c1.7-3.1 6.2-8.4 6.2-8.4z"/><path fill="#262626" d="M109.6 40.3s-8.2 8.6-10.1 13.7-2 10.8-1 21.1c.9 8.6 1 23.3 1 23.3l-1.4-.2s.4-20.3-3-33.6c-1.5-6.1-.7-12.7-.7-12.7l4.3-4.2 4.2-8.4 6.7 1z"/><path fill="#FBD7C7" d="M109.5 41.6s-4.3.7-4.9-.9c-.7-1.7-4.4-15.5 2.4-24.1 6.8-8.5 20.5-3.1 20.5 6 0 8.1-3.2 10.5-4.7 14.5-.9 2.5-1.6 5.8-.1 8.4 1.5 2.7 2.7 4 2.7 4s-7.6 4.6-13.3 3.2c-5.7-1.4-.2-4.2-1-6.6-.7-2.1-1.6-4.5-1.6-4.5z"/><path fill="#825012" d="M104.7 22.9s-.6 6.7 3.7 10.7c.2-3.2.9-4.6.9-4.6s1.7 5.8 4.2 5.8c-1-2.9-.7-4.7-.7-4.7s1 1.7 2.1 1.5c-.2-1.8.5-2.8.5-2.8s1 4.8 1 10.9c4.8-2.2 6.9-9.4 6.9-9.4s.1 5.5-1.8 10.5c2.7.3 11-6.8 10.4-17.9-.5-8.6-9-11.7-9-11.7l2.3-.3s-7.6-4-15.4-.1c-8.9 4.5-8 17-7.5 17.2 1-4.4 2.4-5.1 2.4-5.1z"/><path fill="#262626" d="M123.3 46.5s-10.3 6.3-14.8 9.4C104 59 96 65.9 96 65.9l18.8-7.9 2.9-5 4-.6 6.1-3.1-4.5-2.8z"/><path fill="none" d="M126 72.9s-2.7 5-2.6 8.9c.2 3.9 1.8 9.4 1.8 9.4s2.3-1.3 4.9-3c2-1.3 4.3-2.7 4.3-2.7s-2.6-4.9-4.3-7.3c-1.1-1.5-4.1-5.3-4.1-5.3z"/></g><metadata><rdf:RDF xmlns:rdf="http://www.w3.org/1999/02/22-rdf-syntax-ns#" xmlns:rdfs="http://www.w3.org/2000/01/rdf-schema#" xmlns:dc="http://purl.org/dc/elements/1.1/"><rdf:Description about="https://iconscout.com/legal#licenses" dc:title="people" dc:description="people" dc:publisher="Iconscout" dc:date="2017-09-20" dc:format="image/svg+xml" dc:language="en"><dc:creator><rdf:Bag><rdf:li>Icograms</rdf:li></rdf:Bag></dc:creator></rdf:Description></rdf:RDF></metadata></svg>