<?xml version="1.0" encoding="UTF-8"?><svg xmlns="http://www.w3.org/2000/svg" xmlns:xlink="http://www.w3.org/1999/xlink" version="1.1" id="Layer_1" x="0px" y="0px" viewBox="0 0 160 240" xml:space="preserve"><path opacity="0.2" d="M127.6 220.9c17.2-9.6 4.2-17-11.8-24.6-17.8-8.5-24.2-10.6-40.5-1.6-13.9 7.6-1.6 14.9 14.6 22.5 18.5 8.6 25.6 10.6 37.7 3.7z"/><path fill="#262626" d="M86.9 192.6c-3.4 2.5-6.8 4-9.8 5.6-3 1.6-4.5 3.1-4.1 4.5.3 1.5 3 3.2 7.6 3s12-4.4 13.4-4.5c1.4-.1 1.1.8 2.1.8s6.4-1 7-1.7c.6-.7-.1-5.7-.1-5.7l-16.1-2z"/><path opacity="0.5" d="M103.1 200.3c.3-.4.3-1.8.2-3.1-1.3 1.2-3.5 1.9-5.7 2-2.6.1-5.7.6-9.3 2.9-3.6 2.3-16 4.2-14.6-1.4-.6.7-.9 1.4-.7 2.1.3 1.5 3 3.2 7.6 3 4.6-.2 12-4.4 13.4-4.5 1.4-.1 1.1.8 2.1.8 1-.1 6.4-1.1 7-1.8z"/><path fill="#656565" d="M89.1 114c-.9 6.6-1.3 29.8-.4 40.3.8 10.6.7 25.9-.1 31.2-.6 3.9-2.5 6-2 7.4.5 1.5 5 4.6 10.2 5.2 5.1.6 7.2-.2 7.9-2.2.6-2 2.8-23.5 3.5-37 .6-12 1.7-45.1 1.7-45.1H89.1z"/><path opacity="0.3" d="M89.1 114c-.9 6.6-1.3 29.8-.4 40.3.8 10.6.7 25.9-.1 31.2-.6 3.9-2.5 6-2 7.4.5 1.5 5 4.6 10.2 5.2 5.1.6 7.2-.2 7.9-2.2.6-2 2.8-23.5 3.5-37 .6-12 1.7-45.1 1.7-45.1H89.1z"/><path fill="#262626" d="M117.9 204.6c-.8 2.3-4.3 8-5 9.4-.8 1.4-2.3 3.3-1.3 4.7 1 1.5 5.7 3.3 10.4 1 4.7-2.2 5.5-7.7 5.5-7.7h.8s1-2.3 1-3.9-.3-2.6-.3-2.6l-11.1-.9z"/><path opacity="0.5" d="M127.5 212.1h.8s1-2.3 1-3.9-.3-2.6-.3-2.6h-.1c-.1.2-.1.4-.1.6-.2 1.3-2.5 8.3-3.8 10-3.4 4.4-12.6 5.4-13.5.3-.3.8-.4 1.6.1 2.2 1 1.5 5.7 3.3 10.4 1 4.7-2.2 5.5-7.6 5.5-7.6z"/><path fill="#656565" d="M101 114.7c.1 4.3 4.5 9.3 5.8 15.4 1.3 6.1 5.3 36.3 6.3 45.2 1.5 12.9 2.8 31.7 3.2 31.9.4.1 3.7-1.9 6.9-.2s6.8 1 7.9.2c1-.8.6-9.4.2-14.6-.3-5.1-1.9-43.6-1.8-48.8.1-5.2 1.8-19.3 1.4-22.6-.4-3.4-2.3-7.3-2.3-7.3l-27.6.8z"/><path opacity="0.15" d="M101 114.7c.1 4.3 4.5 9.3 5.8 15.4 1.3 6.1 5.3 36.3 6.3 45.2 1.5 12.9 2.8 31.7 3.2 31.9.4.1 3.7-1.9 6.9-.2s6.8 1 7.9.2c1-.8.6-9.4.2-14.6-.3-5.1-1.9-43.6-1.8-48.8.1-5.2 1.8-19.3 1.4-22.6-.4-3.4-2.3-7.3-2.3-7.3l-27.6.8z"/><path fill="#656565" d="M90.8 67.4c-2.5 4-5.1 10.3-6.6 14.5-1.5 4.2-5.4 11.7-5.7 12.7-.2.9-.1 4.6 3.4 5.7s5.2 1.8 5.8.9c.5-.8 4.2-5 4.2-5l-1.1-28.8z"/><path opacity="0.15" d="M90.8 67.4c-2.5 4-5.1 10.3-6.6 14.5-1.5 4.2-5.4 11.7-5.7 12.7-.2.9-.1 4.6 3.4 5.7s5.2 1.8 5.8.9c.5-.8 4.2-5 4.2-5l-1.1-28.8z"/><path fill="#FFF" d="M103.6 39.7c-2 1.6-10.2 13.3-10.6 27.7s3.2 21.1 3.2 21.1 10.9-29.1 16.9-35.5c6-6.4 5.6-11.5 5.6-11.5s-3.8-2.6-7.9-2.9-7.2 1.1-7.2 1.1z"/><path opacity="0.2" d="M103.3 49.7l2.3 6.4 6.4-4.3-6.8 6L103 50l-1-.2-3.8 4.3v-3.8c0 .3.3 1.9.3 1.9l3.5-3.4 1.3.9z"/><path fill="#28896D" d="M100.4 54.3l-.1-3.8 1.5-1.6 1.5.7 1 2.7-2.3 2.3S99.9 72.7 99.7 75s-3.1 13-3.1 13-4.5-12.5-4.3-12.7c.1-.3 8.1-21 8.1-21z"/><path fill="#FBD7C7" d="M136.6 122.9c-.3 1-.2 2-2 3.2-1.7 1.3-3.1 3.6-3.5 5.2-.4 1.6-1.7 3.5-1.9 4.7-.1 1.2.8 2 1.8 1.1 1-.8 2.9-4.5 3.9-4.8 1-.3 1.3 2.9 1.4 4 .1 1-1.5 3-2.2 4-.8 1-.1 1.9 1 1.6s5.9-2.9 7.1-7.9c1.3-5 .7-12 .7-12l-6.3.9z"/><path fill="#FFF" d="M134.4 122.2l-.1 2s3.8.9 6.9.6c3.1-.3 3.8-1 3.8-1l-.3-3-10.3 1.4z"/><path fill="#656565" d="M107.3 38.8c-2.1.3-9.2-2-13.2 4.1s-4.7 12.6-4.9 18.3-1.2 43-1.2 49.5c0 6.6.1 9.5 3 10.4 3.4 1.1 5.9-1.9 6-3.8.1-2-.3-30.7-.3-30.7s-5.1-12-1.8-25.8 8.5-18.4 8.5-18.4l4.1-3.5-.2-.1z"/><path fill="#656565" d="M117.5 40.4s4 3.3 6.2 5.1c2.2 1.8 11.9 10.5 12.9 11.7 1 1.2 2.2 2.4 2.2 5.7s.4 8.4 1.7 11.9c4.1 10.6 4.3 15.2 4.6 19.8s.9 26.6.9 26.6-1.3 1.2-6.4 1.8c-5.2.6-6.4-.1-6.4-.1s-1.5-14.2-2.3-19.3c-1.3-7.8-5-16.1-5-16.1s-.6 3.5-.3 5.6c.3 2.1 4.1 19.3 4.9 22.1.8 2.7 1.7 6.1 1.7 6.1s-4.2 6.6-15.6 6.1-18.2-4-19.6-11c-1.4-7-1.7-24.5.1-34.3s9.7-25.6 14.9-31.4 5.5-10.3 5.5-10.3z"/><path opacity="0.2" d="M97.5 86.7s3.5-8.9 8.9-16.5c3.8-5.2 7.8-8.6 7.8-8.6l-.3-3.4 4.1-1.5 2.5-13.7.5.5-1.7 14.1-4.6 1 1 3.5s-5.4 4.7-9 9.2c-3.9 4.8-9.2 15.4-9.2 15.4z"/><path fill="#FBD7C7" d="M101.8 18.8c-3.8 2.8-4 10.3-3.9 15.4.1 5.1.7 9.3 1.5 9.7.8.4 2.4.6 2.4.6s-.1 4.9 1.1 5.1c1.2.3 7.8-2.8 10.9-6 3.1-3.1 3.5-3.8 3.5-3.8s4.3-7.9 3.6-14.1c-.9-6.2-8.5-14.6-19.1-6.9z"/><path fill="#762C07" d="M98.5 21.9c-.6 1 1.5.8 4.5 5.4 3.1 4.6 6.6 2.6 7.6 2.6.3 2.5 2.4 2.1 4.3 4.3 0 0 .7-2.5 2.1-2.6 1.4-.1.9 4.2.9 4.2s.2 1.7 1.2 2c1 .3 4.7-8.8 2.8-14.7-2.9-9.4-16.5-12.7-23.4-1.2z"/><path fill="#FFF" d="M79.4 95c.5-.5 3.6-.4 5.3 1.3 1.7 1.7 2.2 3.6 1.9 4.1-.2.4-2.4.2-4.9-1.5-2.4-1.7-2.8-3.2-2.3-3.9z"/><path fill="#FBD7C7" d="M80 95.4c1.2-.4 3.1.1 4.3 1.3 1.2 1.1 1.7 2.2 1.6 3s-1 2.7-1.2 3.6c-.2.8-2.7 4.2-3.5 5.3-.7 1.2-1.6 1.7-1.8 3.5-.2 1.8-.8 2.7-2.1 2.8-1.3.1-6.1-2.9-5.2-7.2.9-4.2 2.6-6.7 3.6-8.1.5-.7 2.6-1.8 3.3-2.3.8-.6.5-1.7 1-1.9z"/><g><path opacity="0.2" d="M73.6 231c17.2-9.6 4.2-17-11.8-24.6-17.8-8.5-24.9-11.7-40.5-1.6-9.5 6.1-2.4 15.9 13.8 23.5 18.4 8.6 26.3 9.5 38.5 2.7z"/><path fill="#262626" d="M21.6 214.3c0 2.1-.1 5.9 3.8 5.9s5.9-2.9 6.2-3.8c.3-1-.1-3 1.3-3.8 1.3-.8 6.3-2.5 6.6-7.1.4-4.9-1.8-5-3.5-5s-5.9.3-5.9.3l-8.5 13.5z"/><path opacity="0.5" d="M38 200.8c1.2 1.5 1 3.9.1 5.7-1.9 3.6-6.4 3.1-6.8 5.2-.4 2.1-2.7 5.6-5.4 6-2 .3-3.2-.3-4.2-1.2.2 1.8 1 3.6 3.8 3.6 4 0 5.9-2.9 6.2-3.8.3-1-.1-3 1.3-3.8 1.3-.8 6.3-2.5 6.6-7.1.2-3-.6-4.1-1.6-4.6z"/><path fill="#06547A" d="M21 126.3c-.3 6 1.4 21.3 1.2 32.8-.2 11.5-2.8 43.8-2.5 47.6.3 3.8-.3 8.8 3.8 9.6 3.2.6 7.4-1.8 9-4.3 1.6-2.5 2.6-6.2 2.7-10.5.1-4.3 9.4-58.4 9.5-60.6.1-2.2-1-13.8-1-13.8l-22.7-.8z"/><path opacity="0.3" d="M21 126.3c-.3 6 1.4 21.3 1.2 32.8-.2 11.5-2.8 43.8-2.5 47.6.3 3.8-.3 8.8 3.8 9.6 3.2.6 7.4-1.8 9-4.3 1.6-2.5 2.6-6.2 2.7-10.5.1-4.3 9.4-58.4 9.5-60.6.1-2.2-1-13.8-1-13.8l-22.7-.8z"/><path fill="#FBD7C7" d="M49.9 28.4c2.5 1 4.3 3.8 4.7 10.3.4 6.5 0 11.6-1.5 12.3-1.5.7-2.5.4-2.5.4l1.1 7.1-16.8-4.7s.3-3.9-.6-6.4-3.5-11.2-.8-15.2c2.8-4 8.4-6.8 16.4-3.8z"/><path fill="#FBD7C7" d="M10.2 114.6s-.8 7-.5 8.7c.3 1.7 3.5 9.6 5.3 10 1.8.4 3.6-1 3.4-2.3-.2-1.2-2-3.3-2.1-5.4s-.1-5.3.8-5.7c.9-.5 2.9 2 3.8 3.1.9 1.1 2.5.7 2.5-.2 0-.8-1.9-2.6-2.3-4.1-.4-1.5-1.2-2.7-2.3-4-1.1-1.4-1.5-2.3-1.5-2.3l-7.1 2.2z"/><path fill="#FFF" d="M9 112.5s-.6 3.1.5 3.8c.9.5 4.5 1.2 6.8.3 2-.8 3.1-1.5 3.2-2.2.1-.7-.8-2-.8-2l-9.7.1z"/><path fill="#262626" d="M48.7 225v4.1c0 .8.1 2.9 4.3 2.6s6.4-1.2 6.6-1.5c.2-.3.7-1.1.7-1.1s7.2.6 12.4-1.6c5.4-2.3 8.6-7.3 4-9.4-2.8-1.3-4.4.3-8.6-.2-4.5-.5-7.1-2.7-7.1-2.7L48.7 225z"/><path opacity="0.5" d="M72.8 227.4c5.4-2.3 8.6-7.3 4-9.4 4.8 4.5-4.5 8.7-8.6 9-2.7.2-8.6.5-12.4 1.3-3.1.6-6.2.4-7.1-.8v1.7c0 .8.1 2.9 4.3 2.6 4.3-.3 6.4-1.2 6.6-1.5.2-.3.7-1.1.7-1.1s7.3.3 12.5-1.8z"/><path fill="#06547A" d="M38.1 129.4c-.4 6.2 2.3 19.4 3.4 26.8 1 7.4 2.9 38.7 3.7 46.5.6 6.3 2.7 23.4 3.9 24.3 1.2.9 9.6-.3 13.1-2.6 2.3-1.6 4.9-4.7 4.5-6.8-.4-2.1-3.1-4.1-3.5-14.9-.3-10.8.9-30.2.6-44.9-.3-14.8-1-31.5-1-31.5l-24.7 3.1z"/><path opacity="0.15" d="M38.1 129.4c-.4 6.2 2.3 19.4 3.4 26.8 1 7.4 2.9 38.7 3.7 46.5.6 6.3 2.7 23.4 3.9 24.3 1.2.9 9.6-.3 13.1-2.6 2.3-1.6 4.9-4.7 4.5-6.8-.4-2.1-3.1-4.1-3.5-14.9-.3-10.8.9-30.2.6-44.9-.3-14.8-1-31.5-1-31.5l-24.7 3.1z"/><path fill="#06547A" d="M17.4 56.9c-1.2 1.4-2 5.5-2.3 7.6-.3 2.1-5.7 19.3-6.6 22.7-.9 3.4-.8 9.1-.6 14.4.1 5.4.1 11.7.2 12.7s4 2 6.9 1.6c2.9-.4 4.6-1.2 4.9-3.6s1.8-13.9 3.8-18.1c2-4.2 4.9-11.7 4.9-11.7L17.4 56.9z"/><path opacity="0.15" d="M17.4 56.9c-1.2 1.4-2 5.5-2.3 7.6-.3 2.1-5.7 19.3-6.6 22.7-.9 3.4-.8 9.1-.6 14.4.1 5.4.1 11.7.2 12.7s4 2 6.9 1.6c2.9-.4 4.6-1.2 4.9-3.6s1.8-13.9 3.8-18.1c2-4.2 4.9-11.7 4.9-11.7L17.4 56.9z"/><path fill="#FBD7C7" d="M70.5 104.3l.1 8.8s4.1 1.1 7.1-.5 5.2-4.7 5.2-5.8c0-1.1-.3-2.4-1.3-2.4-1.1 0-2 1.6-3.2.3-1.3-1.3-.4-2.2.6-2.9.9-.7 1.3-2.5-.8-2.3-1 .1-1.9.8-2.5 1.3-.9.8-1.8 1.8-3 2.8-1.4 1.1-2.2.7-2.2.7z"/><path fill="#06547A" d="M35 50.3l-3.6.8.1.9s-5.5-.7-9.4 1.4c-4 2.1-6.1 4-5.6 7.3.6 3.4 3.9 15.1 6.1 21.1 2.2 6 3.5 9.3 2.9 14.2s-7.1 27.7-6.7 31.2 5.8 6.1 12.5 7.9c6.9 1.8 31.9 3.2 32.4-1.9s.5-18.9.5-18.9 7.1 1.3 8.4-.4c1.3-1.7 2.8-4.5 1.2-7.9-1.5-3.4-2.1-3.5-3.1-3.8-1-.3-5.5-1-6.8-2.7-1.3-1.6-.3-7.8-.3-15.7s.3-13.6-3.2-17.3c-3.5-3.7-7.5-8.9-10.8-10.1-4.4-1.4-15.3-1.1-14.6-6.1z"/><path opacity="0.2" d="M32.3 51s.1 5.2 7.4 6.1c6.9.9 19 8.5 19 8.5s-13-7.3-18.9-7.8c-8.8-.7-8.4-6.8-8.4-6.8h.9z"/><path fill="#825012" d="M48.4 43.8c.1.8 1-1.3 1.7-3.1.7-1.9 2-4.3 2.7-7 .7-2.7 1.3-1.7 1.4-2.9.1-1.2-5.7-8.9-16.3-5.2s-8 16-7.1 19.4c1 3.4 4.1 7.3 7.1 7.3 3-.1 6.5-2.4 6.8-6.8s3.6-3.5 3.7-1.7z"/></g><metadata><rdf:RDF xmlns:rdf="http://www.w3.org/1999/02/22-rdf-syntax-ns#" xmlns:rdfs="http://www.w3.org/2000/01/rdf-schema#" xmlns:dc="http://purl.org/dc/elements/1.1/"><rdf:Description about="https://iconscout.com/legal#licenses" dc:title="people" dc:description="people" dc:publisher="Iconscout" dc:date="2017-09-20" dc:format="image/svg+xml" dc:language="en"><dc:creator><rdf:Bag><rdf:li>Icograms</rdf:li></rdf:Bag></dc:creator></rdf:Description></rdf:RDF></metadata></svg>