<?xml version="1.0" encoding="UTF-8"?><svg xmlns="http://www.w3.org/2000/svg" xmlns:xlink="http://www.w3.org/1999/xlink" version="1.1" id="Layer_1" x="0px" y="0px" viewBox="0 0 160 320" xml:space="preserve"><path fill="#762C07" d="M101.2 67.5c-.6 1.9-.5 9.7-1.2 14-.8 5.2-7.1 24 2.1 18.1s7-33.5 3.1-33.7c-3-.3-3.4-.3-4 1.6z"/><path opacity="0.2" d="M92.3 238.8c-11.8 7.6-12.4 14.4 0 21 13.5 7.2 22.4 3.3 32.9-2.7s11.8-13.4-3.6-19.6c-12.6-4.9-20.5-4.4-29.3 1.3z"/><path fill="#FBD7C7" d="M96.3 114.8s-3.2 10.8-5.9 19.1-4.4 13.8-5.3 15.9c-.9 2.1-1.3 5.7-.8 7.3s2.3 5 3 5.7c1.7 1.6 4.4 1.2 4.8.8.4-.5.4-2.2-.3-2.9-.7-.7-2.6-3-1.4-6s1-4.2 1-6c0-1.5-.5-1.7.7-4.1s6.9-14.5 7.5-16.2c.5-1.7-3.3-13.6-3.3-13.6z"/><path fill="#FBD7C7" d="M110.2 87.3s-9.1-4-12.3.3c-3.1 4.3-1.7 11-1.7 11s-5.4 6.1-5.4 9.4c0 3.3 5.1 6.5 5.1 6.5s.6 15.8-.3 22.3c-.9 6.5-3.8 23.3-3.1 33.9.7 10.6 1.6 25 1.9 29.2.3 4.1 2.2 10 3 14.8.9 4.8 4.1 13.2.9 19.6-3.2 6.5-6.1 9.3-7.4 10.5s.2 5.2 3 4.5c2.8-.7 7.2-7.1 9.9-8.1 2.7-1.1 7.2-4 6-7.7s-1.7-2.2-2-5.3c-.3-3.1 2.2-16.7 1.3-22.8s-3.2-7.8-3.6-8.8c-.4-1.1 5.7-29.5 5.7-29.5s1.2 27.3 1.1 30.2c-.1 2.9 2.1 17.7 2.7 24.6s1 18.8-2 22.9c-2.9 4.1-8 10.3-6 11.7 2 1.4 8.3 2.7 9.8-.9s5.3-11.1 6.7-13.1c1.4-2 1.9-3.1 1-5-.9-1.9-1.5-5-.5-10.3 1-5.3 4.1-14.7 3.3-19.7-.8-5-3.2-8.1-2.9-11.7.3-3.5 8.1-24.8 6.6-39.7-1.6-14.8-9-17.5-10.3-23.5-1.3-6 3-13.9 5.2-18.2 2.2-4.2 5.3-11.6 2.6-14.2-2.7-2.7-5.9-4.4-7.1-6.4s-2.5-8.2-2.5-8.2l-8.7 1.7z"/><path fill="#CC291F" d="M92.9 242.9s-4.9 1.7-5.9 3.9c-.8 1.8-.5 3.9 1.2 5s5.2 1.3 8.2-.4c2.9-1.7 6.8-8.4 7.5-8.7.7-.3.2 3.7.2 3.7l2.1 1.1 2.3-.9s-.2-4.5.7-6c.9-1.6 2.6-3.9 2-6.9-.7-3-2.6-3.3-2.6-3.3s0 3.5-4 7.3c-3.8 3.6-5.9 9.6-9.2 9.3-4.6-.7-2.5-4.1-2.5-4.1z"/><path fill="#CC291F" d="M109.7 249.7s-4.6 3.5-4.9 5.7-.2 3.7 2.9 4.7 7.1-.2 9-1.8c1.8-1.6 4.4-5.8 4.4-5.8l2 1.1 2.3-1.1s-.3-2.7.4-5.1 1.4-4.4 1.4-7.4-2.8-3.3-2.8-3.3 1.7 1.6-.8 5.1-4.4 11.3-8.1 11.5c-7 .5-5.8-3.6-5.8-3.6z"/><path fill="#262626" d="M128.2 143.4c-2.3-3.6-4.4-5.6-5.1-6.4-4.4-6.7 1.9-20.2 3-22.4 2.2-4.2 5.3-11.6 2.6-14.2-2.7-2.7-5.9-4.4-7.1-6.4-1.2-2-2.5-8.2-2.5-8.2l-8.9 1.6s-3.6-1.6-7-1.7c-2.2 2.1-4.9 9.8-7.4 12.7-2.5 2.8-5.4 5.4-5.4 9.6 0 3.3 4.3 6.6 4.8 7.5.3.6 2.4 6 2.3 12.3 0 2.9-6.2 26.5-7.1 30-1.9 6.8-6.1 18-5.6 19 2.1 4.2 12.6 3.2 17.4 7.6s17.8 3.7 24 1.6c6.2-2.1 9.4-5.8 9.2-6.5-4.8-18.8-1.8-27.7-7.2-36.1z"/><path fill="#FBD7C7" d="M105.4 86.5s-8.9 14.8-2.4 16.5c6.3 1.7 16-8.7 16-8.7l-7.8-8.7-5.8.9z"/><path fill="#FBD7C7" d="M107.7 87.6s-4.3.7-4.9-.9c-.7-1.7-4.4-15.5 2.4-24.1 6.8-8.5 20.5-3.1 20.5 6 0 8.1-3.2 10.5-4.7 14.5-.9 2.5-1.6 5.8-.1 8.4s2.7 4 2.7 4-7.6 4.6-13.3 3.2c-5.7-1.4-.2-4.2-1-6.6-.7-2.2-1.6-4.5-1.6-4.5z"/><path opacity="0.15" d="M90.5 108.7c3.1 5.9 12.5 10.5 26.6 7.4-.9 2.3-21.1 7.5-26.6-7.4z"/><path fill="#FBD7C7" d="M118.5 107.4c-1.1-2.9-.7-10.2 5.3-10.5 6-.3 6.7 5.7 7.2 13.6s3.5 20.7 3.7 23.3c.2 2.6-1.5 9.7-5.6 16-4.1 6.3-6.9 11.4-7.1 12.3-.2 1-1.4 4.9-3.1 6.1-.7.5-1.5 1.2-1.9 2.5-.4 1.3.5 2.4.7 2.7.3.7-.2 1.5-1.4 2.2-1.3.8-3.2-.5-4.2-1.3-.7-.5-2.5-2.1-2-4.3.4-1.6 1.7-6.6 3.7-7.8 2-1.2 3.9-2.7 4.6-4.1.7-1.4 2.2-11.9 4.8-17.2 1.4-2.9 3.1-4.8 3.1-5.9-.1-.9-6.7-24.7-7.8-27.6z"/><path fill="#762C07" d="M101.2 67.5s3.5-11.5 16.4-9.1c8.1 1.5 10.4 10.5 9.6 16.7-.7 6.2-3.3 9.9-2.1 12.9 2.3 5.6 1 9.4-1.6 12.7-4.3 5.5-13.1 8.2-12.1-2.9.7-8.6-5.1-12.4-3.1-21.5 1.2-5.7-1.1-8.2-3.6-7.7-.8-1.9-1.8-2.6-3.5-1.1z"/><g><path opacity="0.2" d="M19.4 262.3c-17.2-9.6-4.2-17 11.8-24.6 17.8-8.5 24.2-10.6 40.5-1.6 13.9 7.6 1.6 14.9-14.6 22.5-18.5 8.5-25.6 10.5-37.7 3.7z"/><path fill="#262626" d="M60.1 233.9c3.4 2.5 6.8 4 9.8 5.6 3 1.6 4.5 3.1 4.1 4.5-.3 1.5-3 3.2-7.6 3-4.6-.2-12-4.4-13.4-4.5-1.4-.1-1.1.8-2.1.8s-6.4-1-7-1.7c-.6-.7.1-5.7.1-5.7l16.1-2z"/><path opacity="0.5" d="M43.9 241.6c-.3-.4-.3-1.8-.2-3.1 1.3 1.2 3.5 1.9 5.7 2 2.6.1 5.7.6 9.3 2.9s16 4.2 14.6-1.4c.6.7.9 1.4.7 2.1-.3 1.5-3 3.2-7.6 3s-12-4.4-13.4-4.5c-1.4-.1-1.1.8-2.1.8s-6.4-1.1-7-1.8z"/><path fill="#656565" d="M57.9 155.3c.9 6.6 1.3 29.8.4 40.3-.8 10.6-.7 25.9.1 31.2.6 3.9 2.5 6 2 7.4s-5 4.6-10.2 5.2-7.2-.2-7.9-2.2c-.6-2-2.8-23.5-3.5-37-.6-12-1.7-45.1-1.7-45.1h20.8z"/><path opacity="0.3" d="M57.9 155.3c.9 6.6 1.3 29.8.4 40.3-.8 10.6-.7 25.9.1 31.2.6 3.9 2.5 6 2 7.4s-5 4.6-10.2 5.2-7.2-.2-7.9-2.2c-.6-2-2.8-23.5-3.5-37-.6-12-1.7-45.1-1.7-45.1h20.8z"/><path fill="#262626" d="M29.1 246c.8 2.3 4.3 8 5 9.4.8 1.4 2.3 3.3 1.3 4.7-1 1.5-5.7 3.3-10.4 1-4.7-2.2-5.5-7.7-5.5-7.7h-.8s-1-2.3-1-3.9.3-2.6.3-2.6l11.1-.9z"/><path opacity="0.5" d="M19.5 253.4h-.8s-1-2.3-1-3.9.3-2.6.3-2.6h.1c.1.2.1.4.1.6.2 1.3 2.5 8.3 3.8 10 3.4 4.4 12.6 5.4 13.5.3.3.8.4 1.6-.1 2.2-1 1.5-5.7 3.3-10.4 1-4.7-2.1-5.5-7.6-5.5-7.6z"/><path fill="#656565" d="M46 156c-.1 4.3-4.5 9.3-5.8 15.4-1.3 6.1-5.3 36.3-6.3 45.2-1.5 12.9-2.8 31.7-3.2 31.9-.4.1-3.7-1.9-6.9-.2s-6.8 1-7.9.2c-1-.8-.6-9.4-.2-14.6.3-5.1 1.9-43.6 1.8-48.8-.1-5.2-1.8-19.3-1.4-22.6.4-3.4 2.3-7.3 2.3-7.3l27.6.8z"/><path opacity="0.15" d="M46 156c-.1 4.3-4.5 9.3-5.8 15.4-1.3 6.1-5.3 36.3-6.3 45.2-1.5 12.9-2.8 31.7-3.2 31.9-.4.1-3.7-1.9-6.9-.2s-6.8 1-7.9.2c-1-.8-.6-9.4-.2-14.6.3-5.1 1.9-43.6 1.8-48.8-.1-5.2-1.8-19.3-1.4-22.6.4-3.4 2.3-7.3 2.3-7.3l27.6.8z"/><path fill="#656565" d="M56.2 108.8c2.5 4 5.1 10.3 6.6 14.5 1.5 4.2 5.4 11.7 5.7 12.7.2.9.1 4.6-3.4 5.7-3.5 1-5.2 1.8-5.8.9-.5-.8-4.2-5-4.2-5l1.1-28.8z"/><path opacity="0.15" d="M56.2 108.8c2.5 4 5.1 10.3 6.6 14.5 1.5 4.2 5.4 11.7 5.7 12.7.2.9.1 4.6-3.4 5.7-3.5 1-5.2 1.8-5.8.9-.5-.8-4.2-5-4.2-5l1.1-28.8z"/><path fill="#FFF" d="M43.4 81c2 1.6 10.2 13.3 10.6 27.7.4 14.4-3.2 21.1-3.2 21.1s-10.9-29.1-16.9-35.5-5.6-11.5-5.6-11.5 3.8-2.6 7.9-2.9 7.2 1.1 7.2 1.1z"/><path opacity="0.2" d="M43.7 91l-2.3 6.4-6.4-4.3 6.8 6 2.1-7.8 1-.2 3.8 4.3v-3.8c0 .3-.3 1.9-.3 1.9l-3.5-3.4-1.2.9z"/><path fill="#CC291F" d="M46.6 95.7l.1-3.8-1.5-1.6-1.5.7-1 2.7L45 96s2.1 18.1 2.3 20.4 3.1 13 3.1 13 4.5-12.5 4.3-12.7-8.1-21-8.1-21z"/><path fill="#FBD7C7" d="M10.4 164.3c.3 1 .2 2 2 3.2 1.7 1.3 3.1 3.6 3.5 5.2.4 1.6 1.7 3.5 1.9 4.7s-.8 2-1.8 1.1c-1-.8-2.9-4.5-3.9-4.8-1-.3-1.3 2.9-1.4 4-.1 1 1.5 3 2.2 4 .8 1 .1 1.9-1 1.6s-5.9-2.9-7.1-7.9-.7-12-.7-12l6.3.9z"/><path fill="#FFF" d="M12.6 163.5l.1 2s-3.8.9-6.9.6-3.8-1-3.8-1l.3-3 10.3 1.4z"/><path fill="#656565" d="M39.8 80.2c2.1.3 9.2-2 13.2 4.1 4.1 6 4.7 12.6 4.9 18.3.2 5.7 1.2 43 1.2 49.5 0 6.6-.1 9.5-3 10.4-3.4 1.1-5.9-1.9-6-3.8-.1-2 .3-30.7.3-30.7s5.1-12 1.8-25.8-8.5-18.4-8.5-18.4l-4.1-3.5.2-.1z"/><path fill="#656565" d="M29.5 81.8s-4 3.3-6.2 5.1-12 10.5-13 11.7-2.2 2.4-2.2 5.7-.4 8.4-1.7 11.9c-4.1 10.6-4.3 15.2-4.6 19.8-.3 4.6-.9 26.6-.9 26.6s1.3 1.2 6.4 1.8 6.4-.1 6.4-.1 1.5-14.2 2.3-19.3c1.3-7.8 5-16.1 5-16.1s.6 3.5.3 5.6c-.3 2.1-4.1 19.3-4.9 22.1-.8 2.7-1.7 6.1-1.7 6.1s4.2 6.6 15.6 6.1c11.4-.4 18.2-4 19.6-11 1.4-7 1.7-24.5-.1-34.3s-9.7-25.6-14.9-31.4-5.4-10.3-5.4-10.3z"/><path opacity="0.2" d="M49.5 128s-3.5-8.9-8.9-16.5c-3.8-5.2-7.8-8.6-7.8-8.6l.3-3.4-4-1.5-2.5-13.7-.5.5 1.7 14.1 4.6 1-1 3.5s5.4 4.7 9 9.2c3.8 4.8 9.1 15.4 9.1 15.4z"/><path fill="#FBD7C7" d="M45.3 60.1c3.8 2.8 4 10.3 3.9 15.4-.1 5.1-.7 9.3-1.5 9.7-.8.4-2.4.6-2.4.6s.1 4.9-1.1 5.1c-1.2.3-7.8-2.8-10.9-6-3.1-3.1-3.5-3.8-3.5-3.8s-4.3-7.9-3.6-14.1 8.4-14.6 19.1-6.9z"/><path fill="#762C07" d="M48.5 63.2c.6 1-1.5.8-4.5 5.4-3.1 4.6-6.6 2.6-7.6 2.6-.3 2.5-2.4 2.1-4.3 4.3 0 0-.7-2.5-2.1-2.6-1.4-.1-.9 4.2-.9 4.2s-.2 1.7-1.2 2-4.7-8.8-2.8-14.7C28 55 41.6 51.8 48.5 63.2z"/><path fill="#FFF" d="M67.6 136.4c-.5-.5-3.6-.4-5.3 1.3-1.7 1.7-2.2 3.6-1.9 4.1s2.4.2 4.9-1.5c2.4-1.7 2.8-3.3 2.3-3.9z"/><path fill="#FBD7C7" d="M67 136.8c-1.2-.4-3.1.1-4.3 1.3-1.2 1.1-1.7 2.2-1.6 3 0 .8 1 2.7 1.2 3.6.2.8 2.7 4.2 3.5 5.3.7 1.2 1.6 1.7 1.8 3.5.2 1.8.8 2.7 2.1 2.8 1.3.1 6.1-2.9 5.2-7.2-.9-4.2-2.6-6.7-3.6-8.1-.5-.7-2.6-1.8-3.3-2.3-.8-.6-.5-1.8-1-1.9z"/></g><g><path fill="#CC291F" d="M29.8 141.3s-6.9 8.5-9.2 11.7c-2.1 2.9-3.9 6-4.4 7.9-.5 1.9 1.2 4.9 3.5 7.2 2.7 2.7 6.8 8.4 8.3 10.8s3.1 5.5 3.1 5.5l11.2-6.3s-7.3-6.6-9.7-10-5-6.7-5-6.7l6.8-3.5-4.6-16.6z"/><path opacity="0.15" d="M29.8 141.3s-6.9 8.5-9.2 11.7c-2.1 2.9-3.9 6-4.4 7.9-.5 1.9 1.2 4.9 3.5 7.2 2.7 2.7 6.8 8.4 8.3 10.8s3.1 5.5 3.1 5.5l11.2-6.3s-7.3-6.6-9.7-10-5-6.7-5-6.7l6.8-3.5-4.6-16.6z"/><path fill="#CC291F" d="M53.8 145.1c2.9 1.3 12.3 6.7 13 10.6s-1.5 9.8-2 13.8c-1.6 11.8.9 20.5.9 20.5s-3.6 2.1-5.4 2.1-6.5-47-6.5-47z"/><path opacity="0.2" d="M33.9 291.9c-9.2 5.6-9.9 12.4 2 18.7 13 7 20.7 5.5 30.8-.4 8.9-5.1 6.9-12.1-8.1-18.1-12.1-4.8-18.2-4.2-24.7-.2z"/><path fill="#FBD7C7" d="M35.6 181.9c-2.4 3.1-11.4 14.1-8.8 29.7s7 23.9 6.3 27.6c-.8 3.7-3.6 10.7-2.9 18.5.8 9.6 3.6 19.5 3.8 22.7s1.3 6.2.4 8.7c-.9 2.5-3 4.3-.9 6 1.8 1.4 1-.6 10.1 2.7 12.1 4.5 9.6-1.8 3.6-2.9-2.1-.4-4.1-4.7-4.7-7.6-.3-1.2-1.2-15.7-.4-22.3.8-6.6.9-16.9.8-19.9-.1-3 2.4-14.3 3.3-19.8 1.4-8.4 4-38.1 4-38.1l-14.6-5.3z"/><path fill="#656565" d="M33.8 290.2s-2.3 2.5-2.2 4.8c.1 2.3 1.8 5.6 1.8 6.9v3.2l1.7.9 1.6-.8s-.7-5.3.5-6.1 4.7 1.9 7.2 2.5c2.4.6 8.2-.1 10.3-.9 2.2-.9.4-3.6-1.5-4.7-2.6-1.4-6.6-1.1-6.6-1.1s1.3.4 2.8 1.9c2.7 2.7-4.7 3.2-11.5-2.6-2.7-2.4-4.1-4-4.1-4z"/><path fill="#FBD7C7" d="M44 186.2s-5.3 12.7-5.3 18.9 4.1 8.4 4.8 10.4c.8 2 1 8.4 2.9 16s4.2 12.4 2 17.9c-3.5 8.7-2.9 16.3-1.8 26.9 1 10.6.2 16.6-.1 18.4-.4 2-3.5 3-1.9 5.4 2.2 3.2 8.3 3.6 11 4.9 3.2 1.5 7.2 2 8.1.4.9-1.5.2-3.9-3.4-3.7-3 .1-5.2-5-6.1-7.2-.9-2.2 1-9.5 2.6-21s2.1-24 2.9-28.7c.8-4.7 3.1-8.9 3.8-30.2.7-21.4-1.6-27.4-1.6-27.4l-17.9-1z"/><path fill="#656565" d="M45.7 295.9s-2.3 2-2.3 4.5 2.1 5.3 2.4 7.3c.3 2 .2 3.4.2 3.4l1.9.9 1.9-.8s-1.6-5.6.1-6.1 6.7 3.6 9.8 3.6 7.2-3.9 7.2-5.3c0-1.5-3.4-3-5.4-2.9-2 .1-2.8.6-2.8.6s3 1.3 3.5 2.3c.4 1-.6 1.7-1.8 2-2.6.5-5-1.8-9.2-5.1-3.9-2.8-5.5-4.4-5.5-4.4z"/><path fill="#262626" d="M37.1 180.7s-9.2 9.7-10.3 18.3c-2.2 17.6-1.7 49.9-1.7 49.9s7.8 7.7 20 7.3c9.7-.3 16.6-3.3 16.6-3.3s3-35.7 2.9-44.9c-.1-8.1-2.5-19.7-2.5-19.7s-13-2-17.8-3.8c-4.8-1.7-7.2-3.8-7.2-3.8z"/><path fill="#FBD7C7" d="M60.6 150.6s1.5 1.1.6 7.5-.9 19.5.9 25.7c1.8 6.3 5.2 20 6.3 22.6s2.3 3.2 2.9 4.2c.5.7 1.3 4.8.9 6.2-.5 1.4-2.8 5-4.7 5.6-2 .6-4.3.6-4.6-.3-.3-.9 1.7-1.2 2-2.6s.5-6 .5-7.3-1.1-4.6-4.9-10.7c-3.8-6.2-7-11.3-8.1-18.1-1-6.8-3.1-26.4-2.7-30.1.6-5.1 7.1-7.7 10.9-2.7z"/><path fill="#CC291F" d="M40.7 138.8c-3.5-.2-8.1-.7-10.3 1.5-2.2 2.2-2.8 4.6-1.6 9s8.1 21.8 7.5 25.4c-1.2 7.7-5.9 13-5.9 13s3.7 2.4 13.3 3.6c2.6.3 9.3.8 9.3.8s2.2 7.3 2.7 9.2c1.4 5.3 1.8 10.1 1.8 10.1s5.4 1.4 8.9-.9c2.2-1.4 3.7-3.2 3.4-4s-3-8.7-4.3-13.1c-1.3-4.4-4.8-18.3-4.7-25s3.5-13.8-.1-18.5c-3.6-4.7-12-8.6-12-8.6l-8-2.5z"/><path fill="#FBD7C7" d="M50.8 111.8c3.3 1.2 4.6 4 5.1 10s-.2 9.7-.6 10.8c-.5 1-4.1 2.2-5 3.8-.9 1.5-1.6 4.7-1.1 5.3.9 1.2 1.7 1.2 1.7 1.2s-8.3 2-11.2.7c-2.9-1.3-2.8-3-2.3-3.6.6-.7 1.6-3.4 1.1-5-.6-1.5-7.4-7.7-5.3-14.9 2.7-8.6 10.8-10.7 17.6-8.3z"/><path fill="#825012" d="M49.5 136.7c2.5-1.4 4.8-9.9 4.8-9.9s.6 1.1.7 4.2c1.6-1.1 3.2-13.2-1.5-17.3-8.7-7.7-16.3-4.9-18.9-2 2.7-1 3.3-.5 3.4-.6 0 0-8.3 2.4-9.5 11.2-1.1 7.9 2.4 12 4.1 13.7 0-1.1.4-3.3.4-3.3s.3 8 6.5 9.7c8.2-2.5 9.2-10.4 9.2-10.4s1 1.4.8 4.7z"/></g><g><path fill="#FBD7C7" d="M104.4 193.7s.5 4.7 2.1 7 3.4 3.5 3.4 3.5l-.1-8.3-1.1-4.3-4.3 2.1z"/><path fill="#FBD7C7" d="M154.6 190.3s.7 6.3 1.1 7.5c.3 1.2-.7 3.3-2.1 4-3.1 1.6-5.5 1.1-6.3.8-1.2-.4 2.6-12.7 2.6-12.7l4.7.4z"/><path fill="#E5E5E5" d="M148.8 127.9s7 1.1 9.7 5.3c2.7 4.2.2 14.2.4 20.6.2 6.4.2 17.5-.3 21.8-.5 4.3-2.2 10.6-2.2 12.4s.4 3.3-2.4 3.5-5.6-.6-5.6-.6-2.7-23.8-2.3-28.9c.5-5 2.7-34.1 2.7-34.1z"/><path opacity="0.2" d="M152.5 141.2s1.2 11.1-.1 16.2c-1.3 5-2.5 9.9-1.8 13.6s2 9.6 1.3 14.2-2.2 7-2.2 7l-5.9-25.3 5.4-16.4 3.3-9.3z"/><path opacity="0.3" fill="#262626" d="M144 291.5c3.1 3.1 9.5 10.6 2.8 14.2-6.7 3.5-13.8 3.5-20.9 3.2s-25.2-3.2-28-6.3c-2.8-3.2-3.9-7.9 2.8-9.1 6.7-1.2 11-5.9 20.1-5.5s22.4 2.7 23.2 3.5z"/><path fill="#262626" d="M144.6 295.5s-1.4 6.3-5.7 6.3-18.7-2.2-18.7-2.2l11.4-8.7 13 4.6z"/><path fill="#262626" d="M137.7 300.4s.8 6.5-2.4 6.9-14.4-1-17.6-1c-3.2 0-14.8-2.4-15.8-5.1s.4-5.7 4.7-5.7 12.2.2 13.6-.2 17.5 5.1 17.5 5.1z"/><path fill="#262626" d="M101.8 298.4c0 .5.1.9.3 1.4 1 2.8 13 5.3 16.2 5.3s14.8 1.4 18.1 1c.2 0 .5-.1.7-.2-.4.7-.9 1.3-1.8 1.4-3.2.4-14.4-1-17.6-1-3.2 0-14.8-2.4-15.8-5.1-.2-1-.3-1.9-.1-2.8z"/><path fill="#656565" d="M149.7 189.5c.8 2.6-3.5 29.6-3.5 32.7s-1.8 17-1.4 21.5 1.4 27.2 1.8 34.5-.4 18.9-2.4 20.1c-2 1.2-8.7 1.2-10.6.8-2-.4-3.9-105.5-3.9-105.5l20-4.1z"/><path opacity="0.2" d="M149.7 189.5c.8 2.6-3.5 29.6-3.5 32.7s-1.8 17-1.4 21.5 1.4 27.2 1.8 34.5-.4 18.9-2.4 20.1c-2 1.2-8.7 1.2-10.6.8-2-.4-3.9-105.5-3.9-105.5l20-4.1z"/><path fill="#656565" d="M136.3 195.5s-1 11.8-1 17.2c0 5.3 2.8 45 3.4 52.7s1.4 33.9.2 36.5-3.4 3.5-7.4 2.6c-3.9-1-9.1-2.4-12.1-6.1-.8-1-2.9-2.7-2.9-2.7s3.2-5 2.6-10.5c-.6-5.5-1.2-15.4-1-19.7.2-4.3.2-10.6-1.4-16.4s-5.7-17.9-6.9-35.9c-1.2-17.9-.8-21.5-.8-21.5l27.3 3.8z"/><path fill="#FBD7C7" d="M141.5 126.4s-4.9.4-4.9-3.7c0-4.1.1-6.7.1-6.7s2.6-1.1 2.4-4.7-1.3-2.8-1.3-2.8l-19.4 1.8s-1.3.4-.3 3.9c.4 1.3 1.4 3 1.4 3.5s1 3.5 1.7 3.9c.7.4 1.9 4.8 1.9 6.3s-.7 3.5-.7 3.5 8.1.1 12.8-1c4.7-1.1 6.3-4 6.3-4z"/><path fill="#825012" d="M136.3 120.4c.4-.2.6-4.3.9-6.6.3-2.3 2.8-10-1.2-14.9-3.9-4.9-15.2-4.5-17.3 2.4-1.9 6.2-.7 10 1 13.5s3.5 5.2 4.1 6c.6.7 6.2 1.5 7.5 1.4 1.2 0 3.6-1.3 5-1.8z"/><path fill="#E5E5E5" d="M122.6 129.4c.6-.2 6 .6 10.5-.7 4.4-1.3 6.5-3.3 6.5-3.3s9.3 1.8 11.7 3c2.7 1.3 3.1 3.4 3.5 5.5.5 2.6.7 5.4.4 8.3-.9 9.1-4.1 11.7-5 14-.9 2.4-2.9 10.9-1.5 17.9 1.4 7 2 15.4 1.8 17.6-.2 2.2-2.4 7.7-14.7 8.3-14.5.7-26.8-4.6-26.8-4.6v-1.1s-.7 1.3-2.6 1.2c-1.9-.1-4-2.3-4-3s-.4-7.8-.7-9.4c-.3-1.6-1.2-2.5 0-6.6s3.8-17.8 4.5-24.4c.7-6.5.9-8.8 4.1-12.6 3.3-3.7 12.3-10.1 12.3-10.1z"/><path opacity="0.2" d="M109 194.4s2.1-3.1 2.4-5.1c.3-2 1-9.3 1.6-10.9.6-1.7.8-4.8 1.9-7.1 1.1-2.3 7.4-16.2 7.4-16.2s-.9 6.4-3 11.3c-.8 1.9-2.5 3.9-2.5 9.6 0 5.6-2.8 11.4-3.4 12.7-1.6 3.4-1.5 7-1.5 8-1.8-.6-2.9-1.1-2.9-1.1v-1.2z"/></g><metadata><rdf:RDF xmlns:rdf="http://www.w3.org/1999/02/22-rdf-syntax-ns#" xmlns:rdfs="http://www.w3.org/2000/01/rdf-schema#" xmlns:dc="http://purl.org/dc/elements/1.1/"><rdf:Description about="https://iconscout.com/legal#licenses" dc:title="people" dc:description="people" dc:publisher="Iconscout" dc:date="2017-09-20" dc:format="image/svg+xml" dc:language="en"><dc:creator><rdf:Bag><rdf:li>Icograms</rdf:li></rdf:Bag></dc:creator></rdf:Description></rdf:RDF></metadata></svg>