<?xml version="1.0" encoding="UTF-8"?><svg xmlns="http://www.w3.org/2000/svg" xmlns:xlink="http://www.w3.org/1999/xlink" version="1.1" id="Layer_1" x="0px" y="0px" viewBox="0 0 160 320" xml:space="preserve"><path fill="#FBD7C7" d="M40.8 91.2l12.7-7.7-3.1-8.7-6.4-7.4-9.6-1.3c-.1 4-1 10.7-6.9 13.6-1.1.6 13.3 11.5 13.3 11.5z"/><path opacity="0.2" d="M26.9 255c-7-2.4-25-17.2-4.2-23 18.4-5.2 23.6-17.9 45.3-5.8 10.7 6 7.3 13.9-10.6 18.2-12.1 2.9-14.3 16.3-30.5 10.6z"/><path fill="#262626" d="M38.2 225.7c-.3 2.3 1.2 4.4 4.9 5.7 4.1 1.5 9.1 4.3 11.5 5.7 4 2.3 8.7 2.3 11.9 1 2.4-1 2.7-2.5 2.3-5-.4-2.6-3-2.7-7.2-4.3-3.8-1.5-10.1-7.2-10.1-7.2l-13.3 4.1z"/><path fill="#FFF" d="M39.6 226.7c3 1 6.4 2 9.3 3.7 3 1.8 10.3 6.3 14.7 5.4 3.2-.7 4.6-1.9 4.4-3.4-.2-1.5-4.1-2.4-7.1-3.7-2-.8-9-6.8-9-6.8l-12.3 4.8z"/><path fill="#262626" d="M19.1 241c2.5 4.3 3.8 10 8.3 12.5 4.5 2.5 8.6 1.9 12.3.3 2.2-1 1.4-3.9.9-5-.5-1.1-2.4-2.3-4.8-4.8-3-3.1-4.5-7.7-4.5-7.7L19.1 241z"/><path fill="#FFF" d="M21.4 240.5s2.6 7.9 6.4 9.9c4 2.1 6.6 1.6 10 .6s3.2-1.8.7-3.9-5.7-5.9-5.8-7.3-11.3.7-11.3.7z"/><path fill="#06547A" d="M58.4 135.3c1.8 3.9 4.3 11.7 4.1 24.2-.2 12.5-.1 17.1 0 20.3.1 3.3-.8 5.5-2.7 11.2-1.6 5.1-6.6 23.6-6.3 27.4.1.9 2 1.6 2.4 3.6s.5 2.7-1.9 4c-2.4 1.3-9.4 5.2-14.4 3.2-2.1-.8-3-1-2.8-5.4.2-4.4.6-12.9 1.7-21.5s4.6-15.5 4.1-21.2c-.5-5.7-9-21.5-8.2-29.6.8-8.1 1-10.3 1-10.3l23-5.9z"/><path opacity="0.2" d="M58.4 135.3c1.8 3.9 4.3 11.7 4.1 24.2-.2 12.5-.1 17.1 0 20.3.1 3.3-.8 5.5-2.7 11.2-1.6 5.1-6.6 23.6-6.3 27.4.1.9 2 1.6 2.4 3.6s.5 2.7-1.9 4c-2.4 1.3-9.4 5.2-14.4 3.2-2.1-.8-3-1-2.8-5.4.2-4.4.6-12.9 1.7-21.5s4.6-15.5 4.1-21.2c-.5-5.7-9-21.5-8.2-29.6.8-8.1 1-10.3 1-10.3l23-5.9z"/><path fill="#06547A" d="M48.5 144.7s2 10.2.8 13.5c-1.2 3.3-3.8 3.5-4 6.7-.2 3.1-.6 12.1-1.8 17.3-1.2 5.2-3.5 16.2-5 20.2s-2.7 14.6-3.9 20.3c-.9 4.7-2.1 8.5-1.6 12s1.1 5.2.7 5.5-4.4.4-7.3 1.6c-2.8 1.2-6.3 1-8.1-.5s-2.7-4.5-1.7-6.9 1.3-3.5.2-7.4c-1.1-3.8.7-5.2 1.3-7.5.6-2.3-.4-5.5.7-10.1.7-3.4 4-10 3.9-15.6-.1-5.6-3.3-27.2-2.4-36.3 1-9.1 3.3-14.2 3.3-14.2l24.9 1.4z"/><path fill="#FBD7C7" d="M61.5 84.4s-3.9 23.1-3.6 29.4.8 20.6.8 20.6l-9.7-5.6s-1.5-12.7-1-16.1 5.5-16.3 5.5-16.3l8-12z"/><path fill="#656565" d="M47.9 74.5s7.9.4 11.5 4.3c3.6 3.9 2 6.5 1.2 8.4s-.3 3-.3 6.6c0 3.6-1.4 9.9-3.1 12.5-1.7 2.6-.7 5-.6 7.9s1 5.9 1.2 10.5c.2 4.6 1.7 12.6 2 13.7.3 1.2-2.7 4.4-11.1 7.4-6.7 2.3-23.4 1.4-25.7-2.4-2.4-3.8 2.3-6.9 2-11.8-.3-4.9-5.4-21-5.4-21s-5.1-11.8-5.4-14.2c-.3-2.4-.3-8.9 2.7-11.3 2.9-2.4 12.1-6.4 12.1-6.4s6.6 11 14.8 8.9c9.2-2.4 4.1-13.1 4.1-13.1z"/><path fill="#FBD7C7" d="M29 152.5c.2-.9.9-1.2.9-2.7-.1-1.4.1-2.7-.6-3.5-.7-.8-1.6-.7-2.6-2.1s-3-7.2-4.5-13.7c-1.4-6.5-3.5-11.3-3.7-11.7-.3-.5 2-3.8 4.4-8.7 2.1-4.4 3.5-8.3 5.3-11-2.4.2-7.3.4-9.5-.2-1.7-.5-3.4-1.5-4.5-2.2-1.1 7.1-3.8 15.2-4.3 16.8-.5 1.8-1.7 4.9.3 10.5s9 19 8.9 21.3c-.1 2.3-.6 7.8-.5 9.6.1 1.8 1.8 1.7 2.6 2.5s2.6.7 2.9 1.7 1.8 1 2.5 1.6c.7.6 2.2 1.2 2.9.7.7-.5.3-1.8-.2-2.6-.4-.9-.5-5.4-.3-6.3z"/><path fill="#FBD7C7" d="M40.6 48.2c-5.4.3-8.4 3.5-8.6 7.1-.2 3.5 0 6.2 0 6.2s-1-.4-1.3.8c-.3 1.3.7 4.6 2.5 6.2 1.8 1.6 2.7 4.7 4.8 6.9s6.7 5.4 9.9 5C51.1 80 53.6 68 53.3 64c-.2-4 0-16.5-12.7-15.8z"/><path fill="#762C07" d="M40.6 47.9c-5.4.3-8.4 3.6-8.8 7.4-.3 2.8-.1 5.1.1 6.1.6.3 1.6.6 2.3 1.7 1 1.7 1 2.4 1 2.4l1.4-.5s1.5-7.5 3.7-8.3 4.1 1.9 7 1.3 2.5-2.9 3.7-3c.2 0 .6.1 1 .3-1.5-4-4.5-7.8-11.4-7.4z"/><g><path opacity="0.2" d="M57.4 309c5.7.4 17.8-11.4 17.8-14.3s-3.6-6.2-12.4-5.9c-5.7.2-9.2-5.7-14.6-5.4s-9.7 5.4-10.3 8.1c-.5 2.7 2.7 5.9 8.6 10.3 6 4.2 2.5 6.7 10.9 7.2z"/><path fill="#FFF" d="M55.7 303.8s.5 3.6 4.8 2.6 11.6-7.2 11.9-10 .7-5.7-3-5.8c-3.8-.2-13.8 1.7-13.7 13.2z"/><path fill="#262626" d="M60.5 306.4c4.3-1 11.6-7.2 11.9-10 .1-1.1.2-2.2.1-3.2-.6 2.6-3.2 5.6-7.6 9.1-3.2 2.6-6.8 3-8.6 3.1.8.8 2 1.5 4.2 1z"/><path fill="#2D3134" d="M43.9 199.3s-4.5 9.1-3.1 16.5 8.4 22.7 7.2 27.2c-1.2 4.5-3.4 17.4-3.2 26.5.1 9.1-2.2 13.6-1.1 15.8 1.1 2.2 2.7 6.2 7.3 5.4s6.2-2.6 6.2-2.6 2.3-41.6 2.3-45.8c0-4.2-2.3-40.9-2.3-40.9l-13.3-2.1z"/><path opacity="0.2" d="M43.9 199.3s-4.5 9.1-3.1 16.5 8.4 22.7 7.2 27.2c-1.2 4.5-3.4 17.4-3.2 26.5.1 9.1-2.2 13.6-1.1 15.8 1.1 2.2 2.7 6.2 7.3 5.4s6.2-2.6 6.2-2.6 2.3-41.6 2.3-45.8c0-4.2-2.3-40.9-2.3-40.9l-13.3-2.1z"/><path fill="#2D3134" d="M50.3 201.2s-6.4 8.1-4.2 16.9c2.2 8.8 5.5 10.9 7.2 17.2 1.6 6.2 4.2 12.7 3.2 17.3-.9 4.6-4.9 12.3-4.2 20.9.7 8.6.5 21.5-.3 25.3s2.2 7.2 5.7 7.2 9.6-5 9.9-6.9-.4-3.6-1.2-5.5c-.8-1.9-2.2-10.5-.1-20.1 2-9.6 4.1-18.5 4.5-24.3.4-5.8 3.4-12.6 2.3-23.5s-3.9-21.1-3.9-21.1l-18.9-3.4z"/><path fill="#FBD7C7" d="M33.5 158.7s-.1 7.3-1.6 12.4-3.1 10.7-1.8 13.4c1.4 2.7 8.2 5.8 10.3 9.5 2 3.6 4.6 7.4 4.6 7.4l2.3-7.4s-5.5-8.2-7.2-10c-1.6-1.8-2.6-3.4-2.6-3.4l2.4-5.8-3.6-15.7-2.8-.4z"/><path fill="#CC291F" d="M47.4 152.7s-6.6-2.4-10.8-.8c-4.2 1.6-3.9 7.4-3.9 7.4l1.5 1.1s2 4.9 2 8c0 3.1 4.1 12.4 5 18.4.9 5.9 2.2 9.3.8 12.7-1.4 3.4-1.9 7.7-1.9 7.7s.7 2 7.4 4.2c8.5 2.7 23 3.6 23.5 2.4.5-1.1-1.1-10.4-1.7-15.3-.5-4.9-1.5-15.7-.7-16.9.8-1.2 3.9-4.3 3.6-7.3-.3-3-1.9-5.1-4.7-7.3-2.8-2.2-5.1-9.2-7.3-9.7s-12.8-4.6-12.8-4.6z"/><path fill="#825012" d="M58.1 122.7c5.3 0 11.4.9 11.8 13.9s3.2 13.6 2.4 17.8c-.8 4.2-4.3 8.4-18.2 7.7s-15.3-6.6-14.6-9.7 4.6-8.8 5.4-15c.7-5.9 2.8-14.7 13.2-14.7z"/><path fill="#FBD7C7" d="M56.9 175.2s1.8 1.3 4.3 1.8c2.4.5 6.1.3 6.1.3s-3.5 9.6-5.7 13-3.1 6.6-3.1 6.6 2.2 2.2 4.5 6.1c2.3 3.9 6.2 10 7.3 10.3s1.9-.1 3.4 1.6c1.5 1.8 5.8 6.1 4.9 6.5s-3.2-1.3-3.2-1.3 1.8 3 1 3.6-3-1.8-3-1.8.9 1.6.2 2.1-.9.2-.9.2-.4.8-1.3.5c-.9-.3-3.9-4.3-4.8-6.1-.9-1.8-2.2-4.5-3.7-6.2-1.6-1.8-12.4-11-12.2-14.1.3-3.1 2-12.7 4-17.2 1.9-4.7 2.2-5.9 2.2-5.9z"/></g><g><path fill="#FBD7C7" d="M95.4 93.2s1.5 13.1.2 18.2-2.3 8.4-2.9 14c-.6 5.6-.3 10.3-1.3 13s-.8 7.1-.3 10c.3 2.2 1 6.4 2.1 6.2 1.1-.2.7-1.5.9-2.7.2-1.1.4-2.8.2-3.7-.1-.9-.1-.8.6-1.4s.2-3.4.1-4.7c-.4-2.9 2-9.6 3-14.3s4.1-11.6 3.5-16.2c-.6-4.5-.7-16.9-.7-16.9l-5.4-1.5z"/><path opacity="0.2" d="M73.8 232.6c-6.2 7.5 4.4 11.2 19.8 12.5 15.4 1.3 29.8 8.1 40.2 2.8 10.5-5.2 4-15.3-16.3-16.6-20.3-1.3-19.7-6.1-28.8-4.1s-12.7 2.7-14.9 5.4z"/><path fill="#262626" d="M99.6 230.3c2.4 0 4 4.7-.4 6-4.4 1.3-9.2 1.9-10.6 2.1-2.1.2-7.3.7-9.8 0-2.7-.7-2.2-3.4-1.5-4.6.7-1.1 15.1-4.3 17.7-4.3 2.6.1 4.2.8 4.6.8z"/><path fill="#FFF" d="M78.2 236.5c1.5.5 6 .5 9.8 0 1.5-.2 13.2-2.5 13.9-3.9.7-1.4-9.9-5.6-9.9-5.6s-5.5 2.7-7.7 3.1-5.4.8-7.1 2.7c-1.1 1.3-.3 3.4 1 3.7z"/><path fill="#262626" d="M122 233.4c-.2 2-1.2 6.7.5 10.2 1 2.1 6.8 3 9.2.5 2.4-2.5-1.4-14.2-1.4-14.2l-8.3 3.5z"/><path fill="#FFF" d="M122.6 232.7s-2.8 11.2 4.3 11.1c7.2-.1 5.1-5.1 4.5-8.5s-2-5.2-2-5.2l-6.8 2.6z"/><path fill="#CC291F" d="M121.3 234.3s2.9.1 6.7.3 4.1-1.6 4.1-1.6-.8-6.5-.9-11.4.4-18.8-.2-25.2c-.7-6.4-.8-11.7.4-23.3 1.1-11.6 2.5-18.7.2-24.7s-3.7-8.5-3.7-8.5L96 143.3s-3.8 9-4.2 20 2.6 20.8 1.7 26.6c-.9 5.9-1.3 18.7-1.9 24.7-.9 9.4-4.4 15.5-4.4 15.5s1 3 6.1 3.8 8.7-1.7 8.7-1.7.2-6.5.9-14.7c.8-8.2 2.2-16.2 2.4-22.7.2-6.5.6-7.5 1-9.2.5-1.7 2.3-13.6 3.4-17.1 1.4-4.7 1.8-9.4 2.9-9.4 1.1.1.9 4.1 2.2 11.9 1.1 6.5 4.8 32.8 4.9 40.8s1.6 22.5 1.6 22.5z"/><path fill="#CC291F" d="M95.9 143.2s-3.8 9-4.2 20 2.6 20.8 1.7 26.6c-.9 5.9-1.3 18.7-1.9 24.7-.9 9.4-4.4 15.5-4.4 15.5s1 3 6.1 3.8c5.1.8 8.7-1.7 8.7-1.7s.2-6.5.9-14.7c.8-8.2 2.2-16.2 2.4-22.7.2-6.5.6-7.5 1-9.2.5-1.7 2.3-13.6 3.4-17.1 1.4-4.7 1.8-9.4 2.9-9.4 0 0 1.1-10.4.5-17.5l-17.1 1.7z"/><path opacity="0.2" d="M95.9 143.2s-3.8 9-4.2 20 2.6 20.8 1.7 26.6c-.9 5.9-1.3 18.7-1.9 24.7-.9 9.4-4.4 15.5-4.4 15.5s1 3 6.1 3.8c5.1.8 8.7-1.7 8.7-1.7s.2-6.5.9-14.7c.8-8.2 2.2-16.2 2.4-22.7.2-6.5.6-7.5 1-9.2.5-1.7 2.3-13.6 3.4-17.1 1.4-4.7 1.8-9.4 2.9-9.4 0 0 1.1-10.4.5-17.5l-17.1 1.7z"/><path fill="#CC291F" d="M114.8 171.1c1.1 6.5 4.8 32.8 4.9 40.8.1 8 1.6 22.4 1.6 22.4s2.9.1 6.7.3c3.8.2 4.1-1.6 4.1-1.6s-.8-6.5-.9-11.4c-.2-4.9.4-18.8-.2-25.2-.7-6.4-.8-11.7.4-23.3 1.1-11.6 2.5-18.7.2-24.7s-3.7-8.5-3.7-8.5l-17.5 1.9c.6 7.1 2.3 17.5 2.3 17.5 1 0 .8 3.9 2.1 11.8z"/><path fill="#FBD7C7" d="M127.8 100.1s-2.6 15.5-2.1 20.6 1.3 11.2 2.3 14.8c1 3.6 1.7 6 .9 7.3-.8 1.3-1.8 5.3-1.1 6 1.8 1.6 2.5 5.6 3 6.6.3.6.9 1.1 1.8.6.9-.5.2-4.7.3-5.7.1-1 .4-5.8.4-7.4s.6-15.7 0-18.8c-.5-3-1.4-8.2.4-14.7 1.8-6.4 2.8-7.3 2.8-10.2s-8.7.9-8.7.9z"/><path fill="#FBD7C7" d="M107.5 84.4s-12.3 13.3 1.7 14.9c14 1.6 16.5-7.7 13.9-12.8-2.6-5.2-6.9-7.9-6.9-7.9l-8.7 5.8z"/><path fill="#39C" d="M107.8 85.3s-5.6-1.7-8.9.6c-3.3 2.4-3.8 7.7-3.8 7.7s.6.5 1.4.9c.8.4 1.3.4 1.3.4s0 1.7-.9 4.2c-.8 2.6-2.7 5-1.7 8.5.9 3.4 3.1 3.9 3.1 4.6 0 .8.6 12.2-.7 18.5s-2.5 12.8-2.4 14.6c0 .3.4 5.5 13.1 5.8s20.7-8.8 20.7-8.8-2.6-6.8-3.7-11c-1-3.9 2.4-17.8 2.4-21.4v-8.5s1.3 1.2 5.2 1.1c2.1-.1 3.7-1.4 3.7-1.4s.9-5.6-3.1-8.9-8.6-3.4-8.6-3.4-5.1 10.4-13.9 8.1c-9.4-2.6-3.2-11.6-3.2-11.6z"/><path fill="#262626" d="M115.4 57.7c-8.1-.5-12 3-13.5 8.6-1.5 5.4 4 15.3-1.8 17.9.1 2.2 5.1 4.5 7.3 2.1 2.2-2.3 2.9-2.4 2.9-2.4l5.1-26.2z"/><path fill="#FBD7C7" d="M104.7 67.9c-1.5 3.1-1.9 15.6.6 17.6 2.5 2 7.6-1.3 12.5-3.5 4.9-2.3 5.5-19-1.9-19.2-7.3-.3-9.6 1.8-11.2 5.1z"/><path fill="#262626" d="M113.9 57.9c-3.3.8-7.1 5.2-6.4 10 1 6.2 13.2 18.3 4.6 22.2 1.4 4.6 9.5 4.3 14 2 4.3-2.3 4.7-4.5 4.6-5.3s-3.8-4.9-3.8-10.9c-.1-6-.5-21.1-13-18z"/><path opacity="0.2" d="M95.4 107.5s1.1 4.3 13.6 5.1c12.5.9 18.6-4.8 18.6-4.8s-3.3 7.9-17.4 7.4c-14.2-.6-14.8-7.7-14.8-7.7z"/></g><g><path fill="#FBD7C7" d="M101.9 195.3s.5 4.7 2.1 7 3.4 3.5 3.4 3.5l-.1-8.3-1.1-4.3-4.3 2.1z"/><path fill="#FBD7C7" d="M152.1 191.9s.7 6.3 1.1 7.5c.3 1.2-.7 3.3-2.1 4-3.1 1.6-5.5 1.1-6.3.8-1.2-.4 2.6-12.7 2.6-12.7l4.7.4z"/><path fill="#06547A" d="M146.3 129.6s7 1.1 9.7 5.3c2.7 4.2.2 14.2.4 20.6s.2 17.5-.3 21.8-2.2 10.6-2.2 12.4.4 3.3-2.4 3.5c-2.8.3-5.6-.6-5.6-.6s-2.7-23.8-2.3-28.9c.5-5 2.7-34.1 2.7-34.1z"/><path opacity="0.2" d="M150 142.9s1.2 11.1-.1 16.2c-1.3 5-2.5 9.9-1.8 13.6.7 3.7 2 9.6 1.3 14.2s-2.2 7-2.2 7l-5.9-25.3 5.4-16.4 3.3-9.3z"/><path opacity="0.3" fill="#262626" d="M141.5 293.2c3.1 3.1 9.5 10.6 2.8 14.2-6.7 3.5-13.8 3.5-20.9 3.2s-25.2-3.2-28-6.3c-2.8-3.2-3.9-7.9 2.8-9.1 6.7-1.2 11-5.9 20.1-5.5s22.4 2.7 23.2 3.5z"/><path fill="#262626" d="M142.1 297.1s-1.4 6.3-5.7 6.3-18.7-2.2-18.7-2.2l11.4-8.7 13 4.6z"/><path fill="#262626" d="M135.2 302s.8 6.5-2.4 6.9-14.4-1-17.6-1c-3.2 0-14.8-2.4-15.8-5.1s.4-5.7 4.7-5.7 12.2.2 13.6-.2 17.5 5.1 17.5 5.1z"/><path fill="#262626" d="M99.3 300.1c0 .5.1.9.3 1.4 1 2.8 13 5.3 16.2 5.3s14.8 1.4 18.1 1c.2 0 .5-.1.7-.2-.4.7-.9 1.3-1.8 1.4-3.2.4-14.4-1-17.6-1-3.2 0-14.8-2.4-15.8-5.1-.2-1-.3-2-.1-2.8z"/><path fill="#656565" d="M147.2 191.2c.8 2.6-3.5 29.6-3.5 32.7s-1.8 17-1.4 21.5 1.4 27.2 1.8 34.5-.4 18.9-2.4 20.1c-2 1.2-8.7 1.2-10.6.8-2-.4-3.9-105.5-3.9-105.5l20-4.1z"/><path opacity="0.2" d="M147.2 191.2c.8 2.6-3.5 29.6-3.5 32.7s-1.8 17-1.4 21.5 1.4 27.2 1.8 34.5-.4 18.9-2.4 20.1c-2 1.2-8.7 1.2-10.6.8-2-.4-3.9-105.5-3.9-105.5l20-4.1z"/><path fill="#656565" d="M133.8 197.1s-1 11.8-1 17.2c0 5.3 2.8 45 3.4 52.7s1.4 33.9.2 36.5c-1.2 2.6-3.4 3.5-7.4 2.6-3.9-1-9.1-2.4-12.1-6.1-.8-1-2.9-2.7-2.9-2.7s3.2-5 2.6-10.5c-.6-5.5-1.2-15.4-1-19.7.2-4.3.2-10.6-1.4-16.4-1.6-5.7-5.7-17.9-6.9-35.9-1.2-17.9-.8-21.5-.8-21.5l27.3 3.8z"/><path fill="#FBD7C7" d="M139 128.1s-4.9.4-4.9-3.7.1-6.7.1-6.7 2.6-1.1 2.4-4.7c-.2-3.6-1.3-2.8-1.3-2.8l-19.4 1.8s-1.3.4-.3 3.9c.4 1.3 1.4 3 1.4 3.5s1 3.5 1.7 3.9c.7.4 1.9 4.8 1.9 6.3s-.7 3.5-.7 3.5 8.1.1 12.8-1c4.7-1.1 6.3-4 6.3-4z"/><path fill="#762C07" d="M133.8 122.1c.4-.2.6-4.3.9-6.6.3-2.3 2.8-10-1.2-14.9-3.9-4.9-15.2-4.5-17.3 2.4-1.9 6.2-.7 10 1 13.5s3.5 5.2 4.1 6c.6.7 6.2 1.5 7.5 1.4 1.2-.1 3.6-1.3 5-1.8z"/><path fill="#06547A" d="M120.1 131.1c.6-.2 6 .6 10.5-.7 4.4-1.3 6.5-3.3 6.5-3.3s9.3 1.8 11.7 3c2.7 1.3 3.1 3.4 3.5 5.5.5 2.6.7 5.4.4 8.3-.9 9.1-4.1 11.7-5 14-.9 2.4-2.9 10.9-1.5 17.9 1.4 7 2 15.4 1.8 17.6-.2 2.2-2.4 7.7-14.7 8.3-14.5.7-26.8-4.6-26.8-4.6V196s-.7 1.3-2.6 1.2c-1.9-.1-4-2.3-4-3s-.4-7.8-.7-9.4c-.3-1.6-1.2-2.5 0-6.6s3.8-17.8 4.5-24.4c.7-6.5.9-8.8 4.1-12.6s12.3-10.1 12.3-10.1z"/><path opacity="0.2" d="M106.5 196s2.1-3.1 2.4-5.1c.3-2 1-9.3 1.6-10.9.6-1.7.8-4.8 1.9-7.1 1.1-2.3 7.4-16.2 7.4-16.2s-.9 6.4-3 11.3c-.8 1.9-2.5 3.9-2.5 9.6 0 5.6-2.8 11.4-3.4 12.7-1.6 3.4-1.5 7-1.5 8-1.8-.6-2.9-1.1-2.9-1.1V196s0 .1 0 0z"/></g><metadata><rdf:RDF xmlns:rdf="http://www.w3.org/1999/02/22-rdf-syntax-ns#" xmlns:rdfs="http://www.w3.org/2000/01/rdf-schema#" xmlns:dc="http://purl.org/dc/elements/1.1/"><rdf:Description about="https://iconscout.com/legal#licenses" dc:title="people" dc:description="people" dc:publisher="Iconscout" dc:date="2017-09-20" dc:format="image/svg+xml" dc:language="en"><dc:creator><rdf:Bag><rdf:li>Icograms</rdf:li></rdf:Bag></dc:creator></rdf:Description></rdf:RDF></metadata></svg>