<?xml version="1.0" encoding="UTF-8"?><svg xmlns="http://www.w3.org/2000/svg" xmlns:xlink="http://www.w3.org/1999/xlink" version="1.1" id="Layer_1" x="0px" y="0px" viewBox="0 0 240 240" xml:space="preserve"><path opacity="0.2" d="M119.4 180.6c14.5 8.7 25 3.3 40.8-3.7 17.5-7.7 27.1-19.8 18.5-24.9-8.6-5.1-22.6-1.2-37.5 4.9-13.8 5.6-31.1 18.2-21.8 23.7z"/><path opacity="0.2" d="M23.4 206.9c-9.5 5.8-10.2 12.8 2.1 19.4 13.5 7.2 21.4 5.7 31.9-.4 9.2-5.3 7.1-12.5-8.4-18.7-12.5-5-18.8-4.4-25.6-.3z"/><path fill="#FBD7C7" d="M11.7 114.9c.2 6.2 2.3 21.9 3.8 26.3s3.2 11.2 2.5 14.8-3 9.6-1.7 18c1.4 8.3 5.5 21.2 4.6 26.9-.9 5.7-2.7 8.4-.8 10.1 1.9 1.7 2.9 3 6.6 2.8 3.6-.2 4 .2 6.6 1.5 2.6 1.3 9 .5 9.4-1.8.4-2.3-7.5-1.3-9.1-4.1-1.7-2.8-4.3-9.3-3.4-15.6.9-6.3 2.9-23.1 2.9-28.2.1-3.8 2.4-17.3 4.3-24.6 2.5-9.3 4.3-29.6 4.3-29.6l-26.3-9.6c0-.1-3.9 6.1-3.7 13.1z"/><path fill="#E5E5E5" d="M19.9 205.3s3 1.4 5 2.2c2.7 1.2 7.6-.8 7.6-.8s.8 2.3 2.2 2.6c1.4.3 6.6-.5 7.8.1 1.2.6 4.6 1.6 2.2 3.5-2.4 1.8-7.9 4.4-10.4 3.9-2.6-.5-7.2-1.8-8.4-1.4-1.2.4-.5 4.5-.5 4.5l-2 1-2.4-1.2s0-1.4-.3-3c-.4-1.6-2.1-2.3-2.1-5.2-.1-2.9 1.3-6.2 1.3-6.2z"/><path opacity="0.4" d="M18.5 211.9c.1 2.6 1.7 3.3 2.1 4.7.4 1.6.3 3 .3 3l2.4 1.2 2-1s-.7-4.1.5-4.5c1.2-.4 5.9.9 8.4 1.4 2.6.5 8-2 10.4-3.9.7-.5.9-1.1.8-1.6-1.4 1.1-6.1 5.5-14.1 3.5-4.7-1.1-7.8-.9-12.8-2.8z"/><path fill="#FBD7C7" d="M30.3 110.3s-4.7 7.4-2.9 14c1.8 6.7 3.7 8.3 3.7 8.3s1.4 7.9 2.6 11.2c1.2 3.3 4.6 13.3 4.3 15.2-.3 1.9-3.9 10.6-3.5 17s1.9 20 2.4 25.5c.4 5.3.8 6.7-.2 9.3-1 2.7-3.4 7.2.8 8.6s6.3-.1 9.3 2c3 2.1 8 2.8 9.8.5s-3-3.3-3.7-3.5-4.3-4.4-5.1-9.6c-.9-5.9.1-19.1 1.5-24.5 1.4-5.4 1.4-14.1 1.7-16.5s5.9-16.9 5.9-25.6-3.8-26.1-3.8-26.1l-22.8-5.8z"/><path fill="#E5E5E5" d="M36.3 211.3s3.3 1.2 5.8 2.3c1.5.6 4.5.5 5.4.3.9-.3 2-.7 2-.7s1.3 3.5 2.3 3.8c.9.3 4.3-.7 6 1.1 1.8 1.8 1.3 2.8.4 3.9-.9 1-4.4 3.5-7.1 3-1.9-.4-7.9-2.7-9.1-2.5s-.7 4.6-.7 4.6l-2.3 1.1-2-1s-.1-2.1-.7-3.6c-.7-1.4-1.9-3.1-1.9-6.2s1.9-6.1 1.9-6.1z"/><path opacity="0.4" d="M58.9 219.8c-.1 1.9-5.3 4.8-7.6 4.1-6.9-2.1-12.6-3.9-16.9-6.3 0 3 1.3 4.6 1.9 6 .7 1.4.7 3.6.7 3.6l2 1 2.3-1.1s-.6-4.4.7-4.6c1.2-.3 7.2 2.1 9.1 2.5 2.6.5 6.2-2 7.1-3 .6-.7.9-1.3.7-2.2z"/><path fill="#06547A" d="M27.7 113.7s-16-3.2-16.1-2.3c-.6 7.1-.4 16.8 1.2 22.9 1.7 6.8 3.5 16.5 2.9 22.1-.7 5.6-.8 14.9.1 22.6.9 7.7 1.8 15.7 1.8 15.7s3.5 2 7.6 2 6.8-1 6.8-1 1.3-20.6 1.6-25.9c.3-5.4 2.1-19.2 2.1-19.2s.8-16.5-.7-21.7c-1.4-5.4-7.3-15.2-7.3-15.2z"/><path opacity="0.15" d="M27.7 113.7s-16-3.2-16.1-2.3c-.6 7.1-.4 16.8 1.2 22.9 1.7 6.8 3.5 16.5 2.9 22.1-.7 5.6-.8 14.9.1 22.6.9 7.7 1.8 15.7 1.8 15.7s3.5 2 7.6 2 6.8-1 6.8-1 1.3-20.6 1.6-25.9c.3-5.4 2.1-19.2 2.1-19.2s.8-16.5-.7-21.7c-1.4-5.4-7.3-15.2-7.3-15.2z"/><path fill="#06547A" d="M36.3 159.2c-.8 4.8-2.5 9.4-2.5 16 0 6.5 1.2 25.5 1.2 25.5s3.4 1.3 7.2 1.4c3.8.1 8.6-1.2 8.6-1.2s-.3-20.3.3-24.4c.5-4.1 2.7-13 4.6-22.3 2.4-11.4 1.4-21.7 0-27.9-1.4-6.2-2.6-11.8-2.6-11.8s-3.1-1.8-7.5-4l-21.1 1s-2.3 15.7.1 20.6c2.6 5.4 5.3 5.5 7.3 9.2 2.4 4.3 3.8 9.2 3.8 9.2s1.4 3.8.6 8.7z"/><path fill="#825012" d="M150.7 144.6c.5 2.2-.1 6.2-.5 7.6-.8 2.6-.8 4.9.1 5.8 1.4 1.5 3.9 1.5 5.5 1s2.9-2.3 2-3.6c-.9-1.3-2.3-1.5-2.3-1.5s.4-1.8.8-4c.5-2.5.3-5.8.3-5.8l-5.9.5z"/><path fill="#825012" d="M134 146.5c-.7 3.5-2.6 7.7-4.9 10.6-2.2 3-3.5 4.5-4 6.3-.4 1.5-1.2 6.6-.6 7.1s2.3.4 2.9 2.9c.4 1.6-2.5 3.1-4.7 2.9-2.1-.2-4.3-1.2-4-4.8.3-3.6 3.5-26.6 3.5-26.6l8.2-2 3.6 3.6z"/><path opacity="0.2" d="M150.7 144.6c.5 2.2-.1 6.2-.5 7.6-.8 2.6-.8 4.9.1 5.8 1.4 1.5 3.9 1.5 5.5 1s2.9-2.3 2-3.6c-.9-1.3-2.3-1.5-2.3-1.5s.4-1.8.8-4c.5-2.5.3-5.8.3-5.8l-5.9.5z"/><path opacity="0.2" d="M134 146.5c-.7 3.5-2.6 7.7-4.9 10.6-2.2 3-3.5 4.5-4 6.3-.4 1.5-1.2 6.6-.6 7.1s2.3.4 2.9 2.9c.4 1.6-2.5 3.1-4.7 2.9-2.1-.2-4.3-1.2-4-4.8.3-3.6 3.5-26.6 3.5-26.6l8.2-2 3.6 3.6z"/><path fill="#825012" d="M182.5 92.9s3.9-3.3 4.2-7.1c.2-3-.1-5.2-.9-5.8-.8-.6-2.7-1.1-4.7.1-2 1.2-3 1.9-3.6 1.7-.6-.2-1-2-3.3-1.3s-3.9 1.4-5 1.3-2.5-1-4.7 1-5.5 6-5.5 7.6c0 1.6 3.1 2.9 3.1 4.2.1 1.3-2.1 7.9-6.9 14.1-4.9 6.4-6.6 8.7-13.3 11-6.7 2.3-13.9 4.9-17.3 10.5s-3.2 9.4-3.6 12.4c-1.1 7.6-3.9 15.2-8.3 21.9-1.3 1.9-2.1 5 1.8 1.9 3.9-3.1 6.7-8.4 7.3-9.7.6-1.3 5.6-11.3 7.8-10.8 2.3.5 5.5 5.6 5.9 8.8.4 3.3.1 7.9-1 10.2-1.3 2.9-2.4 6.8-2.4 10.2s.6 6 2 7.2c2 1.6 5.6.7 6.8-.2 1.2-.9.9-3.1-.6-3.9-1-.6-2.1-.7-2.3-1.5-.3-.8.1-4.9 1.7-7.7 1.4-2.4 6.3-10.1 8.3-15.9 2-5.9 2.2-7.3 2.2-7.3s6.4 0 9.7-2c3.8-2.3 5.6-5.9 6.9-5 1.3.9 1.9 11.6 1.2 16.5-.4 3.1-3.4 6-1.8 9.2 1 1.9 4.5 2.3 6.6 1.5 2.1-.8 2.1-2.8 1.5-3.6s-2.6-1.4-2.6-1.7 1.3-2.3 1.8-4.4c1.1-4.7 1.4-13.4 3.5-19s3.6-13.1 3.2-17.6c-.4-4.5-2.3-4.7-2-9.8.3-5.1 2.1-8.9 2.1-8.9s1.1.1 1.8-.2c.9-.6.4-7.9.4-7.9z"/><path fill="#262626" d="M182.4 79.5c1.3 0 3.8 1.4 4.2 2.9 1.6-.8-.5-6.2-4.2-2.9z"/><path fill="#262626" d="M181.9 84.5c.2.9-.3 2.8-.3 2.8s.9-1.1.8-1.9c0-.7-.5-.9-.5-.9z"/><path opacity="0.2" d="M163.2 91.6s-.9.3-1.9.1c-.8-.1-1.6-.6-2.2-1 .3 1.4 3 2.7 3.1 3.9.5-1.6 1-3 1-3z"/><path opacity="0.2" d="M174.1 96.3c2.3 3.7 5.5 5.2 7.8 4.4.1 0-4.1-.4-7.8-4.4z"/><path fill="#262626" d="M36.9 112c-.3 0-.6-.2-.6-.5s.2-.6.6-.6l122.9-9c.3 0 .6.2.6.5s-.2.6-.6.6l-122.9 9z"/><path fill="#FBD7C7" d="M17 62.4s-3.7 13-3.7 15.7c0 2.7 5.4 15.9 5.8 16.8.4.9 5.2-4.1 5.2-4.1s-2.9-8.4-2.9-10.8c0-2.4 1.8-8.2 1.8-8.2L17 62.4z"/><path fill="#939" d="M33.2 50c-1.3-.2-9-3.4-12.8-1.5-2.7 1.3-3.9 3.6-4 5.7-.1 1.7.4 5.9-.2 8.3-.3 1.3-.9 4-.9 4l2.5 1.7s1 8.5.4 14.9-3 15.7-5.1 20.4c-2.2 5.1-2.5 9.6-2.5 16.1 0 8 17.5 12.8 25.5 13 7.7.1 22.8-1.3 22.5-7.6-.8-14.9-4-38.2-2.3-41 1.7-2.8 4-7.2 1-11.9s-5.6-6.7-5.9-7.7c-.3-1-.2-3-2.4-5.1-2.3-2.6-8.6-8.2-15.8-9.3z"/><path fill="#FBD7C7" d="M29.8 22.7c6.9-1.6 14.3.7 15.6 10.3s-1 11.7-2.1 12.4c-1.1.7-2.4 3.3-2.9 4.9-.5 1.6.2 2.6.2 2.6s-7.7 4.5-12.4 2.7c-4-1.5-4.5-3.5-2.8-6.6 1.6-3.1-2.3-5-3.5-9.6s-1.3-14.6 7.9-16.7z"/><path fill="#656565" d="M38.7 20.7c3.5 1.1 6.4 6 6.4 6l-2.6-1.5 2.5 3.7-2.3-1.6 2.2 5-1.4-.7s.8 1.8.3 4.6c-.3 1.9-1.4 3.4-1.4 3.4v-3.4s-.3 4.4-2.5 7.4c0 0 1-4.5.6-5.2-.5-.7-1 1.6-1 1.6l-.7-2-.4 2.1-1.8-.9s.6 2.2-1.1 5.6c-1 2-3.9 4.8-3.9 4.8l.9-4.3-3.6 6.3-.9-3.4-.6 2.4-.6-1.8-.8 2s-.9-3.6-1.3-4.4c-.3-.7-.8.7-.8.7L22 42.5l-.7 1.4-.8-5.4-.6 1.1-.6-5.6-1.1 1.2s.2-5.4 1.9-7.7c1.2-1.7 2.4-2 2.4-2l-1.7-.1s2.7-3.9 7-4.4c3.7-.5 4.1.3 4.1.3s2.6-1.9 6.8-.6z"/><path opacity="0.15" d="M55.5 80.6c-3.2 1.3-5.6.6-5.6.6s-.4 2.2-.4 4.2c0 1.2.1 3 .1 3s3.7-2 6.7-4.5c0 0 0-.1.1-.1.9-1.5 2-3.4 2.3-5.6-.8 1-1.9 1.9-3.2 2.4z"/><path fill="#FBD7C7" d="M39 79.3s3.8.9 6.4.5 4.9-1.4 4.9-1.4-.6 5.3-.5 9.3c.1 3.9-.2 7.3 1.7 11.8 1.9 4.5 3.1 12.6 4.3 15.1 1.2 2.5 5.2 7.9 5.2 10.1s0 7.3-.8 8.6c-.8 1.2-4 4.4-5.4 3.8-1.4-.6-.9-5.5-.9-6.3s.8-4.1.2-5.2-8.8-12.9-10.4-16.8c-1.6-3.9-4.4-11.7-4.6-18.1-.1-6.4-.1-11.4-.1-11.4z"/><path fill="#262626" d="M159.9 100.3s5 2.4 9.6 3.2c5.1.9 9.7.9 9.7.9l-.8 3.3s-3.1.6-9.4-.6c-5.1-1-10.9-3.4-10.9-3.4l1.8-3.4z"/><metadata><rdf:RDF xmlns:rdf="http://www.w3.org/1999/02/22-rdf-syntax-ns#" xmlns:rdfs="http://www.w3.org/2000/01/rdf-schema#" xmlns:dc="http://purl.org/dc/elements/1.1/"><rdf:Description about="https://iconscout.com/legal#licenses" dc:title="people" dc:description="people" dc:publisher="Iconscout" dc:date="2017-09-20" dc:format="image/svg+xml" dc:language="en"><dc:creator><rdf:Bag><rdf:li>Icograms</rdf:li></rdf:Bag></dc:creator></rdf:Description></rdf:RDF></metadata></svg>