<?xml version="1.0" encoding="UTF-8"?><svg xmlns="http://www.w3.org/2000/svg" xmlns:xlink="http://www.w3.org/1999/xlink" version="1.1" id="Layer_1" x="0px" y="0px" viewBox="0 0 160 240" xml:space="preserve"><path opacity="0.2" d="M99.9 231.4c26.9-13.2 1-17.9-14.1-26.3-20.8-11.6-27.5-15.7-43-6.1-17.1 10.6.2 17.9 16.1 25.3 18.1 8.4 25 14.9 41 7.1z"/><path fill="#FBD7C7" d="M51.8 79.6c-.1 6-1.4 12.5-2.9 17.5s-1 10.7-.5 11.7 1.8 4.7 2 5.6c.3.9 1.6.9 1.8-.8.3-1.6-.4-5 .2-6s2.3-.1 2.7-2.4-2.8-5.8-2.4-7.5c.5-1.7 5.1-5.6 5-8.4-.1-2.7.1-9.2.1-9.2l-6-.5z"/><path fill="#262626" d="M52.9 194.7c-2.2 2.3-5.1 5.4-8.1 7-3 1.6-5.8 3.8-5.3 6s3.9 4.6 10.1 3c3.7-.9 5.3-4.4 7.9-5.1 2.6-.7 6.5-2.3 6.8-3.6.3-1.4.3-5.2.3-5.2l-11.7-2.1z"/><path fill="#262626" d="M91.4 214.2c-1 2.5-2.7 5.6-5.3 8.1-2.7 2.6-4.7 6.3-3.2 8.1 1.5 1.9 8.1 2.5 11.4.6 3.2-1.9 10-7.7 10.5-8.8.5-1.2-.1-6.2-.1-6.2l-13.3-1.8z"/><path opacity="0.5" d="M64.2 201.9c.1-.4.1-.9.2-1.5-1.3 1.1-4.3 2.5-7.1 3.3-3.4.9-5.8 4.8-9.4 5.9-3.2.9-8-.5-8.4-3.3-.2.5-.2.9-.1 1.4.5 2.2 3.9 4.6 10.1 3 3.7-.9 5.3-4.4 7.9-5.1 2.6-.7 6.5-2.3 6.8-3.7z"/><path opacity="0.5" d="M104.7 222.2c.2-.4.2-1.2.2-2.2-1.1 1.5-3.6 3.6-5.4 5.4-2.2 2.1-5.5 5-9.6 5.5-3.2.4-6.3-.2-7.6-2.5-.1.8 0 1.5.5 2.1 1.5 1.9 8.1 2.5 11.4.6 3.3-1.9 10.1-7.7 10.5-8.9z"/><path fill="#06547A" d="M53.8 102.1s-3 9.5-4 23.3.6 35.7.6 46.6c0 10.9 1.1 19.3.4 21.4-.7 2.1-1.2 3.3 0 3.3s5.9 2.2 8.7 2.7c2.8.6 5.1 1 5.7-.9.6-1.9 3-23.8 2.7-31.2s.2-12.8 2-19.3 5.3-26.9 5.3-26.9l.3-13.9-21.7-5.1z"/><path opacity="0.2" d="M53.8 102.1s-3 9.5-4 23.3.6 35.7.6 46.6c0 10.9 1.1 19.3.4 21.4-.7 2.1-1.2 3.3 0 3.3s5.9 2.2 8.7 2.7c2.8.6 5.1 1 5.7-.9.6-1.9 3-23.8 2.7-31.2s.2-12.8 2-19.3 5.3-26.9 5.3-26.9l.3-13.9-21.7-5.1z"/><path fill="#06547A" d="M62.7 105.2c-.1 1.4.3 20 1.5 23.5 1.2 3.4 5.1 5.3 7.9 13.3 2.7 8 3.5 15.3 6.2 23.8 2.7 8.4 10.1 36.2 10.6 41.9.5 5.7-.5 8.7.4 9.3 1.6 1 3.6 1.8 5.8 2.4 2.3.7 7.5 1.1 9.6-.1 2.2-1.3 2.6-2.3 1.8-7.3s-3.2-25.2-5.2-32.3-6.2-33.6-6.5-42.1c-.3-8.5.5-17.2-2.8-24.3-3.3-7.1-6.4-9.4-6.4-9.4l-22.9 1.3z"/><path fill="#262626" d="M53.2 100l-.1 3.7s1.1 6 13.9 7.1c12.8 1.2 20.5-4.8 20.5-4.8l-.7-3.1s-11.1 5.3-21.7 3.7c-10.6-1.7-11.9-6.6-11.9-6.6z"/><path fill="#39C" d="M67.3 44.8c-4.6 1.6-11.1 1.3-13 6.9-1.9 5.6-5 14.7-4.3 20.5.7 5.8 2.4 12.1 2.6 15.3.1 3.2-.6 8.2.1 10.7s.8 5.1 4.9 6.9c6.1 2.7 11.7 3.4 18.7 2.4 8.1-1.1 10.7-3.3 11.3-5.4.7-2.1 1.2-5.6 2-10 .8-4.5 2.3-10.5 2.3-10.5s3.1 4.6 4.5 5.2c1.5.7 3.2.6 3.2.6s1.6 1.4 2.3 1.4c.7 0 4.5-1 7.2-2.7 2.7-1.6 3.9-2.8 3.9-3.2 0-.4-1.1-2.3-1.1-2.3s1.2-1.1.5-2.2c-.7-1-6.5-8.4-8.4-11.8-1.9-3.4-4.8-10-9.1-12.2-4.3-2.2-9.4-1.9-10.9-2.6-1.6-.7.3-3.3-.4-4.3-.7-.7-9.8-5.1-16.3-2.7z"/><path fill="#262626" d="M69.3 107.3l9 .2.6 17.3-9.4-.1z"/><path fill="#FBD7C7" d="M61.6 66.4l3.9-7.9s3.3-.9 6.2-3.5c2.9-2.6 8.6-5.4 8.6-5.4S77.4 46.9 77 44c-.3-2.9 3.1-7.1 1.8-13.9-1.2-6.7-7.1-11.5-16.4-7.4S54 41.9 56 48.5c1.9 6.6 7.3 4.3 7.3 4.3s-1.1 5.2-1.2 7-.5 6.6-.5 6.6z"/><path fill="#FBD7C7" d="M112.9 83.2s3 4 3.9 6.8c.9 2.8-3 8.7-9.8 13.3-6.7 4.6-15.4 8.9-17.3 10.3-1.9 1.4-8.5 6.7-11.2 7.4-5.4 1.4-8.2-.6-8.8-2.7-.6-2.1 6.4-5.3 7.2-6.3.8-1 0-2.8-.8-3-.8-.3-2.8-.6-3.3-2s1.2-.9 2.6-.6 4.5 1.2 5.5 1.5c1 .3 1.6 1.5 3.2.9s8.8-9.1 12.8-12.4c3.7-3.1 7.5-4.1 7.5-4.1l-2-3.3s2.6-.5 6.1-2.4c2.2-1.4 4.4-3.4 4.4-3.4z"/><path fill="#825012" d="M55.7 30c-.1 1.2.9 2.5 3.9 3.2 3.8.9 7.9-2.1 11-.2 1.7 1.1 2.3 7.2 3.3 7.2.4-1.9 1.1-3.8 2.8-3.5 1.5.3 1.3 2.2 1.2 2.9.9.4 3.8-8 .2-13.9-3.5-6-11.6-6.1-16.4-3.4s-5.9 6.5-6 7.7z"/><path fill="#06547A" d="M54.7 30.6s-5.5 4.7.2 7.5 17.8-1.6 17.8-1.6l7.5-1.6.5-1.1s3.7.4 4.5-1.4c.9-1.8-5.4-9.7-13.2-12.1s-17.6-5.2-19-1.9 2.8 8 2.8 8l-1.1 4.2z"/><path fill="#262626" d="M80.7 33.8l-.9 2s-10.7 1.5-18-1c-6.6-2.3-7.1-4.3-7.1-4.3l1-4.3s1.6 2.9 8.9 5.2c6.5 2.2 16.1 2.4 16.1 2.4z"/><path fill="#E5E5E5" d="M62.3 58.1c-.1.7-.2 1.3-.2 1.7-.1 1.8-.5 6.5-.5 6.5l3.6-7.2-2.9-1z"/><path fill="#06547A" d="M88.7 57.5s.8-1.5 1.7-2.2c.8-.6 1.7-.8 1.7-.8s-8.3-2.3-9.4-1.1c-1 1.1-.5 2.4 1.3 2.9 1.9.4 4.7 1.2 4.7 1.2z"/><path fill="#06547A" d="M93.4 74.1l-.1-3.1 1.9-.7.1-1.9 1.8-.2.5-1.8 2.8.3s-.1 1.4.4 1.9c.7.8 2.5 1.3 3 2.8.5 1.6-1.3 5.8-1.3 5.8s-4.4 1.8-5.8.8c-1.3-.9-.7-2.6-1.5-3.5-.7-.7-1.8-.4-1.8-.4z"/><path fill="#E5E5E5" d="M97.6 72.3l-.2-1.5 1.4.2.8-1.3.6 1.4 1.2-.2-.1 1.4 1.1.8-1.5.7-.1 1.7-1.2-.2-.8 1.3-.9-1.2-1.2.4.4-1.7-1.1-1z"/><path fill="#06547A" d="M65.2 73.7L81.4 79l-1.2 3.7h-9.6l-6.4-5.2z"/><path fill="#06547A" d="M57.5 70.7l-.7 2.8-5.3.8-2-4.3.7-3.7z"/><path fill="#262626" d="M53.1 101.1l2.7 4.1s-1.9 13.4-4.5 14.7-.5-12.3-.5-12.3l2.3-6.5z"/><path fill="#E5E5E5" d="M88.6 54.2l.9 1.2-1.9.9.3-.7.8-.3-.3-.5z"/><metadata><rdf:RDF xmlns:rdf="http://www.w3.org/1999/02/22-rdf-syntax-ns#" xmlns:rdfs="http://www.w3.org/2000/01/rdf-schema#" xmlns:dc="http://purl.org/dc/elements/1.1/"><rdf:Description about="https://iconscout.com/legal#licenses" dc:title="policeman" dc:description="policeman" dc:publisher="Iconscout" dc:date="2017-09-20" dc:format="image/svg+xml" dc:language="en"><dc:creator><rdf:Bag><rdf:li>Icograms</rdf:li></rdf:Bag></dc:creator></rdf:Description></rdf:RDF></metadata></svg>