<?xml version="1.0" encoding="UTF-8"?><svg xmlns="http://www.w3.org/2000/svg" xmlns:xlink="http://www.w3.org/1999/xlink" version="1.1" id="Layer_1" x="0px" y="0px" viewBox="0 0 80 240" xml:space="preserve"><path opacity="0.2" d="M66 232c26.9-13.2 1-17.9-14.1-26.3-20.8-11.6-27.5-15.7-43-6.1-17.1 10.6.2 18 16.1 25.4 18 8.4 25 14.9 41 7z"/><path fill="#262626" d="M8.8 211c-.3 1.9-.7 3.5 2 4.2 2.6.7 5.4.3 7.9-1.7s3.7-3.1 7.1-4.1 5-4 5-6.5c0-2.6-2.1-4.7-6.5-3.3s-6.8 3.3-6.8 3.3L8.8 211z"/><path opacity="0.5" d="M30.8 202.8c0-.8-.2-1.5-.6-2.2.5 2.2.3 6.4-7.5 8-2.4.5-5.8 3.7-8.3 4.5-1.9.6-4.3 0-5.7-1.1-.2 1.4 0 2.6 2.1 3.2 2.6.7 5.4.3 7.9-1.7s3.7-3.1 7.1-4.1c3.5-1 5-4.1 5-6.6z"/><path fill="#262626" d="M48.3 227.7c0 2.6-1.1 5 2.2 5.6 3.3.6 10.3-3.8 13-4.5 2.9-.8 9.9-3.6 9.9-6.1s-2.9-5.2-6.1-5c-3.1.3-9.1.7-9.1.7l-9.9 9.3z"/><path opacity="0.5" d="M73.3 222.8c0-1.4-.9-2.8-2.2-3.8 3.9 4.7-2.5 6.3-6.2 7.3-4.5 1.2-9.5 4.2-12.2 5-1.9.5-3.5-.1-4.6-.7 0 1.4.3 2.5 2.3 2.9 3.3.6 10.3-3.8 13-4.5 2.9-.9 9.9-3.8 9.9-6.2z"/><path fill="#06547A" d="M27.9 100.1c-2.6 4.5-6.9 10.8-8.6 19.8-1.7 9-1.9 28.3-4.6 40.1s-4.6 18.2-6.5 31.2c-1.9 13-2.7 19 .6 20.4 3.1 1.4 7.9.8 11.1-1.7 4.2-3.2 3.9-6.9 3.8-9.4s2.3-10.3 3.7-16.8c1.4-6.5 7.5-27.7 10.3-36.5s8.5-38.7 8.5-38.7l-18.3-8.4z"/><path opacity="0.2" d="M27.9 100.1c-2.6 4.5-6.9 10.8-8.6 19.8-1.7 9-1.9 28.3-4.6 40.1s-4.6 18.2-6.5 31.2c-1.9 13-2.7 19 .6 20.4 3.1 1.4 7.9.8 11.1-1.7 4.2-3.2 3.9-6.9 3.8-9.4s2.3-10.3 3.7-16.8c1.4-6.5 7.5-27.7 10.3-36.5s8.5-38.7 8.5-38.7l-18.3-8.4z"/><path fill="#06547A" d="M36.1 107c-1.7 3.6-7 18.6-4.6 23.9C34.7 137.7 44 168 45.2 179c.6 5.1 1.2 42 1.4 45.6s.6 5.8 4.8 6 10.4-2.9 11.1-7.8c.7-4.9 1.2-27.4 1-35.4-.2-8 .5-46.9-1.2-57.8-1.6-10.9-4.5-21.5-4.5-21.5L36.1 107z"/><path fill="#FBD7C7" d="M4.1 73.2C1.2 75.9-.7 78.4.3 81.6s5.2 7.9 11.1 10.9 8.5 2.4 11.1 5.2 3.7 3.5 5.2 3.4c1.4-.1 6.7-1 6.9-3.8.2-2.7-5.7-4.1-8.4-5.2-2.7-1-12.3-9.9-13.1-11.2-.7-1.3-9-7.7-9-7.7z"/><path fill="#262626" d="M26.7 99.6l-.2 3.3s1.6 4 9.3 6.1c7.8 2.2 18.1 2.3 20.3 2 2.2-.3 3.3-1.1 3.3-1.1l-.8-3.7s-11.1 2.7-20.3.2c-9.1-2.5-11.6-6.8-11.6-6.8z"/><path fill="#39C" d="M35.6 50.8s-2.9-1.5-4.3-.3c-1.3 1.2-.4 2.8-.4 2.8s-7.5-1.3-10.2 0c-2.7 1.3-6.6 3.9-8.3 6.6s-4.5 6.7-6.3 7.4-3.2 3.1-3.6 4.4 0 1.7 0 1.7l-1.3 2s.9 2.6 3.5 4.5c3.3 2.4 9.2 1.8 9.2 1.8s.6-1.6 2.1-1.9 4.5-4.4 4.5-4.4 2.5 13 3.3 17c.9 4 1.5 5.9 2.5 6.9s1.4 3.1 3.5 4.3c5.9 3.4 14.4 4.8 20 4.9 5.6 0 10.2-1.3 10.2-1.3s.1-8.8.6-13.2c.5-4 3.8-10.7 1.5-18.4-2.3-7.7-8.6-13.5-8.6-13.5s-.2-3.8-2.1-4.9c-1.9-1.1-8.1.4-12.7-1.1s-5.1-2.9-5.1-2.9l2-2.4z"/><path fill="#FBD7C7" d="M33 54.2s3.4-3.2 3.4-6.8c0-3.6-4.3-11.8 0-18.1s15.7-7.7 20.2.6c4.7 8.6 0 20.2-1.5 21-1.5.8-3.9.1-4.5.6s-.6 4.1-.5 5.6-7.4 2.8-11.5 2.2-5.6-5.1-5.6-5.1z"/><path fill="#825012" d="M36.2 45.9c.4 1.2 2.7 3.3 6.1 3.1 3.4-.3 6.9-3.2 7.5-5.5.7-2.3 1.2-4.4 2.7-4.1 1.4.3.3 1.8.9 1.8s4.8-7.9 4.3-9.8c-.3-1.2-1.4-4.6-5.7-7-4.5-2.4-15.1-2.3-17.4 7.4-1.5 6.4 1.6 14.1 1.6 14.1z"/><path fill="#06547A" d="M56.4 33.6s4.7-1 4.8-3.1c.1-2.1-4.2-2.3-4.2-2.3s2.5-11.6-5.7-12.2c-8.2-.6-12.1 6.2-16.1 9.6S27 35.9 29.5 38.1s4.1 1.4 4.6 2.6c.6 1.2 7.1 1.8 10 .6 2.8-1.1 12.3-7.7 12.3-7.7z"/><path fill="#262626" d="M34.8 42.1s10.7 2.4 17.2-3.3 5.4-10.5 5.4-10.5l-.4-.5s-1.1 7.1-8 10.5-15 2.4-15 2.4l.8 1.4z"/><path fill="#06547A" d="M54.4 73.2s1-.5 2.7-.8c.9-.1 1.9.1 1.9.1s-.6-2.6-2-4.8c-1.3-2.1-4.5-5.6-7-4-2.6 1.6 1.3 2.2 3 5.3 1.3 2.4 1.4 4.2 1.4 4.2z"/><path fill="#06547A" d="M49.4 82.1l2.1-1.5 1.7.7 1.3-.6.8 1.2 1.7-.1 1.5 2.6s-1.1.7-1.1 1.4c0 .6 1.1 2.3.2 3.6-.9 1.3-5.2 2.1-5.2 2.1s-3.6-2.7-3.7-4.3c-.1-1.6 1.3-2.6 1.3-3.4 0-1-.6-1.7-.6-1.7z"/><path fill="#E5E5E5" d="M51.8 85.2l-1.7.4 1.3 1.1-.6 1.2 1.5-.1.6 1.6 1-1 1.5.6-.2-1.3 1.5-.4-1.4-1 .7-1.4-1.5.2-.6-1.5-1 .9-1.6-.9z"/><path fill="#262626" d="M26.8 103.3l6.2 3.9-2.1 5-5.8 1.5-.9-5.4z"/><path fill="#262626" d="M54.3 114.2l.7 9.2 6.5-.2-1.2-7.7 2.7-5.9-.7-6.6-2.9.1v4.4z"/><path fill="#FBD7C7" d="M46.7 100.5s4.9.2 7.2.3c2.5 0 3.8.2 3.8.2l.5 3.2s.7 1.1 2.1 2c1.4.9 1.7 2 1.7 2s2.6-.3 3.1 3.6-.1 5.6-1 6.5-2.7 2.7-3.3 2.5-.1-1.9-.7-2.4-.3-1.4-.7-1.5-6.8-2.4-9.1-5.7c-2.8-4-3.6-10.7-3.6-10.7z"/><path fill="#E5E5E5" d="M54.5 70.1l2 1.5.8-2.1h-.7l-.4 1.2-1-.8z"/><metadata><rdf:RDF xmlns:rdf="http://www.w3.org/1999/02/22-rdf-syntax-ns#" xmlns:rdfs="http://www.w3.org/2000/01/rdf-schema#" xmlns:dc="http://purl.org/dc/elements/1.1/"><rdf:Description about="https://iconscout.com/legal#licenses" dc:title="policeman" dc:description="policeman" dc:publisher="Iconscout" dc:date="2017-09-20" dc:format="image/svg+xml" dc:language="en"><dc:creator><rdf:Bag><rdf:li>Icograms</rdf:li></rdf:Bag></dc:creator></rdf:Description></rdf:RDF></metadata></svg>