<?xml version="1.0" encoding="UTF-8"?><svg xmlns="http://www.w3.org/2000/svg" xmlns:xlink="http://www.w3.org/1999/xlink" version="1.1" id="Layer_1" x="0px" y="0px" viewBox="0 0 80 240" xml:space="preserve"><path opacity="0.2" fill="#262626" d="M15.2 202.4c-11.4 2.8-1.1 16.8 13.9 21.1 13.3 3.8 25.9 17 39.3 9.1 12.5-7.4-5.7-20.7-17.1-21.3-20.2-1.2-31.7-10-36.1-8.9z"/><path fill="#FBD7C7" d="M28.7 66.2l-7.7 9 10.6 13.1 15.2-6.5-.6-9.4-9.4-5z"/><path fill="#2D3134" d="M51.6 219.3s2.2 4.7 3.4 6.4c1.2 1.7 5.5 6.6 10.4 5.3s1.6-7.2 1.6-7.2l-6.9-6-8.5 1.5z"/><path fill="#FFF" d="M54.2 220.9c.9 1.9 2.1 4.1 3.7 5.5 1.6 1.5 3.8 3.1 6.4 3.2 2.5 0 3.5-1.3 3.7-2.3.3-1.6.3-3-2.6-5.3-2.8-2.3-3.6-3.3-3.7-4.3-.1-.9-7.5 3.2-7.5 3.2z"/><path fill="#2D3134" d="M11.9 202.9c1.2 2.9 2.3 8.5 5.1 10.9 1.7 1.5 5.6 3.1 8.2 2.8s3.9-1.2 4-2.5c.1-1.3-1.3-4.2-4.6-6.6-3.3-2.4-6.6-4.5-6.6-4.5l-6.1-.1z"/><path fill="#FFF" d="M14.5 205.7c.9 2.5 1.8 5 3.1 6.4 1.5 1.5 5 3.1 7.5 3 2.3 0 3.3-.7 3.7-1.2.6-.5.9-1.8-.2-3-1-1.2-3.3-2.8-4-4.4-.8-1.5-1.4-3.1-1.4-3.1l-8.7 2.3z"/><path fill="#FBD7C7" d="M48.7 81l3.2-1s.1 3.5-.8 12.1c-.5 5.2-1.8 11-1.8 11s1.4 2.4 2.7 6.6c1.2 4.1 2.3 11.2 3.2 13.3.9 2.1 3 5.1 3.1 5.8.3 1.3-.8 3.4-1.3 3.7-2 1.1-4.3 1-5.5.1-1.1-.8-2.6-4.2-2.5-4.4.6-1.2 1.9-.6 2-.4.1.1-.9-2.9-.8-3.8.1-.9.2-.7.2-1.3 0-.6-9.2-19.3-9.2-19.3L48.7 81z"/><path fill="#CC291F" d="M49.9 121.7s6.8 11 8.5 23.9c1.7 12.9 3.8 18.4 3 24.3-2.1 16.9 2.9 48.9 2.1 50.2-1.2 1.9-2.8 2.8-7.3 2.1-5.6-.9-6-6.5-6-6.5s.3-11.5.1-17.2c-.2-5.7-3.7-10.8-3.5-22.3.1-5.2 2-9.2.5-11.8-1.5-2.7-16.1-32.6-16.1-32.6l18.7-10.1z"/><path opacity="0.2" d="M49.9 121.7s6.8 11 8.5 23.9c1.7 12.9 3.8 18.4 3 24.3-2.1 16.9 2.9 48.9 2.1 50.2-1.2 1.9-2.8 2.8-7.3 2.1-5.6-.9-6-6.5-6-6.5s.3-11.5.1-17.2c-.2-5.7-3.7-10.8-3.5-22.3.1-5.2 2-9.2.5-11.8-1.5-2.7-16.1-32.6-16.1-32.6l18.7-10.1z"/><path fill="#CC291F" d="M42.9 125.2s1.4 11.9-1 16.7c-2.5 4.7-4 12.5-4.6 19.9-.6 7.4-.2 10.8-4.4 15.2-4.2 4.4-7 10.1-8.2 16.7-.9 5.2-.8 11.6-.8 11.6s-2.9 3.4-7.5 1.9-5-5.3-5-5.3.9-6.4 1.6-10.7c.9-4.8 2.5-12.8 4.4-16.2 1.9-3.4 4.2-5.4 4.4-8.8.2-3.4-5.5-18.8-4.2-33 1.3-14.2 7-17.8 7-17.8l18.3 9.8z"/><path fill="#FC0" d="M49.7 81.2s2.2 0 3-.5c.8-.6.2-7.9-3.5-9.6-3.7-1.7-6.7-2-8.2-1.6s-.9.5-.9.5 5.9 10.9-2.8 13.4c-7.6 2.1-13.7-10.8-13.7-10.8s-8.9.6-11.3 4.7C10 81.4 10.8 87 10.8 87s3.3.5 5.7.5c2.6 0 3.3.2 3.3.2s-1.4 1-.7 6.1c.8 5.1 3.5 15 2.7 18.9s-1.8 9.6-2.4 11.6c-.6 2-1.5 5.2-1.5 5.2s11.3 9.5 24.4 3.9c11-4.7 10-7.9 10-7.9s-3.1-10.4-3.8-13.6c-.7-3.2-.7-13.1-.7-13.1s4.2-3.1 4-7.2c-.2-4.1-2-6.1-2-8.3s-.1-2.1-.1-2.1z"/><path opacity="0.2" fill="#262626" d="M51.8 90.9s-.6 6-12.3 8.4c-17.5 3.5-20.2-4.6-20.2-4.6s2.5 10.6 19.6 7.4c14.7-2.9 12.9-11.2 12.9-11.2z"/><path fill="#FBD7C7" d="M11.1 87l8.5.5s.4 9 .3 13.1c-.1 4.7-1.6 10-1.4 11.9.2 2.2.1 10.4.1 13.2s-.5 4 0 4.8c.5.9 2.6 1.3 2.2 3.1-.3 1.8-1.2 4.1-1.2 4.1s1.6 2 1.8 2.6.4 3.1-.5 3.3c-.9.2-1.4.4-1.8.1-.3-.2-2.1-1.1-2.3-1.2s-.9-.9-.9-.9-.9 0-1.4-.2c-.5-.2-1.9-1.4-1.8-2.4.1-.9 1.8-6.1 1.6-7-.3-.9-3.8-18.3-3.7-19.8 0 0 .6-8.1.6-12.6.1-4.4-.1-12.6-.1-12.6z"/><path fill="#825012" d="M38.9 69.6c2.6 5.7 9.6 1.5 9.7-1-2.7 0-3.7-2.6-3.7-4.5S48.4 43 34.7 42.4s4.2 27.2 4.2 27.2z"/><path fill="#FBD7C7" d="M37.4 48c1.5 1.5 5.6 6.7 5.6 6.7s-.1 14.9-4.4 16.2c-1.8.5-5.1.5-8.7-2-3.6-2.5-4.4-4.2-4.5-11.3-.1-11.1 6-15.6 12-9.6z"/><path fill="#825012" d="M32.5 42.4c1.2.1 6.9 2.4 7.1 6.6.4 7.4-7.3 13.8-8.9 16.6-2.7 4.9 4.5 5.5 4.5 5.5s-4.8 7.8-12.1 6.4-8.4-5.8-6.3-10.3c2.6-5.4 2.6-8.2 4.9-17.1 2.1-7.8 9-7.9 10.8-7.7z"/><metadata><rdf:RDF xmlns:rdf="http://www.w3.org/1999/02/22-rdf-syntax-ns#" xmlns:rdfs="http://www.w3.org/2000/01/rdf-schema#" xmlns:dc="http://purl.org/dc/elements/1.1/"><rdf:Description about="https://iconscout.com/legal#licenses" dc:title="basicwoman" dc:description="basicwoman" dc:publisher="Iconscout" dc:date="2017-09-20" dc:format="image/svg+xml" dc:language="en"><dc:creator><rdf:Bag><rdf:li>Icograms</rdf:li></rdf:Bag></dc:creator></rdf:Description></rdf:RDF></metadata></svg>