<?xml version="1.0" encoding="UTF-8"?><svg xmlns="http://www.w3.org/2000/svg" xmlns:xlink="http://www.w3.org/1999/xlink" version="1.1" id="Layer_1" x="0px" y="0px" viewBox="0 0 80 240" xml:space="preserve"><path opacity="0.2" d="M38.9 234.9c5.7.4 17.8-11.4 17.8-14.3s-3.6-6.2-12.4-5.9c-5.7.2-9.2-5.7-14.6-5.4s-9.7 5.4-10.3 8.1c-.5 2.7 2.7 5.9 8.6 10.3 6 4.2 2.5 6.6 10.9 7.2z"/><path fill="#FFF" d="M37.2 229.7s.5 3.6 4.8 2.6 11.6-7.2 11.9-10c.3-2.8.7-5.7-3-5.8s-13.9 1.6-13.7 13.2z"/><path fill="#262626" d="M42 232.2c4.3-1 11.6-7.2 11.9-10 .1-1.1.2-2.2.1-3.2-.6 2.6-3.2 5.6-7.6 9.1-3.2 2.6-6.8 3-8.6 3.1.7.8 1.9 1.6 4.2 1z"/><path fill="#CC291F" d="M25.4 125.1s-4.5 9.1-3.1 16.5 8.4 22.7 7.2 27.2c-1.2 4.5-3.4 17.4-3.2 26.5.1 9.1-2.2 13.6-1.1 15.8 1.1 2.2 2.7 6.2 7.3 5.4s6.2-2.6 6.2-2.6 2.3-41.6 2.3-45.8-2.3-40.9-2.3-40.9l-13.3-2.1z"/><path opacity="0.2" d="M25.4 125.1s-4.5 9.1-3.1 16.5 8.4 22.7 7.2 27.2c-1.2 4.5-3.4 17.4-3.2 26.5.1 9.1-2.2 13.6-1.1 15.8 1.1 2.2 2.7 6.2 7.3 5.4s6.2-2.6 6.2-2.6 2.3-41.6 2.3-45.8-2.3-40.9-2.3-40.9l-13.3-2.1z"/><path fill="#CC291F" d="M31.7 127s-6.4 8.1-4.2 16.9c2.2 8.8 5.5 10.9 7.2 17.2 1.6 6.2 4.2 12.7 3.2 17.3-.9 4.6-4.9 12.3-4.2 20.9.7 8.6.5 21.5-.3 25.3-.8 3.8 2.2 7.2 5.7 7.2s9.6-5 9.9-6.9c.3-1.9-.4-3.6-1.2-5.5-.8-1.9-2.2-10.5-.1-20.1 2-9.6 4.1-18.5 4.5-24.3.4-5.8 3.4-12.6 2.3-23.5s-3.9-21.1-3.9-21.1L31.7 127z"/><path fill="#FBD7C7" d="M15 84.6s-.1 7.3-1.6 12.4-3.1 10.7-1.8 13.4 8.2 5.8 10.3 9.5 4.6 7.4 4.6 7.4l2.3-7.4s-5.5-8.2-7.2-10c-1.6-1.8-2.6-3.4-2.6-3.4l2.4-5.8L17.8 85l-2.8-.4z"/><path fill="#FC0" d="M28.9 78.5s-6.6-2.4-10.8-.8-3.9 7.4-3.9 7.4l1.5 1.1s2 4.9 2 8c0 3.1 4.1 12.4 5 18.4.9 5.9 2.2 9.3.8 12.7-1.4 3.4-1.9 7.7-1.9 7.7s.7 2 7.4 4.2c8.5 2.7 23 3.6 23.5 2.4.5-1.1-1.1-10.4-1.7-15.3s-1.5-15.7-.7-16.9 3.9-4.3 3.6-7.3c-.3-3-1.9-5.1-4.7-7.3-2.8-2.2-5.1-9.2-7.3-9.7-2-.6-12.8-4.6-12.8-4.6z"/><path fill="#825012" d="M39.5 48.5c5.3 0 11.4.9 11.8 13.9.4 13 3.2 13.6 2.4 17.8-.8 4.2-4.3 8.4-18.2 7.7s-15.3-6.6-14.6-9.7c.7-3.1 4.6-8.8 5.4-15 .8-5.9 2.8-14.7 13.2-14.7z"/><path fill="#FBD7C7" d="M38.4 101s1.8 1.3 4.3 1.8c2.4.5 6.1.3 6.1.3s-3.5 9.6-5.7 13c-2.2 3.4-3.1 6.6-3.1 6.6s2.2 2.2 4.5 6.1c2.3 3.9 6.2 10 7.3 10.3 1.1.3 1.9-.1 3.4 1.6 1.5 1.8 5.8 6.1 4.9 6.5-.9.4-3.2-1.3-3.2-1.3s1.8 3 1 3.6-3-1.8-3-1.8.9 1.6.2 2.1-.9.2-.9.2-.4.8-1.3.5c-.9-.3-3.9-4.3-4.8-6.1-.9-1.8-2.2-4.5-3.7-6.2-1.6-1.8-12.4-11-12.2-14.1.3-3.1 2-12.7 4-17.2 1.9-4.7 2.2-5.9 2.2-5.9z"/><metadata><rdf:RDF xmlns:rdf="http://www.w3.org/1999/02/22-rdf-syntax-ns#" xmlns:rdfs="http://www.w3.org/2000/01/rdf-schema#" xmlns:dc="http://purl.org/dc/elements/1.1/"><rdf:Description about="https://iconscout.com/legal#licenses" dc:title="basicwoman" dc:description="basicwoman" dc:publisher="Iconscout" dc:date="2017-09-20" dc:format="image/svg+xml" dc:language="en"><dc:creator><rdf:Bag><rdf:li>Icograms</rdf:li></rdf:Bag></dc:creator></rdf:Description></rdf:RDF></metadata></svg>