<?xml version="1.0" encoding="UTF-8"?><svg xmlns="http://www.w3.org/2000/svg" xmlns:xlink="http://www.w3.org/1999/xlink" version="1.1" id="Layer_1" x="0px" y="0px" viewBox="0 0 80 240" xml:space="preserve"><path fill="#FBD7C7" d="M21.7 112s-1.6 3-2.2 5.1c-.7 2.1-1.7 8.6-1.6 9.7.1 1 4.1 8.4 5.8 9.2 1.7.8 2-10.2 2-10.2l-.5-4.8 2.7-5.6-6.2-3.4z"/><path opacity="0.2" d="M25.3 205.3c-11.8 7.6-12.4 14.4 0 21 13.5 7.2 22.4 3.3 32.9-2.7S70 210.2 54.6 204c-12.5-5-20.4-4.4-29.3 1.3z"/><path fill="#FBD7C7" d="M22.8 123.4c-.4 3.3-1.6 26.2 0 32.2 1.6 6 2.2 8.8 2.6 11 .4 2.2 1.8 4.1 2.5 7.6s3.7 15.1 2.7 19.6c-.9 4.6-1.4 11.7-4.5 15.6s-8 6.8-4.8 8c3.1 1.2 6.7.4 8.1-.5 1.4-.9 5.2-6.5 8.4-7.7 3.1-1.2 6.3-2.9 6-6-.3-3.1-3.1-3.8-3.3-7.6-.1-3.8 4.5-14.3 3.1-21.3-1.3-7.1-3.4-10.5-3.4-10.5l2.4-16.2s1.7 18.9 1.8 20.5c.1 1.6 1 4.7 1 4.7s-.3 8.1.3 12.7c.5 4.6 3.8 13.2 2 20s-1.4 8-3.9 11.1c-2.5 3.1-7.2 5.6-3.8 7.3 3.4 1.7 7.3 2.5 9.9-1.8s5.5-5.9 6.9-7.2c1.4-1.3 1.8-2.2.8-6.3s-1-9.4.4-13.6c1.4-4.2 4.7-15.4 4.8-20.2.1-4.7-2.2-9.4-2.2-9.4s4.3-15.1 5.5-26.8 1-20.4-1-25.5c-1.9-5.2-42.3 10.3-42.3 10.3z"/><path fill="#E5E5E5" d="M46.2 210.8s1.6 1.7 4.2 1.8c3 .1 6.1-1.6 6.6-2.9.7-1.7.3-4.3.3-4.3s2.8 2.3 2.8 5.1c0 2.5-1.8 5.5-1.9 6.5 0 1 .1 3.5.1 3.5l-1.8 1-3-1.4s-.9 2.9-2.9 4.4c-2 1.4-6.8 4.2-11.3 2.5s-2-5.6-.9-6.9 5-4 6-5.9c1.1-2.3 1.8-3.4 1.8-3.4z"/><path fill="#E5E5E5" d="M28.3 203.6s2.4 2.4 5.2 2.3c2.1-.1 5.3-1.5 6.4-3.4.9-1.6 1.4-4.6 1.4-4.6s2.7 1.6 2.7 5.2c0 3.2-2.3 6.3-2.4 8.5-.1 2.2 0 1.3 0 1.3l-2.4 1.2-2.4-1.2s.8-2.5 0-2-3.3 4.2-5.1 5.9c-1.8 1.7-5.8 4-9.4 2.9s-3.4-4.8-1.3-6.6c1.8-1.6 4.1-2.8 5.4-5.2 1.3-2.3 1.9-4.3 1.9-4.3z"/><g opacity="0.4"><path d="M41.5 212.9c0 .4 0 0 0 0z"/><path d="M44 203.1v-.1c-.4 1.5-1.2 2.5-3.1 4-2.2 1.8-4 3.3-6.1 5.8-2.1 2.6-6 6-10.7 6-2.7 0-4.7-1.9-4.4-3.8-.6 1.8.1 3.8 2.6 4.6 3.6 1.1 7.7-1.2 9.4-2.9 1.8-1.7 4.3-5.4 5.1-5.9.8-.5 0 2 0 2l2.4 1.2 2.3-1.2c0-.2 0-.6.1-1.3.1-2.1 2.4-5.2 2.4-8.4z"/></g><path opacity="0.4" d="M50.7 224.5c2-1.4 2.9-4.4 2.9-4.4l3 1.4 1.8-1s-.2-2.5-.1-3.5c0-.9 1.5-3.3 1.8-5.7-.2.4-.4.8-.7 1.2-1.4 2.3-3.7 3.4-6.5 8.1-2.6 4.5-9.3 5.9-12 5.4-2.2-.4-3.7-1.3-4-2.7-.2 1.3.4 2.7 2.6 3.5 4.3 1.9 9.2-.9 11.2-2.3z"/><path fill="#939" d="M22 122.7c-.3 2.1-1.3 27.5-.3 33.8 2 12.5 5 17.6 6.7 29.8.3 2.5.6 7.7.6 7.7s5.5.6 8.1.4c4.2-.4 5.5-.8 5.5-.8s1.7-6.7 1.8-16.8c0-3.7-3.3-13.2-3.3-13.2l1.6-8.4-3-32.8c-9.5-.2-17.7.3-17.7.3z"/><path opacity="0.15" d="M22 122.7c-.3 2.1-1.3 27.5-.3 33.8 2 12.5 5 17.6 6.7 29.8.3 2.5.6 7.7.6 7.7s5.5.6 8.1.4c4.2-.4 5.5-.8 5.5-.8s1.7-6.7 1.8-16.8c0-3.7-3.3-13.2-3.3-13.2l1.6-8.4-3-32.8c-9.5-.2-17.7.3-17.7.3z"/><path fill="#939" d="M46.5 200.6s3.5 1.1 6.8.9c4.7-.3 7.7-1.9 7.7-1.9.1.7 1.9-14.1 2.6-21.6.5-5-1.2-9.8-.9-12.4.3-2.6 7.3-29.1 6.3-37.3-.6-4.8-43.1-31.6-40.5-5.5 1.1 11.1 7.4 12 9.8 16.4 3.6 6.6 3.9 12.4 4.2 16 .6 6.3 2.5 22.7 2.9 27 .2 4.3 1.1 18.4 1.1 18.4z"/><path fill="#BAA794" d="M24.3 89.7s-1.9 8.4-2.9 23.8c-.1 2.3 0 5.7-.1 9.7-.1 6.6 11.1 10.9 22.5 11.6 12.5.8 25.4-.6 25.8-6.8 1.1-14.8-9.3-28.5-10.6-34.3-1.3-5.8 6.7-8.6 6.7-8.6s-2-4.7-1.5-11.6c.5-6.9-5.4-9.9-7.5-11.3-1.7-1.2-17.3-8.4-19.8-9.1s-7.1-.9-8.2 3.5c-1.2 4.5 0 9.2-1.4 10.9-1.4 1.7-6.5 8.1-6.3 12.4.1 4.5 3.3 9.8 3.3 9.8z"/><path fill="#FBD7C7" d="M39.3 27.6c-5.3 3.5-5.8 10.8-5.6 15.8.2 5 .3 9.1 2.2 10.8 1.9 1.7 2.1 2.4 2.3 3.6.2 1.2-5.7 5.7-.6 8s6.9-.3 10.9-2.1c4.3-1.9 7.6-1.6 7.6-1.6s-2.6-4.7-2.4-8.1c.2-3.3 1-5.8 2.6-9.3 1.6-3.5 4.2-12.7-1.1-16.4s-12.3-3.1-15.9-.7z"/><path fill="#2D3134" d="M52.7 25.9s-3.4-4.2-10.2-2.1-8.2 7.9-8.2 7.9l2.7-1.8-1.6 3.5 2.5-2.1s-1.1 2.6-1.1 2.5c0-.2 2.6-2.1 2.6-2.1s-1.8 4.6-1.8 4.4c.1-.2 6.5-6.2 6.5-6.2l-3.4 7.2 1.6-.5-1.5 7.3 1.5-2.5.3 5.7 1.8-6.2 1 4.3 1.1-4.1 1.4 6.8 1.3-3.5.9 3 1.8-4.5.4 1.8 1.5-2.7.2 1.6 1-.2-2 7.5 1.9-3.7-.5 6.3 3.1-7.2.3 1.6 1.6-6.7.3 3.2.6-4.9.9.9-.7-4.3 1 .6-1.9-3.6 1.3.5c-.1-.2-2-8.1-8.2-7.7z"/><path opacity="0.15" d="M52.2 82.9s-6.7 8.3-15.4 7.1C27.6 88.6 34 75.4 34 75.4s-8 14.1-12.9 6.3c.9 4 3.2 8 3.2 8 1.8 1.2 3.2.9 5.6-2 1.8 12.4 21.9 6.1 24.9 3.3-.7-2.6-2.6-8.1-2.6-8.1z"/><path fill="#FBD7C7" d="M67.5 101.1c-.7-3.5-2.2-13.2-2.9-15.5l-10.7 2.5.2.6c1 2.6 3.3 14.4 3.5 15.3.2.9-2 3.3-3 5.6-2.7 6.1-3.3 13.9-3.7 15.5-.5 1.6-1.6 2.9-2.9 3.8-1.3.9-5.8 4.6-6.2 5.6-.3.7-1.7 4.5-1.1 6 .6 1.5 2.6 2.7 3.6 2.7s3-2.8 3.8-4.2c.8-1.4.9-2.2 3.9-4.5 3.1-2.3 3.4-5.4 7-11.1 3.6-5.7 6.1-10.2 7.2-13 1.3-2.8 1.6-7.7 1.3-9.3z"/><metadata><rdf:RDF xmlns:rdf="http://www.w3.org/1999/02/22-rdf-syntax-ns#" xmlns:rdfs="http://www.w3.org/2000/01/rdf-schema#" xmlns:dc="http://purl.org/dc/elements/1.1/"><rdf:Description about="https://iconscout.com/legal#licenses" dc:title="woman" dc:description="woman" dc:publisher="Iconscout" dc:date="2017-09-20" dc:format="image/svg+xml" dc:language="en"><dc:creator><rdf:Bag><rdf:li>Icograms</rdf:li></rdf:Bag></dc:creator></rdf:Description></rdf:RDF></metadata></svg>