<?xml version="1.0" encoding="UTF-8"?><svg xmlns="http://www.w3.org/2000/svg" xmlns:xlink="http://www.w3.org/1999/xlink" version="1.1" id="Layer_1" x="0px" y="0px" viewBox="0 0 80 240" xml:space="preserve"><path opacity="0.2" d="M24.6 208c-11.2 7.2-11.8 13.7 0 20 12.9 6.9 21.4 3.2 31.4-2.6 10-5.7 11.3-12.8-3.5-18.7-12-4.7-19.5-4.2-27.9 1.3z"/><path fill="#FBD7C7" d="M20.5 118s-1.5 2.9-2.1 4.9c-.6 2-1.9 6.7-1.5 9.2.3 2.1 3.9 5.9 5.5 6.7 1.6.7 1.9-7.7 1.9-7.7l-.5-4.6 2.6-5.4-5.9-3.1z"/><path fill="#FBD7C7" d="M22 128.8c-.4 3.1-1.5 25 0 30.7 1.5 5.7 2.1 8.4 2.5 10.5s1.7 3.9 2.4 7.2c.6 3.4 3.5 14.4 2.6 18.7s-1.4 11.1-4.2 14.9-7.6 6.5-4.6 7.6c3 1.1 6.4.4 7.7-.5 1.4-.9 5-6.2 8-7.4 3-1.1 6-2.7 5.7-5.7-.2-3-3-3.6-3.1-7.2-.1-3.6 4.2-13.6 3-20.4-1.2-6.7-3.2-10-3.2-10l2.1-5.2s1.7 7.9 1.9 9.4c.1 1.5 1 4.5 1 4.5s-.2 7.7.2 12.1 3.6 12.6 1.9 19.1-1.4 7.6-3.7 10.6c-2.4 3-6.9 5.4-3.6 7 3.2 1.6 7 2.4 9.5-1.7s5.2-5.6 6.6-6.9c1.4-1.2 1.7-2.1.7-6s-1-9 .4-13 4.5-14.7 4.6-19.2c.1-4.5-2.1-9-2.1-9s4.1-14.4 5.2-25.6 1-19.5-1-24.4c-2-4.8-40.5 9.9-40.5 9.9z"/><path fill="#825012" d="M23.4 96.7s-1.9 8-2.7 22.7c-.7 12.4 2 58.5 2.9 60.8.8 2.3 14.2 9.9 23 10.6 8.7.6 14.3-4.4 15.4-6.4 1.1-2.1 3.3-39.9 4.6-54s-9.2-24.2-10.5-29.7c-1.2-5.5 6.9-8.2 6.9-8.2s-2-4.5-1.5-11.1-5.2-9.5-7.1-10.8c-1.6-1.1-16.5-8-18.9-8.7-2.4-.6-6.7-.9-7.9 3.4-1.1 4.2 0 8.7-1.4 10.4s-6.2 7.7-6 11.9 3.2 9.1 3.2 9.1z"/><path fill="#FBD7C7" d="M37.8 37.4c-5.1 3.3-5.5 10.3-5.3 15.1.2 4.8.3 8.7 2.1 10.3 1.8 1.6 2 2.3 2.2 3.4.2 1.1-.6 7.6-.6 7.6s4.9-2.2 9.6-2.9c4.5-.7 8.1-.6 8.1-.6s-2.4-4.5-2.2-7.7c.2-3.2.9-5.6 2.5-8.9 1.6-3.3 4-12.1-1.1-15.6-5.1-3.4-11.9-2.9-15.3-.7z"/><path fill="#BAA794" d="M44.3 212.3s1.6 1.7 4 1.8c2.8.1 5.8-1.6 6.3-2.8.7-1.6.3-4.1.3-4.1s2.6 2.2 2.6 4.9c0 2.4-1.7 5.2-1.8 6.2s.1 3.3.1 3.3l-1.7.9-2.9-1.3s-.8 2.8-2.8 4.2-6.5 4-10.8 2.4c-4.3-1.6-1.9-5.4-.8-6.6s4.8-3.8 5.7-5.7c1.2-2.1 1.8-3.2 1.8-3.2z"/><path fill="#BAA794" d="M27.3 205.5s2.3 2.3 4.9 2.2c2-.1 5.1-1.5 6.1-3.2.9-1.5 1.3-4.4 1.3-4.4s2.6 1.5 2.6 4.9c0 3.1-2.2 6-2.3 8.2-.1 2.1 0 1.2 0 1.2l-2.3 1.1-2.3-1.2s.7-2.4 0-1.9-3.1 4-4.8 5.6c-1.7 1.6-5.6 3.8-9 2.8-3.4-1.1-3.2-4.6-1.2-6.3 1.8-1.5 3.9-2.7 5.2-4.9 1.2-2.3 1.8-4.1 1.8-4.1z"/><path opacity="0.15" d="M50 90.2s-6.4 8-14.7 6.7C26.5 95.6 32.7 83 32.7 83s-7.6 13.5-12.3 6c.8 3.8 3 7.6 3 7.6 1.7 1.2 3 .8 5.4-1.9 1.7 11.9 20.9 5.8 23.7 3.1-.6-2.4-2.5-7.6-2.5-7.6z"/><g opacity="0.4"><path d="M39.9 214.3c-.1.4 0 0 0 0z"/><path d="M42.2 204.9v-.1c-.4 1.4-1.1 2.4-3 3.8-2.1 1.7-3.8 3.1-5.8 5.6-2 2.4-5.7 5.8-10.2 5.7-2.6 0-4.5-1.8-4.2-3.6-.6 1.7.1 3.7 2.5 4.4 3.4 1.1 7.3-1.1 9-2.8 1.7-1.6 4.1-5.1 4.8-5.6.7-.5 0 1.9 0 1.9l2.3 1.2 2.2-1.1c0-.2 0-.5.1-1.2.1-2.1 2.3-5.1 2.3-8.2z"/></g><path opacity="0.4" d="M48.6 225.4c1.9-1.4 2.8-4.2 2.8-4.2l2.9 1.3 1.7-.9s-.2-2.4-.1-3.3c0-.8 1.4-3.2 1.7-5.4l-.6 1.2c-1.3 2.2-3.6 3.3-6.2 7.8-2.5 4.3-8.9 5.6-11.4 5.2-2.1-.3-3.5-1.2-3.8-2.6-.2 1.3.4 2.6 2.4 3.4 4.1 1.5 8.7-1.2 10.6-2.5z"/><path fill="#FBD7C7" d="M64.6 107.6c-.6-3.3-2.1-12.6-2.8-14.8l-10.2 2.3.2.6c.9 2.5 3.1 13.7 3.3 14.6.2.8-1.9 3.1-2.9 5.3-2.6 5.8-3.1 13.2-3.6 14.8-.4 1.6-1.5 2.8-2.7 3.6-1.2.9-5.5 4.4-5.9 5.4-.3.7-1.6 4.3-1 5.7.6 1.4 2.5 2.5 3.5 2.5s2.9-2.7 3.6-4c.7-1.3.8-2.1 3.7-4.2 2.9-2.2 3.2-5.2 6.7-10.6 3.4-5.4 5.8-9.8 6.9-12.4 1.2-2.6 1.5-7.3 1.2-8.8z"/><path fill="#999" d="M50.6 35.8c6.5 1 10.3 7.1 7.8 16.4-2.4 9.1-6.7 9.7-6.7 9.7s-1.5-1.3-.5-4.6c.2-.8.8-2.4-.8-3-1.8-.7-2.8 3.2-2.8 3.2s-4.5-.7-5-5.6c-.6-5.6-1.9-7.7-5.3-7.4-3.4.2-4.9 2.3-5.6.8-2.5-4.9 9-17.5 18.9-9.5z"/><metadata><rdf:RDF xmlns:rdf="http://www.w3.org/1999/02/22-rdf-syntax-ns#" xmlns:rdfs="http://www.w3.org/2000/01/rdf-schema#" xmlns:dc="http://purl.org/dc/elements/1.1/"><rdf:Description about="https://iconscout.com/legal#licenses" dc:title="woman" dc:description="woman" dc:publisher="Iconscout" dc:date="2017-09-20" dc:format="image/svg+xml" dc:language="en"><dc:creator><rdf:Bag><rdf:li>Icograms</rdf:li></rdf:Bag></dc:creator></rdf:Description></rdf:RDF></metadata></svg>