<?xml version="1.0" encoding="UTF-8"?><svg xmlns="http://www.w3.org/2000/svg" xmlns:xlink="http://www.w3.org/1999/xlink" version="1.1" id="Layer_1" x="0px" y="0px" viewBox="0 0 80 240" xml:space="preserve"><path opacity="0.2" d="M11 231.9c-14.8-7.2 2.6-15.9 18.5-20.4 14.1-4 27.9-19.8 44-9.5 12.9 8.2-8 15.7-20.6 20.2-17.9 6.4-29.7 15.6-41.9 9.7z"/><path fill="#FBD7C7" d="M22.8 109.3c-1.5 3.1-5.1 8.6-5.2 10.2-.1 1.6-1.1 5.1-.5 6.7.6 1.6 4.1 4.2 4.8 4.2s1.5-2.6 1.5-3.3-1-2.2-1-2.2 1.8.7 2 0c.2-.8-1.6-15.6-1.6-15.6z"/><path fill="#FBD7C7" d="M23.5 172.3c-.3 3.1-.4 10.4-.6 15.4s-.6 12.2-1.8 17.1c-1.3 4.9-2.4 10.4-3.7 12.5-1.3 2-6.8 7.2-1.9 6.8s8.6-7 10.4-8.9c1.8-1.8 3.9-5.5 3.9-5.5s.1-2.4 1-7 6.5-18.8 6.7-24.1c.4-5.3-1.5-10.6-1.5-10.6l-12.5 4.3z"/><path fill="#FBD7C7" d="M59 209.6c-1.1 1.2-3.5 3.5-.6 4.2s7.1-.9 9-5.5c1.8-4.6 3.3-9.3 3.6-10.4s-1.4-3.6-2-5.5-1.1-10.6-3.3-15.9c-1.3-3.1-7-8-7-8L46.3 173s2.8 4.1 4.8 6c2 1.9 4.6 6.5 6.7 9.1 2.1 2.7 4.2 6.2 4 9.6-.3 3.4-1.7 10.7-2.8 11.9z"/><path fill="#825012" d="M26.8 94.2s-4.2 8-5.1 22.5c-.7 12.2-1 56.5-.9 58.9.5 7.4 18.8 7.3 27.4 7.9s18.7-7.2 19.8-9.2c1.1-2-3-15.4-2-44.2.4-10.9-3.7-15-4.8-22.4-1.9-12.8 1.3-26.5 1.6-30.6.5-6.5-3.9-9.4-5.9-10.6-3.1-1.8-16.1-4.9-18.4-5.5-2.3-.6-6.7-.9-7.8 3.3s.1 7.3-1.3 8.9c-1.4 1.6-6.2 7.6-5.9 11.7.3 4.2 3.3 9.3 3.3 9.3z"/><path fill="#FBD7C7" d="M38.8 35c-5 3.3-5.4 10.2-5.2 14.9.2 4.7.3 8.6 2.1 10.2s1.9 2.3 2.1 3.4c.2 1.1-.6 7.5-.6 7.5s4.9-2.2 9.5-2.9c4.4-.6 7.9-.6 7.9-.6s-2.4-4.4-2.2-7.6c.2-3.1.9-5.5 2.5-8.7s3.9-11.9-1-15.4c-5.1-3.5-11.8-3-15.1-.8z"/><path opacity="0.15" d="M53 87.7s-6.3 7.9-14.5 6.7C29.9 93.1 36 80.7 36 80.7s-7.5 13.3-12.2 6c.8 3.8 3 7.5 3 7.5 1.7 1.1 3 .8 5.3-1.9 1.7 11.7 20.6 5.7 23.4 3.1-.7-2.5-2.5-7.7-2.5-7.7z"/><path fill="#999" d="M51.4 33.4c6.4 1 10.1 7 7.7 16.2-2.3 8.9-6.6 9.5-6.6 9.5s-1.5-1.3-.5-4.5c.2-.7.8-2.4-.8-3-1.8-.7-2.7 3.1-2.7 3.1s-4.4-.7-4.9-5.5c-.6-5.5-1.9-7.6-5.2-7.3-3.3.2-4.9 2.3-5.5.8-2.6-4.7 8.7-17.1 18.5-9.3z"/><path fill="#BAA794" d="M18.4 211.9s5 2.1 7.5.3c2.5-1.7 4.2-4.9 4.2-4.9s.9 1.1 1.4 3.9c.5 2.8-1.2 8.7-1.2 8.7l-1.8 1.8-2.9-1s-2.5 5-5.5 6.6c-3.3 1.8-9.2 1-9.6-.7-.7-3 1.9-4.2 3.5-6 2.1-2.2 4.4-8.7 4.4-8.7z"/><path opacity="0.4" d="M10.3 226.2c0 .2 0 .4.1.5.4 1.7 6.3 2.5 9.6.7 3.1-1.7 5.5-6.6 5.5-6.6l2.9 1 1.8-1.8s1.2-4.4 1.3-7.4c-.4.7-1 1.4-1.9 2-3.2 1.9-3.1 3.4-4.8 6.3-1.4 2.4-3 5.3-6.8 6.4-2.3.6-5.9.2-7.7-1.1z"/><path fill="#BAA794" d="M60.6 200.8s3.6 1 5.7-.5 3.8-6.5 3.8-6.5 2.7.8 2.9 4.4-.2 4.4-.1 5.8c.1 1.5.5 2.7.5 2.7l-1.3 1.6-2.9-.5s-1.5 5.3-4 7.3c-3.3 2.7-8.4 2.4-10.2.8-1-.9-1-3 1.1-4.7s3.7-5.1 3.9-6.5l.6-3.9z"/><path opacity="0.4" d="M69.1 207.9l2.9.5 1.3-1.6s-.3-1.2-.5-2.7c-.1-1.5.4-2.3.1-5.8v-.3c-.7 2.8-2.4 4.2-4 7.9-1.4 3.4-1.5 7-5.9 9.6-3.1 1.8-7 .7-8.6-.2.1.3.3.6.5.8 1.8 1.6 6.9 1.9 10.2-.8 2.5-2 4-7.4 4-7.4z"/><path fill="#FBD7C7" d="M51.2 87.2l10-1s1.4 12.1 1.2 15.3-.1 6.3-1 9-9 18.8-10.8 22.5c-1.8 3.7-3.6 9.2-4.1 10.2-.4 1-3.1 4.6-4.2 5.2s-3.6 1.2-5.5.4c-1.5-.6 1.7-9.9 2.2-11.1.9-2.2 2.7-3.4 3.6-4.7.9-1.4 4-6.9 5.2-11.5 1.2-4.6 2.5-10.2 4.1-12.5 1.7-2.3 2.3-4.6 1.9-6.3-.3-1.7-2.6-15.5-2.6-15.5z"/><metadata><rdf:RDF xmlns:rdf="http://www.w3.org/1999/02/22-rdf-syntax-ns#" xmlns:rdfs="http://www.w3.org/2000/01/rdf-schema#" xmlns:dc="http://purl.org/dc/elements/1.1/"><rdf:Description about="https://iconscout.com/legal#licenses" dc:title="woman" dc:description="woman" dc:publisher="Iconscout" dc:date="2017-09-20" dc:format="image/svg+xml" dc:language="en"><dc:creator><rdf:Bag><rdf:li>Icograms</rdf:li></rdf:Bag></dc:creator></rdf:Description></rdf:RDF></metadata></svg>