<?xml version="1.0" encoding="UTF-8"?><svg xmlns="http://www.w3.org/2000/svg" xmlns:xlink="http://www.w3.org/1999/xlink" version="1.1" id="Layer_1" x="0px" y="0px" viewBox="0 0 80 240" xml:space="preserve"><path fill="#FBD7C7" d="M13.2 85.7s2.9 7.2 3.1 14.8-1 14.1-1.1 17.4c-.1 3.2-.4 7.3.6 9.8.9 2.4 1.2 2.8 2.7 2.9s5.8.6 6.7-1.1c.9-1.7.1-4.4-2.3-5.8-2.4-1.4-2.7-1.5-2.2-3.4.5-2.2 1.2-4.3 1.7-6.6.6-2.9 1.7-12.6.3-17.6-1.4-5-2.7-10.2-2.7-10.2h-6.8z"/><path opacity="0.2" d="M11.4 226.1c1.8 7.1 7.2 6.5 33.6 4.9 26.4-1.6 35-3.3 32.1-10.9-2.9-7.6-16.9-11.5-33.7-6.5-16.8 5.1-33.8 4.9-32 12.5z"/><path fill="#262626" d="M48.9 226c2.2 1.1 7.3.3 12.7.1s9.6-1.4 10.3-4c.7-2.6-.5-2.9-.5-2.9S48.5 221 48 222.8c-.5 2 .9 3.2.9 3.2z"/><path fill="#FFF" d="M49 225c2.9.2 11-.1 14.2-.3 3.7-.2 8.1-1.8 8.8-3.9 1.1-3.2-1.8-4.7-5.2-5.2-3.4-.4-9.5.3-11 .3-7.2.1-11.1 8.7-6.8 9.1z"/><path fill="#262626" d="M15.5 223s-.8 5.5 4.7 5.7c5.5.3 6.3-5.2 6.3-5.2l-11-.5z"/><path fill="#CC291F" d="M33.8 122.4l-12.2.3c-2.1 3-6.2 8.3-5.7 22.7.5 14.3 3.4 29.6 1.8 36.5-1.6 6.9-.7 25.3-1.7 30.9-.9 5.5-1.8 9.9-1.8 9.9s.9 4.5 5.5 5.1c4.5.6 7.4-2.4 7.4-2.4s.7-9.3 1-16.4c.3-7 2.1-21.8 3-29.4.8-7.4 2.6-32.7 4.4-33.8-.7-1.4-1.3-3.9-1.8-6.1-.5-2-.5-10.7.1-17.3z"/><path opacity="0.2" d="M33.8 122.4l-12.2.3c-2.1 3-6.2 8.3-5.7 22.7.5 14.3 3.4 29.6 1.8 36.5-1.6 6.9-.7 25.3-1.7 30.9-.9 5.5-1.8 9.9-1.8 9.9s.9 4.5 5.5 5.1c4.5.6 7.4-2.4 7.4-2.4s.7-9.3 1-16.4c.3-7 2.1-21.8 3-29.4.8-7.4 2.6-32.7 4.4-33.8-.7-1.4-1.3-3.9-1.8-6.1-.5-2-.5-10.7.1-17.3z"/><path fill="#CC291F" d="M40.7 158.4c1.2 4.2 1.2 11.6 2 24.4s2.3 15.2 2.8 24 .9 16.5 1.3 17.1 3 2.8 9 1.1 6.8-5.5 6.6-7.9c-.2-2.4-2.4-2.4-4.2-10.3-1.8-7.9-1.1-23.5-2.1-30.2-1-6.4 1.3-20 1-29.7-.2-8.5-1.6-11.2-2.4-16.1-.9-5.3-4.4-8.8-4.4-8.8l-16.6.4c-.7 6.5-1.5 12.9-1 17.5.3 2.9 2.6 6 2.6 6 2 .2 4.4 9 5.4 12.5z"/><path fill="#FC0" d="M34 75.9c-8.6-.1-14.6-1.2-17.9.9s-3.8 4.1-3.9 6.2c-.1 1.8-.4 2.8 1.5 3.2s2.9.4 2.9.4.9 3.1 2.9 7 5.2 12.2 4.9 17.4-5.5 14.3-5.5 14.3-2.6 4.7 14.3 5.4c16.9.7 21.2-2.1 21.2-2.1s-3.9-11.6-4.7-17.1c-.8-5.5 1.7-14.3 1.8-17.1.1-2.7-.6-3.8-.6-3.8s4.9-1 5.2-1.9 1-12.6-22.1-12.8z"/><path fill="#825012" d="M38.3 43.3c-6.7-.1-12.8 2.6-14 12.4-1.3 11-6.8 15.5-5.1 19.4 1.7 4 8.2 8.7 20.8 6s12-7.4 12-7.4-3.5-2-2.8-5.6c.8-4 6.7-24.4-10.9-24.8z"/><path fill="#FBD7C7" d="M47.2 90.9s-.7 6.4-.5 11.4c.3 5.1 1.7 11.1 2.9 15.2 1.1 4.1 3.2 8 3.6 8.5.4.5.6 3.3 1.1 4.1.4.8.1.6.2 1.5s2.5 1.1 3.2.8c.6-.4 2.2-5.9 1.9-6.8-.4-.9-2.8-1.6-3.1-2.8-.4-1.8-.6-5-1.1-6.6-.3-1.1-1.7-5.1-1.7-9.6.1-4.4 1.1-9.8 1.4-13.5.1-2.1.2-4 .2-4s-.9.6-3.6 1.2c-2.3.5-4.5.6-4.5.6z"/><metadata><rdf:RDF xmlns:rdf="http://www.w3.org/1999/02/22-rdf-syntax-ns#" xmlns:rdfs="http://www.w3.org/2000/01/rdf-schema#" xmlns:dc="http://purl.org/dc/elements/1.1/"><rdf:Description about="https://iconscout.com/legal#licenses" dc:title="basicwoman" dc:description="basicwoman" dc:publisher="Iconscout" dc:date="2017-09-20" dc:format="image/svg+xml" dc:language="en"><dc:creator><rdf:Bag><rdf:li>Icograms</rdf:li></rdf:Bag></dc:creator></rdf:Description></rdf:RDF></metadata></svg>