<?xml version="1.0" encoding="UTF-8"?><svg xmlns="http://www.w3.org/2000/svg" xmlns:xlink="http://www.w3.org/1999/xlink" version="1.1" id="Layer_1" x="0px" y="0px" viewBox="0 0 160 240" xml:space="preserve"><path fill="#FBD7C7" d="M109.5 79.5c1.5-.8 4.7-4.8 5.6-4.8s6.2 2.5 5.1 4.3c-1.1 1.9-5 4-6.4 4-1.4 0-1.1-.3-2.3.1s-2.2 1.3-2.2 1.3l.2-4.9z"/><path opacity="0.2" d="M35 226.9c9.5 4.5 40.3-10.4 58.5-17.5 13.5-5.3 46.2-17.7 38-22-5.6-3-26.6 4.7-45.5 11.5-19.6 7.1-59 24.2-51 28z"/><path fill="#262626" d="M117.7 185.4c.7-2.2 4.6-13.1 9.6-10.6 4.9 2.5 3.4 7.2 2.1 9.9-1.3 2.8-4.6 6.6-7.9 8.9-3.2 2.2-3.8-8.2-3.8-8.2z"/><path fill="#FFF" d="M120.8 192.3s5.6-4.2 7.4-8c1.8-3.6 1.9-7.1-1.5-9.2-3.4-2.1-6.2 3.2-7.9 6.4-1.6 3.2-2 4.6-2 4.6l4 6.2z"/><path fill="#CC291F" d="M79.5 114.4c-5.6 3.9-6.9 5-11.1 12.7-5.7 10.5-10.6 34.3-13.1 35.9-5 3.2-13 10.1-20.3 19.3-6.6 8.2-15.5 12.9-6.1 18.4s8.3-1.2 12.6-6.3 13.7-15.7 19-18.3c5.2-2.6 8.5-9.6 15.2-20.2 6.7-10.6 16.1-20.2 18.1-29.3s-14.3-12.2-14.3-12.2z"/><path opacity="0.2" d="M79.5 114.4c-5.6 3.9-6.9 5-11.1 12.7-5.7 10.5-10.6 34.3-13.1 35.9-5 3.2-13 10.1-20.3 19.3-6.6 8.2-15.5 12.9-6.1 18.4s8.3-1.2 12.6-6.3 13.7-15.7 19-18.3c5.2-2.6 8.5-9.6 15.2-20.2 6.7-10.6 16.1-20.2 18.1-29.3s-14.3-12.2-14.3-12.2z"/><path fill="#CC291F" d="M83 119.8c-3.9 6.2-7.2 17.5-3 24.4s18.6 16.1 19.6 18.9c1 2.7 2.4 10.7 4.1 16 2.1 6.7 5.5 16.5 8.2 18.1 2.7 1.6 10.4-.5 11.6-6.4 1.2-5.9-3-7.5-4.3-8.5-1.3-1-2.6-1-3.5-7.6s-1.7-12.3-3.3-16.9c-1.6-4.7-4.8-12.8-7.3-17.2-2.5-4.3-3.1-5.6-3.5-10.9-.5-5.2-18.6-9.9-18.6-9.9z"/><path fill="#FFF" d="M30.5 192.2c-1.4.4-3.1 2.7-3.1 2.7s-1.9 17.9-.5 17.7c1.4-.3 4-2.3 6.3-6.3s2.7-6.8 2.6-9.7c-.1-2.1-2.6-5.2-5.3-4.4z"/><path fill="#262626" d="M30.5 193.2c2.5.8 3.2 2.7 1.5 7-1.9 4.9-.8 7.1-2.6 9.8-1.6 2.4-2.6 3-4.5 2.6-1.8-.5-4.4-3-3.7-6.5.5-2.9 1.6-3.2 3.3-6.7 1.8-3.6 3.8-6.9 6-6.2z"/><path fill="#FC0" d="M91.3 68.6c-4 .1-7.4 3.8-9.5 15-2.2 11.2-1.6 23.8-3.8 28.1-2.3 4.4-7.3 10.4-7.3 10.4s5.8 1.9 11.6 4.3 8.3 4.1 12.2 6c3.8 1.9 8 1.2 8 1.2-.6.2-.5-8.8.3-14.8s3.3-15.9 3.3-15.9 3.5-.5 5.1-4.3c1.6-3.9-.6-6.8-.1-13.6.5-7 .5-10.2-3.8-12.3-4.4-2.1-16-4.1-16-4.1z"/><path fill="#FBD7C7" d="M99.7 77.1c2.8-2.1 9.5-1.8 8.9 3.5-.3 3.1-1.9 2.7-5.5 5.4-3.8 2.8-6 4.8-6.2 5.7-.1.9-.1 11.3-.3 16-.1 4.7.1 7.7.6 9.4s.5 3.3-1 4.9c-1.4 1.5-3.8 1.8-4.6.1s-1.3-4.3-.8-4.9c.5-.5 1.3-1.1 1.3-1.1s.7-1.9.3-4c-.4-2.1-3.8-17.4-3-21.6 1.1-4.8 8.5-12 10.3-13.4z"/><path fill="#825012" d="M109.8 44.2c-7.4-.6-11.8 2.8-14.3 9.6s-3 9.1-6.2 10.5-4 5.7 1 8.8c5 3.1 7.7 2.8 12 .3s8 .8 8.5 4.6c.1.9.2 2.5.2 2.5s4.4.4 6.4-3.8c-2.7-.3-3.2-1.4-2.6-4.3.7-3.1 5.1-9.3 4.3-18.1-.5-7.3-5.5-9.8-9.3-10.1z"/><metadata><rdf:RDF xmlns:rdf="http://www.w3.org/1999/02/22-rdf-syntax-ns#" xmlns:rdfs="http://www.w3.org/2000/01/rdf-schema#" xmlns:dc="http://purl.org/dc/elements/1.1/"><rdf:Description about="https://iconscout.com/legal#licenses" dc:title="basicwoman" dc:description="basicwoman" dc:publisher="Iconscout" dc:date="2017-09-20" dc:format="image/svg+xml" dc:language="en"><dc:creator><rdf:Bag><rdf:li>Icograms</rdf:li></rdf:Bag></dc:creator></rdf:Description></rdf:RDF></metadata></svg>