<?xml version="1.0" encoding="UTF-8"?><svg xmlns="http://www.w3.org/2000/svg" xmlns:xlink="http://www.w3.org/1999/xlink" version="1.1" id="Layer_1" x="0px" y="0px" viewBox="0 0 80 240" xml:space="preserve"><path opacity="0.2" d="M31.9 228.9c15.2-8 9.8-10.5 3.9-13.9-5.9-3.3-14.3-1.8-22.4 2.1s-16.6 7.7-4.6 12.6 16 3 23.1-.8z"/><path fill="#262626" d="M34.7 213.7c.9 3.4 0 6.7-.7 8.8-.8 2.3-2.9 6.4-7.5 6.2-4.6-.1-6.3-3.2-5.3-9.9 1-6.5 12.5-8.5 13.5-5.1z"/><path fill="#FFF" d="M34.1 215.1c.5 2.3-.2 8.5-4.6 11.3-3.7 2.4-6.9.5-7.3-1.1-.4-1.6.9-10.8 1.4-11.6s10-1 10.5 1.4z"/><path fill="#262626" d="M28.5 220.7c.5 1.3 1.1 1.8-1.1 3.4-2 1.4-5.4 4.4-8.4 4.6-3 .2-11.7-1.8-12.2-2.4s-.1-1.9.8-2.2 20.9-3.4 20.9-3.4z"/><path fill="#FFF" d="M14.8 217.7c-1.7.8-2 2.6-3.7 2.9-1.7.3-3.4 1.3-3.7 2.6-.3 1-.1 1.4 2.1 1.9s7.3 1.9 10 1c2.7-.9 8.4-4.2 8.4-4.7s-7.9-6.1-13.1-3.7z"/><path fill="#CC291F" d="M47 146.8c-9 .8-25.8 4.7-28.9 9.6-3.1 4.8-1.3 10.1-.3 14.8 1 4.7 3.5 27.2 3.4 32.6s-2.5 12.8.8 13.6c3.3.8 9.4 3.4 11.3 1 1.8-2.4 4.6-10.2 4.3-11.5-.3-1.3-1.8-.5-3.4-13.9-1.7-14.3-1.8-20.9-1.8-20.9s14.1-3.2 22.4-6.3c16.9-6.3 1.1-19.7-7.8-19z"/><path opacity="0.2" d="M47 146.8c-9 .8-25.8 4.7-28.9 9.6-3.1 4.8-1.3 10.1-.3 14.8 1 4.7 3.5 27.2 3.4 32.6s-2.5 12.8.8 13.6c3.3.8 9.4 3.4 11.3 1 1.8-2.4 4.6-10.2 4.3-11.5-.3-1.3-1.8-.5-3.4-13.9-1.7-14.3-1.8-20.9-1.8-20.9s14.1-3.2 22.4-6.3c16.9-6.3 1.1-19.7-7.8-19z"/><path fill="#CC291F" d="M63.2 152.7c-6.4 2.3-18.2 6.4-22.4 7.9s-10.2 2.5-12 6.9-.1 15.6-4.2 26.3c-4.1 10.7-11.5 24.5-11.5 24.5s2.4-.7 4.5 1.2c2.1 1.8 5.1 3.8 8.5 3.5 3.4-.3 4.2-1.6 4.2-1.6s-1.3-4.8.7-9 6.9-14.1 9.3-22.6c2.4-8.5 1.7-12.6 2.6-13 .9-.4 11.4-1.4 20.7-3.1 9.4-1.7 13-8.8 13-17S73.3 146 73.3 146l-10.1 6.7z"/><path fill="#FBD7C7" d="M43.3 106.2c.1 3.4.6 15.9-1.8 21.5s-4.2 12.5-6.2 15.8c-2 3.3-4.5 7.8-4.8 8.7s-.5 1.7.5 2.8 1.7 1.1 1.9 1.5c.2.5.7 1.3 3.3 2s3.3.8 3.7.1c.4-.7-1.9-1.5-2.3-1.8-.4-.2-.5-.7-.1-1.8s1.1-3.8 1.1-5.2c0-1.4-.3-1.6.6-2.9.9-1.3 3.9-6.6 5.5-9.1 1.7-2.5 3.7-6.4 4-8.1.3-1.7 1-22.2 1-22.2l-6.4-1.3z"/><path fill="#FC0" d="M51.2 96.6c-2.7-.1-5.6.5-7.3 3.7-1.8 3.2-1.5 5.2-1.5 5.2s.7.7 1.4 1c.7.3 1 .3 1 .3s-4.8 6.1-5.4 9.8c-.7 4.3 3.1 6 3.6 6.8s1.8 13.4 1.8 16.6c-.1 3.1 0 6.6 0 6.6s-1.3 6.6 5 6.9c5.9.3 8.7.6 12.9 1.9 4.5 1.4 7 1.3 9.8 0 2.8-1.3 4.1-4.9 4.1-4.9s-2.7-5.2-3.5-7.3c-1-2.3-1.8-7.3-1.5-11.4.3-4 3.4-15.3 3-21.8-.5-6.5-5.9-10.1-5.9-10.1l-17.5-3.3z"/><path opacity="0.2" d="M39.3 118.7c2.4 7.1 17.2 11 20.8 5.1-10.3 4.7-19.6-3.6-20.8-5.1z"/><path fill="#FBD7C7" d="M62.6 114.6s-2.5 7.7-3 12c-.5 4.4-.5 9.7-1.6 11.4s-3.2 4.5-4.8 8.3c-1.7 3.8-2.7 7.3-3.6 7.3s-2.6-.5-3.4-.4c-2.8.2-3.9 1.4-4.4 2.2-.5.8-.6 1.5-.1 2.6s1.7 1.6 3 1.5c1.2-.1 7.4-1.2 8.3-2.4.9-1.2 7.4-9.6 8.6-10.9s3.3-2.9 3.8-5.7c.5-2.8 3.2-12.9 4-16s2.3-7.6 2.3-7.6-1.9.7-5.1-.2c-3-.9-4-2.1-4-2.1z"/><path fill="#FBD7C7" d="M52.2 97.3s-7.3 8.2-1.1 11.6 14.7-9.4 14.7-9.4-2.6-2.1-4-4.8c-1.4-2.8-9.6 2.6-9.6 2.6z"/><path fill="#825012" d="M61.1 70.1c-2.8-.5-8.7-1-12.8 4.1S45.1 86.8 45.9 90c1.2 5.3-2.6 7.5-2.6 7.5s1.1 4.1 7.3 1.7c6.2-2.5 10.5-29.1 10.5-29.1z"/><path fill="#FBD7C7" d="M51 78s-2.2 1.6-3.4 5.5c-.5 1.9-1.2 12.9.8 14.5 2.2 1.8 5.4 1 7.4 0s4.7-1.3 6.2-3.9c.8-1.3-2.5-22.5-11-16.1z"/><path fill="#825012" d="M56.8 71.5c-4.5 3-7.2 5-4.4 10.8 2.8 5.9 8.3 10.4 6.6 13.8-1.7 3.5-4.7 5-4.7 5s2.9 5.4 11.4 4c8.2-1.4 9.1-4.3 9.5-5.6.7-2.1-2.9-5.7-3.3-10.2-.3-4.5-.6-17.5-8-19.3-4.4-1-6.2.9-7.1 1.5z"/><metadata><rdf:RDF xmlns:rdf="http://www.w3.org/1999/02/22-rdf-syntax-ns#" xmlns:rdfs="http://www.w3.org/2000/01/rdf-schema#" xmlns:dc="http://purl.org/dc/elements/1.1/"><rdf:Description about="https://iconscout.com/legal#licenses" dc:title="basicwoman" dc:description="basicwoman" dc:publisher="Iconscout" dc:date="2017-09-20" dc:format="image/svg+xml" dc:language="en"><dc:creator><rdf:Bag><rdf:li>Icograms</rdf:li></rdf:Bag></dc:creator></rdf:Description></rdf:RDF></metadata></svg>