<?xml version="1.0" encoding="UTF-8"?><svg xmlns="http://www.w3.org/2000/svg" xmlns:xlink="http://www.w3.org/1999/xlink" version="1.1" id="Layer_1" x="0px" y="0px" viewBox="0 0 80 240" xml:space="preserve"><path opacity="0.2" d="M7.8 233c-15.2-7.4 2.7-16.3 19-20.9 14.4-4.1 28.7-20.3 45.2-9.8 13.3 8.4-8.2 16.1-21.1 20.7-18.5 6.6-30.6 16.1-43.1 10z"/><path fill="#FBD7C7" d="M14.4 128.7c.2 6-.2 30.6-.9 34.1S9.6 173 9.6 183.2c0 8.2 0 18.9-.9 24.4s-2.9 8.2-1.1 9.8c1.8 1.6 2.8 2.9 6.4 2.7s3.9.2 6.4 1.4c2.5 1.2 8.7.5 9.1-1.7.4-2.2-7.2-1.2-8.8-4-1.6-2.7-3.1-8.4-2.3-14.5.9-6.1 8.5-22.3 7.8-25.9s6.2-17.1 9.4-23.8c3.1-6.6-7-30.6-7-30.6l-10.1-4.3c-.2.1-4.2 5.3-4.1 12z"/><path fill="#BAA794" d="M7.4 211.9s2.9 1.3 4.8 2.2c2.6 1.1 7.3-.8 7.3-.8s.9 1.4 2.2 1.8c1.3.3 5.8.2 7 .4 1.5.2 4.8 2 2.8 4.2-1.8 2.1-5.9 4-10.3 3.4-2.5-.3-7-1.8-8.2-1.4s-.5 4.3-.5 4.3l-2 1-2.3-1.2s0-1.4-.3-2.9c-.4-1.5-2-2.2-2-5s1.5-6 1.5-6z"/><path opacity="0.4" d="M31.6 219.6c.6-.7.7-1.3.5-1.9-1.7 2.6-6.8 5.1-13.5 3.4-4.7-1.2-7.6-1-12.5-2.8.2 2.4 1.6 3.1 2 4.6.4 1.5.3 2.9.3 2.9l2.3 1.2 2-1s-.7-3.9.5-4.3c1.2-.4 5.7 1.1 8.2 1.4 4.3.5 8.4-1.4 10.2-3.5z"/><path fill="#FBD7C7" d="M17.7 70.8S14.1 83.3 14.1 86s5.2 15.4 5.6 16.2c.4.9 5-4 5-4s-2.8-8.2-2.8-10.4c0-2.3 1.7-8 1.7-8l-5.9-9z"/><path fill="#FBD7C7" d="M30.8 110.9s-4.6 7.1-2.8 13.6c1.7 6.4 3.6 8.1 3.6 8.1s.9 8.9 2 12.1c1.1 3.2 5.7 12.1 6.3 13.8 2.8 7.6 1 10.8 1.4 16.9.4 6.2 3.5 10.7 5.6 15.5 2 4.8 2.7 6.2 1.7 8.8-.9 2.6-3.3 6.9.8 8.3 4.1 1.4 6.1-.1 9 1.9s7.7 2.7 9.5.5c1.8-2.3-2.9-3.2-3.6-3.4-.7-.2-4.2-4.3-4.9-9.3-.9-5.7-2-12.2-2.3-18.4-.3-5.4-1.3-11.6-1-13.9.3-2.3 2.1-13.3 2.1-21.7s-5.5-27.2-5.5-27.2l-21.9-5.6z"/><path fill="#825012" d="M33.3 58.8c-1.3-.2-8.7-3.3-12.4-1.5-2.6 1.3-3.8 3.5-3.8 5.5-.1 1.6.4 5.7-.2 8.1l-.9 3.9 2.4 1.6s1 8.2.4 14.3c-.6 6.2-3.3 15-4.9 19.7-2.4 7.2-2.6 21.1-1.4 29.5 1.2 8.5-6 36.9-4.6 39.3 1.5 2.6 24.2 6 31.9 6.1 7.5.1 17.1-4.1 18.3-6.3 1.4-2.4.3-33.4-.3-47.8-.6-14.4-3.8-36.9-2.2-39.6s3.9-7 .9-11.5c-2.9-4.6-5.4-6.4-5.7-7.4-.3-.9-.2-2.9-2.3-4.9-2.2-2.5-8.2-7.9-15.2-9z"/><path fill="#FBD7C7" d="M32.2 33.2c6.6-1.5 13.8.7 15 10s-.9 11.3-2 12c-1.1.7-2.3 3.2-2.8 4.7s.2 2.5.2 2.5-8 4-11.9 2.7c-3.9-1.4-4.3-3.4-2.7-6.4 1.6-3-2.2-4.9-3.4-9.3s-1.2-14.1 7.6-16.2z"/><path opacity="0.15" d="M54.9 88.4c-3.1 1.2-7.3.3-7.3.3s-.2 3.4-.2 5.4c0 1.1.1 2.9.1 2.9s5.3-2.9 8.1-5.3c0 0 0-.1.1-.1.9-1.5 1.9-3.3 2.2-5.4-.7.8-1.8 1.7-3 2.2z"/><path fill="#FBD7C7" d="M36.7 87.2s4.2.5 6.7.4c2.8-.1 4.7-.6 4.7-.6s-.2 4.4-.4 8.3c-.3 5.8-1.1 9.5-.6 12.6.7 4.7 5.2 10.9 6.4 13.3s3.7 8.1 5.1 9.7c1.3 1.6 5.1 5.3 5.2 6.7.1 2 0 5.2-3.2 6.6-.8.3-3.4 1.1-4.8-.3-.6-.6 2.3-2.8 2.3-3.2 0-.2-1.5-1.8-1.8-3.2-.4-1.9-2.5-3.8-4.4-5.8-2.7-2.8-10.8-11.2-12.3-14.9-1.5-3.7-2.7-12.5-2.9-18.7-.2-6.1 0-10.9 0-10.9z"/><path fill="#999" d="M34.2 32c3.9-2.2 9.9-.1 12.4 4.6 2.8 5.3.1 3-.3 5s.7 9.6-4.2 11.3c.6-.9 1.2-3.2-.5-3-2.3.2-1.4 9.8-10.8 11.2-12.9-4.8-14.2-31.8 3.4-29.1z"/><path fill="#BAA794" d="M48.3 200.2s3.1 1.2 5.6 2.3c1.4.6 4.3.5 5.2.3.9-.4 1.9-.8 1.9-.8s1.3 3.4 2.2 3.7c.9.3 4.2-.6 5.8 1 1.7 1.8 1.3 2.7.4 3.8-.8 1-4.3 3.4-6.8 2.9-1.9-.3-7.6-2.7-8.8-2.4-1.2.3-.7 4.5-.7 4.5l-2.2 1.1-2-1s0-2.1-.7-3.5c-.6-1.4-1.8-3-1.8-5.9s1.9-6 1.9-6z"/><path opacity="0.4" d="M70.2 208.4c-.1 1.8-5.1 4.7-7.4 4-6.7-2-12.1-3.8-16.4-6.1 0 2.9 1.2 4.4 1.8 5.8.6 1.4.7 3.5.7 3.5l2 1 2.2-1.1s-.5-4.2.7-4.5c1.2-.3 6.9 2.1 8.8 2.4 2.5.5 6-1.9 6.8-2.9.6-.7 1-1.3.8-2.1z"/><metadata><rdf:RDF xmlns:rdf="http://www.w3.org/1999/02/22-rdf-syntax-ns#" xmlns:rdfs="http://www.w3.org/2000/01/rdf-schema#" xmlns:dc="http://purl.org/dc/elements/1.1/"><rdf:Description about="https://iconscout.com/legal#licenses" dc:title="woman" dc:description="woman" dc:publisher="Iconscout" dc:date="2017-09-20" dc:format="image/svg+xml" dc:language="en"><dc:creator><rdf:Bag><rdf:li>Icograms</rdf:li></rdf:Bag></dc:creator></rdf:Description></rdf:RDF></metadata></svg>