<?xml version="1.0" encoding="UTF-8"?><svg xmlns="http://www.w3.org/2000/svg" xmlns:xlink="http://www.w3.org/1999/xlink" version="1.1" id="Layer_1" x="0px" y="0px" viewBox="0 0 80 240" xml:space="preserve"><path opacity="0.2" d="M24.9 210.1c-9 5.6-9.7 12.2 2 18.5 12.9 6.9 20.4 5.4 30.4-.4 8.7-5.1 6.8-12-8-17.9-11.9-4.8-18-4.2-24.4-.2z"/><path fill="#FBD7C7" d="M13.8 121.3c.2 5.9 2.5 21.7 3.9 25.9 1.4 4.2 3.1 10.7 2.3 14.2-.7 3.5-2.9 9.2-1.6 17.2s5.6 20.2 4.8 25.7c-.8 5.4-2.9 8.1-1.1 9.7 1.8 1.6 2.8 2.9 6.3 2.7s3.8.2 6.3 1.4 8.6.5 9-1.7c.4-2.2-7.1-1.2-8.7-3.9-1.6-2.7-4.1-8.9-3.3-14.9.8-6 4-23 3.4-26.5-.7-3.6 1.9-17.3 5-23.9s2.7-28.3 2.7-28.3l-25.1-9.2c-.1-.2-4.1 4.9-3.9 11.6z"/><path fill="#BAA794" d="M21.9 208.4s2.9 1.3 4.8 2.1c2.5 1.1 7.2-.8 7.2-.8s.7 2.2 2.1 2.5c1.3.3 6.3-.5 7.5.1 1.1.6 4.4 1.6 2.1 3.3-2.3 1.7-7.5 4.2-9.9 3.7-2.4-.5-6.9-1.7-8.1-1.4-1.2.4-.5 4.2-.5 4.2l-1.9 1-2.3-1.2s0-1.3-.3-2.8-2-2.2-2-5c-.1-2.6 1.3-5.7 1.3-5.7z"/><path opacity="0.4" d="M20.5 214.6c.1 2.5 1.6 3.1 2 4.5.4 1.5.3 2.8.3 2.8l2.3 1.2 1.9-1s-.7-3.9.5-4.2c1.2-.4 5.6.9 8.1 1.4 2.4.5 7.6-1.9 9.9-3.7.6-.5.9-1 .8-1.5-1.3 1-5.9 5.3-13.4 3.3-4.6-1.1-7.5-.9-12.4-2.8z"/><path fill="#FBD7C7" d="M19.1 71.8s-3.6 12.4-3.6 15c0 2.6 5.2 15.2 5.5 16 .4.8 5-3.9 5-3.9s-2.8-8.1-2.8-10.3 1.7-7.9 1.7-7.9l-5.8-8.9z"/><path fill="#FBD7C7" d="M31.8 117.7s-4.5 7-2.8 13.4c1.7 6.4 3.6 8 3.6 8s.8 8.8 2 12c1.1 3.2 4.9 11.4 4.6 13.2-.3 1.8-3.7 10.1-3.4 16.2.4 6.1 1.6 19.2 2.6 24.4 1 5.3.4 6.4-.6 8.9s-3.3 6.8.7 8.2 6-.1 8.9 1.9c2.9 2 7.6 2.7 9.4.5s-2.9-3.2-3.6-3.4c-.7-.2-4.1-4.2-4.9-9.2-.9-5.6.1-18.3 1.4-23.4 1.3-5.2 1.3-13.5 1.6-15.7.3-2.2 5.6-16.1 5.6-24.5s-3.7-24.9-3.7-24.9l-21.4-5.6z"/><path fill="#825012" d="M34.6 59.9c-1.2-.2-8.6-3.3-12.2-1.4-2.5 1.3-3.7 3.4-3.8 5.5-.1 1.6.4 5.7-.2 8-.3 1.3-.9 3.8-.9 3.8l2.3 1.6s1 8.1.4 14.2-3.3 14.8-4.8 19.5c-2.4 7.2-2.6 20.9-1.4 29.1 1.2 8.4.8 36.9 2.2 39.2 1.5 2.5 17.4 9.5 25 9.6 7.4.1 12.9-3.7 14.1-5.9 1.4-2.4 4.1-37.4 3.6-51.7S55.1 95 56.7 92.2c1.6-2.7 3.8-6.9.9-11.4s-5.3-6.4-5.6-7.3c-.3-.9-.2-2.9-2.2-4.9-2.4-2.3-8.4-7.6-15.2-8.7z"/><path fill="#FBD7C7" d="M31.3 33.8c6.6-1.5 13.7.7 14.9 9.9s-.9 11.2-2 11.9-2.3 3.2-2.8 4.7.2 2.5.2 2.5-7.9 4-11.8 2.6c-3.9-1.4-4.2-3.4-2.7-6.3 1.6-2.9-2.2-4.8-3.4-9.2-1.2-4.4-1.1-14.1 7.6-16.1z"/><path fill="#BAA794" d="M37.6 214.1s3.1 1.2 5.5 2.2c1.4.6 4.3.5 5.2.2.9-.2 1.9-.7 1.9-.7s1.3 3.4 2.2 3.6c.9.2 4.2-.6 5.8 1 1.7 1.7 1.3 2.7.4 3.7-.8 1-4.2 3.3-6.7 2.9-1.8-.3-7.5-2.6-8.7-2.4s-.7 4.4-.7 4.4l-2.2 1.1-2-1s0-2-.7-3.4c-.6-1.4-1.8-2.9-1.8-5.9s1.8-5.7 1.8-5.7z"/><path opacity="0.4" d="M59.1 222.2c-.1 1.8-5.1 4.6-7.3 3.9-6.6-2-12-3.7-16.2-6 0 2.8 1.2 4.4 1.8 5.7.6 1.4.7 3.4.7 3.4l2 1 2.2-1.1s-.5-4.2.7-4.4c1.2-.2 6.8 2 8.7 2.4 2.5.5 5.9-1.9 6.7-2.9.6-.6.9-1.2.7-2z"/><path opacity="0.15" d="M55.9 89.1c-3.1 1.2-5.3.6-5.3.6s-.3 2.1-.4 4c0 1.1.1 2.9.1 2.9s3.6-1.9 6.4-4.3c0 0 0-.1.1-.1.8-1.4 1.9-3.3 2.2-5.4-.9 1-1.9 1.9-3.1 2.3z"/><path fill="#FBD7C7" d="M40.1 87.9s3.6.8 6.1.4c2.5-.4 4.7-1.3 4.7-1.3s-.6 5-.5 8.9c.1 3.8-.2 7 1.6 11.3 1.8 4.3 2.9 12 4.1 14.4 1.2 2.4 5 7.5 5 9.6s0 7-.7 8.2c-.7 1.2-3.8 4.2-5.2 3.6-1.4-.6-.8-5.2-.8-6 0-.7.7-3.9.2-4.9-.6-1-8.4-12.3-9.9-16-1.5-3.7-4.2-11.1-4.4-17.2-.2-6.2-.2-11-.2-11z"/><path fill="#999" d="M33.3 32.6c3.8-2.2 9.8-.1 12.2 4.5 2.8 5.2.1 3-.3 5s.7 9.5-4.2 11.2c.6-.9 1.2-3.1-.5-3-2.2.2-1.4 9.7-10.6 11.1-12.8-4.8-14-31.5 3.4-28.8z"/><metadata><rdf:RDF xmlns:rdf="http://www.w3.org/1999/02/22-rdf-syntax-ns#" xmlns:rdfs="http://www.w3.org/2000/01/rdf-schema#" xmlns:dc="http://purl.org/dc/elements/1.1/"><rdf:Description about="https://iconscout.com/legal#licenses" dc:title="woman" dc:description="woman" dc:publisher="Iconscout" dc:date="2017-09-20" dc:format="image/svg+xml" dc:language="en"><dc:creator><rdf:Bag><rdf:li>Icograms</rdf:li></rdf:Bag></dc:creator></rdf:Description></rdf:RDF></metadata></svg>