<?xml version="1.0" encoding="UTF-8"?><svg xmlns="http://www.w3.org/2000/svg" xmlns:xlink="http://www.w3.org/1999/xlink" version="1.1" id="Layer_1" x="0px" y="0px" viewBox="0 0 160 240" xml:space="preserve"><path fill="#262626" d="M98.5 147.2c3.5 1.8 5.9 2.8 8.5 3.9 2.6 1.1 5.7 1.8 7.6 3.8 2.1 2.2 2.2 6.2-.8 7.1-3.9 1.2-15.8-2.5-17.5-4-1.8-1.5 2.2-10.8 2.2-10.8z"/><path fill="#FFF" d="M100.4 150s4 1.8 7.1 3.1c3.1 1.3 5.7 1.4 7.1 3.9 1.4 2.6.7 5.1-4.1 5.5s-12.8-3.6-13.6-4.9c-.9-1.2 3.5-7.6 3.5-7.6z"/><path fill="#262626" d="M93.1 129.3c2.6-1.1 7.2 3.5 12.2 4.1 5 .6 8.4.7 9.2 2.7s-1.2 4.1-4.2 4.3c-2.9.2-13.4-2-15.1-3.3-1.8-1.4-4.3-6.8-2.1-7.8z"/><path fill="#FFF" d="M96.9 131.7c3.9 1.4 4.9 2.6 8.8 3.2 3.9.6 7.4.6 8.4 1.8 1 1.2.9 4.5-2.7 5.2-3.5.7-9.7.7-12.7-.1-3.1-.8-5.7-11.4-1.8-10.1z"/><path opacity="0.2" d="M54.5 212c-7.9 3.4-9.8 14.7 3.1 17.3s32.4-2.9 36.1-3.7c3.7-.8 33.6-6.1 26.3-12.8-7.3-6.7-23.8-4.3-33-3.9-9.1.3-21.7-1.7-32.5 3.1z"/><path fill="#CC291F" d="M41.6 130.2c-.1 8 .1 11.2 2 19.1 1.6 6.8 3.1 11.4 3.9 14.1.8 2.7 3.7 8.6 8.2 8.4 4.6-.3 12.4-8.5 17.5-13.5s14.6-11.2 21.5-13.7c7-2.6 8.8-2.7 8.2-6.2s-5.8-10-10.7-9.8c-4 .2-3.3 2.8-5.4 4.8-3.1 3-16.5 11.4-19.2 12.8s-6 4.6-6 4.6 5.4-4.3 5.2-14.3c-.1-9.9-6.2-15.3-6.2-15.3l-19 9z"/><path opacity="0.2" d="M41.6 130.2c-.1 8 .1 11.2 2 19.1 1.6 6.8 3.1 11.4 3.9 14.1.8 2.7 3.7 8.6 8.2 8.4 4.6-.3 12.4-8.5 17.5-13.5s14.6-11.2 21.5-13.7c7-2.6 8.8-2.7 8.2-6.2s-5.8-10-10.7-9.8c-4 .2-3.3 2.8-5.4 4.8-3.1 3-16.5 11.4-19.2 12.8s-6 4.6-6 4.6 5.4-4.3 5.2-14.3c-.1-9.9-6.2-15.3-6.2-15.3l-19 9z"/><path fill="#CC291F" d="M53.6 133.4c-2.4 6.5-4.5 10.2-5.4 22.1-.9 11.9-3.9 21.4 1.2 25.3 4.5 3.4 7.7 2.4 13.6-2.2s22.7-15.9 29.9-17c7.1-1.1 8.8-.9 9.6-1.4.8-.5 4.3-5.6 1.3-10.4s-8.7-3.9-10.1-3.5c-2 .6-5.2 3.1-11.7 6.5s-17.8 11.1-17.8 11.1 7.2-13 7.6-24.1c.4-11.1-2.5-18.7-4.1-19.9-1.4-1.2-14.1 13.5-14.1 13.5z"/><path fill="#FBD7C7" d="M41.4 7.8c-.9 0-1.7 3.7-1.7 5.2 0 1.6.1 2.3.1 4.8 0 2.1 0 3.2.6 4.6s2.5 8.5 3.4 12.1c1 3.6 3 6.9 3.1 7.5s-.9 7.3-.5 13.7 2 17.7 2.1 18.5c0 .8 3.2 16.2 7.7 18.9s10.9 5.5 15.5 5.2c4.6-.3 25.6-.7 26.7-1.2 1.1-.5 4.5-6.1 5.9-6.8s3.8-.9 5.7-1.6c3.2-1.1 6.3-1 6.2-1.7-.1-1.1-2.7-.4-4-.2-1.4.2-2.5.3-2.5 0s1.9-1 3.3-1.4c1.4-.3 3.6-.8 3.4-1.6-.2-1-2.3 0-4.3.4s-2.8.7-3 .5c-.1-.2 2.1-1.5 3.4-2.4 1.3-.8 3.2-1.8 2.7-2.5-.4-.7-2.2.6-3.8 1.5-1.6.8-2.7 1.7-3 1.5-.3-.2 1.4-1.5 2.6-2.5 1.2-.9 2.5-1.4 2-2s-1.8.2-3.1 1.2c-1.2.8-2.3 1.6-3.8 2.3-1.5.7-1.8.1-1.8.1s1.3-1.6 1.5-1.9c.3-.5.8-1.2-.1-1.4-.7-.1-1.7 1.1-2.7 2.3-.8 1-1.3 1.3-1.5 2-.1.5.8 2.3 0 3.1-.9.8-5.7 3.8-6.9 4-1.6.4-7.7-1-10.6-1.9-2.8-1-6.4-2.7-7.8-3.5-1.4-.9-4.8-7.1-6.7-10.8-1.9-3.7-9-6.2-10.3-8.2s-4.8-12-5.4-16.3c-.5-4.4.5-7.2-.1-9.4s-8.2-16.2-8.5-17.6c-.3-1.4.8-2.7.7-4.3-.1-1.6 1.6-4.6 1.1-5.1s-1.5.2-1.9 1.7c-.2.7-.3 1.1-.6 2 0 0 .2-.6.2-1.7s.2-1.8.5-2.8c.6-1.9 1.9-3.3 1.1-3.8s-1.5 1-2.3 2.8c-.6 1.2-.7 2.5-.7 2.5s-.1-1.2.4-2.6c.6-1.7 1.9-2.9 1.3-3.4-.7-.5-2 1.5-2.4 2.7-.3 1.1-.5 1.8-.5 1.8s.3-1.8.6-2.4c.5-1.4 1.3-2.5.8-2.7-.7-.2-1.2.4-1.8 1.9-.5 1.2-.8 2.9-.8 2.9s.1-1.3.3-2.1c.3-.8.9-1.9.2-1.9z"/><path fill="#FC0" d="M57.1 63.8s-9.7 3-10.1 3.6c-.5.6-.5 3.3-1 5.8s-.1 4.1-2 6.9c-1.8 2.9-4.1 2.7-5 7-.9 4.4 2.4 8.1 2.4 8.1s-1.8 14.1-2 20.9c-.2 6.4.6 14.5 2.1 17 .7 1.2 5.6 4.5 13.4 1.9 7.7-2.7 14.3-11.1 14.5-12.4s-1.6-2.5-2.9-5.9-.6-8 2.1-11.4c2.7-3.4 5.4-7 5.4-7s-2.9.2-3-1.3c-.2-1.9 1-7.1 3.3-9 2.3-2 4.6-2.2 4.6-2.2s-.9-.4-2-1.8c-1.2-1.4-3.6-5-3.6-5s-10.7 9.5-17.6 5.8-2.2-11 1.2-12.6c3.3-1.6.2-8.4.2-8.4z"/><path fill="#FBD7C7" d="M57.6 59.7c-1.6 2.9-2.5 5.1-2.7 8.2s-1.8 8.9.5 10.2 6.7.5 11.1-1.7c4.4-2.2 16.6-20.2 6.8-23.4-9.8-3.1-15.7 6.7-15.7 6.7z"/><path fill="#825012" d="M64.1 61s-4.5 2.6-6 3.5-3.5 2.9-3.1 6.4c.3 3.5.5 4.4.5 4.4s-4.7-.5-4.5-6c.3-5.5 3.9-7.1 6.1-10.7 2.2-3.5 7-13.4 16.6-9s5.5 14.4 5.2 19 1.8 8.6.4 10.9c-1.4 2.2-4.6 5.8-11.8 5.2-7.2-.7-7.2-3.6-7.2-3.6s6.9-2 7.3-5.8C68 71.4 63.3 64 64.1 61z"/><path opacity="0.2" d="M39.3 91.3c2.3 8 14.3 12.9 26.3 9.8-17.5.5-23.8-6.4-26.3-9.8z"/><metadata><rdf:RDF xmlns:rdf="http://www.w3.org/1999/02/22-rdf-syntax-ns#" xmlns:rdfs="http://www.w3.org/2000/01/rdf-schema#" xmlns:dc="http://purl.org/dc/elements/1.1/"><rdf:Description about="https://iconscout.com/legal#licenses" dc:title="basicwoman" dc:description="basicwoman" dc:publisher="Iconscout" dc:date="2017-09-20" dc:format="image/svg+xml" dc:language="en"><dc:creator><rdf:Bag><rdf:li>Icograms</rdf:li></rdf:Bag></dc:creator></rdf:Description></rdf:RDF></metadata></svg>