<?xml version="1.0" encoding="UTF-8"?><svg xmlns="http://www.w3.org/2000/svg" xmlns:xlink="http://www.w3.org/1999/xlink" version="1.1" id="Layer_1" x="0px" y="0px" viewBox="0 0 80 240" xml:space="preserve"><path fill="#CC291F" d="M23.5 55.8s-6.9 8.5-9.2 11.7c-2.1 2.9-3.9 6-4.4 7.9-.5 1.9 1.2 4.9 3.5 7.2 2.7 2.7 6.8 8.4 8.3 10.8 1.5 2.4 3.1 5.5 3.1 5.5L36 92.6s-7.3-6.6-9.7-10c-2.4-3.3-5-6.7-5-6.7l6.8-3.5-4.6-16.6z"/><path opacity="0.15" d="M23.5 55.8s-6.9 8.5-9.2 11.7c-2.1 2.9-3.9 6-4.4 7.9-.5 1.9 1.2 4.9 3.5 7.2 2.7 2.7 6.8 8.4 8.3 10.8 1.5 2.4 3.1 5.5 3.1 5.5L36 92.6s-7.3-6.6-9.7-10c-2.4-3.3-5-6.7-5-6.7l6.8-3.5-4.6-16.6z"/><path fill="#CC291F" d="M47.6 59.6c2.9 1.3 12.3 6.7 13 10.6.8 3.9-1.5 9.8-2 13.8-1.6 11.8.9 20.5.9 20.5s-3.6 2.1-5.4 2.1c-1.9-.1-6.5-47-6.5-47z"/><path opacity="0.2" d="M27.6 206.4c-9.2 5.6-9.9 12.4 2 18.7 13 7 20.7 5.5 30.8-.4 8.9-5.1 6.9-12.1-8.1-18.1-12-4.8-18.2-4.2-24.7-.2z"/><path fill="#FBD7C7" d="M29.4 96.4c-2.4 3.1-11.4 14.1-8.8 29.7s7 23.9 6.3 27.6-3.6 10.7-2.9 18.5c.8 9.6 3.6 19.5 3.8 22.7.2 3.2 1.3 6.2.4 8.7-.9 2.5-3 4.3-.9 6 1.8 1.4 1-.6 10.1 2.7 12.1 4.5 9.6-1.8 3.6-2.9-2.1-.4-4.1-4.7-4.7-7.6-.3-1.2-1.2-15.7-.4-22.3.8-6.6.9-16.9.8-19.9-.1-3 2.4-14.3 3.3-19.8 1.4-8.4 4-38.1 4-38.1l-14.6-5.3z"/><path fill="#656565" d="M27.6 204.7s-2.3 2.5-2.2 4.8c.1 2.3 1.8 5.6 1.8 6.9v3.2l1.7.9 1.6-.8s-.7-5.3.5-6.1c1.2-.8 4.7 1.9 7.2 2.5s8.2-.1 10.3-.9c2.2-.9.4-3.6-1.5-4.7-2.6-1.4-6.6-1.1-6.6-1.1s1.3.4 2.8 1.9c2.7 2.7-4.7 3.2-11.5-2.6-2.7-2.4-4.1-4-4.1-4z"/><path fill="#FBD7C7" d="M37.8 100.7s-5.3 12.7-5.3 18.9c0 6.2 4.1 8.4 4.8 10.4.8 2 1 8.4 2.9 16s4.2 12.4 2 17.9c-3.5 8.7-2.9 16.3-1.8 26.9 1 10.6.2 16.6-.1 18.4-.4 2-3.5 3-1.9 5.4 2.2 3.2 8.3 3.6 11 4.9 3.2 1.5 7.2 2 8.1.4.9-1.5.2-3.9-3.4-3.7-3 .1-5.2-5-6.1-7.2-.9-2.2 1-9.5 2.6-21 1.5-11.5 2.1-24 2.9-28.7.8-4.7 3.1-8.9 3.8-30.2s-1.6-27.4-1.6-27.4l-17.9-1z"/><path fill="#656565" d="M39.4 210.4s-2.3 2-2.3 4.5 2.1 5.3 2.4 7.3.2 3.4.2 3.4l1.9.9 1.9-.8s-1.6-5.6.1-6.1c1.6-.4 6.7 3.6 9.8 3.6s7.2-3.9 7.2-5.3c0-1.5-3.4-3-5.4-2.9-2 .1-2.8.6-2.8.6s3 1.3 3.5 2.3c.4 1-.6 1.7-1.8 2-2.6.5-5-1.8-9.2-5.1-3.8-2.8-5.5-4.4-5.5-4.4z"/><path fill="#262626" d="M30.8 95.2s-9.2 9.7-10.3 18.3c-2.2 17.6-1.7 49.9-1.7 49.9s7.8 7.7 20 7.3c9.7-.3 16.6-3.3 16.6-3.3s3-35.7 2.9-44.9c-.1-8.1-2.5-19.7-2.5-19.7s-13-2-17.8-3.8c-4.7-1.7-7.2-3.8-7.2-3.8z"/><path fill="#FBD7C7" d="M54.4 65.1s1.5 1.1.6 7.5c-1 6.3-1 19.4.8 25.7s5.2 20 6.3 22.6c1 2.6 2.3 3.2 2.9 4.2.5.7 1.3 4.8.9 6.2-.5 1.4-2.8 5-4.7 5.6s-4.3.6-4.6-.3c-.3-.9 1.7-1.2 2-2.6.3-1.3.5-6 .5-7.3 0-1.2-1.1-4.6-4.9-10.7-3.8-6.2-7-11.3-8.1-18.1-1-6.8-3.1-26.4-2.7-30.1.6-5.1 7.2-7.7 11-2.7z"/><path fill="#CC291F" d="M34.5 53.3c-3.5-.2-8.1-.7-10.3 1.5s-2.8 4.6-1.6 9 8.1 21.8 7.5 25.4c-1.2 7.7-5.9 13-5.9 13s3.7 2.4 13.3 3.6c2.6.3 9.3.8 9.3.8s2.2 7.3 2.7 9.2c1.4 5.3 1.8 10.1 1.8 10.1s5.4 1.4 8.9-.9c2.2-1.4 3.7-3.2 3.4-4-.3-.8-3-8.7-4.3-13.1-1.3-4.4-4.8-18.3-4.7-25 .1-6.6 3.5-13.8-.1-18.5-3.6-4.7-12-8.6-12-8.6l-8-2.5z"/><path fill="#FBD7C7" d="M44.5 26.3c3.3 1.2 4.6 4 5.1 10s-.2 9.7-.6 10.8c-.5 1-4.1 2.2-5 3.8-.9 1.5-1.6 4.7-1.1 5.3.9 1.2 1.7 1.2 1.7 1.2s-8.3 2-11.2.7c-2.9-1.3-2.8-3-2.3-3.6.6-.7 1.6-3.4 1.1-5-.6-1.5-7.4-7.7-5.3-14.9 2.7-8.6 10.9-10.7 17.6-8.3z"/><path fill="#825012" d="M43.3 51.2c2.5-1.4 4.8-9.9 4.8-9.9s.6 1.1.7 4.2c1.6-1.1 3.2-13.2-1.5-17.3-8.7-7.7-16.3-4.9-18.9-2 2.7-1 3.3-.5 3.4-.6 0 0-8.3 2.4-9.5 11.2-1.1 7.9 2.4 12 4.1 13.7 0-1.1.4-3.3.4-3.3s.3 8 6.5 9.7c8.2-2.5 9.2-10.4 9.2-10.4s1 1.4.8 4.7z"/><metadata><rdf:RDF xmlns:rdf="http://www.w3.org/1999/02/22-rdf-syntax-ns#" xmlns:rdfs="http://www.w3.org/2000/01/rdf-schema#" xmlns:dc="http://purl.org/dc/elements/1.1/"><rdf:Description about="https://iconscout.com/legal#licenses" dc:title="woman" dc:description="woman" dc:publisher="Iconscout" dc:date="2017-09-20" dc:format="image/svg+xml" dc:language="en"><dc:creator><rdf:Bag><rdf:li>Icograms</rdf:li></rdf:Bag></dc:creator></rdf:Description></rdf:RDF></metadata></svg>