<?xml version="1.0" encoding="UTF-8"?><svg xmlns="http://www.w3.org/2000/svg" xmlns:xlink="http://www.w3.org/1999/xlink" version="1.1" id="Layer_1" x="0px" y="0px" viewBox="0 0 80 240" xml:space="preserve"><path opacity="0.2" d="M63.9 236.2c15.7-7.7 6-16.3-10.9-21.1-14.9-4.2-26.2-22.2-43.2-11.3-13.8 8.7 4.9 17.9 18.3 22.6 19.1 6.8 22.8 16.1 35.8 9.8z"/><path fill="#262626" d="M33.2 205.3c1.7.7-1.6 1.8-5.3 4.3s-6.9 6.6-11.9 6.3-5.7-2.2-2.9-5.4 12.8-8.2 20.1-5.2z"/><path fill="#FFF" d="M31.1 205.3c-2.9 1.9-5.5 3.9-8 5.8s-8 4.2-10.3 3.6-2-4 .7-6.4 8.6-6.1 9.9-7.3c1.1-1.3 13.5.4 7.7 4.3z"/><path fill="#262626" d="M62.1 222.4c-2 3.3-4 10.8-7.9 11.6s-6.9-.4-7.4-2.1 4-9.9 7.6-12.7 10.2-1 7.7 3.2z"/><path fill="#FFF" d="M60.8 222.6c-1.5 2.9-3.1 9.5-7.6 10s-5.9-.7-6.4-2.1.9-5.4 3.8-8.6 3.3-5.8 7.2-5 4.7 2.5 3 5.7z"/><path fill="#CC291F" d="M23.7 116.8s-3.4 6.2-4 15.7c-1 15.3 1.5 32.7 1.9 37.2.4 4.6-.4 21.3-1.4 26.9s-1.8 7.6-1.8 7.6 4.3 4.6 9.4 3.9c5.1-.7 6.5-2.1 6.5-3.3 0-1.2-.4-11.5-.7-17.2-.3-5.7 1.4-14.3 1.9-21.9.4-7 2.4-17.9 2.4-17.9l-1.4-32.2c-4.1.5-12.8 1.2-12.8 1.2z"/><path opacity="0.2" d="M23.7 116.8s-3.4 6.2-4 15.7c-1 15.3 1.5 32.7 1.9 37.2.4 4.6-.4 21.3-1.4 26.9s-1.8 7.6-1.8 7.6 4.3 4.6 9.4 3.9c5.1-.7 6.5-2.1 6.5-3.3 0-1.2-.4-11.5-.7-17.2-.3-5.7 1.4-14.3 1.9-21.9.4-7 2.4-17.9 2.4-17.9l-1.4-32.2c-4.1.5-12.8 1.2-12.8 1.2z"/><path fill="#CC291F" d="M47.1 182.1c1.4 7.7 5 19.3 4.4 27.7-.5 8.4-.9 11.2-.9 11.2s2.9 1.7 6.9 2.6c4 .9 6.5-2.2 6.5-2.2s1.3-15.8-.9-29-3.9-22.1-4.5-32c-.7-9.9.8-25-2.7-34.9-.6-1.6-2.8-6.8-4.4-7.8-5-3.3-13.1-4.2-19.5-3.4 0 0-.3 19.9.4 22.4.7 2.4 2.7 5.4 4.6 11.2 1.6 4.7 3.4 9.9 5.1 15.7 1.5 5 3.6 11.4 5 18.5z"/><path fill="#FBD7C7" d="M33.1 64c-2.3-5.8-3.7-21.6-4-25.3-.3-3.7-4.8-20.4-5.9-22.9-1.2-2.5-4-8.5-4.2-11.2s-.2-2.7-1.4-2.9-1.1 3.9-.6 6.7.5 5.4.5 5.4-1.6-1.9-2.6-1.2.7 2.2 1.2 2.9c.5.7.5 1.8 1.8 2.3s1.4.1 1.8 1.2.3 9.1.7 14.4 1.2 4.4 1.6 7.4-.1 9.6 1.4 17c1.4 7.4 2.2 10.4 2.2 10.4l7.5-4.2z"/><path fill="#FBD7C7" d="M34.1 67.3S26 79.2 35.6 80.4s13.6-11.3 13.7-12.1-4.8-9-4.8-9l-10.4 8z"/><path fill="#FC0" d="M31.6 62.2s-4.2 2.5-7.2 4c-.3.1 1.1 6.1.4 10.9-.6 4-3.1 6.9-2.6 10.5.7 5 4.1 6.6 4.2 7.7s-1.1 12.2-2 16.6c-1 5.1-4.4 13.3-4.4 13.3s4.7 8.6 16 9.2 21.1-6.6 20.6-8.3c-.9-2.7-4.9-11.9-4.7-16.2s4.4-16.7 5.6-20.5c1.2-3.8 6-11.5 5.7-14.9-.2-3.6-3.8-10.6-10-9.3-1.1.2-5.3 2.1-5.3 2.1s-3.7 13.4-11.5 12.2c-6.9-1.1-2.3-11.4-2.3-11.4l-2.5-5.9z"/><path fill="#825012" d="M43.8 40.1c-3-1.1-7.8-.8-11.9 4.2-3.9 4.8-3.9 11.2-2.8 14.8 2.1 6.5-3.3 7.1-3.3 7.1s2.8 5.2 8.5 2.5C41.4 65.3 49 60.6 48 52.4s-4.2-12.3-4.2-12.3z"/><path fill="#FBD7C7" d="M34.1 48.6s-2.8 1.6-3.1 6.9c-.3 4.9-.3 11.5 2.1 12.9s11.4-2.1 13.1-4.9c1.7-2.7-2-21.4-12.1-14.9z"/><path fill="#825012" d="M41.8 40.2c5.7-1.1 10.5 3 11.3 10.3.8 7.3 2.2 14.2 5.3 16.1s-5.2-4.2-6.8 5.1c-.3 1.4-2.6 3-5.3 3.1-6.1.2-7.7-3-7.7-3s4.8-1.7 4.4-5.7c-.6-6.8-6.4-8.8-7.9-15.5s6.7-10.4 6.7-10.4z"/><path fill="#FBD7C7" d="M52.7 69.8s1.7-6.3 3.3-11 4.7-8.6 5-11.2c.4-2.8.4-6.3 1.8-10.8 1.5-4.8 1-8.1.8-8.6-.2-.5-.4-.7-1.2-1.5s-.5-2.1-.7-2.4c-.2-.4-1.2-1.6-.8-2.2s.8-.5 1.5 0 .8 1 .9 1.6c.1.5.3.8.3.8s.2-1.2.5-2.1c.3-.9.5-2.9.5-4.4s-.4-4.9.7-5 1 2.8 1 4.1.3 3.7.3 3.7 1.3-3.4 1.7-4.7c.4-1.3.6-3.3 1.5-3s.4 2.5-.1 4.2-.8 3.9-.8 3.9 1.2-2.4 1.7-3.6 1.2-3.6 1.9-3.4-.2 3.3-.7 4.6-1 2.8-1 2.8 1.7-1.6 2.1-2.1 1.4-2.2 2-1.9-.6 2.1-1.6 3.3c-1 1.2-1.4 2.8-1.8 4.5-.4 1.7-2.3 3.4-2.4 4.1s-1.1 3.7-.9 8.4.3 10.1-.4 11.9c-.7 1.9-2.4 6-3.8 13.7-1.4 7.6-1.2 9.1-1.7 12.3-.2 1.6-1.4 3.3-3.3 3.3-2-.3-6.6-6.2-6.3-9.3z"/><path opacity="0.2" d="M23.2 90.5s1.3 4.3 13.6 5.2c12.3.8 18.3-4.7 18.3-4.7s-3.9 7.9-17.8 7.1c-12.9-.9-14.1-7.6-14.1-7.6z"/><metadata><rdf:RDF xmlns:rdf="http://www.w3.org/1999/02/22-rdf-syntax-ns#" xmlns:rdfs="http://www.w3.org/2000/01/rdf-schema#" xmlns:dc="http://purl.org/dc/elements/1.1/"><rdf:Description about="https://iconscout.com/legal#licenses" dc:title="basicwoman" dc:description="basicwoman" dc:publisher="Iconscout" dc:date="2017-09-20" dc:format="image/svg+xml" dc:language="en"><dc:creator><rdf:Bag><rdf:li>Icograms</rdf:li></rdf:Bag></dc:creator></rdf:Description></rdf:RDF></metadata></svg>