<?xml version="1.0" encoding="UTF-8"?><svg xmlns="http://www.w3.org/2000/svg" xmlns:xlink="http://www.w3.org/1999/xlink" version="1.1" id="Layer_1" x="0px" y="0px" viewBox="0 0 80 240" xml:space="preserve"><path fill="#FBD7C7" d="M27.9 76.6s1.5 13.1.2 18.2-2.3 8.4-2.9 14-.3 10.3-1.3 13c-1 2.6-.8 7.1-.3 10 .3 2.2 1 6.4 2.1 6.2 1.1-.2.7-1.5.9-2.7.2-1.1.4-2.8.2-3.7-.1-.9-.1-.8.6-1.4.7-.6.2-3.4.1-4.7-.4-2.9 2-9.6 3-14.3 1-4.7 4.1-11.6 3.5-16.2s-.7-16.9-.7-16.9l-5.4-1.5z"/><path opacity="0.2" d="M6.3 215.9c-6.2 7.5 4.4 11.2 19.8 12.5 15.4 1.3 29.8 8.1 40.2 2.8s4-15.3-16.3-16.6c-20.3-1.3-19.7-6.1-28.8-4.1s-12.7 2.8-14.9 5.4z"/><path fill="#262626" d="M32.1 213.6c2.4 0 4 4.7-.4 6-4.4 1.3-9.2 1.9-10.6 2.1-2.1.2-7.3.7-9.8 0-2.7-.7-2.2-3.4-1.5-4.6.7-1.1 15.1-4.3 17.7-4.3 2.6.2 4.2.8 4.6.8z"/><path fill="#FFF" d="M10.7 219.9c1.5.5 6 .5 9.8 0 1.5-.2 13.2-2.5 13.9-3.9s-9.9-5.6-9.9-5.6-5.5 2.7-7.7 3.1c-2.2.4-5.4.8-7.1 2.7-1.1 1.2-.3 3.3 1 3.7z"/><path fill="#262626" d="M54.5 216.8c-.2 2-1.2 6.7.5 10.2 1 2.1 6.8 3 9.2.5 2.4-2.5-1.4-14.2-1.4-14.2l-8.3 3.5z"/><path fill="#FFF" d="M55.1 216s-2.8 11.2 4.3 11.1c7.2-.1 5.1-5.1 4.5-8.5-.6-3.4-2-5.2-2-5.2l-6.8 2.6z"/><path fill="#CC291F" d="M53.8 217.6s2.9.1 6.7.3c3.8.2 4.1-1.6 4.1-1.6s-.8-6.5-.9-11.4c-.2-4.9.4-18.8-.2-25.2-.7-6.4-.8-11.7.4-23.3s2.5-18.7.2-24.7-3.7-8.5-3.7-8.5l-31.9 3.4s-3.8 9-4.2 20c-.4 11.1 2.6 20.8 1.7 26.6-.9 5.9-1.3 18.7-1.9 24.7-.9 9.4-4.4 15.5-4.4 15.5s1 3 6.1 3.8 8.7-1.7 8.7-1.7.2-6.5.9-14.7c.8-8.2 2.2-16.2 2.4-22.7s.6-7.5 1-9.2c.5-1.7 2.3-13.6 3.4-17.1 1.4-4.7 1.8-9.4 2.9-9.4 1.1.1.9 4.1 2.2 11.9 1.1 6.5 4.8 32.8 4.9 40.8.1 8.1 1.6 22.5 1.6 22.5z"/><path fill="#CC291F" d="M28.4 126.5s-3.8 9-4.2 20c-.4 11.1 2.6 20.8 1.7 26.6-.9 5.9-1.3 18.7-1.9 24.7-.9 9.4-4.4 15.5-4.4 15.5s1 3 6.1 3.8c5.1.8 8.7-1.7 8.7-1.7s.2-6.5.9-14.7c.8-8.2 2.2-16.2 2.4-22.7.2-6.5.6-7.5 1-9.2.5-1.7 2.3-13.6 3.4-17.1 1.4-4.7 1.8-9.4 2.9-9.4 0 0 1.1-10.4.5-17.5l-17.1 1.7z"/><path opacity="0.2" d="M28.4 126.5s-3.8 9-4.2 20c-.4 11.1 2.6 20.8 1.7 26.6-.9 5.9-1.3 18.7-1.9 24.7-.9 9.4-4.4 15.5-4.4 15.5s1 3 6.1 3.8c5.1.8 8.7-1.7 8.7-1.7s.2-6.5.9-14.7c.8-8.2 2.2-16.2 2.4-22.7.2-6.5.6-7.5 1-9.2.5-1.7 2.3-13.6 3.4-17.1 1.4-4.7 1.8-9.4 2.9-9.4 0 0 1.1-10.4.5-17.5l-17.1 1.7z"/><path fill="#CC291F" d="M47.3 154.4c1.1 6.5 4.8 32.8 4.9 40.8.1 8 1.6 22.4 1.6 22.4s2.9.1 6.7.3c3.8.2 4.1-1.6 4.1-1.6s-.8-6.5-.9-11.4c-.2-4.9.4-18.8-.2-25.2-.7-6.4-.8-11.7.4-23.3 1.1-11.6 2.5-18.7.2-24.7s-3.7-8.5-3.7-8.5L42.8 125c.6 7.1 2.3 17.5 2.3 17.5 1.1.1.9 4.1 2.2 11.9z"/><path fill="#FBD7C7" d="M60.3 83.5s-2.6 15.5-2.1 20.6c.4 5.1 1.3 11.2 2.3 14.8 1 3.6 1.7 6 .9 7.3s-1.8 5.3-1.1 6c1.8 1.6 2.5 5.6 3 6.6.3.6.9 1.1 1.8.6.9-.5.2-4.7.3-5.7.1-1 .4-5.8.4-7.4 0-1.6.6-15.7 0-18.8s-1.4-8.2.4-14.7C68 86.4 69 85.5 69 82.6c-.1-3-8.7.9-8.7.9z"/><path fill="#FBD7C7" d="M40 67.8s-12.3 13.3 1.7 14.9S58.2 75 55.6 69.8C53 64.7 48.7 62 48.7 62L40 67.8z"/><path fill="#FC0" d="M40.3 68.6s-5.6-1.7-8.9.6-3.8 7.7-3.8 7.7.6.5 1.4.9c.8.4 1.3.4 1.3.4s0 1.7-.9 4.2c-.8 2.6-2.7 5-1.7 8.5.9 3.4 3.1 3.9 3.1 4.6 0 .8.6 12.2-.7 18.5s-2.5 12.8-2.4 14.6c0 .3.4 5.5 13.1 5.8 12.7.2 20.7-8.8 20.7-8.8s-2.6-6.8-3.7-11c-1-3.9 2.4-17.8 2.4-21.4v-8.5s1.3 1.2 5.2 1.1c2.1-.1 3.7-1.4 3.7-1.4s.9-5.6-3.1-8.9-8.5-3.5-8.5-3.5-5.1 10.4-13.9 8.1c-9.5-2.4-3.3-11.5-3.3-11.5z"/><path fill="#825012" d="M47.9 41.1c-8.1-.5-12 3-13.5 8.6-1.5 5.4 4 15.3-1.8 17.9.1 2.2 5.1 4.5 7.3 2.1 2.2-2.3 2.9-2.4 2.9-2.4l5.1-26.2z"/><path fill="#FBD7C7" d="M37.2 51.2c-1.5 3.1-1.9 15.6.6 17.6 2.5 2 7.6-1.3 12.5-3.5s5.5-19-1.9-19.2-9.6 1.8-11.2 5.1z"/><path fill="#825012" d="M46.4 41.3c-3.3.8-7.1 5.2-6.4 10 1 6.2 13.2 18.3 4.6 22.2 1.4 4.6 9.5 4.3 14 2 4.3-2.3 4.7-4.5 4.6-5.3-.1-.8-3.8-4.9-3.8-10.9-.1-6.1-.5-21.1-13-18z"/><path opacity="0.2" d="M27.9 90.9S29 95.2 41.5 96c12.5.9 18.6-4.8 18.6-4.8s-3.3 7.9-17.4 7.4-14.8-7.7-14.8-7.7z"/><metadata><rdf:RDF xmlns:rdf="http://www.w3.org/1999/02/22-rdf-syntax-ns#" xmlns:rdfs="http://www.w3.org/2000/01/rdf-schema#" xmlns:dc="http://purl.org/dc/elements/1.1/"><rdf:Description about="https://iconscout.com/legal#licenses" dc:title="basicwoman" dc:description="basicwoman" dc:publisher="Iconscout" dc:date="2017-09-20" dc:format="image/svg+xml" dc:language="en"><dc:creator><rdf:Bag><rdf:li>Icograms</rdf:li></rdf:Bag></dc:creator></rdf:Description></rdf:RDF></metadata></svg>