<?xml version="1.0" encoding="UTF-8"?><svg xmlns="http://www.w3.org/2000/svg" xmlns:xlink="http://www.w3.org/1999/xlink" version="1.1" id="Layer_1" x="0px" y="0px" viewBox="0 0 80 240" xml:space="preserve"><path fill="#FBD7C7" d="M24.8 82.2s-3.2 10.8-5.9 19.1-4.4 13.8-5.3 15.9-1.3 5.7-.8 7.3c.5 1.6 2.3 5 3 5.7 1.7 1.6 4.4 1.2 4.8.8.4-.5.4-2.2-.3-2.9-.7-.7-2.6-3-1.4-6s1-4.2 1-6c0-1.5-.5-1.7.7-4.1 1.2-2.5 6.9-14.5 7.5-16.2.5-1.7-3.3-13.6-3.3-13.6z"/><path fill="#CC291F" d="M23 91.4c-1.5-8.3-1-3.9-2.1-7.8 0-.1-.8-.3-.7 0 .6 3.4.3 8-1.5 12.7-2.1 5.7-6 16-5.5 16.4 1.4 1.6 8.4 2 8.4 2l.8-2.5 1.4-8.4c0-.2.7-4.1-.8-12.4z"/><path opacity="0.15" d="M23 91.4c-1.5-8.3-1-3.9-2.1-7.8 0-.1-.8-.3-.7 0 .6 3.4.3 8-1.5 12.7-2.1 5.7-6 16-5.5 16.4 1.4 1.6 8.4 2 8.4 2l.8-2.5 1.4-8.4c0-.2.7-4.1-.8-12.4z"/><path opacity="0.2" d="M20.7 206.2c-11.8 7.6-12.4 14.4 0 21 13.5 7.2 22.4 3.3 32.9-2.7s11.8-13.4-3.6-19.6c-12.5-4.9-20.4-4.4-29.3 1.3z"/><path fill="#FBD7C7" d="M38.7 54.7s-9.1-4-12.3.3-1.7 11-1.7 11-5.4 6.1-5.4 9.4c0 3.3 5.1 6.5 5.1 6.5s-.1 17.5-1 24-3 21.6-2.4 32.2 1.6 25 1.9 29.2c.3 4.1 2.2 10 3 14.8.9 4.8 4.1 13.2.9 19.6s-6.1 9.3-7.4 10.5c-1.3 1.2.2 5.2 3 4.5 2.8-.7 7.2-7.1 9.9-8.1s7.2-4 6-7.7c-1.2-3.6-1.7-2.2-2-5.3-.3-3.1 2.2-16.7 1.3-22.8-.9-6.1-3.2-7.8-3.6-8.8-.4-1.1 5.7-29.5 5.7-29.5s1.2 27.3 1.1 30.2c-.1 2.9 2.1 17.7 2.7 24.6.7 7 1 18.8-2 22.9-2.9 4.1-8 10.3-6 11.7 2 1.4 8.3 2.7 9.8-.9s5.3-11.1 6.7-13.1 1.9-3.1 1-5-1.5-5-.5-10.3 4.1-14.7 3.3-19.7c-.8-5-3.2-8.1-2.9-11.7.3-3.5 8.1-24.8 6.6-39.7s-9-17.5-10.3-23.5c-1.3-6 3-13.9 5.2-18.2 2.2-4.2 5.3-11.6 2.6-14.2-2.7-2.7-5.9-4.4-7.1-6.4-1.2-2-2.5-8.2-2.5-8.2l-8.7 1.7z"/><path fill="#656565" d="M21.3 210.3s-4.9 1.7-5.9 3.9c-.8 1.8-.5 3.9 1.2 5s5.2 1.3 8.2-.4c2.9-1.7 6.8-8.4 7.5-8.7.7-.3.2 3.7.2 3.7l2.1 1.1 2.3-.9s-.2-4.5.7-6c.9-1.6 2.6-3.9 2-6.9-.7-3-2.6-3.3-2.6-3.3s0 3.5-4 7.3c-3.8 3.6-5.9 9.6-9.2 9.3-4.5-.7-2.5-4.1-2.5-4.1z"/><path fill="#656565" d="M38.2 217.1s-4.6 3.5-4.9 5.7c-.3 2.2-.2 3.7 2.9 4.7s7.1-.2 9-1.8c1.8-1.6 4.4-5.8 4.4-5.8l2 1.1 2.3-1.1s-.3-2.7.4-5.1c.7-2.4 1.4-4.4 1.4-7.4s-2.8-3.3-2.8-3.3 1.7 1.6-.8 5.1-4.4 11.3-8.1 11.5c-7 .5-5.8-3.6-5.8-3.6z"/><path fill="#262626" d="M22.3 109.9s-2.4 13.8-2.4 23.7 1.9 34.9 1.9 34.9 13.3 3.6 21.5 2.8c9.8-.9 13.2-2.2 13.2-2.2s4.3-23.1 4.7-32.3c.6-13.3-2.9-26.8-5.7-30.3-2.8-3.5-33.2 3.4-33.2 3.4z"/><path fill="#FBD7C7" d="M45.2 76.5s7 8.7 10.5 13.2 7.1 9.3 7.1 9.3-5.9 3.2-9.7 7.4-6.7 7.6-7.7 7.8c-1 .2-5.3-.1-8.8 1.8-3 1.6-4.1 2.9-4.4 5-.3 2.1.4 3.8 1.7 4.8 1.3 1 3.1.6 3.7.3 1.5-.8 1.8-2.5 3.2-3.3 1.8-1 4.5-1.1 6.3-2.3 1.7-1.3 20.7-13.4 23-16 2.3-2.6 3.4-5.6.7-9.4-2.7-3.9-11.1-17.6-13.3-22s-4.9-8.8-9.5-8.8-8 7-2.8 12.2z"/><path fill="#CC291F" d="M73 98.8c-1.5-3.6-8.4-18.7-10-22.1s-3.4-8.4-6.3-11.2c-2.8-2.7-6.5-5.4-7.8-6.5s-13.4-5.3-13.4-5.3c-3.9-1-8.6-2-11 2.5s-1 8.3-1 8.3-5.4 5.9-5.5 9.9c-.1 3.7 2.5 7.9 3.9 18.2 1.2 8.3.2 18.1.2 18.1h.1c.5.1 6.7 1.9 12.2 1.8 7.2-.2 10.1-2.3 10.1-2.3s-1.4 3.8.9 7.7c2.3 3.8 5.2 3.8 6 3.3.8-.5 14.5-10.2 17.7-13s5.4-5.7 3.9-9.4zm-16.2 2.9c-2.6 1.6-4.9 3-4.9 3s-1.6-5.5-1.8-9.4c-.2-3.9 2.6-8.9 2.6-8.9s3 3.8 4.1 5.4c1.7 2.4 4.3 7.3 4.3 7.3s-2.3 1.3-4.3 2.6z"/><path fill="#FBD7C7" d="M33.9 53.9s-7.1 11.2-2.1 13.7c5 2.6 15.6-5.9 15.6-5.9L39.6 53l-5.7.9z"/><path fill="#FFF" d="M31.1 58.3s-1 6.5 2.1 7.9c3 1.4 9.2-.4 9.2-.4L22.9 79s.1-9.1 1.9-12.3c1.8-3.1 6.3-8.4 6.3-8.4z"/><path fill="#262626" d="M36.3 53.6s-8.2 8.6-10.1 13.7-2 10.8-1 21.1c.9 8.6 1 23.3 1 23.3l-1.4-.2s.4-20.3-3-33.6c-1.5-6.1-.7-12.7-.7-12.7l4.3-4.2 4.2-8.4 6.7 1z"/><path fill="#FBD7C7" d="M36.1 54.9s-4.3.7-4.9-.9c-.7-1.7-4.4-15.5 2.4-24.1s20.5-3.1 20.5 6c0 8.1-3.2 10.5-4.7 14.5-.9 2.5-1.6 5.8-.1 8.4 1.5 2.7 2.7 4 2.7 4s-7.6 4.6-13.3 3.2c-5.7-1.4-.2-4.2-1-6.6s-1.6-4.5-1.6-4.5z"/><path fill="#825012" d="M31.4 36.2s-.6 6.7 3.7 10.7c.2-3.2.9-4.6.9-4.6s1.7 5.8 4.2 5.8c-1-2.9-.7-4.7-.7-4.7s1 1.7 2.1 1.5c-.2-1.8.5-2.8.5-2.8s1 4.8 1 10.9c4.8-2.2 6.9-9.4 6.9-9.4s0 5.4-1.9 10.3c2.7.3 11-6.8 10.4-17.9-.5-8.6-9-11.7-9-11.7l2.3-.3s-7.6-4-15.4-.1c-8.9 4.5-8 17-7.5 17.2 1.1-4.1 2.5-4.9 2.5-4.9z"/><path fill="#262626" d="M49.9 59.9s-10.3 6.3-14.8 9.4-12.5 10-12.5 10l18.8-7.9 2.9-5 4-.6 6.1-3.1-4.5-2.8z"/><path fill="none" d="M52.7 86.3s-2.7 5-2.6 8.9c.2 3.9 1.8 9.4 1.8 9.4s2.3-1.3 4.9-3c2-1.3 4.3-2.7 4.3-2.7s-2.6-4.9-4.3-7.3c-1.2-1.6-4.1-5.3-4.1-5.3z"/><metadata><rdf:RDF xmlns:rdf="http://www.w3.org/1999/02/22-rdf-syntax-ns#" xmlns:rdfs="http://www.w3.org/2000/01/rdf-schema#" xmlns:dc="http://purl.org/dc/elements/1.1/"><rdf:Description about="https://iconscout.com/legal#licenses" dc:title="woman" dc:description="woman" dc:publisher="Iconscout" dc:date="2017-09-20" dc:format="image/svg+xml" dc:language="en"><dc:creator><rdf:Bag><rdf:li>Icograms</rdf:li></rdf:Bag></dc:creator></rdf:Description></rdf:RDF></metadata></svg>