<?xml version="1.0" encoding="UTF-8"?><svg xmlns="http://www.w3.org/2000/svg" xmlns:xlink="http://www.w3.org/1999/xlink" version="1.1" id="Layer_1" x="0px" y="0px" viewBox="0 0 80 240" xml:space="preserve"><path opacity="0.2" d="M65.1 234.6c15.7-7.7 6-16.3-10.9-21.1-15-4.3-26.2-22.2-43.2-11.4-13.8 8.7 4.9 17.9 18.3 22.6 19.1 6.9 22.8 16.2 35.8 9.9z"/><path fill="#262626" d="M16.3 216.7c2.8 1.1 5.8-.2 9-2.6s6.2-4.1 6.1-6.9-2.3-3.7-7.4-2-11.1 10.2-7.7 11.5z"/><path fill="#FFF" d="M16.9 215.9c2.6 1 9.8-4.1 11.7-5.8 1.9-1.7 3.1-2.8 2.5-4.3-.6-1.7-2.5-2.9-8.5-.8s-9.8 9.3-5.7 10.9z"/><path fill="#CC291F" d="M29 123s-3.9 6.7-4.3 16.4c-.4 9.6.1 23-.9 26s-7.1 13.5-8.7 24.8-2.2 25.2.4 26.5 6.8-1 8.2-1.9c2.7-1.8 3.8-4.5 4.1-6.6s-1.9-3.7-.8-11c1-7.3 5.3-17.3 8-23.7 2.7-6.5 6.2-20.1 7.4-23.6 1.2-3.5 3.2-24.7 3.2-24.7L29 123z"/><path opacity="0.2" d="M29 123s-3.9 6.7-4.3 16.4c-.4 9.6.1 23-.9 26s-7.1 13.5-8.7 24.8-2.2 25.2.4 26.5 6.8-1 8.2-1.9c2.7-1.8 3.8-4.5 4.1-6.6s-1.9-3.7-.8-11c1-7.3 5.3-17.3 8-23.7 2.7-6.5 6.2-20.1 7.4-23.6 1.2-3.5 3.2-24.7 3.2-24.7L29 123z"/><path fill="#262626" d="M46.1 229.4c-.2 1.6.5 2 3.4 2s10.8-1 13.1-1.7c2.3-.7 3.4-2.3 3.3-4.4 0-1.9-18.7-6-19.8 4.1z"/><path fill="#FFF" d="M46.6 229.6c2 1.1 7.6-.5 9.8-.5s5.8-.2 7.6-1.2c1.8-1 2.7-2.8.9-4.3-1.8-1.5-9.3-2.2-12.1-2.2s-11.6 5-6.2 8.2z"/><path fill="#CC291F" d="M58.2 126.5s5.2 6.9 4.3 20.6-5.3 30.1-5.7 43.2 2.6 31.5 2.5 32.7c-.1 1.2 0 5.2-7.1 6.4s-7.3 0-7.8-.4.8-13.5.2-22.3-.4-21 .4-28.3-.9-19.2-2.5-24.9c-.9-3.1-1.9-9.4-2.3-9.9-.7-.8-3.6-2.7-4.7-6.2-1.7-5.3-1-10 2.6-15.7 3.7-5.7 20.1 4.8 20.1 4.8z"/><path fill="#FBD7C7" d="M30.7 71.5s-.9-6.6-3.6-13.9S22 46.5 22 44.8c0-1.8-1.6-12.2-2.4-16.4-.9-4.3-.9-5.9-.4-7.1.5-1.2 1.9-1.7 2.2-3.5s.3-3 .7-3.9c.5-.8.8-.6.2-1s-1.7.2-2 1c-.3.8-.3 2.3-.7 2.5-.5.1-.7-1.4-.9-3s.7-7-.2-7.2c-1.1-.2-1.1 2.7-1.3 4.1-.2 1.1-.4 3.4-.4 3.4s-1-2.2-1.5-4.1-.7-3.9-1.6-3.6c-.9.2 0 3.3.3 4.5s.7 3.6.7 3.6-1.4-2.8-2.1-4.3c-.6-1.5-1-2.8-1.8-2.5-.7.3.5 2.9 1 4.2s1 3.3 1 3.3-1-1.3-1.6-2.6-1-3.1-1.8-2.8c-.7.4.5 2.6 1 3.8s.8 2.7 1.4 3.8c.6 1.1 2.1 4.2 2.2 5.2.1 1 .5 7.7.6 12.1s-.3 10.6 0 11.7 2.8 6.7 3.9 13.2c1.1 6.5 1.2 12.6 2.3 15.7 1.2 3.2 9.9-3.4 9.9-3.4z"/><path fill="#FC0" d="M30.2 67.2s-2.8 1.4-5.4 2.1-5.2.7-5.5 1.6c-.3.8 3.6 14.4 5.5 19.9 1.8 5.5 7 19 6.9 22s-2.1 6.2-2.9 9-1.5 4.7-1.5 4.7 6 .5 11.6.9 11.3-.3 15.4.1c3.7.4 5.7 1.8 5.7 1.8s-2.1-8-2.5-13.4c-.4-5.5-.9-17.9-.5-18.7.4-.8 3.1-2.3 3-6.1-.1-3.8-2.1-3.5-2.2-4.6-.1-1.1.5-2.8-.8-4-2-1.9-5.7-5-9-6.4l-17.8-8.9z"/><path fill="#825012" d="M44.6 45.6c-5.8-.1-11.3.7-13.9 10-1 3.4-1.5 6.8-2.9 9.9-2.7 5.8-6.8 9.2-3.1 13.6 4.5 5.3 15.4 7.9 18.6 4.9 3.2-3 3-7.1 5-7.7 2-.6 4.9 1.6 6-.5 1.1-2.1-.4-4.7-.5-8.6-.2-4 5.4-21.4-9.2-21.6z"/><path fill="#FBD7C7" d="M47.1 78.4c-.1 1.7.3 3.2 2.6 5.4 2.3 2.2 4.5 5.9 5.4 5.6s2.1-3.3 3.1-6.7c1-3.4 2.7-6.9 2.7-10.1s-.2-3.2.6-6.3 1.9-6.5 2-11.1 0-8.1 0-8.1 2.1-2.4 2.9-4.4c.7-2 .5-2.3.8-2.7s2.7-2.2 1.9-3.3c-.7-1.1-2.7 1.1-2.7 1.1s.5-3.8.5-5.3c0-1.4.5-4.3-1-4-1.5.3-.4 2.9-1.4 5.7-1 2.8-3.6 7.8-4.2 9-.6 1.2-.2 3-1.5 6.9s-3.4 8.2-4.1 12c-.7 3.9-.6 6.7-1.2 7.9-1.7 3.8-6.3 7.7-6.4 8.4z"/><metadata><rdf:RDF xmlns:rdf="http://www.w3.org/1999/02/22-rdf-syntax-ns#" xmlns:rdfs="http://www.w3.org/2000/01/rdf-schema#" xmlns:dc="http://purl.org/dc/elements/1.1/"><rdf:Description about="https://iconscout.com/legal#licenses" dc:title="basicwoman" dc:description="basicwoman" dc:publisher="Iconscout" dc:date="2017-09-20" dc:format="image/svg+xml" dc:language="en"><dc:creator><rdf:Bag><rdf:li>Icograms</rdf:li></rdf:Bag></dc:creator></rdf:Description></rdf:RDF></metadata></svg>