<?xml version="1.0" encoding="UTF-8"?><svg xmlns="http://www.w3.org/2000/svg" xmlns:xlink="http://www.w3.org/1999/xlink" version="1.1" id="Layer_1" x="0px" y="0px" viewBox="0 0 80 240" xml:space="preserve"><path opacity="0.2" d="M12.6 213.3c-11.2 7.2-11.7 13.7 0 19.9 12.8 6.9 21.3 3.1 31.3-2.5s11.2-12.7-3.5-18.6c-11.9-4.7-19.4-4.2-27.8 1.2z"/><path fill="#FBD7C7" d="M13.7 181.1c.5 6 1.5 16 1.2 22.4-.3 7-1.1 11-2 15-.9 4.2-6.2 7.7-2.4 8.7s8.8-.9 10.2-5.1c1.4-4.2 7-9.6 7.5-11.4.5-1.8-3.8-4.5-3.9-7.5-.1-3 .8-9.3 2.4-14.6 1.6-5.2.8-7.9.8-7.9l-13.8.4z"/><path fill="#BAA794" d="M13.9 210.6s5 1.4 7.7-.4c2.6-1.8 3.5-5.1 3.5-5.1s3 2.1 3.5 5.1c.5 3-1.3 9.3-1.3 9.3l-2 2-3.1-1s-1.1 5.7-4.3 7.5c-3.5 1.9-9.8 1-10.2-.8-.7-3.2 2.4-4.2 3.7-6.3s2.5-10.3 2.5-10.3z"/><path opacity="0.4" d="M7.7 226.5c0 .2 0 .4.1.6.4 1.8 6.7 2.7 10.2.8 3.3-1.8 4.3-7.5 4.3-7.5l3.1 1 2-2s1.3-4.6 1.4-7.9c-.4.8-1.1 1.5-2.1 2.1-3.4 2-3.9 3.3-5.1 6.7-1.1 3-1.6 6.1-5.7 7.2-2.6.9-6.4.4-8.2-1z"/><path fill="#FBD7C7" d="M28.2 183.8c0 2 1.6 16.8 1.2 22s-1.1 12.5-3.2 16.4-7.1 6.8-4.2 8.4c2.9 1.6 10.1 1.8 12.2-2.8 2.1-4.6 8-12.5 6.7-14.6-1.3-2.1-3.5-4.3-2.4-10.2 1.2-5.9 4.7-14.6 5.1-16.9.4-2.3-15.4-2.3-15.4-2.3z"/><path fill="#825012" d="M26.3 104.5l4.5 2s-2.4 3.5-2.2 8.1c.3 4.6 3.5 5.2 3.1 11.4-.4 6.2-2.6 8.8-4.7 11.9-1.9 2.8-14 13.3-15 18.4-1.4 7.1-.5 32.3 0 33.2s10.6 5.1 20.1 6.6c9.6 1.4 14.8-3.7 14.8-3.7s1.7-13.9 2-16.5c.4-2.6.3-4.5 5.1-5.9 4.9-1.4 18.4-6 20.3-17.7 2-11.7-1.5-19.7-4.1-25.5s.2-23.5-.5-27.8c-.7-4.3-3-7.1-9.4-9.6-5.5-2.3-12.9-4.2-18.3-4.4s-11.7-1.5-13.4 7.1c-1.6 8.1-2.3 12.4-2.3 12.4z"/><path fill="#FBD7C7" d="M56.8 112.8l10 .6s-.8 16.5-1.2 18.5c-.4 2-2 4.5-6.3 11-3.8 5.8-12.6 13.8-13.4 15.7-.8 2-2.1 4-4.5 4.9-2.4.9-3.3 1.6-4.4 3-1 1.3-2.8 3-5.8 2.2-3-.8-4.1-2.8-2.3-5.1 1.8-2.4 3.5-6 5.2-6.5 1.7-.5 5.1-.8 5.9-1.2 1.2-.6 5.2-5.9 6.7-9.8 3.3-9.1 9.3-13.8 9.8-16.9.6-3.1.3-16.4.3-16.4z"/><path opacity="0.15" d="M57 121.2l-.4-12.2s-3.8 13.5-10.2 12.2c-6.4-1.3-5.9-13.8-5.9-13.8s-3.3 8.8-7.9 9.4c-1.8.3-2.9-.1-3.6-.6.6 2.3 2.1 3.6 2.7 6.3 3.6 1.3 7.3-4.9 7.3-4.9s.5 8.3 7.5 8.7c6.8.4 10.5-5.1 10.5-5.1z"/><path fill="#BAA794" d="M27.9 215.7s3.8 1.4 6.2 0c2.4-1.4 4.7-6.7 4.7-6.7s2.8 1.2 2.8 5.1c-.1 3.9-.7 4.7-.7 6.4 0 1.7.3 3 .3 3l-1.6 1.6-3.1-.8s-1.1 6.1-4 8c-3.9 2.7-10.5 1.4-12.3-.5-1-1.1-.8-3.3 1.7-5s4.5-5.2 4.9-6.7l1.1-4.4z"/><path opacity="0.4" d="M36.5 224.3l3.1.8 1.6-1.6s-.3-1.3-.3-3c0-1.6.6-2.4.7-6.4v-.4c-1.1 3-3 4.4-5.1 8.2-1.9 3.5-1.2 7.9-6.3 10.2-3.6 1.7-8.8-.3-10.4-1.4.1.4.3.7.5.9 1.8 1.9 8.4 3.1 12.3.5 2.8-1.8 3.9-7.8 3.9-7.8z"/><path fill="#FBD7C7" d="M51.8 59.4c-6.7-1.8-13 1.8-14.2 10.2s.1 16 2.4 17.7c2.2 1.7 2.9 3.7 2.8 5.5-.1 1.8-.8 4.3-.8 4.3s9.1-4.2 12.2-5.1c3.1-.9 5-1.8 5-1.8s-3.7-4-3.4-8.1c.2-2 9.6-19-4-22.7z"/><path fill="#999" d="M37.3 68.1c.9 1.3 9.4-.8 10.2 2 2.2 7.2 6.8 7.3 6.8 7.3s1-3.1 2.3-2.6c1.3.5.7 2.2.2 3.7-.6 1.6-1.3 2.8.2 3 3 .5 8-11 5.5-17.5-2.5-6.6-8.3-6.1-8.3-6.1s-6.1-4.9-12.3-.1c-6 4.4-5.4 9.1-4.6 10.3z"/><path fill="#FBD7C7" d="M26.9 104.8l3.8 1.6s-2.4 6.3-2 8.8c.5 2.7 2.1 5.4 2.1 5.4s.6 1.1-.1 4.5c-.4 1.8-1.1 6.2-3.1 11.4-2.1 5.2-5.1 10-5.3 11.7-.1 1.7-.4 2.1-1.6 3.5-1.2 1.4-2.9 1.4-3.1 2.4-.3.9.1 3.9-.8 5.1-.9 1.2-4.4 1.3-4.8 1-.4-.3-1.9-6.7-1.1-8.1.8-1.4 4.5-2.5 5.1-3.9.7-1.4 3.3-11.3 4.1-15.3s1.4-10.4 3.5-15.4c2.2-4.9 3.3-12.7 3.3-12.7z"/><metadata><rdf:RDF xmlns:rdf="http://www.w3.org/1999/02/22-rdf-syntax-ns#" xmlns:rdfs="http://www.w3.org/2000/01/rdf-schema#" xmlns:dc="http://purl.org/dc/elements/1.1/"><rdf:Description about="https://iconscout.com/legal#licenses" dc:title="woman" dc:description="woman" dc:publisher="Iconscout" dc:date="2017-09-20" dc:format="image/svg+xml" dc:language="en"><dc:creator><rdf:Bag><rdf:li>Icograms</rdf:li></rdf:Bag></dc:creator></rdf:Description></rdf:RDF></metadata></svg>