<?xml version="1.0" encoding="UTF-8"?><svg xmlns="http://www.w3.org/2000/svg" xmlns:xlink="http://www.w3.org/1999/xlink" version="1.1" id="Layer_1" x="0px" y="0px" viewBox="0 0 80 240" xml:space="preserve"><path fill="#FBD7C7" d="M20.9 105c-1.5 3.2-5.2 8.9-5.4 10.6s-1.1 5.2-.5 6.9 4.2 4.3 5 4.3c.8 0 1.5-2.7 1.5-3.4s-1-2.3-1-2.3 1.9.8 2 0c.2-.8-1.6-16.1-1.6-16.1z"/><path opacity="0.2" d="M8.6 231.8c-15.3-7.4 2.7-16.5 19.2-21.1 14.5-4.1 28.9-20.4 45.5-9.9C86.7 209.3 65 217 52 221.7c-18.6 6.6-30.7 16.2-43.4 10.1z"/><path fill="#FBD7C7" d="M21.6 170.1c-.3 3.2-.4 10.8-.6 16-.2 5.2-.6 12.6-1.9 17.7-1.3 5.1-2.5 10.8-3.8 12.9s-7.1 7.5-2 7.1c5.1-.4 8.9-7.3 10.8-9.2s4-5.6 4-5.6.1-2.5 1.1-7.3 6.7-19.4 7-24.9c.3-5.5-1.6-11-1.6-11l-13 4.3z"/><path fill="#FBD7C7" d="M58.3 208.8c-1.1 1.2-3.6 3.6-.6 4.3 3.1.7 7.4-1 9.3-5.7 1.9-4.8 3.4-9.6 3.7-10.8.3-1.1-1.4-3.7-2.1-5.7-.7-2-1.1-11-3.4-16.4-1.3-3.2-7.3-8.3-7.3-8.3l-12.8 4.7s2.9 4.2 5 6.2 4.8 6.7 7 9.5 4.4 6.4 4.1 9.9c-.3 3.4-1.8 11-2.9 12.3z"/><path fill="#E5E5E5" d="M16.3 211.1s5.2 2.1 7.7.4c2.5-1.8 4.4-5 4.4-5s.9 1.1 1.4 4c.5 2.9-1.2 9-1.2 9l-1.9 1.9-3-1s-2.6 5.1-5.7 6.9c-3.4 1.9-9.5 1-9.9-.8-.7-3.1 2-4.4 3.6-6.2 2.2-2.5 4.6-9.2 4.6-9.2z"/><path opacity="0.4" d="M8 225.9c0 .2 0 .4.1.6.4 1.8 6.5 2.6 9.9.8 3.2-1.7 5.7-6.9 5.7-6.9l3 1 1.9-1.9s1.3-4.5 1.3-7.6c-.4.7-1 1.5-2 2-3.3 2-3.2 3.5-5 6.5-1.5 2.5-3.1 5.5-7 6.6-2.4.7-6.1.2-7.9-1.1z"/><path fill="#E5E5E5" d="M59.9 199.7s3.7 1 5.9-.5 3.9-6.7 3.9-6.7 2.8.9 3 4.6c.3 3.7-.3 4.5-.1 6 .1 1.6.5 2.8.5 2.8l-1.3 1.6-3-.5s-1.6 5.5-4.1 7.6c-3.4 2.8-8.7 2.5-10.6.8-1-.9-1-3.1 1.1-4.9 2.1-1.8 3.8-5.3 4-6.8.3-1.4.7-4 .7-4z"/><path opacity="0.4" d="M68.7 207l3 .5 1.3-1.6s-.4-1.2-.5-2.8c-.1-1.5.4-2.3.1-6v-.3c-.7 2.9-2.5 4.4-4.1 8.2-1.5 3.5-1.5 7.2-6.1 9.9-3.2 1.9-7.3.7-8.9-.2.1.3.3.6.5.8 1.8 1.7 7.1 2 10.6-.8 2.5-2.2 4.1-7.7 4.1-7.7z"/><path fill="#939" d="M20.9 120.2s-2.8 21.5-2 29.7 1.8 15.7 1.5 19.7c-.3 4.1-.6 21.1-1 23.2-.4 2.2 2.8 2.8 6.1 3.4s7.3.4 8-1.3 4.2-19.1 3.9-22.5c-.3-3.4-1.9-9.3-1.4-11.9.5-2.7 7.6-12.7 9-20 1.4-7.3-.9-19.6-.9-19.6l-23.2-.7z"/><path opacity="0.15" d="M20.9 120.2s-2.8 21.5-2 29.7 1.8 15.7 1.5 19.7c-.3 4.1-.6 21.1-1 23.2-.4 2.2 2.8 2.8 6.1 3.4s7.3.4 8-1.3 4.2-19.1 3.9-22.5c-.3-3.4-1.9-9.3-1.4-11.9.5-2.7 7.6-12.7 9-20 1.4-7.3-.9-19.6-.9-19.6l-23.2-.7z"/><path fill="#939" d="M29.7 119.4s3.3 11.1 4.3 14.1c1 3.1 4.5 19.2 5.2 22.3.8 3.1 2.4 9 3.2 11.5.8 2.4 3.6 5.6 6 8.2 2.4 2.5 6.9 9.1 8.2 11.5 1.3 2.4 1.4 3.3 4.5 2.8 3.6-.6 7.2-3.9 8.2-4.8.4-1.6-.8-8.1-2.9-12.9s-6.9-10.1-6.9-12.3c0-2.2 3.1-16.4 3.3-22.8.3-6.4 1.1-14.3.1-17.5-1-3.2-3.6-6.8-3.6-6.8s-8.4 3.3-14.1 4.5c-5.8 1.3-15.5 2.2-15.5 2.2z"/><path fill="#BAA794" d="M25 89.3s-4.3 8.3-5.2 23.3c-.8 12.6-.9 12.3-.3 13.6 1 2.3 15.6 3.6 24.9 3.8 6.3.1 16.2-1.4 19.2-4.8 1.3-1.4.5-5.5.4-6.1-1.1-6.3-2.5-9.9-3.3-15.6-2-13.3 1.3-27.5 1.6-31.7.5-6.8-4-9.8-6.1-11-3.2-1.8-16.6-5-19-5.7-2.4-.6-6.9-.9-8 3.4s.1 7.6-1.3 9.2c-1.4 1.7-6.4 7.9-6.1 12.1.1 4.3 3.2 9.5 3.2 9.5z"/><path opacity="0.15" d="M52.1 82.7s-6.5 8.1-15 6.9c-9-1.3-2.7-14.1-2.7-14.1s-7.8 13.7-12.6 6.1c.9 3.9 3.1 7.8 3.1 7.8 1.7 1.2 3.1.9 5.5-1.9 1.8 12.1 21.3 5.9 24.2 3.2-.6-2.7-2.5-8-2.5-8z"/><path fill="#FBD7C7" d="M50.2 82.1l10.3-1s1.4 12.5 1.3 15.8-.1 6.5-1 9.3c-.9 2.8-9.3 19.5-11.2 23.3-1.9 3.8-3.8 9.6-4.2 10.6-.4 1-3.2 4.8-4.3 5.4s-3.7 1.2-5.7.4c-1.5-.6 1.8-10.2 2.3-11.5 1-2.2 2.8-3.5 3.8-4.9s4.1-7.1 5.4-11.9 2.5-10.6 4.3-12.9c1.7-2.4 2.4-4.7 2-6.5-.6-1.8-3-16.1-3-16.1z"/><path fill="#FBD7C7" d="M37.2 28c-5.2 3.4-5.6 10.5-5.4 15.4s.3 8.9 2.2 10.5c1.8 1.7 2 2.4 2.2 3.5.2 1.1-5.5 5.6-.6 7.8s6.7-.3 10.7-2c4.2-1.8 7.4-1.6 7.4-1.6s-2.5-4.6-2.3-7.8c.2-3.2 1-5.7 2.5-9 1.6-3.4 4.1-12.4-1.1-15.9s-12.1-3.2-15.6-.9z"/><path fill="#2D3134" d="M50.2 26.3s-3.3-4.1-9.9-2-8 7.7-8 7.7l2.6-1.7-1.6 3.4 2.4-2.1s-1.1 2.6-1.1 2.4c0-.2 2.5-2 2.5-2s-1.8 4.4-1.7 4.3c.1-.2 6.3-6 6.3-6l-3.3 7 1.5-.5-1.4 7.1 1.4-2.4.3 5.5 1.7-6 1 4.2 1.1-4 1.4 6.6 1.3-3.4.9 2.9 1.8-4.4.4 1.7 1.5-2.7.2 1.6 1-.2-1.9 7.3 1.9-3.6-.5 6.1 3-7.1.3 1.5 1.5-6.5.3 3.1.6-4.8.9.9-.7-4.2.9.5-1.9-3.5 1.2.5c0 .1-1.9-7.5-7.9-7.2z"/><metadata><rdf:RDF xmlns:rdf="http://www.w3.org/1999/02/22-rdf-syntax-ns#" xmlns:rdfs="http://www.w3.org/2000/01/rdf-schema#" xmlns:dc="http://purl.org/dc/elements/1.1/"><rdf:Description about="https://iconscout.com/legal#licenses" dc:title="woman" dc:description="woman" dc:publisher="Iconscout" dc:date="2017-09-20" dc:format="image/svg+xml" dc:language="en"><dc:creator><rdf:Bag><rdf:li>Icograms</rdf:li></rdf:Bag></dc:creator></rdf:Description></rdf:RDF></metadata></svg>