<?xml version="1.0" encoding="UTF-8"?><svg xmlns="http://www.w3.org/2000/svg" xmlns:xlink="http://www.w3.org/1999/xlink" version="1.1" id="Layer_1" x="0px" y="0px" viewBox="0 0 80 240" xml:space="preserve"><path opacity="0.2" d="M12.3 213.3c-11.2 7.2-11.7 13.7 0 19.9 12.8 6.9 21.3 3.1 31.3-2.5S54.7 218 40 212.1c-11.8-4.7-19.3-4.2-27.7 1.2z"/><path fill="#FBD7C7" d="M13.3 181.1c.5 6 1.5 16 1.2 22.4-.3 7-1.1 11-2 15-.9 4.2-6.2 7.7-2.4 8.7s8.8-.9 10.2-5.1c1.4-4.2 7-9.6 7.5-11.4.5-1.8-3.8-4.5-3.9-7.5-.1-3 .8-9.3 2.4-14.6 1.6-5.2.8-7.9.8-7.9l-13.8.4z"/><path fill="#E5E5E5" d="M13.5 210.6s5 1.4 7.7-.4c2.6-1.8 3.5-5.1 3.5-5.1s3 2.1 3.5 5.1c.5 3-1.3 9.3-1.3 9.3l-2 2-3.1-1s-1.1 5.7-4.3 7.5c-3.5 1.9-9.8 1-10.2-.8-.7-3.2 2.4-4.2 3.7-6.3s2.5-10.3 2.5-10.3z"/><path opacity="0.4" d="M7.3 226.5c0 .2 0 .4.1.6.4 1.8 6.7 2.7 10.2.8 3.3-1.8 4.3-7.5 4.3-7.5l3.1 1 2-2s1.3-4.6 1.4-7.9c-.4.8-1.1 1.5-2.1 2.1-3.4 2-3.9 3.3-5.1 6.7-1.1 3-1.6 6.1-5.7 7.2-2.5.9-6.3.4-8.2-1z"/><path fill="#FBD7C7" d="M27.9 183.8c0 2 1.6 16.8 1.2 22-.4 5.2-1.1 12.5-3.2 16.4s-7.1 6.8-4.2 8.4 10.1 1.8 12.2-2.8c2.1-4.6 8-12.5 6.7-14.6-1.3-2.1-3.5-4.3-2.4-10.2 1.2-5.9 4.7-14.6 5.1-16.9.3-2.3-15.4-2.3-15.4-2.3z"/><path fill="#E5E5E5" d="M27.5 215.7s3.8 1.4 6.2 0 4.7-6.7 4.7-6.7 2.8 1.2 2.8 5.1c-.1 3.9-.7 4.7-.7 6.4 0 1.7.3 3 .3 3l-1.6 1.6-3.1-.8s-1.1 6.1-4 8c-3.9 2.7-10.5 1.4-12.3-.5-1-1.1-.8-3.3 1.7-5s4.5-5.2 4.9-6.7l1.1-4.4z"/><path opacity="0.4" d="M36.1 224.3l3.1.8 1.6-1.6s-.3-1.3-.3-3c0-1.6.6-2.4.7-6.4v-.4c-1.1 3-3 4.4-5.1 8.2-1.9 3.5-1.2 7.9-6.3 10.2-3.6 1.7-8.8-.3-10.4-1.4.1.4.3.7.5.9 1.8 1.9 8.4 3.1 12.3.5 2.8-1.8 3.9-7.8 3.9-7.8z"/><path fill="#939" d="M31.9 135.5c-1.8 1.8-13.1 11.8-16.1 15.5-3 3.7-5.2 9.3-4.3 13.8.9 4.5 1.9 20.1 1.8 24.7-.1 4-.6 8.5.4 9.1 1 .7 9 2.2 12-.5 1.2-1 3.3-17.3 3.7-23 .4-5.8 1.7-10.4 5-12.7 3.3-2.4 14.2-9.8 15.1-13.6.9-3.8.5-10.2.5-10.2l-18.1-3.1z"/><path opacity="0.15" d="M31.9 135.5c-1.8 1.8-13.1 11.8-16.1 15.5-3 3.7-5.2 9.3-4.3 13.8.9 4.5 1.9 20.1 1.8 24.7-.1 4-.6 8.5.4 9.1 1 .7 9 2.2 12-.5 1.2-1 3.3-17.3 3.7-23 .4-5.8 1.7-10.4 5-12.7 3.3-2.4 14.2-9.8 15.1-13.6.9-3.8.5-10.2.5-10.2l-18.1-3.1z"/><path fill="#939" d="M38.9 140.4l.1 10.2s-7 5.3-10.4 9.2c-2.8 3.2-3.5 6.8-3 11.2s.3 10.5.3 15.6c0 3.7-.2 14.2.2 15.5.4 1.3 5.5 1.4 8.5 1 3-.4 6.2-1.3 6.4-2 .3-.7.9-9.6 2.2-15 1.3-5.4 1.3-12.7 1.3-12.7s11.3-4.6 16.4-6.6c5.1-2 11-6.4 13-14.2 2-7.7-1-15.1-1-15.1l-34 2.9z"/><path fill="#BAA794" d="M26 104.5l4.5 2s-2.4 3.5-2.2 8.1c.3 4.6 3.5 5.2 3.1 11.4-.2 4-3 6.9-4.6 9.8-1.4 2.6-3.5 6.7-4 8.6-1 3.6 7.3 6.5 11.8 7.4 9.8 2 39 6 40.1-3.4 1.1-9.2-3.5-14.1-5.4-20.9-1.7-6.1.9-24.2.3-28.5-.7-4.3-3-7.1-9.4-9.6-5.8-2.3-13.2-4.2-18.6-4.4s-11.7-1.5-13.4 7.1c-1.5 8.1-2.2 12.4-2.2 12.4z"/><path fill="#FBD7C7" d="M56.4 112.8l10 .6s-.8 16.5-1.2 18.5c-.4 2-2 4.5-6.3 11-3.8 5.8-12.6 13.8-13.4 15.7-.8 2-2.1 4-4.5 4.9-2.4.9-3.3 1.6-4.4 3s-2.8 3-5.8 2.2-4.1-2.8-2.3-5.1c1.8-2.4 3.5-6 5.2-6.5s5.1-.8 5.9-1.2c1.2-.6 5.2-5.9 6.7-9.8 3.3-9.1 9.3-13.8 9.8-16.9.6-3.1.3-16.4.3-16.4z"/><path opacity="0.15" d="M56.6 121.2l-.4-12.2s-3.8 13.5-10.2 12.2c-6.4-1.3-5.9-13.8-5.9-13.8s-3.3 8.8-7.9 9.4c-1.8.3-2.9-.1-3.6-.6.6 2.3 2.1 3.6 2.7 6.3 3.6 1.3 7.3-4.9 7.3-4.9s.5 8.3 7.5 8.7c6.8.4 10.5-5.1 10.5-5.1z"/><path fill="#FBD7C7" d="M26.6 104.8l3.8 1.6s-2.4 6.3-2 8.8c.5 2.7 2.1 5.4 2.1 5.4s.6 1.1-.1 4.5c-.4 1.8-1.1 6.2-3.1 11.4-2.1 5.2-5.1 10-5.3 11.7-.1 1.7-.4 2.1-1.6 3.5-1.2 1.4-2.9 1.4-3.1 2.4-.3.9.1 3.9-.8 5.1-.9 1.2-4.4 1.3-4.8 1-.4-.3-1.9-6.7-1.1-8.1.8-1.4 4.5-2.5 5.1-3.9.7-1.4 3.3-11.3 4.1-15.3s1.4-10.4 3.5-15.4 3.3-12.7 3.3-12.7z"/><path fill="#FBD7C7" d="M42.6 58.8c-5.1 3.3-5.5 10.4-5.4 15.2.2 4.8.3 8.8 2.1 10.4s2 2.3 2.2 3.5c.2 1.1-5.5 5.5-.6 7.7s6.6-.3 10.5-2c4.2-1.8 7-3.1 7-3.1s-2.1-3-1.9-6.3c.2-3.2.9-5.6 2.5-8.9 1.6-3.3 4-12.2-1.1-15.7-5-3.6-11.8-3.1-15.3-.8z"/><path fill="#2D3134" d="M55.5 57.1s-3.3-4.1-9.8-2-7.9 7.6-7.9 7.6l2.6-1.7-1.6 3.4 2.4-2.1s-1.1 2.5-1.1 2.4c0-.2 2.5-2 2.5-2s-1.7 4.4-1.7 4.2c.1-.2 6.2-5.9 6.2-5.9l-3.2 7 1.5-.5-1.4 7 1.4-2.4.3 5.4 1.7-6 1 4.1 1.1-3.9 1.4 6.5 1.3-3.3.8 2.9 1.7-4.3.4 1.7 1.5-2.6.2 1.6 1-.2-1.9 7.2 1.8-3.5-.7 5.9 3-7 .3 1.5 1.5-6.5.3 3.1.6-4.7.9.9-.7-4.2.9.5-1.8-3.3 1.2.5s-1.8-7.6-7.7-7.3z"/><metadata><rdf:RDF xmlns:rdf="http://www.w3.org/1999/02/22-rdf-syntax-ns#" xmlns:rdfs="http://www.w3.org/2000/01/rdf-schema#" xmlns:dc="http://purl.org/dc/elements/1.1/"><rdf:Description about="https://iconscout.com/legal#licenses" dc:title="woman" dc:description="woman" dc:publisher="Iconscout" dc:date="2017-09-20" dc:format="image/svg+xml" dc:language="en"><dc:creator><rdf:Bag><rdf:li>Icograms</rdf:li></rdf:Bag></dc:creator></rdf:Description></rdf:RDF></metadata></svg>