<?xml version="1.0" encoding="UTF-8"?><svg xmlns="http://www.w3.org/2000/svg" xmlns:xlink="http://www.w3.org/1999/xlink" version="1.1" id="Layer_1" x="0px" y="0px" viewBox="0 0 160 240" xml:space="preserve"><path opacity="0.2" d="M40.3 226.5c9.5 4.5 40.3-10.4 58.5-17.5 13.5-5.3 43.2-17.8 38-22-5-4-26.6 4.7-45.5 11.5-19.6 7-58.9 24.2-51 28z"/><path fill="#FBD7C7" d="M61 77.9s9.3-13.7 12.3-13 3 2 2.9 5c-.1 3-1.4 17.5-1.4 17.5L61 77.9z"/><path fill="#262626" d="M132.7 135.1c1.2 2.7 3.5 8.1 4.7 10.9 1.2 2.9 2.5 6.5.9 8.4-1.6 1.9-2.9 2-3.9 1.9s-7.9-14.4-8.7-16.8c-1-2.2 5.2-8 7-4.4z"/><path fill="#FFF" d="M133.2 139c1.1 3.1 2.6 7.1 3.7 9.4 1.1 2.3 1.8 6.3-.8 7.8s-5.2 0-8.1-4.6-3.3-8.8-3.3-8.8l8.5-3.8z"/><path fill="#FFF" d="M34 205.1c.3-.4 2.3-2.2 4-1 1.7 1.2 3.8 3.7 4.5 4 .7.3 2.8.2 2.8.2l8.4 8.1-1.7 5.1-9.8-6.8-8.2-9.6z"/><path fill="#CC291F" d="M80.2 124.6s1.2 14.3.5 15.6-8.9 14.8-11.4 18.7-4.3 6-4.7 9c-.4 2.7-.8 10.9-3.6 22.3-2.8 11.6-6.8 29.3-7.3 29.3s-2.4-1-4.2-3.9c-1.8-2.8-2-4.5-4.8-6.7-.7-.6-2-.8-2-.8s3-5.9 4.5-13.6c1.4-7.7 2.4-20.2 4.6-28.5 2.2-8.3 3.2-18 7-29.4 2.2-6.8 8.6-15.7 8.6-15.7l12.8 3.7z"/><path opacity="0.2" d="M80.2 124.6s1.2 14.3.5 15.6-8.9 14.8-11.4 18.7-4.3 6-4.7 9c-.4 2.7-.8 10.9-3.6 22.3-2.8 11.6-6.8 29.3-7.3 29.3s-2.4-1-4.2-3.9c-1.8-2.8-2-4.5-4.8-6.7-.7-.6-2-.8-2-.8s3-5.9 4.5-13.6c1.4-7.7 2.4-20.2 4.6-28.5 2.2-8.3 3.2-18 7-29.4 2.2-6.8 8.6-15.7 8.6-15.7l12.8 3.7z"/><path fill="#CC291F" d="M76.7 134.9c1.8 3.5 7.9 10.7 12 14.7 4.4 4.2 10.3 9.2 11.9 10.3 2.3 1.6 5.2 1.2 9.2-2.1 3.6-3 13.4-11.1 14.1-10.9.7.2 1.6 1.1 2.7 1.8 2.5 1.8 6.9-2.1 7.6-5.2.7-3.1-.6-12.1-4.9-12.5-4.3-.4-6.9 2.7-11.7 5.7-4.5 2.8-12.3 6.1-12.3 6.1s-4.5-11.4-6.5-16.2c-2.1-4.8-3.4-11-11.7-12.4s-10.4 20.7-10.4 20.7z"/><path fill="#FC0" d="M54.2 86.6c-.2 3.8-1.6 14.4-.2 16.7 1.4 2.3 6.2 5.3 6.2 5.3s2 15.8 2.9 18.2c.9 2.4 6.3 11.1 15.6 10.4 10.1-.7 13.5-6.4 14.7-12.8 1.2-6.6-.4-8.1-2-9.4-1.6-1.3-4.1-2.2-4.6-5s-1.6-8.7-3.3-15.7c-1.5-6.3-4-11.5-11.1-13-7-1.4-18.2 5.3-18.2 5.3z"/><path fill="#FBD7C7" d="M57 83.6c.1 4.1-1.6 9.6 3.7 13.4 4.9 3.5 6.5-2.5 6.9-7.9.5-5.4-.8-12-.8-12L57 83.6z"/><path fill="#825012" d="M58.3 57.8c-5.2-.6-12 4.9-12.4 12.4-.4 7.5 2.7 8.4 3.1 12.4.4 4-2.2 6-2.2 6s3.4 4.8 9.4-1.1 2.1-29.7 2.1-29.7z"/><path fill="#FBD7C7" d="M50.9 68.1c-1.9 2.1-3.1 4.4-1.8 10.8s1.9 9.3 4.8 8.8c2.9-.4 11.1-4.6 12-6.6s-11.3-17.1-15-13z"/><path fill="#825012" d="M54.5 60.8c-2.7 2.9-6.1 6.9-1.7 12s10.2 6.9 9.6 11.7c-.5 4.8-3.7 6.4-3.7 6.4s8.9 4.3 14.5-.5c7.6-6.6 5.5-10.6 4.4-11.8-1.4-1.6-2.3-.1-4.7-4-2.7-4.5-2.2-14-9.5-16.6-4.6-1.7-6.3.1-8.9 2.8z"/><path opacity="0.2" d="M53.7 102.5c.2 2.7 18.1 15.3 23 9.6-7.5 3.7-21.6-7.6-23-9.6z"/><path fill="#262626" d="M33.9 204.9c-1.6 1-2 3-1.5 5.4.5 2.4 1.2 5.3 4.4 6.9 3.1 1.6 10.1 5.6 12.7 5.7 2.1.1 2.6-1.1 2.6-1.9 0-.8-.7-1.7-2.9-2.9s-5.7-2.4-6.9-5c-1.2-2.6-3.3-6.7-5-8-1.7-1.4-3.1-.5-3.4-.2z"/><path fill="#FBD7C7" d="M70.1 100.9s3.4.3 6 .4c2.1.1 3 0 3 0s-.5 9.3-.9 14.2c-.3 4.6-.2 12.1-3.3 13.5-3 1.4-7.5-1.4-12.7-3.9-5.3-2.6-9.2-5-11.1-5.5-1.9-.5-7.8-2.7-8.2-5.2-.2-1.1 2.7-5.7 4.2-6.2s3.5 1.7 3.5 1.7-.2-1.3 1.1-1.2c1 .1 1.6 1.4 1.8 2.8.1 1.4.2 2.7.6 3.5.3.7 7.8 3.6 10.2 4.2 2.4.6 5.1 1.3 5.1 1.3s.2-6.7.4-10.9.3-8.7.3-8.7z"/><metadata><rdf:RDF xmlns:rdf="http://www.w3.org/1999/02/22-rdf-syntax-ns#" xmlns:rdfs="http://www.w3.org/2000/01/rdf-schema#" xmlns:dc="http://purl.org/dc/elements/1.1/"><rdf:Description about="https://iconscout.com/legal#licenses" dc:title="basicwoman" dc:description="basicwoman" dc:publisher="Iconscout" dc:date="2017-09-20" dc:format="image/svg+xml" dc:language="en"><dc:creator><rdf:Bag><rdf:li>Icograms</rdf:li></rdf:Bag></dc:creator></rdf:Description></rdf:RDF></metadata></svg>