<svg xmlns="http://www.w3.org/2000/svg" width="16" height="16" viewBox="0 0 16 16"><g transform="translate(793.011 -906.841)"><path fill="#576d7e" style="line-height:normal;text-indent:0;text-align:start;text-decoration-line:none;text-decoration-style:solid;text-decoration-color:#000;text-transform:none;block-progression:tb;isolation:auto;mix-blend-mode:normal" d="m -791.52637,915.57855 c 0.1282,2.77996 2.01356,5.28926 4.82318,6.0421 2.80963,0.75284 5.69375,-0.47849 7.19429,-2.82203 l -2.08089,-0.55757 c -1.10412,1.29036 -2.8579,1.9134 -4.59576,1.44775 -1.73785,-0.46566 -2.94837,-1.88299 -3.25994,-3.55268 l -2.08088,-0.55757 z m 1.03527,-3.86371 2.08089,0.55757 c 1.10467,-1.29021 2.86168,-1.91239 4.59953,-1.44674 1.73785,0.46566 2.94515,1.88213 3.25617,3.55167 l 2.08088,0.55757 c -0.12772,-2.77983 -2.00979,-5.28825 -4.81942,-6.04109 -2.80962,-0.75284 -5.69704,0.4776 -7.19805,2.82102 z" color="#000" font-family="sans-serif" font-weight="400" overflow="visible" white-space="normal"/><path fill="#576d7e" d="M-793.01142 916.3622l2.5-2.5 2.50001 2.5zM-777.01141 913.8622l-2.5 2.5-2.5-2.5z"/></g></svg>