<svg xmlns="http://www.w3.org/2000/svg" width="16" height="16" viewBox="0 0 16 16"><g transform="translate(871 -962.362)"><path fill="#f05542" style="marker:none" d="m -867.99992,965.36212 8.99982,0 c 0.55405,0 1.00008,0.44604 1.00008,1.00008 l 0,2.49989 -10.99998,0 0,-2.49989 c 0,-0.55404 0.44603,-1.00008 1.00008,-1.00008 z" color="#000" overflow="visible"/><path fill="#e9eded" d="m -869,-68 0,1 0,3 0,3 c 0,0.554043 0.44596,1 1,1 l 9,0 c 0.55404,0 1,-0.445957 1,-1 l 0,-3 0,-3 0,-1 -1,0 -9,0 -1,0 z" transform="translate(0 1036.362)"/><rect width="1" height="3" x="-867" y="964.362" fill="#34485c" color="#000" overflow="visible" style="marker:none" rx=".5" ry=".5"/><rect style="marker:none" width="1" height="3" x="-861" y="964.362" fill="#34485c" color="#000" overflow="visible" rx=".5" ry=".5"/><rect style="marker:none" width="1" height="1" x="-861" y="969.362" fill="#cad1d8" color="#000" overflow="visible" ry="0"/><rect width="1" height="1" x="-863" y="969.362" fill="#cad1d8" color="#000" overflow="visible" ry="0" style="marker:none"/><rect width="1" height="1" x="-865" y="969.362" fill="#cad1d8" color="#000" overflow="visible" ry="0" style="marker:none"/><rect style="marker:none" width="1" height="1" x="-867" y="969.362" fill="#cad1d8" color="#000" overflow="visible" ry="0"/><rect width="1" height="1" x="-861" y="971.362" fill="#cad1d8" color="#000" overflow="visible" ry="0" style="marker:none"/><rect style="marker:none" width="1" height="1" x="-863" y="971.362" fill="#cad1d8" color="#000" overflow="visible" ry="0"/><rect style="marker:none" width="1" height="1" x="-865" y="971.362" fill="#cad1d8" color="#000" overflow="visible" ry="0"/><rect width="1" height="1" x="-867" y="971.362" fill="#cad1d8" color="#000" overflow="visible" ry="0" style="marker:none"/><rect width="1" height="1" x="-863" y="973.362" fill="#cad1d8" color="#000" overflow="visible" ry="0" style="marker:none"/><rect width="1" height="1" x="-865" y="973.362" fill="#cad1d8" color="#000" overflow="visible" ry="0" style="marker:none"/><rect style="marker:none" width="1" height="1" x="-867" y="973.362" fill="#cad1d8" color="#000" overflow="visible" ry="0"/></g></svg>