<svg xmlns="http://www.w3.org/2000/svg" width="16" height="16" viewBox="0 0 16 16"><g transform="translate(942 -906.362)"><path fill="#25b39e" style="marker:none" d="m -940,-128 c -0.55401,0 -1,0.44599 -1,1 l 0,8 c 0,0.55401 0.44599,1 1,1 l 2,0 0,1.82031 0,0.01 a 0.5,0.5 0 0 0 0.5,0.49023 0.5,0.5 0 0 0 0.37891,-0.17383 l 0.004,-0.004 2.09375,-2.14258 7.02344,0 c 0.55401,0 1,-0.44599 1,-1 l 0,-8 c 0,-0.55401 -0.44599,-1 -1,-1 l -12,0 z" color="#000" overflow="visible" transform="translate(0 1036.362)"/><rect width="9" height="1" x="-938" y="910.362" fill="#60c5b8" fill-rule="evenodd"/><rect width="9" height="1" x="-938" y="912.362" fill="#60c5b8" fill-rule="evenodd"/><path fill="#60c5b8" fill-rule="evenodd" d="m -934,914.36226 5,0 0,1.00002 -5,0 z"/></g></svg>