<svg xmlns="http://www.w3.org/2000/svg" width="16" height="16" viewBox="0 0 16 16"><g transform="translate(889 -1068.361)"><path fill="#e9eded" d="m -874.5,1076.3622 a 6.5,6.5 0 0 1 -6.5,6.5 6.5,6.5 0 0 1 -6.5,-6.5 6.5,6.5 0 0 1 6.5,-6.5 6.5,6.5 0 0 1 6.5,6.5 z"/><path fill="none" stroke="#576d7e" stroke-linecap="round" stroke-linejoin="round" d="m -881,1076.017 0,-4.0777 0,0 0,0"/><path fill="none" stroke="#f05542" stroke-linecap="round" stroke-linejoin="round" d="m -877.5012,1076.3622 -2.4988,0 0,0 -0.55243,0"/><path fill="#34485c" style="line-height:normal;text-indent:0;text-align:start;text-decoration-line:none;text-decoration-style:solid;text-decoration-color:#000;text-transform:none;block-progression:tb;isolation:auto;mix-blend-mode:normal" d="m -881,1069.3613 c -3.86007,0 -7,3.14 -7,7 0,3.8601 3.13993,7 7,7 3.86007,0 7,-3.1399 7,-7 0,-3.86 -3.13993,-7 -7,-7 z m 0,1 c 3.31963,0 6,2.6804 6,6 0,3.3197 -2.68037,6 -6,6 -3.31963,0 -6,-2.6803 -6,-6 0,-3.3196 2.68037,-6 6,-6 z" color="#000" font-family="sans-serif" font-weight="400" overflow="visible" white-space="normal"/><circle cx="-881" cy="1076.362" r="1" fill="#34485c"/></g></svg>