<svg xmlns="http://www.w3.org/2000/svg" width="16" height="16" viewBox="0 0 16 16"><g transform="translate(945.411 -1127.997) scale(1.14388)"><path fill="#f8b84e" fill-rule="evenodd" d="m -825.559,997.61589 5.634,-9.53446 c 0.30665,0.0666 0.36721,-0.0373 0.85884,0.015 l 5.62685,9.52232 c -0.14021,0.29355 -0.32936,0.63407 -0.43183,0.74345 l -11.2539,0 c -0.0716,-0.29625 -0.30409,-0.39218 -0.43396,-0.74631 z"/><circle cx="-819.5" cy="988.35" r=".5" fill="#f8b84e"/><path fill="#f8b84e" d="M-825.11951 998.36218a.5.5 0 0 1-.43301-.25.5.5 0 0 1 0-.5l.43301.25zM-813.44748 997.61218a.5.5 0 0 1 0 .5.5.5 0 0 1-.43301.25"/><path fill="#f05542" fill-rule="evenodd" stroke="#34485c" stroke-linecap="round" stroke-linejoin="round" stroke-width=".874" d="m -819.484,991.8622 -0.0156,2.99288"/><circle cx="-819.5" cy="996.862" r=".5" fill="#34485c" color="#000" overflow="visible" style="marker:none"/></g></svg>