<svg xmlns="http://www.w3.org/2000/svg" width="16" height="16" viewBox="0 0 16 16"><g transform="rotate(45 665.534 1480.636) scale(.89582)"><path fill="#f05542" d="m -934.99995,1006.3961 -2e-5,6.4772 c -1e-5,1.9329 -1.56103,3.4889 -3.50006,3.4889 -1.93903,0 -3.50006,-1.556 -3.50005,-3.4889 l 2e-5,-6.4772 -2.99994,-0.034 0,6.5001 c 0,3.6011 2.899,6.5 6.5,6.5 3.601,0 6.5,-2.8989 6.5,-6.5 l 0,-6.5001 z"/><rect width="3" height="2" x="-945" y="1006.362" fill="#34485c" rx="0" ry="0"/><path fill="#4bbfeb" d="m -932,-30 -3,0.0332 0,6.478516 c -10e-6,1.9329 -1.56097,3.488281 -3.5,3.488281 l 0,3 c 3.601,0 6.5,-2.8989 6.5,-6.5 l 0,-6.5 z" transform="translate(0 1036.362)"/><rect width="3" height="2" x="-935" y="1006.362" fill="#34485c" rx="0" ry="0"/><path fill="none" stroke="#cad1d8" stroke-width="1.116" d="M-944.5 1005.3622l0-2M-942.5 1005.3622l0-2M-934.5 1005.3622l0-2M-932.5 1005.3622l0-2"/></g></svg>