<svg xmlns="http://www.w3.org/2000/svg" width="16" height="16" viewBox="0 0 16 16"><path fill="#f05542" d="m -936.69875,909.3641 c -0.88914,-0.047 -1.75905,0.2467 -2.4043,0.8926 -1.29049,1.2919 -1.17491,3.4894 0.25977,4.9258 l 0.51562,0.5156 4.66016,4.6641 3.24609,-3.25 -0.90039,-0.5938 -0.55859,0.7676 -2.78711,-3.7344 2.76758,1.8594 0.38867,-0.6485 2.21094,1.2266 0.29101,-0.291 0.51563,-0.5156 c 1.43474,-1.4364 1.55025,-3.6339 0.25976,-4.9258 -1.29048,-1.2918 -3.48322,-1.1746 -4.91797,0.2617 l -0.51562,0.5176 -0.51758,-0.5176 c -0.71734,-0.7181 -1.62453,-1.1072 -2.51367,-1.1543 z" transform="translate(942 -906.362)"/></svg>