<svg xmlns="http://www.w3.org/2000/svg" width="16" height="16" viewBox="0 0 16 16"><g transform="translate(830 -1069.362)"><path fill="#fcd062" d="m -826.92593,1070.3622 9.85186,0 c 1.14904,0 2.07407,0.925 2.07407,2.074 l 0,9.8519 c 0,1.149 -0.92503,2.0741 -2.07407,2.0741 l -9.85186,0 c -1.14904,0 -2.07407,-0.9251 -2.07407,-2.0741 l 0,-9.8519 c 0,-1.149 0.92503,-2.074 2.07407,-2.074 z"/><path fill="#f8aa3a" d="m -815,1075.3622 0,6.9259 c 0,1.149 -0.92503,2.0741 -2.07407,2.0741 l -9.85186,0 c -1.14904,0 -2.07407,-0.9251 -2.07407,-2.0741 l 0,-6.9259"/><path fill="#34485c" d="m -818.50003,1077.8622 c 2e-5,1.933 -1.56698,3.5 -3.49997,3.5 -1.93299,0 -3.49999,-1.567 -3.49997,-3.5 -2e-5,-1.933 1.56698,-3.5 3.49997,-3.5 1.93299,0 3.49999,1.567 3.49997,3.5 z"/><path fill="#cad1d8" d="m -820.50002,1077.8622 c 10e-6,0.8284 -0.67156,1.5 -1.49998,1.5 -0.82842,0 -1.49999,-0.6716 -1.49998,-1.5 -10e-6,-0.8284 0.67156,-1.5 1.49998,-1.5 0.82842,0 1.49999,0.6716 1.49998,1.5 z"/><rect width="2" height="2" x="-819" y="1071.362" fill="#f05542" ry="0"/><path fill="none" stroke="#2b4255" d="M-826.5 1070.3622l0 2.5M-824.50002 1070.3622l0 2.5"/><path fill="none" stroke="#576d7e" d="m -822.50002,1070.3622 0,2.5"/></g></svg>