<svg xmlns="http://www.w3.org/2000/svg" width="16" height="16" viewBox="0 0 16 16"><g transform="translate(958 -920.362)"><rect width="13" height="9" x="-957" y="923.362" fill="#2b4255" rx="1" ry="1.125"/><path fill="#cad1d8" d="m -958,-105 0,1 c 0,0.554 0.446,1 1,1 l 13,0 c 0.554,0 1,-0.446 1,-1 l 0,-1 -1,0 -13,0 -1,0 z" transform="translate(0 1036.362)"/><path fill="#576d7e" style="line-height:normal;text-indent:0;text-align:start;text-decoration-line:none;text-decoration-style:solid;text-decoration-color:#000;text-transform:none;block-progression:tb;isolation:auto;mix-blend-mode:normal" d="m -953.5,931.3622 0,0.5 a 0.50004997,0.50004997 0 0 0 0.5,0.5 l 5,0 a 0.50004997,0.50004997 0 0 0 0.5,-0.5 l 0,-0.5 -0.4375,0 -0.5625,0 -4,0 -0.75,0 -0.25,0 z" color="#000" font-family="sans-serif" font-weight="400" overflow="visible" white-space="normal"/><rect width="11" height="6" x="-956" y="924.362" fill="#60c5b8" rx="0" ry="0"/></g></svg>