<svg xmlns="http://www.w3.org/2000/svg" width="16" height="16" viewBox="0 0 16 16"><g transform="translate(873.5 -983.362)"><path fill="none" stroke="#576d7e" stroke-linecap="round" stroke-linejoin="round" d="m -863.5,990.3718 0,-2.2871 c 0,-1.3696 -1.10309,-2.4727 -2.47266,-2.4727 l -0.0547,0 2e-5,0 c -1.36957,0 -2.47266,1.1031 -2.47266,2.4727 l 0,2.289"/><circle cx="-866" cy="992.862" r="4.5" fill="#34485c"/><path fill="#cad1d8" d="m -866,991.3622 c 0.554,0 1,0.446 1,1 0,0.277 -0.1115,0.527 -0.29225,0.7078 -0.18075,0.1807 -0.43075,0.2922 -0.70775,0.2922 -0.277,0 -0.527,-0.1115 -0.70775,-0.2922 -0.18075,-0.1808 -0.29225,-0.4308 -0.29225,-0.7078 0,-0.554 0.446,-1 1,-1 z"/><path fill="#cad1d8" fill-rule="evenodd" stroke="#cad1d8" stroke-linecap="round" stroke-linejoin="round" d="m -866,992.8622 0,2"/></g></svg>