<svg xmlns="http://www.w3.org/2000/svg" width="16" height="16" viewBox="0 0 16 16"><g transform="translate(926.71 -1003.864)"><path fill="#25b39e" d="M-921.49443 1010.0792l-3.21484-3.2148 0 12 12 0-4.0293-4.0293M-915.59208 1012.9816l3.88281 3.8828 0-11-11 0 2.32926 2.3293.71051.7105c2.87458-.29 2.87458-.29 3.09361 3.0936z"/><path fill="#f05542" d="m -918.35547,1007.8622 c -1.85314,0 -3.35547,1.516 -3.35547,3.3848 0,1.8688 3.35547,5.6152 3.35547,5.6152 0,0 3.35547,-3.7464 3.35547,-5.6152 0,-1.8688 -1.50233,-3.3848 -3.35547,-3.3848 z m 0,1.8809 a 1.1184714,1.1279358 0 0 1 1.11719,1.1269 1.1184714,1.1279358 0 0 1 -1.11719,1.1289 1.1184714,1.1279358 0 0 1 -1.11914,-1.1289 1.1184714,1.1279358 0 0 1 1.11914,-1.1269 z"/></g></svg>