<svg xmlns="http://www.w3.org/2000/svg" width="16" height="16" viewBox="0 0 16 16"><path fill="#f05542" d="m -935.02331,908.20788 c -0.12892,0.016 -0.25701,0.058 -0.37696,0.1269 l -2.59765,1.5 c -0.95955,0.554 -1.28643,1.7729 -0.73243,2.7325 l 4.5,7.7929 c 0.554,0.9596 1.77288,1.2864 2.73243,0.7324 l 2.59765,-1.5 c 0.47978,-0.277 0.64224,-0.8854 0.36524,-1.3652 l -0.5,-0.8672 c -0.277,-0.4797 -0.88546,-0.6422 -1.36524,-0.3652 l -0.86719,0.5 c -0.47894,0.2765 -1.08561,0.1145 -1.36328,-0.3633 -4.8e-4,-8e-4 -0.001,0 -0.002,0 l -2.5,-4.3321 c -0.27652,-0.4788 -0.11262,-1.0875 0.36523,-1.3652 l 0.86719,-0.5 c 0.47978,-0.277 0.64224,-0.8855 0.36524,-1.3652 l -0.5,-0.8672 c -0.20775,-0.3599 -0.60154,-0.5407 -0.98828,-0.4922 z" transform="translate(942 -906.362)"/></svg>