<svg xmlns="http://www.w3.org/2000/svg" width="16" height="16" viewBox="0 0 16 16"><g transform="translate(865 -1067.362)"><path fill="#f8b84e" d="m -860.24719,1080.3622 -2.81941,0 c -0.5171,0 -0.9334,-0.446 -0.9334,-1 l 0,-6 c 0,-0.554 0.4163,-1 0.9334,-1 l 12.1332,0 c 0.5171,0 0.9334,0.446 0.9334,1 l 0,6 c 0,0.554 -0.4163,1 -0.9334,1 l -2.79243,0" opacity=".98"/><rect width="10" height="3" x="-862" y="1077.362" fill="#34485c" opacity=".98" ry="0"/><path fill="#cad1d8" fill-opacity=".98" d="m -860,1078.3622 6,0 0,4 -6,0 z" opacity=".98"/><rect width="8" height="4" x="-861" y="1070.362" fill="#34485c" opacity=".98"/><path fill="none" stroke="#34485c" d="m -862,1075.8622 4,0"/><path fill="none" stroke="#5b7182" d="m -858.98614,1079.8622 3.98614,0"/><circle cx="-854.5" cy="1075.862" r=".5" fill="#f05542" opacity=".98"/><path fill="#e9eded" fill-opacity=".98" d="m -860,1069.3622 5,0 1,1 0,4.0001 -6,0 z" opacity=".98"/><path fill="#cad1d8" d="m -854,1070.3622 -1,0 0,-1"/></g></svg>