<svg xmlns="http://www.w3.org/2000/svg" width="16" height="16" viewBox="0 0 16 16"><g fill="#2b4255" transform="matrix(1.00017 0 0 1.00028 932.16 -849.6)"><path d="m -928.44922,-178 a 3.4999999,3.4999996 0 0 0 -2.52539,1.02539 3.4999999,3.4999996 0 0 0 0,4.94922 3.4999999,3.4999996 0 0 0 4.94922,0 3.4999999,3.4999996 0 0 0 0,-4.94922 3.4999999,3.4999996 0 0 0 -2.42383,-1.02539 z m -0.0508,1.5 a 2,1.9999998 0 0 1 2,2 2,1.9999998 0 0 1 -2,2 2,1.9999998 0 0 1 -2,-2 2,1.9999998 0 0 1 2,-2 z" transform="translate(0 1036.362)"/><path d="m -927.67875,858.92539 5.08643,-5.06177 2.12971,2.11926 -5.04726,5.02292"/><path d="m -922.5,-188.52344 0,4.02344 -1.5,1 -1.5,-1 0,-4.01953 a 3.5009018,3.500902 0 0 0 -2.00195,3.15625 3.5009018,3.500902 0 0 0 3.50195,3.5 3.5009018,3.500902 0 0 0 3.5,-3.5 3.5009018,3.500902 0 0 0 -2,-3.16016 z" transform="rotate(45 -2175 339.18)"/></g></svg>