<svg xmlns="http://www.w3.org/2000/svg" width="16" height="16" viewBox="0 0 16 16"><path fill="#2b4255" d="m 11.987963,1037.8606 a 3.4569897,3.4569895 0 0 0 -2.42578,1.0118 3.4569897,3.4569895 0 0 0 -0.80859,3.6054 l -5.93555,5.8946 a 2,1.9999998 0 0 0 -1.23242,0.5761 2,1.9999998 0 0 0 0,2.8281 2,1.9999998 0 0 0 2.82812,0 2,1.9999998 0 0 0 0.58203,-1.3359 l 5.90039,-5.8555 a 3.4569897,3.4569895 0 0 0 3.55469,-0.8242 3.4569897,3.4569895 0 0 0 0.59571,-4.0879 l -2.69141,2.6914 -1.39649,-1.3964 2.68946,-2.6915 a 3.4569897,3.4569895 0 0 0 -1.66016,-0.416 z m -8.98828,12.002 a 0.5,0.49999997 0 0 1 0.5,0.5 0.5,0.49999997 0 0 1 -0.5,0.5 0.5,0.49999997 0 0 1 -0.5,-0.5 0.5,0.49999997 0 0 1 0.5,-0.5 z" transform="translate(0 -1036.362)"/></svg>