<svg xmlns="http://www.w3.org/2000/svg" width="16" height="16" viewBox="0 0 16 16"><path fill="#2b4255" d="m 11.486489,1037.3623 a 3.4975174,3.4976877 0 0 0 -2.456362,1.0232 3.4975174,3.4976877 0 0 0 -0.8376616,3.5968 l -7.73813401,7.7386 c -0.60577518,0.6058 -0.60577518,1.5811 0,2.187 0.60578511,0.6058 1.58112961,0.6058 2.18690481,0 l 7.7400838,-7.7405 a 3.4975174,3.4976877 0 0 0 3.594721,-0.8358 3.4975174,3.4976877 0 0 0 0.603356,-4.1358 l -2.723869,2.722 -1.411725,-1.4138 2.719959,-2.72 a 3.4975174,3.4976877 0 0 0 -1.677273,-0.4218 z m -9.8898885,12.9034 a 0.50586184,0.5058863 0 0 1 0.3514643,0.1483 0.50586184,0.5058863 0 0 1 0,0.7147 0.50586184,0.5058863 0 0 1 -0.7165949,0 0.50586184,0.5058863 0 0 1 0,-0.7147 0.50586184,0.5058863 0 0 1 0.3651306,-0.1483 z" transform="translate(0 -1036.362)"/></svg>