<svg xmlns="http://www.w3.org/2000/svg" width="16" height="16" viewBox="0 0 16 16"><path fill="#f05542" d="m -935.01948,907.3622 c -0.54334,0 -0.98047,0.43713 -0.98047,0.98047 l 0,1.23047 a 5.5,5.5 0 0 0 -1.17578,0.49218 l -0.87305,-0.87304 c -0.3842,-0.3842 -1.00252,-0.3842 -1.38672,0 l -0.73437,0.73437 c -0.3842,0.3842 -0.3842,1.00252 0,1.38672 l 0.86914,0.86914 a 5.5,5.5 0 0 0 -0.48438,1.17969 l -1.23437,0 c -0.54334,0 -0.98047,0.43713 -0.98047,0.98047 l 0,1.03906 c 0,0.54334 0.43713,0.98047 0.98047,0.98047 l 1.23047,0 a 5.5,5.5 0 0 0 0.49023,1.17773 l -0.87109,0.8711 c -0.3842,0.3842 -0.3842,1.00252 0,1.38672 l 0.73437,0.73437 c 0.3842,0.3842 1.00252,0.3842 1.38672,0 l 0.86914,-0.86914 a 5.5,5.5 0 0 0 1.17969,0.48438 l 0,1.23437 c 0,0.54334 0.43713,0.98047 0.98047,0.98047 l 1.03906,0 c 0.54334,0 0.98047,-0.43713 0.98047,-0.98047 l 0,-1.23047 a 5.5,5.5 0 0 0 1.17578,-0.49218 l 0.87305,0.87304 c 0.3842,0.3842 1.00252,0.3842 1.38672,0 l 0.73437,-0.73437 c 0.3842,-0.3842 0.3842,-1.00252 0,-1.38672 l -0.86914,-0.86914 a 5.5,5.5 0 0 0 0.48438,-1.17969 l 1.23437,0 c 0.54334,0 0.98047,-0.43713 0.98047,-0.98047 l 0,-1.03906 c 0,-0.54334 -0.43713,-0.98047 -0.98047,-0.98047 l -1.23047,0 a 5.5,5.5 0 0 0 -0.49218,-1.17578 l 0.87304,-0.87305 c 0.3842,-0.3842 0.3842,-1.00252 0,-1.38672 l -0.73437,-0.73437 c -0.3842,-0.3842 -1.00252,-0.3842 -1.38672,0 l -0.86914,0.86914 a 5.5,5.5 0 0 0 -1.17969,-0.48438 l 0,-1.23437 c 0,-0.54334 -0.43713,-0.98047 -0.98047,-0.98047 l -1.03906,0 z m 0.51953,5 a 2.5,2.5 0 0 1 2.5,2.5 2.5,2.5 0 0 1 -2.5,2.5 2.5,2.5 0 0 1 -2.5,-2.5 2.5,2.5 0 0 1 2.5,-2.5 z" transform="translate(942 -906.362)"/></svg>