<svg xmlns="http://www.w3.org/2000/svg" width="16" height="16" viewBox="0 0 16 16"><path fill="#576d7e" d="m -953.08785,967.6781 -4.86719,0.0137 0,4.88086 1.59961,-1.60742 2.79883,2.80078 1.67383,-1.67383 -2.80469,-2.80664 1.59961,-1.60742 z m 3.27148,0.0137 1.61524,1.60742 -2.82422,2.82227 1.6582,1.6582 2.83008,-2.82812 1.61524,1.60742 -0.0137,-4.86719 -4.88086,0 z m 0.42578,6.9082 -1.6582,1.65821 2.85156,2.85156 -1.60546,1.61523 4.86718,-0.0137 0,-4.88086 -1.60937,1.61719 -2.84571,-2.84765 z m -4.14062,0.0156 -2.83008,2.82813 -1.60742,-1.59961 0.0137,4.86719 4.88086,0 -1.60937,-1.60156 2.82422,-2.82227 -1.67188,-1.67188 z" transform="translate(958.969 -965.725)"/></svg>