<svg xmlns="http://www.w3.org/2000/svg" width="16" height="16" viewBox="0 0 16 16"><path fill="#2b4255" d="m 8.999945,1048.3525 0,-3 3,0 0.0123,0.5056 0.004,1.5002 2.98373,-3.0002 -3.00003,-3 0.004,1.5 -0.004,0.5 -3,0 0,-3.002 0.50005,-0.01 1.50005,0 -3.0001,-2.9838 -3.0001,3 1.50005,0 0.502,-0.01 0,3.002 -3.00195,0 -0.0122,-0.5 -0.004,-1.5002 -2.98372,3.0002 3.00002,3 -0.004,-1.5 0.004,-0.5 3,0 0,2.998 -0.50005,0.01 -1.50005,0.016 3.0001,2.9837 3.0001,-3 -1.50005,0 z" transform="translate(0 -1036.362)"/></svg>