<svg xmlns="http://www.w3.org/2000/svg" width="87" height="84" viewBox="0 0 87 84"><g fill="none" fill-rule="evenodd" transform="translate(-41.6 -44)"><g transform="translate(42.24 46.464)"><rect width="82.368" height="72.864" x="1.584" y="6.864" stroke="#3D42EC" stroke-width="3.168" rx="5.28"/><path fill="#6FABF6" d="M52.8000001,69.6960001 L52.8000001,52.8000001 L33.7920001,52.8000001 L33.7920001,69.6960001 L13.728,69.6960001 C11.9783619,69.6960001 10.56,68.2776382 10.56,66.5280001 L10.56,21.12 C10.56,19.3703619 11.9783619,17.952 13.728,17.952 L71.8080001,17.952 C73.5576382,17.952 74.9760001,19.3703619 74.9760001,21.12 L74.9760001,66.5280001 C74.9760001,68.2776382 73.5576382,69.6960001 71.8080001,69.6960001 L52.8000001,69.6960001 Z"/><path stroke="#3D42EC" stroke-linejoin="round" stroke-width="3.168" d="M10.56,35.6638897 L74.9760001,35.6638897"/><path stroke="#3D42EC" stroke-linejoin="round" stroke-width="3.168" d="M5.42275624,43.6812438 L57.1667563,43.6812438" transform="rotate(90 31.68 44.21)"/><path stroke="#3D42EC" stroke-linejoin="round" stroke-width="3.168" d="M27.5987563,43.6812438 L79.3427564,43.6812438" transform="rotate(90 53.856 44.21)"/><path stroke="#3D42EC" stroke-linejoin="round" stroke-width="3.168" d="M10.56,52.5598898 L74.9760001,52.5598898"/><polyline stroke="#3D42EC" stroke-linecap="round" stroke-linejoin="round" stroke-width="3.168" points="36.96 58.608 42.24 65.472 56.496 48.614"/><path stroke="#3D42EC" stroke-linecap="round" stroke-linejoin="round" stroke-width="3.485" d="M53.312651 13.728C57.1458869 11.3712427 58.7887022 1.3550239 54.4078613.176645226 50.0270203-1.00173345 48.93181 3.99795894 50.0270203 6.8008168M32.192651 13.728C36.0258868 11.3712427 37.6687022 1.3550239 33.2878612.176645226 28.9070202-1.00173345 27.81181 3.99795894 28.9070202 6.8008168"/></g></g></svg>