<svg xmlns="http://www.w3.org/2000/svg" width="80" height="69" viewBox="0 0 80 69"><g fill="none" fill-rule="evenodd" transform="translate(-45.8 -53.592)"><g transform="translate(46.464 53.856)"><path stroke="#3D42EC" stroke-width="3.168" d="M42.7529529,12.144 L23.76,12.144 L23.76,10.56 C23.76,9.10196828 22.5780318,7.92000001 21.12,7.92000001 L14.784,7.92000001 C13.3259683,7.92000001 12.144,9.10196828 12.144,10.56 L12.144,12.144 L5.28000001,12.144 C3.23875557,12.144 1.584,13.7987556 1.584,15.84 L1.584,63.3600001 C1.584,65.4012446 3.23875557,67.0560001 5.28000001,67.0560001 L73.9200001,67.0560001 C75.9612446,67.0560001 77.6160001,65.4012446 77.6160001,63.3600001 L77.6160001,15.84 C77.6160001,13.7987556 75.9612446,12.144 73.9200001,12.144 L72.3360001,12.144 L72.3360001,5.28000001 C72.3360001,3.23875557 70.6812446,1.584 68.6400001,1.584 L48.4085096,1.584 C46.7340342,1.584 45.268755,2.70974223 44.8373052,4.32767885 L42.7529529,12.144 Z"/><path fill="#6FABF6" fill-rule="nonzero" d="M29.9197458,26.4 C25.8642993,29.3790924 23.232,34.182143 23.232,39.6000001 C23.232,45.7143988 26.5846459,51.0457451 31.5518986,53.8560001 L12.672,53.8560001 C9.75593654,53.8560001 7.39200001,51.4920636 7.39200001,48.5760001 L7.39200001,31.6800001 C7.39200001,28.7639366 9.75593654,26.4 12.672,26.4 L29.9197458,26.4 Z M49.2802543,26.4 L76.0320001,26.4 L76.0320001,53.8560001 L47.6481015,53.8560001 C52.6153543,51.0457451 55.9680001,45.7143988 55.9680001,39.6000001 C55.9680001,34.182143 53.3357009,29.3790924 49.2802543,26.4 Z"/><circle cx="39.6" cy="39.6" r="14.784" stroke="#3D42EC" stroke-width="3.168"/><circle cx="33.264" cy="35.376" r="2.64" fill="#3D42EC" transform="matrix(-1 0 0 1 66.528 0)"/><rect width="11.616" height="8.448" x="52.8" y="7.392" fill="#6FABF6" fill-rule="nonzero" rx="1.056"/></g></g></svg>