<svg xmlns="http://www.w3.org/2000/svg" width="88" height="79" viewBox="0 0 88 79"><g fill="none" fill-rule="evenodd" transform="translate(-41 -48.96)"><g transform="translate(41.184 49.632)"><path fill="#6FABF6" fill-rule="nonzero" d="M36.4320001,31.6800001 L45.4080001,31.6800001 C48.3240636,31.6800001 50.6880001,34.0439366 50.6880001,36.9600001 L50.6880001,70.078345 L50.6880001,75.5621911 C50.6880001,76.7286165 49.7424255,77.6741911 48.5760001,77.6741911 C48.0598169,77.6741911 47.5615048,77.4851545 47.1751983,77.1427917 L40.1034102,70.875444 C39.5239504,70.3618998 38.7764822,70.078345 38.0022075,70.078345 L5.28000001,70.078345 C2.36393653,70.078345 2.52261105e-14,67.7144084 2.48689958e-14,64.7983449 L2.48689958e-14,56.1163097 L32.2080001,56.1163097 C34.5408508,56.1163097 36.4320001,54.2251605 36.4320001,51.8923097 L36.4320001,31.6800001 Z" transform="matrix(-1 0 0 1 50.688 0)"/><path stroke="#3D42EC" stroke-width="3.168" d="M17.952,1.584 C15.9107556,1.584 14.256,3.23875557 14.256,5.28000001 L14.256,52.0966672 C14.256,54.1379116 15.9107556,55.7926672 17.952,55.7926672 L69.4494632,55.7926672 C70.6198987,55.7926672 71.7491628,56.2246203 72.6208148,57.0057361 L85.1836278,68.2636828 C85.280478,68.3504734 85.4059518,68.3984682 85.5360002,68.3984682 C85.8276065,68.3984682 86.0640002,68.1620746 86.0640002,67.8704682 L86.0640002,5.28000001 C86.0640002,3.23875557 84.4092446,1.584 82.3680001,1.584 L17.952,1.584 Z"/><circle cx="35.376" cy="27.984" r="3.696" fill="#3D42EC"/><circle cx="49.104" cy="27.984" r="3.696" fill="#3D42EC"/><circle cx="62.832" cy="27.984" r="3.696" fill="#3D42EC"/></g></g></svg>