<svg xmlns="http://www.w3.org/2000/svg" width="83" height="67" viewBox="0 0 83 67"><g fill="none" fill-rule="evenodd" transform="translate(.352 .08)"><path stroke="#3D42EC" stroke-width="3.168" d="M28.5484386,1.92496765 L4.65120272,1.92496765 C3.13251679,1.92496765 1.9013786,3.15610585 1.9013786,4.67479177 L1.9013786,62.1279381 C1.90143132,62.1487924 1.90143132,62.1487924 1.90169491,62.1696451 C1.92472904,63.6881563 3.17439847,64.9004801 4.69290971,64.8774459 L65.6801477,63.9523372 C66.805076,63.9352733 67.806141,63.2346667 68.2074126,62.1836024 L72.1792208,51.7863701 L80.5830426,25.6952927 C80.6335861,25.5383719 80.6593227,25.3745225 80.6593227,25.2096627 C80.6593227,24.3348436 79.9501417,23.6256627 79.0753227,23.6256627 L66.3771143,23.6256627 L68.9974743,16.4327839 C69.1109694,16.1212403 69.1671838,15.7917385 69.1634035,15.4601871 C69.1460888,13.9415999 67.9009943,12.7245781 66.3824071,12.7418928 L36.7445091,13.0798198 L28.5484386,1.92496765 Z"/><path fill="#6FABF6" fill-rule="nonzero" d="M34.1458782,5.3164138 L76.3657869,5.3164138 C78.7501237,5.3164138 80.0051706,7.25955641 79.1690126,9.65654429 C76.9754065,15.9448856 75.3302019,20.6611416 74.2333989,23.8053123 L23.5288096,23.3759799 C24.5923311,20.3272165 26.1876133,15.7540712 28.3146563,9.65654429 C29.1508144,7.25955641 31.7615413,5.3164138 34.1458782,5.3164138 Z"/><path stroke="#3D42EC" stroke-width="3.168" d="M19.9774763,23.6256627 C18.2814465,23.6256627 16.2606263,25.1297425 15.6418677,26.9035184 L3.15138353,62.7095948 C2.6630968,64.109351 3.20218424,64.9440001 4.45899602,64.9440001 L63.8208226,64.9440001 C65.5168525,64.9440001 67.5376726,63.4399203 68.1564312,61.6661444 L80.6469154,25.8600679 C81.1352021,24.4603118 80.5961147,23.6256627 79.3393029,23.6256627 L19.9774763,23.6256627 Z"/><path fill="#6FABF6" fill-rule="nonzero" d="M55.5782036,28.5341241 L71.3969134,28.5341241 C72.0322903,28.5341241 72.3667345,29.0519318 72.1439156,29.6906799 L68.8154576,39.2322652 C68.5926386,39.8710133 67.8969334,40.388821 67.2615565,40.388821 L51.4428468,40.388821 C50.8074699,40.388821 50.4730256,39.8710133 50.6958446,39.2322652 L54.0243026,29.6906799 C54.2471215,29.0519318 54.9428267,28.5341241 55.5782036,28.5341241 Z"/></g></svg>