<svg xmlns="http://www.w3.org/2000/svg" width="65" height="85" viewBox="0 0 65 85"><g fill="none" fill-rule="evenodd" transform="translate(.755 .259)"><path stroke="#3D42EC" stroke-linecap="square" stroke-width="4.22" d="M12.1863805,54.3375409 L22.6318496,54.3375409"/><path stroke="#3D42EC" stroke-linecap="square" stroke-width="4.22" d="M12.1863805,54.3375409 L22.6318496,54.3375409" transform="rotate(90 17.41 54.338)"/><path stroke="#3D42EC" stroke-width="3.165" d="M5.27548941,1.58264682 C3.23598876,1.58264682 1.58264682,3.23598876 1.58264682,5.27548941 L1.58264682,79.1323411 C1.58264682,81.1718417 3.23598876,82.8251837 5.27548941,82.8251837 L47.4794047,82.8251837 C55.34605,82.8251837 61.7232261,76.4480076 61.7232261,68.5813623 L61.7232261,5.27548941 C61.7232261,3.23598876 60.0698841,1.58264682 58.0303835,1.58264682 L5.27548941,1.58264682 Z"/><circle cx="49.59" cy="50.645" r="3.165" fill="#3D42EC"/><circle cx="43.259" cy="58.03" r="3.165" fill="#3D42EC"/><rect width="46.424" height="34.818" x="8.441" y="7.386" fill="#6FABF6" fill-rule="nonzero" rx="5.275"/><path stroke="#3D42EC" stroke-linecap="round" stroke-linejoin="round" stroke-width="3.165" d="M25.5782159 75.9670474L30.323224 72.2742049M32.9639011 75.9670474L37.7089092 72.2742049"/></g></svg>