<svg xmlns="http://www.w3.org/2000/svg" width="79" height="83" viewBox="0 0 79 83"><g fill="none" fill-rule="evenodd" transform="translate(.574 .047)"><path fill="#6FABF6" fill-rule="nonzero" d="M61.5318133,10.6561716 L75.3805575,4.18809936 C76.436494,3.69492302 77.692298,4.15113019 78.1854743,5.20706661 C78.3160538,5.48664933 78.3837281,5.79146805 78.3837281,6.10004136 L78.3837281,39.7360825 C78.3837281,40.9015115 77.4389612,41.8462783 76.2735323,41.8462783 C75.964959,41.8462783 75.6601403,41.778604 75.3805575,41.6480245 L61.5318133,35.1799523 C59.6752678,34.3128505 58.4887608,32.4491524 58.4887608,30.4000973 L58.4887608,15.4360266 C58.4887608,13.3869715 59.6752678,11.5232734 61.5318133,10.6561716 Z"/><polyline stroke="#6FABF6" stroke-linecap="round" stroke-linejoin="round" stroke-width="5.275" points="13.716 79.351 23.212 45.369 33.763 45.369 43.787 79.351"/><path stroke="#3D42EC" stroke-linecap="round" stroke-linejoin="round" stroke-width="3.165" d="M7.47307955 81.2425369L19.5193108 81.2425369M38.0709181 81.2425369L50.1171494 81.2425369"/><rect width="58.03" height="42.204" x="1.583" y="1.583" stroke="#3D42EC" stroke-width="3.165" rx="5.275"/><rect width="32.708" height="5.275" x="17.937" y="8.441" fill="#6FABF6" fill-rule="nonzero" rx="2.638"/><rect width="5.275" height="5.275" x="9.496" y="8.441" fill="#6FABF6" fill-rule="nonzero" rx="2.638"/></g></svg>