<svg xmlns="http://www.w3.org/2000/svg" xmlns:xlink="http://www.w3.org/1999/xlink" width="91" height="78" viewBox="0 0 91 78"><defs><rect id="a" width="14.049" height="32.825" rx="6.851"/><mask id="c" width="14.049" height="32.825" x="0" y="0" fill="#fff"><use xlink:href="#a"/></mask><rect id="b" width="14.049" height="32.825" rx="6.851"/><mask id="d" width="14.049" height="32.825" x="0" y="0" fill="#fff"><use xlink:href="#b"/></mask></defs><g fill="none" fill-rule="evenodd" transform="translate(2.223 3.158)"><path fill="#3D42EC" stroke="#3D42EC" stroke-width="3.165" d="M15.0411357,16.6461008 L16.321733,17.7794098 C17.748032,19.0416605 19.8375303,19.2075675 21.4451473,18.186211 C28.9086563,13.4444697 36.1617555,11.0551775 43.1920944,11.0551775 C50.1493162,11.0551775 56.978167,13.3953241 63.6505079,18.0398348 C65.2176731,19.130711 67.3183655,19.0494708 68.7965989,17.8408197 L70.8798852,16.1374579 C64.9656071,9.05968863 55.8646946,5.37116112 43.4482828,5.10034127 C30.972482,4.82822605 21.5537205,8.67470168 15.0411357,16.6461008 Z"/><path stroke="#6FABF6" stroke-linejoin="round" stroke-width="5.856" d="M11.434338,60.3750478 L3.96888444,60.3750478 C2.99301531,60.3750501 2.14444021,59.7059141 1.91686723,58.7569509 C0.715323859,53.7466005 0.466609797,48.3915079 1.17072505,42.6916734 C2.34145009,33.2146182 7.25738166,0 43.0241455,0 C78.7909092,0 83.7068408,33.2146182 84.8775659,41.5193424 C85.594634,46.6059794 85.3234939,52.3246377 84.0641455,58.6753174 C83.868231,59.6632644 83.00144,60.3750478 81.9942549,60.3750478 L76.5897282,60.3750478"/><g fill-rule="nonzero" stroke="#3D42EC" transform="translate(8.195 41.032)"><path fill="#6FABF6" stroke-width="3.165" d="M6.851278,1.58264682 C3.94149335,1.58264682 1.58264682,3.94149335 1.58264682,6.851278 L1.58264682,25.9739894 C1.58264682,28.8837741 3.94149335,31.2426206 6.851278,31.2426206 L11.7063832,31.2426206 C12.1259377,31.2426206 12.4660537,30.9025045 12.4660537,30.4829501 L12.4660537,2.34231733 C12.4660537,1.92276289 12.1259377,1.58264682 11.7063832,1.58264682 L6.851278,1.58264682 Z"/><use stroke-dasharray="40.991" stroke-linecap="round" stroke-linejoin="round" stroke-width="6.678" mask="url(#c)" transform="matrix(-1 0 0 1 14.049 0)" xlink:href="#a"/></g><g fill-rule="nonzero" stroke="#3D42EC" transform="translate(63.22 41.032)"><path fill="#6FABF6" stroke-width="3.165" d="M3.16529364,1.58264682 C2.29122194,1.58264682 1.58264682,2.29122194 1.58264682,3.16529364 L1.58264682,29.6599738 C1.58264682,30.5340455 2.29122194,31.2426206 3.16529364,31.2426206 L7.19742256,31.2426206 C10.1072072,31.2426206 12.4660537,28.8837741 12.4660537,25.9739894 L12.4660537,6.851278 C12.4660537,3.94149335 10.1072072,1.58264682 7.19742256,1.58264682 L3.16529364,1.58264682 Z"/><use stroke-dasharray="40.991" stroke-linecap="round" stroke-linejoin="round" stroke-width="6.678" mask="url(#d)" xlink:href="#b"/></g></g></svg>