<svg xmlns="http://www.w3.org/2000/svg" width="71" height="98" viewBox="0 0 71 98"><g fill="none" fill-rule="evenodd" transform="translate(-42 -34.633)"><g transform="rotate(-13 227.78 -164.66)"><ellipse cx="26.004" cy="79.275" fill="#3D42EC" rx="3.569" ry="3.58"/><path stroke="#3D42EC" stroke-width="3.165" d="M65,19.5456898 L52.4722833,73.6365319 L50.5598215,81.8939561 C50.0289306,84.1861803 48.0114348,85.8313637 45.6522929,85.8958402 L5.32442494,86.9980209 C2.46334574,87.0762156 0.0803911029,84.8276219 0.00194678524,81.9756464 C-1.83854354e-09,81.9284628 -1.83854354e-09,81.8812636 -1.83854354e-09,81.8340623 L-1.83854354e-09,5.16589916 C-1.83854354e-09,2.31285184 2.32023456,-1.40744305e-09 5.18238894,-1.40744305e-09 C11.5982577,-1.40744305e-09 16.4101593,-1.40744305e-09 19.6180937,-1.40744305e-09 M33.4469428,0.14162916 C35.9745939,0.14162916 40.1283525,0.0944194397 45.9082185,-1.40744305e-09 C48.7703729,-1.40744305e-09 51.0906075,2.31285184 51.0906075,5.16589916"/></g><g transform="translate(60.14 37.984)"><path fill="#6FABF6" fill-rule="nonzero" d="M0,70.2913485 L51.6997962,70.2913485 L51.6997962,83.3527326 C51.6997962,86.266305 49.3378791,88.628222 46.4243068,88.628222 L5.27548941,88.628222 C2.36191706,88.628222 2.13316654e-15,86.266305 0,83.3527326 L0,70.2913485 Z"/><ellipse cx="25.85" cy="78.95" fill="#3D42EC" rx="3.548" ry="3.566"/><path stroke="#3D42EC" stroke-linecap="round" stroke-linejoin="round" stroke-width="3.165" d="M18.7538476 10.187152L27.8773411 10.187152M31.9322271 10.187152L32.9459485 10.187152"/><rect width="48.535" height="85.463" x="1.583" y="1.583" stroke="#3D42EC" stroke-width="3.165" rx="5.275"/></g></g></svg>