<svg xmlns="http://www.w3.org/2000/svg" width="93" height="78" viewBox="0 0 93 78"><g fill="none" fill-rule="evenodd" transform="translate(-38.8 -46.96)"><g transform="translate(39.072 47.52)"><path fill="#6FABF6" fill-rule="nonzero" d="M0,49.6320001 L91.8720002,49.6320001 L91.8720002,59.1360001 C91.8720002,62.6352763 89.0352763,65.4720001 85.5360002,65.4720001 L6.33600001,65.4720001 C2.83672383,65.4720001 4.64706379e-15,62.6352763 0,59.1360001 L0,49.6320001 Z"/><circle cx="45.936" cy="56.496" r="3.696" fill="#3D42EC"/><path fill="#6FABF6" fill-rule="nonzero" d="M45.9360001,63.3600001 L53.8560001,63.3600001 C53.2750795,65.7181589 53.5507726,68.0295451 54.6830795,70.2941589 C55.8153863,72.5587726 57.6516932,74.4713864 60.1920001,76.0320001 L45.9360001,76.0320001 L32.2080001,76.0320001 C34.7483069,74.4713864 36.5846138,72.5587726 37.7169207,70.2941589 C38.8492276,68.0295451 39.1249207,65.7181589 38.5440001,63.3600001 L45.9360001,63.3600001 Z"/><rect width="88.704" height="62.304" x="1.584" y="1.584" stroke="#3D42EC" stroke-width="3.168" rx="5.28"/><path stroke="#3D42EC" stroke-linecap="round" stroke-linejoin="round" stroke-width="3.168" d="M28.5120001,75.5040001 L63.3600001,75.5040001"/></g></g></svg>