<svg xmlns="http://www.w3.org/2000/svg" width="76" height="88" viewBox="0 0 76 88"><g fill="none" fill-rule="evenodd" transform="translate(-1.304 .872)"><path stroke="#3D42EC" stroke-width="3.168" d="M66.935242,77.9168641 L19.1791383,69.4961745 C15.4925068,68.8461219 13.0066202,65.3619734 13.5912941,61.6644098 L21.8007461,9.7466274 L11.5192662,9.93781793 C9.50515596,9.97527156 7.89198369,11.6187207 7.89198369,13.6331791 L7.89198369,77.0904513 C7.89198369,79.1316957 9.54673926,80.7864513 11.5879837,80.7864513 L63.3319838,80.7864513 C65.089131,80.7864513 66.5598847,79.5602546 66.935242,77.9168641 Z" transform="rotate(-10 37.46 45.25)"/><path fill="#6FABF6" fill-rule="nonzero" d="M16.368,66.0000001 L29.0501941,49.706989 C29.7666568,48.7865383 31.0936372,48.6211734 32.0140879,49.337636 C32.1056215,49.4088842 32.19113,49.4875521 32.2697458,49.5728414 L40.692035,58.7100824 C41.4825854,59.5677411 42.8187228,59.6221431 43.6763814,58.8315928 C43.8392189,58.6814966 43.9774359,58.506723 44.0859657,58.3136785 L55.8243194,37.4344107 C56.3959398,36.4176498 57.6835784,36.0567959 58.7003376,36.6284194 C59.0108509,36.8029904 59.2721644,37.0532649 59.4599672,37.3559589 C70.7991388,55.6320396 76.5974633,65.1800534 76.8549408,66.0000001 C77.126317,66.8642081 74.7342463,69.1522081 69.6787287,72.8640001 L19.7891507,72.8640001 L16.368,66.0000001 Z"/><rect width="59.136" height="70.752" x="16.368" y="1.584" stroke="#3D42EC" stroke-width="3.168" rx="5.28"/><circle cx="32.736" cy="28.512" r="5.28" fill="#6FABF6" fill-rule="nonzero"/></g></svg>