<svg xmlns="http://www.w3.org/2000/svg" width="68" height="85" viewBox="0 0 68 85"><g fill="none" fill-rule="evenodd" transform="translate(.794 .259)"><path stroke="#3D42EC" stroke-linecap="round" stroke-linejoin="round" stroke-width="3.165" d="M11.6060767,1.58264682 L11.6060767,82.8251837"/><path stroke="#3D42EC" stroke-width="3.165" d="M2.11019576,1.58264682 C1.81883853,1.58264682 1.58264682,1.81883853 1.58264682,2.11019576 L1.58264682,82.2976347 C1.58264682,82.588992 1.81883853,82.8251837 2.11019576,82.8251837 L58.0303835,82.8251837 C61.8180275,82.8251837 64.8885197,79.7546915 64.8885197,75.9670474 L64.8885197,8.44078305 C64.8885197,4.653139 61.8180275,1.58264682 58.0303835,1.58264682 L2.11019576,1.58264682 Z"/><path fill="#6FABF6" fill-rule="nonzero" d="M48.9913751,43.3343849 L48.9913751,31.2681564 L33.6924558,35.0081076 L33.6924558,54.0070594 L33.685767,54.0070594 C33.5328125,57.4208528 30.7758353,60.1405792 27.3972067,60.1405792 C23.9204366,60.1405792 21.1019576,57.2605542 21.1019576,53.7078633 C21.1019576,50.1551723 23.9204366,47.2751473 27.3972067,47.2751473 C28.7301518,47.2751473 29.966338,47.6984673 30.9840347,48.4207184 L30.9840347,29.4972645 C30.9840347,28.690075 31.5293845,27.9848215 32.310606,27.7817253 L49.6661184,23.2697682 C49.7996227,23.2350608 49.9370034,23.2174951 50.0749454,23.2174951 C50.9723257,23.2174951 51.6997962,23.9449656 51.6997962,24.8423459 L51.6997962,48.1727356 L51.6847136,48.1727356 C51.6947135,48.3210079 51.6997962,48.4706623 51.6997962,48.6215297 C51.6997962,52.1742206 48.8813172,55.0542457 45.4045471,55.0542457 C41.927777,55.0542457 39.109298,52.1742206 39.109298,48.6215297 C39.109298,45.0688388 41.927777,42.1888137 45.4045471,42.1888137 C46.7374922,42.1888137 47.9736784,42.6121338 48.9913751,43.3343849 Z"/></g></svg>