<svg xmlns="http://www.w3.org/2000/svg" width="87" height="82" viewBox="0 0 87 82"><g fill="none" fill-rule="evenodd" transform="translate(-41.6 -43.96)"><rect width="91.872" height="91.872" x="39.072" y="39.072"/><g transform="translate(42.24 44.352)"><path stroke="#3D42EC" stroke-width="3.168" d="M17.3406316,30.111093 L69.3208422,30.6087619 L69.3208422,12.7495017 C69.3208422,11.7688296 68.5258505,10.9738379 67.5451784,10.9738379 L19.1162954,10.9738379 C18.1356234,10.9738379 17.3406316,11.7688296 17.3406316,12.7495017 L17.3406316,30.111093 Z"/><g fill-rule="nonzero" transform="translate(23.232)"><path fill="#6FABF6" d="M4.55663971,-3.55271368e-15 L30.0034176,-3.55271368e-15 L41.1840001,12.144 L41.1840001,31.6800001 L0.290400001,31.6800001 L0.290400001,4.26623971 C0.290400001,1.91006058 2.20046058,-3.11989059e-15 4.55663971,-3.55271368e-15 Z"/><path fill="#3D42EC" d="M30.0960001,1.77635684e-15 L35.9040001,1.77635684e-15 C38.8200635,3.52506248e-16 41.1840001,2.36393653 41.1840001,5.28000001 L41.1840001,12.144 L30.0960001,1.77635684e-15 Z" transform="rotate(180 35.64 6.072)"/></g><rect width="82.368" height="37.288" x="1.584" y="31.523" stroke="#3D42EC" stroke-width="3.168" rx="6.719"/><circle cx="73.392" cy="39.6" r="3.696" fill="#3D42EC"/><path stroke="#3D42EC" stroke-width="3.168" d="M17.0518609,57.1845406 C17.0348951,57.1845406 17.0179358,57.185199 17.001021,57.1865143 C16.6399361,57.2145924 16.3699806,57.5300714 16.3980587,57.8911564 L17.175201,67.8852263 C17.2017504,68.2266524 17.4865463,68.4901623 17.8290032,68.4901623 L68.8324707,68.4901623 C69.1749275,68.4901623 69.4597235,68.2266524 69.4862729,67.8852263 L70.2634151,57.8911564 C70.2647304,57.8742417 70.2653888,57.8572823 70.2653888,57.8403165 C70.2653888,57.4781415 69.9717879,57.1845406 69.6096129,57.1845406 L17.0518609,57.1845406 Z"/><path fill="#6FABF6" fill-rule="nonzero" d="M20.8657233,61.083892 L65.7958793,61.083892 L70.1029005,78.5355563 C70.399294,79.7365164 69.6659979,80.9503614 68.4650378,81.2467549 C68.289439,81.2900922 68.1092373,81.3120001 67.9283698,81.3120001 L18.7332329,81.3120001 C17.4962388,81.3120001 16.493457,80.3092183 16.493457,79.0722243 C16.493457,78.8913568 16.515365,78.7111551 16.5587022,78.5355563 L20.8657233,61.083892 Z"/></g></g></svg>