<svg xmlns="http://www.w3.org/2000/svg" width="74" height="81" viewBox="0 0 74 81"><g fill="none" fill-rule="evenodd" transform="translate(.48 .047)"><rect width="48.535" height="32.708" x="12.134" y="45.897" stroke="#3D42EC" stroke-width="3.165"/><rect width="41.149" height="26.377" x="14.771" y="1.055" fill="#6FABF6" fill-rule="nonzero" rx="2.11"/><rect width="10.551" height="13.716" x="41.149" y="8.441" fill="#3D42EC" rx="2.11"/><path stroke="#3D42EC" stroke-width="3.165" d="M71.219107,19.1473241 L55.7866444,1.58264682 L5.27548941,1.58264682 C3.23598876,1.58264682 1.58264682,3.23598876 1.58264682,5.27548941 L1.58264682,74.9119496 C1.58264682,76.9514502 3.23598876,78.6047922 5.27548941,78.6047922 L67.5262644,78.6047922 C69.565765,78.6047922 71.219107,76.9514502 71.219107,74.9119496 L71.219107,19.1473241 Z"/><path fill="#6FABF6" fill-rule="nonzero" d="M12.6611746,42.2039152 L60.1405792,42.2039152 C61.3060082,42.2039152 62.250775,43.1486821 62.250775,44.314111 L62.250775,47.4794047 L10.5509788,47.4794047 L10.5509788,44.314111 C10.5509788,43.1486821 11.4957456,42.2039152 12.6611746,42.2039152 Z"/></g></svg>