<svg xmlns="http://www.w3.org/2000/svg" width="87" height="84" viewBox="0 0 87 84"><g fill="none" fill-rule="evenodd" transform="translate(.223 .626)"><path stroke="#3D42EC" stroke-width="3.165" d="M55.3926388,39.5661705 L55.3926388,81.7700858 L81.2425369,81.7700858 C83.2820375,81.7700858 84.9353794,80.1167439 84.9353794,78.0772432 L84.9353794,43.2590131 C84.9353794,41.2195125 83.2820375,39.5661705 81.2425369,39.5661705 L55.3926388,39.5661705 Z"/><circle cx="64.361" cy="71.747" r="3.165" fill="#6FABF6" fill-rule="nonzero"/><circle cx="75.967" cy="71.747" r="3.165" fill="#6FABF6" fill-rule="nonzero"/><circle cx="29.015" cy="25.85" r="7.386" fill="#6FABF6" stroke="#3D42EC" stroke-width="3.165"/><path stroke="#3D42EC" stroke-width="3.165" d="M55.3926388,81.7700858 L55.3926388,5.27548941 C55.3926388,3.23598876 53.7392968,1.58264682 51.6997962,1.58264682 L5.27548941,1.58264682 C3.23598876,1.58264682 1.58264682,3.23598876 1.58264682,5.27548941 L1.58264682,78.0772432 C1.58264682,80.1167439 3.23598876,81.7700858 5.27548941,81.7700858 L55.3926388,81.7700858 Z"/><circle cx="70.164" cy="54.338" r="6.331" fill="#6FABF6" stroke="#3D42EC" stroke-width="3.165"/><circle cx="28.488" cy="58.03" r="12.134" fill="#6FABF6" stroke="#3D42EC" stroke-width="3.165"/></g></svg>