<svg xmlns="http://www.w3.org/2000/svg" width="90" height="88" viewBox="0 0 90 88"><g fill="none" fill-rule="evenodd" transform="translate(.113 2.204)"><rect width="86.518" height="65.416" x="1.583" y="18.464" stroke="#3D42EC" stroke-width="3.165" rx="5.275"/><circle cx="74.912" cy="50.645" r="3.165" fill="#3D42EC"/><circle cx="74.912" cy="61.196" r="3.165" fill="#3D42EC"/><circle cx="74.912" cy="39.039" r="3.165" fill="#3D42EC"/><path fill="#6FABF6" fill-rule="nonzero" d="M14.1294273,26.7079425 C21.6642189,25.7842136 29.4397348,25.3223491 37.4559751,25.3223491 C45.5719614,25.3223491 53.6889201,25.795779 61.8068513,26.7426388 C64.4659592,27.0527866 66.4711665,29.3054712 66.4711665,31.9826052 L66.4711665,64.0151684 C66.4711666,66.6967318 64.4595059,68.9516644 61.7953217,69.2564674 C53.43288,70.2131945 45.3197645,70.691558 37.4559751,70.691558 C29.6834852,70.691558 21.9119529,70.2242377 14.1413781,69.2895971 C11.4905797,68.9707605 9.49588093,66.7217634 9.49588093,64.0518592 L9.49588093,31.9442268 C9.49588316,29.2789138 11.4839206,27.0322687 14.1294273,26.7079425 Z"/><path stroke="#3D42EC" stroke-linecap="round" stroke-linejoin="round" stroke-width="3.165" d="M13.4783582,76.6583185 L22.6018517,76.6583185"/><polyline stroke="#3D42EC" stroke-linecap="round" stroke-linejoin="round" stroke-width="3.165" points="29.543 0 45.934 15.826 61.196 0"/></g></svg>