<?xml version="1.0" encoding="UTF-8"?><!DOCTYPE svg PUBLIC "-//W3C//DTD SVG 1.1//EN" "http://www.w3.org/Graphics/SVG/1.1/DTD/svg11.dtd"><svg xmlns="http://www.w3.org/2000/svg" xmlns:xlink="http://www.w3.org/1999/xlink" version="1.1" id="Action" x="0px" y="0px" width="512px" height="512px" viewBox="0 0 512 512" xml:space="preserve"><path id="Background" fill="#3BE0DC" d="M256 0c141.355 0 256 114.645 256 256S397.355 512 256 512 0 397.355 0 256 114.645 0 256 0z"/><g id="Action_1_"><path fill="#4D4D4D" d="M62.125 223.887h408.757v236.791H62.125z"/><path fill="#4D4D4D" d="M80.732 223.887H62.125v18.607z"/><path fill="#4D4D4D" d="M178.268 223.887H131.15l-69.025 69.327v9.305l18.607 18.908 74.13-74.13z"/><path fill="#4D4D4D" d="M275.808 223.887H228.69l-73.828 73.829 23.406 23.711 74.129-74.13z"/><path fill="#4D4D4D" d="M373.348 223.887h-47.122l-73.829 73.829 23.411 23.711 74.13-74.13z"/><path fill="#4D4D4D" d="M470.883 223.887h-47.117l-73.828 73.829 23.41 23.711 74.125-74.13z"/><path fill="#E6E6E6" d="M80.732 223.887H62.125v18.607z"/><path fill="#E6E6E6" d="M178.268 223.887H131.15l-69.025 69.327v4.502h42.318l50.419-50.419z"/><path fill="#E6E6E6" d="M275.808 223.887H228.69l-73.828 73.829h47.117l50.418-50.419z"/><path fill="#E6E6E6" d="M373.348 223.887h-47.122l-73.829 73.829h46.821l50.72-50.419z"/><path fill="#E6E6E6" d="M470.883 223.887h-47.117l-73.828 73.829h46.815l50.72-50.419z"/><path transform="matrix(-0.9659 0.2588 -0.2588 -0.9659 522.6055 207.0784)" fill="#4D4D4D" d="M43.216 102.957h408.911v69.966H43.216z"/><path fill="#E6E6E6" d="M77.431 219.686l-18.309 5.103-4.8-18.609z"/><path fill="#E6E6E6" d="M41.113 156.962l45.021-12.006 85.532 49.521h-.302L126.05 206.78v-.299l-84.636-48.92z"/><path fill="#E6E6E6" d="M134.753 132.052l45.318-12.305 85.832 49.519h-.3l-45.318 12.305v-.301z"/><path fill="#E6E6E6" d="M228.987 106.841l45.319-12.303 85.535 49.519-45.318 12.305v-.301z"/><path fill="#E6E6E6" d="M323.226 81.632l45.318-12.306 85.531 49.521-45.615 12.303.302-.298z"/><path fill="#E6E6E6" d="M81.029 352.339h196.879v43.816H81.029z"/><path fill="#E6E6E6" d="M289.615 321.724h171.967v105.042H289.615z"/><path fill="#DDE8EE" d="M275.808 301.017l2.703 15.305 14.703-5.1-11.703 10.205 11.703 9.903-14.703-5.104-2.703 15.305-2.704-15.305-14.703 5.104 11.703-9.903-11.703-10.205 14.703 5.1z"/><path fill="#DDE8EE" d="M303.418 430.067l1.503 8.406 8.1-2.703-6.301 5.402 6.301 5.702-8.1-3-1.503 8.703-1.502-8.703-8.101 3 6.603-5.702-6.603-5.402 8.101 2.703z"/><path fill="#DDE8EE" d="M261.703 392.553l2.698 13.806 13.205-4.802-10.802 9.305 10.802 9.301-13.205-4.799-2.698 13.803-2.402-13.803-13.506 4.799 10.804-9.301-10.804-9.305 13.506 4.802z"/><path fill="#4E5A62" d="M470.883 216.385H118.247L456.18 126.05c1.8-.601 3.302-1.801 4.498-3.603.904-1.801 1.201-3.601.603-5.703L443.272 49.22c-1.201-3.902-5.101-6.303-9.302-5.103L39.314 150.059c-3.9.899-6.301 5.103-5.398 9.004l18.302 67.525c.301 1.502 1.205 3.002 2.401 3.902v230.188c0 4.205 3.306 7.506 7.506 7.506h408.757c4.201 0 7.502-3.301 7.502-7.506V223.887c.001-4.201-3.3-7.502-7.501-7.502zm0 244.293H62.125v-236.79l-3.004.901-4.799-18.609-12.908-48.619-.301-.598 45.021-12.006 48.619-12.904 45.318-12.305 48.916-12.906 45.318-12.303 48.92-12.906 45.318-12.306 67.527-18.006 18.004 67.527-45.614 12.302-48.619 12.906-45.317 12.305-48.921 12.904-45.318 12.306-48.92 12.906-45.315 12.303-48.619 12.906-15.306 4.201h408.757v236.791z"/></g><metadata><rdf:RDF xmlns:rdf="http://www.w3.org/1999/02/22-rdf-syntax-ns#" xmlns:rdfs="http://www.w3.org/2000/01/rdf-schema#" xmlns:dc="http://purl.org/dc/elements/1.1/"><rdf:Description about="https://iconscout.com/legal#licenses" dc:title="action" dc:description="action" dc:publisher="Iconscout" dc:date="2017-09-22" dc:format="image/svg+xml" dc:language="en"><dc:creator><rdf:Bag><rdf:li>Graphiqa Stock</rdf:li></rdf:Bag></dc:creator></rdf:Description></rdf:RDF></metadata></svg>