<?xml version="1.0" encoding="UTF-8"?><!DOCTYPE svg PUBLIC "-//W3C//DTD SVG 1.1//EN" "http://www.w3.org/Graphics/SVG/1.1/DTD/svg11.dtd"><svg xmlns="http://www.w3.org/2000/svg" xmlns:xlink="http://www.w3.org/1999/xlink" version="1.1" id="Apps_Development" x="0px" y="0px" width="512px" height="512px" viewBox="0 0 512 512" xml:space="preserve"><path id="Backround" fill="#4DD0E1" d="M255.847 0C397.312 0 512 114.454 512 256c0 141.549-114.688 256-256.153 256C114.388 512 0 397.549 0 256 0 114.454 114.388 0 255.847 0z"/><g id="Apps_Development_1_"><path fill="#BDE0C8" d="M230.222 60.477h6.236c1.973.328 3.283 1.643 3.283 3.285 0 1.973-1.639 3.287-3.283 3.287h-.331l-1.309-.33h-7.883c-1.969 0-3.283-1.313-3.283-2.958 0-1.642 1.313-3.285 2.953-3.285h3.617zm-22.663 1.315c1.644-.33 3.287.984 3.287 2.627.325 1.972-.989 3.615-2.628 3.615h-.659l-1.314.33h-.984l-1.314.328h-.985l-.984.33c-1.644 0-3.283-.988-3.613-2.63-.33-1.972.984-3.615 2.628-3.615l.985-.33h1.313l.985-.327h1.314l1.31-.328h.659zm-25.288 4.599c1.644-.33 3.283.658 3.613 2.3.659 1.642-.33 3.615-1.969 3.944h-.33l-1.314.328-.985.328-1.314.33-.984.328-.989.33h-.325c-1.644.328-3.283-.33-3.942-2.3-.33-1.645.659-3.287 2.298-3.944l1.314-.328.984-.329 1.314-.328.985-.33h1.318l.326-.329zm-24.629 8.215c1.639-.658 3.608 0 4.267 1.645.659 1.642-.33 3.614-1.969 4.27h-.329l-1.314.658-.984.33-.989.327-.98.658-.989.33c-1.639.657-3.613 0-4.267-1.645-.66-1.643 0-3.285 1.639-4.273l.989-.328.979-.327 1.318-.658.985-.33.984-.328.66-.329zm-22.994 11.173c1.319-.987 3.288-.33 4.272 1.315.655 1.313.325 3.285-1.314 4.27l-.33.33-.985.328-.984.657-.984.657-.985.658-.988.33c-1.64.985-3.608.655-4.268-.988-.984-1.314-.66-3.285.984-4.272l.984-.657.989-.657.979-.328.989-.657.985-.657.656-.329zm-21.675 14.129c1.644-.985 3.618-.657 4.597.657.989 1.315.66 3.287-.655 4.603h-.325l-.989.984-.984.658-.655.657-.989.658-.98.657c-1.318 1.315-3.287.986-4.271-.329-1.314-1.315-.984-3.285.325-4.6l.989-.657.984-.658.985-.985.659-.658.98-.658.329-.329zm-19.377 17.089c1.319-1.315 3.288-1.315 4.597 0 1.318 1.314 1.318 3.287 0 4.271l-.325.328-.655.658-.659.987-.985.658-.654.985-.66.658-.33.328c-1.31 1.314-3.283 1.314-4.597.33-1.314-1.315-1.314-3.287 0-4.603v-.328l.984-.984.655-.658.989-.987.659-.658.981-.985zm-16.748 19.388c.989-1.314 2.958-1.642 4.272-.658 1.314.986 1.644 2.958.655 4.273l-.655.984-.655.988-.659.984-.659.658-.655.985-.325.658c-.989 1.315-2.958 1.645-4.601.658-1.314-.985-1.644-2.958-.655-4.6l.33-.33.654-.985.655-.985.659-.987.654-.657.985-.986zm-14.451 21.361c.989-1.646 2.958-1.973 4.272-1.315 1.644.984 2.298 2.957 1.314 4.271l-.659.985-.33.985-.654.988-.655.984-.33.987-.33.655c-.984 1.645-2.958 2.302-4.267 1.315-1.644-.657-2.299-2.628-1.314-4.272l.325-.657.33-.985.659-.985.654-.987.655-.985.33-.984zm-11.163 23.003c.655-1.645 2.299-2.302 3.938-1.645 1.644.658 2.628 2.63 1.969 4.272l-.326.657-.654 1.315-.33.985-.33.988-.659.984v.658c-.654 1.643-2.624 2.629-4.267 1.972-1.639-.657-2.299-2.3-1.639-3.944v-.657l.654-1.313.326-.987.33-.985.659-1.315.329-.985zm-8.213 24.645c.33-1.645 2.298-2.629 3.942-2.3 1.644.328 2.627 1.97 2.298 3.942l-.325 1.315-.33.984-.33.987-.33 1.311v.989l-.33.33c-.325 1.64-1.969 2.955-3.608 2.3-1.644-.33-2.958-1.97-2.298-3.619v-.326l.325-1.314v-.986l.33-1.314.326-.985.33-1.314zm-4.597 25.303c0-1.645 1.644-2.955 3.288-2.955 1.968.326 2.953 1.971 2.953 3.611l-.326.989v2.3l-.33 1.31V237.596c-.33 1.645-1.644 2.96-3.617 2.96-1.639-.33-2.953-1.645-2.624-3.614V235.298l.325-1.315v-2.3l.331-.986zm-1.31 25.633c-.33-1.645 1.31-3.29 2.954-3.29 1.644 0 3.283 1.32 3.283 3.29V262.573c.329 1.64-.985 3.284-2.958 3.284-1.639 0-3.279-1.314-3.279-2.959v-6.568zm1.969 25.628c-.33-1.641.985-3.285 2.628-3.609 1.639 0 3.283.983 3.607 2.624v1.315l.33 1.314v.985l.33 1.314.33.985v.33c.33 1.645-.989 3.284-2.628 3.613-1.644.332-3.287-.654-3.612-2.299v-.654l-.33-.99-.326-1.311v-.989l-.33-1.314v-1.314h.001zm5.256 25.308c-.33-1.645.655-3.615 2.299-3.944 1.639-.659 3.279.329 3.938 2.3v.654l.329.99.33.984.33 1.315.326.984.33.985c.655 1.645-.33 3.285-1.973 3.944-1.639.326-3.283-.33-3.938-1.975l-.33-.984-.33-1.315-.33-.985-.325-1.314-.33-.985-.326-.654zm8.865 24.313c-.66-1.641 0-3.615 1.639-4.27 1.644-.656 3.287 0 3.946 1.645l.655.654.325 1.315.33.985.659.984.33.99.325.655c.985 1.645.33 3.613-1.313 4.27-1.64.659-3.613 0-4.267-1.641l-.33-.66-.659-.983-.325-.985-.655-1.315-.33-.984-.33-.66zm11.821 22.677c-.984-1.315-.329-3.289.989-4.273 1.64-.985 3.608-.655 4.598.984l.329.661.651.983.659.985.33.984.659.99.655.654c.984 1.646.325 3.616-.985 4.275-1.644.985-3.617.655-4.272-.659l-.654-.985-.659-.985-.655-.989-.655-.985-.33-.984-.66-.656zm14.78 21.029c-.984-1.315-.984-3.285.659-4.27 1.31-1.315 3.279-.985 4.267.325l.66.659.655.656.655.988.659.985.655.655.654.985c1.319 1.315.989 3.289-.325 4.274-1.314 1.313-3.283.984-4.271-.331l-.655-.654-.984-.985-.659-.988-.655-.656-.655-.984-.66-.659zm17.408 19.059c-.989-1.311-1.319-3.284 0-4.6 1.31-1.315 3.283-1.315 4.597 0l.33.329.655.656.985.659.659.985.98.659.659.655h.33c1.314 1.315 1.314 3.284.33 4.6a3.516 3.516 0 0 1-4.597.329h-.33l-.659-.984-.984-.66-.655-.984-.989-.655-.985-.66-.326-.329zm20.032 16.432c-1.314-.984-1.644-2.96-.654-4.6.979-1.314 2.953-1.645 4.267-.658h.33l.655.658.984.655.989.66.979.655.989.66.33.324c1.31.985 1.639 2.96.655 4.274-.985 1.641-2.953 1.971-4.272.985l-.325-.33-.984-.655-.989-.659-.98-.655-.988-.66-.986-.654zm21.675 13.475c-1.314-.66-1.973-2.629-1.314-4.273.984-1.641 2.958-1.972 4.267-1.315h.33l.989.659.98.656.989.329.984.655.984.329.33.331c1.639.653 2.299 2.629 1.639 4.269-.98 1.645-2.628 2.301-4.267 1.314h-.659l-.98-.654-.989-.66-.984-.324-.985-.66-1.314-.656zm23.648 10.844c-1.644-.66-2.628-2.63-1.973-4.274.655-1.641 2.299-2.3 3.942-1.97l.33.329.98.325.988.331 1.314.329.984.33.985.325.329.329c1.644.656 2.624 2.301 1.969 3.945-.325 1.64-2.298 2.63-3.942 1.971h-.325l-.985-.331-1.318-.654-.98-.33-.989-.329-1.309-.326zm24.629 7.228c-1.644-.329-2.953-1.974-2.298-3.613.325-1.976 1.969-2.96 3.612-2.63l.66.33h.98l1.318.324.98.331 1.319.329h.98c1.648.33 2.628 1.97 2.303 3.614-.33 1.971-1.974 2.955-3.612 2.63l-.989-.329h-1.31l-.989-.33-1.31-.326-.989-.33h-.655zm25.288 3.942c-1.639 0-2.958-1.641-2.958-3.285.33-1.641 1.973-2.954 3.617-2.954h1.309l1.318.324h3.609c1.644.329 2.958 1.645 2.958 3.614 0 1.645-1.644 2.96-3.287 2.96l-1.31-.329h-3.616l-1.31-.33h-.33zm25.947.659c-1.973 0-3.287-1.315-3.287-2.96-.325-1.641.984-3.285 2.958-3.285h1.639l1.313-.329H244.343c1.639-.324 3.283.989 3.283 2.96 0 1.645-1.314 3.285-2.958 3.285H242.699l-1.313.329H238.432zm25.613-2.63c-1.969.33-3.613-.984-3.938-2.63-.329-1.639.984-3.285 2.624-3.614l.659-.325h.984l1.314-.33h.984l.984-.329 1.313-.331c1.645-.324 3.288.66 3.613 2.63.329 1.645-.654 3.289-2.299 3.615l-1.314.33h-.983l-1.314.329-.984.325h-1.314l-.329.33zm24.962-6.244c-1.644.66-3.611-.325-3.941-1.97-.66-1.646.33-3.615 1.968-3.944l.985-.33.988-.325.984-.66 1.314-.325.984-.33h.655c1.644-.66 3.287 0 3.942 1.641.659 1.645-.33 3.615-1.97 4.274h-.659l-.984.654-1.313.331-.985.329-.984.33-.984.325zm23.974-9.529c-1.644.984-3.613 0-4.272-1.315-.984-1.639-.325-3.614 1.314-4.27l.984-.66 1.314-.324.988-.66.984-.329.984-.655.33-.329c1.639-.656 3.612 0 4.267 1.645.984 1.313.33 3.284-1.313 4.269h-.33l-1.309.66-.99.654-.984.33-.983.656-.984.328zm22.33-12.485c-1.313.985-3.283.656-4.268-.989-.983-1.314-.659-3.285.655-4.271l.984-.659.989-.654.984-.655.984-.66.984-.655.33-.329c1.644-.986 3.612-.66 4.597.984.983 1.315.659 3.284-.984 4.27l-.329.33-.985.659-.984.655-.984.659-.984.656-.989.659zm20.691-15.448c-1.313.989-3.283.989-4.598-.326-.984-1.313-.984-3.289.33-4.604l.655-.325.984-.989.659-.655.984-.655.655-.659.659-.655c1.313-1.315 3.282-1.315 4.596 0 1.314 1.314.985 3.285-.329 4.599l-.655.655-.659.66-.984.984-.983.656-.655.659-.659.655zm18.392-18.073c-1.314 1.314-3.282 1.314-4.597.329-1.313-1.314-1.313-3.284-.329-4.599l.655-.33.659-.985.653-.659.66-.985.983-.655.655-.985c.99-1.315 2.958-1.645 4.272-.329 1.313.985 1.644 2.955.329 4.271l-.659.988-.655.985-.659.654-.984.985-.653.99-.33.325zm15.764-20.373c-.985 1.645-2.958 1.969-4.272.985-1.639-.985-1.968-2.956-.983-4.271l.33-.659.653-.656.331-.984.659-.985.653-.99.655-.984c.988-1.64 2.958-1.969 4.602-.985 1.314.656 1.64 2.63.984 4.271h-.329l-.655.989-.329.985-.655.985-.659.984-.655.985-.33.33zm13.136-22.019c-.983 1.314-2.958 1.975-4.267 1.314-1.644-.655-2.303-2.629-1.644-4.27l.329-.33.325-.984.659-.985.33-.984.654-.99.33-.984v-.33c.984-1.641 2.628-2.3 4.267-1.641 1.644.656 2.299 2.63 1.644 4.271v.33l-.659.985-.325.983-.659.99-.329 1.311-.655.988v.326zm9.853-23.987c-.659 1.645-2.299 2.63-3.942 1.974-1.969-.329-2.628-2.304-2.299-3.944l.33-.33.325-.984.33-1.315.329-.985.33-.984.325-1.315c.659-1.645 2.299-2.629 3.942-1.975 1.644.33 2.628 2.3 2.299 3.944l-.331.985-.324 1.315-.659.984-.325 1.315-.33.985v.33zm6.566-24.644c-.325 1.64-1.969 2.624-3.612 2.3-1.639-.331-2.953-1.976-2.623-3.615l.325-.99v-.983l.329-1.315.33-.985v-1.969c.324-1.645 1.968-2.96 3.611-2.63 1.97.33 2.954 1.971 2.629 3.615v1.97l-.33.99-.329 1.309v1.315l-.33.988zm3.288-25.634c0 1.641-1.645 2.956-3.288 2.956-1.64 0-3.283-1.641-2.952-3.285v-4.598l.329-.985v-.659c0-1.641 1.314-3.285 2.953-3.285 1.969.33 3.283 1.645 3.283 3.285V262.575l-.325 1.311v1.972zm0-25.631c0 1.645-1.314 2.955-2.958 3.285-1.97 0-3.282-1.311-3.613-2.955v-3.614l-.329-.99V234.313c-.324-1.64.989-3.289 2.628-3.615 1.974 0 3.283 1.315 3.613 2.956v1.645l.329 1.314v2.299l.33 1.315zm-3.613-25.634c.325 1.645-.659 3.29-2.298 3.615-1.973.33-3.612-.655-3.942-2.3v-.984l-.329-.985-.33-1.315-.325-.989-.329-1.311v-.658c-.33-1.645.654-3.287 2.298-3.614 1.645-.658 3.282.658 3.941 2.3v.656l.331.986.324 1.314.33 1.315v.985l.329.985zm-6.9-24.972c.659 1.643-.325 3.615-1.969 4.272-1.644.327-3.283-.331-3.942-1.973v-.328l-.655-.987-.329-.985-.33-1.315-.325-.984-.329-.988-.33-.328c-.655-1.643.33-3.615 1.974-3.945 1.64-.657 3.283 0 3.938 1.645l.33.328.329.987.326 1.313.329.988.659.984.324 1.316zm-10.177-23.661c.983 1.643.329 3.615-1.314 4.272-1.644.984-3.612.327-4.271-1.315v-.328l-.655-.987-.655-.985-.329-.985-.659-.987-.325-.984-.33-.331c-.659-1.312-.329-3.285 1.314-4.272 1.313-.655 3.283-.328 4.268 1.315v.33l.659.985.655.985.329.988.654.984.659 1.315zm-13.138-22.016c.985 1.313.655 3.285-.658 4.27-1.639.988-3.612.658-4.597-.655l-.655-.987-.659-.985-.655-.988-.658-.985-.655-.658-.33-.327c-.984-1.646-.654-3.615.655-4.603 1.314-.985 3.287-.657 4.602.658v.33l.655.985.983.984.66.988.654.984.658.989zm-16.094-20.046c1.314 1.313 1.314 3.285 0 4.272-1.313 1.313-3.282 1.313-4.596 0l-.659-.988-.984-.658-.655-.984-.659-.658-.984-.985-.33-.33c-1.313-1.315-1.313-3.285 0-4.6 1.314-1.315 3.288-.987 4.602 0l.325.657.985.658.659.984.984.985.659.658.653.989zm-18.391-18.073c1.313 1.312 1.313 3.285.329 4.6s-3.283 1.315-4.598.328l-.659-.655-.654-.658-.985-.658-.988-.657-.655-.658-.653-.657c-1.644-.985-1.644-2.958-.66-4.272.984-1.643 2.957-1.643 4.597-.658l.659.658.984.658.655.657.989.658.984.984.655.33zm-20.691-15.116c1.313.984 1.644 2.957.988 4.27-.988 1.645-2.958 1.973-4.602.988l-.324-.33-.989-.658-.984-.655-.984-.33-.984-.658-.984-.657c-1.314-.657-1.974-2.627-.984-4.272.654-1.643 2.624-1.97 4.268-.985l.983.328.984.657.99.657.983.658.984.658.655.329zM311.338 78.22c1.644.657 2.299 2.629 1.644 4.272-.984 1.642-2.628 2.3-4.272 1.642l-.654-.328-.985-.327-.988-.657-.984-.33-1.314-.658-.984-.327c-1.314-.658-2.299-2.63-1.639-4.272.654-1.314 2.623-2.3 4.267-1.642l.985.658.984.327 1.313.658.989.328.984.33.654.326zm-23.975-9.199c1.644.654 2.628 2.299 1.969 3.942-.325 1.643-2.299 2.63-3.937 2.3l-.659-.328-1.314-.329-.984-.328-.984-.33-1.314-.328-.655-.33c-1.644-.328-2.628-1.971-2.303-3.942.33-1.643 2.303-2.629 3.942-1.972h.659l1.314.329.984.328 1.314.33.983.328.985.33zm-25.287-5.917c1.969.33 2.953 1.973 2.628 3.615-.33 1.645-1.974 2.957-3.613 2.629l-1.313-.327h-1.314l-.984-.33h-1.314l-.984-.328c-1.974 0-3.287-1.645-2.958-3.287.331-1.973 1.974-3.285 3.613-2.957l1.313.327h1.314l.984.33h1.314l1.314.328z"/><path fill="#E6E6E6" d="M147.789 29.586h161.58c22.659 0 41.052 18.401 41.052 41.077v371.001c0 22.349-18.393 40.752-41.052 40.752h-161.58c-22.334 0-40.722-18.403-40.722-40.752V70.663c-.001-22.676 18.388-41.077 40.722-41.077z"/><path fill="#3C4250" d="M147.789 26.629h161.58c12.151 0 23.314 4.93 31.199 12.813 7.88 7.887 12.807 19.062 12.807 31.22v371.001c0 11.829-4.927 23.004-12.807 30.893-7.885 7.886-19.048 12.814-31.199 12.814h-161.58c-11.822 0-22.994-4.929-30.874-12.814-7.88-7.889-12.806-19.063-12.806-30.893v-371c0-12.159 4.926-23.333 12.806-31.22 7.88-7.884 19.052-12.814 30.874-12.814zm161.579 5.915h-161.58c-10.183 0-19.706 4.272-26.602 11.172-6.896 6.901-11.167 16.431-11.167 26.947v371.001c0 10.189 4.272 19.719 11.167 26.618 6.896 6.903 16.419 11.174 26.602 11.174h161.58c10.508 0 20.031-4.271 26.932-11.174 6.896-6.899 11.163-16.429 11.163-26.618V70.663c0-10.516-4.268-20.046-11.163-26.947-6.901-6.9-16.424-11.172-26.932-11.172z"/><path fill="#4E5A62" d="M151.397 56.862h154.684c15.438 0 28.245 12.813 28.245 28.26v317.766c0 15.449-12.807 28.262-28.245 28.262H151.397c-15.43 0-28.241-12.813-28.241-28.262V85.122c0-15.447 12.811-28.26 28.241-28.26z"/><path fill="#CCC" d="M128.412 442.979h28.9c2.958 0 5.256 2.3 5.256 5.26 0 2.954-2.298 5.254-5.256 5.254h-28.9c-2.958 0-5.256-2.3-5.256-5.254 0-2.96 2.299-5.26 5.256-5.26z"/><path fill="#7F8C8D" d="M216.097 442.979h31.858c4.598 0 8.209 3.615 8.209 8.214 0 4.604-3.612 8.22-8.209 8.22h-31.858c-4.597 0-8.209-3.615-8.209-8.22 0-4.598 3.612-8.214 8.209-8.214z"/><path fill="#CCC" d="M300.17 442.979h28.9c2.957 0 5.256 2.3 5.256 5.26 0 2.954-2.299 5.254-5.256 5.254h-28.9c-2.953 0-5.252-2.3-5.252-5.254 0-2.96 2.299-5.26 5.252-5.26z"/><path fill="#FEFEFE" d="M186.867 37.144h83.748c2.953 0 5.256 2.299 5.256 5.259 0 2.958-2.303 5.257-5.256 5.257h-83.748c-2.953 0-5.252-2.299-5.252-5.257 0-2.96 2.299-5.259 5.252-5.259z"/><path fill="#CCC" d="M217.411 444.624h29.229c4.269 0 7.556 2.956 7.556 6.569 0 3.615-3.287 6.574-7.556 6.574h-29.229c-4.267 0-7.555-2.959-7.555-6.574 0-3.613 3.288-6.569 7.555-6.569z"/><path fill="#848688" d="M82.104 372.656h291.599v20.547H82.104z"/><path fill="#FFCC29" d="M82.104 372.656h160.251v20.547H82.104z"/><ellipse fill="#E6E7E8" cx="250.909" cy="383.174" rx="16.748" ry="16.758"/><circle fill="#D3D5D6" cx="250.909" cy="383.172" r="11.501"/><path fill="#E6E7E8" d="M189.496 143.944c2.298.328 3.942.985 5.911 1.643l4.927-8.217 10.182 5.917-4.597 8.214a30.565 30.565 0 0 1 4.597 4.599l8.209-4.599 5.582 10.517-7.879 4.27c.984 1.972 1.313 3.945 1.644 6.245h9.194l-.33 11.831h-8.54c-.325 1.97-.984 4.272-1.644 6.243l7.225 4.271-6.236 10.187-6.895-4.272c-1.644 1.973-2.958 3.287-4.927 4.93l3.938 7.231-10.183 5.585-3.938-6.904c-1.968.659-3.942 1.319-6.24 1.649v7.885h-11.822v-7.885c-2.298-.33-4.271-.99-6.57-1.975l-3.938 7.229-10.182-6.245 3.942-6.899c-1.644-1.645-3.612-3.287-4.926-5.26l-7.225 3.945-5.911-10.186 7.555-4.272c-.659-1.973-1.319-4.272-1.644-6.244l-8.54-.328.33-11.832h8.864c.33-1.969.989-3.942 1.644-5.914l-7.555-4.6 5.911-10.187 8.214 4.6c1.31-1.315 2.628-2.63 4.267-3.943l-4.597-8.217 10.508-5.914 4.597 8.214c1.644-.328 3.613-.985 5.256-1.313v-9.532h11.822v9.533z"/><ellipse fill="#D2D3D5" cx="183.584" cy="177.79" rx="18.063" ry="18.074"/><ellipse fill="#BDBFC1" cx="183.584" cy="177.791" rx="14.121" ry="14.13"/><path fill="#E6E7E8" d="M204.601 92.021c.989 0 1.973.33 2.958.657l2.298-4.272 5.256 3.287-2.298 3.943c.984.657 1.639 1.645 2.298 2.302l4.268-2.302 2.958 5.587-3.942 1.973c.33.985.655 2.299.655 3.287h4.602v5.914h-4.602c0 1.315-.326 2.3-.655 3.285l3.612 2.3-2.957 5.259-3.608-2.299c-.989.985-1.644 1.642-2.628 2.299l2.298 3.615-5.586 2.957-1.968-3.614c-.985.657-1.969.657-2.958.984v3.945h-5.907v-3.945c-1.318-.327-2.298-.658-3.617-.984l-1.968 3.614-5.257-2.957 2.299-3.615c-.98-.987-1.969-1.645-2.628-2.629l-3.608 1.972-2.958-5.257 3.613-2.302c-.325-.985-.655-1.97-.655-2.957l-4.597-.328.325-5.915h4.602c0-.987.325-1.973.655-2.958l-3.942-2.302 3.288-5.257 3.938 2.3c.659-.658 1.644-1.315 2.299-1.973l-2.299-4.272 5.257-2.957 2.298 4.272c.985-.328 1.969-.657 2.958-.657v-4.927h5.907v4.927z"/><circle fill="#D2D3D5" cx="201.647" cy="109.11" r="9.202"/><circle fill="#BDBFC1" cx="201.647" cy="109.11" r="7.229"/><path fill="#FEFEFE" d="M243.354 145.257h265.363v199.141H243.354z"/><path fill="#F5534E" d="M255.835 159.388h111.004v83.138H255.835z"/><path fill="#3C4250" d="M243.354 141.972h265.688c1.644 0 2.958 1.315 2.958 3.285v199.141a2.944 2.944 0 0 1-2.958 2.955H243.354c-1.639 0-3.283-1.314-3.283-2.955V145.257c0-1.97 1.643-3.285 3.283-3.285zm262.405 6.242H246.641v192.898h259.118V148.214z"/><path fill="#D2D3D5" d="M259.447 257.97h233.176v70.984H259.447z"/><path fill="#D2D3D5" d="M390.158 164.975h97.16c3.813 0 6.899 3.06 6.899 6.837 0 3.778-3.086 6.84-6.899 6.84h-97.16c-3.809 0-6.896-3.062-6.896-6.84.001-3.777 3.088-6.837 6.896-6.837z"/><path fill="#D2D3D5" d="M390.158 184.363h97.16c3.813 0 6.899 3.06 6.899 6.838 0 3.777-3.086 6.839-6.899 6.839h-97.16c-3.809 0-6.896-3.062-6.896-6.839.001-3.778 3.088-6.838 6.896-6.838z"/><path fill="#D2D3D5" d="M390.158 204.079h97.16c3.813 0 6.899 3.062 6.899 6.837v.005c0 3.77-3.086 6.836-6.899 6.836h-97.16c-3.809 0-6.896-3.066-6.896-6.836v-.005c.001-3.775 3.088-6.837 6.896-6.837z"/><path fill="#D2D3D5" d="M390.158 223.467h97.16c3.813 0 6.899 3.062 6.899 6.837s-3.086 6.842-6.899 6.842h-97.16c-3.809 0-6.896-3.066-6.896-6.842.001-3.775 3.088-6.837 6.896-6.837z"/><path fill="#3C4250" d="M250.909 363.786c3.287 0 5.911.985 8.538 1.969 2.299 1.315 4.272 2.96 5.912 4.601h108.375c1.314 0 2.303.985 2.303 2.301v20.701c0 1.315-.988 2.301-2.303 2.301H265.359c-1.64 1.975-3.613 3.29-5.912 4.604-2.627 1.315-5.251 1.972-8.538 1.972-2.954 0-5.912-.656-8.21-1.972-2.298-1.313-4.267-2.629-5.911-4.604H82.104c-1.314 0-2.299-.985-2.299-2.301v-20.701c0-1.315.985-2.301 2.299-2.301h154.684c1.644-1.641 3.613-3.285 5.911-4.601 2.298-.984 5.256-1.969 8.21-1.969zm6.57 6.244c-1.973-.99-4.272-1.645-6.569-1.645-2.299 0-4.269.654-6.241 1.645-1.969.985-3.613 2.299-4.926 3.939-.655.66-1.31.99-1.97.99H84.402v16.1h153.37c.66 0 1.314.329 1.644.984 1.314 1.645 3.283 2.96 5.252 3.944 1.973.984 3.942 1.645 6.241 1.645 2.297 0 4.596-.66 6.569-1.645 1.969-.984 3.612-2.3 4.927-3.944.325-.655 1.314-.984 1.969-.984h107.062v-16.1H264.374c-.654 0-1.313-.33-1.969-.659-1.314-1.971-2.958-3.284-4.926-4.27z"/><path fill="#F5534E" d="M48.277 266.844c23.399 0 42.366 18.979 42.366 42.392s-18.967 42.393-42.366 42.393c-23.395 0-42.366-18.979-42.366-42.393s18.971-42.392 42.366-42.392z"/><path fill="#FEFEFE" d="M48.277 294.447c2.958-5.915 5.912-8.87 11.822-8.87 6.57 0 11.822 5.586 11.822 11.828 0 11.83-11.822 23.659-23.644 35.488-11.822-11.829-23.644-23.658-23.644-35.488 0-6.242 5.582-11.828 11.822-11.828 5.911 0 8.864 2.955 11.822 8.87z"/><ellipse fill="#F5534E" cx="44.665" cy="166.946" rx="42.366" ry="42.39"/><path fill="#3C4250" d="M44.665 122.254c12.151 0 23.319 4.929 31.198 13.146C84.073 143.287 89 154.458 89 166.945c0 12.159-4.927 23.333-13.137 31.219-7.879 8.215-19.047 13.144-31.198 13.144-12.477 0-23.648-4.929-31.528-13.144C4.926 190.278 0 179.104 0 166.945c0-12.487 4.926-23.658 13.136-31.545 7.88-8.217 19.052-13.146 31.529-13.146zm28.574 15.773c-7.555-7.229-17.407-11.829-28.575-11.829-11.497 0-21.35 4.599-28.9 11.829-7.225 7.56-11.822 17.416-11.822 28.918 0 11.174 4.597 21.033 11.822 28.59 7.55 7.229 17.403 11.829 28.9 11.829 11.167 0 21.02-4.599 28.575-11.829a40.502 40.502 0 0 0 11.822-28.59c.001-11.502-4.597-21.358-11.822-28.918z"/><path fill="#FEFEFE" d="M35.466 175.489c3.287 0 6.245.987 8.213 2.3v-.985l.659-35.162s15.76 10.187 19.373 16.104c3.613 5.915.33 13.144.33 13.144s.326-1.973-1.314-8.217c-1.969-6.242-14.78-12.814-14.78-12.814l-.33 33.518-.325.33c0 1.643-.655 2.958-1.644 4.272l-.33.657v-.33c-1.968 2.3-5.581 3.945-9.853 3.945-6.566 0-11.822-3.945-11.822-8.544.001-4.603 5.257-8.218 11.823-8.218z"/><path fill="#3C4250" d="M48.277 264.874c12.481 0 23.644 4.929 31.528 13.144 8.21 7.885 13.136 19.059 13.136 31.218 0 12.489-5.252 23.658-13.136 31.547-7.884 8.215-19.047 13.145-31.528 13.145-12.151 0-23.314-4.93-31.199-13.145-8.214-7.889-13.136-19.058-13.136-31.547 0-12.159 4.922-23.333 13.136-31.218 7.884-8.215 19.047-13.144 31.199-13.144zm28.9 15.773c-7.555-7.229-17.408-11.833-28.9-11.833-11.163 0-21.345 4.604-28.57 11.833-7.225 7.556-11.822 17.414-11.822 28.588 0 11.499 4.597 21.359 11.822 28.917 7.225 7.23 17.407 11.83 28.57 11.83 11.492 0 21.346-4.6 28.9-11.83C84.402 330.595 89 320.734 89 309.235c0-11.173-4.598-21.032-11.823-28.588z"/><ellipse fill="#F5534E" cx="177.673" cy="309.236" rx="42.366" ry="42.392"/><path fill="#FEFEFE" d="M142.533 317.45c0-9.53 7.555-17.414 17.078-17.744 2.958-5.914 9.194-10.188 16.089-10.188 6.9 0 13.14 3.942 15.769 9.858 2.299-1.315 4.267-1.645 6.896-1.645 7.88 0 14.45 6.574 14.45 14.458 0 1.975-.33 3.615-.989 5.26h-69.293z"/><path fill="#3C4250" d="M177.673 264.874c12.477 0 23.319 4.929 31.529 13.144 7.879 7.885 12.806 19.059 12.806 31.218 0 12.489-4.926 23.658-12.806 31.547-8.21 8.215-19.052 13.145-31.529 13.145-12.152 0-23.319-4.93-31.203-13.145-8.205-7.889-13.132-19.058-13.132-31.547 0-12.159 4.927-23.333 13.132-31.218 7.884-8.215 19.051-13.144 31.203-13.144zm28.571 15.773c-7.225-7.229-17.404-11.833-28.571-11.833s-21.35 4.604-28.575 11.833c-7.225 7.556-11.822 17.414-11.822 28.588 0 11.499 4.597 21.359 11.822 28.917 7.225 7.23 17.408 11.83 28.575 11.83s21.346-4.6 28.571-11.83c7.555-7.558 12.151-17.418 12.151-28.917.001-11.173-4.596-21.032-12.151-28.588z"/><path fill="#3C4250" d="M5.586 78.877h152.71c1.644 0 3.283 1.314 3.283 3.287v18.073c0 1.643-1.64 3.285-3.283 3.285H5.586c-1.644 0-3.287-1.643-3.287-3.285V82.165c0-1.973 1.643-3.288 3.287-3.288z"/><path fill="#FEFEFE" d="M5.586 82.165h152.733v18.083H5.586z"/><path fill="#3C4250" d="M5.586 51.602h152.71c1.644 0 3.283 1.315 3.283 2.958v18.076c0 1.971-1.64 3.285-3.283 3.285H5.586c-1.644 0-3.287-1.314-3.287-3.285V54.56c0-1.643 1.643-2.958 3.287-2.958z"/><path fill="#FEFEFE" d="M5.586 54.56h152.733v18.084H5.586z"/><path fill="#3C4250" d="M15.109 59.489a3.942 3.942 0 0 1 3.938 3.944 3.941 3.941 0 0 1-3.938 3.943 3.943 3.943 0 1 1 0-7.887z"/><path fill="#3C4250" d="M27.261 59.489a3.943 3.943 0 0 1 3.938 3.944 3.941 3.941 0 1 1-7.885 0 3.947 3.947 0 0 1 3.947-3.944z"/><path fill="#3C4250" d="M39.413 59.489a3.942 3.942 0 0 1 3.938 3.944 3.941 3.941 0 1 1-7.884 0 3.945 3.945 0 0 1 3.946-3.944z"/><path fill="#3C4250" d="M51.564 59.489a3.942 3.942 0 0 1 3.938 3.944 3.941 3.941 0 1 1-7.884 0 3.943 3.943 0 0 1 3.946-3.944z"/><path fill="#3C4250" d="M63.387 59.489a3.943 3.943 0 0 1 3.938 3.944 3.941 3.941 0 0 1-3.938 3.943 3.942 3.942 0 0 1-3.942-3.943 3.942 3.942 0 0 1 3.942-3.944z"/><path fill="#3C4250" d="M75.538 59.489a3.942 3.942 0 0 1 3.938 3.944 3.941 3.941 0 1 1-7.884 0 3.947 3.947 0 0 1 3.946-3.944z"/><path fill="#3C4250" d="M15.109 86.437a3.94 3.94 0 0 1 3.938 3.943 3.942 3.942 0 0 1-3.938 3.944 3.944 3.944 0 0 1 0-7.887z"/><path fill="#3C4250" d="M27.261 86.437a3.941 3.941 0 0 1 3.938 3.943 3.942 3.942 0 1 1-3.938-3.943z"/><path fill="#3C4250" d="M39.413 86.437a3.94 3.94 0 0 1 3.938 3.943 3.942 3.942 0 0 1-3.938 3.944 3.943 3.943 0 1 1 0-7.887z"/></g><metadata><rdf:RDF xmlns:rdf="http://www.w3.org/1999/02/22-rdf-syntax-ns#" xmlns:rdfs="http://www.w3.org/2000/01/rdf-schema#" xmlns:dc="http://purl.org/dc/elements/1.1/"><rdf:Description about="https://iconscout.com/legal#licenses" dc:title="apps,development" dc:description="apps,development" dc:publisher="Iconscout" dc:date="2017-09-22" dc:format="image/svg+xml" dc:language="en"><dc:creator><rdf:Bag><rdf:li>Graphiqa Stock</rdf:li></rdf:Bag></dc:creator></rdf:Description></rdf:RDF></metadata></svg>