<?xml version="1.0" encoding="UTF-8"?><!DOCTYPE svg PUBLIC "-//W3C//DTD SVG 1.1//EN" "http://www.w3.org/Graphics/SVG/1.1/DTD/svg11.dtd"><svg xmlns="http://www.w3.org/2000/svg" xmlns:xlink="http://www.w3.org/1999/xlink" version="1.1" id="Brain_Storm" x="0px" y="0px" width="512px" height="512px" viewBox="0 0 512 512" xml:space="preserve"><path id="Background" fill="#9C9" d="M256 0c141.355 0 256 114.645 256 256S397.355 512 256 512 0 397.355 0 256 114.645 0 256 0z"/><g id="Brain_Storm_1_"><path fill="#4E5A62" d="M251.799 400.055c-1.799 9.004-6.004 17.41-12.607 23.711-8.401 8.703-19.808 13.205-31.812 13.205-6.301 0-12.306-1.201-17.707-3.603-4.502-1.799-8.402-4.201-12.004-7.201h-.301c-1.799.302-3.301.302-4.799.302-8.703 0-17.108-3.306-23.113-9.606-5.699-5.402-9.004-12.904-9.603-20.707-8.703-2.101-16.506-6.603-22.506-13.205-7.506-8.402-12.008-19.21-12.008-30.611 0-1.804.301-3.903.603-6.004v-.302a50.035 50.035 0 0 1-16.808-16.803c-5.101-8.406-8.104-18.009-8.104-27.912 0-8.104 2.101-16.205 5.707-23.41 2.397-4.804 5.397-9.302 9.301-13.205-2.101-2.699-3.603-5.402-5.101-8.104-2.401-5.402-3.603-11.101-3.603-17.105 0-9.004 2.699-17.41 8.402-24.611 3.904-5.101 9.004-9.303 15.008-12.004-.301-2.101-.301-3.902-.301-6.002 0-9.004 3-17.707 8.402-24.609 4.502-6.002 10.506-10.504 17.406-12.906 1.803-8.404 6.004-15.606 12.31-21.308 7.201-6.603 16.201-10.504 26.109-10.805 3.599-5.101 8.101-9.603 13.506-12.904a43.235 43.235 0 0 1 22.506-6.303c11.402 0 22.506 4.502 30.615 12.604 4.799 4.803 8.402 10.504 10.502 16.506 2.1-6.002 5.402-11.703 10.205-16.506 8.101-8.103 19.205-12.604 30.611-12.604 7.803 0 15.606 2.1 22.506 6.303 5.406 3.301 9.904 7.803 13.507 12.904 9.903.301 18.907 4.203 26.41 10.805 6.004 5.701 10.204 12.904 12.004 21.308 6.903 2.402 12.908 6.904 17.41 12.906 5.401 6.902 8.401 15.605 8.401 24.609 0 2.101 0 3.902-.301 6.002 6.004 2.701 11.104 6.903 15.008 12.004 5.699 7.201 8.401 15.607 8.401 24.611 0 6.004-1.2 11.703-3.603 17.105-1.497 2.702-3 5.405-5.1 8.104 3.899 3.903 6.903 8.401 9.603 13.205 3.603 7.205 5.401 15.306 5.401 23.41 0 9.903-2.699 19.506-8.101 27.912a50.035 50.035 0 0 1-16.808 16.803v.302c.302 2.101.599 4.2.599 6.004 0 11.401-4.201 22.209-12.004 30.611-6 6.603-13.804 11.104-22.507 13.205-.603 7.803-3.903 15.305-9.606 20.707-6 6.301-14.406 9.606-23.108 9.606-1.498 0-3 0-4.503-.302h-.598c-3.603 3-7.503 5.402-11.703 7.201-5.703 2.401-11.707 3.603-17.707 3.603-12.009 0-23.712-4.502-32.113-13.205-6.601-6.301-10.806-14.707-12.304-23.711zm0-249.097c0-11.104 4.502-21.308 11.703-28.81 7.502-7.504 17.707-12.006 29.113-12.006 7.803 0 15.004 2.103 21.31 6.004 5.401 3.301 10.201 8.103 13.502 13.504h.302c9.903 0 18.907 3.902 25.51 9.904 6.302 5.703 10.502 12.906 12.004 21.308 6.904 2.402 12.904 6.904 17.406 12.607 5.104 6.603 8.104 14.705 8.104 23.408 0 2.101-.301 4.203-.603 6.002 0 .6 0 .901-.297 1.201 6.603 2.701 12.004 6.904 15.904 12.305 5.104 6.301 8.104 14.406 8.104 23.109 0 5.703-1.201 11.104-3.603 16.205-1.498 3.301-3.603 6.305-6 9.004 4.2 4.201 7.803 8.703 10.502 14.104 3.301 6.903 5.101 14.406 5.101 22.511 0 9.903-2.699 18.907-7.503 26.711-4.502 6.899-10.502 12.603-17.405 16.804 0 .603 0 1.2.301 1.803.302 2.101.302 3.899.302 5.703 0 11.104-4.205 21.306-11.104 28.812-6.005 6.603-14.109 11.402-23.41 13.205a29.751 29.751 0 0 1-8.703 21.009c-5.703 5.401-13.205 8.703-21.61 8.703-1.498 0-3 0-4.201-.302-.599 0-1.201 0-1.502-.301-3.599 3.301-7.804 6.004-12.005 7.803-5.401 2.402-11.104 3.603-16.803 3.603-12.009 0-22.812-4.803-30.314-12.606-7.803-7.804-12.606-18.606-12.606-30.31 0-6.306 1.205-12.306 3.603-17.406 1.804-4.205 4.502-8.104 7.502-11.405-1.799-3-3.301-6.005-4.502-9.306-1.498-4.502-2.397-9.302-2.397-14.104 0-6.904 1.498-13.507 4.502-19.205 2.101-4.502 5.101-8.406 8.703-11.707-2.703-3.899-5.104-7.804-6.903-12.005-2.101-5.702-3.302-12.004-3.302-18.606s1.201-13.205 3.899-19.209c1.804-4.201 4.205-8.402 6.904-12.004-3.899-3.301-7.201-7.205-9.904-11.703-3.301-5.703-5.1-12.607-5.1-20.109 0-7.203 1.799-14.104 5.402-20.109 2.101-3.6 4.799-7.203 8.101-9.904-4.498-3-8.402-6.901-11.101-11.404-4.504-6.604-6.906-14.407-6.906-22.811zm-41.117-40.816c11.402 0 21.611 4.502 29.109 12.006 7.205 7.502 12.008 17.705 12.008 28.81 0 8.404-2.703 16.207-6.904 22.81a41.222 41.222 0 0 1-11.406 11.404c3.305 2.701 6.004 6.304 8.104 9.904 3.603 6.004 5.401 12.906 5.401 20.109 0 7.502-1.799 14.406-5.1 20.109-2.703 4.498-6.004 8.401-9.904 11.703 3 3.603 5.401 7.804 7.201 12.004 2.402 6.004 3.603 12.606 3.603 19.209s-1.201 12.904-3.301 18.606c-1.803 4.201-3.904 8.105-6.904 12.005 3.603 3.301 6.603 7.205 8.707 11.707 2.996 5.698 4.498 12.301 4.498 19.205 0 4.803-.899 9.603-2.397 14.104-1.205 3.301-2.703 6.306-4.502 9.306 3 3.301 5.699 7.2 7.498 11.405 2.401 5.101 3.606 11.101 3.606 17.406 0 11.703-4.803 22.506-12.31 30.31-7.799 7.804-18.603 12.606-30.31 12.606-6 0-11.707-1.2-16.804-3.603-4.502-1.799-8.707-4.502-12.309-7.803-.301.301-.9.301-1.498.301-1.201.302-2.703.302-4.201.302-8.406 0-15.908-3.302-21.611-8.703a29.751 29.751 0 0 1-8.703-21.009c-9.301-1.803-17.109-6.603-23.109-13.205-7.205-7.506-11.406-17.707-11.406-28.812 0-1.804 0-3.603.301-5.703.301-.603.301-1.2.301-1.803-6.904-4.201-12.904-9.904-17.406-16.804-4.803-7.804-7.506-16.808-7.506-26.711 0-8.104 1.803-15.607 5.104-22.511 2.703-5.401 6.301-9.903 10.502-14.104-2.401-2.699-4.502-5.703-6-9.004-2.402-5.101-3.603-10.502-3.603-16.205 0-8.703 3-16.808 8.104-23.109 3.9-5.401 9.603-9.604 15.904-12.305-.297-.299-.297-.601-.297-1.201-.301-1.799-.603-3.902-.603-6.002 0-8.703 3.004-16.805 8.101-23.408 4.502-5.703 10.506-10.205 17.41-12.607 1.502-8.401 6.004-15.604 12.004-21.308 6.603-6.002 15.606-9.904 25.51-9.904h.297c3.305-5.401 8.108-10.203 13.506-13.504 6.307-3.9 13.512-6.003 21.315-6.003zm41.117 273.708c.598-3.603 1.498-7.201 3-10.502 1.799-3.603 4.201-7.205 6.904-10.507-1.502-2.698-3-5.401-3.904-8.104a42.811 42.811 0 0 1-2.698-15.004c0-7.201 1.799-14.104 4.799-20.109 2.104-4.2 4.502-7.803 7.804-11.104-2.397-3.598-4.502-7.2-6-11.104-2.402-6-3.603-12.603-3.603-19.205 0-6.903 1.502-13.506 4.201-20.108 1.502-3.9 3.602-7.502 6.004-10.804-3.603-3.004-6.302-6.903-8.703-10.803-3.603-6.603-5.703-13.808-5.703-21.31s2.101-14.705 5.703-21.308c1.799-3.002 4.201-6.004 6.603-8.705-3.603-2.701-6.904-6.301-9.606-10.203-2.097-3.002-3.603-6.603-4.799-9.904-1.201 3.301-3.004 6.901-5.104 9.904-2.699 3.901-6 7.502-9.603 10.203 2.699 2.701 4.803 5.703 6.602 8.705 3.603 6.603 5.703 13.806 5.703 21.308s-1.799 14.707-5.703 21.31c-2.1 3.9-5.1 7.799-8.703 10.803 2.401 3.301 4.502 6.904 6.305 10.804 2.397 6.603 3.9 13.205 3.9 20.108 0 6.603-1.201 13.205-3.603 19.205-1.502 3.904-3.603 7.507-6.004 11.104 3.306 3.302 5.707 6.904 7.808 11.104 2.996 6.005 4.799 12.908 4.799 20.109 0 5.101-.9 10.205-2.699 15.004-.904 2.703-2.101 5.406-3.904 8.104 3 3.302 5.101 6.904 6.904 10.507 1.501 3.3 2.397 6.899 3.3 10.502z"/><path fill="#4E5A62" d="M193.276 327.427c-.301 0-.599.302-.9.603-.603.297-1.201.599-2.101.297-.301 0-.301-.297-.602-.297-3 2.699-6.904 4.502-10.804 5.703h-.301c-1.498.297-3.301.598-5.1.598-17.41 0-31.511-14.104-31.511-31.51 0-7.205 2.397-14.109 6.9-19.808v-3.306c0-14.703 9.603-27.606 23.711-31.51h.301c1.799-.297 3.599-.599 5.398-.599 6.602 0 12.908 2.101 18.309 5.699 0-.301.301-.301.301-.598.9-.598 2.101-.899 3-.301 3.301-3 7.201-5.402 11.703-6.899h.301c1.498-.301 2.703-.301 4.201-.301 8.703 0 16.808 4.201 22.209 11.104 4.201-1.799 9.004-2.101 13.506-.904 6 1.502 10.803 5.703 13.506 11.104 3.301-1.196 6.899-1.498 10.502-.599 1.799.599 3.603 1.503 5.401 2.402 2.402-.302 4.804-.302 7.205.301 7.502 2.101 12.603 8.703 12.904 16.205v.302c-.302.899-.302 1.799-.603 2.698-.298 1.201-.599 2.101-1.197 3.302.298.603.298 1.2 0 1.803 1.197 1.8 1.8 3.599 1.8 5.699v.603c0 .599 0 .899-.302 1.2-.301 1.201-.599 2.101-1.2 3 .301.9.301 1.503 0 2.101.899 2.101 1.2 4.502 1.2 6.904v.301c0 .899-.301 2.101-.599 3a17.845 17.845 0 0 1-9.004 11.703c-4.201 2.703-9.603 3.302-14.707 2.101-3.899-1.201-7.502-3.599-10.205-6.899-.599 0-.899-.302-1.498-.302a20.532 20.532 0 0 1-11.104-7.502c-.301-.301-.301-.301-.603-.301-.301 0-.598 0-.899-.302-5.101 4.804-12.606 6.603-19.209 4.804-.599-.302-1.197-.302-1.498-.603-2.101 1.502-4.502 2.401-6.904 3.301h-.301c-1.498.302-2.699.302-4.201.302-2.101 0-4.502-.302-6.603-.899v.301c-.599.599-1.498.899-2.402.899-.297-.301-.598-.301-.896-.301-2.401 2.702-5.104 4.803-8.707 6.004 0 .297-.297.297-.297.297h-2.101c-2.095-.001-4.2-.298-5.999-.9zm18.306-7.804c-.598 0-1.498-.297-2.401-.598-1.799 3.301-4.799 5.401-8.101 6.603-.603.301-1.201.301-1.799.301-2.402 0-4.502-.603-6.603-1.502-.603.599-1.205.899-1.803 1.502-.599-.301-.899-.301-1.502-.603-3.297 2.703-6.904 4.804-11.104 6.004-1.498.298-3 .298-4.799.298-15.908 0-28.812-12.904-28.812-28.808 0-7.205 2.398-13.808 6.9-18.908-.297-1.502-.297-2.703-.297-4.205 0-13.804 9.301-25.506 21.908-29.109 1.502-.301 3.301-.301 5.101-.301 6.903 0 13.506 2.402 18.61 6.302.599-.599 1.197-1.201 1.799-2.097.603.599 1.201.896 1.799 1.197 3.004-3.598 7.205-6.301 11.707-7.799 1.197 0 2.699-.301 3.899-.301 9.004 0 16.808 4.799 21.31 12.004 3.904-2.401 9-3.301 13.804-1.804 6.305 1.502 10.807 6.306 12.908 12.005 3-1.8 7.201-2.397 11.104-1.498 2.101.599 3.899 1.498 5.402 2.698 2.1-.598 4.799-.598 7.2.302 6.302 1.502 10.804 7.205 10.804 13.506 0 .899 0 1.498-.297 2.401-.302 1.498-.904 2.699-1.804 3.9.301.301.301.603.603.899-.302.301-.302.903-.603 1.201 1.201 1.502 2.101 3.602 2.401 5.702 0 .302 0 .603-.301.9-.297 1.2-.899 2.401-1.8 3.602.302.302.599.599.599 1.201 0 .302-.297.302-.599.599 1.201 2.401 1.8 4.803 1.8 7.205 0 .899-.297 1.799-.599 2.698-2.401 9.005-11.405 14.406-20.41 12.009-4.2-1.201-7.502-3.603-9.603-6.904-.899 0-1.502-.301-2.401-.301-4.201-1.201-7.804-3.899-10.205-7.502-.598 0-.896-.302-1.498-.302-.603-.301-1.502-.301-2.1-.598-4.502 4.502-11.406 6.602-18.008 4.799-.9 0-1.799-.297-2.402-.599-2.101 1.498-4.803 2.699-7.201 3.603-1.201 0-2.699.297-3.904.297-2.699 0-5.101-.598-7.502-1.2-.297.302-.598.904-1.2 1.201z"/><path fill="#6C6E70" d="M211.582 319.623c-.598 0-1.498-.297-2.401-.598-1.799 3.301-4.799 5.401-8.101 6.603-.603.301-1.201.301-1.799.301-2.402 0-4.502-.603-6.603-1.502-.603.599-1.205.899-1.803 1.502-.599-.301-.899-.301-1.502-.603-3.297 2.703-6.904 4.804-11.104 6.004-1.498.298-3 .298-4.799.298-15.908 0-28.812-12.904-28.812-28.808 0-7.205 2.398-13.808 6.9-18.908-.297-1.502-.297-2.703-.297-4.205 0-13.804 9.301-25.506 21.908-29.109 1.502-.301 3.301-.301 5.101-.301 6.903 0 13.506 2.402 18.61 6.302.599-.599 1.197-1.201 1.799-2.097.603.599 1.201.896 1.799 1.197 3.004-3.598 7.205-6.301 11.707-7.799 1.197 0 2.699-.301 3.899-.301 9.004 0 16.808 4.799 21.31 12.004 3.904-2.401 9-3.301 13.804-1.804 6.305 1.502 10.807 6.306 12.908 12.005 3-1.8 7.201-2.397 11.104-1.498 2.101.599 3.899 1.498 5.402 2.698 2.1-.598 4.799-.598 7.2.302 6.302 1.502 10.804 7.205 10.804 13.506 0 .899 0 1.498-.297 2.401-.302 1.498-.904 2.699-1.804 3.9.301.301.301.603.603.899-.302.301-.302.903-.603 1.201 1.201 1.502 2.101 3.602 2.401 5.702 0 .302 0 .603-.301.9-.297 1.2-.899 2.401-1.8 3.602.302.302.599.599.599 1.201 0 .302-.297.302-.599.599 1.201 2.401 1.8 4.803 1.8 7.205 0 .899-.297 1.799-.599 2.698-2.401 9.005-11.405 14.406-20.41 12.009-4.2-1.201-7.502-3.603-9.603-6.904-.899 0-1.502-.301-2.401-.301-4.201-1.201-7.804-3.899-10.205-7.502-.598 0-.896-.302-1.498-.302-.603-.301-1.502-.301-2.1-.598-4.502 4.502-11.406 6.602-18.008 4.799-.9 0-1.799-.297-2.402-.599-2.101 1.498-4.803 2.699-7.201 3.603-1.201 0-2.699.297-3.904.297-2.699 0-5.101-.598-7.502-1.2-.297.302-.598.904-1.2 1.201z"/><path fill="#FF8A8A" d="M175.569 134.452c1.201 0 2.101 0 3 .301 6-11.705 18.31-19.807 32.113-19.807 20.109 0 36.013 16.205 36.013 36.012 0 15.308-9.004 28.211-22.209 33.613 10.506 6.004 17.707 17.707 17.707 30.613 0 13.205-6.899 24.607-17.406 30.912 8.104 8.104 13.205 19.506 13.205 32.113 0 12.004-4.502 22.808-12.004 30.912 9.004 7.201 15.008 18.009 15.008 30.611 0 9.004-3.305 17.405-8.406 23.711 7.804 6.899 12.607 17.104 12.607 28.511 0 21.008-16.808 38.113-37.816 38.113-10.804 0-20.707-4.503-27.611-11.703a29.692 29.692 0 0 1-7.201.899c-14.108 0-25.514-11.406-25.514-25.511 0-1.2 0-2.401.301-3.603-19.506-1.498-34.812-18.004-34.812-37.812 0-3.301.603-6.903 1.498-9.903-15.306-7.507-25.808-23.109-25.808-41.117 0-15.009 7.205-27.912 18.008-36.314-7.205-6.004-12.008-15.305-12.008-25.51 0-15.305 10.808-28.51 24.912-32.113-1.201-3.301-1.799-6.902-1.799-10.504 0-15.606 10.803-28.51 25.209-32.113 1.503-17.106 15.603-30.311 33.013-30.311z"/><path fill="#FF8A8A" d="M327.729 134.452c-.9 0-2.101 0-3.001.301-6.004-11.705-18.008-19.807-32.112-19.807-19.808 0-36.017 16.205-36.017 36.012 0 15.308 9.004 28.211 22.209 33.613-10.502 6.004-17.707 17.707-17.707 30.613 0 13.205 6.903 24.607 17.41 30.912-8.104 8.104-13.205 19.506-13.205 32.113 0 12.004 4.498 22.808 12.004 30.912-9.004 7.201-15.008 18.009-15.008 30.611 0 9.004 3.301 17.405 8.405 23.711-7.804 6.899-12.606 17.104-12.606 28.511 0 21.008 17.108 38.113 38.117 38.113 10.502 0 20.405-4.503 27.31-11.703 2.401.598 4.799.899 7.201.899 14.104 0 25.51-11.406 25.51-25.511 0-1.2 0-2.401-.301-3.603 19.51-1.498 34.815-18.004 34.815-37.812 0-3.301-.603-6.903-1.502-9.903 15.306-7.507 25.812-23.109 25.812-41.117 0-15.009-7.205-27.912-18.008-36.314 7.205-6.004 12.004-15.305 12.004-25.51 0-15.305-10.502-28.51-24.908-32.113 1.201-3.301 1.8-6.902 1.8-10.504 0-15.606-10.804-28.51-25.21-32.113-1.503-17.106-15.607-30.311-33.012-30.311z"/><path fill="#E67C7C" d="M175.569 129.65h.297c3.305-5.401 8.108-10.203 13.506-13.504 6.301-3.902 13.506-6.004 21.31-6.004 11.402 0 21.611 4.502 29.109 12.006 7.205 7.502 12.008 17.705 12.008 28.81 0 8.404-2.703 16.207-6.904 22.81a41.222 41.222 0 0 1-11.406 11.404c3.305 2.701 6.004 6.304 8.104 9.904 3.603 6.004 5.401 12.906 5.401 20.109 0 7.502-1.799 14.406-5.1 20.109-2.703 4.498-6.004 8.401-9.904 11.703 3 3.603 5.401 7.506 7.201 12.004 2.402 6.004 3.603 12.606 3.603 19.209s-1.201 12.904-3.301 18.606c-1.803 4.201-3.904 8.105-6.904 12.005 3.603 3.301 6.603 7.205 8.707 11.707 2.996 5.698 4.498 12.301 4.498 19.205 0 4.803-.899 9.603-2.397 14.104-1.205 3.301-2.703 6.306-4.502 9.306 3 3.301 5.699 7.2 7.498 11.405 2.401 5.101 3.606 11.101 3.606 17.406 0 11.703-4.803 22.506-12.31 30.31-7.799 7.804-18.603 12.606-30.31 12.606-6 0-11.707-1.2-16.804-3.603-4.502-1.799-8.707-4.502-12.309-7.803-.301.301-.9.301-1.498.301-1.201.302-2.703.302-4.201.302-8.406 0-15.908-3.302-21.611-8.703a29.751 29.751 0 0 1-8.703-21.009c-9.301-1.803-17.109-6.603-23.109-13.205-7.205-7.506-11.406-17.707-11.406-28.812 0-1.804 0-3.603.301-5.703.301-.603.301-1.2.301-1.803-6.904-4.201-12.904-9.904-17.406-16.804-4.803-7.804-7.506-17.108-7.506-26.711 0-8.104 1.803-15.607 5.104-22.511 2.703-5.401 6.301-9.903 10.502-14.104-2.401-2.699-4.502-5.703-6-9.004-2.402-5.101-3.603-10.502-3.603-16.205 0-8.703 3-16.808 8.104-23.109 3.9-5.401 9.603-9.604 15.904-12.305-.297-.299-.297-.601-.297-1.201-.301-1.799-.603-3.902-.603-6.002 0-8.703 3.004-16.805 8.101-23.408 4.502-5.703 10.506-10.205 17.41-12.607 1.502-8.401 6.004-15.604 12.004-21.308 6.607-6.001 15.611-9.903 25.515-9.903zm1.201 9.904c0-.299-.603-.299-1.201-.299-7.201 0-14.104 3-19.209 7.502-4.803 4.801-8.402 11.104-9.004 18.308l-.301 3.6-3.297.902c-6.301 1.5-11.707 5.101-15.306 9.904-3.903 4.801-6.004 10.803-6.004 17.406 0 1.5 0 3.301.301 4.502.297 1.5.598 3.002.899 4.502l1.799 4.801-5.101 1.5c-6.004 1.502-11.402 5.103-15.305 9.902-3.603 4.803-5.703 10.807-5.703 17.41 0 4.201.899 8.406 2.402 12.004 1.799 3.603 4.502 7.205 7.502 9.603l4.799 3.903-4.799 3.9c-5.101 3.602-9.004 8.702-12.004 14.405-2.703 5.401-4.201 11.406-4.201 18.009 0 7.803 2.402 15.305 6.301 21.606 3.9 6.306 9.904 11.707 16.808 15.008l3.603 1.8-1.205 3.903c-.297 1.197-.598 2.699-.896 4.201 0 1.498-.301 3-.301 4.502 0 8.703 3.297 16.506 8.703 22.507 5.401 6.004 13.205 9.903 21.606 10.506l5.104.599-.602 4.803c-.301.599-.301.899-.301 1.498v1.502c0 5.703 2.401 10.804 6.004 14.707 3.904 3.603 9.004 6 14.707 6 .9 0 2.101 0 3-.297.9 0 1.799-.301 3-.603l2.703-.899 2.101 2.101c3 3.301 6.603 6.004 10.803 7.803 3.899 1.503 8.402 2.402 13.205 2.402 9.004 0 17.406-3.603 23.41-9.603 6.004-6.005 9.603-14.406 9.603-23.41 0-4.804-.9-9.606-3-13.507-1.803-4.502-4.502-8.104-8.104-11.405l-3.598-3 3-3.603c2.397-3 4.201-6.302 5.703-9.904 1.197-3.301 1.799-6.899 1.799-10.803 0-5.402-1.201-10.502-3.603-15.005-2.1-4.502-5.401-8.405-9.603-11.707l-4.201-3 3.598-3.899c3.306-3.903 6.004-8.104 8.105-12.907 1.803-4.503 2.699-9.603 2.699-15.005 0-5.401-1.197-10.803-2.996-15.606a43.023 43.023 0 0 0-9.004-13.205l-4.201-4.201 5.097-3.301a29.734 29.734 0 0 0 11.406-11.406c2.401-4.502 3.903-9.603 3.903-15.306 0-5.402-1.502-10.803-4.205-15.306-2.699-4.502-6.603-8.403-11.104-11.406l-8.402-4.801 9.004-3.6c5.703-2.402 10.502-6.603 14.109-11.705 3.297-4.801 5.101-10.806 5.101-17.408 0-8.401-3.603-16.205-9.004-21.908-5.703-5.703-13.506-9.004-22.209-9.004-6.004 0-11.402 1.502-16.205 4.502-4.803 3.002-9.004 7.203-11.406 12.305l-1.498 3-3.305-.299h-1.499z"/><path fill="#E67C7C" d="M327.729 129.65h-.302c-3.301-5.401-8.101-10.203-13.502-13.504-6.306-3.902-13.507-6.004-21.31-6.004-11.406 0-21.611 4.502-29.113 12.006-7.201 7.502-11.703 17.705-11.703 28.81 0 8.404 2.401 16.207 6.904 22.81 2.698 4.502 6.603 8.404 11.101 11.404-3.302 2.701-6 6.304-8.101 9.904-3.603 6.004-5.402 12.906-5.402 20.109 0 7.502 1.799 14.406 5.1 20.109 2.703 4.498 6.005 8.401 9.904 11.703-2.699 3.603-5.101 7.506-6.904 12.004-2.698 6.004-3.899 12.606-3.899 19.209s1.201 12.904 3.302 18.606c1.799 4.201 4.2 8.105 6.903 12.005-3.603 3.301-6.603 7.205-8.703 11.707-3.004 5.698-4.502 12.301-4.502 19.205 0 4.803.899 9.603 2.397 14.104 1.201 3.301 2.703 6.306 4.502 9.306-3 3.301-5.698 7.2-7.502 11.405-2.397 5.101-3.603 11.101-3.603 17.406 0 11.703 4.804 22.506 12.606 30.31 7.503 7.804 18.306 12.606 30.314 12.606 5.698 0 11.401-1.2 16.803-3.603 4.201-1.799 8.406-4.502 12.005-7.803.301.301.903.301 1.502.301 1.201.302 2.703.302 4.201.302 8.405 0 15.907-3.302 21.61-8.703a29.751 29.751 0 0 0 8.703-21.009c9.301-1.803 17.405-6.603 23.41-13.205 6.899-7.506 11.104-17.707 11.104-28.812 0-1.804 0-3.603-.302-5.703-.301-.603-.301-1.2-.301-1.803 6.903-4.201 12.903-9.904 17.405-16.804 4.804-7.804 7.503-17.108 7.503-26.711 0-8.104-1.8-15.607-5.101-22.511-2.699-5.401-6.302-9.903-10.502-14.104 2.397-2.699 4.502-5.703 6-9.004 2.401-5.101 3.603-10.502 3.603-16.205 0-8.703-3-16.808-8.104-23.109-3.9-5.401-9.302-9.604-15.904-12.305.297-.299.297-.601.297-1.201.302-1.799.603-3.902.603-6.002 0-8.703-3-16.805-8.104-23.408-4.502-5.703-10.502-10.205-17.406-12.607-1.502-8.401-5.702-15.604-12.004-21.308-6.601-6.001-15.605-9.903-25.508-9.903zm-1.202 9.904c0-.299.603-.299 1.201-.299 7.502 0 14.104 3 19.209 7.502 5.101 4.801 8.401 11.104 9 18.308l.301 3.6 3.302.902c6.301 1.5 11.707 5.101 15.606 9.904 3.603 4.801 5.703 10.803 5.703 17.406 0 1.5 0 3.301-.302 4.502-.301 1.5-.598 3.002-.899 4.502l-1.799 4.801 5.101 1.5c6.004 1.502 11.405 5.103 15.305 9.902 3.603 4.803 5.703 10.807 5.703 17.41 0 4.201-.899 8.406-2.401 12.004-1.8 3.603-4.502 7.205-7.502 9.603l-4.804 3.903 4.804 3.9c5.101 3.602 9.004 8.702 12.004 14.405 2.703 5.401 4.201 11.406 4.201 18.009 0 7.803-2.402 15.305-6.302 21.606-3.903 6.306-9.903 11.707-16.808 15.008l-3.603 1.8 1.201 3.903c.301 1.197.603 2.699.899 4.201 0 1.498.302 3 .302 4.502 0 8.703-3.302 16.506-8.703 22.507-5.402 6.004-13.205 9.903-21.606 10.506l-5.105.599.603 4.803c.302.599.302.899.302 1.498v1.502c0 5.703-2.401 10.804-6.004 14.707-3.904 3.603-9.005 6-14.707 6-.9 0-2.101 0-3-.297-.9 0-1.8-.301-2.703-.603l-3-.899-2.101 2.101c-3 3.301-6.603 6.004-10.804 7.803a36.478 36.478 0 0 1-12.903 2.402c-9.306 0-17.707-3.603-23.712-9.603-6.004-6.005-9.603-14.406-9.603-23.41 0-4.804 1.201-9.606 3-13.507 1.8-4.502 4.503-8.104 8.105-11.405l3.598-3-3-3.603c-2.401-3-4.2-6.302-5.401-9.904-1.502-3.301-2.101-6.899-2.101-10.803 0-5.402 1.201-10.502 3.603-15.005 2.101-4.502 5.703-8.405 9.603-11.707l4.201-3-3.603-3.899c-3.302-3.903-6-8.104-8.101-12.907-1.804-4.503-2.703-9.603-2.703-15.005 0-5.401 1.201-10.803 3-15.606a43.076 43.076 0 0 1 9.004-13.205l4.503-4.201-5.402-3.301c-4.799-2.703-8.703-6.603-11.104-11.406-2.698-4.502-4.201-9.603-4.201-15.306 0-5.402 1.503-10.803 4.201-15.306 2.703-4.502 6.603-8.403 11.104-11.406l8.406-4.801-9.004-3.6c-5.703-2.402-10.507-6.603-14.109-11.705-3.301-4.801-5.101-10.806-5.101-17.408 0-8.401 3.603-16.205 9.005-21.908 5.702-5.703 13.506-9.004 22.209-9.004 6 0 11.401 1.502 16.205 4.502 4.803 3.002 9.004 7.203 11.405 12.305l1.498 3 3.302-.299h1.502z"/><path fill="#4E5A62" d="M185.473 325.326l52.519 49.82c.603.899.904 1.799.603 2.703-.301.899-1.201 1.196-2.101 1.196l-18.908.603 36.313 37.816c.603.899.603 2.1 0 3-.603.899-1.799 1.2-2.703.598l-96.034-51.017c-.904-.301-1.205-1.502-1.205-2.401.301-1.201 1.205-1.804 2.402-1.804l28.812.302-66.924-50.72c-.599-.599-.9-1.498-.599-2.699.297-.903 1.197-1.502 2.101-1.502h33.012L93.037 258.1c-.603-.599-.904-1.799-.603-2.703.301-.896 1.201-1.498 2.101-1.197l54.92 1.498c.603 0 1.205.301 1.502.603l66.029 64.226c.896.599.896 1.498.599 2.397-.301.899-1.201 1.502-2.104 1.502l-30.008.9z"/><path id="path4828" fill="#FFF212" d="M149.456 258.101l66.025 64.225-35.711 1.201 56.724 53.418-24.009.302 39.616 41.715-95.741-50.719 35.715.301-72.326-54.921 39.013-.301-64.226-57.021z"/><path fill="#4E5A62" d="M357.138 253.598l35.113.301c.903 0 1.804.603 2.104 1.498.297.904 0 1.804-.603 2.401l-70.226 53.423 30.31-.301c1.201 0 2.101.603 2.401 1.803.302.899-.301 2.101-1.2 2.397l-100.536 53.423c-.904.599-2.104.301-2.703-.599-.904-.903-.603-2.104 0-2.703l38.113-40.217-20.108-.298c-.899 0-1.498-.602-1.8-1.502-.598-.899-.301-1.799.302-2.401l55.519-52.519-32.108-.899c-.904 0-1.503-.603-1.804-1.503-.599-.899-.297-1.799.301-2.401l69.327-67.226c.603-.601.899-.601 1.502-.601l57.623-1.799c.899 0 1.8.299 2.101 1.199.297.902 0 2.103-.603 2.703l-63.025 55.821z"/><path id="path4828_0" fill="#FFF212" d="M361.042 197.778l-69.029 67.226 37.217 1.201-59.126 56.121 24.913.599-41.419 43.82 100.239-53.423-37.214.301L392.251 256h-40.812l67.226-60.023z"/><path fill="#727376" d="M278.808 140.755c-.297 0-.599-.301-1.201-.301-.899 1.502-2.397 2.701-4.2 3.301h-.599c-1.201 0-2.401 0-3.302-.601-.301.301-.602.601-.899.601-.301 0-.603 0-.903-.299-1.498 1.5-3.599 2.701-5.699 3.301h-2.401c-6.904 0-12.908-5.103-14.104-12.004-1.502.299-3.004.601-4.201.601-.903 0-1.803 0-2.401-.301-2.101-.6-3.904-1.5-5.707-3-.297.299-.599.299-.896.299-.301 0-.603-.299-.904-.601-.899.301-2.101.601-3 .601h-.899c-1.799-.601-3.301-1.801-4.201-3.301-.603 0-.904.301-1.205.301l-.595-.601c-1.205.299-2.401.601-3.903.601-.599 0-1.201-.301-1.804-.301-1.196-.299-2.401-.9-3.297-1.5-.603.299-1.205.6-1.803.899h-1.803c-.896 0-2.101 0-2.996-.299-.904 4.801-5.104 8.402-10.209 8.402h-1.498c-1.498-.598-2.703-1.199-3.9-2.1h-.602c-.301 0-.603-.299-.603-.299-.896.299-1.498.299-2.397.299h-.599c-1.205-.299-2.401-1.201-3.004-2.4-.301.299-.603.299-.9.299 0-.299-.301-.299-.301-.601-.899.301-1.799.601-2.699.601-.603 0-.903 0-1.502-.299-3.603-.902-6.305-4.502-6.305-8.404 0-1.801.301-3.301 1.205-4.502-.603-1.201-.903-2.402-.903-3.601 0-2.401 1.205-4.803 2.703-6.303-3.004-2.101-5.104-5.703-5.104-9.604 0-6.301 5.104-11.103 11.406-11.103 2.402 0 4.803.598 6.904 2.1 1.799-2.1 4.803-3.301 8.101-3.301 6.004 0 11.104 5.101 11.104 11.404v1.801c.603-.301 1.205-.6 1.803-.901a12.634 12.634 0 0 1 11.104-6.603h2.101c2.402.901 4.201 2.401 6.004 4.203.301-.301.301-.6.599-.6.598.299.899.6 1.201.899 2.402-2.101 5.703-3.301 9.306-3.301.896 0 1.799 0 2.401.301 1.197.299 2.101.601 2.996 1.199v-2.701c0-8.703 6.904-15.906 15.908-15.906 4.502 0 8.405 1.801 11.405 4.803 2.699-2.103 6-3.301 9.603-3.301 9.004 0 16.205 7.201 16.205 15.906 0 5.701-3 10.803-7.502 13.504 2.401 2.401 3.903 5.401 3.903 9.004 0 1.801-.301 3.601-1.2 5.103 1.2 1.799 1.498 3.902 1.498 6.002 0 6.002-3.599 10.804-9 12.304-.603 0-1.201.301-1.804.301-1.498 0-2.698-.301-3.899-.601-.004.299-.306.299-.606.6zm-77.728-31.814v-.598.598zm51.317-1.198v-.601.601z"/><path fill="#727376" d="M150.059 139.554c-.301.299-.899.299-1.201.299-.599-1.199-2.101-2.399-3.603-2.701 0-.299-.301-.299-.599-.299-.899 0-2.1.299-3 .601l-.603-.601c-.301.299-.602.299-.899.299-1.201-1.199-3-2.101-4.799-2.4-.603-.301-1.205-.301-1.803-.301-6.904 0-12.606 5.703-12.606 12.604 0 3.002 1.205 6.004 3.004 8.104-.301.601-.301 1.201-.301 1.801 0 6.002 4.201 11.103 9.603 12.604.599.299 1.502.299 2.104.299 3.297 0 6-1.201 8.101-2.701.301.299.603.601.899.601.301 0 .599-.301.599-.301 1.506 1.502 3.305 2.703 5.406 3.301.301 0 .899.301 1.498.301 3.904 0 7.506-2.101 9.305-5.402 1.799 1.201 3.9 1.5 6 .9 2.703-.601 4.803-2.701 5.707-5.402 1.197.9 2.996 1.201 4.799.9.899-.299 1.502-.9 2.101-1.201 1.201.301 2.1.301 3.301 0 2.703-.899 4.502-3.301 4.803-6.002 0-.299-.301-.601-.301-.899 0-.9-.301-1.5-.603-1.801 0-.299 0-.299.301-.299-.301-.301-.301-.601-.598-.601.899-.901 1.201-1.5 1.201-2.701v-.301c-.301-.601-.603-.899-.904-1.5 0 0 .301-.301.301-.601 0 0-.301 0-.301-.299.603-.902.904-2.103.904-3.002-.301-.299-.301-.899-.301-1.201-1.201-3.902-5.104-6.301-9.004-5.103-1.799.301-3.301 1.502-4.201 2.703-.301.299-.603.299-.899.299-1.803.601-3.603 1.801-4.502 3.301h-.598c-.301.299-.603.299-.904.299-2.1-1.799-5.101-3-7.799-2.101-.301 0-.903.301-1.205.301-.9-.6-1.799-1.201-3-1.502h-1.799c-1.201 0-2.104 0-3.301.301-.002.005-.303-.296-.303-.596z"/><path fill="#4E5A62" d="M216.385 198.977v.901c.301.9.603 1.799.603 2.701v1.2c0 .299-.301.899-.603 1.199v.902c.301.899.603 2.1.603 3v.301c0 .6-.301.899-.301 1.5-1.502 5.401-6.904 8.406-12.008 6.904-2.1-.301-3.598-1.502-5.1-3 0-.301-.297-.301-.297-.301-2.402-.601-4.205-1.801-5.406-3.603-2.699 2.1-6.301 3.002-9.603 2.1h-.297c-.903.601-1.803.902-3.004 1.201h-.301c-.598.301-1.197.301-2.101.301-.899 0-1.799 0-2.703-.301-.297.301-.896.301-1.498.301-1.201 1.197-2.402 2.1-3.899 2.703-.301 0-.301 0-.603.297h-.9c-.899 0-1.803-.297-2.699-.599-.603.599-.903.599-1.506.599-1.498.899-3.297 1.803-5.097 2.401h-.301c-.602.297-1.502.297-2.401.297-8.402 0-15.306-6.9-15.306-15.603 0-3.301.9-6.603 3-9.306v-1.199c0-7.203 4.799-13.506 11.703-15.606.904 0 1.799-.301 2.703-.301 3 0 6 .901 8.402 2.401.603-.299 1.201-.299 1.502-.299 1.502-1.201 3.301-2.402 5.402-3.002h2.402c3.899 0 7.799 1.801 10.502 4.801 2.101-.6 4.201-.899 6.301-.299 2.703.899 5.104 2.701 6.305 5.103a6.612 6.612 0 0 1 4.799 0c.904.299 1.502.6 2.402.899 1.201 0 2.401 0 3.305.299 3.9.901 6.603 4.502 6.603 8.404 0 .6 0 .901-.301 1.502-.001.303-.302.903-.302 1.202z"/><path fill="#6C6E70" d="M174.669 212.483c-.301-.301-.904-.301-1.201-.301-.9 1.201-2.104 2.404-3.904 3.002h-.599c-1.201 0-2.1-.301-3-.598-.301.297-.602.297-.903.598-.301 0-.599-.301-.9-.301-1.502 1.201-3 2.402-5.101 2.703-.602.297-1.201.297-2.1.297-7.506 0-13.506-6-13.506-13.502 0-3.301 1.201-6.303 3.301-8.705v-1.799c0-6.603 4.201-12.006 9.904-13.506.899-.299 1.799-.299 2.401-.299 3.301 0 6.302 1.199 8.703 3 .301-.299.603-.601.899-.9.301.299.599.299.599.601 1.502-1.801 3.606-3.002 5.707-3.603.598-.299 1.197-.299 1.799-.299 4.201 0 7.799 2.4 9.904 5.701 1.799-1.199 4.201-1.5 6.301-.9 3 .601 5.1 3.002 6.004 5.703 1.498-.902 3.297-1.201 5.101-.902.899.301 1.803.601 2.401 1.201a7.348 7.348 0 0 1 3.603 0c3 .901 4.799 3.603 4.799 6.603v.901c-.297.601-.598 1.5-.899 1.799 0 .301.301.301.301.601 0 0-.301.301-.301.6.603.601 1.201 1.5 1.201 2.402 0 .299 0 .299-.301.6 0 .601-.297 1.201-.598 1.5 0 .299 0 .299.301.601-.301 0-.301.299-.301.299.301 1.201.598 2.103.598 3.301v1.201c-1.201 4.203-5.402 6.906-9.603 5.701-2.101-.598-3.603-1.799-4.502-3.299h-1.201c-1.799-.601-3.603-1.801-4.502-3.603h-.899c-.301 0-.603-.299-.899-.299-2.101 2.101-5.402 3-8.406 2.402-.301-.301-.598-.301-1.196-.601-.904.899-2.101 1.5-3.306 1.799h-1.799c-1.201 0-2.401 0-3.301-.601-.297.302-.297.601-.599.902z"/><path fill="#4E5A62" d="M115.548 286.31c-1.803.603-3.305.603-5.104.603-.903 0-2.1 0-3.004-.301h-.297c-9.004-2.699-15.008-10.804-15.008-20.109 0-3.301.603-6.301 2.101-9.301-.896-2.402-1.197-4.804-1.197-7.502 0-4.803 1.498-9.305 4.502-13.205-6.301-4.803-9.908-12.305-9.908-20.109 0-14.406 11.707-25.81 25.812-25.81 5.101 0 10.205 1.5 14.406 4.201 4.803-4.201 10.803-6.603 17.406-6.603 14.108 0 25.812 11.705 25.812 25.81v.603c.297 0 .899-.301 1.502-.301 0 0 0-.301.301-.301 1.197 0 2.699-.299 3.9-.299 5.1 0 9.904 1.5 13.807 4.199 0 0 .297 0 .297-.297.598-.599 1.502-.599 2.402-.301 2.397-2.402 5.401-4.201 8.703-5.103h.297c.903-.299 2.104-.299 3.004-.299 11.406 0 21.008 9.306 21.008 20.707 0 2.703-.598 5.101-1.502 7.502 1.502 3.004 2.101 6.301 2.101 9.305 0 9.306-6 17.406-15.004 20.108 0 0 0 .298-.301.298h-3c-1.803 0-3.301 0-5.101-.599-.301.899-1.205.899-1.803.899-.297 0-.598 0-.598-.301-1.799 2.104-3.9 3.903-6.301 4.803h-2.101c-1.502 0-3.004 0-4.502-.598-.301 0-.301.297-.603.297-.301.301-1.201.603-1.799.301h-.301c-2.401 1.804-5.104 3.302-8.104 4.201h-.297c-1.205.301-2.402.301-3.603.301-1.803 0-3.301-.301-4.804-.598-2.699 10.502-12.305 17.707-23.108 17.707-1.201 0-2.402-.302-3.599-.302h-.301c-3.004-.899-5.703-2.401-8.104-4.2h-.301c-.598.297-1.201 0-1.799-.302-.301 0-.301-.301-.598-.301-1.502.301-3.004.603-4.502.603h-1.803c-2.699-.904-4.799-2.703-6.603-4.804 0 0-.297.301-.599.301-.605 0-1.505-.301-1.802-.903z"/><path fill="#727376" d="M117.046 285.113c.603 0 1.201-.302 1.799-.302 1.502 2.101 3.603 3.899 6.301 4.804h1.205c1.799 0 3.297-.302 4.799-.904.599.302.9.603 1.502 1.201.301-.297.899-.297 1.197-.599 2.401 2.101 5.104 3.603 8.406 4.502 1.201.298 2.1.298 3.301.298 10.803 0 19.808-7.804 21.606-18.005 2.101.599 4.201.9 6.306.9 1.201 0 2.397 0 3.301-.302 3.301-.899 6-2.401 8.401-4.502.301.301.904.301 1.201.603.598-.302.899-.899 1.502-1.201 1.498.599 3 1.201 4.803 1.201.297 0 .896 0 1.197-.302 2.703-.899 4.803-2.702 6.301-4.803.603 0 1.205.301 1.803.301.297-.301.599-.598.9-.899 1.799.599 3.602.899 5.703.899.899 0 1.803-.301 2.699-.301 7.808-2.397 13.506-9.603 13.506-18.306 0-3.301-.598-6.301-2.101-9.004.904-2.402 1.502-5.101 1.502-7.804 0-10.205-8.406-18.606-18.908-18.606h-2.703c-3.599 1.201-6.603 3.301-9.004 6-.598-.297-.896-.599-1.197-.896-.603.598-1.201.896-1.502 1.498-3.904-3-8.703-4.804-14.104-4.804-1.201 0-2.402 0-3.603.301-1.502.603-3 1.201-4.502 1.799.301-1.197.301-2.401.301-3.899 0-13.205-10.807-23.709-23.711-23.709-6.904 0-12.904 2.701-17.105 7.203-4.201-3.301-9.305-5.103-14.707-5.103-13.205 0-23.711 10.805-23.711 24.01 0 8.402 4.205 15.607 10.807 19.808-3.301 3.599-5.703 8.402-5.703 13.506 0 2.699.603 5.402 1.799 7.803-1.498 2.699-2.402 5.699-2.402 9 0 8.707 5.707 15.908 13.506 18.31.904 0 1.799.302 2.703.302 2.101 0 3.9-.603 5.703-.904.3.304.602.605.903.906zm39.615-49.222v-1.196 1.196z"/><path fill="#4E5A62" d="M290.515 190.875c2.101-3.002 5.101-5.103 8.703-6.002.599-.301.899-.301 1.2-.301 2.101-2.701 5.101-4.5 8.402-5.402 8.104-2.399 16.506 2.701 18.908 10.806 0 .899.301 1.5.301 2.399v.301c0 1.801-.301 3.601-1.201 5.402.302.6.302 1.201.302 1.5.297.901.599 1.801.899 2.401 0 .601.297.9.297 1.201v.299c-.297 1.801-.598 3.301-1.498 4.502v1.801c.302.601.599 1.5.9 2.4.301.901.301 1.502.301 2.103v.301c0 6-4.205 11.401-10.205 12.904-1.799.301-3.899.602-5.703.301-1.2.9-2.698 1.498-4.2 1.799-2.703.9-5.703.603-8.402-.301-2.104 4.201-6.004 7.506-10.808 8.703-3.598 1.201-7.502.904-10.803-.599-4.201 5.402-10.502 8.703-17.707 8.703h-3.302c0-.301 0-.301-.301-.301-3.302-.899-6.599-3-9-5.401-.903.301-1.803.301-2.401-.301-.301 0-.301-.301-.603-.301-4.201 2.703-9.301 4.502-14.402 4.502-1.502 0-3.004-.297-4.502-.297v-.301c-11.406-3-18.912-13.502-18.912-25.209v-2.402c-3.599-4.502-5.397-9.904-5.397-15.604 0-14.106 11.104-25.211 25.205-25.211 1.205 0 2.703 0 3.904.301h.301c3 .9 6.004 2.4 8.401 4.502h.599c.603-.301 1.205-.301 1.803.299 0 0 .301.299.598.299 1.502-.598 3.004-.899 4.803-.899.301 0 .904.301 1.502.301h.297c2.703.899 5.104 2.701 6.904 4.801h.603c.9-.301 1.498 0 2.1.6 1.8-.301 3.603-.6 5.101-.6 1.201 0 2.401.299 3.603.299 2.101.601 3.899 1.502 5.703 2.701.297-.299.599-.299.899-.299 5.703-1.5 11.406-.299 15.606 3.603 0 0 .302-.301.599-.301.301-.002.301-.002.603-.002z"/><path fill="#6C6E70" d="M256.899 186.674c-.899.299-1.502.299-2.1.6-1.502-2.401-3.904-4.203-6.603-5.404h-1.201c-1.799 0-3.598.301-5.401 1.201-.297-.299-.9-.9-1.201-1.201-.603.301-.9.301-1.498.601-2.402-2.399-5.406-3.902-8.703-4.801-1.205-.301-2.402-.301-3.606-.301-12.904 0-23.105 10.205-23.105 23.111 0 5.701 2.101 10.803 5.398 15.002-.297.903-.297 2.104-.297 3.004 0 11.104 7.502 20.41 17.707 23.41 1.201.297 2.402.297 3.904.297 5.397 0 10.803-1.799 14.703-5.1.603.598 1.201.899 1.498 1.502.602-.301.903-.603 1.506-.904 2.397 3.004 5.699 5.104 9.302 6.305 1.2 0 2.1.297 3 .297 7.205 0 13.506-3.899 17.108-9.599 3.302 1.799 7.201 2.398 11.104 1.498 4.8-1.498 8.703-5.104 9.904-9.606 2.698 1.506 6 1.803 9 1.205 1.502-.602 3.004-1.205 4.205-2.1 1.799.297 3.899.297 6-.301 5.104-1.201 8.405-5.703 8.702-10.803-.297-.603-.297-1.203-.297-1.804-.603-1.201-.903-2.399-1.502-3.301 0 0 .301-.299.301-.6 0-.299-.301-.601-.301-.9.899-1.201 1.799-3.002 1.799-4.502v-.899c-.297-.902-.899-1.801-1.498-2.701 0-.301.298-.6.298-.901 0-.299-.298-.601-.298-.601.9-1.799 1.201-3.899 1.201-5.701 0-.902 0-1.5-.301-2.101-1.804-7.203-9.306-11.406-16.507-9.604-3 .899-5.703 2.701-7.502 5.402-.603 0-1.201 0-1.803.301-3.599.899-6.302 3-8.101 6.002-.603 0-.904 0-1.201.299-.603 0-1.201.301-1.804.301-3.598-3.603-9.004-5.404-14.405-3.902-.599.299-1.201.299-1.8.601-1.799-1.201-3.602-2.103-5.702-2.701-1.201-.301-2.101-.301-3.302-.301-2.101 0-3.899.301-6 .9.002-.301-.299-.6-.601-1.2z"/><path fill="#4E5A62" d="M307.318 190.875c-1.197-1.5-2.699-3.002-3.599-4.801-.603-1.201-1.201-2.402-1.502-3.603h-.302c-2.397-10.803 2.402-21.908 12.009-27.31 3.297-2.101 6.899-3.002 10.803-3.301a22.178 22.178 0 0 1 6.9-6.002c5.104-3.002 11.104-3.902 16.808-3.002.899-9.303 6.603-17.707 15.008-22.81 14.406-8.401 33.31-3.301 41.716 11.406 3 5.402 4.502 11.404 3.899 17.708 7.502 2.399 13.506 7.203 17.41 13.805 8.401 14.705 3.297 33.312-11.104 42.015-9.306 5.103-20.712 5.404-30.013.301-.899.299-1.502.899-2.101 1.201-.603.299-.903.601-1.502.9-2.401 6.303-6.903 12.004-12.904 15.305-.899.603-1.803 1.201-3.004 1.502-2.101 6.004-6.603 10.803-12.004 14.104-13.502 7.803-30.912 3.301-38.716-10.201-.598-1.506-1.196-2.703-1.799-4.205v-.297c-.899-3.606-1.201-7.205-.599-10.808 0-.299-.301-.299-.301-.6-.603-.299-.899-.9-.603-1.799v-.902c-1.498-1.201-2.699-2.701-3.599-4.201-.301-.601-.603-.899-.903-1.5v-.601c-.599-3.002-.298-6.303.903-9.303 0-.301-.301-.6-.603-.901-.599-.299-.599-1.201-.301-1.799l.003-.301z"/><path fill="#727376" d="M309.121 191.774c.599.601 1.201 1.201 1.498 1.801-1.498 2.701-2.101 6.002-1.196 9.304 0 .6.297.901.598 1.502.9 1.799 2.402 3.301 3.904 4.5 0 .6-.302 1.201-.302 1.801l1.201 1.201c-.603 3.599-.603 7.502.297 11.406.603 1.197 1.201 2.402 1.804 3.599 7.201 12.606 23.41 16.807 36.013 9.606 5.401-3.004 9.305-8.104 11.405-13.808 1.201-.602 2.402-.899 3.302-1.498 6.301-3.603 10.502-9.006 12.306-15.308.899-.301 1.497-.902 2.397-1.201.903-.6 1.803-1.201 2.702-1.801 8.703 5.102 19.808 5.703 29.113.301 13.804-8.104 18.606-25.51 10.502-39.017-3.899-7.201-10.502-11.703-17.707-13.504.899-6.002-.301-12.605-3.603-18.308-7.799-13.504-25.209-18.308-39.013-10.504-8.702 5.103-13.808 14.107-14.405 23.41-5.402-1.502-11.707-.902-17.406 2.399a22.178 22.178 0 0 0-6.903 6.004c-3.603.299-7.503 1.199-10.804 3.301-9.004 5.101-13.205 15.305-10.808 24.908.302.902.904 2.101 1.502 3.002 1.201 2.1 2.703 3.901 4.201 5.401-.296.604-.296.905-.598 1.503z"/><path fill="#4E5A62" d="M415.364 204.979c14.703-8.402 19.808-27.31 11.401-42.015-3.899-6.603-9.903-11.705-17.406-14.106.599-6.002-.899-12.306-3.899-17.708-8.707-14.705-27.61-19.807-42.317-11.104-5.703 3.301-10.205 8.404-12.904 14.406-6.305-4.502-13.808-6.902-21.61-7.203-3.603-5.101-8.101-9.603-13.507-12.904-6.603-3.902-13.803-6.303-21.306-6.303 3.599-3.601 5.703-8.404 5.703-13.504 0-9.904-8.104-18.008-18.31-18.008-3.301 0-6.603.902-9.603 2.701-3-2.701-7.205-4.201-11.405-4.201-9.904 0-18.009 7.502-18.306 17.406 0-.299 0-.299-.301-.299h-2.699c-3.306 0-6.306.9-9.306 2.402-.301-.301-.899-.301-1.498-.301-1.506-1.5-3.606-2.701-5.707-3.301h-.301c-.896 0-1.498-.299-2.398-.299-4.205 0-8.104 1.799-10.807 5.101-1.498-6.002-6.9-10.803-13.205-10.803-3.297 0-6 1.201-8.402 3.002-2.101-1.201-4.502-1.801-6.603-1.801-7.502 0-13.803 6.002-13.803 13.504 0 3.901 1.799 7.504 4.498 9.904a10.848 10.848 0 0 0-1.799 6.004c0 1.199 0 2.4.603 3.601-.603 1.201-1.201 2.701-1.201 4.502 0 1.201.297 2.701.9 4.201-7.502.901-14.406 4.203-20.41 9.303-.896-1.199-2.101-1.799-3.297-2.4H144.656c-.899 0-1.803 0-2.401.299-.599-.299-.9-.299-1.502-.299-1.498-1.201-3-1.801-4.502-2.401h-.297c-.9 0-1.803-.299-2.402-.299-8.406 0-15.008 6.902-15.008 15.004 0 3.301 1.205 6.303 3.004 8.705v1.201c0 3.301.9 6.603 3 9.303-2.101 1.799-3.904 3.601-5.703 6.002-4.201 5.101-6.904 11.404-7.799 18.006-13.506 1.201-23.711 12.605-23.711 26.111 0 3.301.599 6.904 2.101 9.904-1.502 4.201-2.101 8.703-2.101 13.205 0 6.004 1.201 11.703 3.603 17.105.599 1.2 1.197 2.401 2.101 3.603-.904 1.803-1.201 4.2-1.201 6.301 0 .904 0 1.804.297 2.703-2.1 2.703-3.899 5.703-5.397 8.703-3.606 7.205-5.707 15.306-5.707 23.41 0 9.903 3.004 19.506 8.104 27.912a50.044 50.044 0 0 0 16.808 16.803v.302c-.301 2.101-.603 4.2-.603 6.004 0 11.401 4.502 22.209 12.008 30.611 6 6.603 13.803 11.104 22.506 13.205.599 7.803 3.904 15.305 9.603 20.707 6.004 6.301 14.41 9.606 23.113 9.606 1.498 0 3 0 4.799-.302h.301c3.603 3 7.502 5.402 12.004 7.201 5.401 2.401 11.406 3.603 17.707 3.603 12.004 0 23.41-4.502 31.812-13.205 1.803-1.799 3.603-3.903 5.101-6.301l6.904 3.598c.904.603 2.1.302 2.703-.598.603-.9.603-2.101 0-3l-6-6.005c1.799-3.603 2.996-7.502 3.9-11.405 1.498 9.004 5.703 17.41 12.305 23.711 8.401 8.703 20.104 13.205 32.113 13.205 6 0 12.004-1.201 17.707-3.603 4.2-1.799 8.101-4.201 11.703-7.201h.598c1.503.302 3.005.302 4.503.302 8.702 0 17.108-3.306 23.108-9.606 5.703-5.402 9.004-12.904 9.606-20.707 8.703-2.101 16.507-6.603 22.507-13.205 7.803-8.402 12.004-19.21 12.004-30.611 0-1.804-.297-3.903-.599-6.004v-.302a50.035 50.035 0 0 0 16.808-16.803c5.401-8.406 8.101-18.009 8.101-27.912 0-8.104-1.799-16.205-5.401-23.41-2.699-4.804-5.703-9.302-9.603-13.205 2.1-2.699 3.603-5.402 5.1-8.104 2.402-5.402 3.603-11.101 3.603-17.105 0-9.004-2.702-17.41-8.401-24.611-.903-1.199-1.803-2.399-2.703-3.301l3.603-3.601c2.399-.604 4.797-1.805 6.901-3.006zM248.498 373.348c-1.803-3.603-3.904-7.205-6.904-10.507 1.803-2.698 3-5.401 3.904-8.104a42.812 42.812 0 0 0 2.699-15.004c0-7.201-1.803-14.104-4.799-20.109 0-.297-.301-.598-.301-.899 3.297-.599 6.603-2.401 9.301-4.799.301.297.599.297.899.297.301.302.603.302.904.302 1.498 2.1 3.301 3.899 5.699 5.401-3.301 6.004-4.799 12.903-4.799 19.808 0 5.101.899 10.205 2.698 15.004.302.904.603 1.804 1.201 3.004l-7.201 7.502c-.603.599-.904 1.8 0 2.703.598.899 1.799 1.197 2.703.599l4.498-2.101c-1.799 2.101-3 4.502-4.201 6.904-1.502 3.301-2.402 6.899-3 10.502-.903-3.604-1.799-7.203-3.301-10.503zm152.757-162.066c1.804 1.5 3.302 3.304 4.503 5.103 5.104 6.301 8.104 14.406 8.104 23.109 0 5.703-1.201 11.104-3.603 16.205-1.498 3.301-3.603 6.305-6 9.004 4.2 4.201 7.803 8.703 10.502 14.104 3.301 6.903 5.101 14.406 5.101 22.511 0 9.903-2.699 18.907-7.503 26.711-4.502 6.899-10.502 12.603-17.405 16.804 0 .603 0 1.2.301 1.803.302 2.101.302 3.899.302 5.703 0 11.104-4.205 21.306-11.104 28.812-6.005 6.603-14.109 11.402-23.41 13.205a29.751 29.751 0 0 1-8.703 21.009c-5.703 5.401-13.205 8.703-21.61 8.703-1.498 0-3 0-4.201-.302-.599 0-1.201 0-1.502-.301-3.599 3.301-7.804 6.004-12.005 7.803-5.401 2.402-11.104 3.603-16.803 3.603-12.009 0-22.812-4.803-30.314-12.606-7.803-7.804-12.606-18.606-12.606-30.31 0-6.306 1.205-12.306 3.603-17.406 1.804-4.205 4.502-8.104 7.502-11.405-.297-.603-.598-1.201-.899-1.804l-9.904 5.406 8.105-8.703c-.603-1.201-1.201-2.703-1.804-4.205-1.498-4.502-2.397-9.302-2.397-14.104 0-6.904 1.498-13.507 4.502-19.205.298-.603.599-1.201.899-1.804-3.301-1.2-5.702-3.603-7.506-6.301-.598 0-.896-.302-1.498-.302-.603-.301-1.502-.301-2.1-.598-3.301 3.301-7.506 5.401-12.306 5.401.599 1.2 1.201 2.401 1.803 3.603 2.996 5.698 4.498 12.301 4.498 19.205 0 4.803-.899 9.603-2.397 14.104-1.205 3.301-2.703 6.306-4.502 9.306 3 3.301 5.699 7.2 7.498 11.405 2.401 5.101 3.606 11.101 3.606 17.406 0 7.201-1.502 13.804-4.803 19.808l6.904 7.2-8.406-4.502c-1.799 3.005-3.903 5.402-6.004 7.804-7.799 7.804-18.603 12.606-30.31 12.606-6 0-11.707-1.2-16.804-3.603-4.502-1.799-8.707-4.502-12.309-7.803-.301.301-.9.301-1.498.301-1.201.302-2.703.302-4.201.302-8.406 0-15.908-3.302-21.611-8.703a29.751 29.751 0 0 1-8.703-21.009c-9.301-1.803-17.109-6.603-23.109-13.205-7.205-7.506-11.406-17.707-11.406-28.812 0-1.804 0-3.603.301-5.703.301-.603.301-1.2.301-1.803-6.904-4.201-12.904-9.904-17.406-16.804-4.803-7.804-7.506-16.808-7.506-26.711 0-8.104 1.803-15.607 5.104-22.511 1.799-3.302 3.598-6.302 6-9.004-.301-1.197-.301-2.101-.301-3.302 0-2.397.301-4.498 1.205-6.603-.904-1.498-1.803-3-2.402-4.201-2.402-5.101-3.603-10.502-3.603-16.205 0-4.502.9-9.004 2.402-13.205-1.502-3-2.104-6.305-2.104-9.904 0-13.205 10.209-23.709 23.113-24.01.899-6.902 3.598-13.504 7.799-18.906 2.104-2.703 4.502-4.804 7.205-6.904-2.402-2.402-4.201-5.703-4.201-9.603 0-.601 0-1.201.301-1.801-1.799-2.101-3.004-5.103-3.004-8.104 0-6.902 5.703-12.604 12.606-12.604.599 0 1.201 0 1.803.301 1.799.299 3.599 1.201 4.799 2.4.297 0 .599 0 .899-.299l.603.601c.9-.301 2.101-.601 3-.601.297 0 .599 0 .599.299 1.502.301 3.004 1.502 3.603 2.701.301 0 .598 0 1.201-.299 6.301-5.703 14.703-9.303 23.707-9.904-1.498-1.5-2.401-3.6-2.401-6.002 0-1.801.301-3.301 1.205-4.502-.603-1.201-.903-2.402-.903-3.601 0-2.401 1.205-4.803 2.703-6.303-3.004-2.101-5.104-5.703-5.104-9.604 0-6.301 5.104-11.103 11.406-11.103 2.402 0 4.803.598 6.904 2.1 1.799-2.1 4.803-3.301 8.101-3.301 6.004 0 11.104 5.101 11.104 11.404v1.801c.603-.301 1.205-.6 1.803-.901a12.634 12.634 0 0 1 11.104-6.603h2.101c2.402.901 4.201 2.401 6.004 4.203.301-.301.301-.6.599-.6.598.299.899.6 1.201.899 2.402-2.101 5.703-3.301 9.306-3.301.896 0 1.799 0 2.401.301 1.197.299 2.101.601 2.996 1.199v-2.701c0-8.703 6.904-15.906 15.908-15.906 4.502 0 8.405 1.801 11.405 4.803 2.699-2.103 6-3.301 9.603-3.301 9.004 0 16.205 7.201 16.205 15.906 0 5.701-3 10.803-7.502 13.504.603.6 1.201 1.5 1.804 2.1h.899c7.803 0 15.004 2.103 21.31 6.004 5.401 3.301 10.201 8.103 13.502 13.504h.302c9.004 0 17.104 3.002 23.711 8.404 2.101-6.603 6.603-12.305 12.903-16.207 13.804-7.803 31.214-3 39.013 10.504 3.302 5.703 4.502 12.305 3.603 18.308 7.205 1.801 13.808 6.303 17.707 13.504 8.104 13.506 3.302 30.912-10.502 39.017-2.101 1.201-4.502 2.101-6.603 2.701l-6.309 5.403z"/><g fill="#4E5A62"><path d="M121.548 156.962c0 6.902 4.502 12.904 11.105 15.004h.301c.896 0 1.498.301 2.401.301 2.996 0 5.699-.901 8.101-2.401.301.301.603.301 1.201.301 1.502 1.199 3 2.399 5.101 2.701 0 .299 0 .299.301.299h1.799c3.904 0 7.506-1.801 9.908-4.502 2.101.601 4.201.601 6 0 2.703-.6 4.803-2.399 6-4.502 1.502.301 3.004.301 4.502 0 .602-.299 1.502-.598 2.1-.899 1.205 0 2.101 0 3.306-.299 3.598-.901 6.301-4.203 6.301-8.104v-.299c0-.6 0-.899-.301-1.201 0-.601 0-.899-.301-1.201v-.601c.301-.899.603-1.799.903-2.701v-.601c-.301 0-.301-.299-.301-.601 0-.299-.301-.899-.301-1.201 0-.299 0-.299-.301-.598.603-.902.603-2.103.603-3.002v-.299c0-.601 0-.902-.301-1.502-.301-1.799-1.201-3-2.402-4.201.301 0 .904-.301 1.201-.301.301.301.9.301 1.201.301 1.201.899 2.401 1.5 3.899 1.801h.301c.603.299 1.201.299 1.799.299 5.406 0 10.209-3.301 12.008-8.103h1.197c.602 0 1.506 0 2.104-.301h.297c.301 0 .603-.299 1.205-.299.896.299 1.799.601 2.699.899 0 0 0 .301.297.301h2.104c1.201 0 2.1 0 3-.301.603.301 1.201.601 1.799.601 1.205 1.201 2.703 2.101 4.201 2.701.301 0 .301.301.603.301h1.201c.899 0 1.803-.301 2.699-.301.603.301 1.205.301 1.803.301 1.502 1.201 3.301 2.101 5.402 2.701h.301c.899 0 1.799.299 2.703.299.599 0 1.498-.299 2.397-.299 2.101 6.901 8.703 11.705 15.908 11.705.899 0 1.799-.301 2.699-.301h.301c2.101-.601 3.899-1.5 5.401-2.701.603 0 1.201 0 1.8-.299.903 0 1.803.299 3.004.299h.899c.302 0 .302 0 .599-.299 1.502-.601 3.004-1.502 4.205-2.703.598 0 1.196-.299 1.799-.598.899.299 1.799.299 3 .299h2.101c.301 0 .301 0 .301-.299 6.603-1.801 10.804-7.504 10.804-14.406 0-2.1-.599-4.203-1.498-6.002.599-1.801.899-3.301.899-5.103 0-3.002-.899-6.002-2.702-8.703 3.903-3.301 6.305-8.404 6.305-13.806 0-9.904-8.104-18.008-18.31-18.008-3.301 0-6.603.902-9.603 2.701-3-2.701-7.205-4.201-11.405-4.201-9.904 0-18.009 7.502-18.306 17.406 0-.299 0-.299-.301-.299h-2.699c-3.306 0-6.306.9-9.306 2.402-.301-.301-.899-.301-1.498-.301-1.506-1.5-3.606-2.701-5.707-3.301h-.301c-.896 0-1.498-.299-2.398-.299-4.205 0-8.104 1.799-10.807 5.101-1.498-6.002-6.9-10.803-13.205-10.803-3.297 0-6 1.201-8.402 3.002-2.101-1.201-4.502-1.801-6.603-1.801-7.502 0-13.803 6.002-13.803 13.504 0 3.901 1.799 7.504 4.498 9.904a10.848 10.848 0 0 0-1.799 6.004c0 1.199 0 2.4.603 3.601-.603 1.201-1.201 2.701-1.201 4.502 0 4.801 3.301 9.303 8.105 10.804h.598c-1.803.6-3.301 1.502-4.502 3.002h-.297c-2.104.6-3.606 1.5-5.104 3-2.401-1.799-5.703-2.4-8.703-1.5h-.301c-.9-.601-1.799-.9-2.703-1.201h-.297c-.599-.299-1.502-.299-2.101-.299-.9 0-1.502 0-2.402.299-.301-.299-.899-.299-1.502-.299-.899-1.201-2.101-2.101-3.598-2.701H144.656c-.899 0-1.803 0-2.401.299-.599-.299-.9-.299-1.502-.299-1.498-1.201-3-1.801-4.502-2.401h-.297c-.9 0-1.803-.299-2.402-.299-8.406 0-15.008 6.902-15.008 15.004 0 3.301 1.205 6.303 3.004 8.705v1.198zm49.816-33.314c0-1.801.301-3.301 1.205-4.502-.603-1.201-.903-2.402-.903-3.601 0-2.401 1.205-4.803 2.703-6.303-3.004-2.101-5.104-5.703-5.104-9.604 0-6.301 5.104-11.103 11.406-11.103 2.402 0 4.803.598 6.904 2.1 1.799-2.1 4.803-3.301 8.101-3.301 6.004 0 11.104 5.101 11.104 11.404v1.801c.603-.301 1.205-.6 1.803-.901a12.634 12.634 0 0 1 11.104-6.603h2.101c2.402.901 4.201 2.401 6.004 4.203.301-.301.301-.6.599-.6.598.299.899.6 1.201.899 2.402-2.101 5.703-3.301 9.306-3.301.896 0 1.799 0 2.401.301 1.197.299 2.101.601 2.996 1.199v-2.701c0-8.703 6.904-15.906 15.908-15.906 4.502 0 8.405 1.801 11.405 4.803 2.699-2.103 6-3.301 9.603-3.301 9.004 0 16.205 7.201 16.205 15.906 0 5.701-3 10.803-7.502 13.504 2.401 2.401 3.903 5.401 3.903 9.004 0 1.801-.301 3.601-1.2 5.103 1.2 1.799 1.498 3.902 1.498 6.002 0 6.002-3.599 10.804-9 12.304-.603 0-1.201.301-1.804.301-1.498 0-2.698-.301-3.899-.601 0 .299-.302.299-.603.601-.297 0-.599-.301-1.201-.301-.899 1.502-2.397 2.701-4.2 3.301h-.599c-1.201 0-2.401 0-3.302-.601-.301.301-.602.601-.899.601-.301 0-.603 0-.903-.299-1.498 1.5-3.599 2.701-5.699 3.301h-2.401c-6.904 0-12.908-5.103-14.104-12.004-1.502.299-3.004.601-4.201.601-.903 0-1.803 0-2.401-.301-2.101-.6-3.904-1.5-5.707-3-.297.299-.599.299-.896.299-.301 0-.603-.299-.904-.601-.899.301-2.101.601-3 .601h-.899c-1.799-.601-3.301-1.801-4.201-3.301-.603 0-.904.301-1.205.301l-.595-.601c-1.205.299-2.401.601-3.903.601-.599 0-1.201-.301-1.804-.301-1.196-.299-2.401-.9-3.297-1.5-.603.299-1.205.6-1.803.899h-1.803c-.896 0-2.101 0-2.996-.299-.904 4.801-5.104 8.402-10.209 8.402h-1.498c-1.498-.598-2.703-1.199-3.9-2.1h-.602c-.301 0-.603-.299-.603-.299-.896.299-1.498.299-2.397.299h-.599c-1.205-.299-2.401-1.201-3.004-2.4-.301.299-.603.299-.9.299 0-.299-.301-.299-.301-.601-.899.301-1.799.601-2.699.601-.603 0-.903 0-1.502-.299-3.605-.903-6.308-4.503-6.308-8.405zm-50.418 23.409c0-6.902 5.703-12.604 12.606-12.604.599 0 1.201 0 1.803.301 1.799.299 3.599 1.201 4.799 2.4.297 0 .599 0 .899-.299l.603.601c.9-.301 2.101-.601 3-.601.297 0 .599 0 .599.299 1.502.301 3.004 1.502 3.603 2.701.301 0 .899 0 1.201-.299 0 .299.301.601.301.601 1.197-.301 2.101-.301 3.301-.301h1.799c1.201.301 2.1.902 3 1.502.301 0 .903-.301 1.205-.301 2.699-.899 5.699.301 7.799 2.101.301 0 .603 0 .904-.299h.598c.9-1.5 2.699-2.701 4.502-3.301.297 0 .598 0 .899-.299.899-1.201 2.402-2.402 4.201-2.703 3.9-1.199 7.804 1.201 9.004 5.103 0 .301 0 .902.301 1.201 0 .9-.301 2.101-.904 3.002 0 .299.301.299.301.299 0 .299-.301.601-.301.601.301.601.603.899.904 1.5v.301c0 1.201-.301 1.799-1.201 2.701.297 0 .297.299.598.601-.301 0-.301 0-.301.299.301.301.603.901.603 1.801 0 .299.301.6.301.899-.301 2.701-2.101 5.103-4.803 6.002-1.201.301-2.101.301-3.301 0-.599.301-1.201.902-2.101 1.201-1.803.301-3.603 0-4.799-.9-.904 2.701-3.004 4.801-5.707 5.402-2.1.6-4.201.301-6-.9-1.799 3.301-5.401 5.402-9.305 5.402-.599 0-1.197-.301-1.498-.301-2.101-.598-3.9-1.799-5.406-3.301 0 0-.297.301-.599.301-.297 0-.598-.301-.899-.601-2.101 1.5-4.803 2.701-8.101 2.701-.603 0-1.506 0-2.104-.299-5.401-1.502-9.603-6.603-9.603-12.604 0-.601 0-1.201.301-1.801-1.798-2.105-3.002-5.107-3.002-8.109z"/><path d="M426.766 162.964c-3.899-6.603-9.903-11.705-17.406-14.106.599-6.002-.899-12.306-3.899-17.708-8.707-14.705-27.61-19.807-42.317-11.104-8.406 4.803-13.808 13.205-15.009 22.511-5.698-.902-11.703 0-16.506 3a22.206 22.206 0 0 0-6.9 6.002c-3.903.301-7.803 1.502-11.104 3.301-9.606 5.404-14.405 16.808-11.707 27.611-.598.601-1.2 1.201-1.498 1.801-.301 0-.899 0-1.2.299-3.603.901-6.603 3.002-9.005 6.004h-.301c-.297 0-.297.299-.599.299-4.2-3.601-10.205-5.103-15.606-3.601-.301 0-.603 0-.899.299-1.804-1.201-3.603-1.801-5.401-2.402l-.302-.299h-3.603c-1.498 0-3.301 0-5.101.299-.301-.6-1.2-.899-2.1-.6h-.603c-1.799-2.101-3.899-3.902-6.603-4.801h-2.1c-1.799 0-3.301 0-4.803.6-.297 0-.297-.299-.598-.299-.599-.601-1.201-.601-2.101-.301a26.791 26.791 0 0 0-8.703-4.502h-.301c-1.201-.299-2.699-.299-3.904-.299-8.703 0-16.804 4.502-21.306 11.404h-.603a11.41 11.41 0 0 0-4.502 0c-1.498-2.402-3.899-4.201-6.603-5.103-2.101-.299-4.201-.299-6.301.301-2.703-3.002-6.301-4.801-10.502-4.801h-2.402c-2.101.598-3.899 1.799-5.402 3-.598 0-.899.301-1.502.301-2.401-1.502-5.401-2.103-8.402-2.103h-2.703-.301c-4.799 1.502-8.703 5.103-10.502 9.904h-.301c-6.603 0-12.603 2.401-17.406 6.604-4.201-2.703-9.306-4.203-14.406-4.203-14.406 0-26.109 11.705-26.109 26.111 0 7.804 3.603 15.306 9.904 20.41-3.004 3.599-4.502 8.101-4.502 12.904 0 2.699.301 5.101 1.201 7.502-1.201 3-2.1 6-2.1 9.301 0 9.306 6.301 17.707 15.305 20.41h.297c.904.301 2.101.301 3.004.301 1.799 0 3.301-.301 4.803-.602.599.602 1.498.899 2.101.899.301-.298.301-.298.599-.298 1.803 2.101 3.903 3.599 6.305 4.503.297.297.297.297.598.297h1.502c1.498 0 3-.297 4.502-.599 0 0 .297 0 .297.302.599.297 1.502.598 2.101.297h.301c2.402 1.803 5.101 3.301 8.104 3.903 0 .302 0 .302.301.302 1.197 0 2.397.297 3.599.297 11.104 0 20.41-7.201 23.41-17.707 1.502.301 3 .603 4.502.603 1.201 0 2.397 0 3.899-.302 3-.899 5.703-2.401 8.104-4.2h.301c.599.301 1.498 0 2.101-.302l.301-.301c1.498.301 3 .603 4.502.603h2.101c2.401-.899 4.799-2.703 6.301-4.804.301.302.301.302.598.302.599 0 1.502-.302 2.104-.9 1.498.599 2.996.599 4.799.599.899 0 2.101 0 3-.301h.301c9.004-2.699 15.306-10.804 15.306-20.406 0-1.799-.301-3.603-.603-5.104 1.205 0 2.401.301 3.606.301 5.101 0 10.201-1.799 14.402-4.502.301 0 .301 0 .301.301.603.602 1.799.602 2.703.301 2.402 2.402 5.699 4.502 9 5.402h.301c1.201.297 2.401.297 3.302.297 7.205 0 13.506-3.297 17.707-8.703 3.603 1.502 7.205 1.502 11.104.603 4.502-1.201 8.401-4.502 10.506-8.703 2.699.9 5.699.9 8.402.301 1.502-.301 3-.904 4.2-1.799h3c7.804 13.502 25.214 18.302 38.716 10.502 5.703-3.301 9.903-8.104 12.306-14.109.899-.598 1.803-.896 2.702-1.498 6.001-3.603 10.804-9.004 13.205-15.606.298-.299.9-.299 1.201-.601.899-.601 1.498-.899 2.101-1.201 9.301 5.103 20.707 4.803 30.013-.601 14.706-8.4 19.811-27.308 11.405-42.013zm-12.603 40.216c-9.306 5.402-20.41 4.801-29.113-.301-.899.6-1.799 1.201-2.702 1.801-.9.299-1.498.9-2.397 1.201-1.804 6.301-6.005 11.705-12.306 15.308-.899.598-2.101.896-3.302 1.498-2.101 5.703-6.004 10.804-11.405 13.808-12.603 7.201-28.812 3-36.013-9.606-.302-.301-.302-.599-.603-1.197a13.035 13.035 0 0 1-4.799 0c-1.201.896-2.703 1.498-4.205 2.1-3 .599-6.302.301-9-1.205-1.201 4.502-5.104 8.108-9.904 9.606-3.903.9-7.803.301-11.104-1.498-3.603 5.699-9.903 9.599-17.108 9.599-.9 0-1.8-.297-3-.297-3.603-1.201-6.904-3.301-9.302-6.305-.603.301-.904.603-1.506.904-.297-.603-.896-.904-1.498-1.502-3.9 3.301-9.306 5.1-14.703 5.1-1.502 0-2.703 0-3.904-.297-1.103-.277-2.202-.786-3.301-1.104v.505l.301.297v.598h.301v.602h.297v.899h.301v1.2h.297v1.2l.301.297v6.307l-.301.297V253.899l-.297.301v.598l-.301.598V256l-.297.301v.297l-.301.301v.603l-.301.297v.302l-.301.301-.301.302V259l-.301.301-.297.302v.297l-.297.302-.301.301v.302l-.301.297-.301.301-.301.302-.301.301v.298l-.297.301-.301.301-.297.298-.301.301-.301.302h-.301l-.301.301-.297.297-.301.302h-.297l-.301.301-.301.302-.301.297h-.301l-.301.301-.297.302h-.301l-.297.297h-.301l-.301.302h-.603l-.297.301h-.301l-.297.302h-.301l-.603.297h-.301c-.896 0-1.799.301-2.699.301h-1.501l-.301-.301H204.988l-.301-.297h-1.196v-.302h-.602c-.301.302-.603.599-.9.899-.598 0-1.201-.301-1.803-.301-1.498 2.101-3.599 3.903-6.301 4.803-.301.302-.899.302-1.197.302-1.803 0-3.305-.603-4.803-1.201-.603.302-.904.899-1.502 1.201-.297-.302-.9-.302-1.201-.603l-.301.301-.301.302h-.297v.297h-.297v.302h-.301l-.301.301h-.301v.302h-.301l-.301.297h-.297v.301h-.301l-.297.302h-.301l-.301.301h-.301v.297h-.598v.302h-.598l-.301.301h-.602v.302h-.899v.297h-.899c-.904.302-2.101.302-3.301.302a22.94 22.94 0 0 1-6.306-.9v.599l-.297.302v1.201l-.301.302v.598l-.297.302v.599l-.301.301-.301.599v.301l-.301.302-.301.598v.302l-.301.603-.297.297-.301.302v.598l-.297.302-.301.301-.301.302-.301.598-.301.302-.297.297-.301.302-.297.602-.301.298-.301.301-.301.302-.301.301-.598.297-.297.302-.301.301-.301.302-.301.297-.603.301-.297.302-.301.297h-.598l-.301.302-.301.301-.598.302h-.301l-.297.297-.603.301h-.301l-.598.302-.301.301h-.599l-.301.298h-.603l-.301.301H150.683l-.603.301H148.581l-.301.298H145.577c-1.201 0-2.101 0-3.301-.298-3.301-.899-6.004-2.401-8.406-4.502h-.297v.302h-1.501v-.302h-.301v-.301h-.297v-.302h-.598v.302h-.602l-.301.301h-.899v.302H125.173c-2.699-.904-4.799-2.703-6.301-4.804-.598 0-1.197.302-1.799.302-.301-.302-.603-.603-.899-.904-1.803.302-3.603.904-5.703.904h-.301v-.302h-2.4c-7.799-2.401-13.506-9.603-13.506-18.31 0-3.301.904-6.301 2.402-9l-.301-.301v-.603h-.297v-.919h-.301v-.899h-.297v-1.2h-.301V251.501h-.301V249.699c0-5.104 2.401-9.908 5.703-13.506-6.603-4.201-10.807-11.406-10.807-19.808v-3.302l.301-.6V211.581l.301-.598v-.601l.301-.601v-.6l.301-.601v-.601l.301-.6.297-.299.301-.601v-.6l.297-.601.301-.301.301-.598.301-.601.301-.301.297-.6.301-.299.297-.601.603-.301.301-.598.301-.301.297-.601.599-.299.301-.6.301-.301.603-.299.301-.301.599-.598.297-.301.603-.299.301-.301.598-.299.301-.301.599-.299.603-.301.301-.299.598-.301.599-.299.301-.299.603-.301h.599l.598-.299.603-.301h.301l.598-.299h.599l.603-.301h.603l.598-.299h1.804l.599-.301H115.58l.297.301H117.679l.297.299h.899l.301.301h.899l.301.299h.598l.301.301h.602l.301.299h.598v.301h.598l.301.299h.301l.301.299h.297l.301.301h.297v.299h.602v.301h.301l.301.299h.297v.301h.301l.297.299h.301v.301h.301l.301.299c4.201-4.502 10.201-7.203 17.105-7.203h1.799c1.205-4.801 5.104-8.703 9.606-9.904.899-.299 1.799-.299 2.401-.299 3.301 0 6.302 1.199 8.703 3 .301-.299.603-.601.899-.9.301.299.599.299.599.601 1.502-1.801 3.606-3.002 5.707-3.603.598-.299 1.197-.299 1.799-.299 4.201 0 7.799 2.4 9.904 5.701 1.799-1.199 4.201-1.5 6.301-.9 3 .601 5.1 3.002 6.004 5.703 1.498-.902 3.297-1.201 5.101-.902.899.301 1.502.601 2.1.902 3.904-7.203 11.406-12.006 20.406-12.006 1.205 0 2.401 0 3.606.301 3.297.899 6.301 2.402 8.703 4.801.598-.299.896-.299 1.498-.601l1.201 1.201c1.803-.9 3.603-1.201 5.401-1.201h1.201c2.699 1.201 5.1 3.002 6.603 5.404.598-.301 1.201-.301 2.1-.6.302.6.603.899.603 1.199 2.101-.599 3.899-.9 6-.9 1.201 0 2.101 0 3.302.301 2.101.599 3.903 1.5 5.702 2.701.599-.301 1.201-.301 1.8-.601 5.401-1.502 10.808.299 14.405 3.902.603 0 1.201-.301 1.804-.301.297-.299.599-.299 1.201-.299 1.799-3.002 4.502-5.103 8.101-6.002.602 0 1.2-.301 1.803-.301.899-1.201 1.799-2.402 3-3-.301-.601-.603-.902-.603-1.502-2.397-9.603 1.804-19.807 10.808-24.908 3.301-2.103 7.201-3.002 10.804-3.301 1.799-2.402 4.2-4.502 6.903-6.004 5.699-3.301 12.004-3.901 17.406-2.399.598-9.303 5.703-18.308 14.405-23.41 13.804-7.803 31.214-3 39.013 10.504 3.302 5.703 4.502 12.305 3.603 18.308 7.205 1.801 13.808 6.303 17.707 13.504 8.082 13.505 3.279 30.911-10.525 39.016z"/><path d="M222.686 240.694c.098.024.204.073.301.098v-.098h-.301z"/></g></g><metadata><rdf:RDF xmlns:rdf="http://www.w3.org/1999/02/22-rdf-syntax-ns#" xmlns:rdfs="http://www.w3.org/2000/01/rdf-schema#" xmlns:dc="http://purl.org/dc/elements/1.1/"><rdf:Description about="https://iconscout.com/legal#licenses" dc:title="brain,storm" dc:description="brain,storm" dc:publisher="Iconscout" dc:date="2017-09-22" dc:format="image/svg+xml" dc:language="en"><dc:creator><rdf:Bag><rdf:li>Graphiqa Stock</rdf:li></rdf:Bag></dc:creator></rdf:Description></rdf:RDF></metadata></svg>