<?xml version="1.0" encoding="UTF-8"?><!DOCTYPE svg PUBLIC "-//W3C//DTD SVG 1.1//EN" "http://www.w3.org/Graphics/SVG/1.1/DTD/svg11.dtd"><svg xmlns="http://www.w3.org/2000/svg" xmlns:xlink="http://www.w3.org/1999/xlink" version="1.1" id="Branding" x="0px" y="0px" width="512px" height="512px" viewBox="0 0 512 512" xml:space="preserve"><path id="Background" fill="#22FCAD" d="M256 0c141.355 0 256 114.645 256 256S397.355 512 256 512 0 397.355 0 256 114.645 0 256 0z"/><g id="Branding_1_"><path fill="#E6E6E6" d="M101.439 38.115h249.398l59.423 106.24v329.528H101.439z"/><path fill="#FC0" d="M156.36 54.92l20.41 11.705 20.41 12.007V125.749l-20.41 11.707-20.41 11.703-20.406-11.703-20.406-11.707V78.632l20.406-12.007z"/><path fill="#699" d="M114.042 155.46h84.587v8.894h-84.587z"/><path fill="#699" d="M114.042 176.77h104.346v8.89H114.042z"/><path fill="#699" d="M114.042 199.578h104.346v8.894H114.042z"/><path fill="#CFCFCF" d="M329.23 126.648l20.406-88.533 60.925 105.642z"/><path fill="#8AB88A" d="M38.117 307.619H336.43v166.264H38.117z"/><path fill="#9C9" d="M187.272 421.967l-74.427-57.322-74.728-57.026h298.615l-74.728 57.026z"/><path fill="#FC0" d="M57.624 444.774l4.803 2.699 5.1 3.004v11.703l-5.1 2.703-4.803 3-5.105-3-5.101-2.703v-11.703l5.101-3.004z"/><path fill="#ABDAB3" d="M72.929 451.678H281.16v8.891H72.929z"/><g id="_328972296"><path fill="#FC9" d="M420.163 107.142l-31.811-1.201 15.908-41.715z"/><path fill="#FC9" d="M420.163 107.142l-31.812-1.201 1.201-3.301c1.502-1.5 3.899-3.902 6.004-4.502 2.698-1.201 6 4.801 8.401 5.401 2.401.601 5.703-5.401 7.804-6.002 1.2-.601 4.502 3.301 7.2 6.303l1.202 3.302z"/><path fill="#4D4D4D" d="M400.355 74.13l3.905-9.904 3.597 9.904z"/><path fill="#E6B800" d="M420.163 107.142v341.532c0 17.707-31.812 17.707-31.812 0V105.941c4.201-1.201 6.301-5.703 7.804-5.703 1.799 0 4.502 5.703 8.104 5.703 3.598 0 6.603-7.203 8.1-5.703 1.202 1.201 4.202 3.902 7.804 6.904z"/><path fill="#FC0" d="M398.854 102.339c1.502 1.801 3.306 3.603 5.406 3.603 2.1 0 3.899-2.101 5.401-3.902v324.127h-10.808V102.339z"/><path fill="#E6B800" d="M420.163 107.142v319.025h-10.502V102.04c1.201-1.5 2.101-2.701 2.698-1.801 1.202 1.2 4.202 3.901 7.804 6.903z"/><path fill="#CFA600" d="M420.163 426.167v9.603h-31.811v-9.603z"/><path fill="#C30" d="M420.163 435.77v12.904c0 18.008-31.812 17.707-31.812 0V435.77h31.812z"/></g><path fill="#3B9373" d="M248.498 337.632h225.385v136.251H248.498z"/><path fill="#FC0" d="M291.113 354.138l10.205 5.703 9.904 5.703v23.41l-9.904 5.698-10.205 5.703-9.904-5.703-10.205-5.698v-23.41l10.205-5.703z"/><g fill="#56AFAC"><path d="M325.929 360.143h143.236v8.89H325.929z"/><path d="M325.929 383.548h143.236v8.895H325.929z"/><path d="M261.101 408.159h208.235v8.895H261.101z"/><path d="M261.101 435.77h208.235v8.895H261.101z"/></g><circle fill="#C30" cx="460.678" cy="462.18" r="6.301"/><circle fill="#FC0" cx="455.879" cy="462.18" r="6.301"/><path fill="#4E5A62" d="M473.883 328.628h-44.716V107.142c0-.901 0-2.1-.598-3.002l-15.908-43.215c-1.201-3.301-4.502-5.703-8.401-5.703-3.904 0-6.904 2.101-8.406 5.703l-9.004 23.408-28.209-50.72c-1.503-2.701-4.503-4.502-7.804-4.502H101.439c-5.104 0-9.004 4.203-9.004 9.004v260.5H38.117c-4.803 0-9.004 3.903-9.004 9.004v166.264c0 4.804 4.201 9.004 9.004 9.004h435.766c4.804 0 9.004-4.2 9.004-9.004V337.632c0-4.804-4.2-9.004-9.004-9.004zm0 145.255H38.117V307.619h63.322V38.115h249.397l34.515 61.523 3.301 5.703.9-2.701 10.803-28.51 3.904-9.904 3.598 9.904 11.104 29.711 1.201 3.301v230.49h53.72v136.251z"/></g><metadata><rdf:RDF xmlns:rdf="http://www.w3.org/1999/02/22-rdf-syntax-ns#" xmlns:rdfs="http://www.w3.org/2000/01/rdf-schema#" xmlns:dc="http://purl.org/dc/elements/1.1/"><rdf:Description about="https://iconscout.com/legal#licenses" dc:title="branding" dc:description="branding" dc:publisher="Iconscout" dc:date="2017-09-22" dc:format="image/svg+xml" dc:language="en"><dc:creator><rdf:Bag><rdf:li>Graphiqa Stock</rdf:li></rdf:Bag></dc:creator></rdf:Description></rdf:RDF></metadata></svg>