<?xml version="1.0" encoding="UTF-8"?><!DOCTYPE svg PUBLIC "-//W3C//DTD SVG 1.1//EN" "http://www.w3.org/Graphics/SVG/1.1/DTD/svg11.dtd"><svg xmlns="http://www.w3.org/2000/svg" xmlns:xlink="http://www.w3.org/1999/xlink" version="1.1" id="Build" x="0px" y="0px" width="512px" height="512px" viewBox="0 0 512 512" xml:space="preserve"><circle id="Background" fill="#51A8B1" cx="256" cy="256" r="256"/><g id="Build_1_"><path fill="#FC9" d="M359.841 184.569l-14.405-15.904 30.912-15.904z"/><path fill="#FC9" d="M359.841 184.569l-14.405-15.904 2.401-1.201c1.498-.301 3.899-.301 5.401 0 1.8.904 0 5.703.899 7.205.9 1.498 5.703-.301 7.201.301.603.297.302 4.201-.297 7.201l-1.2 2.398z"/><path fill="#4D4D4D" d="M369.143 156.661l7.205-3.9-3.905 7.201z"/><path fill="#E6B800" d="M359.841 184.569L167.766 376.648c-9.904 9.904-24.912-5.401-15.004-15.31l192.674-192.674c2.698 1.201 6.301-.297 6.903.599.899.603-1.201 5.406.599 6.904 1.799 1.799 7.205-.9 7.205.603-.302 1.498-.302 4.502-.302 7.799z"/><path fill="#FC0" d="M352.339 171.666c0 1.803-.301 3.602.599 4.502.899.904 3 .603 4.803.301L175.268 358.941l-4.799-5.104 181.87-182.171z"/><path fill="#E6B800" d="M359.841 184.569L180.368 363.74l-5.101-4.799L357.74 176.469c1.201-.301 2.402-.301 2.402.301-.301 1.498-.301 4.502-.301 7.799z"/><path fill="#CFA600" d="M180.368 363.74l-5.397 5.403-15.009-15.005 5.402-5.402z"/><path fill="#C30" d="M174.971 369.143l-7.205 7.506c-9.904 9.904-24.912-5.401-15.004-15.31l7.201-7.201 15.008 15.005z"/><path transform="matrix(-0.8272 -0.5619 0.5619 -0.8272 330.7453 634.2688)" fill="#FED267" d="M109.068 253.511h307.647v25.543H109.068z"/><path fill="#E5BD5D" d="M135.653 179.77L390.15 352.636l-7.2 10.507-254.498-172.867z"/><g><path fill="#4D4D4D" d="M229.781 173.009l-61.739 90.896c-4.005 5.895-10.673 8.341-14.898 5.471l-34.405-23.369c-4.229-2.87-4.413-9.973-.407-15.863l61.739-90.9c4.001-5.89 10.669-8.341 14.898-5.471l34.404 23.37c4.227 2.868 4.41 9.971.408 15.866z"/><path fill="#454545" d="M135.954 257.799l-17.109-11.703c-4.201-3-5.402-8.703-2.699-12.908l66.025-96.938c2.699-4.201 8.703-5.399 12.904-2.401l17.109 11.707-76.23 112.243z"/></g><path fill="#4E5A62" d="M208.879 72.329c1.803-.301 3.305.6 3.903 2.401.301 1.5-.598 3.301-2.397 3.601l-.301.301-.903.299-1.197.299-1.205.301-.896.299-1.205.301c-1.799.299-3.297-.601-3.899-2.101-.603-1.801.301-3.603 2.101-3.901l1.201-.301 1.201-.299 1.201-.301.9-.299 1.201-.301.295-.299zm-24.009 8.102c1.804-.9 3.603 0 4.201 1.502.603 1.799-.297 3.601-1.799 4.201h-.598l-.9.601-1.205.299-.896.6-1.205.301-.896.601c-1.502.598-3.305 0-3.904-1.801-.899-1.5 0-3.301 1.502-3.902l.9-.6 1.201-.299.899-.601 1.201-.301.899-.6h.6zm-22.506 10.805c1.502-.901 3.301-.301 4.201 1.199.899 1.502.301 3.301-1.201 4.203l-.603.299-.896.601-.904.601-1.197.6-.904.601-.899.601c-1.502.899-3.301.299-4.201-1.201-.9-1.5-.301-3.301.899-4.201l1.201-.601.9-.6.903-.601.896-.601 1.205-.6.6-.3zm-21.31 14.105c1.502-1.201 3.301-.899 4.502.601.903 1.201.903 3.301-.603 4.201l-.297.301-.899.601-.904.899-.896.601-.904.601-.899.899c-1.201.902-3.301.902-4.502-.601-.9-1.199-.9-3.301.598-4.201v-.301l.904-.598.899-.601.9-.902.899-.6.9-.601.302-.299zm-18.904 16.506c1.197-1.201 3.297-1.201 4.498 0s1.201 3.301 0 4.502h-.297l-.603.899-.9.601-.899.901-.603.899-.899.601v.299c-1.201 1.5-3.301 1.5-4.502.301-1.201-1.201-1.502-3.301-.297-4.502l.297-.299.899-.902.904-.6.598-.9.9-.899.602-.601.302-.3zm-16.811 18.906c1.205-1.197 3.004-1.498 4.502-.599 1.502 1.201 1.502 3 .603 4.502l-.603.9-.598.899-.899.899-.603.904-.599.9-.301.297c-.899 1.502-3 1.803-4.502.904-1.201-1.201-1.502-3.004-.598-4.502l.301-.301.598-1.201.899-.899.603-.899.599-.9.598-.904zm-13.803 21.013c.899-1.502 2.699-1.803 4.201-1.205 1.502.904 2.104 3.004 1.201 4.502l-.602.602-.599 1.201-.297.899-.603.899-.603.9-.297.603c-.899 1.799-2.699 2.1-4.205 1.498-1.498-.9-2.101-2.699-1.197-4.201l.301-.598.598-1.201.599-.903.301-.896.602-1.205.6-.895zm-11.105 22.803c.598-1.498 2.401-2.398 3.903-1.799 1.799.603 2.402 2.401 1.799 4.201l-.301.904-.301.899-.598 1.201-.297.899-.301 1.201-.301.603c-.602 1.498-2.401 2.397-3.899 1.799-1.803-.603-2.703-2.402-2.101-3.9l.297-.903.301-.9.598-1.201.301-.899.603-1.201.297-.904zm-8.105 24.013c.603-1.803 2.402-2.699 3.904-2.402 1.803.599 2.699 2.402 2.402 3.904l-.301.301-.297.896v1.205l-.301 1.197-.301.904-.301 1.196v.301c-.301 1.502-2.101 2.703-3.9 2.402-1.502-.603-2.703-2.101-2.1-3.899v-.301l.301-.904.297-1.197v-1.201l.297-1.201.3-1.201zm-4.502 24.908c.301-1.799 1.803-3 3.306-2.699 1.799 0 3 1.502 3 3.301l-.301.9v1.201l-.297 1.201v2.398l-.301.301c0 1.803-1.502 3.004-3.305 3.004-1.498-.301-2.996-1.799-2.699-3.305v-1.8l.301-1.197v-1.205l.297-1.197v-.903zm-1.197 25.213c-.301-1.804 1.197-3.306 3-3.306 1.502 0 3 1.502 3 3.004V262.003l.301 1.197v1.502c0 1.502-1.201 3-3.004 3.301-1.799 0-3.297-1.502-3.297-3v-6.3zm1.8 24.908c-.301-1.503.899-3 2.703-3.302 1.799-.301 3.297.899 3.598 2.401v1.201l.301 1.201v1.196l.301 1.201.301.903v.599c.297 1.502-.904 3.301-2.402 3.603-1.799.301-3.305-.899-3.603-2.703l-.301-.297v-1.201l-.297-1.201-.301-1.2v-1.201l-.301-.899v-.301zm5.402 24.908c-.599-1.799.301-3.301 2.1-3.899 1.502-.603 3.301.599 3.904 2.101v.599l.301 1.2.599.904.297 1.196.301 1.201.301.903c.301 1.498-.301 3.302-2.101 3.899-1.498.302-3.301-.598-3.899-2.1l-.301-.9-.301-1.2-.301-1.201-.301-.899-.297-1.201-.302-.603zm8.405 23.711c-.603-1.502.297-3.302 1.799-4.201 1.498-.603 3.301 0 3.9 1.799l.603.603.301 1.197.598.903.297.899.603 1.201.301.599c.603 1.502 0 3.301-1.502 4.2-1.502.603-3.301 0-4.201-1.498l-.297-.603-.603-1.2-.301-.899-.603-1.201-.297-.899-.598-.9zm11.703 22.506c-.899-1.498-.301-3.599 1.201-4.498 1.498-.903 3.301-.301 4.201 1.201l.603.599.297.899.599.899.603 1.201.603.899.598.603c.899 1.502.599 3.301-.899 4.2-1.502.9-3.301.599-4.201-.899l-.603-.603-.602-.899-.599-.899-.598-1.201-.603-.899-.6-.603zm14.708 20.41c-1.205-1.201-.904-3.302.301-4.201 1.498-1.2 3.297-.899 4.498.302l.301.598.9.9.602.899.599.903.899.599.603.899c1.197 1.201.9 3.302-.301 4.502-1.201.899-3.301.899-4.502-.598l-.603-.603-.598-.9-.9-.899-.603-.899-.896-.903-.3-.599zm17.104 18.607c-1.201-1.2-1.201-3 0-4.502.899-1.201 3.004-1.201 4.201 0l.301.302.899.899.9.603.603.598.899.9.9.602v.298c1.502 1.2 1.502 3.004.301 4.205-1.201 1.498-3.004 1.498-4.201.297h-.301l-.899-.899-.9-.599-.602-.899-.9-.603-.899-.899-.302-.303zm19.506 16.205c-1.498-1.196-1.799-3-.9-4.498 1.201-1.2 3-1.502 4.502-.603l.899.603.904.899.896.599.904.603 1.201.599.297.301c1.205.899 1.804 2.699.603 4.201-.899 1.502-2.703 1.799-4.201.899l-.301-.301-.899-.599-.9-.599-.904-.603-1.196-.899-.905-.602zm21.31 13.205c-1.502-.599-2.101-2.698-1.201-4.201.903-1.497 2.703-2.1 4.201-1.2l.904.603 1.197.598.903.302.9.599 1.201.603h.301c1.498.899 2.101 2.698 1.498 4.2-.9 1.502-2.703 2.402-4.201 1.502l-.602-.301-.9-.302-.899-.598-1.201-.603-.899-.599-1.202-.603zm23.109 10.507c-1.799-.599-2.402-2.402-1.799-3.904.598-1.799 2.401-2.397 3.899-1.799h.301l.9.301 1.201.302.899.598 1.201.302.903.297h.297c1.803.603 2.699 2.401 2.101 4.205-.599 1.498-2.398 2.397-3.904 1.799h-.297l-1.201-.598-1.201-.302-.9-.301-1.201-.302-1.199-.598zm123.949 3c-1.502.602-3.301-.302-3.903-1.8-.599-1.799.301-3.603 2.101-4.2l.903-.302.899-.301 1.201-.302 1.201-.297.899-.302.599-.301c1.502-.599 3.301.301 3.903 1.804.599 1.799-.301 3.598-1.804 3.899l-.598.301-1.201.302-.899.598-1.201.302-1.2.297-.9.302zm23.41-9.302c-1.502.899-3.301.297-3.903-1.502-.899-1.502-.302-3.302 1.502-3.899l.899-.603.899-.599 1.201-.301.899-.603.899-.599h.603c1.498-.899 3.302-.302 4.201 1.201.599 1.502 0 3.301-1.502 4.2l-.297.302-1.201.598-.899.302-1.201.603-.903.599-1.197.301zm22.205-12.305c-1.498.899-3.301.599-4.2-.899-1.201-1.201-.599-3.301.899-4.205l.903-.599.899-.598.9-.603.899-.599.899-.603.301-.301c1.502-1.197 3.603-.899 4.502.603.9 1.502.599 3.301-.899 4.2l-.301.603-1.201.599-.899.599-.899.603-.899.598-.904.602zm20.11-15.008c-1.201 1.2-3.302.903-4.201-.298-1.201-1.502-1.201-3.301.301-4.502l.599-.603.899-.598.603-.9.899-.602.9-.9.603-.301c1.2-1.201 3.301-1.201 4.502 0 .899 1.201.899 3.301-.302 4.502l-.603.603-.899.599-.899.899-.899.603-.899.899-.604.599zm18.007-17.707c-.899 1.2-3 1.502-4.201.301-1.502-1.201-1.502-3.301-.301-4.502l.301-.297.9-.904.598-.899.603-.899.9-.599.598-.903c1.201-1.498 3.004-1.498 4.502-.599 1.201 1.201 1.503 3.302.302 4.502l-.599.899-.903.9-.599.899-.899.603-.603.899-.599.599zm15.607-19.808c-.899 1.2-3.004 1.803-4.2.603-1.502-.9-1.804-2.703-.904-4.201l.302-.301.603-.9.598-.899.599-.903.603-.899.599-1.201c.903-1.498 2.703-1.799 4.205-.899 1.498.899 2.101 2.703 1.196 4.2l-.297.302-.603.899-.599.899-.603.904-.598.899-.603.899-.298.598zm12.904-21.908c-.899 1.502-2.703 2.101-4.201 1.502-1.502-.899-2.101-2.703-1.502-4.201l.302-.301.301-1.201.599-.899.301-.899.599-1.201.603-.899v-.301c.599-1.502 2.401-2.101 4.201-1.502 1.502.899 2.1 2.702 1.502 4.2l-.302.302-.301.899-.599 1.2-.603.9-.297 1.2-.603.904v.297zm9.603-23.41c-.599 1.804-2.397 2.703-3.899 2.104-1.502-.603-2.402-2.401-2.101-3.903l.297-.599.302-.899.301-1.201.302-.903.598-1.201.302-1.196c.301-1.502 2.101-2.402 3.899-2.104 1.502.603 2.401 2.401 2.101 3.903h-.298l-.301 1.201-.301 1.2-.302.9-.297 1.2-.302 1.201-.301.297zm6.602-24.306c-.297 1.8-2.101 2.699-3.599 2.397-1.803-.297-3.004-1.799-2.703-3.598l.302-.904.297-1.196v-1.201l.302-.903.301-1.201v-.599c.301-1.799 1.799-2.698 3.603-2.698 1.799.297 2.699 2.101 2.699 3.599l-.298.602v1.201l-.301 1.201-.302 1.196-.301 1.201v.903zm3.301-24.912c-.297 1.502-1.799 3-3.301 2.703-1.8 0-3-1.502-3-3.301v-3.005l.301-1.2v-1.8c0-1.799 1.498-3 3-3 1.8 0 3.302 1.498 3 3.302v6.301zm-.297-25.51c.297 1.799-1.201 3.301-2.703 3.301-1.799.301-3.301-.899-3.301-2.699l-.302-1.201v-2.104l-.297-1.197v-1.502c-.301-1.799.899-3.301 2.699-3.603 1.803 0 3.301 1.205 3.301 2.703v.603l.302 1.197v1.201l.301 1.201v2.1zm-3.301-24.908c.297 1.799-.904 3.301-2.402 3.603-1.803.297-3.301-.603-3.903-2.402v-.904l-.297-.896-.302-1.205-.301-1.196v-.904l-.302-.9c-.297-1.502.603-3.301 2.402-3.602 1.502-.301 3.301.602 3.602 2.1l.302.904.297 1.197v.904l.302 1.197.301 1.205.301.899zm-6.904-24.31c.599 1.502-.301 3.301-1.799 3.903-1.502.599-3.306-.301-3.904-1.803l-.301-.301-.297-.899-.302-1.201-.301-.9-.599-1.201-.301-.899v-.301c-.599-1.799 0-3.599 1.502-4.201 1.799-.603 3.598.301 4.2 1.799v.301l.599 1.201.302.9.301 1.201.599 1.201.301.9v.3zm-9.903-23.109c.899 1.498.301 3.301-1.201 4.201-1.799.603-3.603 0-4.201-1.498l-.301-.301-.302-.903-.598-.9-.603-1.201-.599-.9-.301-.899-.302-.301c-.899-1.498-.297-3.301 1.201-4.201 1.502-.9 3.301-.301 4.205 1.201l.297.297.301.903.599 1.201.603.899.599.899.603 1.201v.302zm-12.904-21.908c.899 1.498.599 3.599-.903 4.502-1.201.9-3.302.599-4.201-.903l-.899-.9-.599-.899-.603-.899-.598-.9-.603-.904-.302-.301c-.899-1.498-.598-3.297.603-4.498 1.502-.9 3.302-.599 4.502.598l.302.301.598.899.599 1.201.603.899.599.899.902.905zm-15.607-19.809c.899 1.5.899 3.299-.301 4.504-1.201 1.197-3.302 1.197-4.503-.301l-.598-.603-.904-.9-.598-.899-.9-.601-.603-.899-.598-.301c-1.201-1.201-1.201-3.301 0-4.502 1.502-1.199 3.301-1.199 4.502 0l.599.601.602.6.9.902.899.899.603.9.9.6zm-18.31-17.406c1.201 1.201 1.502 3 .301 4.502-.899 1.199-3 1.5-4.2.299l-.603-.601-.899-.6-.9-.601-.899-.899-.899-.601-.603-.601c-1.498-.899-1.498-3.002-.599-4.201 1.201-1.502 3-1.801 4.503-.601l.598.601.9.601.899.598.903.902.899.6.599.602zM357.74 96.038c1.498.899 1.8 3 .9 4.502-.9 1.201-2.703 1.799-4.201.9l-.603-.299-.899-.601-.899-.6-.9-.601-.899-.601-.903-.6c-1.498-.9-2.101-2.701-1.201-4.201.904-1.502 2.703-2.1 4.205-1.201l.899.601 1.201.6.899.601.899.601.899.598.603.301zm-22.209-12.005c1.799.601 2.401 2.4 1.502 4.201-.603 1.5-2.401 2.101-3.903 1.5l-.599-.299-.903-.6-1.197-.299-.903-.601-1.201-.301-.899-.6c-1.498-.601-2.401-2.4-1.498-3.902.599-1.5 2.397-2.399 3.899-1.799l1.201.601.899.299 1.201.6.899.299 1.201.601.301.3zm-23.41-9.004c1.502.299 2.402 2.101 2.101 3.902-.599 1.5-2.401 2.401-3.899 1.801h-.899l-.904-.301-1.2-.299-1.197-.301-.903-.299-.899-.301c-1.498-.598-2.699-2.1-2.101-3.901.301-1.5 2.101-2.701 3.903-2.101l.599.301 1.201.299 1.2.301.899.299 1.201.301.898.299z"/><path fill="#2A2D40" d="M262.004 37.814l2.397.6 2.703-4.502c.302-.598 1.201-.899 1.8-.598l7.803 4.5c.899.301.899 1.201.603 2.103l-2.703 4.502 2.101 1.799 4.502-2.701c.603-.299 1.502 0 1.804.601l4.498 7.803c.301.601.301 1.5-.599 1.801l-4.201 2.701.9 2.4h4.803c.899 0 1.498.601 1.498 1.502v9.002c0 .902-.599 1.502-1.498 1.502h-4.502l-.301.899 4.2 1.801c.603.299.899 1.201.603 2.101l-3.903 8.103c-.302.6-1.201.901-1.8.6l-3.903-1.801-6.899 8.705v2.4c1.196.301 2.397 1.801 2.397 3.301 0 1.502-1.201 3.002-2.397 3.301v1.801c1.498.601 2.397 2.101 2.397 3.601 0 1.502-.899 3.002-2.397 3.301v1.201c1.498.601 2.397 2.103 2.397 3.603 0 1.801-1.498 3.301-3.302 3.601-.899 3.002-3.301 5.404-6.603 5.404h-17.104c-3.301 0-5.703-2.402-6.903-5.404-1.498-.601-2.703-1.799-2.703-3.601 0-1.201.904-2.701 2.101-3.301v-1.502c-1.197-.598-2.101-1.799-2.101-3.301 0-1.199.904-2.701 2.101-3.301v-2.101c-1.197-.6-2.101-1.799-2.101-3.301 0-1.201.904-2.399 2.101-3.301v-2.101c-.297-.299-.297-.601-.297-.9l-5.101-6.603-3.602 2.101c-.599.601-1.502.299-1.804-.301l-4.502-8.103c-.297-.6-.297-1.5.603-1.801l3.899-2.399-.896-2.701h-4.502c-.904 0-1.506-.601-1.506-1.502v-9.002c0-.901.602-1.502 1.506-1.502h4.799l.301-.601-4.502-2.1c-.599-.299-.9-1.201-.599-1.799l3.9-8.104c.301-.9 1.201-1.201 1.799-.9l4.803 2.402 1.799-2.103-3-4.201c-.598-.601-.301-1.5.297-1.801l7.506-5.103c.603-.601 1.498-.299 2.101.301l3 4.502L250 37.814v-5.402c0-.601.598-1.5 1.498-1.5h9.004c.899 0 1.502.899 1.502 1.5v5.402zm8.402 57.023h.301c1.201 0 2.101.899 2.101 2.1s-.899 2.101-2.101 2.101h-.301v4.203h.301c1.201 0 2.101 1.201 2.101 2.399 0 1.201-.899 2.103-2.101 2.103h-.301v3.601h.301c1.201 0 2.101 1.201 2.101 2.401 0 1.201-.899 2.101-2.101 2.101h-.603c-.899 3.301-3 5.402-5.703 5.402l-17.104.301c-2.703 0-4.803-2.401-5.703-5.401h-.297c-1.205 0-2.104-1.201-2.104-2.402s.9-2.1 1.803-2.1v-3.902c-.903 0-1.803-.902-1.803-2.103 0-1.199.9-2.101 1.803-2.101v-4.201c-.903-.301-1.803-1.201-1.803-2.402s.9-2.1 1.803-2.1v-3.301-.601h20.406-19.807l-6.603-8.703-4.799 2.701-4.502-7.803 4.799-2.701-1.201-5.103h-5.699v-9.002h6l.603-2.701-5.406-2.703 3.904-8.103 5.703 2.701 3.297-3.601-3.599-5.402 7.502-5.103 3.603 5.402 6.301-1.801V32.41h9.004v6.603l4.502 1.201 3.302-5.703 7.803 4.502-3.301 5.703 3.603 3.301 5.401-3.301 4.498 7.803-5.101 3 1.201 4.803h6.004v9.002h-5.703l-.603 3.002 5.104 2.401-3.903 8.402-5.101-2.399-7.803 10.203v3.904z"/><path fill="#2A2D40" d="M264.104 406.657c.599 0 .899 0 1.498.301l3.302-6c.301-.603 1.2-.903 1.803-.603l11.703 6.904c.899.301.899 1.2.603 1.799l-3.306 6.004c.302.302.603.599 1.201.899l5.703-3.301c.602-.302 1.502-.302 1.803.599l6.899 11.707c.302.598 0 1.502-.598 1.799l-5.402 3.302c0 .301.302.899.302 1.502h6.301c.899 0 1.498.598 1.498 1.502v13.502c0 .603-.599 1.201-1.498 1.201h-4.2l3.899 1.803c.603.298.899 1.197.603 2.101l-6.005 12.004c-.301.599-1.2.9-1.799.599l-5.104-2.401c-.297.603-.599 1.2-1.201 1.502l3.005 4.803c.598.599.297 1.498-.302 1.8l-11.104 7.804c-.603.301-1.502.301-2.101-.599l-3-4.205c-1.2.603-3.004.899-4.502 1.502v5.101c0 .903-.603 1.502-1.502 1.502h-13.205c-.899 0-1.498-.599-1.498-1.502v-5.101c-.904-.301-1.506-.603-2.104-.603l-2.699 4.502c-.301.603-1.201.904-1.799.603l-11.707-6.903c-.899-.302-.899-1.201-.603-1.8l2.703-4.803c-.603-.599-.899-.899-1.498-1.502l-4.803 2.702c-.603.302-1.502.302-1.799-.598l-6.904-11.707c-.301-.599 0-1.498.599-1.8l5.1-3c-.301-.603-.301-1.2-.598-1.803h-5.703c-.899 0-1.498-.599-1.498-1.201v-13.502c0-.904.598-1.502 1.498-1.502h4.201l-3.9-1.804c-.603-.297-.903-1.196-.603-1.799l6.004-12.306c.297-.599 1.201-.899 1.803-.599l6 2.699c.301-.297.603-.599.9-.899l-3.603-5.703c-.599-.599-.301-1.498.301-1.8l11.104-7.502c.603-.603 1.498-.301 2.101.302l3.602 5.401c1.201-.301 2.699-.603 3.904-.903v-6.9c0-.903.599-1.502 1.498-1.502h13.205c.899 0 1.502.599 1.502 1.502v6.9zm-1.501.904c1.201.297 2.401.599 3.603.899l3.899-6.603 11.707 6.603-3.903 6.603c.899.899 1.799 1.8 2.703 2.699l6.602-3.899 6.603 11.702-6.305 3.603c.301 1.201.903 2.402 1.2 3.904h7.205v13.502h-6.903c-.302.301-.302.899-.302 1.201l6.306 3.301-6.004 12.004-6-3c-.904 1.201-1.804 2.402-2.703 3.302l3.899 5.401-11.401 7.804-3.603-5.401c-2.101.899-4.201 1.502-6.603 2.1v6.302h-13.205v-6.302c-1.498-.301-3.004-.598-4.201-1.2l-3.301 5.703-11.703-6.904 3.297-5.703-3-3-5.703 3.302-6.603-11.703 6.004-3.302c-.599-1.502-.9-2.702-1.201-3.903h-6.904v-13.502h7.205c.301-.603.301-.904.301-1.502l-6.603-3 6-12.306 6.904 3.301c.599-.899 1.498-1.803 2.402-2.702l-4.502-6.302 11.402-7.803 4.205 6.602c2.101-.598 3.899-1.2 6-1.799v-7.804h13.205v7.802z"/><g><path fill="#737373" d="M262.603 407.561c1.201.297 2.401.599 3.603.899l3.899-6.603 11.707 6.603-3.903 6.603c.899.899 1.799 1.8 2.703 2.699l6.602-3.899 6.603 11.702-6.305 3.603c.301 1.201.903 2.402 1.2 3.904h7.205v13.502h-6.903c-.302.301-.302.899-.302 1.201l6.306 3.301-6.004 12.004-6-3c-.904 1.201-1.804 2.402-2.703 3.302l3.899 5.401-11.401 7.804-3.603-5.401c-2.101.899-4.201 1.502-6.603 2.1v6.302h-13.205v-6.302c-1.498-.301-3.004-.598-4.201-1.2l-3.301 5.703-11.703-6.904 3.297-5.703-3-3-5.703 3.302-6.603-11.703 6.004-3.302c-.599-1.502-.9-2.702-1.201-3.903h-6.904v-13.502h7.205c.301-.603.301-.904.301-1.502l-6.603-3 6-12.306 6.904 3.301c.599-.899 1.498-1.803 2.402-2.702l-4.502-6.302 11.402-7.803 4.205 6.602c2.101-.598 3.899-1.2 6-1.799v-7.804h13.205v7.802z"/><path fill="#B3B3B3" d="M261.401 408.762c1.8.297 3.603.899 5.402 1.498l3.903-6.603 9.302 5.401-3.9 6.306c1.498 1.196 3 2.698 4.201 4.2l6.302-3.903 5.401 9.306-6.302 3.603c.9 1.799 1.502 3.899 1.8 5.698h7.205v10.808h-6.904l-.899 3.599 6.302 3.004-4.8 9.603-6.004-2.703c-.899 1.502-2.401 3.302-3.899 4.804l3.598 5.101-8.702 6.004-3.603-5.101c-2.699 1.201-5.402 2.101-8.402 2.699v6.301h-10.803v-6.301c-2.1-.302-4.205-.899-6.004-1.8l-3.297 5.402-9.305-5.402 3.301-5.401c-1.803-1.201-3-2.703-4.502-4.502l-5.402 3.301-5.406-9.305 5.707-3.302c-.603-2.101-1.205-3.899-1.502-6h-6.904v-10.808h7.201c.301-1.196.603-2.397.904-3.301l-6.603-3.302 4.803-9.603 6.603 3.302c1.197-1.502 2.397-3 3.899-4.201l-4.201-6.301 8.703-6.005 4.502 6.302c2.402-1.201 4.803-1.8 7.502-2.397v-7.507h10.803v7.506z"/><path fill="#737373" d="M256 426.469c7.201 0 13.205 6 13.205 13.205 0 7.2-6.004 13.205-13.205 13.205-7.205 0-13.205-6.005-13.205-13.205 0-7.205 6-13.205 13.205-13.205z"/><path fill="gray" d="M267.406 433.071c1.2 2.101 1.799 4.2 1.799 6.603 0 7.2-6.004 13.205-13.205 13.205-3.301 0-6.301-1.201-8.703-3.302-1.201-2.104-1.799-4.205-1.799-6.603 0-7.205 6-13.209 13.205-13.209 3.301.001 6.301 1.202 8.703 3.306z"/></g><g><path fill="#FFCA28" d="M260.502 39.015l4.502 1.2 3.302-5.702 7.802 4.502-3.3 5.703 3.602 3.301 5.402-3.301 4.498 7.803-5.101 3 1.201 4.803h6.004v9.002h-5.703l-.603 3.003 5.105 2.401-3.903 8.402-5.101-2.4-7.803 10.203h-28.812l-6.602-8.703-4.8 2.701-4.502-7.803 4.8-2.701-1.201-5.103h-5.699v-9.002h6l.602-2.7-5.405-2.704 3.903-8.102 5.703 2.701 3.297-3.601-3.598-5.401 7.502-5.103 3.603 5.402 6.301-1.801v-6.603h9.004z"/><path fill="#EBAA4B" d="M256 53.722c6.004 0 11.104 5.101 11.104 11.103 0 6.004-5.101 11.104-11.104 11.104-6 0-11.104-5.1-11.104-11.104 0-6.003 5.104-11.103 11.104-11.103z"/><path fill="#FFB74D" d="M265.603 59.423a10.38 10.38 0 0 1 1.502 5.401c0 6.004-5.101 11.104-11.104 11.104-2.703 0-5.402-1.199-7.205-3a10.406 10.406 0 0 1-1.498-5.401c0-6.004 4.804-11.105 11.104-11.105 2.699 0 5.1 1.202 7.201 3.001z"/><path fill="#BDBFC1" d="M270.406 90.935v22.21c0 4.502-2.703 8.103-6.005 8.103l-17.104.301c-3.301 0-6-3.901-6.301-8.403v-21.61-.601h29.41z"/><path fill="#A9ABAE" d="M241.061 94.786l29.83-.09c1.063-.004 1.929.991 1.929 2.221.005 1.229-.854 2.229-1.921 2.232l-29.83.09c-1.058.004-1.925-.991-1.929-2.221 0-1.228.859-2.228 1.921-2.232z"/><path fill="#A9ABAE" d="M241.085 103.448l29.825-.092c1.063-.002 1.93.991 1.93 2.221.004 1.231-.854 2.23-1.917 2.233l-29.83.091c-1.066.002-1.929-.991-1.929-2.221-.004-1.23.855-2.23 1.921-2.232z"/><path fill="#A9ABAE" d="M241.102 111.565l29.829-.089c1.063-.004 1.926.991 1.93 2.22 0 1.229-.858 2.229-1.921 2.233l-29.83.089c-1.063.004-1.93-.991-1.93-2.22 0-1.23.855-2.229 1.922-2.233z"/></g><path fill="#2A2D40" d="M398.255 340.632l-114.644-77.729 77.431-77.129c0-.301.297-.301.297-.301l16.511-31.812c.297-.9.297-1.502-.302-2.104-.603-.599-1.2-.599-1.803-.297l-7.502 3.904-23.708 12c-.301 0-.301.301-.301.301l-81.331 81.331-56.422-38.41 26.708-39.318c3.305-5.101 2.104-12.004-2.996-15.305l-34.217-23.41c-5.101-3.301-12-2.101-15.306 3.004l-26.711 39.314-10.201-6.904c-.904-.301-1.799-.301-2.402.603l-14.406 21.004c-.301.903-.301 1.803.599 2.401l10.205 6.904-22.807 33.615c-3.603 4.799-2.101 11.703 2.703 15.004l34.511 23.41c5.104 3.599 11.707 2.101 15.305-2.703l22.812-33.611 51.917 35.113-90.636 90.637c-.297.297-.599.297-.599.598-.297 0-.297.302-.598.599-3.9 4.804-3.305 11.104.598 15.908 1.803 1.799 3.904 3 6.306 3.903 4.201 1.197 8.703-.301 11.703-3.301l93.937-93.938 119.146 80.732c.9.598 1.8.297 2.402-.302l14.401-21.31c.3-.597.3-1.799-.6-2.401zm-15.305 22.511l-120.348-81.632-82.234 82.229-5.397 5.402-7.205 7.506c-9.606 9.603-24.008-4.502-15.908-14.406l.301-.301.602-.603 7.201-7.201 5.402-5.401 79.23-79.531-54.92-37.213-23.708 34.812c-2.703 4.2-8.703 5.401-12.904 2.702l-34.217-23.41c-4.201-3-5.402-8.703-2.699-12.908l23.707-35.113-11.402-7.799 7.201-10.506 7.201-10.506 11.406 7.808 27.912-40.82c2.699-4.201 8.703-5.399 12.904-2.401l34.213 23.414a8.835 8.835 0 0 1 2.402 12.603l-27.611 41.117 58.824 39.912 82.532-82.23 23.707-12.004 7.205-3.9-15.306 29.41-1.201 2.398-78.632 78.632 116.146 78.933-14.404 21.007z"/></g><metadata><rdf:RDF xmlns:rdf="http://www.w3.org/1999/02/22-rdf-syntax-ns#" xmlns:rdfs="http://www.w3.org/2000/01/rdf-schema#" xmlns:dc="http://purl.org/dc/elements/1.1/"><rdf:Description about="https://iconscout.com/legal#licenses" dc:title="build" dc:description="build" dc:publisher="Iconscout" dc:date="2017-09-22" dc:format="image/svg+xml" dc:language="en"><dc:creator><rdf:Bag><rdf:li>Graphiqa Stock</rdf:li></rdf:Bag></dc:creator></rdf:Description></rdf:RDF></metadata></svg>