<?xml version="1.0" encoding="UTF-8"?><!DOCTYPE svg PUBLIC "-//W3C//DTD SVG 1.1//EN" "http://www.w3.org/Graphics/SVG/1.1/DTD/svg11.dtd"><svg xmlns="http://www.w3.org/2000/svg" xmlns:xlink="http://www.w3.org/1999/xlink" version="1.1" id="Craft" x="0px" y="0px" width="512px" height="512px" viewBox="0 0 512 512" xml:space="preserve"><path id="Background" fill="#699392" d="M255.999 0C397.382 0 512 114.614 512 256c0 141.387-114.618 256-256.001 256C114.618 512 0 397.387 0 256 0 114.614 114.618 0 255.999 0z"/><g id="Craft_1_"><path fill="#CCE7D4" d="M242.292 115.96h4.799c1.2 0 2.099 1.2 2.099 2.4s-.899 2.397-2.4 2.099H239.892c-1.196 0-2.099-.899-2.099-2.099-.297-1.2.903-2.4 2.099-2.4h2.4zm-16.488.899c1.497 0 2.399.901 2.696 2.101 0 1.198-.898 2.397-2.099 2.397h-.301l-.899.301h-.899l-.899.299h-1.501c-1.2.301-2.4-.6-2.4-1.8-.297-1.198.598-2.398 1.802-2.699h.598l.899-.299h1.798l.903-.301h.302zm-18.294 3.299c1.2-.299 2.399.6 3.001 1.8.297 1.2-.602 2.399-1.802 2.698h-.301l-.598.301-.903.299-.895.301h-.602l-.899.299c-1.501.301-2.701-.299-2.998-1.499-.301-1.2.297-2.399 1.497-2.699l.301-.301h.602l.895-.299.903-.301.899-.299h.598l.302-.3zm-17.693 5.999c1.2-.6 2.399 0 3.001 1.198.598 1.2 0 2.4-1.204 3l-.598.299-.598.301-.903.299-.598.301-.899.299-.602.301c-1.196.6-2.399 0-2.998-1.2-.598-1.2 0-2.4 1.2-3l.602-.299.895-.301.602-.299.898-.301.899-.598h.303zm-16.789 8.096c1.196-.6 2.396-.301 2.993.899.903 1.2.301 2.4-.598 3l-.598.299-.602.301-.598.6-.899.299-.602.6-.602.299c-1.196.6-2.697.301-3.294-.899-.602-.899-.301-2.4.899-3l.598-.299.602-.6.899-.299.598-.6.903-.301.301-.299zm-15.594 10.195c.895-.6 2.399-.6 3.294.6.602.901.602 2.4-.598 3.299l-.899.6-.602.6-.598.301-.598.598-.602.6c-1.2.901-2.4.6-3.298-.299-.899-.899-.598-2.399.301-3.298l.598-.6.903-.6.598-.299.598-.6.602-.6.301-.302zm-14.097 12.295a2.36 2.36 0 0 1 3.303 0c.895.899.895 2.4 0 3.299v.301l-.602.598-.602.301-.598.6-.598.6-.602.6v.299c-.898.899-2.399.899-3.298 0s-.899-2.099-.301-2.998l.301-.301.598-.6.602-.6.602-.6.598-.6.598-.598v-.301zm-12.291 14.093c.895-.899 2.396-1.198 3.294-.299.903.6 1.204 2.099.301 3l-.301.898-.598.6-.598.6-.301.6-.602.6-.301.598c-.598.901-2.099 1.2-2.993.301-1.204-.6-1.505-2.099-.602-3l.301-.6.301-.598.598-.6.598-.6.301-.901.602-.599zm-10.201 15.594c.602-1.2 1.802-1.499 3.001-.899 1.2.6 1.497 2.099.899 3.298l-.297.6-.602.6-.301.6-.301.899-.297.6-.301.6c-.598.899-2.099 1.5-3.298.899-.899-.601-1.497-2.099-.899-2.998l.297-.6.301-.901.602-.6.301-.899.297-.6.598-.599zm-8.395 16.794c.602-1.2 1.798-1.8 3.002-1.2 1.196.299 1.797 1.8 1.497 2.998l-.301.6-.297.6-.301.901-.297.899-.301.6-.301.6c-.301 1.2-1.797 1.8-3.001 1.2-1.196-.301-1.798-1.8-1.196-3v-.299l.301-.901.297-.6.301-.899.297-.898.3-.601zm-5.694 17.692c.297-1.2 1.497-2.099 2.696-1.501 1.2.301 2.099 1.501 1.802 2.697l-.301.903-.301.899-.301.598v.903l-.301.899c-.301 1.5-1.497 2.099-2.697 1.802-1.2-.301-2.099-1.505-1.802-2.701l.301-.903.301-.895v-.903l.301-.899.302-.899zm-3.603 18.291c.301-1.2 1.505-2.099 2.701-2.099 1.2.301 2.099 1.5 1.797 2.696v2.4l-.297.903v1.196c0 1.204-1.2 2.099-2.399 2.099-1.501 0-2.4-1.196-2.099-2.396v-2.4l.297-.899v-1.5zm-.895 18.591c0-1.2.895-2.099 2.4-2.099 1.196 0 2.099.898 2.099 2.099V259.599l.297.898V262.294c0 1.2-.899 2.399-2.396 2.399-1.204 0-2.103-.898-2.4-2.099V257.798zm1.496 18.596c-.301-1.2.602-2.4 1.798-2.4 1.501-.301 2.4.599 2.701 1.798v.899l.301.898v.903l.301.598v1.199c.301 1.2-.301 2.4-1.802 2.701-1.2.297-2.396-.602-2.697-1.802v-1.2l-.301-.898v-.899l-.301-.898v-.899zm3.897 18.29c-.297-1.2.301-2.399 1.505-2.701 1.196-.297 2.697.302 2.994 1.501v.598l.301.603.301.898.301.899v.602l.301.598c.297 1.2-.301 2.701-1.501 2.998-1.2.301-2.4-.297-2.697-1.497l-.301-.602-.301-.899-.301-.898-.301-.598-.301-.903v-.599zm6.3 17.692c-.598-1.2 0-2.399 1.2-2.998 1.2-.602 2.4 0 2.998 1.196l.301.602.297.599.301.902.301.598.602.899v.301c.598 1.2.297 2.696-.903 3.299-1.196.301-2.399 0-2.998-1.2l-.297-.598-.301-.603-.602-.898-.301-.598-.301-.903-.297-.598zm8.696 16.492c-.598-.898-.297-2.399.598-2.997 1.204-.903 2.701-.603 3.303.598l.297.602.598.599.301.898.301.603.602.598.301.602c.598.899.297 2.396-.602 2.998-1.2.898-2.4.598-3.299-.603l-.301-.598-.297-.602-.602-.599-.301-.898-.598-.602-.301-.599zm10.794 15.293c-.899-.898-.598-2.399.301-3.298.899-.599 2.4-.599 3.299.301l.301.598.301.602.598.599.598.602.602.598.301.598c.895.903.895 2.4 0 3.299-1.204.603-2.4.603-3.303-.297l-.598-.602-.598-.599-.602-.602-.301-.898-.598-.599-.301-.302zm12.597 13.796a2.352 2.352 0 0 1 0-3.303 2.355 2.355 0 0 1 3.298 0l.598.603.602.598.598.603.598.598.602.301.301.301c.899.598.899 2.099 0 2.998-.602 1.199-2.099 1.199-3.002.301h-.297l-.598-.603-.602-.598-.602-.602-.598-.598-.598-.599h-.3zm14.394 11.693c-.899-.602-1.2-2.099-.598-2.997.895-1.2 2.396-1.501 3.294-.603l.903.603.598.297.598.602.602.301.899.599v.301c1.2.598 1.501 2.099.598 2.997-.598 1.2-2.099 1.501-2.998.599h-.297l-.602-.599-.899-.301-.598-.598-.602-.603-.899-.297v-.301zm15.89 9.896c-1.196-.602-1.497-1.798-.899-2.997.598-1.2 1.802-1.501 2.998-.903l.903.301.598.603.898.297.602.301.598.301.301.301c1.2.599 1.802 1.798 1.2 2.998-.602 1.201-1.797 1.498-3.001 1.201l-.297-.303-.899-.301-.602-.598-.899-.301-.598-.301-.903-.599zm17.095 7.798c-1.2-.301-1.802-1.803-1.501-2.998.602-1.199 1.798-1.801 3.001-1.199l.895.297.602.301.903.301.895.301h.602l.301.297c1.196.301 1.798 1.502 1.497 2.701-.301 1.2-1.798 2.099-2.998 1.501h-.297l-.602-.301-.903-.301-.895-.302-.602-.297-.898-.301zm17.692 5.397c-1.2-.301-1.802-1.501-1.802-2.7.301-1.196 1.5-2.1 3.001-1.798h.301l.895.301h.602l.899.301.898.297h.602c1.497.301 2.099 1.501 1.798 2.701 0 1.199-1.196 2.099-2.701 1.798h-.598l-.899-.302-.899-.297h-.899l-.602-.301h-.596zm18.592 2.998c-1.2-.297-2.4-1.2-2.099-2.697 0-1.199 1.2-2.099 2.399-2.099h.301l.895.297h3.303c1.196.301 2.399 1.2 2.099 2.4 0 1.5-.903 2.399-2.4 2.399h-.903l-.895-.301h-2.7v.001zm18.591.301c-1.2 0-2.4-.899-2.4-2.099 0-1.2.899-2.4 2.103-2.4H249.492l.602-.301h2.396c1.501 0 2.399.899 2.701 2.099 0 1.2-.899 2.4-2.103 2.4h-.895l-.903.301h-2.998zm18.589-2.099c-1.199.301-2.399-.603-2.696-1.802-.301-1.196.598-2.396 1.798-2.697h1.199l.899-.301h.898l.603-.297.898-.301c1.2 0 2.399.598 2.696 1.798.302 1.501-.598 2.7-1.797 2.7l-.899.297-.602.302h-.899l-.898.301h-1.2zm17.994-4.197c-1.2.297-2.4-.302-2.701-1.501-.598-1.2.301-2.702 1.501-2.999l.598-.301.903-.301.598-.297h.898l.603-.301.598-.301c1.2-.301 2.399.301 2.998 1.5.301 1.201-.298 2.4-1.497 2.999h-.301l-.899.301-.898.301-.903.297-.598.301-.9.302zm17.391-6.898c-1.199.598-2.399 0-2.997-1.201-.602-1.199 0-2.399 1.2-2.997l.598-.301.898-.599.603-.301.898-.301.598-.301.302-.297c1.199-.603 2.7 0 2.997.898.602 1.2.301 2.697-.898 3.299h-.297l-.603.598-.898.301-.899.303-.602.297-.9.602zm16.493-9.299c-1.2.903-2.696.603-3.299-.598-.598-.898-.301-2.399.603-2.998l.598-.602.898-.301.603-.598.598-.599.602-.301.599-.301c.898-.598 2.399-.598 2.997.602.898.899.602 2.396-.297 3.299l-.602.297-.599.301-.602.599-.898.301-.599.602-.602.297zm14.694-11.096c-.898.903-2.399.603-2.997-.297a2.346 2.346 0 0 1 0-3.298l.598-.301.598-.599.603-.602.598-.301.602-.598.599-.603c.898-.598 2.399-.598 3.298.301.603.899.603 2.4-.297 3.299l-.602.301-.598.598-.603.603-.598.598-.602.602-.599.297zm13.495-13.193c-.902 1.199-2.399 1.199-3.298.301-.903-.898-.903-2.399-.301-3.299l.301-.301.598-.598.598-.603.603-.598.598-.598.301-.602c.898-.899 2.399-1.2 3.299-.302.898.903 1.199 2.099.301 3.299l-.602.602-.599.599-.301.602-.598.598-.603.603-.297.297zm11.393-14.692c-.598 1.2-2.099 1.497-2.997.599-1.2-.599-1.501-2.099-.603-2.998v-.301l.603-.598.301-.899.598-.602.301-.598.599-.603v-.301c.602-.898 2.099-1.497 3.001-.598 1.196.598 1.497 2.099.899 2.997l-.302.301-.301.599-.598.602-.301.899-.598.602-.302.598-.3.301zm9.598-15.894c-.602.899-2.103 1.501-3.299.899-.902-.599-1.5-1.798-.902-2.998v-.301l.602-.598.301-.899.298-.602.301-.899.301-.598v-.301c.598-1.2 2.099-1.501 3.299-1.2.898.599 1.496 2.099.898 3.299l-.301.898-.301.603-.297.898-.603.598-.297.899v.302zm7.196-17.392c-.598 1.2-1.798 1.798-2.998 1.501-1.199-.301-1.802-1.802-1.501-3.002l.302-.297v-.602l.301-.898.297-.899.301-.602.301-.899c.297-1.199 1.497-1.798 2.697-1.501 1.199.302 2.099 1.501 1.5 2.701v.898l-.301.899-.301.902-.297.599-.301.898v.302zm4.799-17.993c-.301 1.2-1.5 2.099-2.7 1.802-1.2-.301-2.099-1.501-1.798-2.7v-.599l.297-.902v-.899l.301-.898v-1.201c.301-1.199 1.501-2.099 2.701-1.798 1.199.302 2.099 1.2 2.099 2.697l-.301.301v.898l-.302.899v.902l-.297.899v.599zm2.395-18.592c-.297 1.2-1.195 2.4-2.396 2.1-1.5 0-2.399-.899-2.399-2.4l.301-.598v-3.9c0-1.196 1.196-2.099 2.396-2.099s2.4.902 2.099 2.399v4.498zm-.297-18.591c.297 1.2-.602 2.399-2.099 2.399-1.199.297-2.399-.898-2.399-2.103V244.903l-.301-.899v-2.099c-.301-1.2.602-2.4 2.099-2.4 1.2-.301 2.399.598 2.399 1.802v1.196l.301.903v2.698zm-2.399-18.591c.301 1.2-.602 2.701-1.798 2.701-1.199.297-2.399-.301-2.7-1.802v-.598l-.301-.602-.297-.898v-.899l-.302-.903v-.297c-.301-1.2.302-2.399 1.497-2.7 1.2-.598 2.701.301 3.002 1.5v.602l.297.895v.903l.301.598.301.899v.601zm-5.096-17.993c.598 1.2 0 2.699-1.2 3-1.2.6-2.701-.301-3.002-1.499l-.297-.901-.301-.6-.301-.899-.301-.6-.297-.899v-.301c-.603-1.2 0-2.398 1.199-2.998 1.2-.301 2.396.299 2.998 1.499v.299l.301.6.297.901.301.899.301.6.302.899zm-7.199-17.093c.602 1.2 0 2.4-1.2 3-.898.6-2.399.299-2.997-.899v-.301l-.302-.6-.598-.601-.301-.898-.301-.6-.598-.899c-.603-1.2-.302-2.701.898-3.298 1.2-.6 2.399 0 2.998.899l.301.299.301.6.598.901.301.6.302.899.297.6.301.298zm-9.595-15.893c.598.899.301 2.4-.602 3-1.2.898-2.4.6-3.299-.6l-.598-.6-.302-.6-.598-.899-.301-.6-.598-.6v-.301c-.903-.899-.603-2.397.297-3.298.898-.6 2.399-.299 3.298.6v.301l.603.6.598.598.301.901.599.6.602.6v.298zm-11.697-14.693a2.348 2.348 0 0 1 0 3.298c-.899.899-2.396.6-3.299-.301l-.598-.6-.603-.598-.598-.6-.598-.6-.301-.6-.603-.301c-.598-.899-.598-2.397.302-3.298.898-.899 2.099-.6 2.997.301l.603.299.598.6.301.6.598.6.603.6.598.6zm-13.491-12.895c1.2.6 1.2 2.099.297 3.299-.598.901-2.099.901-3.299 0l-.297-.299-.602-.6-.598-.301-.603-.6-.898-.598-.301-.301c-1.2-.899-1.2-2.099-.599-3.299.899-.898 2.4-1.2 3.299-.299l.598.299.603.6.598.6.898.6.603.299.301.6zm-14.996-11.095c1.2.6 1.501 2.099.603 3-.603 1.2-2.099 1.499-3.002.899l-.297-.299-.898-.6-.603-.301-.598-.299-.903-.6-.598-.299c-1.2-.6-1.501-2.101-.898-3.298.898-.901 2.099-1.2 3.298-.6l.599.299.898.6.602.299.599.6.898.301.3.298zm-16.493-8.995c1.199.6 1.802 1.797 1.199 2.998-.598 1.2-1.797 1.8-2.997 1.2l-.301-.299-.899-.301-.602-.299-.899-.301-.598-.299-.898-.301c-1.2-.6-1.501-1.798-1.2-2.998.598-1.2 1.798-1.8 2.998-1.2l.898.299.602.301.899.299.898.301.599.299.301.301zm-17.391-6.597c1.2.299 2.099 1.499 1.501 2.699-.301 1.2-1.501 2.099-2.701 1.499h-.598l-.903-.299-.598-.301-.898-.299h-.899l-.602-.301c-1.2-.299-1.798-1.499-1.497-2.699.297-1.2 1.497-2.099 2.697-1.8l.598.301.902.299h.899l.898.301.603.299.598.301zm-17.993-4.499c1.199.299 2.099 1.499 1.802 2.699-.302 1.2-1.501 2.099-2.701 1.8h-.898l-.899-.301H261.185l-.598-.299h-.301c-1.198 0-2.097-1.2-1.796-2.399 0-1.499 1.2-2.4 2.397-2.099h1.2l.898.299h.599l.898.301h1.2z"/><path fill="#3C9" d="M87.563 329.17c-2.099.898-4.202 1.199-5.999.898-2.099-.602-3.896-1.802-5.397-3.299-5.397 18.592-13.792 41.982-27.287 59.676C25.489 417.031 0 375.349 4.799 357.656c6.296-22.793 18.294-49.478 25.188-57.575 11.392-13.194 27.889-11.693 42.279-7.195 6.898-49.779 42.885-46.484 34.189-2.103 20.092 1.802 41.38 8.098 48.278 29.987 3.896 12.897 4.498 50.08.602 79.768-3.002 23.391-53.98 59.374-65.975 11.693-6.596-26.987-4.795-58.772-1.797-83.061zm-20.69-23.09c-9.599-2.701-19.791-3.6-25.791 3.595-2.696 3.002-5.698 9.298-7.496 12.897-3.896 7.797-6.898 15.59-9.896 23.688-1.802 5.101-3.6 10.197-4.8 15.293-.898 3.002 2.099 10.196 3.6 12.897 1.2 2.396 5.096 7.794 8.395 8.396 2.099.301 5.698-3.901 6.597-5.098 4.499-5.999 8.098-12.295 11.396-18.892 6.296-13.194 11.096-27.291 14.992-41.385.603-2.696 1.799-6.897 3.003-11.391zm38.382-.903c-.899 5.999-1.802 12.295-2.701 18.295-2.396 18.892-3.896 37.78-2.998 56.673.301 9.6 1.497 19.193 3.896 28.491.903 3.896 3.303 11.092 8.098 12.291 9.595 2.4 28.19-13.193 29.386-22.19.903-6.894 1.5-13.793 2.099-20.69.602-10.795.602-21.891.301-32.685-.301-5.698-.899-14.695-2.399-20.093-4.498-14.695-20.69-18.892-35.682-20.092z"/><path fill="#4E5A62" d="M85.761 331.269c-.297 0-.895.297-1.196.297-1.204 0-2.099 0-3.303-.297-1.196 0-2.396-.603-3.294-1.2-.301-.301-.903-.602-1.204-.602a208.845 208.845 0 0 1-9.892 27.889c-4.499 10.794-10.197 20.991-16.793 29.988-5.698 7.496-11.693 10.795-17.396 11.393-4.498.301-8.695-.898-12.592-3.294-3.596-2.701-6.898-6.301-9.595-10.198-5.999-8.996-8.997-20.393-6.898-27.889 2.998-11.396 7.496-23.391 11.994-33.884 4.799-10.795 9.896-20.093 13.194-24.29 5.995-6.897 13.194-9.896 20.991-10.794 7.195-.603 14.394.598 21.292 2.396 2.998-17.989 9.595-29.085 16.79-33.282 3.001-2.103 5.999-2.701 8.696-2.4 2.701.297 5.401 1.798 7.5 4.499 4.498 5.096 6.597 15.293 4.197 29.987 9.599.899 19.49 2.998 27.889 7.496 8.993 4.498 16.493 11.994 19.791 23.391 2.099 6.597 3.298 19.791 3.6 34.783 0 14.394-.903 30.888-2.701 45.582-1.497 9.595-10.494 21.589-21.89 28.784-5.101 3.6-10.794 5.999-16.493 6.897-5.698 1.2-11.096.603-16.192-2.099-6.3-3.599-11.396-10.493-14.097-21.89-3.595-13.495-4.799-28.487-4.799-42.882.001-13.495.905-26.688 2.401-38.381zm-1.496-2.702c.898 0 1.797-.301 2.7-.598l2.099-1.2-.301 2.697c-1.2 11.994-2.399 26.091-2.399 40.184 0 14.395 1.2 28.789 4.498 42.284 2.701 10.493 7.199 16.789 12.893 19.791 4.198 2.396 9.298 2.998 14.394 2.099 5.096-.898 10.197-3.298 15.293-6.597 10.498-6.898 19.193-17.993 20.393-26.99 2.099-14.394 2.697-30.587 2.697-44.98-.301-14.695-1.196-27.588-3.295-33.884-3.302-10.799-9.899-17.396-18.294-21.891-8.696-4.498-18.893-6.3-28.487-7.198l-1.797-.302.297-1.496c2.998-14.395.899-24.29-2.998-29.089-1.798-2.099-3.6-2.998-5.698-3.299s-4.499.301-6.898 1.798c-6.597 4.201-12.893 14.996-15.59 32.989l-.301 1.798-1.501-.603c-7.195-2.099-14.695-3.595-21.89-2.696-6.898.598-13.495 3.299-18.893 9.595-3.6 4.197-8.094 12.897-12.893 23.691-4.499 10.192-8.997 22.191-11.999 33.286-1.797 6.895.903 17.392 6.597 25.787 2.4 3.6 5.401 6.898 8.997 9.298 3.303 2.099 6.898 3.299 10.498 2.697 5.096-.297 10.197-3.299 15.293-10.198 6.597-8.695 11.994-18.888 16.493-29.084 4.499-10.498 7.797-20.991 10.494-30.289l.903-2.399 1.797 1.802c.602.898 1.2 1.5 2.099 2.099.602.301 1.5.598 2.399.898.602.301 1.496.301 2.4 0zm-19.194-21.588c-4.197-.898-8.395-1.802-12.295-1.501-4.197.302-7.793 1.798-10.794 5.097-1.196 1.501-2.399 3.6-3.896 5.999-1.2 2.399-2.399 4.8-3.302 6.597-1.798 3.9-3.596 7.496-5.092 11.396-1.505 4.197-3.303 8.094-4.799 12.296-.903 2.396-1.501 4.795-2.4 7.495-.903 2.4-1.5 5.097-2.399 7.496-.301.899 0 2.701.602 4.499.895 2.997 2.099 5.995 2.998 7.495.598 1.2 2.396 3.6 4.197 5.397 1.2 1.2 2.099 2.099 3.298 2.099.301.301.899-.297 1.497-.898 1.505-1.2 3.002-2.998 3.604-3.6 2.099-2.998 4.197-5.995 5.995-8.993 1.797-3.298 3.595-6.3 5.1-9.599 3.294-6.597 5.995-13.495 8.395-20.389 2.4-6.898 4.799-13.796 6.597-20.991.598-1.199.899-3.298 1.497-5.397.298-1.2.599-2.701 1.197-4.498zm-12.596-4.198c4.799-.301 9.899.598 14.699 1.798l1.196.598-.301 1.2c-.598 2.099-.895 3.9-1.497 5.999-.602 2.099-.903 3.896-1.5 5.397-1.798 7.194-3.896 14.093-6.597 21.292-2.396 6.894-5.096 13.792-8.395 20.389-1.501 3.299-3.299 6.597-5.397 9.896-1.798 2.998-3.896 6.296-5.999 9.298-.598.598-2.396 2.696-4.198 4.198-1.2.898-2.696 1.797-3.9 1.5-1.797-.301-3.294-1.5-4.795-3.002-2.099-2.099-3.901-4.498-4.799-6.296-.899-1.501-2.099-4.8-2.998-7.797-.602-2.399-.899-4.498-.602-6.296.602-2.399 1.5-5.101 2.399-7.496.602-2.7 1.501-5.101 2.4-7.797 1.501-3.9 3.298-8.098 4.799-12.295 1.798-3.9 3.298-7.496 5.096-11.396.899-1.798 2.103-4.197 3.6-6.898 1.2-2.396 2.701-4.795 4.197-6.597 3.298-3.897 7.797-5.398 12.592-5.695zm53.98 3.897c-.301 1.798-.301 3.299-.602 4.799-.598 4.198-1.196 8.396-1.798 12.292a428.813 428.813 0 0 0-2.701 28.189c-.598 9.294-.899 18.893-.301 28.187 0 4.799.602 9.6 1.204 14.098.598 4.795 1.497 9.595 2.697 14.093.301 1.798 1.2 4.498 2.399 6.898 1.2 2.099 2.697 3.896 4.499 4.197.297.297.297.297.598.297 4.499.602 10.498-2.396 15.895-6.598 5.694-4.494 10.192-9.896 11.095-14.093 0 0 0-.301.301-.598.297-3.299.598-6.898.895-10.196.301-3.3.602-6.599.903-10.197.301-5.698.602-11.096.602-16.794 0-5.397 0-10.795-.301-15.891-.301-2.998-.301-6.598-.602-10.196-.301-3.6-.899-6.898-1.798-9.595-2.099-6.898-6.898-11.396-13.194-14.094-5.698-2.7-12.892-4.201-19.791-4.798zm-3.599 4.498c.297-2.399.598-4.498.898-6.296l.301-1.501 1.2.301c7.797.599 15.59 2.1 22.187 5.097 6.898 3.299 12.299 8.098 14.699 15.895.895 2.998 1.497 6.598 1.798 10.192.301 3.9.598 7.5.598 10.197.301 5.396.598 10.794.301 16.191 0 5.698 0 11.396-.598 17.095 0 3.298-.301 6.597-.602 10.197-.301 3.596-.602 6.898-1.2 10.192 0 .301 0 .903-.297 1.2-.903 4.799-5.999 10.798-11.999 15.297-5.995 4.795-12.893 8.094-17.993 7.194h-.895c-3.001-.598-5.1-2.997-6.597-5.999-1.204-2.396-2.103-5.397-2.701-7.496-1.2-4.498-2.099-9.293-2.701-14.093-.598-4.799-.899-9.896-1.196-14.395-.602-9.595-.301-19.193.297-28.788.598-9.294 1.501-18.893 2.998-28.186.302-4.497.904-8.398 1.502-12.294z"/><ellipse transform="matrix(0.2007 -0.9796 0.9796 0.2007 -121.2837 271.971)" fill="#E6E6E6" cx="106.032" cy="210.313" rx="110.673" ry="20.883"/><path fill="#CCC" d="M128.345 101.868c11.095 2.397 10.192 52.776-1.798 112.752-3.001 13.495-5.999 26.388-9.298 38.082l-8.997-1.802 14.097-146.635c2.1-1.8 4.198-2.698 5.996-2.397z"/><path fill="#CCC" d="M90.032 288.412a8.465 8.465 0 0 1 6.593 9.993c-.94 4.583-5.414 7.536-9.994 6.597a8.469 8.469 0 0 1 3.401-16.59z"/><path fill="#4E5A62" d="M108.253 289.587c9.599.899 19.49 2.998 27.889 7.496 8.993 4.498 16.493 11.994 19.791 23.391 2.099 6.597 3.298 19.791 3.6 34.783 0 14.394-.903 30.888-2.701 45.582-1.497 9.595-10.494 21.589-21.89 28.784-5.101 3.6-10.794 5.999-16.493 6.897-5.698 1.2-11.096.603-16.192-2.099-6.3-3.599-11.396-10.493-14.097-21.89-3.595-13.495-4.799-28.487-4.799-42.882 0-13.495.903-26.688 2.4-38.382-.297 0-.895.297-1.196.297-1.204 0-2.099 0-3.303-.297-1.196 0-2.396-.603-3.294-1.2-.301-.301-.903-.602-1.204-.602a208.845 208.845 0 0 1-9.892 27.889c-4.499 10.794-10.197 20.991-16.793 29.988-5.698 7.496-11.693 10.795-17.396 11.393-4.498.301-8.695-.898-12.592-3.294-3.596-2.701-6.898-6.301-9.595-10.198-5.999-8.996-8.997-20.393-6.898-27.889 2.998-11.396 7.496-23.391 11.994-33.884 4.799-10.795 9.896-20.093 13.194-24.29 5.995-6.897 13.194-9.896 20.991-10.794 7.195-.603 14.394.598 21.292 2.396.602-2.396.899-4.499 1.497-6.895.602-2.7 1.204-5.1 2.099-7.495.602-9.9 1.5-20.996 3.302-33.287 1.497-11.697 3.596-24.29 6.296-37.185 5.995-29.988 14.093-56.977 21.589-75.869 8.098-19.49 16.195-30.887 22.792-29.687 6.296 1.501 9.294 14.994 8.997 36.284-.301 20.393-3.604 47.979-9.899 78.266-2.697 12.897-5.393 24.887-8.696 36.284-3.294 11.698-6.597 22.492-9.892 31.489-.301 1.496-.301 2.696-.602 3.896.002.901-.299 1.805-.299 3.004zm26.689 9.895c-8.696-4.498-18.893-6.3-28.487-7.198l-1.797-.302.297-1.496c.301-1.501.598-3.002.899-4.202 0-1.195.301-2.696.301-3.896v-.302c3.595-9.293 6.898-19.791 10.197-31.484 2.998-11.396 5.999-23.691 8.695-36.284 6-29.988 9.294-57.576 9.595-77.668.301-19.792-1.798-32.386-6.597-33.284-4.799-1.2-11.994 9.594-19.49 27.887-7.5 18.593-15.292 45.28-21.589 75.269-2.7 12.893-4.799 25.489-6.3 37.183-1.501 11.995-2.697 23.391-2.998 32.986l-.301.602c-.602 2.099-1.497 4.795-2.099 7.496-.602 2.399-.899 5.096-1.497 8.098l-.301 1.798-1.501-.603c-7.195-2.099-14.695-3.595-21.89-2.696-6.898.598-13.495 3.299-18.893 9.595-3.6 4.197-8.094 12.897-12.893 23.691-4.499 10.192-8.997 22.191-11.999 33.286-1.797 6.895.903 17.392 6.597 25.787 2.4 3.6 5.401 6.898 8.997 9.298 3.303 2.099 6.898 3.299 10.498 2.697 5.096-.297 10.197-3.299 15.293-10.198 6.597-8.695 11.994-18.888 16.493-29.084 4.499-10.498 7.797-20.991 10.494-30.289l.903-2.399 1.797 1.802c.602.898 1.2 1.5 2.099 2.099.602.301 1.5.598 2.399.898.602.301 1.497.301 2.4 0 .898 0 1.797-.301 2.7-.598l2.099-1.2-.301 2.697c-1.2 11.994-2.399 26.091-2.399 40.184 0 14.395 1.2 28.789 4.498 42.284 2.701 10.493 7.199 16.789 12.893 19.791 4.198 2.396 9.298 2.998 14.394 2.099 5.096-.898 10.197-3.298 15.293-6.597 10.498-6.898 19.193-17.993 20.393-26.99 2.099-14.394 2.697-30.587 2.697-44.98-.301-14.695-1.196-27.588-3.295-33.884-3.302-10.801-9.899-17.397-18.294-21.893z"/><path transform="matrix(-0.9598 0.2809 -0.2809 -0.9598 443.2505 347.7545)" fill="#FFCC29" d="M159.963 162.143h73.488v86.99h-73.488z"/><path transform="matrix(-0.9963 0.0855 -0.0855 -0.9963 442.2299 377.268)" fill="#F7ADAF" d="M176.289 154.614h73.488v86.988h-73.488z"/><path fill="#4E5A62" d="M247.393 151.645c0-.899-.903-1.499-1.501-1.499l-25.489 2.099h-1.196l-1.204.301-45.276 3.898c-.903 0-1.5.899-1.5 1.499l.598 8.096-23.085 6.898c-.602 0-1.204.899-.903 1.798l24.59 83.364c0 .899.899 1.2 1.497.899l60.878-17.689 18.587-1.505c.903-.297 1.5-.895 1.5-1.497l-7.496-86.662zM234.5 239.804l-60.875 17.994-24.29-83.664 24.29-6.896-.899-9.296 45.578-3.898 1.501-.6v.301l26.087-2.101 7.496 86.663-18.888 1.497z"/><path fill="#E8BE3D" d="M258.789 276.394l-66.271 18.59-14.097 32.685 23.391-12.597 52.178 69.571z"/><path fill="#D5B34B" d="M192.518 294.984l-14.097 32.685 23.391-12.597z"/><path fill="#FFCC29" d="M253.99 384.643l8.096-184.419 107.05-117.248v271.081l-46.778 45.88z"/><path fill="#D5B34B" d="M369.136 331.565l141.539-162.829s-109.453 18.292-141.539 24.591v138.238z"/><path fill="#E8BE3D" d="M368.839 354.357l83.06 52.176.603 14.696-130.144-21.292z"/><path fill="#FFCC29" d="M432.409 394.242l19.49 12.291-19.49-12.291zm19.791 26.987l.899 27.889-20.69 21.89V417.93l19.791 3.299z"/><path fill="#4E5A62" d="M370.636 191.528c33.885-6.299 139.441-23.991 139.738-23.991.602-.299 1.501.301 1.501 1.2.301.301 0 .901-.301 1.2l-140.938 162.23v21.589l81.866 51.28c.598.302.898.899.898 1.497l.301 14.695v.301l.899 27.588c0 .301 0 .898-.302 1.2l-20.689 21.89a1.452 1.452 0 0 1-2.099 0c-.301-.301-.301-.603-.301-1.2V419.13l-109.152-17.692h-.302l-68.067-15.293c-.301 0-.602-.301-.899-.604l-51.275-68.667-22.191 11.994c-.903.302-1.802 0-2.099-.602-.301-.297-.301-.898 0-1.196l14.093-32.688c0-.302.598-.599.899-.899l65.072-18.29 3.296-74.969c0-.299.301-.899.301-.899L367.939 82.077c.598-.6 1.497-.6 2.099-.301.297.301.598.899.598 1.2v108.552zm136.142-20.692c-19.791 3.298-108.855 18.292-137.342 23.991h-.301c-.899 0-1.497-.6-1.497-1.499V86.573L263.583 200.824l-3.299 75.57c0 .598-.596 1.195-1.198 1.496l-65.372 18.295-12.292 28.186 19.792-10.493c.598-.301 1.195-.301 1.797.297l51.877 69.27 67.47 14.996L432.71 416.43c.599 0 1.2.603 1.2 1.501v49.478l17.692-18.892L451 421.23v-.599l-.599-13.494-82.463-51.578h-.301c-.301-.602-.301-1.501 0-2.099v-21.894c0-.297 0-.599.301-.899l138.84-159.831z"/></g><metadata><rdf:RDF xmlns:rdf="http://www.w3.org/1999/02/22-rdf-syntax-ns#" xmlns:rdfs="http://www.w3.org/2000/01/rdf-schema#" xmlns:dc="http://purl.org/dc/elements/1.1/"><rdf:Description about="https://iconscout.com/legal#licenses" dc:title="craft" dc:description="craft" dc:publisher="Iconscout" dc:date="2017-09-22" dc:format="image/svg+xml" dc:language="en"><dc:creator><rdf:Bag><rdf:li>Graphiqa Stock</rdf:li></rdf:Bag></dc:creator></rdf:Description></rdf:RDF></metadata></svg>