<?xml version="1.0" encoding="UTF-8"?><!DOCTYPE svg PUBLIC "-//W3C//DTD SVG 1.1//EN" "http://www.w3.org/Graphics/SVG/1.1/DTD/svg11.dtd"><svg xmlns="http://www.w3.org/2000/svg" xmlns:xlink="http://www.w3.org/1999/xlink" version="1.1" id="Creative_Research" x="0px" y="0px" width="512px" height="512px" viewBox="0 0 512 512" xml:space="preserve"><path id="Background" fill="#CCE7D4" d="M255.827 0C397.14 0 512 114.859 512 256.175 512 397.485 397.14 512 255.827 512 114.516 512 0 397.485 0 256.175 0 114.859 114.516 0 255.827 0z"/><g id="Creative_Research_1_"><path fill="#4E5A62" d="M217.588 14.858l33.611 42.916c.301.301.603.899.603 1.502v340.328c0 .903-.301 1.803-.603 2.702-1.498 5.703-8.101 8.703-13.205 10.507-7.201 2.101-15.305 2.698-22.51 2.698-7.498 0-15.603-.899-22.506-3-5.402-1.502-12.004-4.803-13.502-10.506 0-.599-.301-1.201-.301-2.101V58.075c0-.603.301-1.201.598-1.502l2.699-3.301 30.912-38.414c.603-.9 1.205-1.201 2.101-1.201.903 0 1.505.301 2.103 1.201zm5.704 11.406l23.104 29.711 2.703 3.301V399.604c0 18.008-66.924 17.41-67.226.301V58.075l2.699-3.301 22.812-28.51 8.101-9.904 7.807 9.904z"/><path fill="#FC9" d="M249.099 59.276l-67.226-1.201 33.611-41.715z"/><path fill="#4D4D4D" d="M207.383 26.264l8.101-9.904 7.808 9.904z"/><path fill="#FC9" d="M249.099 59.276l-67.226-1.201 2.699-3.301c3.004-1.502 8.109-3.904 12.31-4.502 6-1.201 12.603 4.803 17.707 5.401 5.397.599 12-5.401 16.502-6.004 2.703-.599 9.908 3.004 15.306 6.305l2.702 3.302z"/><path fill="#E6B800" d="M249.099 59.276v340.328c0 17.707-67.226 17.41-67.226 0V58.075c9.004-1.201 13.506-6.004 16.808-6.004s9.305 6.004 16.803 6.004c7.506 0 14.109-7.502 16.812-6.004 2.698 1.502 9.301 4.201 16.803 7.205z"/><path fill="#FC0" d="M204.383 54.473c3 1.502 6.9 3.603 11.101 3.603 4.205 0 8.108-2.402 11.104-4.201v323.222h-22.205V54.473z"/><path fill="#E6B800" d="M249.099 59.276v317.821h-22.51V53.875c2.402-1.201 4.502-2.402 5.707-1.804 2.698 1.502 9.301 4.201 16.803 7.205z"/><path fill="#CFA600" d="M249.099 377.097v9.602h-67.226v-9.602z"/><path fill="#C30" d="M249.099 386.699v12.904c0 18.008-67.226 17.41-67.226 0v-12.904h67.226z"/><path fill="#D5AB05" d="M249.099 191.927v13.503h-67.226v-13.503z"/><path fill="#EBBD05" d="M226.588 191.927v13.503h-22.205v-13.503z"/><path fill="#D5AB05" d="M249.099 191.927v13.503h-22.511v-13.503z"/><path fill="#A6A8AB" d="M266.503 59.276l24.31 10.201V59.276l7.802 13.803v396.453l-32.112-13.507z"/><path fill="#A3A3A3" d="M108.647 392.402h228.387l24.305 89.736-307.612-.302z"/><path fill="#D2D3D5" d="M258.404 59.276h32.409v396.749h-32.409z"/><path fill="#BDBFC1" d="M290.813 91.686v8.703l-32.408-14.401v-9.004l32.408 14.702zm0 9.606v9L258.404 126.2v-9.301l32.409-15.607zm0 55.221v9l-32.408-15.603v-9.305l32.408 15.908zm0 9.904v8.703l-32.408 14.703v-9l32.408-14.406zm0 56.121v9.004l-32.408-14.707v-8.703l32.408 14.406zm0 9.903v9.004l-32.408 15.607v-9.005l32.408-15.606zm0 54.921v9.305l-32.408-15.606v-9.306l32.408 15.607zm0 9.904v9.004l-32.408 14.707v-9.004l32.408-14.707zm0 56.422v9.004l-32.408-14.707v-9.004l32.408 14.707zm0 9.601v9.306l-32.408 15.606v-9.004l32.408-15.908zm0 55.222v9.306l-32.408-15.908v-9l32.408 15.602zm0 9.904v9.004l-32.408 14.707v-9.004l32.408-14.707z"/><path fill="#8D8D8D" d="M123.35 399.005h194.474l20.707 76.53-262.001-.301z"/><path fill="#CFCFCF" d="M150.363 384.599c3 0 5.699.603 8.401 1.503 3.004-5.104 8.703-8.406 15.004-8.406 2.401 0 5.104.603 7.205 1.502 5.703-5.101 13.205-8.104 21.305-8.104 8.109 0 15.607 3.004 21.313 8.104 3.9-1.799 8.402-3 13.205-3 8.101 0 15.603 3 21.305 8.101 2.099-.899 4.5-1.498 7.203-1.498 6.302 0 11.703 3.302 15.005 8.401 2.401-.899 5.401-1.498 8.401-1.498 15.306 0 27.912 12.603 27.912 28.21 0 4.803-1.201 9.603-3.302 13.506 1.502 3.302 2.101 7.201 2.101 11.104 0 15.306-12.306 27.908-27.61 27.908-8.703 0-16.205-3.899-21.31-10.201-5.699 4.498-12.902 7.201-20.706 7.201-12.004 0-22.205-6.004-28.209-15.306-6.305 6.302-14.707 10.205-24.31 10.205-7.803 0-15.008-2.703-20.707-6.903-5.104 6-12.904 9.903-21.31 9.903-15.306 0-27.611-12.606-27.611-27.912 0-3.899.603-7.804 2.101-11.104-2.101-3.899-3.301-8.703-3.301-13.502.003-15.607 12.609-28.214 27.915-28.214z"/><path fill="#BABABA" d="M217.886 459.327c-2.699-2.101-4.799-4.502-6.9-7.502-6.004 6.301-14.707 10.205-24.012 10.205-7.799 0-15.004-2.703-20.703-7.205a36.34 36.34 0 0 1-7.205 6.305c-7.506-2.702-12.904-9.903-12.904-18.31 0-3.301.896-6.603 2.402-9.301-.904-2.401-1.506-4.804-1.506-7.502 0-10.808 8.406-19.209 18.912-19.209 1.197 0 2.101 0 3 .301 3.603.899 6.603 3 9 6 .603-.297.904-.599 1.205-.899a3.62 3.62 0 0 1 1.498 1.502c3.899-3.301 9.004-5.104 14.406-5.104 1.201 0 2.401.301 3.603.301 9.903 3 16.803 11.703 16.803 22.511 0 .899 0 2.101-.297 3 3.301 3.899 5.402 9.004 5.402 14.406-.002 3.899-.901 7.501-2.704 10.501z"/><path fill="#BABABA" d="M255.701 444.624c-.598-.302-1.498-.302-2.1-.603-1.201 2.401-3.599 4.201-6.301 5.104h-1.201c-1.803 0-3.301-.301-4.799-.903-.603.301-.904.603-1.506.903-.297 0-.896-.301-1.197-.603-2.402 2.401-5.406 3.904-8.402 4.804-1.205.301-2.401.301-3.606.301a22.157 22.157 0 0 1-22.205-22.209c0-5.401 2.101-10.506 5.402-14.405-.301-.9-.301-1.804-.301-3.005 0-10.502 7.205-19.506 16.808-22.205 1.201-.301 2.401-.301 3.602-.301 5.402 0 10.502 1.799 14.402 4.803.301-.602.904-.903 1.502-1.502.301.302.599.599 1.201.9 2.401-2.703 5.401-4.804 9.004-6.001.9 0 2.1-.301 3-.301 10.504 0 18.905 8.703 18.905 19.205 0 2.703-.599 5.401-1.498 7.804 1.498 2.702 2.397 5.702 2.397 9.305 0 8.703-5.702 15.904-13.803 18.306-.899.301-1.804.301-3 .301-1.804 0-3.902-.301-5.701-.899-.302.302-.302.598-.603 1.201z"/><path fill="#E6E6E6" d="M168.969 457.527c.598-.301 1.201-.301 1.799-.598 1.502 2.397 3.904 4.2 6.305 5.101h1.498c1.799 0 3.301-.302 4.803-.9.603.298.9.599 1.498.9.301 0 .904-.302 1.205-.302 2.397 2.101 5.397 3.603 8.401 4.502 1.197.302 2.402.302 3.599.302a22.156 22.156 0 0 0 22.209-22.21c0-5.401-2.101-10.204-5.401-14.104 0-1.2.301-2.1.301-3.301 0-10.506-7.201-19.511-16.807-22.209-1.197-.302-2.402-.302-3.9-.302-5.406 0-10.205 1.804-14.108 4.804-.599-.302-.896-.899-1.498-1.502-.301.301-.904.603-1.201.899-2.402-2.699-5.402-4.799-9.004-6h-3c-10.502 0-19.205 8.401-19.205 18.908 0 2.698.594 5.401 1.799 7.803-1.502 2.699-2.402 6-2.402 9.302 0 8.703 5.699 15.907 13.808 18.31.896.297 1.799.297 2.699.297 2.101 0 4.201-.297 6.004-.899 0 .3.297.899.598 1.199z"/><path fill="#666" d="M53.727 481.836h307.612v11.104H53.727z"/><path fill="#E6E6E6" d="M96.94 490.238c.301 0 .603 0 .904-.298.896 1.498 2.101 2.699 3.599 3h.899c.899 0 2.104 0 3-.602 0 .301.301.602.603.602h.899c1.201 1.201 3 2.101 4.804 2.699h2.1c7.201 0 12.904-5.699 12.904-12.903 0-3-1.201-6-3.301-8.104.301-.6.301-1.197.301-2.101 0-3.302-1.201-6.603-3.603-8.703.301-.599.301-.899.301-1.201 0-.598-.301-1.2-.301-1.799 4.502-2.401 7.502-6.904 7.502-12.306a14.087 14.087 0 0 0-14.104-14.104c-3.904 0-7.502 1.799-10.205 4.201-2.401-1.8-5.397-3-8.401-3a14.087 14.087 0 0 0-14.104 14.104c0 5.101 2.397 9.305 6.301 12.004-1.799 1.804-3.301 4.804-3.301 7.804 0 1.502.301 3 .903 4.501-.903 1.502-1.205 3.301-1.205 5.401 0 5.104 3.305 9.306 7.807 10.804h1.799c1.197 0 2.402-.298 3.297-.599.301.302.301.6.602.6z"/><path fill="#E6E6E6" d="M146.76 480.334c-.297 0-.599-.297-.9-.297-.903 1.498-2.1 2.397-3.603 3h-.899c-.904 0-2.101-.301-2.703-.603-.301.302-.599.302-.9.603-.297 0-.598-.301-.899-.301-1.201 1.2-3.004 2.1-4.803 2.702-.599 0-1.197.298-2.101.298-6.904 0-12.904-6-12.904-12.903 0-3.301 1.201-6 3.301-8.401-.301-.603-.301-1.201-.301-1.804 0-6 4.205-11.401 9.904-12.903.603 0 1.201-.302 2.101-.302 3.004 0 6.004 1.201 8.401 3.005 0-.302.301-.603.603-.904.301 0 .603.302.904.603 1.197-1.799 2.996-3 5.096-3.603h1.803c6.004 0 11.105 4.804 11.105 11.104 0 1.502-.297 3-.9 4.201.9 1.803 1.201 3.603 1.201 5.401 0 5.104-3.301 9.605-7.803 10.807-.603 0-1.201.297-1.799.297-1.205 0-2.402-.297-3.306-.598l-.598.598z"/><path fill="#E6E6E6" d="M255.103 440.122c-.599 0-1.201-.302-1.803-.302-1.498 2.101-3.599 3.904-6.301 5.101h-1.201c-1.799 0-3.602-.599-5.1-1.196-.301.297-.904.899-1.201 1.196-.598-.297-.899-.297-1.502-.599-2.401 2.101-5.101 3.9-8.401 4.804-1.201 0-2.101.297-3.301.297a22.157 22.157 0 0 1-22.209-22.205c0-5.405 1.803-10.506 5.101-14.405v-3.004c0-10.804 6.904-19.507 16.51-22.21 1.498-.297 2.699-.598 3.9-.598 5.401 0 10.502 2.101 14.406 5.101.297-.599.899-1.201 1.201-1.498.598.297.899.598 1.197.899 2.401-3 5.707-5.104 9.305-6.004.9-.298 1.804-.298 2.703-.298 10.5 0 19.203 8.703 19.203 19.205 0 2.703-.599 5.104-1.498 7.502a19.54 19.54 0 0 1 2.401 9.306c0 8.703-6.004 16.205-13.808 18.606-.899 0-2.101.302-3 .302-2.098 0-3.901-.302-5.701-.899-.303.297-.604.597-.901.899z"/><path fill="#E6E6E6" d="M288.415 469.532h-1.201c-.903 1.2-2.101 2.401-3.603 2.702h-.899c-.899 0-1.804 0-2.703-.602-.301.301-.599.602-.899.899-.302-.298-.599-.298-.899-.298-1.201 1.201-3 2.1-4.804 2.699h-2.101c-6.903 0-12.901-5.703-12.901-12.903 0-3.001 1.201-6.005 3.299-8.105-.301-.598-.301-1.2-.301-2.1 0-3.302 1.502-6.603 3.603-8.703v-1.201-1.799c-4.502-2.401-7.203-6.904-7.203-12.306 0-7.803 6.304-14.104 13.806-14.104 4.2 0 7.502 1.799 10.205 4.201 2.397-1.8 5.401-3 8.702-3 7.503 0 13.804 6.301 13.804 14.104 0 5.101-2.401 9.301-6.301 12.004 2.1 1.799 3.301 4.804 3.301 7.804 0 1.502-.301 3-.899 4.502.899 1.498 1.2 3.301 1.2 5.401 0 5.101-3.301 9.302-7.803 10.804h-1.804c-1.2 0-2.101-.302-3.301-.599-.001.298-.298.6-.298.6z"/><path fill="#D2D3D5" d="M166.567 172.718h91.837v27.009h-91.837z"/><path fill="#B3B5B7" d="M258.404 184.124v15.603h-91.837v-15.603z"/><path fill="#4E5A62" d="M363.443 480.636l-24.012-88.832c-.298-1.2-1.201-2.101-2.397-2.101h-35.716V73.079c0-.598 0-.899-.301-1.498l-8.101-13.506c-.302-.9-1.201-1.502-2.104-1.502h-32.408a2.691 2.691 0 0 0-2.703 2.703v110.739h-89.134a2.688 2.688 0 0 0-2.699 2.703v27.008a2.688 2.688 0 0 0 2.699 2.703h89.134v176.768c-5.401-3.603-12.004-5.703-18.904-5.703-4.502 0-8.703.9-12.908 2.703-6.301-5.104-13.803-7.803-21.611-7.803-8.101 0-15.603 2.698-21.908 7.803-2.101-.899-4.201-1.201-6.603-1.201-6.301 0-12.301 3-15.904 7.804-2.402-.301-5.101-.603-7.502-.603-7.506 0-14.707 2.703-20.109 7.506h-21.607c-.903 0-1.502.599-2.1 1.197L51.62 480.334c-.297.603-.297.904-.297 1.502v11.104c0 1.503 1.197 2.699 2.401 2.699h52.52c1.498 1.201 3 1.804 4.803 2.401h.297c.598.302 1.502.302 2.401.302 3 0 6.004-.899 8.406-2.703h239.186a2.687 2.687 0 0 0 2.703-2.699v-11.105c.002-.3-.299-.898-.597-1.199zm-2.104 1.502v10.803H121.551c-2.401 1.8-4.803 2.699-7.803 2.699h-2.1c-1.804-.599-3.301-1.498-4.502-2.699H53.727v-11.104l54.92-89.434h22.506c5.101-4.804 11.703-7.804 19.209-7.804 3 0 5.699.603 8.401 1.503 3.004-5.104 8.703-8.406 15.004-8.406 2.401 0 5.104.603 7.205 1.502 5.703-5.101 13.205-8.104 21.305-8.104 8.109 0 15.607 3.004 21.313 8.104 3.9-1.799 8.402-3 13.205-3 8.101 0 15.603 3 21.305 8.101h.302V199.727h-91.837v-27.009h91.837V59.276h32.409l7.803 13.803v318.725c.603 0 1.201.298 1.804.599h36.615l24.305 89.434v.301z"/><path fill="#4E5A62" d="M161.467 221.939c1.197 0 2.1.896 2.1 1.799 0 1.201-.903 2.101-2.1 2.101h-3.603c-.9 0-1.803-.899-1.803-2.101 0-.903.903-1.799 1.803-1.799h3.603zm-81.033 90.334c-.9 0-1.799-.603-1.799-1.803 0-.899.899-1.8 1.799-1.8h3.903c.9 0 1.799.9 1.799 1.8 0 1.2-.899 1.803-1.799 1.803h-3.903zm15.008 0c-.904 0-1.803-.603-1.803-1.803 0-.899.899-1.8 1.803-1.8h3.598c1.201 0 2.101.9 2.101 1.8 0 1.2-.9 1.803-2.101 1.803h-3.598zm15.004 0c-1.201 0-2.1-.603-2.1-1.803 0-.899.899-1.8 2.1-1.8h3.599c.903 0 1.803.9 1.803 1.8 0 1.2-.9 1.803-1.803 1.803h-3.599zm6.302-12.304c0 1.2-.899 1.799-2.1 1.799-.9 0-1.799-.599-1.799-1.799v-3.603c0-1.201.899-1.8 1.799-1.8 1.201 0 2.1.599 2.1 1.8v3.603zm0-14.707c0 .899-.899 1.799-2.1 1.799-.9 0-1.799-.899-1.799-1.799v-3.9c0-.903.899-1.803 1.799-1.803 1.201 0 2.1.899 2.1 1.803v3.9zm0-15.005c0 .9-.899 1.8-2.1 1.8-.9 0-1.799-.899-1.799-1.8v-3.903c0-.899.899-1.799 1.799-1.799 1.201 0 2.1.899 2.1 1.799v3.903zm0-15.004c0 1.197-.899 1.8-2.1 1.8-.9 0-1.799-.603-1.799-1.8v-3.606c0-1.197.899-1.799 1.799-1.799 1.201 0 2.1.603 2.1 1.799v3.606zm0-15.008c0 1.201-.899 2.101-2.1 2.101-.9 0-1.799-.9-1.799-2.101v-3.603c0-.899.899-1.799 1.799-1.799 1.201 0 2.1.899 2.1 1.799v3.603zm0-14.406c-.301.899-.899 1.498-2.1 1.498-.9 0-1.799-.896-1.799-1.799v-1.799c0-.903.899-1.799 1.799-1.799h2.1c1.201 0 2.101.896 2.101 1.799-.001 1.2-.901 2.1-2.101 2.1zm11.405 0c-1.201 0-2.1-.899-2.1-2.101 0-.903.899-1.799 2.1-1.799h3.599c.904 0 1.803.896 1.803 1.799 0 1.201-.899 2.101-1.803 2.101h-3.599zm14.703 0c-.896 0-1.799-.899-1.799-2.101 0-.903.904-1.799 1.799-1.799h3.904c.899 0 1.803.896 1.803 1.799 0 1.201-.904 2.101-1.803 2.101h-3.904z"/><path fill="#FFAB00" d="M496.092 180.823h-88.531c-7.506 0-13.506 6-13.506 13.502v51.322c0 7.205 6 13.506 13.506 13.506h67.824l19.808 25.209.301-25.209h.599c7.205 0 13.507-6.301 13.507-13.506v-51.322c-.001-7.502-6.303-13.502-13.508-13.502z"/><path fill="#FFCA28" d="M369.143 151.71h115.246c9.603 0 17.406 7.803 17.406 17.406v66.928c0 9.603-7.804 17.406-17.406 17.406h-88.233l-25.812 33.012-.298-33.012h-.903c-9.603 0-17.406-7.803-17.406-17.406v-66.928c-.001-9.603 7.803-17.406 17.406-17.406z"/><path fill="#4E5A62" d="M421.967 273.257c0-1.2-1.201-2.401-2.703-2.401-1.201 0-2.401 1.201-2.401 2.401v5.101c0 1.502 1.2 2.703 2.401 2.703a2.691 2.691 0 0 0 2.703-2.703v-5.101zm-106.845 61.522c-1.498 0-2.397 1.2-2.397 2.703 0 1.2.899 2.401 2.397 2.401h5.104c1.498 0 2.698-1.201 2.698-2.401 0-1.503-1.2-2.703-2.698-2.703h-5.104zm20.409 0c-1.502 0-2.401 1.2-2.401 2.703 0 1.2.899 2.401 2.401 2.401h5.101c1.502 0 2.703-1.201 2.703-2.401a2.69 2.69 0 0 0-2.703-2.703h-5.101zm20.407 0a2.69 2.69 0 0 0-2.699 2.703c0 1.2 1.201 2.401 2.699 2.401h5.104c1.498 0 2.401-1.201 2.401-2.401 0-1.503-.903-2.703-2.401-2.703h-5.104zm20.41 0a2.69 2.69 0 0 0-2.703 2.703c0 1.2 1.201 2.401 2.703 2.401h5.101c1.502 0 2.401-1.201 2.401-2.401 0-1.503-.899-2.703-2.401-2.703h-5.101zm20.405 0a2.689 2.689 0 0 0-2.698 2.703c0 1.2 1.2 2.401 2.698 2.401h5.104c1.498 0 2.402-1.201 2.402-2.401 0-1.503-.904-2.703-2.402-2.703h-5.104zm20.109 0c-1.201.301-2.402 1.2-2.402 2.703 0 1.2 1.201 2.401 2.703 2.401h2.101c1.502 0 2.703-1.201 2.703-2.401v-3c0-1.503-1.201-2.402-2.703-2.402-1.201 0-2.401.899-2.401 2.402v.297zm0-15.605c0 1.502 1.2 2.702 2.401 2.702a2.69 2.69 0 0 0 2.703-2.702v-5.101c0-1.502-1.201-2.402-2.703-2.402-1.201 0-2.401.9-2.401 2.402v5.101zm0-20.406c0 1.502 1.2 2.699 2.401 2.699a2.688 2.688 0 0 0 2.703-2.699v-5.101c0-1.502-1.201-2.401-2.703-2.401-1.201 0-2.401.899-2.401 2.401v5.101z"/><path fill="#4E5A62" d="M504.498 180.823v-11.707c0-11.104-9.005-20.109-20.109-20.109H369.143c-11.101 0-20.104 9.004-20.104 20.109v66.928c0 10.502 8.101 18.908 18.306 19.808l.301 30.61c0 .9.599 2.101 1.799 2.402.9.301 2.101 0 3-.9l24.013-30.911c3 2.999 6.899 4.502 11.104 4.502h66.623l18.908 24.31c.603.899 1.8 1.196 3 .899 1.201-.302 1.804-1.201 1.804-2.402v-22.807c8.101-.904 14.104-7.808 14.104-15.908v-51.322c-.001-5.703-2.704-10.804-7.503-13.502zm5.101 64.823c0 7.205-6.302 13.506-13.507 13.506h-.599l-.301 25.209-19.808-25.209H407.56c-4.502 0-8.707-2.401-11.104-5.703h-.301l-25.812 33.012-.298-33.012h-.903c-9.603 0-17.406-7.803-17.406-17.406v-66.928c0-9.603 7.804-17.406 17.406-17.406h115.246c9.603 0 17.406 7.803 17.406 17.406v13.205c4.502 2.101 7.804 6.603 7.804 12.004v51.322z"/><path fill="#FFCC29" d="M45.02 221.939c23.41 0 42.615 22.506 42.615 42.615 0 20.108-9.301 31.51-23.104 38.715H27.313c-14.707-6.603-24.606-21.31-24.908-38.414 0-23.71 19.205-42.916 42.615-42.916zm19.51 81.331zm-37.217 21.008v-20.41-.599 21.009z"/><path fill="#BDBFC1" d="M64.53 303.27v24.008c0 5.101-3.306 9.004-7.506 9.004H35.116c-4.201 0-7.502-3.903-7.804-9.004v-23.409-.599H64.53z"/><path fill="#A9ABAE" d="M27.362 307.454l37.844-.102c1.347 0 2.442 1.079 2.446 2.414.004 1.339-1.087 2.422-2.438 2.426l-37.84.098a2.432 2.432 0 0 1-2.451-2.41 2.432 2.432 0 0 1 2.439-2.426z"/><path fill="#A9ABAE" d="M27.39 316.865l37.84-.098a2.432 2.432 0 0 1 2.45 2.414 2.437 2.437 0 0 1-2.438 2.426l-37.844.098a2.432 2.432 0 0 1-2.447-2.413c-.003-1.336 1.088-2.423 2.439-2.427z"/><path fill="#A9ABAE" d="M27.406 325.69l37.844-.098c1.348-.004 2.447 1.074 2.451 2.413.004 1.336-1.087 2.422-2.438 2.426l-37.84.098a2.432 2.432 0 0 1-2.451-2.414 2.436 2.436 0 0 1 2.434-2.425z"/><path fill="#FFF212" d="M34.514 261.555h24.611V303.27h-3.599v-38.415H36.317v38.415h-3.301V261.555z"/><path fill="#4E5A62" d="M90.338 264.555c0-11.406-5.699-22.507-13.205-30.615-8.402-9-19.808-14.703-32.113-14.703-24.908.302-45.318 20.41-45.017 45.619 0 17.104 9.607 32.41 24.611 40.214v.602c-1.201.599-2.401 2.398-2.401 4.201 0 1.799 1.201 3.603 2.703 4.502v.599c-1.502.899-2.703 2.401-2.703 4.201 0 2.104 1.201 3.603 2.703 4.502-1.502.899-2.703 2.702-2.703 4.502 0 2.4 1.799 4.2 3.899 4.802 1.799 3.603 5.104 6.001 9.004 6.001h21.908c3.904 0 7.205-2.398 9.004-6.001 2.401-.301 4.201-2.401 4.201-5.099 0-1.804-.899-3.306-2.402-4.205 1.502-.899 2.402-2.699 2.402-4.502 0-2.101-1.197-3.9-3-4.498v-.302c1.803-.603 3-2.401 3-4.502s-1.197-3.903-3-4.803v-.302c15.606-8.704 23.109-21.909 23.109-40.213zm-25.21 42.916c1.502 0 2.402.899 2.402 2.401 0 1.201-.9 2.401-2.402 2.401h-.598v4.503h.598c1.502 0 2.402 1.196 2.402 2.397.297 1.2-.9 2.401-2.402 2.401h-.598v3.903h.598c1.502 0 2.699 1.201 2.699 2.402 0 1.496-1.197 2.396-2.401 2.697h-1.197c-1.201 3.302-3.9 5.703-7.205 5.703H35.116c-3.301 0-6-2.401-7.205-5.703h-.599c-1.201 0-2.397-1.201-2.397-2.4 0-1.498 1.197-2.401 2.397-2.401v-4.201c-1.201 0-2.397-.899-2.397-2.401 0-1.201 1.197-2.397 2.397-2.397v-4.503c-1.201 0-2.397-1.2-2.397-2.401s1.197-2.401 2.397-2.401v-3.603-.599c-14.707-6.603-24.606-21.31-24.908-38.414 0-23.711 19.205-42.916 42.615-42.916 23.41 0 42.615 22.506 42.615 42.615 0 20.108-9.301 31.51-23.104 38.715v4.202h.598z"/></g><metadata><rdf:RDF xmlns:rdf="http://www.w3.org/1999/02/22-rdf-syntax-ns#" xmlns:rdfs="http://www.w3.org/2000/01/rdf-schema#" xmlns:dc="http://purl.org/dc/elements/1.1/"><rdf:Description about="https://iconscout.com/legal#licenses" dc:title="creative,research" dc:description="creative,research" dc:publisher="Iconscout" dc:date="2017-09-22" dc:format="image/svg+xml" dc:language="en"><dc:creator><rdf:Bag><rdf:li>Graphiqa Stock</rdf:li></rdf:Bag></dc:creator></rdf:Description></rdf:RDF></metadata></svg>