<?xml version="1.0" encoding="UTF-8"?><!DOCTYPE svg PUBLIC "-//W3C//DTD SVG 1.1//EN" "http://www.w3.org/Graphics/SVG/1.1/DTD/svg11.dtd"><svg xmlns="http://www.w3.org/2000/svg" xmlns:xlink="http://www.w3.org/1999/xlink" version="1.1" id="Define_the_Goal" x="0px" y="0px" width="512px" height="512px" viewBox="0 0 512 512" xml:space="preserve"><path id="Background" fill="#96CEB5" d="M256 0c141.385 0 256 114.616 256 256 0 141.385-114.615 256-256 256C114.611 512 0 397.385 0 256 0 114.616 114.611 0 256 0z"/><g id="Define_the_Goal_1_"><path fill="#C5483A" d="M188.306 73.637c100.722 0 182.364 81.642 182.364 182.363s-81.642 182.362-182.364 182.362C87.582 438.362 5.94 356.721 5.94 256S87.582 73.637 188.306 73.637z"/><path fill="#E6E6E6" d="M188.306 113.989c78.511 0 142.011 63.496 142.011 142.011s-63.5 142.015-142.011 142.015c-78.515 0-142.014-63.5-142.014-142.015s63.5-142.011 142.014-142.011z"/><path fill="#C5483A" d="M188.306 139.013c64.748 0 116.988 52.236 116.988 116.987 0 64.752-52.24 116.987-116.988 116.987-64.751 0-116.991-52.235-116.991-116.987 0-64.751 52.24-116.987 116.991-116.987z"/><path fill="#E6E6E6" d="M188.306 169.98c47.543 0 86.017 38.473 86.017 86.02 0 47.548-38.474 86.021-86.017 86.021-47.547 0-86.024-38.473-86.024-86.021 0-47.547 38.477-86.02 86.024-86.02z"/><path fill="#C5483A" d="M188.306 189.06c36.912 0 66.941 30.029 66.941 66.94s-30.03 66.941-66.941 66.941-66.94-30.03-66.94-66.941 30.029-66.94 66.94-66.94z"/><path fill="#E6E6E6" d="M188.306 204.074c28.774 0 51.922 23.148 51.922 51.926 0 28.777-23.148 51.926-51.922 51.926-28.782 0-51.93-23.148-51.93-51.926 0-28.778 23.148-51.926 51.93-51.926z"/><path fill="#FC0" d="M177.67 205.954h66.313l41.913 32.842v75.384H177.67z"/><path fill="#E6B800" d="M285.896 239.419l-36.597 2.818-5.316-36.283z"/><path fill="#F66" d="M112.609 222.529l61.934-23.147 50.985 15.952 26.274 70.696-101.348 37.848z"/><path fill="#E65C5C" d="M225.841 215.962l-33.47 15.329-17.518-32.219z"/><path fill="#900" d="M173.916 225.347c0-.628.314-1.251.938-1.565s1.251-.624 1.88-.624c.314 0 .938.31 1.561.938.942.31 1.251.938 1.251 1.251v29.088c0 9.385.314 19.083 1.251 28.778-.628.941-1.561 1.564-2.817 2.188-.933 0-1.562-1.561-2.189-4.063-.624-2.817-.938-5.944-1.247-9.386-.314-3.754-.314-7.195-.628-11.26v-35.345zm6.881 67.564c.314.624.314.938.314 1.251 0 1.252-.314 1.876-.942 2.19-.624.623-1.561.623-2.499.623-.624-.31-.938-.623-1.252-1.251-.628-.624-.628-.938-.628-1.875 0-1.876.942-2.813 2.503-2.813.628 0 1.251 0 1.565.623.624.624.938.938 1.251 1.566l-.312-.314z"/><path fill="#FC9" d="M188.617 242.551v5.002-5.002z"/><path fill="#FC9" d="M188.617 242.551v5.002-5.002z"/><path fill="#E6B800" d="M188.617 242.551h305.612c15.639 0 15.639 27.84 0 27.84H188.617v-27.84z"/><path fill="#FC0" d="M188.617 251.936h285.59v9.07h-285.59z"/><path fill="#E6B800" d="M188.617 242.551h285.59v9.385h-285.59v-9.076z"/><path fill="#CFA600" d="M474.207 242.551h8.447v27.84h-8.447z"/><path fill="#C30" d="M482.654 242.551h11.574c15.953 0 15.639 27.84 0 27.84h-11.574v-27.84z"/><path fill="#4E5A62" d="M494.229 236.607H375.672c-9.695-95.719-90.708-168.914-187.366-168.914C84.141 67.693 0 151.838 0 256c0 104.161 84.141 188.307 188.306 188.307 96.343 0 177.047-72.881 187.366-167.976h120.747c21.581-2.503 20.644-39.724-2.19-39.724zm1.562 33.784h-.938-124.807c-7.195 94.154-85.71 167.972-181.74 167.972C87.582 438.362 5.94 356.721 5.94 256S87.582 73.637 188.306 73.637c96.343 0 175.167 74.446 182.05 168.914h123.872c15.639 0 15.639 26.275 1.563 27.84z"/></g><metadata><rdf:RDF xmlns:rdf="http://www.w3.org/1999/02/22-rdf-syntax-ns#" xmlns:rdfs="http://www.w3.org/2000/01/rdf-schema#" xmlns:dc="http://purl.org/dc/elements/1.1/"><rdf:Description about="https://iconscout.com/legal#licenses" dc:title="define,the,goal" dc:description="define,the,goal" dc:publisher="Iconscout" dc:date="2017-09-22" dc:format="image/svg+xml" dc:language="en"><dc:creator><rdf:Bag><rdf:li>Graphiqa Stock</rdf:li></rdf:Bag></dc:creator></rdf:Description></rdf:RDF></metadata></svg>