<?xml version="1.0" encoding="UTF-8"?><!DOCTYPE svg PUBLIC "-//W3C//DTD SVG 1.1//EN" "http://www.w3.org/Graphics/SVG/1.1/DTD/svg11.dtd"><svg xmlns="http://www.w3.org/2000/svg" xmlns:xlink="http://www.w3.org/1999/xlink" version="1.1" id="Design_Graphic" x="0px" y="0px" width="512px" height="512px" viewBox="0 0 512 512" xml:space="preserve"><path id="Background" fill="#AFBD77" d="M256 0c141.355 0 256 114.216 256 255.043S397.355 510.086 256 510.086 0 395.87 0 255.043 114.645 0 256 0z"/><g id="Design_Graphic_1_"><path fill="#757575" d="M352.938 366.566c0 .6.301 1.196.301 1.796 0 17.341-43.815 31.693-98.138 31.693-54.021 0-97.837-14.353-97.837-31.693 0-.6 0-1.196.297-1.796-.297-.597-.297-1.196-.297-1.492 0-17.642 43.816-31.993 97.837-31.993 54.322 0 98.138 14.352 98.138 31.993-.001.296-.301.896-.301 1.492z"/><path fill="#696969" d="M352.938 366.566c0 .6.301 1.196.301 1.796 0 17.341-43.815 31.693-98.138 31.693h-6.904V333.38c2.401-.3 4.799-.3 6.904-.3 54.322 0 98.138 14.352 98.138 31.993-.001.297-.301.897-.301 1.493z"/><path fill="#757575" d="M248.197 333.381c2.401-.3 4.799-.3 6.904-.3 52.519 0 95.138 13.456 97.837 30.196-2.699 16.744-45.318 29.9-97.837 29.9h-6.904v-59.796z"/><path fill="#8D8D8D" d="M255.101 329.792c54.033 0 97.837 14.189 97.837 31.692 0 17.504-43.804 31.693-97.837 31.693-54.038 0-97.837-14.189-97.837-31.693 0-17.503 43.799-31.692 97.837-31.692z"/><path fill="#7F7F7F" d="M255.101 329.492c54.322 0 98.138 14.352 98.138 31.992 0 17.642-43.815 31.693-98.138 31.693h-6.904v-63.386c2.401.001 4.799-.299 6.904-.299z"/><path fill="#CCC" d="M219.686 268.795h71.126v84.615h-71.126z"/><path fill="#B8B8B8" d="M290.812 314.243v39.167h-42.615v-39.167z"/><path fill="#B8B8B8" d="M225.088 274.177h61.824v73.852h-61.824z"/><path fill="#A6A6A6" d="M286.912 314.243v33.786h-38.715v-33.786z"/><path fill="#A9ABAE" d="M77.732 70.562h356.536c3.302 0 6.306 2.691 6.306 6.28v231.125c0 3.289-3.004 6.277-6.306 6.277H77.732c-3.305 0-6.301-2.988-6.301-6.277V76.841c0-3.589 2.996-6.279 6.301-6.279z"/><path fill="#699" d="M91.837 79.83h334.33c2.699 0 4.8 2.393 4.8 5.083V294.21c0 2.989-2.101 5.086-4.8 5.086H85.833c-2.703 0-4.803-2.097-4.803-5.086V90.893c-.001-5.979 4.803-11.063 10.807-11.063z"/><path fill="#CCC" d="M256 300.788c2.816 0 5.101 2.274 5.101 5.085 0 2.807-2.284 5.082-5.101 5.082s-5.104-2.275-5.104-5.082c0-2.81 2.287-5.085 5.104-5.085z"/><path fill="#B3B3B3" d="M256 302.284a3.595 3.595 0 0 1 3.603 3.589 3.594 3.594 0 0 1-3.603 3.585c-1.986 0-3.603-1.605-3.603-3.585a3.599 3.599 0 0 1 3.603-3.589z"/><path fill="#366" d="M102.042 86.708h313.619c2.703 0 4.804 2.093 4.804 4.784v196.441c0 2.688-2.101 4.785-4.804 4.785H96.335c-2.699 0-4.799-2.097-4.799-4.785V97.173c0-5.98 4.799-10.465 10.506-10.465z"/><path fill="#E6E6E6" d="M123.046 93.584H385.95V285.84H123.046z"/><path fill="#6FC" d="M96.937 93.584h17.96v188.837h-17.96z"/><path fill="#E6E6E6" d="M392.553 92.986h17.959v189.309h-17.959z"/><path fill="#3C9" d="M394.954 95.977h5.703v5.682h-5.703v-5.682zm8.105 156.075h5.703v5.679h-5.703v-5.679zm-8.105 0h5.703v5.679h-5.703v-5.679zm8.105-7.474h5.703v5.68h-5.703v-5.68zm-8.105 0h5.703v5.68h-5.703v-5.68zm8.105-7.476h5.703v5.682h-5.703v-5.682zm-8.105 0h5.703v5.682h-5.703v-5.682zm8.105-7.474h5.703v5.682h-5.703v-5.682zm-8.105 0h5.703v5.682h-5.703v-5.682zm8.105-7.476h5.703v5.682h-5.703v-5.682zm-8.105 0h5.703v5.682h-5.703v-5.682zm8.105-7.474h5.703v5.98h-5.703v-5.98zm-8.105 0h5.703v5.98h-5.703v-5.98zm8.105-7.176h5.703v5.682h-5.703v-5.682zm-8.105 0h5.703v5.682h-5.703v-5.682zm8.105-7.474h5.703v5.68h-5.703v-5.68zm-8.105 0h5.703v5.68h-5.703v-5.68zm8.105-7.476h5.703v5.682h-5.703v-5.682zm-8.105 0h5.703v5.682h-5.703v-5.682zm8.105-7.474h5.703v5.682h-5.703v-5.682zm-8.105 0h5.703v5.682h-5.703v-5.682zm8.105-7.476h5.703v5.682h-5.703v-5.682zm-8.105 0h5.703v5.682h-5.703v-5.682zm8.105-7.475h5.703v5.979h-5.703v-5.979zm-8.105 0h5.703v5.979h-5.703v-5.979zm8.105-7.176h5.703v5.682h-5.703v-5.682zm-8.105 0h5.703v5.682h-5.703v-5.682zm8.105-7.473h5.703v5.679h-5.703v-5.679zm-8.105 0h5.703v5.679h-5.703v-5.679zm8.105-7.477h5.703v5.682h-5.703v-5.682zm-8.105 0h5.703v5.682h-5.703v-5.682zm8.105-7.474h5.703v5.682h-5.703v-5.682zm-8.105 0h5.703v5.682h-5.703v-5.682zm8.105-7.474h5.703v5.679h-5.703v-5.679zm-8.105 0h5.703v5.679h-5.703v-5.679zm8.105-7.476h5.703v5.979h-5.703v-5.979zm-8.105 0h5.703v5.979h-5.703v-5.979zm8.105-7.176h5.703v5.682h-5.703v-5.682zm-8.105 0h5.703v5.682h-5.703v-5.682zm8.105-7.474h5.703v5.682h-5.703v-5.682zm-8.105 0h5.703v5.682h-5.703v-5.682zm8.105-7.476h5.703v5.682h-5.703v-5.682zm-8.105 0h5.703v5.682h-5.703v-5.682zm8.105-7.474h5.703v5.682h-5.703v-5.682z"/><path fill="#3C9" d="M254.799 139.331l21.908 12.557 21.611 12.558v50.232l-21.611 12.557-21.908 12.558-21.611-12.558-21.908-12.557v-50.232l21.908-12.558z"/><path fill="#C30" d="M207.381 211.687h5.821v5.83h-5.821z"/><path fill="#C30" d="M210.083 213.184h86.135v2.69h-86.135z"/><path fill="#C30" d="M294.716 211.687h5.82v5.83h-5.82z"/><path fill="#CCC" d="M211.582 212.585l5.703 5.083-2.699 14.353h-8.703l-3.004-14.353 6-5.083v12.558h2.703z"/><path fill="#B3B3B3" d="M205.582 232.021h9.383c.997 0 1.803 1.606 1.803 3.587 0 1.983-.806 3.589-1.803 3.589h-9.383c-.993 0-1.799-1.606-1.799-3.589-.001-1.982.805-3.587 1.799-3.587z"/><path fill="#4D4D4D" d="M208.879 211.687h2.532v13.427h-2.532z"/><path fill="#4D4D4D" d="M210.083 222.452c1.49 0 2.699 1.204 2.699 2.69s-1.209 2.691-2.699 2.691c-1.494 0-2.703-1.205-2.703-2.691s1.21-2.69 2.703-2.69z"/><path fill="#CCC" d="M254.502 116.907H253.297c-.899 0-1.498-.598-1.498-1.196 0-.896.598-1.495 1.197-1.495h4.205c.899 0 1.2.598 1.2 1.495 0 .598-.603 1.196-1.2 1.196h-2.699zm-9.606-2.093c.603 0 1.498.598 1.498 1.196 0 .896-.297 1.495-1.197 1.495H244.293l-.297.298h-1.502c-.598.3-1.197-.298-1.498-.896 0-.896.599-1.495 1.197-1.795h1.803l.297-.298h.603zm-10.804 2.093c.9 0 1.498.298 1.799 1.196 0 .598-.301 1.196-.899 1.494h-.297l-.603.3h-.301l-.603.298h-.297l-.301.298h-.297c-.603 0-1.502-.298-1.502-.896-.301-.896 0-1.494.598-1.794h.301l.301-.298h.899l.599-.3h.301l.302-.298zm-10.205 3.886c.598-.3 1.502 0 1.803.598.297.598 0 1.495-.904 1.795l-.301.298h-.297l-.301.298h-.599l-.301.3-.301.298h-.301c-.598.3-1.196 0-1.799-.599-.301-.596 0-1.494.603-1.792h.301l.297-.3.297-.298h.602l.301-.3.603-.298h.297zm-9.602 5.084c.598-.3 1.197 0 1.799.598.301.596.301 1.495-.602 1.792h-.297l-.301.3-.297.298-.301.3-.301.298-.603.3c-.599.298-1.498.298-1.799-.3-.598-.598-.301-1.494.301-2.092l.603-.3.297-.298h.301l.297-.298.603-.3.3-.298zm-9.005 6.578c.603-.3 1.498-.3 2.101.298.301.3.301 1.196-.301 1.794l-.599.298-.301.3-.297.298-.301.3-.301.298v.3c-.603.596-1.498.298-2.101 0-.602-.598-.301-1.496 0-2.094h.301l.301-.298.297-.3.301-.298.297-.298.603-.3v-.298zm-7.803 7.772a1.458 1.458 0 0 1 2.101 0c.598.3.598 1.196 0 1.794l-.297.3-.301.298-.301.598-.301.298-.301.3-.297.298c-.301.598-1.201.598-1.803 0-.599-.298-.599-1.194-.301-1.792l.301-.3.301-.298.301-.3.301-.298.301-.598.296-.3zm-6.602 8.672c.598-.598 1.201-.598 2.101-.3.598.3.598 1.196.301 1.794l-.301.598-.297.298v.3l-.301.298-.301.598-.301.3c-.301.598-1.197.896-1.799.298-.603-.298-.904-1.196-.301-1.794v-.298l.301-.3.301-.596.301-.3.297-.298v-.598zm-5.101 9.867c.301-.598 1.197-1.196 1.799-.898.603.598.899 1.196.603 1.794v.598l-.301.3-.301.298v.598l-.301.298v.598c-.301.598-1.197.898-1.799.598-.603-.298-1.201-.896-.903-1.794l.301-.298.301-.598v-.298l.301-.598v-.3l.3-.298zm-3.904 10.165c.301-.598 1.201-1.196 1.804-.896.598.298 1.196.896.896 1.794v.298l-.297.598v.298l-.297.598v.598c-.301.898-.903 1.196-1.803 1.196-.598-.298-.899-.896-.899-1.795v-.298l.301-.598v-.298l.297-.599V168.931h-.002zm-2.1 10.765c0-.598.899-1.197 1.502-1.197.899.298 1.197.896 1.197 1.495V180.89l-.297.598v1.196c0 .898-.598 1.494-1.502 1.196-.598 0-1.197-.598-1.197-1.495V181.487l.297-.298V179.696zm-.599 11.063c0-.898.599-1.497 1.197-1.497.904 0 1.502.598 1.502 1.497V193.449c0 .598-.598 1.197-1.201 1.197-.899.298-1.498-.3-1.498-1.197v-2.69zm.9 11.061c0-.896.297-1.495 1.201-1.792.598 0 1.197.598 1.498 1.196V202.12l.301.599v1.196c.301.598-.301 1.494-.9 1.494-.899.298-1.502-.3-1.502-.896l-.301-.598v-1.196l-.297-.599v-.3zm2.398 10.465c0-.598.301-1.495.904-1.495.899-.298 1.498 0 1.799.896l.301.598v.3l.301.598v.298l.301.3v.298c.297.598-.301 1.495-.904 1.794-.602.298-1.498-.3-1.799-.898v-.596l-.301-.598v-.3l-.301-.298v-.598l-.301-.299zm4.205 10.167c-.301-.598 0-1.196.598-1.794.603-.298 1.502 0 1.799.896l.301.598.301.3v.298l.301.598.301.3c.301.896 0 1.494-.602 2.092-.603.298-1.498 0-1.799-.598v-.298l-.301-.3-.301-.598v-.298l-.301-.3-.297-.598v-.298zm5.401 9.569c-.301-.598-.301-1.496.301-1.794.599-.3 1.498-.3 2.101.298v.3l.301.298.297.3.301.298v.598l.297.298h.301c.301.598.301 1.497-.301 2.095-.599.298-1.498.298-2.101-.3v-.298l-.297-.3-.301-.298-.297-.598-.301-.3v-.298l-.301-.299zm6.904 8.67c-.603-.598-.603-1.496 0-1.794.599-.598 1.498-.598 2.101 0l.301.298.297.3.301.298.297.3.301.598h.301c.301.598.301 1.495 0 2.093-.603.598-1.498.598-2.101 0l-.301-.3-.301-.298-.297-.298-.301-.3-.297-.598-.301-.299zm8.101 7.474c-.599-.298-.9-1.196-.301-1.794.301-.598 1.205-.598 1.803-.298l.297.298.301.3.301.298.603.3.301.298.297.3c.598.298.598 1.194.301 1.792-.301.598-1.201.598-1.803.3l-.599-.3-.301-.298-.297-.3-.301-.298-.301-.298-.301-.3zm8.702 6.28c-.598-.3-.598-1.196-.301-1.794.301-.598 1.205-.896 1.803-.3h.301l.297.3.301.298h.603l.301.3.297.298h.301c.599.3.9 1.196.297 1.794-.297.598-.896.898-1.799.598l-.301-.3-.598-.298-.297-.298h-.301l-.603-.3-.301-.298zm9.908 5.083c-.603-.3-.904-1.196-.603-1.797.301-.596.899-.896 1.799-.596h.603l.301.3.599.296h.301l.297.301h.301c.603.3.904.896.603 1.792 0 .601-.904.9-1.502.601h-.598l-.602-.3-.301-.301h-.599l-.301-.296h-.298zm10.502 3.289c-.899 0-1.201-.896-.899-1.496 0-.597.899-1.196 1.502-.896h.895l.301.3H238.895l.598.296c.599 0 1.201.9.9 1.497 0 .596-.9 1.196-1.498.896H237.991l-.599-.3H236.492l-.3-.297zm10.804 2.093c-.899-.301-1.201-.896-1.201-1.497 0-.896.599-1.492 1.502-1.196h2.402c.899.301 1.498.896 1.498 1.497 0 .896-.9 1.496-1.498 1.196H246.996zm10.803.3c-.598 0-1.2-.601-1.2-1.496 0-.601.301-1.196 1.2-1.196h.302l.603-.301h1.799c.599 0 1.201.601 1.502 1.196 0 .896-.603 1.497-1.502 1.497H258.703l-.302.3h-.602zm11.105-1.496c-.9.3-1.498-.301-1.8-.896 0-.896.599-1.496 1.201-1.797H269.506l.599-.296H271.005c.603-.3 1.201.296 1.502.896.302.596-.301 1.492-.899 1.492l-.603.3H270.105l-.301.301H268.904zm10.506-2.693c-.603.301-1.502-.296-1.804-.896-.297-.597.302-1.493.904-1.793h.598l.302-.3h.599l.301-.301h.302l.297-.296c.903-.3 1.502 0 1.803.896.302.596 0 1.492-.603 1.793h-.297l-.603.3h-.301l-.599.3h-.301l-.598.297zm9.903-4.485c-.603.3-1.2 0-1.803-.596-.298-.598 0-1.495.603-1.794h.301l.297-.298h.302l.603-.3.297-.298.301-.3h.302c.599-.298 1.498-.298 1.799.598.302.598.302 1.196-.598 1.794l-.603.298-.302.3h-.297l-.603.3-.297.296h-.302zm9.603-5.68c-.598.3-1.502.3-2.101-.298-.301-.598-.301-1.496.302-2.092l.599-.3h.301l.302-.298.297-.3.301-.298.302-.3c.599-.298 1.498-.298 2.101.3.301.598.301 1.494-.302 1.792l-.301.3-.298.298-.602.3-.298.298-.301.3-.302.298zm8.105-7.176c-.301.599-1.2.599-1.803 0-.599-.598-.599-1.494 0-1.792l.301-.3.302-.298.301-.3.297-.298.302-.598.301-.3c.599-.598 1.498-.598 2.101 0 .302.598.599 1.496 0 1.794v.3l-.301.298-.302.298-.297.3-.603.298-.301.3-.298.298zm7.502-8.37c-.599.596-1.503.896-2.101.298-.603-.298-.603-1.197-.302-1.795l.302-.298.301-.3.297-.298.302-.3.301-.298v-.598h.302c.297-.598 1.196-.896 1.799-.298.599.298.599 1.194.302 1.792v.3l-.302.298-.301.3-.302.298-.297.598-.301.301zm6.004-8.971c-.603.599-1.201.896-1.804.298-.899-.298-.899-.896-.599-1.792l.298-.598v-.3l.301-.298.302-.3.301-.598c.297-.896 1.201-1.196 1.8-.598.598.3.899.898.598 1.794l-.297.598-.301.3-.302.298v.598l-.297.298v.3zm4.498-10.167c-.298.898-.899 1.196-1.8.898-.598-.3-.899-.898-.598-1.794v-.598l.297-.298v-.598l.301-.3v-.298l.302-.3c0-.896.899-1.196 1.498-.896.903.298 1.2.896.903 1.794l-.301.598v.298l-.302.598v.298l-.3.598zm3.004-10.464c0 .898-.899 1.196-1.502 1.196-.599-.298-1.201-.896-.899-1.794v-1.194l.301-.3V202.72c.297-.898.899-1.495 1.498-1.197.899 0 1.502.896 1.201 1.495V203.916l-.302.598V205.41l-.297.298zm1.498-10.764c0 .598-.599 1.196-1.201 1.196-.899 0-1.498-.598-1.498-1.494l.302-.3v-2.392c0-.596.599-1.194 1.196-1.194.904 0 1.502.598 1.502 1.494v1.794l-.301.599v.297zm0-11.063c0 .598-.297 1.494-1.201 1.494-.598 0-1.196-.598-1.498-1.196V181.789l-.301-.3c0-.896.603-1.495 1.201-1.495.899 0 1.502.3 1.502 1.196l.297.298v2.393zm-1.498-10.763c0 .598-.301 1.194-1.201 1.495-.603.298-1.2-.3-1.502-.896v-.3l-.301-.598V171.923l-.298-.3v-.598c-.301-.596.298-1.494.9-1.494.899-.298 1.502 0 1.799.898V171.325l.302.298v.599l.301.598v.298zm-3.301-10.765c.298.898 0 1.497-.602 1.795-.9.298-1.498 0-1.8-.598l-.301-.599v-.298l-.302-.3v-.598l-.297-.298-.301-.3c-.302-.896.301-1.494.899-1.792.603-.3 1.502 0 1.799.598v.298l.302.598v.298l.301.598.301.3v.298h.001zm-4.502-9.867c.302.598 0 1.497-.603 1.794-.598.598-1.498.298-1.799-.298l-.301-.598-.302-.3-.297-.298v-.3l-.302-.598-.301-.298c-.297-.598 0-1.495.603-1.794.599-.298 1.498-.298 1.799.3l.302.596v.3l.301.298.297.598.302.3v.298h.301zm-6.301-8.97c.599.598.297 1.196-.302 1.794-.301.598-1.2.3-1.803-.298l-.297-.3-.302-.298v-.3l-.301-.298-.302-.3-.297-.298v-.298c-.603-.598-.603-1.196 0-1.794.599-.598 1.498-.3 1.799.298h.302l.301.3.297.298.302.3.301.298v.598l.302.298zm-7.205-8.37c.599.598.599 1.495 0 2.093s-1.502.598-1.799 0l-.302-.3-.301-.298-.302-.298-.297-.3-.302-.298-.301-.3h-.297c-.603-.598-.603-1.495 0-1.794.297-.596 1.196-.896 1.799-.298l.302.298.297.3.301.298.302.3.301.298.297.3h.302zm-8.402-6.878c.598.3.598 1.196.297 1.794-.599.598-1.498.896-2.101.298l-.297-.298-.302-.298h-.603l-.297-.3-.301-.298-.302-.3c-.599-.298-.599-1.196-.301-1.794.301-.596 1.2-.896 1.803-.298h.302l.297.298.603.3.297.298.302.3.301.298h.302zm-9.607-5.68c.904.298 1.201 1.194.603 1.792-.301.598-.899.898-1.803.598l-.298-.298-.301-.3h-.603l-.297-.298-.302-.3h-.598c-.603-.298-.904-1.194-.603-1.792.301-.598 1.2-.898 1.799-.598h.302l.602.298.298.3h.603l.301.298.297.3zm-9.903-4.485c.603.298.899 1.196.899 1.794-.297.896-1.196 1.194-1.799.896l-.599-.3H276.409l-.302-.298h-.603v-.298c-.899 0-1.2-.898-1.2-1.497.301-.896 1.2-1.196 1.803-.896h.901l.301.298h.599l.301.3h.599zm-10.804-2.691c.9.298 1.201.896 1.201 1.495 0 .896-.899 1.494-1.502 1.196H266.803l-.302-.3H265.002c-.603-.298-1.2-.896-1.2-1.494.301-.896.899-1.495 1.502-1.197h1.197l.302.3H268.004z"/><path fill="#BDC6CB" d="M387.753 360.288c4.8 2.394 8.101 7.475 8.101 13.156v90.297c0 8.37-6.603 14.948-14.703 14.948h-150.36c-4.205 0-7.804-1.492-10.506-4.186 2.1.896 4.201 1.497 6.603 1.497h150.36c8.104 0 15.004-6.578 15.004-14.952v-90.293c-.001-3.889-1.8-7.774-4.499-10.467z"/><path fill="#DDE8EE" d="M226.887 356.104h150.36c8.104 0 15.004 6.578 15.004 14.652v90.293c0 8.374-6.899 14.952-15.004 14.952h-150.36c-8.101 0-15.004-6.578-15.004-14.952v-90.293c0-8.074 6.904-14.652 15.004-14.652z"/><path fill="#869292" d="M216.083 471.216c-.301 0-.301-.301-.301-.301h35.716c-4.201-1.192-7.502-5.381-7.502-9.866v-90.293c0-4.786 3.301-8.675 7.502-10.167h-35.415.301v-.301h160.862c5.703 0 10.506 4.786 10.506 10.468v90.293c0 5.682-4.803 10.167-10.506 10.167H216.083z"/><path fill="#DDE8EE" d="M258.401 365.67h114.344c5.702 0 10.205 4.485 10.205 9.867v80.43c0 5.682-4.503 10.167-10.205 10.167H258.401c-5.703 0-10.205-4.485-10.205-10.167v-80.43c.001-5.382 4.503-9.867 10.205-9.867z"/><path fill="#5F5F5F" d="M308.82 421.285c-.599 0-.899-.3-1.201-.6-.301-.301-.301-.597-.301-.896 0-.601.301-.896 1.2-1.196.603-.3 1.804-.597 2.703-.896 1.201-.3 2.101-.6 3-.6 1.201-.297 1.804-.597 2.401-.597v-3.289c0-1.496.302-3.289.302-5.381.297-1.797.297-3.59.599-5.682.301-2.093.899-3.89 1.2-5.682.603-1.793 1.201-2.989 1.804-4.186.599-1.196 1.498-1.496 2.397-1.496.603 0 1.201.3 1.803 1.196.599.896 1.201 1.796 1.8 3.289.301 1.196.603 2.692.899 4.485.302 1.496.603 3.288.899 4.785.302 1.492.302 2.688.302 3.885.301 1.496.301 2.393.301 2.693.599-.301 1.201-.301 2.101-.601.599-.296 1.201-.296 2.101-.296.603 0 .899 0 .899.296.301.3.301.601.301.9 0 .296-.301.596-.598.896-.302.296-.904.596-1.502.896-.603.301-1.201.301-1.8.597-.603.3-.903.3-1.2.3 0 1.196.297 2.989.598 4.785.302 2.093.603 4.186.9 6.278.301 2.092.602 3.885 1.2 5.981.603 1.792.899 3.289 1.502 4.186.599.296 1.201.596 1.498.896.603.301.904.896.904 1.497 0 0-.302.296-.603.596 0 .3-.302.601-.9.601-.899 0-1.502-.601-2.401-1.497-.599-.896-1.498-2.092-2.101-3.589-.598-1.792-.899-3.289-1.502-5.081-.297-2.093-.598-3.89-.899-5.682-.297-1.793-.599-3.289-.599-4.785-.301-1.493-.301-2.689-.301-3.289-1.201.6-2.401 1.196-3.603 1.496-1.201.597-2.397 1.196-3.599 1.496v3.289c.297 1.493.297 3.289.297 5.082 0 1.196 0 2.092-.297 2.988 0 1.196 0 1.797-.301 2.693 0 .896-.302 1.492-.302 1.792-.301.601-.599.896-.899.896-.899 0-1.201-.597-1.502-1.196 0-.896-.297-1.492-.297-2.093 0-2.093.297-3.885.297-5.978s.301-4.186.301-6.282c-.598.301-1.2.301-1.799.601-.603.3-1.502.3-2.101.596-.903.301-1.502.301-2.401.601-.6.002-1.199.302-1.5.302zm14.105-27.508c-.599 0-.899.597-1.498 2.389-.301 1.497-.603 3.59-.899 5.682l-.904 7.179c0 2.393-.297 4.485-.297 6.277 1.201-.596 2.397-.896 3.599-1.496.899-.597 2.101-1.196 3.301-1.492l-.598-5.682v-2.989c-.302-1.196-.603-2.692-.603-4.189-.298-1.492-.599-2.988-.899-3.885-.303-1.197-.901-1.794-1.202-1.794z"/><path fill="#A5A8A9" d="M255.101 370.455h5.703c.598 0 1.2.301 1.2 1.196v5.978c0 .896-.603 1.196-1.2 1.196h-5.703c-.9 0-1.201-.3-1.201-1.196v-5.978c-.001-.895.301-1.196 1.201-1.196z"/><path fill="#A5A8A9" d="M255.101 380.322h5.703c.598 0 1.2.596 1.2 1.196v6.277c0 .601-.603 1.196-1.2 1.196h-5.703c-.9 0-1.201-.596-1.201-1.196v-6.277c-.001-.6.301-1.196 1.201-1.196z"/><path fill="#A5A8A9" d="M255.101 390.188h5.703c.598 0 1.2.597 1.2 1.196v6.278c0 .596-.603 1.196-1.2 1.196h-5.703c-.9 0-1.201-.601-1.201-1.196v-6.278c-.001-.599.301-1.196 1.201-1.196z"/><path fill="#A5A8A9" d="M255.101 400.056h5.703c.598 0 1.2.596 1.2 1.196v6.277c0 .601-.603 1.196-1.2 1.196h-5.703c-.9 0-1.201-.596-1.201-1.196v-6.277c-.001-.601.301-1.196 1.201-1.196z"/><path fill="#A5A8A9" d="M255.101 410.223h5.703c.598 0 1.2.296 1.2.896v6.277c0 .6-.603 1.196-1.2 1.196h-5.703c-.9 0-1.201-.597-1.201-1.196v-6.277c-.001-.6.301-.896 1.201-.896z"/><path fill="#A5A8A9" d="M255.101 420.089h5.703c.598 0 1.2.597 1.2 1.196v5.978c0 .896-.603 1.196-1.2 1.196h-5.703c-.9 0-1.201-.3-1.201-1.196v-5.978c-.001-.599.301-1.196 1.201-1.196z"/><path fill="#A5A8A9" d="M255.101 429.956h5.703c.598 0 1.2.596 1.2 1.196v6.277c0 .597-.603 1.196-1.2 1.196h-5.703c-.9 0-1.201-.6-1.201-1.196v-6.277c-.001-.6.301-1.196 1.201-1.196z"/><path fill="#A5A8A9" d="M255.101 439.822h5.703c.598 0 1.2.597 1.2 1.196v6.278c0 .596-.603 1.196-1.2 1.196h-5.703c-.9 0-1.201-.601-1.201-1.196v-6.278c-.001-.599.301-1.196 1.201-1.196z"/><path fill="#A5A8A9" d="M266.502 370.455h6.004c.599 0 1.201.301 1.201 1.196v5.978c0 .896-.603 1.196-1.201 1.196h-6.004c-.599 0-1.196-.3-1.196-1.196v-5.978c0-.895.597-1.196 1.196-1.196z"/><path fill="#A5A8A9" d="M266.502 380.322h6.004c.599 0 1.201.596 1.201 1.196v6.277c0 .601-.603 1.196-1.201 1.196h-6.004c-.599 0-1.196-.596-1.196-1.196v-6.277c0-.6.597-1.196 1.196-1.196z"/><path fill="#A5A8A9" d="M266.502 390.188h6.004c.599 0 1.201.597 1.201 1.196v6.278c0 .596-.603 1.196-1.201 1.196h-6.004c-.599 0-1.196-.601-1.196-1.196v-6.278c0-.599.597-1.196 1.196-1.196z"/><path fill="#A5A8A9" d="M266.502 400.056h6.004c.599 0 1.201.596 1.201 1.196v6.277c0 .601-.603 1.196-1.201 1.196h-6.004c-.599 0-1.196-.596-1.196-1.196v-6.277c0-.601.597-1.196 1.196-1.196z"/><path fill="#A5A8A9" d="M266.502 410.223h6.004c.599 0 1.201.296 1.201.896v6.277c0 .6-.603 1.196-1.201 1.196h-6.004c-.599 0-1.196-.597-1.196-1.196v-6.277c0-.6.597-.896 1.196-.896z"/><path fill="#A5A8A9" d="M266.502 420.089h6.004c.599 0 1.201.597 1.201 1.196v5.978c0 .896-.603 1.196-1.201 1.196h-6.004c-.599 0-1.196-.3-1.196-1.196v-5.978c0-.599.597-1.196 1.196-1.196z"/><path fill="#A5A8A9" d="M266.502 429.956h6.004c.599 0 1.201.596 1.201 1.196v6.277c0 .597-.603 1.196-1.201 1.196h-6.004c-.599 0-1.196-.6-1.196-1.196v-6.277c0-.6.597-1.196 1.196-1.196z"/><path fill="#A5A8A9" d="M266.502 439.822h6.004c.599 0 1.201.597 1.201 1.196v6.278c0 .596-.603 1.196-1.201 1.196h-6.004c-.599 0-1.196-.601-1.196-1.196v-6.278c0-.599.597-1.196 1.196-1.196z"/><path fill="#A5A8A9" d="M259.301 449.985h5.703c.599 0 1.201.601 1.201 1.196v6.282c0 .596-.603 1.196-1.201 1.196h-5.703c-.598 0-1.2-.601-1.2-1.196v-6.282c0-.595.602-1.196 1.2-1.196z"/><path fill="#A5A8A9" d="M263.201 453.574h6.004c.599 0 1.201.601 1.201 1.196v6.278c0 .6-.603 1.196-1.201 1.196h-6.004c-.599 0-1.197-.597-1.197-1.196v-6.278c0-.595.599-1.196 1.197-1.196z"/><path fill="#657280" d="M228.092 408.13c4.201 0 7.799 3.289 7.799 7.771 0 4.188-3.598 7.773-7.799 7.773-4.205 0-7.807-3.585-7.807-7.773 0-4.482 3.602-7.771 7.807-7.771z"/><path fill="#5E6976" d="M228.092 411.419c2.398 0 4.201 2.093 4.201 4.481 0 2.393-1.803 4.188-4.201 4.188-2.401 0-4.502-1.796-4.502-4.188 0-2.388 2.1-4.481 4.502-4.481z"/><path fill="#3C9" d="M394.954 259.824h13.945v20.054h-13.945z"/><path fill="#B88A2E" d="M102.64 320.521l105.343-29.301c6.301-1.792 12.904 1.793 14.703 8.371l44.118 159.664c1.502 6.278-2.101 13.156-8.402 14.948l-105.339 29.601c-6.305 1.796-13.209-2.093-15.008-8.37l-43.82-159.961c-1.8-6.282 2.1-13.155 8.405-14.952z"/><path fill="#C93" d="M102.64 320.521l105.343-29.301c1.498-.6 3-.6 4.502-.6 2.996 1.496 5.699 4.189 6.603 7.774l44.113 159.964c1.502 6.278-2.101 13.156-8.402 14.948l-105.343 29.601c-1.498.3-2.996.3-4.502.3-3.297-1.496-5.699-4.185-6.9-7.773l-43.82-159.961c-1.799-6.282 2.101-13.155 8.406-14.952z"/><path fill="#B88A2E" d="M135.954 311.255l38.715-10.768c.301 1.797 1.498 11.363-.301 11.964l-32.113 8.967c-1.803.6-5.703-8.371-6.301-10.163z"/><path fill="#CFCFCF" d="M101.138 333.081l108.042-37.074 54.924 163.249-108.045 37.074z"/><path fill="#E6E6E6" d="M110.443 323.51l111.942-22.722L256 469.723l-111.941 22.722z"/><path fill="#CFCFCF" d="M169.565 472.111l4.201 2.694-8.402 9.866z"/><path fill="#CFCFCF" d="M169.565 472.111l4.201 2.693-.896.896c-.301.301-.904.601-1.205.601-.599.296-.301-1.496-.599-2.097-.301-.296-1.502 1.196-1.803 1.196-.297 0-.297-1.196-.297-2.393l.599-.896z"/><path fill="#CFCFCF" d="M167.163 482.278l-1.799 2.393.904-2.988z"/><path fill="#CFCFCF" d="M169.565 472.111l50.418-90.297c2.703-4.481 6.904-2.093 4.502 2.692l-50.72 90.298c-.896 0-1.799 1.196-2.1.896-.301 0 .301-1.792-.301-2.092-.297-.301-1.799 1.496-1.799.896v-2.393z"/><path fill="#CFCFCF" d="M171.666 475.104c0-.601 0-1.196-.301-1.496-.297 0-.896.3-1.197.596l48.017-85.512 1.502.896-48.021 85.516z"/><path fill="#CFCFCF" d="M169.565 472.111l47.121-84.315 1.498.896-48.017 85.512c-.301.3-.603.601-.603.3l.001-2.393z"/><path fill="#CFCFCF" d="M216.686 387.796l1.498-2.393 4.201 2.393-1.197 2.693z"/><path fill="#CFCFCF" d="M218.184 385.403l1.799-3.589c2.703-4.481 6.904-2.093 4.502 2.692l-2.101 3.289-4.2-2.392z"/><path fill="#B8B8B8" d="M136.854 302.284l6.603-1.797c-.301 0-.301-.296-.301-.596l-.899-3.289c-.599-1.792.598-3.589 2.401-4.185l12.904-3.59h.301c.9.301 1.502 1.196 1.803 2.093l.896 3.289c0 .3.301 1.196.301 1.496 2.703-.896 5.406-1.496 8.402-2.393.904.301 1.803 1.196 2.101 2.093l.903 3.289c.301 1.792 1.498 11.959-.301 12.26l-31.213 8.97c-1.799-2.092-4.799-8.374-5.101-10.166l-.9-3.289c-.603-1.792.3-3.588 2.1-4.185z"/><path fill="#CCC" d="M142.557 300.788l.899-.301c-.301 0-.301-.296-.301-.596l-.899-3.289c-.599-1.496.301-2.988 1.502-3.885l13.205-3.589h.301c.896.3 1.498 1.196 1.799 2.092l.9 3.289c0 .301.301 1.196.301 1.497 2.699-.9 5.401-1.497 8.401-2.393.9.296 1.804 1.196 1.804 2.092l.896 3.289c.602 1.793 1.803 10.764.301 12.26l-30.912 8.67c-1.799-2.092-4.799-8.374-5.101-10.166l-.9-3.289c-.602-1.497.301-2.989 1.498-3.886l6.306-1.795z"/><path fill="#A9ABAE" d="M142.255 419.789c-.599.3-1.502.3-1.803-.3a3.629 3.629 0 0 1-1.498-1.493c0-.6.603-1.196 1.799-2.393 1.205-.896 2.703-1.796 4.201-2.692 1.803-1.196 3.305-2.093 5.104-2.989a45.822 45.822 0 0 1 3.301-1.792c-.297-1.196-.899-2.993-1.502-5.682-.599-2.692-1.197-5.682-1.799-8.971s-1.201-6.878-1.498-10.467c-.603-3.585-.904-6.874-.904-9.866 0-3.289.301-5.678.904-8.07.599-2.093 1.799-3.289 3.297-3.89 1.205-.3 2.703 0 3.904 1.196 1.502 1.196 3 2.693 4.201 4.785 1.502 2.093 2.699 4.485 4.201 7.175 1.201 2.692 2.402 5.085 3.301 7.773a40.67 40.67 0 0 1 2.703 6.878c.598 2.093 1.197 3.589 1.498 4.485 1.205-.896 2.1-1.796 3.305-2.393.896-.596 2.101-1.196 3.297-1.496.903-.296 1.502-.296 1.803 0 .598.3.899.9.899 1.496.301.597 0 1.196-.603 2.093-.598.6-1.197 1.196-2.1 1.797-.9.896-1.799 1.492-2.699 2.092-.899.297-1.502.896-1.803 1.192.603 1.797 1.803 4.485 3.004 7.774 1.498 3.289 3 6.578 4.502 10.167 1.498 3.289 3.297 6.578 4.803 9.57 1.799 2.989 3.297 5.082 4.799 6.278.899.3 1.803.596 2.699.896 1.205.301 1.803.896 2.101 2.093 0 .301 0 .896-.297 1.497-.301.896-.899 1.196-1.201 1.196-1.799.596-3.301.296-5.104-1.196-1.799-1.196-3.297-2.993-5.097-5.382-1.803-2.393-3.305-5.086-4.803-8.074-1.502-2.693-3.004-5.682-4.201-8.671-1.502-2.988-2.703-5.682-3.606-8.074-.896-2.393-1.498-4.185-2.101-5.381-1.498 1.496-3.297 2.988-5.101 4.485-1.799 1.196-3.603 2.692-5.401 4.185.301.896.903 2.693 1.799 5.382.904 2.692 1.803 5.682 2.402 8.67.603 1.797.904 3.589 1.502 5.086.297 1.792.599 3.289.599 4.781v3.289c-.301.9-.599 1.496-1.197 1.496-1.205.601-2.402 0-2.703-1.196-.603-1.196-1.201-2.093-1.498-2.989-.903-3.589-1.803-7.178-2.401-10.763-.904-3.289-1.803-6.878-2.703-10.467-.603.601-1.498.896-2.703 1.797-.9.596-2.101 1.192-3.297 2.092-1.205.597-2.401 1.196-3.606 1.793-.895.597-1.799.898-2.699 1.198zm11.105-53.518c-.599.296-1.201 1.792-1.201 4.781 0 2.992.301 6.577.903 10.467.599 4.185 1.197 8.07 2.101 12.556.896 4.185 1.498 7.773 2.397 10.767 1.803-1.496 3.603-2.692 5.101-4.189 1.803-1.492 3.305-2.988 5.104-4.185l-3.603-9.566c-.297-.896-.899-2.394-1.799-4.786-.899-2.093-1.803-4.485-3-6.878-.903-2.389-2.1-4.48-3.305-6.577-.895-1.795-1.799-2.39-2.698-2.39zm24.309-3.589c-.301-1.797 0-2.693 1.502-2.989 1.197-.3 2.101.296 3.297 2.093.904 1.792 1.803 4.185 2.703 6.577.904 2.394 1.799 4.782 2.402 7.175s.899 3.889 1.201 4.484c0-1.496-.301-3.589-.301-5.978 0-2.393.301-4.785.9-7.178.603-2.393 1.205-4.485 2.401-6.277 1.201-1.797 2.703-2.989 4.803-3.589 2.402-.597 4.201-.301 5.699 1.496 1.205 1.492 2.104 3.289 2.703 5.382.603 2.988 1.201 5.978 1.502 8.97.297 2.989.297 6.278.297 9.267 2.402-.596 4.803-1.196 7.808-1.492 2.699 0 5.1 0 7.799.597 2.402.596 4.502 1.496 6.603 2.988 1.804 1.797 3.306 3.89 4.201 6.878.603 2.393.603 5.081-.297 8.074-.899 2.989-2.1 5.682-3.904 8.37-1.799 2.393-3.899 4.786-6.301 6.878-2.401 1.793-4.803 2.989-7.205 3.886-.599 0-1.498.3-2.699.3-1.201 0-2.397 0-3.602-.3-.9 0-2.101-.297-3-.896-.899-.597-1.502-1.196-1.799-2.093-.301-1.496 0-2.692 1.799-2.988h1.502c2.401 1.196 4.803 1.492 7.502.896a16.338 16.338 0 0 0 5.402-2.988c2.1-1.497 3.603-3.289 4.803-5.382 1.197-1.797 2.101-3.889 2.703-5.981.599-2.393.599-4.485 0-6.278-.602-2.092-1.506-3.589-3.004-4.484-1.799-1.196-3.301-1.797-5.402-2.093-1.803-.301-3.904-.301-6.004-.301-2.101.301-3.9.597-5.402.896l-1.502.601c0 .596-.297 1.492-.297 2.688-.301.896-.301 2.093-.598 3.289-.301.896-.904 2.093-1.205 2.988-.598.9-1.197 1.197-1.799 1.497-1.201.3-2.101 0-3-.896s-1.502-1.792-1.502-2.692c-.598-1.793-.301-3.585.301-5.082.9-1.792 2.101-3.289 3.301-4.185.297-3.89.297-7.774 0-11.663-.598-3.886-1.803-7.475-3.603-11.063-1.799.601-3 1.797-3.598 4.189-.904 2.092-1.205 4.485-1.502 7.474 0 2.989.297 5.978.598 9.267s.904 6.578 1.201 9.867c.599 2.992 1.201 5.682 1.803 8.374.599 2.393 1.197 4.485 1.498 5.682 0 .596.603 1.792.904 2.988.598 1.197 1.197 2.689 1.498 4.186s.603 3.289.603 4.785c0 1.492-.603 2.393-2.101 2.689-.301 0-.904 0-1.205-.297-.598-.3-.896-.6-.896-1.196a541.154 541.154 0 0 1-9.908-28.704c-3-9.574-6-19.14-9.603-28.706z"/><path fill="#8A0000" d="M192.975 433.541c.598.3.899.6 1.201 1.196l-1.799 3.589h-2.101l2.699-4.785zm10.205-17.937l1.498-2.992h2.1l-2.699 4.485c-.598-.297-.899-.897-.899-1.493z"/><path fill="#B82E00" d="M193.276 432.944h.297c.603.301.904.301 1.205.597l-2.402 4.485c-.603 0-1.201-.296-1.502-.597l2.402-4.485zm6.602-11.659l1.502-2.692v.3c.001 1.196-.602 2.092-1.502 2.392zm6.9-8.97l-2.101 3.885c0-.3-.297-.597-.297-.896-.301-1.496 0-2.692 1.799-2.988h.599z"/><path fill="#8A0000" d="M191.473 432.944c.301 0 .603.301.904.301s.301.296.599.296l-2.699 4.785c-.301-.3-.903-.596-1.502-.896l2.698-4.486zm6.004-11.062l2.401-4.186v1.492c0 1.196-.598 2.394-1.803 2.693l-.598.001zm7.201-9.271l-1.498 2.992h-.301c-.301-1.795.301-2.692 1.799-2.992z"/><path fill="#B82E00" d="M191.774 432.349c.603.296.904.296 1.502.596l-2.402 4.485c-.599 0-1.201-.3-1.502-.6l2.402-4.481zm6.004-11.064l3.301-5.682c.301.896.301 2.093.301 2.989l-1.502 2.692c-.301 0-.301.297-.598.297-.301 0-.904 0-1.205-.297h-.297z"/><path fill="#8A0000" d="M217.586 386.3l.598-.896 2.703 1.497c-.904-.301-1.799-.601-2.402-.601h-.899z"/><path fill="#B82E00" d="M217.883 385.703l.301-.3.904.601c-.603 0-.904-.301-1.205-.301z"/><path fill="#FC9" d="M168.067 471.216l4.201 2.692-8.402 9.867z"/><path fill="#FC9" d="M168.067 471.216l4.201 2.692-.602.896c-.599.3-1.197.596-1.498.596-.603.3-.301-1.792-.301-2.093-.301-.3-1.799 1.196-2.101 1.196s-.301-1.496 0-2.393l.301-.894z"/><path fill="#4D4D4D" d="M165.966 481.382l-2.1 2.393.896-2.993z"/><path fill="#E6B800" d="M168.067 471.216l50.418-90.298c2.703-4.485 7.205-2.093 4.502 2.693l-50.72 90.297c-.903 0-1.799 1.196-2.1.896 0 0 .301-1.797 0-2.093-.603-.3-2.101 1.492-2.101.896l.001-2.391z"/><path fill="#FC0" d="M170.167 474.204v-1.492c-.301-.3-.904.296-1.502.596l48.021-85.512 1.498.896-48.017 85.512z"/><path fill="#E6B800" d="M168.067 471.216l47.117-84.315 1.502.896-48.021 85.512c-.297.301-.598.601-.598.301v-2.394z"/><path fill="#CFA600" d="M215.184 386.9l1.502-2.393 4.502 2.393-1.502 2.689z"/><path fill="#C30" d="M216.686 384.507l1.799-3.589c2.703-4.781 7.205-2.093 4.502 2.693l-1.799 3.289-4.502-2.393z"/><path fill="#959595" d="M150.36 292.718c1.197-.3 2.101.596 2.401 1.492.599 1.196-.301 2.393-1.205 2.692-1.197.297-2.397-.3-2.699-1.496-.296-1.196.302-2.392 1.503-2.688z"/><path fill="#A6A6A6" d="M151.557 293.014c.603 0 1.205.601 1.205 1.196.599 1.196-.301 2.393-1.205 2.692h-.896c-.603-.3-.904-.6-1.205-1.196-.297-1.196.301-2.393 1.502-2.692h.599z"/><path fill="none" d="M172.268 298.695c0 .601 0 1.196.301 2.393l2.101-.601 33.314-9.267c1.498-.6 3-.6 4.502-.6 4.799.6 9.004 3.889 10.201 8.971l44.118 159.664c1.502 6.278-2.101 13.156-8.402 14.948l-105.339 29.601c-2.703.6-5.707.3-8.108-.597-3.297-1.496-5.699-4.185-6.9-7.773l-43.82-159.961c-1.799-6.282 2.101-13.155 8.406-14.952l33.314-9.267c-.301-.601-.301-1.196-.301-1.496l-.9-3.289c-.602-1.497.301-2.989 1.498-3.886.301 0 .603 0 .603-.3l5.703-1.496.899-.301c-.301 0-.301-.296-.301-.596l-.899-3.289c-.599-1.496.301-2.988 1.502-3.885.301 0 .598-.3.899-.3l12.904-3.59h.301c.9.301 1.502 1.196 1.803 2.093l.896 3.289c0 .3.301 1.196.301 1.496l8.402-2.393c.904.301 1.803 1.196 2.101 2.093l.901 3.291z"/><path fill="#4E5A62" d="M434.268 62.788H77.732c-7.807 0-14.108 6.28-14.108 14.054v231.125c0 7.774 6.301 14.052 14.108 14.052h11.105c-2.703 4.485-3.603 10.167-2.101 15.549l43.816 159.96c1.799 5.682 5.699 10.468 11.104 12.856 4.201 1.796 9.004 2.096 13.506.899l87.933-24.818H381.15c12.302 0 22.507-10.163 22.507-22.723v-90.297c0-8.074-4.502-15.549-11.406-19.434-4.201-3.889-9.603-5.682-15.004-5.682h-21.31c-11.402-13.756-39.013-20.334-57.322-23.322v-2.989h135.652c7.804 0 14.109-6.277 14.109-14.052V76.841c.001-7.774-6.305-14.053-14.108-14.053zm6.305 245.178c0 3.289-3.004 6.277-6.306 6.277H290.812v17.642c31.515 3.885 54.925 13.155 60.925 24.219h25.511c3.903 0 7.803 1.496 10.506 4.185 4.8 2.394 8.101 7.475 8.101 13.156v90.297c0 8.37-6.603 14.948-14.703 14.948h-138.96l-89.13 25.115c-2.703.6-5.707.3-8.108-.597-3.297-1.496-5.699-4.185-6.9-7.773l-43.82-159.961c-1.799-6.282 2.101-13.155 8.406-14.952l22.808-6.278H77.732c-3.305 0-6.301-2.988-6.301-6.277V76.841c0-3.589 2.996-6.28 6.301-6.28h356.536c3.302 0 6.306 2.691 6.306 6.28v231.125z"/></g><metadata><rdf:RDF xmlns:rdf="http://www.w3.org/1999/02/22-rdf-syntax-ns#" xmlns:rdfs="http://www.w3.org/2000/01/rdf-schema#" xmlns:dc="http://purl.org/dc/elements/1.1/"><rdf:Description about="https://iconscout.com/legal#licenses" dc:title="design,graphic" dc:description="design,graphic" dc:publisher="Iconscout" dc:date="2017-09-22" dc:format="image/svg+xml" dc:language="en"><dc:creator><rdf:Bag><rdf:li>Graphiqa Stock</rdf:li></rdf:Bag></dc:creator></rdf:Description></rdf:RDF></metadata></svg>