<?xml version="1.0" encoding="UTF-8"?><!DOCTYPE svg PUBLIC "-//W3C//DTD SVG 1.1//EN" "http://www.w3.org/Graphics/SVG/1.1/DTD/svg11.dtd"><svg xmlns="http://www.w3.org/2000/svg" xmlns:xlink="http://www.w3.org/1999/xlink" version="1.1" id="Expand" x="0px" y="0px" width="512px" height="512px" viewBox="0 0 512 512" xml:space="preserve"><path id="Background" fill="#40C4FF" d="M256 .002c141.384 0 256 114.616 256 255.995 0 141.389-114.616 256.001-256 256.001-141.384 0-256-114.612-256-256.001C0 114.618 114.616.002 256 .002z"/><g id="Expand_1_"><path fill="#D2D3D5" d="M109.192 318.892h305.939l32.553 168.455-412.127-.63z"/><path fill="#BDBFC1" d="M128.474 331.534h261.057l27.812 143.489-351.446-.634z"/><path fill="#96989A" d="M35.557 486.717h412.127v21.172H35.557z"/><circle fill="#4E5A62" cx="93.075" cy="176.355" r="76.483"/><circle fill="#48887B" cx="93.075" cy="176.355" r="73.954"/><circle fill="#4E5A62" cx="418.926" cy="176.355" r="76.483"/><circle fill="#48887B" cx="418.926" cy="176.355" r="73.954"/><circle fill="#4E5A62" cx="256.158" cy="76.483" r="76.483"/><circle fill="#48887B" cx="256.158" cy="76.483" r="73.954"/><path fill="#4E5A62" d="M258.053 306.568h-3.789v.313h3.789v-.313zm-3.789-142.537c0-.952.948-1.899 1.895-1.899.947 0 1.895.947 1.895 1.899V168.137c0 .947-.947 1.895-1.895 1.895-.947 0-1.895-.947-1.895-1.895V164.031zm0 15.484c0-.947.948-1.895 1.895-1.895.947 0 1.895.948 1.895 1.895v3.792c0 1.265-.947 2.212-1.895 2.212-.947 0-1.895-.948-1.895-2.212V179.515zm0 15.487c0-.947.948-1.895 1.895-1.895.947 0 1.895.948 1.895 1.895v3.794c0 1.265-.947 1.895-1.895 1.895-.947 0-1.895-.63-1.895-1.895V195.002zm0 15.488c0-.952.948-1.898 1.895-1.898.947 0 1.895.947 1.895 1.898v3.79c0 1.265-.947 1.899-1.895 1.899-.947 0-1.895-.634-1.895-1.899v-3.79zm0 15.484c0-.947.948-1.895 1.895-1.895.947 0 1.895.948 1.895 1.895V229.767c0 1.265-.947 1.895-1.895 1.895-.947 0-1.895-.63-1.895-1.895V225.974zm0 15.487c0-1.264.948-1.895 1.895-1.895.947 0 1.895.631 1.895 1.895V245.255c0 .947-.947 1.895-1.895 1.895-.947 0-1.895-.947-1.895-1.895V241.461zm0 15.489c0-1.265.948-1.899 1.895-1.899.947 0 1.895.634 1.895 1.899v3.79c0 .949-.947 1.898-1.895 1.898-.947 0-1.895-.949-1.895-1.898V256.95zm0 15.484c0-1.265.948-2.213 1.895-2.213.947 0 1.895.948 1.895 2.213V276.228c0 .946-.947 1.895-1.895 1.895-.947 0-1.895-.948-1.895-1.895V272.434zm0 15.17c0-.947.948-1.894 1.895-1.894.947 0 1.895.946 1.895 1.894V291.717c0 .947-.947 1.895-1.895 1.895-.947 0-1.895-.947-1.895-1.895v-4.113zm0 15.488c0-.951.948-1.898 1.895-1.898.947 0 1.895.947 1.895 1.898V306.878h-3.789V303.092h-.001z"/><path fill="#4E5A62" d="M221.076 306.568c0 .947-.948 1.895-2.211 1.895-.949 0-1.895-.947-1.895-1.895v-4.111c0-.947.946-1.894 1.895-1.894 1.264 0 2.211.946 2.211 1.894v4.111zm-35.713-108.089c-.947 0-1.899-.948-1.899-1.895 0-.951.952-1.899 1.899-1.899h4.111c.942 0 1.895.948 1.895 1.899 0 1.26-.952 1.895-1.895 1.895h-4.111zm15.488.317c-.952 0-1.898-.952-1.898-1.899 0-1.264.947-2.212 1.898-1.895h4.107c.948 0 1.895.948 1.895 1.895 0 .947-.947 1.899-2.212 1.899h-3.79zm15.484 0c-.947 0-1.896-.634-1.896-1.899 0-.947.948-1.895 1.896-1.895h2.846c.947 0 1.895.948 1.895 1.895v1.265c0 1.264-.948 1.899-2.211 1.899-.635 0-1.266-.317-1.578-1.265h-.952zm.635 11.059c0-.947.946-1.894 1.895-1.894 1.264 0 2.211.947 2.211 1.894v3.794c0 1.265-.948 1.895-2.211 1.895-.949 0-1.895-.63-1.895-1.895v-3.794zm0 15.489c0-.947.946-1.899 1.895-1.899 1.264 0 2.211.952 2.211 1.899v3.793c0 .948-.948 1.895-2.211 1.895-.949 0-1.895-.947-1.895-1.895v-3.793zm0 15.483c0-1.261.946-1.895 1.895-1.895 1.264 0 2.211.634 2.211 1.895v3.793c0 .948-.948 1.899-2.211 1.899-.949 0-1.895-.951-1.895-1.899v-3.793zm0 15.487c0-1.264.946-1.894 1.895-1.894 1.264 0 2.211.63 2.211 1.894v3.793c0 .949-.948 1.896-2.211 1.896-.949 0-1.895-.947-1.895-1.896v-3.793zm0 15.489c0-1.266.946-2.212 1.895-2.212 1.264 0 2.211.946 2.211 2.212v3.793c0 .949-.948 1.896-2.211 1.896-.949 0-1.895-.946-1.895-1.896v-3.793zm0 15.172c0-.948.946-1.9 1.895-1.9 1.264 0 2.211.952 2.211 1.9v4.105c0 .947-.948 1.899-2.211 1.899-.949 0-1.895-.952-1.895-1.899v-4.105z"/><path fill="#4E5A62" d="M290.605 306.568c0 .947-.947 1.895-1.894 1.895-1.266 0-2.213-.947-2.213-1.895v-4.111c0-.947.947-1.894 2.213-1.894.946 0 1.894.946 1.894 1.894v4.111zm31.607-111.883c.947 0 1.899.948 1.899 1.899 0 .947-.952 1.895-1.899 1.895h-4.105c-.947 0-1.9-.635-1.9-1.895 0-.951.953-1.899 1.9-1.899h4.105zm-15.487.317c.952-.317 1.899.631 1.899 1.895 0 .947-.947 1.899-1.899 1.899h-3.79c-1.264 0-2.211-.952-2.211-1.899 0-.947.947-1.895 1.895-1.895h4.106zm-15.484 0c.947 0 1.895.948 1.895 1.895 0 1.265-.947 1.899-1.895 1.899h-.948c-.316.947-.951 1.265-1.581 1.265-1.266 0-2.213-.635-2.213-1.899v-1.265c0-.947.947-1.895 1.896-1.895h2.846zm-4.742 14.853c0-.947.947-1.894 2.213-1.894.946 0 1.894.947 1.894 1.894v3.794c0 1.265-.947 1.895-1.894 1.895-1.266 0-2.213-.63-2.213-1.895v-3.794zm0 15.489c0-.947.947-1.899 2.213-1.899.946 0 1.894.952 1.894 1.899v3.793c0 .948-.947 1.895-1.894 1.895-1.266 0-2.213-.947-2.213-1.895v-3.793zm0 15.483c0-1.261.947-1.895 2.213-1.895.946 0 1.894.634 1.894 1.895v3.793c0 .948-.947 1.899-1.894 1.899-1.266 0-2.213-.951-2.213-1.899v-3.793zm0 15.487c0-1.264.947-1.894 2.213-1.894.946 0 1.894.63 1.894 1.894v3.793c0 .949-.947 1.896-1.894 1.896-1.266 0-2.213-.947-2.213-1.896v-3.793zm0 15.489c0-1.266.947-2.212 2.213-2.212.946 0 1.894.946 1.894 2.212v3.793c0 .949-.947 1.896-1.894 1.896-1.266 0-2.213-.946-2.213-1.896v-3.793zm0 15.172c0-.948.947-1.9 2.213-1.9.946 0 1.894.952 1.894 1.9v4.105c0 .947-.947 1.899-1.894 1.899-1.266 0-2.213-.952-2.213-1.899v-4.105z"/><path fill="#FFCC29" d="M92.758 121.995c22.445 0 40.458 21.489 40.458 40.454.317 18.965-8.847 30.024-21.811 36.661H76.01c-13.906-6.319-23.388-20.225-23.388-36.343 0-22.442 18.016-40.459 40.136-40.772zm18.647 77.114v0zm-35.078 19.912l-.317-19.277v-.634.634l.317 19.277z"/><path fill="#BDBFC1" d="M111.405 199.109v22.758c0 4.741-3.155 8.53-7.266 8.53l-20.547.317c-4.105 0-7.266-4.106-7.266-8.531l-.317-22.441v-.634h35.396z"/><path fill="#A9ABAE" d="M76.112 203.143l35.885-.094a2.31 2.31 0 0 1 2.319 2.29c.003 1.269-1.034 2.297-2.311 2.302l-35.879.094c-1.278 0-2.319-1.024-2.324-2.289a2.31 2.31 0 0 1 2.31-2.303z"/><path fill="#A9ABAE" d="M76.135 212.067l35.879-.09c1.282-.004 2.324 1.02 2.324 2.285a2.303 2.303 0 0 1-2.307 2.302l-35.884.095c-1.277 0-2.319-1.025-2.319-2.29-.009-1.268 1.028-2.297 2.307-2.302z"/><path fill="#A9ABAE" d="M76.159 220.436l35.881-.095a2.31 2.31 0 0 1 2.322 2.289 2.31 2.31 0 0 1-2.314 2.302l-35.88.09a2.309 2.309 0 0 1-2.324-2.285 2.31 2.31 0 0 1 2.315-2.301z"/><path fill="#FFF212" d="M82.963 159.603h23.071v39.506h-3.16v-36.343h-18.33v36.343h-3.163v-39.506z"/><path fill="#4E5A62" d="M135.745 162.449c0-10.747-5.059-21.494-12.329-29.077-8.213-8.217-18.965-13.906-30.659-13.589-23.701 0-42.662 19.278-42.662 42.983 0 16.118 9.166 30.654 23.701 37.925v.63c-1.582.952-2.528 2.529-2.528 4.111 0 1.894.946 3.159 2.528 4.106v.634c-1.582.948-2.528 2.529-2.528 4.107 0 1.899.946 3.477 2.528 4.111v.313c-1.582.634-2.528 2.216-2.528 4.111 0 2.212 1.582 4.106 3.792 4.423 1.578 3.477 4.742 6.006 8.531 5.689h20.547c3.793 0 6.953-2.212 8.535-5.689 2.529-.317 4.106-2.211 4.106-4.74 0-1.578-.947-3.16-2.528-4.107 1.581-.634 2.528-2.212 2.528-4.111 0-1.895-1.264-3.79-2.846-4.424 1.582-.947 2.846-2.529 2.846-4.423 0-2.213-1.264-3.794-2.846-4.424v-.317c14.859-8.218 21.812-20.859 21.812-38.242zm-23.705 40.453c1.264 0 2.212 1.266 2.212 2.53 0 1.264-.948 2.212-2.212 2.212h-.635v4.423h.635c1.264 0 2.212.948 2.212 2.212 0 1.265-.948 2.212-2.212 2.212h-.635v3.793h.635c1.264 0 2.212.948 2.212 2.213 0 1.264-.948 2.529-2.212 2.529h-.948c-.947 3.159-3.793 5.371-6.953 5.371l-20.547.317c-3.159 0-6.001-2.529-6.953-5.688h-.629c-1.265 0-2.212-.948-2.212-2.212s.947-2.53 2.212-2.53h.317v-3.476h-.317c-1.265 0-2.212-1.264-2.212-2.529 0-1.264.947-2.212 2.212-2.212h.317l-.317-4.423c-1.265 0-2.212-.948-2.212-2.212 0-1.265.947-2.213 2.212-2.213v-3.476-.634c-13.906-6.319-23.388-20.225-23.388-36.343 0-22.441 18.017-40.458 40.136-40.771 22.445 0 40.458 21.489 40.458 40.454.317 18.965-8.847 30.024-21.811 36.661v3.792h.635z"/><path fill="#FFAB00" d="M297.877 52.147h-56.572a8.499 8.499 0 0 0-8.534 8.531v32.871c0 4.424 3.793 8.536 8.534 8.536h43.613l12.642 16.118v-16.118h.317c4.741 0 8.535-4.112 8.535-8.536V60.678a8.5 8.5 0 0 0-8.535-8.531z"/><path fill="#FFCA28" d="M216.97 33.5h73.635c6.007 0 11.065 4.741 11.065 11.06v42.67c0 6.001-5.059 11.059-11.065 11.059h-56.57l-16.436 21.176V98.29h-.629c-6.324 0-11.064-5.058-11.064-11.059V44.56c0-6.318 4.74-11.06 11.064-11.06z"/><path fill="#4E5A62" d="M303.248 51.83v-7.27c0-6.953-5.688-12.955-12.643-12.955H216.97c-7.271 0-12.959 6.002-12.959 12.955v42.67c0 6.635 5.371 12.324 11.694 12.642l.313 19.594c0 .63.318 1.265.953 1.582.946.313 1.578 0 1.895-.635l15.487-19.594c1.896 1.895 4.424 2.846 6.953 2.846h42.666l12.011 15.484c.631.634 1.266.947 1.896.634.947-.317 1.264-.952 1.264-1.582v-14.537c5.059-.634 9.165-5.058 9.165-10.117V60.678c-.002-3.789-1.896-6.953-5.06-8.848zm3.164 41.718c0 4.424-3.794 8.536-8.535 8.536h-.317v16.118l-12.642-16.118h-43.613c-2.846 0-5.371-1.583-6.953-3.794h-.317l-16.436 21.176V98.29h-.629c-6.324 0-11.064-5.058-11.064-11.059V44.56c0-6.318 4.74-11.06 11.064-11.06h73.635c6.007 0 11.065 4.741 11.065 11.06v8.218c2.841 1.581 4.741 4.423 4.741 7.899v32.871z"/><g fill="#4E5A62"><path d="M437.255 144.749c-9.483-13.271-28.131-16.748-41.718-6.953-13.59 9.482-16.753 28.129-7.271 41.719 9.8 13.592 28.447 16.752 42.037 6.953 13.275-9.483 16.433-28.131 6.952-41.719zm-8.218 40.141c-12.642 8.848-30.024 6.001-38.871-6.64-8.853-12.642-6.007-30.024 6.636-38.872 12.642-8.853 30.022-6.006 38.876 6.636 8.847 12.641 6 30.024-6.641 38.876z"/><path d="M459.379 213.649l-19.911-27.813c4.423-5.058 7.586-11.063 8.533-17.699 1.583-9.166-.634-18.964-6.005-26.548-11.377-16.118-33.818-19.912-49.619-8.535-16.117 11.377-19.911 33.501-8.534 49.623 9.481 13.906 27.494 18.96 42.981 12.324l19.597 27.813c2.528 3.477 7.585 4.423 11.063 1.895 3.476-2.525 4.424-7.266 1.895-11.06zm-3.16 9.483c-2.529 1.895-6.322 1.265-8.218-1.265l-20.542-29.395c-14.54 6.953-32.553 2.847-42.034-10.746-10.748-15.171-7.271-36.343 7.899-47.09 15.171-10.747 36.348-6.953 47.09 8.217 9.482 13.272 7.587 31.606-3.477 42.982l20.547 29.078c1.895 2.53 1.264 6.32-1.265 8.219z"/></g><path fill="#CCC" d="M393.324 134.637c15.171-10.747 36.348-6.953 47.09 8.217 9.482 13.272 7.587 31.606-3.477 42.982l20.547 29.078c1.895 2.528 1.264 6.318-1.266 8.217-2.529 1.895-6.322 1.265-8.218-1.265l-20.542-29.395c-14.54 6.953-32.553 2.847-42.034-10.746-10.747-15.169-7.271-36.342 7.9-47.088zm2.213 3.159c13.587-9.795 32.234-6.318 41.718 6.953 9.481 13.588 6.323 32.236-6.952 41.718-13.59 9.799-32.237 6.64-42.037-6.953-9.482-13.589-6.319-32.236 7.271-41.718z"/><path fill="#B3B3B3" d="M435.99 186.467l20.547 29.077c3.789 5.375-3.795 10.747-7.271 5.375l-20.86-29.077c1.266-.634 2.53-1.264 3.79-2.212 1.266-.95 2.53-1.899 3.794-3.163z"/><path fill="#B8B8B8" d="M395.219 137.166c13.594-9.8 32.871-6.641 42.671 7.266 9.794 13.906 6.636 32.871-7.271 42.67-13.906 9.795-32.87 6.636-42.666-7.271-9.8-13.906-6.64-32.87 7.266-42.665z"/><path fill="#E6E6E6" d="M396.172 138.744c12.952-9.165 30.971-6.006 40.136 6.953 9.165 12.958 6.005 30.658-6.952 39.824-12.96 9.165-30.659 6.322-39.824-6.636-9.167-12.96-6.32-30.977 6.64-40.141z"/><path fill="#4E5A62" d="M451.479 485.135l-32.553-166.873c-.317-1.898-1.896-3.477-3.795-3.477H109.192c-1.894 0-3.159.948-3.789 2.525L31.762 485.135c-.312.631-.312.947-.312 1.582v21.172c0 2.213 1.895 4.111 4.107 4.111h412.127c2.213 0 4.111-1.898 4.111-4.111v-21.172c0-.635-.316-.951-.316-1.582zm-3.795 2.212v20.542H35.557v-21.172l73.636-167.825h305.938l32.236 167.825h.316v.63z"/><g><path fill="#4E5A62" d="M360.771 395.693c-13.906.63-27.813 1.265-41.719 1.895-14.223.634-28.76 1.264-42.981 1.899-1.267 0-2.213-.951-2.213-1.899 0-3.79-.318-7.266-.634-11.06 0-3.477-.313-7.271-.313-10.746 0-.631 0-1.266.313-1.582.634-.631.946-.631 1.58-.631h77.749c-.947-2.212-1.582-4.105-2.211-6.323-.318-.63-.318-1.577.316-1.895.313-.63 1.265-.946 1.895-.946 14.536 3.476 29.077 6.636 43.618 9.164 15.483 2.848 30.652 4.74 46.141 6.953 1.266 0 1.896.947 1.896 1.895 0 .952-.631 1.898-1.578 2.213-12.328 2.846-24.653 5.692-36.981 8.852-13.272 3.477-26.547 7.271-39.506 11.061-1.266.316-2.213-.313-2.525-1.267-.953-2.524-1.899-5.054-2.847-7.583z"/><path fill="#5CA47A" d="M276.071 397.588c14.222-.947 28.759-1.577 42.981-2.212 14.224-.63 28.76-1.266 42.983-1.895 1.264 3.159 2.213 6.006 3.477 9.165 13.59-4.11 26.864-7.583 39.823-11.064 12.324-3.159 24.967-6.318 36.977-9.165-15.804-1.895-31.287-4.107-46.459-6.953-14.854-2.525-29.394-5.688-43.617-8.848.947 2.848 2.212 6.006 3.164 8.848h-80.596c.318 3.793.318 7.271.631 11.064.317 3.477.317 7.27.636 11.06z"/><path fill="#4E5A62" d="M119.628 395.693c-.953 2.528-1.899 5.059-2.848 7.582-.316.953-1.264 1.583-2.528 1.267-12.956-3.79-26.235-7.584-39.507-11.061-12.327-3.159-24.648-6.006-36.977-8.852-.947-.314-1.577-1.261-1.577-2.213 0-.947.63-1.895 1.894-1.895 15.484-2.213 30.659-4.105 46.143-6.953 14.541-2.528 29.077-5.688 43.613-9.164.634 0 1.582.316 1.899.946.63.317.63 1.265.313 1.895-.629 2.218-1.26 4.111-2.211 6.323h77.753c.629 0 .943 0 1.577.631.317.316.317.951.317 1.582 0 3.475-.317 7.27-.317 10.746-.317 3.794-.634 7.27-.634 11.06 0 .948-.943 1.899-2.212 1.899-14.219-.636-28.755-1.266-42.979-1.899-13.908-.629-27.814-1.264-41.719-1.894z"/><path fill="#5CA47A" d="M204.324 397.588c-14.219-.947-28.755-1.577-42.979-2.212-14.223-.63-28.764-1.266-42.987-1.895-1.261 3.159-2.212 6.006-3.472 9.165-13.59-4.11-26.869-7.583-39.825-11.064-12.329-3.159-24.965-6.318-36.977-9.165 15.802-1.895 31.289-4.107 46.459-6.953 14.854-2.525 29.39-5.688 43.613-8.848-.947 2.848-2.211 6.006-3.16 8.848h80.596c-.318 3.793-.318 7.271-.635 11.064-.316 3.477-.316 7.27-.633 11.06z"/></g></g><metadata><rdf:RDF xmlns:rdf="http://www.w3.org/1999/02/22-rdf-syntax-ns#" xmlns:rdfs="http://www.w3.org/2000/01/rdf-schema#" xmlns:dc="http://purl.org/dc/elements/1.1/"><rdf:Description about="https://iconscout.com/legal#licenses" dc:title="expand" dc:description="expand" dc:publisher="Iconscout" dc:date="2017-09-22" dc:format="image/svg+xml" dc:language="en"><dc:creator><rdf:Bag><rdf:li>Graphiqa Stock</rdf:li></rdf:Bag></dc:creator></rdf:Description></rdf:RDF></metadata></svg>