<?xml version="1.0" encoding="UTF-8"?><!DOCTYPE svg PUBLIC "-//W3C//DTD SVG 1.1//EN" "http://www.w3.org/Graphics/SVG/1.1/DTD/svg11.dtd"><svg xmlns="http://www.w3.org/2000/svg" xmlns:xlink="http://www.w3.org/1999/xlink" version="1.1" id="Good_Idea" x="0px" y="0px" width="512px" height="512px" viewBox="0 0 512 512" xml:space="preserve"><path id="Background" fill="#95A5A6" d="M256.002 0C397.493 0 512 114.508 512 256.001 512 397.493 397.493 512 256.002 512 114.512 512 0 397.493 0 256.001 0 114.508 114.512 0 256.002 0z"/><g id="Good_Idea_1_"><path fill="#4E5A62" d="M277.342 152.475H281.843c1.2 0 2.1 1.198 2.1 2.398 0 1.201-1.2 2.101-2.401 2.101h-6.6c-1.2 0-2.1-1.198-2.1-2.399 0-1.2.899-2.1 2.1-2.1h2.4zm-15.905.9c1.2-.3 2.401.6 2.702 1.801 0 1.2-.903 2.399-2.1 2.399l-.603.301h-1.502l-.899.299h-1.202c-1.2.302-2.401-.6-2.698-1.799 0-1.2.899-2.102 2.101-2.401h.598l.603-.301h.899l.899-.299h1.202zm-17.404 3.3c1.201-.3 2.397.299 2.699 1.499.301 1.201-.598 2.401-1.799 2.701l-.9.301-.598.299h-.903l-.899.302-.599.299c-1.205.302-2.401-.299-3.003-1.5-.301-1.2.602-2.401 1.502-2.7h.297l.603-.301.903-.3.896-.301h.603l.899-.299h.299zm-17.106 5.401c1.205-.299 2.401.302 3.003 1.201.301 1.2-.301 2.401-1.201 3.001h-.598l-.603.599-.903.301-.598.3-.599.301-.903.299c-.896.302-2.401 0-2.698-1.2-.599-1.198 0-2.399.899-3l.903-.301.598-.299.9-.3.602-.301.896-.299.302-.302zm-15.902 7.802c.9-.601 2.397 0 3 .899.602 1.2 0 2.401-.899 3.001l-.301.3-.899.301-.603.299-.598.601-.599.302-.903.299c-.899.901-2.401.601-3-.601-.599-.899-.297-2.399.899-2.999l.602-.302.599-.601.899-.299.603-.601.602-.301.598-.298zm-15.006 9.903c.903-.601 2.401-.601 3.003.6.9.899.599 2.101-.301 3.002l-.301.299-.599.302-.598.598-.602.302-.603.601-.598.6h-.301c-.899.601-2.1.601-3-.301-.603-.899-.603-2.399.301-3v-.301l.9-.299.598-.601.602-.601.599-.299.598-.601.302-.301zm-13.504 11.703c.904-.601 2.401-.601 3.004 0a2.357 2.357 0 0 1 0 3.301l-.603.601-.598.6-.297.601-.602.601-.603.598h-.301c-.598.902-2.1.902-2.996.302a2.35 2.35 0 0 1 0-3.301v-.302l.599-.299.598-.601.602-.6.599-.601.598-.601v-.299zm-11.702 13.502c.598-.899 2.104-1.198 3-.299.903.601 1.205 2.1.301 2.999l-.301.601-.598.601-.297.601-.602.6-.301.902-.301.299c-.899.899-2.1 1.2-3 .299-1.201-.598-1.502-1.799-.599-2.999l.301-.302.297-.601.598-.598.301-.601.603-.901.598-.601zm-9.902 15.004c.603-1.2 1.799-1.499 3.003-.899.896.601 1.197 2.101.599 3l-.301.601-.297.6-.301.902-.603.6-.301.599-.297.601c-.301.901-1.803 1.502-2.699.901-1.205-.601-1.506-2.101-1.205-3.002l.301-.601.602-.6.301-.601.297-.899.598-.601.303-.601zm-7.798 15.905c.297-.899 1.498-1.5 2.699-1.199 1.201.599 1.799 1.799 1.201 3l-.301.601-.301.899-.301.6-.297.601-.301.901v.3c-.297 1.2-1.799 1.801-3 1.499-.904-.6-1.502-1.799-1.201-2.999l.297-.302.301-.899.301-.6.301-.9.301-.6.301-.902zm-5.706 17.103c.301-1.198 1.502-1.799 2.703-1.499 1.201.301 1.799 1.499 1.498 2.7l-.297.901v.601l-.301.899-.297.6v1.201c-.301 1.198-1.501 1.799-2.702 1.5-1.201-.302-2.1-1.5-1.799-2.401v-.3l.301-.901.297-.899v-.6l.297-.9.3-.902zm-3.297 17.705c0-1.201 1.197-2.101 2.401-2.101 1.197.302 2.1 1.201 1.799 2.401v1.5l-.301.899V275.505c0 1.198-1.201 2.1-2.401 1.799-1.201 0-2.1-1.201-2.1-2.399v-.301l.301-.9v-1.499l.301-.901v-.601zm-.903 17.705c0-1.201.903-2.101 2.1-2.101 1.205 0 2.1.899 2.1 2.101v2.4l.301.9v.899c0 1.2-.899 2.401-2.1 2.401s-2.401-.9-2.401-2.101v-4.499zm1.2 17.704c0-1.2.899-2.101 2.104-2.401 1.197 0 2.1.603 2.397 1.803v.899l.301.899v.599l.297.903v1.197c.301 1.2-.598 2.104-1.799 2.401-1.197.301-2.401-.599-2.401-1.8v-.301l-.301-.599v-.899l-.297-.903v-.899l-.301-.899zm3.904 17.704c-.301-1.2.301-2.4 1.498-2.702 1.201-.297 2.401.302 2.703 1.502v.301l.301.899.301.599.297.903.301.599v.603c.297 1.196-.301 2.397-1.502 2.999-.899.302-2.401-.301-2.703-1.501v-.599l-.297-.899-.301-.603-.297-.899-.301-.899v-.303zm5.999 16.806c-.598-1.201 0-2.401 1.201-3 1.201-.603 2.401 0 3 1.197v.602l.301.599.602.899.301.603.297.599.301.602c.297 1.201 0 2.401-1.201 3-1.201.603-2.401 0-3.004-1.2v-.298l-.598-.903-.297-.599-.301-.899-.301-.602-.301-.6zm8.4 15.901c-.598-1.2-.297-2.397.603-3 1.201-.899 2.401-.301 3.003.603l.297.599.598.599.301.602.301.599.602.903.297.298c.598 1.2.301 2.4-.599 3.003-1.2.899-2.401.599-3.003-.603l-.301-.301-.598-.899-.297-.599-.602-.602-.301-.9-.301-.302zm10.207 14.405c-.903-.9-.602-2.101.297-3s2.401-.599 3 .301l.301.298.602.602.599.599.297.603.603.599.602.602c.599.899.599 2.401-.301 3-.904.899-2.401.899-3.004 0l-.598-.599-.599-.603-.602-.598-.301-.603-.598-.599-.298-.602zm11.999 13.203c-.598-.9-.896-2.1 0-3 .903-.898 2.401-.898 3.305-.301v.301l.599.604.598.598.603.301.602.598.598.604c.9.898 1.201 2.1.297 3-.896 1.2-2.1 1.2-3.297.301l-.602-.604-.603-.598-.598-.602-.599-.301-.602-.6-.301-.301zm13.806 11.404c-.9-.598-1.201-2.1-.301-2.999.602-.899 2.1-1.201 3.003-.603l.599.603.899.297.602.603.599.301.598.599h.301c.903.899 1.201 2.1.602 3.301-.602.899-2.1 1.2-3.003.603l-.301-.302-.598-.301-.899-.599-.603-.603-.598-.301-.599-.599h-.301zm15.303 9.602c-1.201-.599-1.498-2.101-.899-3 .598-1.2 1.799-1.502 3-.899l.602.302.899.297.599.301.602.599.9.301h.297c.903.603 1.506 1.804.903 3-.602 1.2-1.799 1.502-3.003.903h-.297l-.598-.301-.903-.302-.603-.598-.896-.302-.603-.301zm16.206 7.204c-1.205-.302-1.803-1.502-1.205-2.703.301-1.2 1.803-1.799 2.703-1.497l.301.297.599.301h.899l.602.302.9.297.598.301h.301c1.201.603 1.799 1.804 1.501 3.004-.598.899-1.803 1.498-3 1.196h-.301l-.602-.297-.899-.301-.599-.302-.903-.297-.598-.301h-.297zm17.102 5.099c-1.2-.302-1.799-1.201-1.501-2.401.301-1.201 1.501-2.101 2.702-1.799h.297l.603.301h.899l.899.297.602.302h.9c1.2.301 1.803 1.502 1.501 2.702 0 1.201-1.205 1.799-2.401 1.498h-.903l-.598-.297h-.899l-.9-.302h-.598l-.603-.301zm17.705 2.999c-1.2-.297-2.1-1.196-1.803-2.396 0-1.201.903-2.104 2.104-2.104h1.196l.903.301H269.835c1.2 0 2.104 1.201 2.104 2.401 0 1.201-1.201 2.101-2.401 2.101h-.899l-.904-.302h-2.697zm18.006.302c-1.2 0-2.401-.899-2.401-2.101 0-1.2.899-2.1 2.101-2.401h4.5c1.201-.301 2.101.603 2.101 1.804.301 1.2-.603 2.396-1.804 2.396h-.899l-.598.302h-3zm17.7-1.799c-1.196 0-2.396-.603-2.698-1.804 0-1.2.599-2.396 1.799-2.698h1.201l.899-.301h.603l.899-.302.899-.297c1.2 0 2.1.599 2.401 1.799.301 1.201-.302 2.401-1.502 2.703h-.899l-.899.297h-.599l-.903.301h-.899l-.302.302zm17.408-4.502c-1.201.599-2.401 0-2.703-1.2-.598-1.201 0-2.401 1.201-3h.899l.603-.301.899-.302.598-.301.904-.297h.297c1.2-.603 2.401 0 2.702 1.2.599 1.201 0 2.401-1.2 3h-.302l-.899.301-.899.297-.603.302-.899.301h-.598zm16.504-6.299c-.899.297-2.401 0-2.703-1.201-.598-1.2-.301-2.401.899-3.004l.603-.297.899-.301.599-.302.903-.301.599-.599h.301c.899-.598 2.401-.301 3 .899.603 1.201 0 2.401-.899 3l-.302.301-.899.302-.598.301-.904.297-.598.302-.9.603zm15.605-9.003c-.904.899-2.401.598-3.004-.603-.599-.899-.297-2.401.603-3l.598-.301.899-.599.603-.301.599-.599.603-.301.301-.302c1.196-.598 2.397-.301 3 .603.899.899.598 2.397-.302 3l-.598.301-.603.599-.599.301-.603.599-.899.301-.598.302zm14.403-10.505c-.903.603-2.401.603-3.004-.297-.899-.904-.899-2.402 0-3.004l.603-.6.599-.301.603-.598.598-.604.603-.598.297-.301c.899-.9 2.401-.598 3.301 0 .603.898.603 2.4-.297 3.301l-.301.301-.603.598-.599.604-.603.598-.598.302-.599.599zm12.902-12.602c-.899.899-2.401.899-3.301.297-.899-.899-.899-2.397 0-3.301l.301-.297.297-.603.603-.599.599-.602.301-.599.599-.603c.903-.899 2.1-.899 3.004-.297.899.899 1.2 2.397.297 3.301l-.297.598-.603.603-.599.599-.603.603-.297.598-.301.302zm10.802-14.106c-.599.903-2.101 1.2-3 .602-.899-.602-1.2-2.1-.603-2.999l.302-.302.301-.602.599-.599.301-.599.302-.903.598-.599c.603-1.2 2.101-1.501 3-.899 1.2.899 1.502 2.101.603 3.301l-.302.599-.598.899-.302.603-.599.599-.301.602-.301.297zm9.003-15.304c-.302.899-1.8 1.502-2.703.899-1.2-.599-1.799-1.799-1.2-2.999l.301-.298.302-.603.301-.598.297-.903.302-.599.301-.603v-.297c.599-1.201 1.799-1.502 3-1.201 1.2.599 1.502 1.8 1.2 3v.301l-.603.599-.297.903-.301.599-.302.899-.297.603-.301.298zm6.902-16.504c-.301.899-1.502 1.803-2.702 1.201-1.201-.302-1.799-1.498-1.502-2.699l.301-.301.302-.899v-.603l.301-.899.297-.599.302-.903c.301-1.196 1.502-1.799 2.702-1.498 1.2.302 1.799 1.8 1.498 2.699v.301l-.298.603-.301.899-.301.599v.899l-.302.903-.297.297zm4.799-17.403c-.298 1.2-1.498 2.101-2.698 1.799-1.201-.297-1.804-1.498-1.804-2.698l.302-.603v-.899l.301-.599v-.899l.301-.903v-.297c.298-1.201 1.197-2.101 2.397-1.803 1.201.301 2.101 1.2 1.804 2.401v1.501l-.302.599v.899l-.301.903v.599zm2.1-17.704c0 1.2-.899 2.1-2.1 2.1s-2.401-1.2-2.101-2.401v-4.2c0-1.2 1.201-2.401 2.401-2.1 1.201 0 2.101.899 2.101 2.1v3l-.302.903v.598zm0-18.005c0 1.201-.899 2.399-2.1 2.399-1.201.302-2.101-.598-2.401-2.1v-3l-.297-.901v-.299c0-1.201.899-2.401 2.1-2.401s2.101.601 2.401 2.1V274.604l.297.901v1.5zm-2.398-17.704c.298 1.2-.602 2.401-1.803 2.7-1.2.302-2.401-.6-2.401-1.801l-.297-.601v-.598l-.301-.901-.302-.9v-.6l-.3-.6c-.297-1.2.603-2.401 1.803-2.7 1.201-.302 2.401.6 2.698 1.801v.299l.302.899v.901l.301.9.301.6v.601zm-4.801-17.105c.301 1.201-.302 2.401-1.201 2.701-1.2.6-2.401 0-2.999-1.201v-.299l-.302-.601-.301-.901-.302-.599-.297-.901-.301-.601v-.299c-.302-.901.301-2.401 1.2-2.7 1.201-.601 2.401 0 3 1.2v.3l.301.6.302.899.297.601.301.901.302.9zm-6.904-16.504c.302 1.201 0 2.401-1.2 3-.899.601-2.401 0-2.698-.899l-.302-.299-.301-.601-.302-.601-.297-.901-.603-.599-.297-.6v-.302c-.603-.899-.301-2.399.899-2.999.899-.601 2.401-.302 3 .899v.299l.301.601.301.6.599.902.302.6.297.899h.301zm-9.299-15.302c.599.899.297 2.399-.603 2.999-.899.601-2.401.601-2.999-.6l-.603-.601-.297-.601-.603-.598-.302-.902-.598-.6c-.899-1.201-.599-2.399.301-3.301.899-.601 2.401-.3 3 .6l.301.302.599.598.301.601.599.601.301.601.603.901zm-11.103-14.105c.899.901.598 2.401-.302 3.301-.899.6-2.1.6-2.999-.3l-.603-.6-.302-.601-.598-.302-.599-.598-.603-.601-.301-.301c-.899-.899-.899-2.399 0-3.301.903-.601 2.401-.601 3.301 0l.301.6.603.601.599.299.301.601.599.601.603.601zm-12.906-12.302c.903.899 1.2 2.1.301 2.999s-2.1 1.201-2.999.302l-.603-.302-.599-.6-.603-.3-.598-.6-.599-.601-.603-.302c-.899-.598-.899-2.1-.301-2.999.903-.899 2.1-1.201 3.004-.302l.598.302.599.601.603.299.598.601.603.6.599.302zm-14.405-10.503c.904.599 1.201 1.799.603 3-.603.901-1.803 1.2-2.999.6l-.302-.299-.603-.301-.899-.3-.598-.6-.603-.302-.599-.299c-1.2-.901-1.502-2.101-.899-3.301.599-.901 2.101-1.201 3-.601l.899.299.603.601.598.302.599.299.903.601.297.301zm-15.599-8.704c.899.601 1.497 1.802.899 3.002-.302.899-1.804 1.5-2.703.899h-.598l-.603-.299-.599-.302-.899-.299-.603-.301-.899-.3c-.899-.6-1.502-1.801-1.2-3.001.603-1.199 1.799-1.799 2.999-1.199l.904.3.598.299.599.301.903.3.599.6h.603zm-16.806-6.3c1.201.299 1.799 1.5 1.498 2.7-.297 1.201-1.498 1.801-2.698 1.5l-.603-.299-.899-.302h-.599l-.899-.299-.603-.302h-.598c-1.201-.299-1.804-1.499-1.502-2.7.301-1.2 1.502-1.801 2.702-1.5h.599l.603.3.899.301h.899l.598.299.603.302zm-17.403-4.202c1.196.301 2.101 1.2 1.799 2.401-.301 1.2-1.2 2.1-2.401 1.801h-1.799l-.899-.302h-.903l-.599-.299h-.301c-1.201 0-1.799-1.2-1.799-2.401.301-1.2 1.2-2.1 2.401-1.801H295.947l.899.301h1.798l.904.3z"/><path fill="#FFCC29" d="M424.978 389.532c-45.612.301-82.52-43.208-82.52-81.918-.301-39.012 18.002-61.218 44.709-74.72l72.02-.301c28.205 12.903 47.712 41.41 47.712 74.418.297 45.613-36.61 82.521-81.921 82.521zm-37.811-156.637v-.601.601zm71.718-40.81v39.311-39.311z"/><path fill="#BDBFC1" d="M387.167 232.895v-1.2l-.301-45.612c0-9.603 6.902-17.405 15.006-17.405h42.011c8.1 0 15.002 7.803 15.002 17.104v46.512l.302.3-72.02.301z"/><path fill="#A9ABAE" d="M459.035 224.474l-73.13.191c-2.608.006-4.726-2.082-4.733-4.664-.008-2.583 2.101-4.683 4.709-4.688l73.13-.189c2.609-.009 4.726 2.079 4.733 4.664.004 2.581-2.099 4.68-4.709 4.686z"/><path fill="#A9ABAE" d="M458.986 206.283l-73.13.19c-2.604.007-4.726-2.081-4.733-4.664-.004-2.582 2.104-4.683 4.709-4.688l73.13-.189c2.609-.006 4.726 2.082 4.733 4.664.009 2.583-2.099 4.68-4.709 4.687z"/><path fill="#A9ABAE" d="M458.941 189.233l-73.13.189c-2.608.008-4.725-2.08-4.733-4.662-.004-2.585 2.104-4.683 4.709-4.688l73.13-.191c2.609-.007 4.726 2.082 4.733 4.664.005 2.581-2.099 4.682-4.709 4.688z"/><path fill="#FFF212" d="M445.083 313.015H397.969v-80.421h6.304v74.121h37.509v-74.121h6.602v80.421z"/><path fill="#4E5A62" d="M463.988 229.293v-1.199c3-1.502 4.799-4.803 4.799-8.402 0-3.602-1.799-6.602-4.799-8.402v-1.201c3-1.801 4.799-4.8 4.799-8.402 0-3.6-1.799-6.9-4.799-8.4v-.301c3-1.802 4.799-4.801 4.799-8.404 0-4.499-2.999-8.4-7.2-9.601-3.602-6.602-9.902-11.404-17.704-11.404h-42.011c-7.802 0-14.103 4.803-17.403 11.404-4.803.601-8.404 4.801-8.404 9.902 0 3.6 1.803 6.602 4.803 8.403-2.703 1.799-4.803 4.801-4.803 8.4 0 4.202 2.401 7.503 6.003 9.003v.302c-3.602 1.499-6.003 5.1-6.003 9 0 3.901 2.401 7.504 6.003 9.003v.899c-30.31 16.504-45.01 42.011-44.713 77.722 0 21.604 10.802 43.509 25.507 59.112 16.202 16.807 38.408 27.909 62.116 27.909 48.312 0 87.322-39.313 87.021-87.624a86.806 86.806 0 0 0-48.011-77.719zm-39.01 160.239c-45.612.301-82.52-43.208-82.52-81.918-.301-39.012 18.002-61.218 44.709-74.72v-.301-.3V224.792h-1.2c-2.698 0-4.799-2.102-4.799-4.803 0-2.7 2.101-4.8 4.799-4.8h1.2v-8.702h-1.502c-2.396 0-4.497-2.103-4.497-4.803 0-2.399 2.101-4.499 4.497-4.499h1.201v-7.803h-1.201c-2.396 0-4.497-2.1-4.497-4.501 0-2.7 2.101-4.801 4.497-4.801h2.104c2.101-6.602 7.802-11.404 14.103-11.404h42.011c6.301 0 12.003 4.502 14.103 11.104h.899c2.702 0 4.803 2.1 4.803 4.8 0 2.401-2.101 4.502-4.803 4.502V196.884c2.702 0 4.803 2.101 4.803 4.801 0 2.401-2.101 4.502-4.803 4.502v9.003h.302c2.4 0 4.501 2.1 4.501 4.501 0 2.7-2.101 4.801-4.501 4.801h-.302v7.801l.302.3c28.205 12.903 47.712 41.41 47.712 74.418.297 45.613-36.61 82.521-81.921 82.521z"/><path fill="#4E5A62" d="M274.94 303.711h38.108V110.763h117.029v52.813h-7.501v-46.51H320.252v192.946H274.94z"/><path fill="#4E5A62" d="M281.241 145.572c-6.602-2.1-13.802-3.301-21.006-4.501-7.204-.899-14.701-1.799-22.206-2.399V94.86c0-6.901-5.698-12.604-12.902-12.604-6.903 0-12.601 5.702-12.601 12.604v42.31c-3.606-.299-7.204-.299-10.806-.299a13.121 13.121 0 0 0 2.401-7.504V51.949c0-6.903-5.702-12.604-12.902-12.604-6.902 0-12.604 5.7-12.604 12.604v54.614c-1.799-1.5-4.2-2.401-6.602-2.401-6 0-11.103 5.102-11.103 11.103v22.206c-9.003.601-18.006 1.5-27.009 2.701-8.4.899-17.102 2.401-25.201 4.2-7.505 1.801-25.808 6.302-25.808 16.504v3.601l4.2 35.109c-13.801-2.701-27.908-3-42.011-1.201-18.001 2.103-29.707 18.006-36.007 33.31C.372 252.7-1.426 277.906.97 300.411c2.401 21.307 8.706 44.412 20.704 62.715 8.405 13.203 21.905 27.01 39.011 27.607 1.803.302 3.602 0 5.401 0 14.106-1.799 28.205-5.4 41.408-11.104l6.305 54.014c0 1.502.899 2.703 2.1 3.301 51.311 30.31 102.324 34.209 152.74 0 1.196-.899 1.799-2.1 2.1-3.301l32.108-268.565v-1.201-.6-1.201-1.2c.002-9.001-14.402-13.503-21.606-15.304zM68.791 367.928c-8.401 1.2-17.106-3-24.607-10.802-11.706-12.304-21.005-33.907-23.704-58.815-4.501-41.11 10.199-75.919 32.405-78.619 15.604-1.801 29.41-.301 41.408 3.301l15.006 132.331c-10.801 6.303-24.306 10.503-40.508 12.604z"/><path fill="#AD3327" d="M298.348 164.477l-210.656-.601c10.208 89.722 20.407 179.444 30.611 269.168 49.21 29.108 98.425 33.61 147.937 0l32.108-268.567z"/><path fill="#AD3327" d="M297.443 164.477l-209.451-.601c-.301.3-.301.3-.301.601l.603 6.602c7.802 12.904 51.612 22.505 104.127 22.505 57.314 0 104.123-11.402 105.625-25.806v-.901c0-.9-.301-1.501-.603-2.4z"/><path fill="#952500" d="M295.645 164.477l-207.652-.601c-.301.3-.301.3-.301.601l.301 2.7c10.204 12.003 52.511 21.006 102.927 21.006 54.313 0 99.022-10.503 104.725-23.706z"/><path fill="#D8DCDD" d="M193.02 143.472c-58.213 0-105.625 9.003-105.625 19.805s47.412 19.505 105.625 19.505 105.328-8.703 105.328-19.505-47.115-19.805-105.328-19.805z"/><path fill="#B55B1A" d="M95.498 170.778c15.901 7.201 53.411 12.004 97.521 12.004 43.813 0 81.62-4.803 97.225-12.004-15.604-7.202-53.411-12.302-97.225-12.302-44.11 0-81.62 5.1-97.521 12.302z"/><path fill="#AD4900" d="M102.698 173.48c18.604 5.7 51.913 9.302 90.322 9.302 38.107 0 71.718-3.602 90.024-9.302-18.307-5.702-51.917-9.604-90.024-9.604-38.409 0-71.718 3.902-90.322 9.604z"/><g fill="#AD3327"><path d="M94.293 222.992a1.629 1.629 0 0 0-.102-.028l7.615 66.271-7.513-66.243z"/><path d="M101.806 289.234l7.493 66.089c-10.802 6.304-24.306 10.504-40.509 12.604-22.206 2.702-43.81-28.808-48.311-69.617-4.501-41.11 10.199-75.919 32.405-78.619 15.56-1.797 29.329-.308 41.307 3.272l-1.999-17.377c-13.5-3.6-29.104-4.801-46.512-2.7-27.603 3.301-45.608 46.211-40.208 96.925 5.401 50.713 32.41 89.721 60.012 86.419 18.006-2.396 33.309-6.898 45.914-13.5l-9.592-83.496z"/></g><path fill="#C0392B" d="M64.289 386.23h1.196c18.006-2.396 33.309-6.898 45.914-13.5l-1.803-15.304c-10.199 5.1-22.202 8.702-36.304 10.501-1.799.301-3.305.301-4.803 0-22.206 2.1-43.81-29.108-48.01-69.617-4.501-41.11 10.199-75.919 32.405-78.619 5.401-.601 10.802-.901 15.604-.601 9.304-.301 18.006.601 25.804 2.701l-2.1-16.205c-8.4-2.399-17.705-3.6-27.603-3.901-4.803.302-9.605.601-14.705 1.201-27.607 3.301-45.613 46.211-40.208 96.925 5.097 47.413 29.106 84.32 54.613 86.419z"/><path fill="#4E5A62" d="M94.293 222.992c-11.998-3.602-25.804-5.102-41.408-3.301-22.206 2.7-36.907 37.509-32.405 78.619 2.698 24.908 11.998 46.512 23.704 58.815 7.501 7.802 16.207 12.002 24.607 10.802 16.203-2.101 29.707-6.301 40.509-12.604L94.293 222.992zM68.489 363.426c-8.1.9-15.604-3.898-21.005-9.601-13.5-13.806-20.403-37.208-22.503-56.113-1.803-16.806-.603-35.711 5.999-51.315 3.899-9.601 11.404-20.704 22.507-22.203 12.299-1.201 24.607-.902 36.605 2.398L104.5 352.926c-11.103 5.698-23.707 8.999-36.011 10.5z"/><path fill="none" d="M104.5 352.926L90.093 226.592c-11.999-3.301-24.306-3.6-36.605-2.398-11.103 1.499-18.608 12.603-22.507 22.203-6.602 15.604-7.802 34.51-5.999 51.315 2.1 18.905 9.002 42.308 22.503 56.113 5.401 5.702 12.906 10.501 21.005 9.601 12.303-1.501 24.907-4.802 36.01-10.5z"/><path fill="#E6E6E6" d="M193.02 141.372c-58.213 0-105.625 8.702-105.625 19.504 0 .301.297.901.297 1.2 3.305-10.201 49.215-18.604 105.328-18.604s102.027 8.402 105.026 18.604c.302-.299.302-.899.302-1.2 0-10.802-47.115-19.504-105.328-19.504z"/><path fill="#C0392B" d="M298.348 164.477h-.302c0 .299 0 .601-.301.899 0 .601.301 1.201.301 1.5v.901l.302-3.3zm-197.453 15.605l28.511 250.562c31.807 18.905 63.916 27.306 96.023 21.904 13.504-3.898 27.005-10.199 40.811-19.503l31.807-265.267c-1.502 14.404-48.311 25.806-105.625 25.806-39.309 0-73.522-5.401-91.527-13.502z"/><path fill="#D4D8D9" d="M225.128 86.758c-4.501 0-8.1 3.6-8.1 8.102v47.112c0 4.501 3.598 8.4 8.1 8.4 4.501 0 8.4-3.899 8.4-8.4V94.86c0-4.502-3.899-8.102-8.4-8.102z"/><path fill="#D4D8D9" d="M191.22 43.848a8.069 8.069 0 0 0-8.103 8.102v77.417a8.07 8.07 0 0 0 8.103 8.104c4.498 0 8.401-3.602 8.401-8.104V51.949c0-4.502-3.903-8.101-8.401-8.101z"/><path fill="#D4D8D9" d="M172.014 108.964c-3.598 0-6.3 2.7-6.3 6.3v36.909c0 3.603 2.702 6.602 6.3 6.602 3.602 0 6.3-2.999 6.3-6.602v-36.909c0-3.599-2.698-6.3-6.3-6.3z"/><path fill="#ECF0F1" d="M226.027 150.373c4.204-.599 7.501-4.2 7.501-8.4V94.86c0-3.601-2.699-6.901-6.3-7.803-4.2.302-7.204 3.901-7.204 8.102v47.112c0 3.901 2.703 7.202 6.003 8.102z"/><path fill="#ECF0F1" d="M192.12 137.47c4.2-.6 7.501-3.9 7.501-8.104V51.949c0-3.603-2.699-6.903-6.3-7.803-4.205.3-7.501 3.901-7.501 8.102v77.119c-.001 3.901 2.698 7.202 6.3 8.103z"/><path fill="#ECF0F1" d="M172.917 158.476c3.297-.302 5.397-3.002 5.397-6.303v-36.909c0-2.999-1.799-5.4-4.501-6.001-3 .299-5.397 3.002-5.397 6.303v36.909c0 2.999 2.1 5.4 4.501 6.001z"/><path fill="#9C4200" d="M221.827 168.677c-7.501 0-13.802 1.801-13.802 4.202 0 2.101 6.3 3.901 13.802 3.901 7.802 0 14.103-1.801 14.103-3.901 0-2.401-6.301-4.202-14.103-4.202z"/><path fill="#9C4200" d="M191.518 173.48c-4.798 0-8.4 1.198-8.4 2.399 0 1.502 3.602 2.401 8.4 2.401 4.501 0 8.405-.899 8.405-2.401-.001-1.201-3.904-2.399-8.405-2.399z"/><path fill="#9C4200" d="M175.616 168.077c-4.501 0-8.405.902-8.405 2.401 0 1.201 3.903 2.401 8.405 2.401 4.798 0 8.404-1.2 8.404-2.401.001-1.499-3.605-2.401-8.404-2.401z"/><path fill="#FC9" d="M432.178 468.152l1.2-30.907 41.71 15.303z"/><path fill="#FC9" d="M432.178 468.152l1.2-30.907 3.301 1.2c1.502 1.201 3.903 3.603 4.803 5.702 1.201 2.698-4.803 5.702-5.4 8.104-.603 2.397 5.4 5.698 5.999 7.798.301 1.201-3.301 4.502-6.602 6.903l-3.301 1.2z"/><path fill="#4D4D4D" d="M465.186 448.95l9.902 3.598-9.902 3.602z"/><path fill="#E6B800" d="M432.178 468.152H92.795c-17.705 0-17.403-30.907 0-30.907h340.583c1.502 3.903 6.004 6.003 6.004 7.501 0 1.502-5.702 4.501-5.702 8.104 0 3.301 7.199 6.3 5.702 7.501-1.502 1.2-3.903 4.501-7.204 7.801z"/><path fill="#FC0" d="M437.281 447.448c-1.803 1.502-3.602 3.301-3.602 5.401 0 1.799 2.1 3.602 3.898 5.1H115.001v-10.501h322.28z"/><path fill="#E6B800" d="M432.178 468.152H115.001v-10.203h322.577c1.502.903 2.401 1.803 1.804 2.401-1.502 1.201-3.903 4.502-7.204 7.802z"/><path fill="#CFA600" d="M115.001 468.152h-9.304v-30.907h9.304z"/><path fill="#C30" d="M105.697 468.152H92.795c-18.006 0-17.403-30.907 0-30.907h12.902v30.907z"/><path fill="#4E5A62" d="M476.59 448.348l-41.409-15.604c-.602 0-1.2-.297-1.803-.297H92.494c-17.705.297-22.804 24.604-11.701 35.706 3.301 3 7.2 4.502 12.002 4.502h339.382c.603 0 1.2 0 1.803-.302l42.609-15.303c1.799-.899 2.999-2.401 2.999-4.502.001-1.799-.899-3.598-2.998-4.2zm-11.404 7.802l-29.707 10.802-3.301 1.2H92.795c-18.006 0-17.403-30.907-.301-30.907h340.883l3.301 1.2 28.507 10.505 9.902 3.598-9.901 3.602z"/></g><metadata><rdf:RDF xmlns:rdf="http://www.w3.org/1999/02/22-rdf-syntax-ns#" xmlns:rdfs="http://www.w3.org/2000/01/rdf-schema#" xmlns:dc="http://purl.org/dc/elements/1.1/"><rdf:Description about="https://iconscout.com/legal#licenses" dc:title="good,idea" dc:description="good,idea" dc:publisher="Iconscout" dc:date="2017-09-22" dc:format="image/svg+xml" dc:language="en"><dc:creator><rdf:Bag><rdf:li>Graphiqa Stock</rdf:li></rdf:Bag></dc:creator></rdf:Description></rdf:RDF></metadata></svg>