<?xml version="1.0" encoding="UTF-8"?><!DOCTYPE svg PUBLIC "-//W3C//DTD SVG 1.1//EN" "http://www.w3.org/Graphics/SVG/1.1/DTD/svg11.dtd"><svg xmlns="http://www.w3.org/2000/svg" xmlns:xlink="http://www.w3.org/1999/xlink" version="1.1" id="Idea" x="0px" y="0px" width="512px" height="512px" viewBox="0 0 512 512" xml:space="preserve"><path id="Background" fill="#16A085" d="M256 0c141.355 0 256 114.644 256 256 0 141.355-114.645 256-256 256C114.644 512 0 397.355 0 256 0 114.644 114.644 0 256 0z"/><g id="Idea_1_"><g fill="#4E5A62"><path d="M256 146.508c7.821 0 13.818-5.995 13.818-13.554V13.816c0-5.473-3.129-10.427-8.083-12.513C259.91.521 258.086 0 256 0c-7.56 0-13.556 6.257-13.556 13.816v119.138c0 2.346.523 4.692 1.824 6.778 2.348 4.17 6.778 6.776 11.732 6.776zm-8.345-11.989V13.816c0-3.909 2.348-7.298 5.997-8.341 5.477-1.303 10.689 2.346 10.951 7.819v119.659c0 4.692-3.911 8.341-8.603 8.341h-1.826l-.262-.26h-.523l-.258-.262h-.52v-.26h-.524v-.26h-.524v-.262h-.258v-.26h-.52v-.262h-.262v-.26h-.262v-.261h-.262v-.26h-.262v-.262h-.258v-.26h-.262v-.262l-.258-.26v-.26h-.262v-.522h-.262v-.521h-.261v-.522h-.262v-.784l-.262-.26v-.255z"/><path d="M180.138 164.757c6.779-3.649 8.865-12.251 5.216-18.768l-45.62-78.991c-1.566-2.346-3.652-4.43-6.258-5.474-3.911-1.824-8.865-1.564-12.514.522-6.517 3.91-8.864 12.251-5.215 18.77l45.62 78.989c3.91 6.517 12.255 8.863 18.771 4.952zm-53.703-99.322c3.391-.522 7.041 1.041 8.865 4.17l45.358 78.989c2.348 4.17 1.047 9.384-3.126 11.732-3.91 2.346-9.384 1.042-11.731-3.129l-45.358-78.989c-2.872-4.954-.262-11.732 5.992-12.773z"/><path d="M350.63 159.805l45.624-78.989c3.648-6.519 1.301-14.86-5.216-18.77l-1.043-.522c-6.517-2.868-14.076-.521-17.726 5.474l-45.623 78.991c-2.344 4.17-2.344 9.644 0 13.816 1.043 1.563 2.348 3.127 3.911 4.17-4.692-2.868-9.904-4.692-15.381-5.213a43.572 43.572 0 0 0-10.166-9.386c-5.735-3.387-11.994-5.213-18.51-5.213-9.646 0-18.511 3.911-25.286 10.429a65.969 65.969 0 0 0-5.215 6.776c-1.301-2.346-3.129-4.692-5.212-6.776-6.52-6.519-15.643-10.429-25.026-10.429-6.521 0-13.037 1.826-18.511 5.213a43.473 43.473 0 0 0-10.166 9.386c-7.301.521-14.341 3.649-19.815 8.603-4.692 4.432-8.083 9.905-9.646 15.902-4.95 2.346-9.384 5.735-12.771 9.906-4.434 5.997-7.041 13.035-7.041 20.595v2.346c-3.911 2.346-7.301 5.213-10.165 8.864-4.434 5.735-7.04 13.035-7.04 20.333 0 4.954 1.043 9.646 3.129 14.076.782 1.567 1.563 2.868 2.345 4.435-2.083 2.605-3.911 5.474-5.474 8.341-2.868 5.997-4.431 12.514-4.431 19.03 0 7.821 2.344 15.644 6.513 22.421 2.871 4.954 7.043 9.122 11.732 12.514-.262 1.043-.262 1.824-.262 2.867 0 9.385 3.391 18.249 9.646 25.026 4.434 4.693 10.169 8.342 16.166 10.166 1.04 5.735 3.649 10.95 7.821 15.12a27.615 27.615 0 0 0 19.55 8.083h2.868c2.61 2.086 5.474 3.648 8.345 4.953 4.43 1.824 8.86 2.868 13.556 2.868-4.958 4.691-8.083 11.47-8.083 18.507v1.565c-3.387.781-5.997 3.91-5.997 7.56v3.911c0 3.129 1.563 5.735 4.172 7.036-2.609 1.828-4.172 4.696-4.172 8.083v8.342c0 3.91 2.086 7.301 5.211 8.864-3.125 2.867-5.211 6.777-5.211 11.208v14.861c0 7.298 8.603 13.814 14.08 17.206 8.599 4.953 18.769 8.341 28.676 9.384 1.825.262 3.649.262 5.474.262 9.384 0 47.968-8.083 47.968-26.852 0-8.603 2.344-19.553-5.216-26.069 7.302-3.911 7.56-20.855 1.043-25.289 6.517-3.387 6.259-16.42-1.824-18.507 0-7.821-2.349-14.6-8.083-20.072 4.692 0 9.126-1.044 13.295-2.868 3.129-1.305 5.997-2.867 8.606-4.953h2.605c7.561 0 14.6-2.868 19.812-8.083 3.911-4.17 6.778-9.385 7.561-15.12 6.257-1.824 11.731-5.473 16.162-10.166 6.258-6.777 9.906-15.642 9.906-25.026 0-1.043-.261-1.824-.261-2.867 4.691-3.392 8.603-7.56 11.731-12.514 4.173-6.777 6.518-14.6 6.518-22.421 0-6.517-1.563-13.033-4.431-19.03-1.566-2.867-3.392-5.735-5.735-8.341 1.043-1.566 1.825-2.867 2.344-4.435 2.087-4.43 3.13-9.122 3.13-14.076 0-7.298-2.345-14.598-6.778-20.333-2.868-3.651-6.255-6.519-10.428-8.864.262-.781.262-1.565.262-2.346 0-7.56-2.605-14.598-7.039-20.595-3.389-4.17-7.822-7.56-12.772-9.906-1.566-5.997-4.953-11.47-9.646-15.902-1.043-.782-2.348-1.825-3.392-2.608h.263c6.518 3.911 14.859 1.565 18.769-4.952zm-57.613 260.432h3.391c1.563 0 2.606 1.043 2.606 2.605v3.911c0 1.563-1.043 2.605-2.606 2.605h-3.391v7.56h2.087v.263h.782v.261h.524v.258h.521v.263h.261v.261h.263v.263h.258v.258h.262v.261h.262v.521h.262v.262l.258.262v.52l.262.262v10.43h-.262v.782l-.258.262v.262l-.262.261-.262.259v.262h-.262v.261h-.258v.263h-.263v.258h-.261v.262h-.521v.262h-.524v.258h-.519l-.263.262h-2.087v6.517c3.653 1.566 5.997 4.954 5.997 8.603v15.381c0 .523-.262.785-.262 1.305v.262c-3.387 7.821-16.944 14.077-22.159 15.901-6.255 2.348-12.771 3.391-19.288 3.648H256.262c-21.378 0-43.018-14.076-43.018-21.636v-14.861c0-3.91 2.348-7.298 5.997-8.603v-6.517h-1.04c-2.871 0-4.958-2.345-4.958-4.953v-8.342c0-2.605 2.086-4.954 4.958-4.954h1.04v-7.56h-3.649c-1.301 0-2.348-1.042-2.348-2.605v-3.911c0-1.563 1.047-2.605 2.348-2.605h3.649v-6.52c0-10.947 9.126-20.332 20.335-20.332h33.109c.52 0 1.043.258 1.563.258h1.042c3.649.523 7.037 2.087 9.908 4.173 7.037 5.726 7.819 12.766 7.819 22.411zm-41.451-162.413c-.778-2.086-2.083-4.17-3.126-6.256a45.178 45.178 0 0 0 4.951-6.778c1.046-1.825 2.086-3.909 2.609-6.257.781 2.348 1.824 4.432 2.867 6.257 1.306 2.608 3.129 4.694 4.954 6.778-1.305 2.086-2.348 4.17-3.13 6.256-2.086 5.216-3.387 10.689-3.387 16.163 0 5.477 1.043 10.688 3.126 15.643.784 2.344 1.824 4.431 3.129 6.517-1.824 2.086-3.387 4.431-4.431 7.04-1.305 2.605-2.348 5.212-3.129 8.079-.523-2.867-1.563-5.474-2.868-8.079-1.305-2.609-2.606-4.954-4.431-7.04 1.301-2.086 2.344-4.173 3.126-6.517 2.086-4.954 2.871-10.166 2.871-15.643a43.44 43.44 0 0 0-3.131-16.163zm-1.301-52.397c1.825-1.826 3.649-3.651 4.954-5.735.258-.521.52-1.043.781-1.305.262.262.52.783.781 1.305 1.566 2.084 3.129 3.909 5.215 5.735-1.305 1.563-2.086 2.868-3.129 4.431-1.043 2.086-2.086 4.172-2.867 6.256-.523-2.084-1.563-4.17-2.609-6.256-1.04-1.564-2.083-2.868-3.126-4.431zm4.692 126.435c.52-1.305.781-2.606 1.043-4.173.52 1.566.781 2.868 1.305 4.173.52 1.563 1.301 3.129 1.824 4.431-1.043 1.823-2.086 3.391-3.129 5.215-.781-1.824-1.825-3.392-3.129-5.215.781-1.302 1.566-2.868 2.086-4.431zm7.821 52.659c1.563 1.305 2.867 2.605 4.431 3.649h-22.156c1.301-1.044 2.864-2.345 4.168-3.649 2.868-2.867 5.215-5.996 6.778-9.385 1.825 3.389 4.174 6.518 6.779 9.385zm77.425-197.343c5.215 1.824 9.646 4.952 13.036 9.384 3.649 4.692 5.994 10.689 5.994 17.206 0 1.565-.259 3.129-.52 4.433v1.043c4.691 1.824 8.602 4.952 11.731 8.863 3.649 4.691 5.735 10.688 5.735 17.205 0 4.172-.785 8.343-2.609 11.994-1.044 2.345-2.606 4.691-4.431 6.778 3.129 2.867 5.735 6.517 7.821 10.427 2.345 4.954 3.91 10.689 3.91 16.683 0 7.302-2.086 14.08-5.735 19.814-3.128 5.212-7.559 9.385-12.774 12.515v1.301c.262 1.305.52 2.867.52 4.172 0 8.341-3.387 15.901-8.341 21.378-4.431 4.95-10.428 8.342-17.206 9.904-.261 5.997-2.605 11.47-6.777 15.381-3.911 4.173-9.646 6.517-15.901 6.517-1.043 0-2.086 0-3.129-.259h-1.043c-2.606 2.345-5.735 4.17-9.123 5.735-3.652 1.563-7.821 2.606-12.255 2.606-8.861 0-16.683-3.649-22.68-9.385-5.735-5.735-9.122-13.817-9.122-22.421 0-4.691 1.043-9.122 2.605-13.033 1.563-3.129 3.388-5.996 5.735-8.602-1.563-2.087-2.605-4.173-3.391-6.779-1.301-3.129-1.824-6.778-1.824-10.427 0-5.216 1.043-9.907 3.391-14.08 1.563-3.388 3.649-6.255 6.255-8.86-2.086-2.609-3.649-5.735-4.954-8.864-1.563-4.173-2.605-8.865-2.605-13.818 0-4.954 1.043-9.646 2.868-14.077 1.305-3.39 3.129-6.256 5.215-9.124-2.868-2.346-5.215-5.214-7.302-8.603-2.344-4.17-3.911-9.386-3.911-14.859 0-5.476 1.567-10.427 4.173-14.859 1.563-2.868 3.649-5.214 5.997-7.56a25.458 25.458 0 0 1-8.342-8.343c-3.129-4.692-5.215-10.427-5.215-16.684 0 6.256-1.825 11.992-4.954 16.684-2.344 3.39-4.953 6.257-8.341 8.343 2.348 2.346 4.431 4.692 5.997 7.56 2.606 4.432 3.911 9.384 3.911 14.859 0 5.473-1.305 10.689-3.911 14.859-1.824 3.389-4.172 6.257-7.301 8.603 2.348 2.868 3.911 5.733 5.477 9.124 1.824 4.431 2.606 9.123 2.606 14.077 0 4.953-.782 9.646-2.348 13.818-1.305 3.129-3.129 6.255-4.954 8.864 2.609 2.605 4.695 5.473 6.258 8.86 2.086 4.173 3.388 8.864 3.388 14.08 0 3.648-.782 7.298-1.825 10.427-.781 2.606-2.086 4.692-3.387 6.779 2.348 2.605 4.172 5.473 5.474 8.602a30.81 30.81 0 0 1 2.868 13.033c0 8.604-3.649 16.686-9.384 22.421-5.735 5.735-13.557 9.385-22.421 9.385-4.431 0-8.603-1.044-12.51-2.606-3.133-1.565-6.259-3.391-8.868-5.735h-1.04c-1.043.259-2.086.259-3.391.259-5.993 0-11.728-2.344-15.9-6.517-3.911-3.911-6.52-9.384-6.52-15.381-6.775-1.563-12.772-4.954-17.206-9.904-5.212-5.477-8.341-13.037-8.341-21.378 0-1.305.262-2.867.262-4.172.258-.52.258-1.043.258-1.301-5.212-3.13-9.642-7.303-12.771-12.515-3.649-5.734-5.735-12.513-5.735-19.814 0-5.993 1.301-11.729 3.911-16.683 1.825-3.91 4.434-7.56 7.821-10.427-1.825-2.087-3.387-4.434-4.695-6.778-1.563-3.65-2.603-7.821-2.603-11.994 0-6.517 2.344-12.514 5.993-17.205 3.129-3.911 7.04-7.039 11.732-8.863 0-.262 0-.522-.262-1.043 0-1.303-.258-2.868-.258-4.433 0-6.517 2.344-12.513 5.993-17.206 3.391-4.432 7.821-7.56 13.037-9.384 1.04-6.257 4.169-11.732 8.599-15.903 4.958-4.432 11.732-7.3 19.034-7.3h.258c2.61-4.17 5.997-7.56 9.908-9.906 4.691-2.868 10.169-4.694 15.904-4.694 8.341 0 15.9 3.389 21.374 9.125 5.477 5.475 8.864 13.035 8.864 21.378 0-8.343 3.387-15.903 8.864-21.378 5.735-5.735 13.295-9.125 21.637-9.125 5.734 0 11.208 1.826 15.642 4.694 4.173 2.346 7.561 5.735 10.166 9.906h.262c7.298 0 13.818 2.868 19.029 7.3 4.43 4.171 7.56 9.646 8.603 15.903zm-8.864-29.719v-.262l-.258-.26v-.262l-.263-.26v-.262l-.261-.26v-.522l-.263-.262v-1.303h-.258v-1.826h.258v-1.302l.263-.261v-.521l.261-.26v-.522h.263v-.26l.258-.262L376.7 69.605c2.606-4.17 7.821-5.214 11.731-3.129 4.17 2.348 5.475 7.821 3.13 11.732l-45.362 78.989c-2.348 4.17-7.82 5.475-11.731 3.129h-.262v-.262h-.52v-.26h-.262v-.262h-.262l-.259-.26v-.262h-.261v-.26h-.262l-.259-.262v-.26h-.261v-.262h-.26v-.519h-.261z"/></g><path fill="#E6E6E6" d="M239.576 393.386h33.109c10.947 0 20.331 9.385 20.331 20.332v56.05c0 11.209-9.384 20.334-20.331 20.334h-33.109c-11.209 0-20.335-9.125-20.335-20.334v-56.05c0-10.947 9.126-20.332 20.335-20.332z"/><path fill="#BFC2C5" d="M222.371 461.165h67.521c4.95 0 9.122 4.173 9.122 9.122v14.861c0 7.821-21.116 21.636-42.752 21.636-21.378 0-43.018-14.076-43.018-21.636v-14.861c0-4.949 4.173-9.122 9.127-9.122z"/><path fill="#D4D7DB" d="M218.202 436.919h75.859c2.609 0 4.953 2.349 4.953 4.954v8.342c0 2.608-2.344 4.953-4.953 4.953h-75.859c-2.871 0-4.958-2.345-4.958-4.953v-8.342c0-2.605 2.087-4.954 4.958-4.954z"/><path fill="#D4D8D9" d="M215.592 420.237h80.815c1.563 0 2.606 1.043 2.606 2.605v3.911c0 1.563-1.043 2.605-2.606 2.605h-80.815c-1.301 0-2.348-1.042-2.348-2.605v-3.911c0-1.562 1.047-2.605 2.348-2.605z"/><path fill="#CFCFCF" d="M274.249 393.644c10.427.786 18.768 9.646 18.768 20.074v56.05c0 5.735-2.605 10.951-6.255 14.6v-69.607c0-8.08-6.517-15.902-12.513-21.117z"/><path fill="#ACAFB1" d="M286.762 461.165h3.13c4.95 0 9.122 4.173 9.122 9.122v14.861c0 3.911-4.953 8.865-12.513 13.295.261-8.864.261-23.202.261-37.278z"/><path fill="#BFC2C5" d="M286.762 436.919h7.299c2.609 0 4.953 2.349 4.953 4.954v8.342c0 2.608-2.344 4.953-4.953 4.953h-7.299v-18.249z"/><path fill="#BFC2C3" d="M286.762 420.237h9.646c1.563 0 2.606 1.043 2.606 2.605v3.911c0 1.563-1.043 2.605-2.606 2.605h-9.646v-9.121z"/><path fill="#4E5A62" d="M180.658 148.595L135.3 69.605c-1.043-1.564-2.609-2.868-4.172-3.389l-.262-.26h-.52c-.258-.262-.782-.262-1.043-.262v-.259H126.177v.259h-.786l-.262.262h-.52l-.258.26h-.262l-.262.26h-.261l-.262.262h-.261v.26h-.258l-.262.262-.258.26h-.262v.262h-.261v.26l-.262.262h-.262v.259h-.258v.262l-.262.26v.262l-.258.26-.262.26v.262l-.262.26v.522h-.262v.784h-.262v1.303l-.258.26V74.823l.258.262v1.299h.262v.521l.262.26v.522l.262.262v.26h.262l45.358 78.989c2.348 4.17 7.821 5.475 11.731 3.129 4.176-2.348 5.476-7.562 3.129-11.732z"/><path fill="#4E5A62" d="M387.65 66.216l-.261-.26h-.524l-.259-.262h-.782v-.259h-3.133v.259h-.782l-.261.262h-.524l-.259.26h-.523v.26h-.262l-.259.262h-.262l-.261.26-.259.262h-.262v.26h-.261v.262h-.263v.26h-.258v.262h-.261v.259h-.263v.262l-.258.26-.262.262v.26h-.251l-45.361 78.989-.258.262v.26h-.263v.522l-.261.26v.521l-.263.261v1.302h-.258v1.826h.258V155.113l.263.262v.522l.261.26v.262l.263.26v.262l.258.26c.523 1.303 1.824 2.346 3.129 3.129 3.911 2.346 9.384 1.042 11.731-3.129l45.362-78.989c2.345-3.911 1.04-9.385-3.13-11.732-.26-.004-.523-.264-.781-.264z"/><path fill="#4E5A62" d="M256 5.214H257.563l.262.262h.782v.26h.782v.262h.263c2.867 1.303 4.953 4.17 4.953 7.819v119.138c0 4.692-3.911 8.341-8.603 8.341-3.129 0-5.735-1.563-7.298-4.17v-.26h-.262v-.521h-.261v-.522h-.262v-.784l-.262-.26V11.73h.262v-.783h.262v-.782h.261v-.26l.262-.262v-.26l.262-.261v-.26h.258v-.259h.262v-.26l.258-.262.262-.26.262-.262.262-.259.262-.26.258-.262h.262l.258-.26.262-.262h.262l.262-.26h.52v-.261h.52l.261-.26h.786l.262-.262H256v.001z"/><path fill="#4E5A62" d="M312.57 163.976h-.262c-2.605-4.17-5.993-7.56-10.166-9.906-4.434-2.868-9.907-4.694-15.642-4.694-8.342 0-15.901 3.389-21.637 9.125-5.478 5.475-8.864 13.035-8.864 21.378 0 6.256-1.825 11.992-4.954 16.684-2.344 3.39-4.953 6.257-8.341 8.343 2.348 2.346 4.431 4.692 5.997 7.56 2.606 4.432 3.911 9.384 3.911 14.859 0 5.473-1.305 10.689-3.911 14.859-1.824 3.389-4.172 6.257-7.301 8.603 2.348 2.868 3.911 5.733 5.477 9.124 1.824 4.431 2.606 9.123 2.606 14.077 0 4.953-.782 9.646-2.348 13.818-1.305 3.129-3.129 6.255-4.954 8.864 2.609 2.605 4.695 5.473 6.258 8.86 2.086 4.173 3.388 8.864 3.388 14.08 0 3.648-.782 7.298-1.825 10.427-.781 2.606-2.086 4.692-3.387 6.779 2.348 2.605 4.172 5.473 5.474 8.602a30.81 30.81 0 0 1 2.868 13.033c0 8.604-3.649 16.686-9.384 22.421-5.735 5.735-13.557 9.385-22.421 9.385-4.431 0-8.603-1.044-12.51-2.606-3.133-1.565-6.259-3.391-8.868-5.735h-1.04c-1.043.259-2.086.259-3.391.259-5.993 0-11.728-2.344-15.9-6.517-3.911-3.911-6.52-9.384-6.52-15.381-6.775-1.563-12.772-4.954-17.206-9.904-5.212-5.477-8.341-13.037-8.341-21.378 0-1.305.262-2.867.262-4.172.258-.52.258-1.043.258-1.301-5.212-3.13-9.642-7.303-12.771-12.515-3.649-5.734-5.735-12.513-5.735-19.814 0-5.993 1.301-11.729 3.911-16.683 1.825-3.91 4.434-7.56 7.821-10.427-1.825-2.087-3.387-4.434-4.695-6.778-1.563-3.65-2.603-7.821-2.603-11.994 0-6.517 2.344-12.514 5.993-17.205 3.129-3.911 7.04-7.039 11.732-8.863 0-.262 0-.522-.262-1.043 0-1.303-.258-2.868-.258-4.433 0-6.517 2.344-12.513 5.993-17.206 3.391-4.432 7.821-7.56 13.037-9.384 1.04-6.257 4.169-11.732 8.599-15.903 4.958-4.432 11.732-7.3 19.034-7.3h.258c2.61-4.17 5.997-7.56 9.908-9.906 4.691-2.868 10.169-4.694 15.904-4.694 8.341 0 15.9 3.389 21.374 9.125 5.477 5.475 8.864 13.035 8.864 21.378 0 6.256 2.086 11.992 5.215 16.684a25.468 25.468 0 0 0 8.342 8.343c-2.348 2.346-4.435 4.692-5.997 7.56-2.605 4.432-4.173 9.384-4.173 14.859 0 5.473 1.567 10.689 3.911 14.859 2.087 3.389 4.434 6.257 7.302 8.603-2.086 2.868-3.91 5.733-5.215 9.124-1.825 4.431-2.868 9.123-2.868 14.077 0 4.953 1.043 9.646 2.605 13.818 1.305 3.129 2.868 6.255 4.954 8.864-2.605 2.605-4.691 5.473-6.255 8.86-2.348 4.173-3.391 8.864-3.391 14.08 0 3.648.523 7.298 1.824 10.427.785 2.606 1.828 4.692 3.391 6.779-2.348 2.605-4.172 5.473-5.735 8.602-1.563 3.911-2.605 8.342-2.605 13.033 0 8.604 3.387 16.686 9.122 22.421 5.997 5.735 13.818 9.385 22.68 9.385 4.434 0 8.603-1.044 12.255-2.606 3.388-1.565 6.517-3.391 9.123-5.735h1.043c1.043.259 2.086.259 3.129.259 6.256 0 11.99-2.344 15.901-6.517 4.172-3.911 6.517-9.384 6.777-15.381 6.778-1.563 12.775-4.954 17.206-9.904 4.954-5.477 8.341-13.037 8.341-21.378 0-1.305-.258-2.867-.52-4.172v-1.301c5.216-3.13 9.646-7.303 12.774-12.515 3.649-5.734 5.735-12.513 5.735-19.814 0-5.993-1.565-11.729-3.91-16.683-2.086-3.91-4.692-7.56-7.821-10.427 1.824-2.087 3.387-4.434 4.431-6.778 1.824-3.65 2.609-7.821 2.609-11.994 0-6.517-2.086-12.514-5.735-17.205-3.13-3.911-7.04-7.039-11.731-8.863v-1.043c.261-1.303.52-2.868.52-4.433 0-6.517-2.345-12.513-5.994-17.206-3.391-4.432-7.821-7.56-13.036-9.384-1.043-6.257-4.173-11.732-8.604-15.903-5.211-4.429-11.732-7.296-19.03-7.296z"/><path fill="#F3CF3D" d="M199.691 167.625h2.344c4.434-8.603 13.295-14.598 23.726-14.598 14.857 0 26.851 11.992 26.851 26.852 0 11.208-7.04 20.594-16.686 24.765 7.822 4.432 13.295 13.035 13.295 22.681 0 9.906-5.215 18.249-13.037 22.94 5.997 5.997 9.908 14.6 9.908 23.723 0 8.864-3.388 16.947-9.123 23.201 6.779 4.954 11.209 13.296 11.209 22.422 0 6.778-2.348 12.771-6.258 17.725 5.735 5.216 9.387 12.514 9.387 21.116 0 15.381-12.513 28.156-28.156 28.156-8.083 0-15.119-3.391-20.331-8.863-1.566.519-3.391.781-5.478.781a18.69 18.69 0 0 1-18.768-18.77v-2.609c-14.338-1.301-25.546-13.295-25.546-28.152 0-2.605.258-4.954 1.04-7.301-11.209-5.735-19.03-17.206-19.03-30.501 0-10.947 5.216-20.854 13.295-26.852-5.474-4.691-8.861-11.47-8.861-19.03 0-11.47 7.821-21.116 18.507-23.722-.781-2.607-1.301-5.213-1.301-7.821 0-11.47 7.821-21.116 18.507-23.722 1.043-12.775 11.732-22.421 24.506-22.421z"/><path fill="#F1C40F" d="M251.046 171.014a25.384 25.384 0 0 1 1.567 8.865c0 11.208-7.04 20.594-16.686 24.765 2.606 1.303 4.954 3.389 6.778 5.735-.785.522-1.824 1.043-2.868 1.303 3.129 1.826 5.735 4.172 7.818 7.04 1.046 2.868 1.566 5.735 1.566 8.603 0 9.906-5.215 18.249-13.037 22.94 1.828 1.825 3.652 4.171 4.958 6.517-.262.262-.785.523-1.305.781 1.563 1.305 2.868 2.868 3.911 4.434 1.563 3.649 2.344 7.822 2.344 11.991 0 8.864-3.388 16.947-9.123 23.201 2.086 1.306 3.911 3.13 5.474 5.217-.523.781-1.043 1.301-1.563 1.824 2.086 1.824 4.172 3.648 5.735 5.734a29.974 29.974 0 0 1 1.563 9.646c0 6.778-2.348 12.771-6.258 17.725 1.828 1.567 3.652 3.649 4.957 5.735-.262.523-.785 1.044-1.046 1.566 1.305 1.302 2.609 2.606 3.91 4.169a29.817 29.817 0 0 1 1.566 9.646c0 15.381-12.513 28.156-28.156 28.156-8.083 0-15.119-3.391-20.331-8.863-1.566.519-3.391.781-5.478.781-5.735 0-10.95-2.606-14.338-6.517-.523-1.563-.523-3.392-.523-5.217v-2.605c-1.04 0-2.345-.262-3.649-.52-.258-1.305-.258-2.609-.258-3.911v-2.609c-8.083-.781-15.381-5.212-20.073-11.47-1.043-2.867-1.563-5.993-1.563-9.384 0-2.606.258-5.212 1.04-7.561-1.825-.781-3.387-1.563-4.692-2.605 0-1.566.262-3.129.782-4.434-5.212-2.606-9.646-6.517-13.033-11.209-1.301-3.648-2.086-7.821-2.086-12.252 0-10.95 5.211-20.597 13.294-26.852a19.215 19.215 0 0 1-5.212-5.996c.262-.521.781-.782 1.301-1.044-1.301-1.301-2.606-2.605-3.649-3.91-.782-2.606-1.301-5.212-1.301-7.82 0-11.47 7.821-21.116 18.245-23.722-.778-2.607-1.039-5.215-1.039-7.821 0-11.47 7.821-21.116 18.506-23.983 1.043-12.514 11.732-22.419 24.504-22.419.785 0 1.566.26 2.086.26 4.434-8.603 13.557-14.598 23.987-14.598 8.6.001 16.422 4.172 21.375 10.688z"/><path fill="#F1C40F" d="M183.005 371.488c-.523-1.566-.523-2.871-.523-4.696v-2.605c-1.04 0-2.345-.262-3.649-.52-.258-1.305-.258-2.609-.258-3.911v-2.609c-3.129-.258-6.255-1.301-9.126-2.344v-1.305c0-1.043 0-1.824.262-2.606-3.126-.262-5.997-1.043-8.861-2.348-.785-1.043-1.566-1.824-2.348-2.867-1.043-2.867-1.563-5.993-1.563-9.384 0-2.606.258-5.212 1.04-7.561-1.825-.781-3.387-1.563-4.692-2.605 0-1.566.262-3.129.782-4.434-5.212-2.606-9.646-6.517-13.033-11.209-1.301-3.648-2.086-7.821-2.086-12.252 0-10.95 5.211-20.597 13.294-26.852a19.215 19.215 0 0 1-5.212-5.996c.262-.521.781-.782 1.301-1.044-1.301-1.301-2.606-2.605-3.649-3.91-.782-2.606-1.301-5.212-1.301-7.82 0-11.47 7.821-21.116 18.245-23.722-.778-2.607-1.039-5.215-1.039-7.821 0-11.47 7.821-21.116 18.506-23.983 1.043-12.514 11.732-22.419 24.504-22.419.785 0 1.566.26 2.086.26 4.434-8.603 13.557-14.598 23.987-14.598 3.649 0 7.298.781 10.424 2.084.785.783 1.305 1.564 1.825 2.346 1.046 2.608 1.566 5.735 1.566 8.865 0 10.949-6.778 20.595-16.424 24.505 2.609 1.564 4.695 3.649 6.778 5.735-1.043.782-2.083 1.043-3.129 1.565 3.129 1.824 5.735 4.17 7.821 7.038 1.043 2.606 1.563 5.735 1.563 8.603 0 9.646-5.212 18.249-13.033 22.94 2.086 1.825 3.649 3.911 4.954 6.257-.258.26-.781.522-1.043.781 1.305 1.565 2.609 3.129 3.649 4.692 1.563 3.648 2.348 7.821 2.348 11.993a33.969 33.969 0 0 1-8.864 22.941c1.824 1.563 3.652 3.388 5.215 5.474-.523.523-1.043 1.305-1.563 1.824 2.345 1.566 4.169 3.648 5.735 5.735a30.005 30.005 0 0 1 1.563 9.646c0 6.517-2.348 12.775-6.259 17.729 2.086 1.563 3.649 3.648 4.954 5.735-.258.519-.52.781-1.043 1.3 1.563 1.306 2.868 2.868 3.911 4.435 1.043 2.867 1.825 6.255 1.825 9.384 0 15.644-12.772 28.153-28.415 28.153-7.821 0-15.12-3.126-20.334-8.6-1.566.521-3.391.781-5.215.781-2.088.002-3.913-.259-5.476-.78z"/><path fill="#D9B00E" d="M199.691 163.976h.258c2.61-4.17 5.997-7.56 9.908-9.906 4.691-2.868 10.169-4.694 15.904-4.694 8.341 0 15.9 3.389 21.374 9.125 5.477 5.475 8.864 13.035 8.864 21.378 0 6.256-1.825 11.992-4.954 16.684-2.344 3.39-4.953 6.257-8.341 8.343 2.348 2.346 4.431 4.692 5.997 7.56 2.606 4.432 3.911 9.384 3.911 14.859 0 5.473-1.305 10.689-3.911 14.859-1.824 3.389-4.172 6.257-7.301 8.603 2.348 2.868 3.911 5.733 5.477 9.124 1.824 4.431 2.606 9.123 2.606 14.077 0 4.953-.782 9.646-2.348 13.818-1.305 3.129-3.129 6.255-4.954 8.864 2.609 2.605 4.695 5.473 6.258 8.86 2.086 4.173 3.388 8.864 3.388 14.08 0 3.648-.782 7.298-1.825 10.427-.781 2.606-2.086 4.692-3.387 6.779 2.348 2.605 4.172 5.473 5.474 8.602a30.81 30.81 0 0 1 2.868 13.033c0 8.604-3.649 16.686-9.384 22.421-5.735 5.735-13.557 9.385-22.421 9.385-4.431 0-8.603-1.044-12.51-2.606-3.133-1.565-6.259-3.391-8.868-5.735h-1.04c-1.043.259-2.086.259-3.391.259-5.993 0-11.728-2.344-15.9-6.517-3.911-3.911-6.52-9.384-6.52-15.381-6.775-1.563-12.772-4.954-17.206-9.904-5.212-5.477-8.341-13.037-8.341-21.378 0-1.305.262-2.867.262-4.172.258-.52.258-1.043.258-1.301-5.212-3.13-9.642-7.303-12.771-12.515-3.649-5.734-5.735-12.513-5.735-19.814 0-5.993 1.301-11.729 3.911-16.683 1.825-3.91 4.434-7.56 7.821-10.427-1.825-2.087-3.387-4.434-4.695-6.778-1.563-3.65-2.603-7.821-2.603-11.994 0-6.517 2.344-12.514 5.993-17.205 3.129-3.911 7.04-7.039 11.732-8.863 0-.262 0-.522-.262-1.043 0-1.303-.258-2.868-.258-4.433 0-6.517 2.344-12.513 5.993-17.206 3.391-4.432 7.821-7.56 13.037-9.384 1.04-6.257 4.169-11.732 8.599-15.903 4.957-4.431 11.732-7.298 19.033-7.298zm1.043 7.299h-1.043c-5.477 0-10.427 1.825-14.076 5.474-3.911 3.389-6.259 8.081-6.782 13.556l-.258 2.608-2.348.52c-4.692 1.043-8.603 3.91-11.471 7.562-2.868 3.389-4.43 7.819-4.43 12.773 0 1.303 0 2.346.262 3.389 0 1.043.261 2.346.778 3.389l1.046 3.649-3.649.783c-4.434 1.303-8.606 3.911-11.212 7.56-2.867 3.649-4.43 8.081-4.43 12.773 0 3.129.781 6.257 1.824 8.864 1.301 2.868 3.388 5.211 5.735 7.298l3.388 2.867-3.649 2.609c-3.649 2.868-6.517 6.517-8.603 10.686-2.083 4.172-3.129 8.603-3.129 13.557 0 5.735 1.566 11.213 4.434 15.904 3.125 4.954 7.298 8.861 12.51 11.209l2.609 1.305-.782 2.867c-.261 1.044-.52 2.083-.52 3.126-.262 1.043-.262 2.348-.262 3.391 0 6.517 2.344 12.252 6.517 16.683 3.911 4.434 9.646 7.302 15.9 7.821l3.649.262-.52 3.91V359.756c0 4.169 1.566 8.08 4.431 10.689 2.871 2.868 6.52 4.691 10.688 4.691.782 0 1.566-.261 2.348-.261.781 0 1.563-.262 2.083-.523l2.086-.521 1.566 1.563c2.344 2.349 4.954 4.172 8.079 5.477a23.75 23.75 0 0 0 9.646 2.087c6.778 0 13.033-2.871 17.467-7.302s7.036-10.428 7.036-17.206c0-3.648-.778-7.04-2.083-10.166-1.305-3.128-3.391-5.996-5.997-8.344l-2.606-2.344 2.086-2.606c1.825-2.087 3.126-4.434 4.172-7.302.778-2.605 1.301-5.212 1.301-8.079 0-3.911-.781-7.821-2.609-10.951-1.563-3.387-4.169-6.517-7.037-8.603l-3.126-2.605 2.603-2.868c2.609-2.609 4.696-5.996 5.997-9.384a31.716 31.716 0 0 0 2.086-11.212c0-3.911-.782-7.821-2.348-11.471-1.563-3.649-3.649-7.038-6.513-9.646l-3.391-3.387 4.169-2.348c3.391-2.084 6.259-4.952 8.083-8.341 2.086-3.389 3.129-7.3 3.129-11.47 0-4.172-1.043-7.821-3.129-11.21a24.02 24.02 0 0 0-8.341-8.603l-6.255-3.649 6.774-2.607c4.172-1.825 7.822-4.692 10.431-8.603 2.344-3.649 3.91-8.082 3.91-12.773 0-6.519-2.609-12.254-6.781-16.424-4.169-4.17-9.904-6.778-16.42-6.778a23.003 23.003 0 0 0-11.994 3.389c-3.649 2.346-6.517 5.476-8.603 9.125l-1.043 2.346-2.348-.26-1.035-.001z"/><path fill="#F3CF3D" d="M312.57 167.625h-2.348c-4.431-8.603-13.295-14.598-23.722-14.598-14.858 0-26.852 11.992-26.852 26.852 0 11.208 6.777 20.594 16.686 24.765-8.083 4.432-13.295 13.035-13.295 22.681 0 9.906 5.212 18.249 13.032 22.94-5.996 5.997-9.906 14.6-9.906 23.723 0 8.864 3.391 16.947 9.125 23.201-6.777 4.954-11.208 13.296-11.208 22.422 0 6.778 2.344 12.771 6.255 17.725-5.735 5.216-9.384 12.514-9.384 21.116 0 15.381 12.513 28.156 28.152 28.156 7.821 0 15.123-3.391 20.335-8.863 1.565.519 3.391.781 5.215.781 10.428 0 19.03-8.342 19.03-18.77 0-1.042 0-1.823-.262-2.609 14.338-1.301 25.809-13.295 25.809-28.152 0-2.605-.52-4.954-1.043-7.301 11.212-5.735 19.033-17.206 19.033-30.501 0-10.947-5.215-20.854-13.299-26.852 5.216-4.691 8.865-11.47 8.865-19.03 0-11.47-7.822-21.116-18.511-23.722.785-2.607 1.305-5.213 1.305-7.821 0-11.47-7.821-21.116-18.51-23.722-1.3-12.775-11.726-22.421-24.502-22.421z"/><path fill="#F1C40F" d="M261.215 171.014a25.406 25.406 0 0 0-1.565 8.865c0 11.208 6.777 20.594 16.686 24.765-2.606 1.303-4.954 3.389-7.04 5.735 1.043.522 2.086 1.043 3.129 1.303-3.129 1.826-5.734 4.172-7.821 7.04-1.043 2.868-1.563 5.735-1.563 8.603 0 9.906 5.212 18.249 13.032 22.94-1.823 1.825-3.648 4.171-4.952 6.517.261.262.781.523 1.042.781a29.919 29.919 0 0 0-3.648 4.434c-1.563 3.649-2.348 7.822-2.348 11.991 0 8.864 3.391 16.947 9.125 23.201-2.086 1.306-3.91 3.13-5.473 5.217.52.781 1.039 1.301 1.563 1.824-2.086 1.824-4.172 3.648-5.735 5.734a29.892 29.892 0 0 0-1.563 9.646c0 6.778 2.344 12.771 6.255 17.725-1.824 1.567-3.648 3.649-4.953 5.735.261.523.781 1.044 1.042 1.566-1.563 1.302-2.867 2.606-3.91 4.169a29.923 29.923 0 0 0-1.563 9.646c0 15.381 12.513 28.156 28.152 28.156 7.821 0 15.123-3.391 20.335-8.863 1.565.519 3.391.781 5.215.781 5.735 0 10.947-2.606 14.6-6.517.258-1.563.52-3.392.52-5.217v-2.605c1.043 0 2.348-.262 3.388-.52.262-1.305.523-2.609.523-3.911 0-1.042 0-1.823-.262-2.609 8.341-.781 15.643-5.212 20.335-11.47 1.043-2.867 1.563-5.993 1.563-9.384 0-2.606-.258-5.212-1.043-7.561 1.566-.781 3.13-1.563 4.695-2.605 0-1.566-.523-3.129-.784-4.434 5.215-2.606 9.646-6.517 13.036-11.209 1.301-3.648 2.087-7.821 2.087-12.252 0-10.95-5.217-20.597-13.299-26.852a19.276 19.276 0 0 0 5.215-5.996c-.52-.521-.781-.782-1.305-1.044 1.305-1.301 2.609-2.605 3.653-3.91.781-2.606 1.301-5.212 1.301-7.82 0-11.47-7.821-21.116-18.507-23.722.781-2.607 1.302-5.215 1.302-7.821 0-11.47-7.822-21.116-18.511-23.983-1.04-12.514-11.729-22.419-24.504-22.419-.781 0-1.563.26-2.344.26-4.434-8.603-13.299-14.598-23.726-14.598-8.861.001-16.424 4.172-21.375 10.688z"/><path fill="#F1C40F" d="M329.256 371.488c.52-1.566.52-2.871.52-4.696v-2.605c1.043 0 2.348-.262 3.388-.52.262-1.305.523-2.609.523-3.911 0-1.042 0-1.823-.262-2.609 3.392-.258 6.517-1.301 9.126-2.344.259-.523.259-1.043.259-1.305 0-1.043-.259-1.824-.259-2.606 3.126-.262 5.993-1.043 8.86-2.348.786-1.043 1.567-1.824 2.349-2.867 1.043-2.867 1.563-5.993 1.563-9.384 0-2.606-.258-5.212-1.043-7.561 1.566-.781 3.13-1.563 4.695-2.605 0-1.566-.523-3.129-.784-4.434 5.215-2.606 9.646-6.517 13.036-11.209 1.301-3.648 2.087-7.821 2.087-12.252 0-10.95-5.217-20.597-13.299-26.852a19.276 19.276 0 0 0 5.215-5.996c-.52-.521-.781-.782-1.305-1.044 1.305-1.301 2.609-2.605 3.653-3.91.781-2.606 1.301-5.212 1.301-7.82 0-11.47-7.821-21.116-18.507-23.722.781-2.607 1.302-5.215 1.302-7.821 0-11.47-7.822-21.116-18.511-23.983-1.04-12.514-11.729-22.419-24.504-22.419-.781 0-1.563.26-2.344.26-4.434-8.603-13.299-14.598-23.726-14.598-3.649 0-7.299.781-10.428 2.084-.781.783-1.305 1.564-1.824 2.346-1.043 2.608-1.563 5.735-1.563 8.865 0 10.949 6.778 20.595 16.424 24.505-2.609 1.564-4.954 3.649-6.778 5.735 1.043.782 2.082 1.043 2.868 1.565-2.868 1.824-5.735 4.17-7.822 7.038-.781 2.606-1.305 5.735-1.305 8.603 0 9.646 5.216 18.249 13.037 22.94-2.087 1.825-3.652 3.911-5.215 6.257.519.26.781.522 1.305.781-1.305 1.565-2.61 3.129-3.911 4.692a36.132 36.132 0 0 0-2.087 11.993 33.97 33.97 0 0 0 8.865 22.941 27.27 27.27 0 0 0-5.478 5.474c.523.523 1.043 1.305 1.566 1.824-2.086 1.566-3.91 3.648-5.477 5.735-1.302 3.13-1.825 6.258-1.825 9.646 0 6.517 2.348 12.775 6.259 17.729-1.824 1.563-3.391 3.648-4.953 5.735.52.519.781.781 1.305 1.3-1.566 1.306-2.868 2.868-4.173 4.435-1.043 2.867-1.563 6.255-1.563 9.384 0 15.644 12.771 28.153 28.152 28.153 8.083 0 15.381-3.126 20.335-8.6 1.824.521 3.648.781 5.474.781a19.818 19.818 0 0 0 5.479-.78z"/><path fill="#D9B00E" d="M312.57 163.976h-.262c-2.605-4.17-5.993-7.56-10.166-9.906-4.434-2.868-9.907-4.694-15.642-4.694-8.342 0-15.901 3.389-21.637 9.125-5.478 5.475-8.864 13.035-8.864 21.378 0 6.256 2.086 11.992 5.215 16.684a25.468 25.468 0 0 0 8.342 8.343c-2.348 2.346-4.435 4.692-5.997 7.56-2.605 4.432-4.173 9.384-4.173 14.859 0 5.473 1.567 10.689 3.911 14.859 2.087 3.389 4.434 6.257 7.302 8.603-2.086 2.868-3.91 5.733-5.215 9.124-1.825 4.431-2.868 9.123-2.868 14.077 0 4.953 1.043 9.646 2.605 13.818 1.305 3.129 2.868 6.255 4.954 8.864-2.605 2.605-4.691 5.473-6.255 8.86-2.348 4.173-3.391 8.864-3.391 14.08 0 3.648.523 7.298 1.824 10.427.785 2.606 1.828 4.692 3.391 6.779-2.348 2.605-4.172 5.473-5.735 8.602-1.563 3.911-2.605 8.342-2.605 13.033 0 8.604 3.387 16.686 9.122 22.421 5.997 5.735 13.818 9.385 22.68 9.385 4.434 0 8.603-1.044 12.255-2.606 3.388-1.565 6.517-3.391 9.123-5.735h1.043c1.043.259 2.086.259 3.129.259 6.256 0 11.99-2.344 15.901-6.517 4.172-3.911 6.517-9.384 6.777-15.381 6.778-1.563 12.775-4.954 17.206-9.904 4.954-5.477 8.341-13.037 8.341-21.378 0-1.305-.258-2.867-.52-4.172v-1.301c5.216-3.13 9.646-7.303 12.774-12.515 3.649-5.734 5.735-12.513 5.735-19.814 0-5.993-1.565-11.729-3.91-16.683-2.086-3.91-4.692-7.56-7.821-10.427 1.824-2.087 3.387-4.434 4.431-6.778 1.824-3.65 2.609-7.821 2.609-11.994 0-6.517-2.086-12.514-5.735-17.205-3.13-3.911-7.04-7.039-11.731-8.863V218.2c.261-1.303.52-2.868.52-4.433 0-6.517-2.345-12.513-5.994-17.206-3.391-4.432-7.821-7.56-13.036-9.384-1.043-6.257-4.173-11.732-8.604-15.903-5.21-4.431-11.731-7.298-19.029-7.298zm-1.043 7.299h1.043c5.474 0 10.428 1.825 14.076 5.474 3.648 3.389 6.258 8.081 6.778 13.556l.262 2.608 2.344.52c4.696 1.043 8.606 3.91 11.471 7.562 2.871 3.389 4.434 7.819 4.434 12.773 0 1.303 0 2.346-.261 3.389-.263 1.043-.521 2.346-.782 3.389l-1.305 3.649 3.911.783c4.435 1.303 8.345 3.911 11.212 7.56 2.868 3.649 4.431 8.081 4.431 12.773 0 3.129-.781 6.257-2.086 8.864-1.305 2.868-3.13 5.211-5.474 7.298l-3.391 2.867 3.391 2.609c3.91 2.868 6.778 6.517 8.864 10.686 2.082 4.172 3.126 8.603 3.126 13.557 0 5.735-1.563 11.213-4.431 15.904-3.13 4.954-7.298 8.861-12.514 11.209l-2.606 1.305.782 2.867c.262 1.044.52 2.083.52 3.126.262 1.043.262 2.348.262 3.391 0 6.517-2.345 12.252-6.517 16.683-3.91 4.434-9.646 7.302-15.904 7.821l-3.649.262.523 3.91V359.756c0 4.169-1.566 8.08-4.434 10.689-2.868 2.868-6.517 4.691-10.947 4.691-.781 0-1.566-.261-2.086-.261-.782 0-1.563-.262-2.086-.523l-2.086-.521-1.563 1.563c-2.349 2.349-5.217 4.172-8.084 5.477-3.126 1.302-6.255 2.087-9.646 2.087-6.778 0-13.034-2.871-17.464-7.302-4.434-4.431-7.302-10.428-7.302-17.206 0-3.648.781-7.04 2.349-10.166 1.301-3.128 3.387-5.996 5.996-8.344l2.605-2.344-2.086-2.606c-1.824-2.087-3.129-4.434-4.172-7.302-1.043-2.605-1.302-5.212-1.302-8.079 0-3.911.782-7.821 2.345-10.951 1.825-3.387 4.173-6.517 7.302-8.603l3.125-2.605-2.605-2.868c-2.606-2.609-4.692-5.996-5.996-9.384a31.781 31.781 0 0 1-2.083-11.212c0-3.911.781-7.821 2.344-11.471 1.566-3.649 3.649-7.038 6.517-9.646l3.129-3.387-3.91-2.348a25.506 25.506 0 0 1-8.341-8.341c-1.825-3.389-2.867-7.3-2.867-11.47 0-4.172 1.042-7.821 3.129-11.21 1.824-3.649 4.691-6.517 8.341-8.603l6.255-3.649-6.778-2.607c-4.169-1.825-7.817-4.692-10.427-8.603-2.345-3.649-3.911-8.082-3.911-12.773 0-6.519 2.61-12.254 6.778-16.424 4.173-4.17 9.908-6.778 16.425-6.778 4.434 0 8.602 1.303 11.993 3.389 3.648 2.346 6.517 5.476 8.603 9.125l1.043 2.346 2.345-.26 1.042-.001z"/><path fill="#D9B00E" d="M256 5.214c4.691 0 8.603 3.911 8.603 8.603v119.138c0 4.692-3.911 8.341-8.603 8.341s-8.345-3.649-8.345-8.341V13.816c0-4.691 3.653-8.602 8.345-8.602zm132.432 61.262c-3.91-2.346-9.384-.782-11.731 3.129l-45.361 78.989c-2.345 4.17-1.044 9.384 3.129 11.732 3.911 2.346 9.384 1.042 11.731-3.129l45.362-78.989c2.344-3.911 1.04-9.384-3.13-11.732zm-264.864 0c3.911-2.346 9.384-.782 11.732 3.129l45.358 78.989c2.348 4.17 1.047 9.384-3.126 11.732-3.91 2.346-9.384 1.042-11.731-3.129l-45.358-78.989c-2.349-3.911-1.047-9.384 3.125-11.732z"/><path fill="#F3CF3D" d="M256 5.214c1.305 0 2.605.262 3.649.783.781 1.303 1.042 2.606 1.042 4.17v119.135c0 4.694-3.648 8.603-8.34 8.603-1.305 0-2.61-.26-3.649-.781-.785-1.303-1.046-2.606-1.046-4.17V13.816c-.001-4.691 3.652-8.602 8.344-8.602zm75.339 151.984c3.91 1.824 8.603.262 10.95-3.649L387.65 74.82c1.825-2.868 1.563-5.995 0-8.603-3.91-1.825-8.603-.26-10.95 3.389l-45.361 78.989c-1.564 2.867-1.564 5.997 0 8.603zm-199.95-90.982l45.62 78.989c2.348 3.911.785 9.125-3.387 11.732-2.348 1.303-5.212 1.303-7.821.26l-45.358-78.989c-2.348-3.911-1.047-9.385 3.125-11.732 2.348-1.303 5.212-1.303 7.821-.26z"/></g><metadata><rdf:RDF xmlns:rdf="http://www.w3.org/1999/02/22-rdf-syntax-ns#" xmlns:rdfs="http://www.w3.org/2000/01/rdf-schema#" xmlns:dc="http://purl.org/dc/elements/1.1/"><rdf:Description about="https://iconscout.com/legal#licenses" dc:title="idea" dc:description="idea" dc:publisher="Iconscout" dc:date="2017-09-22" dc:format="image/svg+xml" dc:language="en"><dc:creator><rdf:Bag><rdf:li>Graphiqa Stock</rdf:li></rdf:Bag></dc:creator></rdf:Description></rdf:RDF></metadata></svg>