<?xml version="1.0" encoding="UTF-8"?><!DOCTYPE svg PUBLIC "-//W3C//DTD SVG 1.1//EN" "http://www.w3.org/Graphics/SVG/1.1/DTD/svg11.dtd"><svg xmlns="http://www.w3.org/2000/svg" xmlns:xlink="http://www.w3.org/1999/xlink" version="1.1" id="Imagine" x="0px" y="0px" width="512px" height="512px" viewBox="0 0 512 512" xml:space="preserve"><path id="Background" fill="#96CEB5" d="M255.999 0C397.386 0 512 114.614 512 256.001 512 397.387 397.386 512 255.999 512 114.614 512 0 397.387 0 256.001 0 114.614 114.614 0 255.999 0z"/><g id="Imagine_1_"><path fill="#E6E7E8" d="M230.917 315.062c.683.325 1.358.325 2.042.65 1.367-2.59 4.083-4.53 6.809-5.505h1.367c2.041 0 4.084.324 5.793 1.29.332-.64.674-.966 1.357-1.29.343 0 1.026.324 1.358.65 2.726-2.265 5.793-3.89 9.543-4.855 1.018-.325 2.385-.325 3.743-.325 13.628 0 24.521 10.358 24.521 23.298 0 5.505-2.043 11.009-5.785 14.891 0 1.29.342 2.265.342 3.238 0 11.325-7.834 20.71-18.735 23.623-1.358.316-2.726.316-4.085.316-6.134 0-11.585-1.94-16.011-5.171-.341.642-1.024.966-1.357 1.615-.684-.325-1.026-.649-1.367-.974-2.726 2.914-6.126 5.179-10.219 6.478h-3.067c-7.828 0-14.3-3.889-18.046-9.384-3.409 1.94-7.493 2.265-11.918 1.29-5.11-1.29-9.202-5.179-10.56-9.709-2.726 1.616-6.135 1.939-9.535 1.3-1.709-.649-3.067-1.3-4.43-2.266a10.014 10.014 0 0 1-6.131 0c-5.451-1.299-9.196-6.154-9.196-11.008 0-.649 0-1.29.342-1.94.336-.975.678-2.265 1.362-3.239-.342 0-.342-.324-.684-.642.342-.323.684-.649.684-.974-1.025-1.291-2.042-2.915-2.042-4.529 0-.325 0-.65.338-.65 0-1.29.678-1.939 1.362-2.914-.342-.316-.342-.641-.342-.966 0-.324.342-.324.342-.65-1.02-1.614-1.362-3.556-1.362-5.82 0-.648 0-1.299.342-1.948 2.042-7.444 9.876-11.648 17.369-9.709 3.404.975 6.13 2.914 8.172 5.504.684 0 1.368 0 2.046.325 3.405.974 6.472 3.238 8.514 5.828.342.316 1.021.316 1.363.316.678.326 1.021.326 1.705.649 3.742-3.879 9.535-5.504 15.327-4.205.679.326 1.358.649 2.042.649 1.7-.974 3.742-1.948 6.13-2.588 1.021-.325 2.041-.325 3.062-.325 2.386 0 4.429.325 6.469.965.343-.316.684-.964 1.026-1.289z"/><path fill="#E6E7E8" d="M157.692 312.796c.336 0 1.02.326 1.362.326 1.021-1.625 3.068-3.24 5.109-3.89h1.021c1.362 0 2.721.325 3.747.649.342 0 .684-.324 1.021-.649.342 0 .678.325 1.02.325 2.042-1.615 4.425-2.906 6.813-3.556h2.722c9.881 0 17.711 7.444 17.711 16.504 0 4.204-1.7 7.769-4.425 10.675.342.975.342 1.625.342 2.59 0 7.769-5.793 14.563-13.286 16.504-1.021.324-2.042.324-3.063.324-4.088 0-8.171-1.29-11.239-3.556-.342.325-.684.643-1.025.966-.337-.323-.679-.323-1.016-.641-2.047 1.94-4.43 3.556-7.155 4.53h-2.384c-5.446 0-10.218-2.59-12.94-6.795-2.383 1.615-5.45 1.939-8.176 1.291-3.747-.975-6.809-3.881-7.835-7.12-2.041.974-4.425 1.615-6.809.974-1.026-.323-2.047-.974-3.068-1.623-1.363.324-3.067.324-4.425 0-3.751-.966-6.473-4.205-6.473-8.084v-.976c.337-.974.679-1.615 1.363-2.591-.342 0-.342 0-.342-.323 0-.325 0-.642.342-.642-1.026-.974-1.363-1.948-1.705-3.239 0-.325.342-.325.342-.65 0-.649.337-1.289 1.021-1.939 0-.325-.342-.325-.342-.648 0-.326.342-.326.342-.643-.684-1.299-1.021-2.59-1.021-3.889 0-.649 0-.966.337-1.614 1.368-5.18 6.814-8.094 12.26-6.794 2.388.64 4.43 1.938 5.793 3.879.684 0 1.02 0 1.362.324 2.725.65 4.767 1.94 6.13 4.205h1.021c.342.325 1.021.325 1.363.649 2.726-2.914 6.809-4.204 10.902-2.914.337 0 1.017.325 1.358.325 1.367-.975 2.726-1.615 4.43-1.939.678-.326 1.362-.326 2.383-.326 1.362 0 3.063.326 4.43.65l.682-.649z"/><path fill="#E6E7E8" d="M84.805 284.318c-.338-.324-1.021-.324-1.363-.649.684-1.94.342-4.205-.684-6.146 0-.324-.337-.324-.679-.65-1.021-.974-2.042-1.614-3.405-2.265v-1.288c-.342 0-.684 0-1.021-.326 0-2.265-.68-4.854-2.047-6.798-.679-.974-1.021-1.618-1.699-2.269-6.814-6.47-18.053-6.47-24.862 0-3.068 2.915-4.768 6.477-5.11 10.357-.684.323-1.363.974-2.041 1.299-5.793 5.82-6.814 14.239-3.068 20.709.342.965 1.021 1.615 1.7 2.265 3.067 2.914 6.813 4.53 10.902 5.18v1.615h1.021c-.342 2.914.337 5.505 1.705 8.094.342.641 1.016 1.29 1.357 1.615 3.75 3.88 9.198 5.18 14.307 3.88.679 2.591 2.384 5.179 5.109 6.478 3.404 1.941 7.151 1.941 10.556.317.684 2.273 2.046 3.889 4.088 5.18 1.021.649 2.046.975 3.404.975.684 1.29 1.705 2.265 3.067 3.238 3.41 1.941 7.834 1.291 10.561-1.299.342-.325.342-.649.679-.974.679-.642 1.021-1.616 1.021-2.265h.684c0-.317 0-.642.342-.967 1.017 0 2.384-.324 3.405-1.299 0 0 0-.316.337-.316.342-.649.684-1.623.684-2.273.342 0 .342 0 .684-.317v-.323c1.7-.65 2.721-1.299 4.084-2.265.342-.325.684-.976.684-1.299 3.063-4.531 1.358-10.351-3.41-13.266-2.384-1.299-4.767-1.615-7.151-.974-.342-.325-.684-.642-1.021-.966-2.384-1.3-5.109-1.624-7.492-1.3-.342 0-.679-.324-.679-.324-.342-.325-1.025-.325-1.367-.641 0-3.565-1.701-7.444-5.447-9.385-.342-.325-1.021-.325-1.363-.649-.342-1.625-.684-2.915-1.362-4.205-.679-.65-1.021-1.299-1.705-1.949-1.021-.966-2.383-1.94-3.742-2.59.337-.314.337-.639.337-.965z"/><path fill="#FEFEFE" d="M243.86 46.784c-1.024-.325-2.041-.325-2.725-.97l-1.025.97c-.342-.325-.675-.325-1.017-.325-1.367 1.295-3.41 2.268-5.45 2.915h-2.385c-8.175 0-14.988-6.15-14.988-13.917 0-3.56 1.363-6.797 3.747-9.385-.337-.647-.337-1.294-.337-1.942 0-6.797 4.767-12.297 11.237-14.239h2.726c3.399 0 6.809.97 9.533 2.913l1.026-.971c0 .323.341.323.676.648 1.708-1.62 3.75-3.237 6.134-3.885h2.042c4.426 0 8.519 2.266 10.902 5.826 2.042-1.295 4.425-1.618 7.151-.971 3.066.647 5.451 3.235 6.467 5.824 1.708-.969 3.75-1.295 5.793-.647 1.025.325 2.041.647 2.725 1.295 1.025-.322 2.385-.322 3.742 0 2.051.647 3.751 1.942 4.777 3.884.332.323.675.646 1.016.971 2.727-1.943 6.136-3.238 9.534-3.238 1.025 0 1.709 0 2.727.326 6.477 1.618 11.244 7.442 11.244 14.239v1.942c2.042 2.266 3.398 5.5 3.398 9.06 0 7.768-6.809 14.239-14.985 14.239-.675 0-1.358 0-2.384-.322-2.042-.647-4.083-1.617-5.45-2.912-.333 0-.674.322-1.017.322-.341-.322-.685-.322-1.025-.648-1.016.326-2.042.648-3.058.648h-1.026c-1.7-.648-3.409-1.94-4.083-3.235-.684 0-1.025 0-1.367.322-.342-.322-.342-.647-.684-.647-1.018.325-2.385.325-3.742.325h-2.043c-1.367-.325-2.384-.973-3.751-1.62-.341 0-.684 0-1.016.324-3.409.648-7.159-.324-9.543-2.589-.334.324-.675.324-1.017.324 0 0-.342.323-.684.323-1.025 1.618-3.067 2.913-5.109 3.56-.684 0-1.017 0-1.359.326-1.024 1.292-2.725 2.587-4.766 3.234-4.778.972-9.543-1.618-10.562-5.825-.341-.647-.341-.969-.341-1.295 0-1.295.341-2.587 1.025-3.56-.341 0-.341-.323-.341-.323v-.647c.001-.325-.342-.647-.342-.647z"/><path fill="#FF8A8A" d="M183.574 139.017c-.342.965-.342 1.94-.342 2.911-12.26 5.824-21.794 17.474-23.499 30.742-2.042 18.773 12.265 34.303 32.017 34.303 15.328 0 29.288-8.735 36.1-21.358 5.109 10.358 15.668 16.829 28.954 16.829 12.936 0 25.204-6.471 32.698-16.505 7.492 7.77 18.386 12.624 30.988 12.624 11.918 0 23.162-4.209 32.354-11.653 5.793 8.738 16.353 14.563 28.613 14.563 9.193 0 17.711-2.911 24.862-8.09 6.125 7.445 15.671 11.974 27.246 11.974 20.778 0 39.848-16.179 42.23-35.922 1.368-10.358-2.041-19.744-8.508-26.213 1.016-2.266 1.699-4.53 2.041-7.119 1.7-13.27-8.518-24.273-22.82-24.273-1.026 0-2.383 0-3.409.324.342-18.444-13.96-33.008-34.055-33.008-3.409 0-6.81.325-10.219 1.29-5.45-14.559-20.095-24.59-38.147-24.59-14.984 0-28.946 6.794-38.489 17.15-5.101-6.797-13.96-11.326-24.18-11.326-15.326 0-29.629 10.032-35.079 23.621-3.067-.966-6.468-1.615-10.22-1.615-15.668 0-29.968 10.354-35.077 23.947-17.369 1.617-32.017 14.89-34.059 31.394z"/><path fill="#E67C7C" d="M178.465 139.017v.32c-5.788 3.235-10.897 7.766-14.985 12.944-4.426 5.83-7.493 12.949-8.514 20.389-1.363 10.68 2.046 20.389 8.855 27.508 6.473 7.119 16.007 11.324 27.587 11.324 8.177 0 16.349-2.265 23.5-6.469 4.771-2.915 8.854-6.47 12.599-10.679 2.383 2.91 5.452 5.825 9.202 7.765 5.442 3.239 12.26 5.179 19.411 5.179 7.494 0 14.303-1.94 20.779-5.179 4.767-2.265 9.192-5.5 12.603-9.384 3.399 2.914 7.151 5.18 11.576 6.794 5.45 2.266 11.919 3.565 18.728 3.565 6.477 0 12.944-.975 18.737-3.239 4.767-1.616 8.851-3.556 12.943-6.47 3.066 3.56 6.468 6.47 10.894 8.41 5.449 2.589 11.584 4.21 18.394 4.21 5.11 0 10.22-.646 14.645-2.266 3.408-.97 6.817-2.589 9.876-4.21 2.726 2.916 6.478 5.181 10.561 7.121 5.108 2.265 10.9 3.563 17.027 3.563 11.928 0 23.161-4.53 31.681-11.974 8.851-7.444 14.985-17.802 16.344-28.802.684-5.825 0-11.325-1.7-16.18a38.725 38.725 0 0 0-6.135-11.654c0-.32 0-.645.342-1.294.342-1.291.684-2.59.684-4.205 1.016-7.77-1.367-15.215-6.477-20.389-4.768-5.175-11.577-8.415-19.753-8.415-.674-8.735-4.768-16.179-10.552-22.008-6.817-6.795-16.353-10.675-27.587-10.675-2.051 0-3.751 0-5.793.325-.684 0-1.367 0-1.7.321-3.409-6.795-8.519-12.622-14.984-16.504-7.161-4.855-16.012-7.444-25.888-7.444-8.177 0-16.013 1.942-23.162 5.179-5.793 2.265-10.902 5.824-15.328 9.707-2.383-2.265-5.451-4.207-8.509-5.502-4.768-2.265-9.878-3.56-15.67-3.56-8.86 0-17.37 2.915-24.178 7.445-5.793 3.884-10.561 9.384-13.97 15.208h-1.359c-2.051-.32-3.75-.645-5.793-.645-8.851 0-17.369 2.914-24.519 7.765-6.133 4.209-11.242 10.034-14.646 16.508-8.518 1.615-16.349 5.5-22.821 11.324-6.81 6.47-11.582 14.888-12.945 24.273zm9.877 1.291v-1.291c1.025-6.799 4.43-13.273 9.539-18.128 5.446-4.85 12.26-8.084 19.411-8.734h3.746l1.021-3.235c2.388-6.15 6.475-11.33 11.925-14.889 5.451-3.56 11.577-5.5 18.054-5.5 1.699 0 3.398 0 4.766.325 1.359 0 2.726.645 4.084.97l4.768 1.62 2.041-4.855c2.043-5.829 6.477-11.003 11.919-14.563 5.109-3.56 11.243-5.505 18.053-5.505 4.094 0 8.176.65 11.586 2.265 3.4 1.945 6.467 4.209 8.851 7.445l3.409 4.205 4.084-4.529a45.724 45.724 0 0 1 16.011-11.324c5.784-2.59 11.918-3.885 18.386-3.885 8.177 0 15.328 1.942 21.12 5.825 6.136 3.885 10.562 9.385 13.286 15.859l1.357 3.56 3.751-.971c1.7-.324 3.059-.645 4.426-.969 1.7 0 3.067-.325 4.768-.325 8.519 0 16.011 3.234 21.12 8.414 5.442 5.175 8.51 12.294 8.51 20.389l-.342 4.855 5.108-.65h3.066c5.451 0 10.561 1.94 13.962 5.504 3.067 3.556 4.776 8.736 4.435 13.916-.342 1.294-.342 1.939-.684 2.914-.342.965-.684 1.94-1.026 2.911l-1.017 2.589 1.701 1.94c3.067 2.915 5.108 6.474 6.466 10.354 1.026 3.884 1.71 8.094 1.026 12.624-1.026 8.414-5.793 16.503-12.26 22.328-6.81 5.5-15.67 9.064-24.862 9.064-4.768 0-9.193-.975-13.285-2.59-4.084-1.94-7.493-4.529-10.218-8.094l-2.727-3.234-3.742 2.914c-3.408 2.265-6.809 3.885-10.56 5.175-3.742 1.299-7.492 1.944-11.235 1.944-5.45 0-10.218-1.295-14.652-3.56-4.085-1.94-7.826-5.18-10.552-9.059l-2.726-4.211-4.435 3.56c-4.082 3.236-8.508 5.826-13.618 7.77-4.768 1.616-9.876 2.586-15.327 2.586s-10.561-.971-14.986-2.911c-4.767-1.94-9.191-4.855-12.26-8.418l-4.083-4.205-3.752 5.178c-3.409 4.206-7.835 8.09-12.601 10.356-4.769 2.589-10.219 3.884-16.013 3.884-5.441 0-10.55-1.295-14.643-3.884-4.425-2.586-7.834-6.15-10.218-10.679l-4.084-8.09-4.77 8.739c-3.062 5.5-7.493 10.03-12.943 13.264-5.447 3.239-11.577 5.181-18.049 5.181-8.513 0-16.006-3.56-21.116-8.735-4.768-5.505-7.493-12.949-6.472-21.039.679-5.824 3.063-11.003 6.472-15.534 3.405-4.529 8.176-8.41 13.623-11l3.063-1.299v-3.235c.344-.324.344-.648.344-1.297z"/><path fill="#900" d="M30.65 460.69c-9.535-7.444-18.728-15.538-26.903-24.272 19.752-47.246 44.957-96.435 78.674-143.689C145.09 204.708 235 136.427 326.282 78.497c8.509 7.119 17.37 13.914 25.888 21.034-86.855 55.341-173.021 119.417-234.668 202.583-38.827 51.784-65.731 106.8-86.852 158.576z"/><path fill="#F39C12" d="M54.833 477.52c-9.539-6.154-19.073-12.625-27.924-19.744 20.77-50.16 47.341-103.235 84.805-153.397 61.642-82.517 147.474-146.268 233.98-201.283 8.517 7.12 17.027 13.914 25.888 21.034-82.08 52.425-164.503 111.972-224.789 189.318-41.894 53.714-69.818 110.996-91.96 164.072z"/><path fill="#27AE60" d="M75.949 489.169c-9.535-4.854-19.07-10.358-27.929-16.179 21.461-51.137 49.387-105.177 89.577-156.639 59.942-76.692 141.686-135.592 223.082-187.694 8.518 6.795 16.686 13.59 25.205 20.389-77.313 49.516-155.65 104.528-214.57 176.049-43.936 54.042-72.886 111.323-95.365 164.074z"/><path fill="#2573A7" d="M105.579 502.433c-11.234-4.205-22.137-9.384-32.354-14.889 22.478-52.102 51.092-108.732 94.681-162.125 58.929-71.521 137.256-126.536 214.235-176.048 9.536 7.765 19.069 15.534 28.604 23.298-72.202 46.277-146.447 97.084-204.008 162.776-47.683 54.692-77.654 113.921-101.158 166.988z"/><path fill="#FF8A8A" d="M183.574 107.3c-.342 1.294-.342 1.94-.342 2.915-12.26 5.824-21.794 17.474-23.499 30.742-2.042 19.094 12.265 34.303 32.017 34.303 15.328 0 29.288-8.739 36.1-21.358 5.109 10.354 15.668 17.149 28.954 17.149 12.936 0 25.204-6.796 32.698-16.829 7.492 7.769 18.386 12.624 30.988 12.624 11.918 0 23.162-4.205 32.354-11.324 5.793 8.734 16.353 14.239 28.613 14.239 9.193 0 17.711-2.915 24.862-8.094 6.125 7.444 15.671 12.298 27.246 12.298 20.778 0 39.848-16.503 42.23-36.247 1.368-10.354-2.041-19.739-8.508-26.213 1.016-2.265 1.699-4.529 2.041-6.795 1.7-13.589-8.518-24.592-22.82-24.592-1.026 0-2.383.319-3.409.319.342-18.443-13.96-33.005-34.055-33.005-3.409 0-6.81.647-10.219 1.295-5.45-14.564-20.095-24.273-38.147-24.273-14.984 0-28.946 6.474-38.489 16.828-5.101-6.795-13.96-11.327-24.18-11.327-15.326 0-29.629 10.032-35.079 23.624-3.067-.97-6.468-1.618-10.22-1.618-15.668 0-29.968 10.356-35.077 23.946-17.369 1.62-32.017 15.214-34.059 31.393z"/><path fill="#E67C7C" d="M178.465 107.3v.324c-5.788 3.235-10.897 7.77-14.985 12.944-4.426 6.15-7.493 12.945-8.514 20.389-1.363 10.68 2.046 20.385 8.855 27.504 6.473 7.12 16.007 11.329 27.587 11.329 8.177 0 16.349-2.265 23.5-6.474 4.771-2.911 8.854-6.47 12.599-10.675 2.383 3.235 5.452 5.82 9.202 7.764 5.442 3.235 12.26 5.175 19.411 5.175 7.494 0 14.303-1.94 20.779-5.175 4.767-2.265 9.192-5.5 12.603-9.384 3.399 2.909 7.151 5.175 11.576 6.793 5.45 2.59 11.919 3.885 18.728 3.885 6.477 0 12.944-1.295 18.737-3.56 4.767-1.62 8.851-3.56 12.943-6.15 3.066 3.239 6.468 6.15 10.894 8.094 5.449 2.91 11.584 4.205 18.394 4.205 5.11 0 10.22-.649 14.645-2.265 3.408-.974 6.817-2.589 9.876-4.21 2.726 2.915 6.478 5.18 10.561 7.121 5.108 2.269 10.9 3.56 17.027 3.56 11.928 0 23.161-4.53 31.681-11.974 8.851-7.444 14.985-17.794 16.344-28.803.684-5.82 0-11.324-1.7-16.179-1.367-4.205-3.41-8.09-6.135-11.324 0-.65 0-.975.342-1.621.342-1.294.684-2.589.684-3.884 1.016-8.089-1.367-15.529-6.477-20.708-4.768-5.18-11.577-8.094-19.753-8.415-.674-8.739-4.768-16.181-10.552-22.008-6.817-6.795-16.353-10.679-27.587-10.679-2.051 0-3.751 0-5.793.325-.684 0-1.367 0-1.7.322-3.409-6.794-8.519-12.619-14.984-16.503-7.161-4.855-16.012-7.442-25.888-7.442-8.177 0-16.013 1.939-23.162 5.177-5.793 2.265-10.902 5.824-15.328 9.708-2.383-2.267-5.451-4.207-8.509-5.502-4.768-2.264-9.878-3.56-15.67-3.56-8.86 0-17.37 2.913-24.178 7.442-5.793 4.208-10.561 9.387-13.97 15.211h-1.359c-2.051-.324-3.75-.647-5.793-.647-8.851 0-17.369 2.912-24.519 7.767-6.133 4.208-11.242 10.032-14.646 16.504-8.518 1.614-16.349 5.504-22.821 11.324-6.81 6.476-11.582 14.89-12.945 24.275zm9.877 1.294V107.3c1.025-6.795 4.43-13.27 9.539-18.119 5.446-4.855 12.26-8.094 19.411-8.419l3.746-.325 1.021-3.23c2.388-6.154 6.475-11.007 11.925-14.889 5.451-3.56 11.577-5.501 18.054-5.501 1.699 0 3.398 0 4.766.322 1.359.325 2.726.647 4.084.973l4.768 1.618 2.041-4.855c2.043-5.824 6.477-11.001 11.919-14.561 5.109-3.56 11.243-5.503 18.053-5.503 4.094 0 8.176.97 11.586 2.266 3.4 1.942 6.467 4.207 8.851 7.444l3.409 4.208 4.084-4.532A45.745 45.745 0 0 1 341.61 32.87c5.784-2.587 11.918-3.882 18.386-3.882 8.177 0 15.328 2.265 21.12 5.825 6.136 3.885 10.562 9.385 13.286 15.856l1.357 3.56 3.751-.97c1.7-.322 3.059-.647 4.426-.969 1.7 0 3.067-.326 4.768-.326 8.519 0 16.011 3.237 21.12 8.415 5.442 5.177 8.51 12.296 8.51 20.386l-.342 4.854 5.108-.645h3.066c5.451 0 10.561 1.94 13.962 5.5 3.067 3.56 4.776 8.739 4.435 14.239-.342.975-.342 1.94-.684 2.59-.342.975-.684 1.94-1.026 2.915l-1.017 2.589 1.701 1.94c3.067 2.915 5.108 6.47 6.466 10.354 1.026 3.884 1.71 8.09 1.026 12.619-1.026 8.739-5.793 16.504-12.26 22.333-6.81 5.5-15.67 9.06-24.862 9.06-4.768 0-9.193-.97-13.285-2.589-4.084-1.94-7.493-4.53-10.218-7.764l-2.727-3.56-3.742 2.914c-3.408 2.266-6.809 3.88-10.56 5.175-3.742 1.295-7.492 1.944-11.235 1.944-5.45 0-10.218-1.299-14.652-3.239-4.085-2.265-7.826-5.5-10.552-9.384l-2.726-4.205-4.435 3.555c-4.082 3.24-8.508 5.83-13.618 7.77-4.768 1.616-9.876 2.59-15.327 2.59s-10.561-.975-14.986-2.915c-4.767-1.94-9.191-4.855-12.26-8.411l-4.083-4.209-3.752 5.174c-3.409 4.21-7.835 8.094-12.601 10.36-4.769 2.589-10.219 3.88-16.013 3.88-5.441 0-10.55-1.291-14.643-3.88-4.425-2.59-7.834-6.15-10.218-10.679l-4.084-8.09-4.77 8.734c-3.062 5.505-7.493 10.035-12.943 13.269-5.447 3.235-11.577 5.18-18.049 5.18-8.513 0-16.006-3.56-21.116-8.739-4.768-5.5-7.493-12.944-6.472-21.034.679-5.828 3.063-11.003 6.472-15.534 3.405-4.535 8.176-8.415 13.623-11.004l3.063-1.295v-3.235c.002-.328.344-.652.344-1.298z"/><path fill="#4E5A62" d="M295.286 326.062v2.265c0 8.094-3.743 15.863-10.22 21.042-.674 11.325-9.191 21.358-20.769 24.589h-.342c-1.71.325-3.409.325-4.769.325-5.45 0-10.901-1.291-15.327-4.204l-1.708 1.614-1.359-.966c-2.725 2.265-6.134 4.206-9.535 5.172h-.341c-1.368.323-2.726.323-3.751.323-7.486 0-14.642-3.23-19.072-8.734-3.742 1.291-7.83 1.615-11.576.649-3.067-.975-6.13-2.265-8.177-4.529-33.034 43.682-57.9 90.604-79.696 139.8l-1.363 3.23-3.063-1.29c-10.218-3.88-20.095-8.409-29.971-13.264-1.025-.65-1.705-.977-2.726-1.625-5.109-2.589-9.876-5.18-14.985-8.085l-3.409-2.265c-1.021-.325-1.7-.976-2.383-1.299-1.7-.966-3.067-2.265-4.768-3.231a167.628 167.628 0 0 1-17.369-12.624c-1.363-.974-2.384-1.939-3.748-2.914-8.171-6.795-16.348-13.59-23.499-21.358L0 437.067l.679-1.625c16.348-39.477 35.422-77.988 58.584-114.236-2.384-.965-4.43-2.265-6.134-3.88-.679-.648-1.021-1.291-1.7-1.939v-.325h-.342c-1.021-2.266-1.7-4.53-2.042-6.795l-1.026-.324v-1.615a22.722 22.722 0 0 1-9.876-5.505c-.68-.649-1.358-1.615-2.042-2.59h-.341v-.324c-4.426-8.085-3.067-18.119 3.747-24.588.342-.326.679-.65 1.363-.977 0-1.299.684-2.913 1.025-4.204.336-5.182 2.72-10.356 6.809-13.921.342-.32.684-.644 1.021-.965.68-4.209 2.726-8.094 6.13-11.008 8.176-8.085 21.8-7.765 30.313.324.684.65 1.362 1.62 2.041 2.266l.342.325c1.021 2.265 1.7 4.205 2.383 6.474l.684.321.343 1.299c1.016.645 1.699 1.29 2.383 1.939.337.325.679.646 1.016.97l.342.321v.65c1.025 1.62 1.367 3.56 1.367 5.504l1.359.97v.971s.342.325.684.645c18.39-22.978 38.822-44.656 60.284-65.045-6.477-7.77-8.86-17.799-7.834-27.828.679-3.89 1.7-7.77 3.067-11.329-.684-1.62-1.025-2.911-1.709-4.21-1.358 0-2.72-.32-4.083-.645-1.021 2.911-3.067 5.175-5.792 7.119h-.68c-1.021 2.911-3.063 5.175-5.788 7.12-7.152 4.53-17.028 2.589-21.8-4.209-.679-.646-1.021-1.291-1.363-2.266l-.342-.32c-.337-.969-.337-1.944-.679-3.234v.319l-1.362.326a45.055 45.055 0 0 1-5.789 5.5h-.342c-1.363.649-2.384 1.294-3.746 1.62-12.602 4.21-26.567-2.265-30.992-14.564-1.705-4.529-1.705-9.705-.342-14.239 0-.645-.338-.969-.338-1.62-3.751-10.029 0-21.358 9.193-27.503l.341-.326h.343c1.016-.649 2.383-1.295 3.741-1.614 4.088-1.299 8.518-1.625 12.944-.975l1.025-1.616 1.359.32c1.362-2.265 3.409-4.208 5.792-6.149h.679c.679-.646 1.705-.97 2.726-1.291 6.13-1.944 12.602-1.299 18.048 1.616 2.384-1.94 5.452-2.915 8.86-3.235 4.425 0 8.51 1.295 11.918 3.56 2.042-.975 4.083-1.62 6.467-1.94 1.367 0 2.726 0 4.093.321 1.358-.645 3.4-.971 5.109-1.295 3.063 0 6.467.65 9.192 2.59 2.042-2.59 4.768-4.205 7.493-5.825 2.726-5.174 6.13-9.708 10.219-13.594 6.467-5.82 14.302-10.029 22.82-11.974a49.822 49.822 0 0 1 14.988-16.178l.333-.322c-8.169-1.621-14.3-8.74-14.3-16.829 0-3.882 1.363-7.442 3.404-10.356v-.971c0-8.089 5.789-15.208 13.621-17.151l.343-.325H233.642c3.066 0 6.125.648 8.85 1.942l1.025-.969 1.025.647c1.701-1.295 3.401-2.267 5.442-2.589l.342-.322h2.726c4.426 0 8.86 1.94 11.919 4.852 2.384-.322 4.768-.647 6.817 0 3.059.973 5.784 2.59 7.492 5.179 1.7-.324 3.401-.324 4.769 0 1.016.323 2.041.648 2.725 1.293 1.359-.323 2.727 0 3.742.324 2.384.323 4.426 1.618 5.793 3.235 2.727-1.293 5.793-1.94 8.851-1.94 1.025 0 2.043 0 3.068.322h.684c5.451 1.618 9.876 5.179 12.261 10.356.341.323 1.016.647 1.699 1.295 4.094-3.56 8.859-6.473 13.969-8.415 7.494-3.56 16.002-5.502 24.521-5.502 9.876 0 19.41 2.589 27.587 7.767 6.468 4.208 11.577 9.384 14.985 15.856 2.042-.323 3.742-.323 5.793-.323 11.234 0 22.137 3.882 29.973 11.65 4.083 3.884 7.148 8.415 9.191 13.591 8.518-11.002 27.588-8.412 35.081 3.563 2.042 3.56 3.066 8.09 2.726 12.294.341.325.341.975.684 1.299 2.384 4.206 3.398 8.735 2.715 13.59l.343.326v.324c7.493.645 14.644 4.53 18.396 11 6.465 10.679 2.724 24.597-8.52 30.742-4.768 2.266-9.877 3.239-14.985 2.59-.675 1.295-1.358 2.265-2.384 2.915-.342 1.94-1.018 3.88-1.701 5.5.684.97 1.026 2.265 1.359 3.234 1.71 5.505 2.383 11.649 1.71 17.479-1.368 11-7.152 21.358-15.329 29.124l.342.644-.342.65c0 .324.342.97.342 1.615.343.65.343 1.299.674 1.944v.645c-.331 6.474-5.099 11.974-11.575 13.594-1.701.645-3.742.645-5.793.326-1.359.969-2.727 1.294-4.084 1.939-2.385.646-5.109.646-7.493 0-2.383 3.56-6.467 6.476-10.901 7.765-3.742.975-7.151.649-10.551-.32-4.435 4.855-10.902 7.765-18.054 7.765-1.024 0-2.042 0-3.41-.325h-.684c-3.057-.965-5.781-2.585-8.508-4.53l-1.025.975-1.7-1.62c-4.084 2.59-8.86 3.56-13.959 3.56-1.368 0-3.069 0-4.437-.324h-.673c-8.178-2.266-14.986-8.411-18.053-15.854-30.655 21.359-60.627 44.012-88.215 68.603 2.042-.965 4.084-1.939 6.468-2.589h.341v-.325c1.71 0 3.068-.315 4.769-.315 15.669 0 28.27 12.289 28.27 27.178 0 5.824-1.698 11.644-5.449 16.174zM429.14 90.795c-3.408-2.589-7.834-4.205-12.602-4.205-10.902 0-19.411 8.411-19.411 18.769 0 5.18 2.041 10.034 5.783 13.264-2.726 3.239-4.084 7.12-4.084 11.33 0 10.354 8.852 18.773 19.754 18.773 6.809 0 12.942-3.565 16.345-8.744 2.724 2.915 6.816 4.534 11.241 4.534 2.043 0 4.084-.324 5.794-.969 6.126 5.179 15.328 6.145 22.82 1.94 3.742-1.94 6.81-5.179 8.168-9.06 5.107 1.29 10.56.97 15.327-1.62 9.202-5.175 12.602-16.829 7.151-25.568-3.742-6.145-10.551-9.384-17.371-9.384-.341-.646-.673-1.291-1.016-1.941-.341-.649-.684-.97-1.024-1.294 1.024-4.21.341-8.739-2.042-12.619-.342-.975-1.025-1.62-1.367-2.266.684-3.884 0-7.769-2.384-11.649-4.769-8.094-15.66-10.681-24.521-6.152-.684.648-1.7.97-2.384 1.618-1.701 1.944-3.068 3.884-4.084 6.475h-1.025c0 .324-.342.969-.342 1.29-1.358 0-2.725.65-4.083 1.299-.343 0-.685.325-.685.325-1.699 1.616-2.383 3.881-2.383 5.82-.684.325-1.016.325-1.701.65v.971c-1.7.324-3.067.645-4.425 1.62-.684.324-1.367.645-2.051 1.29-1.698 1.619-2.715 3.564-3.398 5.503zM240.11 296.293c.683 0 1.367.325 2.042.325 1.708-2.266 4.093-4.215 7.16-5.181.332 0 1.015-.324 1.359-.324 2.04 0 3.75.65 5.449 1.29.684-.315 1.016-.64 1.7-1.29.343.324.684.324 1.367.65a24.81 24.81 0 0 1 9.193-4.855c1.359-.325 2.727-.325 4.085-.325 13.626 0 24.528 10.359 24.528 23.299 0 5.83-2.383 11.008-5.793 15.214v3.23c0 11.009-7.834 20.393-18.395 23.308-1.356.316-2.725.316-4.426.316-5.792 0-11.244-1.941-15.67-5.172-.341.642-1.015 1.29-1.699 1.616-.341-.326-.685-.65-1.368-.975-2.383 2.914-6.125 5.179-9.875 6.479-1.017 0-2.042.324-3.401.324-7.492 0-14.308-3.889-17.712-9.709-3.747 1.94-7.835 2.59-11.918 1.616-5.451-1.616-9.198-5.181-10.903-10.035-2.725 1.616-6.125 2.266-9.192 1.299-1.706-.323-3.41-.974-4.768-2.265-1.705.642-4.089.642-6.135 0-1.7-.323-3.404-1.299-4.768-2.272-1.358.974-2.725 1.623-4.426 1.949-.684.323-1.362.323-2.041.323-5.452 0-10.219-2.914-12.944-6.803-2.383 1.299-5.451 1.624-8.518.975-3.742-.975-6.467-3.564-7.493-7.12-2.042 1.29-4.425 1.616-6.81.974-1.021-.323-2.384-.648-3.067-1.622-1.699.323-3.063.323-4.425 0-3.067-.643-5.451-2.915-6.472-5.82-2.72 1.938-6.13 1.938-9.197.323-1.358-.648-2.384-1.622-3.063-2.913-1.362-.326-2.383-.65-3.746-1.3-2.042-.965-3.41-2.906-3.747-5.171-3.405 1.615-7.493 1.615-10.898-.324-2.384-1.3-4.43-3.565-5.109-6.154-4.767.975-10.218-.324-13.964-3.88-.68-.649-1.021-1.3-1.363-1.94-1.363-2.265-2.042-5.18-1.7-7.77-.342-.324-1.025-.324-1.367-.324v-1.615c-3.743-.325-7.493-1.939-10.556-4.854-.678-.975-1.362-1.625-2.046-2.266-3.742-6.794-2.384-15.21 3.409-20.715.679-.645 1.358-.969 2.042-1.615.341-3.884 2.041-7.444 5.108-10.358 6.809-6.47 17.711-6.47 24.52.325l2.047 1.94c1.021 2.265 1.705 4.534 2.042 7.119.342 0 .679 0 1.021.325v1.295c1.363.324 2.384.969 3.409 1.944.343.324.343.645.68.971 1.021 1.614 1.021 3.884.679 5.824.342.325.684.645 1.368.969-.342.326-.342.649-.342.971 1.358.648 2.725 1.298 3.742 2.588.342.325 1.025.975 1.367 1.624.679 1.29 1.357 2.905 1.699 4.205.342.324.684.649 1.363.649 3.404 2.265 5.451 5.82 5.451 9.7.337 0 .679.325 1.021.325.342.324.684.324 1.021.649 2.389-.649 5.109-.325 7.493 1.3.342 0 .679.315 1.021.64 2.384-.324 4.768 0 6.814.975.679 0 1.705.325 2.383.325 2.384.641 4.431 2.266 5.789 3.88.342 0 1.025.324 1.367.324 2.721.65 4.768 2.266 6.126 4.206.342 0 .683 0 1.025.324.342 0 .68 0 1.021.325 2.721-2.59 7.151-3.88 10.897-2.914.684 0 1.025.324 1.705.324 1.363-.648 2.721-1.29 4.088-1.939h2.384c1.7 0 3.063 0 4.767.649 0-.325.342-.649.342-.976.68.326 1.017.326 1.701.326 1.025-1.625 2.725-2.915 4.767-3.564.342-.325.684-.325 1.026-.325 1.016 0 1.7.325 2.383.325 1.358-.325 3.063-.641 4.768-.641 1.7-1.299 3.746-1.949 5.788-2.59.68-.325 1.705-.325 2.726-.325 8.856 0 16.349 6.47 17.37 14.89 3.747-2.915 8.855-4.214 14.307-2.915.678 0 1.361.324 1.699.649 2.045-1.3 4.086-2.274 6.128-2.914 1.368 0 2.392-.325 3.41-.325 2.041 0 4.426.325 6.476.965 0-.316.333-.64.674-.965zM114.776 155.521c-1.021.325-2.383.325-3.746.325-.342.32-.684.965-1.021 1.29h-1.021c-1.705 2.266-3.747 4.53-6.135 6.149-1.016.645-2.042.97-3.063 1.295-10.556 3.56-22.136-1.94-25.883-12.3-1.705-4.529-1.363-9.059.342-13.264-.342-.649-.684-1.62-1.025-2.589-3.405-8.739.342-18.124 7.834-23.303 1.021-.32 2.042-.97 3.409-1.294 4.426-1.616 9.535-1.291 13.961 0 0-.646.342-.971.684-1.616.342 0 1.021.325 1.357.325 1.026-2.915 3.409-5.505 6.135-7.444.679-.325 1.7-.65 2.383-.975 6.13-1.94 12.26-.646 17.027 2.914 2.042-2.265 5.11-3.884 8.856-4.204 4.43-.325 8.855 1.615 11.239 4.854 1.705-1.944 4.089-3.239 7.151-3.239 1.367 0 2.726 0 4.089.65 1.362-.975 3.062-1.621 5.108-1.621 3.063-.324 5.789.971 7.835 2.911l.336-.32c.342.32 1.025.645 1.705.97 2.383-3.56 6.129-6.794 10.897-8.089 1.026-.324 2.384-.645 3.41-.969 9.192-.326 18.052 5.174 21.116 13.913.336.971.678 1.616 1.021 2.59 3.746 2.265 7.15 5.824 8.855 10.354 3.747 10.354-2.046 21.358-12.939 24.593-1.025.65-2.046.65-3.067.975-3.067 0-6.135-.324-8.856-1.62-.342.321-.679.645-1.021.97-.342-.325-1.025-.325-1.362-.649-1.021.975-2.388 1.944-4.088 2.269-.342.32-.684.32-1.021.32-2.725 0-5.109-.965-7.156-2.265-.337.325-1.016.65-1.358.975l-1.025-.975c-1.358 1.299-3.063 1.944-4.768 2.589-1.02.326-1.7.326-2.725.65-2.042 0-3.742-.324-5.789-.65-.337.326-.679.65-1.363.975-4.083 2.585-8.855 2.585-12.944.646-.679.319-1.017.644-1.358.97-.342 0-.684.324-1.025.649-.679 2.59-2.383 5.175-5.109 6.795-.342.326-1.016.645-1.358.645-.684 2.59-2.383 4.854-4.768 6.474-5.451 3.56-12.943 1.94-16.694-3.239-.337-.32-.679-.965-1.017-1.614-.342-1.295-.684-3.239-.342-4.855 0 0-.342 0-.684-.325 0-.325 0-.645.342-.97-.682-.001-1.019-.321-1.361-.646zm283.366 22.974c-.341 0-1.015.325-1.698.649-1.368-2.265-3.752-4.209-6.477-5.18h-1.359c-1.699 0-3.408.325-5.108.971-.342-.32-.684-.646-1.358-.971-.342 0-.684.325-1.367.65-2.384-2.265-5.109-3.885-8.508-4.53-1.026-.325-2.395-.325-3.41-.325-12.603 0-22.82 9.384-22.82 21.358 0 5.179 2.042 10.03 5.451 13.914v2.915c0 10.354 7.15 19.093 17.026 21.683 1.026 0 2.385.32 3.753.32 5.44 0 10.55-1.944 14.643-4.854.343.646.675.97 1.358 1.621.341-.326.684-.65 1.367-.975 2.384 2.589 5.441 4.854 9.192 5.828 1.017 0 1.701.325 2.726.325 7.151 0 13.286-3.564 16.685-9.063 3.069 1.944 7.152 2.59 10.903 1.62 4.768-1.299 8.509-4.855 9.876-9.064 2.385 1.295 5.452 1.944 8.51.97 1.709-.325 3.066-.97 4.092-1.94 2.043.325 3.742.325 5.793 0 5.102-1.294 8.511-5.504 8.511-10.034 0-.645-.344-1.29-.344-1.615-.341-1.295-.673-2.266-1.356-3.24l.342-.319c0-.646-.342-.646-.342-.971 1.016-1.295 1.7-2.59 1.7-4.208v-.971c-.344-.65-.685-1.616-1.358-2.265 0-.325.342-.65.342-.971 0-.324-.342-.324-.342-.645.674-1.624 1.358-3.563 1.358-5.179 0-.649-.344-1.299-.344-1.944-2.04-6.795-9.191-10.679-16.001-9.061-3.41.97-5.792 2.911-7.492 5.176-.684 0-1.367 0-1.711.324-3.398.649-6.466 2.914-8.167 5.504h-1.023c-.685.326-1.359.326-1.701.645-3.409-3.56-8.859-5.174-13.968-3.56-.676 0-1.359.324-2.043.324-1.699-.973-3.409-1.939-5.451-2.589h-3.067c-2.042 0-4.084.325-5.784.65-.345-.324-.687-.649-1.029-.973zM281.324 352.274c-2.383 1.299-4.766 2.266-7.491 3.239h-.343c-1.7.325-3.408.325-5.109.325-5.108 0-10.561-1.299-14.986-3.889l-1.699 1.299-1.368-.65c-2.725 2.265-6.125 3.89-9.534 4.855h-.683c-1.017.324-2.384.324-3.743.324-7.492 0-14.308-3.238-19.075-8.41-3.746.966-7.83 1.291-11.581.317-5.109-1.291-9.193-4.53-11.918-8.736-2.726.976-5.451.976-8.177 0-1.7-.324-3.063-.966-4.425-1.614-2.384.324-4.426 0-6.472-.325-1.363-.649-2.721-.975-3.747-1.616-1.02.317-2.042.967-3.067.967l-.337.324h-3.063c-5.452 0-10.561-1.94-14.307-5.828a17.424 17.424 0 0 1-8.173 0c-3.409-.966-6.476-2.906-8.518-5.82-2.042.324-3.747.324-5.789-.326-1.02 0-2.046-.648-3.067-.974-1.704 0-3.063 0-4.425-.641-3.067-.65-5.451-2.265-7.156-4.529-3.404.64-6.809.323-9.535-1.299-1.362-.65-2.726-1.617-3.404-2.916-1.021-.316-2.388-.64-3.063-.965-1.709-.974-3.409-2.265-4.43-3.89-3.405.649-7.155 0-10.56-1.939-2.384-1.291-4.089-3.23-5.447-5.495-5.451.315-10.56-1.624-14.307-5.18-.679-.65-1.362-1.299-2.046-2.265l-.337-.325c-1.021-2.265-1.705-4.529-2.046-6.795h-1.017v-1.624c-3.75-1.291-6.813-2.905-9.539-5.496-1.021-.974-1.705-1.938-2.384-2.589v-.325l-.342-.325c-.679-1.29-1.363-2.589-1.705-4.204-.338.324-.68.649-1.016.649-5.793 5.82-6.814 14.239-3.068 20.709.342.965 1.021 1.615 1.7 2.265 3.067 2.914 6.813 4.53 10.902 5.18v1.615h1.021c-.342 2.914.337 5.505 1.705 8.094.342.641 1.016 1.29 1.357 1.615 2.384 2.265 5.793 3.88 8.86 4.206-24.866 38.836-44.619 78.638-60.625 117.15 7.15 7.769 15.327 14.563 23.162 21.357 1.359.976 2.384 1.941 3.742 2.915 5.451 4.204 11.245 8.41 17.37 12.3 1.368.965 3.067 1.938 4.768 2.905.684.65 1.368.974 2.045 1.624 6.131 3.556 12.26 6.795 18.391 10.024 1.025.65 1.704.975 2.725 1.625 9.535 4.854 19.411 9.384 29.629 13.264 20.095-45.947 45.298-96.108 82.421-144.004 2.046 2.913 5.451 5.495 9.202 6.469 4.425.975 8.509.65 11.918-1.29 3.746 5.495 10.218 9.384 18.046 9.384h3.067c4.093-1.299 7.493-3.563 10.219-6.478l1.367.974c.333-.649 1.017-.974 1.357-1.615 4.426 3.23 9.877 5.171 16.011 5.171 1.359 0 2.727 0 4.085-.316 9.196-2.589 16.012-9.708 18.054-18.452zm-179.829-84.785l1.021.976v.315h.337c.342 1.3 1.025 2.591 1.367 3.89 3.742 1.938 6.126 5.494 7.152 9.708 2.725-.324 5.45.326 7.834 1.94 2.383 0 4.768.325 6.809 1.291.685 0 1.705 0 2.384.324 2.726.649 5.109 2.265 6.814 4.205h.337c2.725.65 5.109 1.949 6.813 3.89 3.746-2.265 8.171-3.239 12.264-1.94 1.359-.65 2.384-1.299 3.742-1.624h.684c1.021-.325 1.7-.325 2.726-.325 1.021 0 2.042 0 3.063.325l.679-.966 1.367.325c1.701-1.299 3.406-2.265 5.447-2.915l.342-.325h3.747c1.362-.324 2.383-.324 3.746-.324 1.705-1.29 3.747-2.265 5.789-2.59l.342-.324h.342c1.02 0 2.042-.325 3.404-.325 8.856 0 16.691 5.505 19.753 12.948 4.089-1.615 8.515-1.939 12.944-.648h.341c1.701-.967 3.408-1.617 5.45-2.266h.683c1.016-.325 2.383-.325 3.742-.325 1.7 0 3.066 0 4.767.325l.683-.966 2.384.315c1.7-1.939 4.426-3.556 7.152-4.529l.341-.315h2.386c1.024 0 2.04 0 3.066.315 29.63-26.856 61.643-51.125 94.34-73.782-.343-1.94-.684-3.88-.684-6.145v-1.944c-3.4-4.21-5.108-9.385-5.108-14.885 0-13.915 11.926-25.243 26.57-25.243 1.358 0 2.727.32 4.082.32h.343c3.067.974 5.793 2.265 8.519 3.889l1.017-.325 1.709.97c1.359-.325 2.727-.645 4.083-.645.685 0 1.359.32 1.702.32H391.337c2.383.971 4.769 2.589 6.467 4.21l2.042-.326 1.025.971c1.367-.325 2.726-.325 4.084-.325 1.367 0 2.384 0 3.409.325h.684c1.7.645 3.399 1.294 5.109 2.265 0-.321 0-.321.342-.321 5.442-1.299 11.235 0 15.66 2.91 2.384-2.589 5.452-4.533 9.202-5.178 0-.32.343-.32.343-.32 2.383-2.59 5.441-4.21 8.85-5.18 8.859-2.266 18.395 2.915 20.778 11.649.343.65.343 1.616.343 2.589v.326c0 1.616-.343 3.235-.685 4.855l.342.645-.342.97c.342.649.685.974.685 1.619 0 .321.331.646.331.971 5.793-6.795 9.887-14.888 10.903-23.623.684-5.825 0-11.325-1.7-16.18-.342-1.299-1.025-2.914-1.709-4.209.342-.32.342-.645.684-.969-.342.324-1.017.324-1.359.649-8.176 4.529-18.052 3.88-25.546-.975-1.699.326-3.408.65-5.109.65-3.75 0-7.491-.975-10.558-2.915-4.426 4.529-10.562 7.12-17.028 7.12-13.286 0-23.837-10.034-23.837-22.653 0-3.884 1.016-7.766 3.058-11.004-3.058-3.88-4.769-8.735-4.769-13.59 0-12.624 10.562-22.653 23.506-22.653 3.741 0 7.492.971 10.893 2.585.684-.966 1.367-1.94 2.393-2.585v-.324h.333c.684-.646 1.709-1.295 2.384-1.621 1.025-.644 1.709-.97 2.726-1.29l.343-.975 1.366-.645c1.017-4.21 3.398-6.475 7.835-7.765l.673-1.3 1.026-.32c-1.699-5.827-4.768-10.682-9.193-14.889-6.817-6.795-16.353-10.679-27.587-10.679-2.051 0-3.751 0-5.793.325l-1.7.322c-3.409-6.794-8.519-12.619-14.984-16.503-7.161-4.855-16.012-7.442-25.888-7.442-8.177 0-16.013 1.939-23.162 5.177-5.793 2.265-10.902 5.824-15.328 9.708-1.358-1.294-3.067-2.267-4.768-3.56-1.7-4.532-5.45-7.767-10.218-9.062-1.018-.326-1.701-.326-2.727-.326-3.398 0-6.808 1.295-9.534 3.238l-1.016-.971c-1.026-1.942-2.727-3.237-4.777-3.884-1.357-.322-2.717-.322-3.742 0-.684-.648-1.699-.97-2.725-1.295-2.043-.648-4.085-.322-5.793.647-1.016-2.589-3.4-5.177-6.467-5.824-2.727-.647-5.109-.325-7.151.971-2.384-3.56-6.477-5.826-10.902-5.826h-2.042c-2.383.648-4.426 2.266-6.134 3.885l-.676-.648-1.026.971c-2.724-1.942-6.134-2.913-9.533-2.913h-2.726c-6.471 1.942-11.237 7.442-11.237 14.239 0 .648 0 1.295.337 1.942-2.384 2.588-3.747 5.826-3.747 9.385 0 7.767 6.813 13.917 14.988 13.917h2.385c2.04-.647 4.083-1.62 5.45-2.915l1.017.325 1.025-.97c.684.645 1.7.645 2.725.97l.342.648v.647l.341.323c-5.792 1.295-10.9 3.56-15.668 6.797-6.133 4.208-11.242 10.032-14.646 16.504-8.518 1.614-16.349 5.504-22.821 11.324-3.067 2.915-5.792 6.154-7.834 9.708.684 0 1.705-.325 2.384-.325h.342c11.239-.645 21.794 6.154 25.204 16.183.342.646.684.971.684 1.621 4.083 2.589 7.493 6.794 9.193 11.324 4.427 12.299-2.384 25.564-15.328 29.772-1.359.326-2.384.645-3.747.645h-.337v.325c-3.067 0-5.792-.325-8.518-1.29l-1.021.965-1.363-.645c-1.021.645-2.042 1.295-3.405 1.62-.678.325-1.02.325-1.704.645h-.679c-2.725 0-5.109-.645-7.156-1.62l-1.7.65-1.026-.65c-1.016.65-2.042 1.299-3.399 1.62-1.026.326-2.046.646-3.067.646h-.342c-1.701.325-3.405 0-5.109-.32v.32c-2.042 1.299-4.426 1.944-6.809 2.269.342 1.62 1.021 2.911 1.7 4.205-1.7 3.885-2.725 7.765-3.404 11.974-1.363 10.68 2.046 20.389 8.855 27.508 0 0 0 .324.342.324-22.485 21.037-43.605 43.045-62.674 66.99z"/><path fill="#FEFEFE" d="M429.14 90.795c-3.408-2.589-7.834-4.205-12.602-4.205-10.902 0-19.411 8.411-19.411 18.769 0 5.18 2.041 10.034 5.783 13.264-2.726 3.239-4.084 7.12-4.084 11.33 0 10.354 8.852 18.773 19.754 18.773 6.809 0 12.942-3.565 16.345-8.744 2.724 2.915 6.816 4.534 11.241 4.534 2.043 0 4.084-.324 5.794-.969 6.126 5.179 15.328 6.145 22.82 1.94 3.742-1.94 6.81-5.179 8.168-9.06 5.107 1.29 10.56.97 15.327-1.62 9.202-5.175 12.602-16.829 7.151-25.568-3.742-6.145-10.551-9.384-17.371-9.384-.341-.646-.673-1.291-1.016-1.941-.341-.649-.684-.97-1.024-1.294 1.024-4.21.341-8.739-2.042-12.619-.342-.975-1.025-1.62-1.367-2.266.684-3.884 0-7.769-2.384-11.649-4.769-8.094-15.66-10.681-24.521-6.152-.684.648-1.7.97-2.384 1.618-1.701 1.944-3.068 3.884-4.084 6.475h-1.025c0 .324-.342.969-.342 1.29-1.358 0-2.725.65-4.083 1.299-.343 0-.685.325-.685.325-1.699 1.616-2.383 3.881-2.383 5.82-.684.325-1.016.325-1.701.65v.971c-1.7.324-3.067.645-4.425 1.62-.684.324-1.367.645-2.051 1.29-1.698 1.619-2.715 3.564-3.398 5.503zM240.11 296.293c.683 0 1.367.325 2.042.325 1.708-2.266 4.093-4.215 7.16-5.181.332 0 1.015-.324 1.359-.324 2.04 0 3.75.65 5.449 1.29.684-.315 1.016-.64 1.7-1.29.343.324.684.324 1.367.65a24.81 24.81 0 0 1 9.193-4.855c1.359-.325 2.727-.325 4.085-.325 13.626 0 24.528 10.359 24.528 23.299 0 5.83-2.383 11.008-5.793 15.214v3.23c0 11.009-7.834 20.393-18.395 23.308-1.356.316-2.725.316-4.426.316-5.792 0-11.244-1.941-15.67-5.172-.341.642-1.015 1.29-1.699 1.616-.341-.326-.685-.65-1.368-.975-2.383 2.914-6.125 5.179-9.875 6.479-1.017 0-2.042.324-3.401.324-7.492 0-14.308-3.889-17.712-9.709-3.747 1.94-7.835 2.59-11.918 1.616-5.451-1.616-9.198-5.181-10.903-10.035-2.725 1.616-6.125 2.266-9.192 1.299-1.706-.323-3.41-.974-4.768-2.265-1.705.642-4.089.642-6.135 0-1.7-.323-3.404-1.299-4.768-2.272-1.358.974-2.725 1.623-4.426 1.949-.684.323-1.362.323-2.041.323-5.452 0-10.219-2.914-12.944-6.803-2.383 1.299-5.451 1.624-8.518.975-3.742-.975-6.467-3.564-7.493-7.12-2.042 1.29-4.425 1.616-6.81.974-1.021-.323-2.384-.648-3.067-1.622-1.699.323-3.063.323-4.425 0-3.067-.643-5.451-2.915-6.472-5.82-2.72 1.938-6.13 1.938-9.197.323-1.358-.648-2.384-1.622-3.063-2.913-1.362-.326-2.383-.65-3.746-1.3-2.042-.965-3.41-2.906-3.747-5.171-3.405 1.615-7.493 1.615-10.898-.324-2.384-1.3-4.43-3.565-5.109-6.154-4.767.975-10.218-.324-13.964-3.88-.68-.649-1.021-1.3-1.363-1.94-1.363-2.265-2.042-5.18-1.7-7.77-.342-.324-1.025-.324-1.367-.324v-1.615c-3.743-.325-7.493-1.939-10.556-4.854-.678-.975-1.362-1.625-2.046-2.266-3.742-6.794-2.384-15.21 3.409-20.715.679-.645 1.358-.969 2.042-1.615.341-3.884 2.041-7.444 5.108-10.358 6.809-6.47 17.711-6.47 24.52.325l2.047 1.94c1.021 2.265 1.705 4.534 2.042 7.119.342 0 .679 0 1.021.325v1.295c1.363.324 2.384.969 3.409 1.944.343.324.343.645.68.971 1.021 1.614 1.021 3.884.679 5.824.342.325.684.645 1.368.969-.342.326-.342.649-.342.971 1.358.648 2.725 1.298 3.742 2.588.342.325 1.025.975 1.367 1.624.679 1.29 1.357 2.905 1.699 4.205.342.324.684.649 1.363.649 3.404 2.265 5.451 5.82 5.451 9.7.337 0 .679.325 1.021.325.342.324.684.324 1.021.649 2.389-.649 5.109-.325 7.493 1.3.342 0 .679.315 1.021.64 2.384-.324 4.768 0 6.814.975.679 0 1.705.325 2.383.325 2.384.641 4.431 2.266 5.789 3.88.342 0 1.025.324 1.367.324 2.721.65 4.768 2.266 6.126 4.206.342 0 .683 0 1.025.324.342 0 .68 0 1.021.325 2.721-2.59 7.151-3.88 10.897-2.914.684 0 1.025.324 1.705.324 1.363-.648 2.721-1.29 4.088-1.939h2.384c1.7 0 3.063 0 4.767.649 0-.325.342-.649.342-.976.68.326 1.017.326 1.701.326 1.025-1.625 2.725-2.915 4.767-3.564.342-.325.684-.325 1.026-.325 1.016 0 1.7.325 2.383.325 1.358-.325 3.063-.641 4.768-.641 1.7-1.299 3.746-1.949 5.788-2.59.68-.325 1.705-.325 2.726-.325 8.856 0 16.349 6.47 17.37 14.89 3.747-2.915 8.855-4.214 14.307-2.915.678 0 1.361.324 1.699.649 2.045-1.3 4.086-2.274 6.128-2.914 1.368 0 2.392-.325 3.41-.325 2.041 0 4.426.325 6.476.965 0-.316.333-.64.674-.965zM114.776 155.521c-1.021.325-2.383.325-3.746.325-.342.32-.684.965-1.021 1.29h-1.021c-1.705 2.266-3.747 4.53-6.135 6.149-1.016.645-2.042.97-3.063 1.295-10.556 3.56-22.136-1.94-25.883-12.3-1.705-4.529-1.363-9.059.342-13.264-.342-.649-.684-1.62-1.025-2.589-3.405-8.739.342-18.124 7.834-23.303 1.021-.32 2.042-.97 3.409-1.294 4.426-1.616 9.535-1.291 13.961 0 0-.646.342-.971.684-1.616.342 0 1.021.325 1.357.325 1.026-2.915 3.409-5.505 6.135-7.444.679-.325 1.7-.65 2.383-.975 6.13-1.94 12.26-.646 17.027 2.914 2.042-2.265 5.11-3.884 8.856-4.204 4.43-.325 8.855 1.615 11.239 4.854 1.705-1.944 4.089-3.239 7.151-3.239 1.367 0 2.726 0 4.089.65 1.362-.975 3.062-1.621 5.108-1.621 3.063-.324 5.789.971 7.835 2.911l.336-.32c.342.32 1.025.645 1.705.97 2.383-3.56 6.129-6.794 10.897-8.089 1.026-.324 2.384-.645 3.41-.969 9.192-.326 18.052 5.174 21.116 13.913.336.971.678 1.616 1.021 2.59 3.746 2.265 7.15 5.824 8.855 10.354 3.747 10.354-2.046 21.358-12.939 24.593-1.025.65-2.046.65-3.067.975-3.067 0-6.135-.324-8.856-1.62-.342.321-.679.645-1.021.97-.342-.325-1.025-.325-1.362-.649-1.021.975-2.388 1.944-4.088 2.269-.342.32-.684.32-1.021.32-2.725 0-5.109-.965-7.156-2.265-.337.325-1.016.65-1.358.975l-1.025-.975c-1.358 1.299-3.063 1.944-4.768 2.589-1.02.326-1.7.326-2.725.65-2.042 0-3.742-.324-5.789-.65-.337.326-.679.65-1.363.975-4.083 2.585-8.855 2.585-12.944.646-.679.319-1.017.644-1.358.97-.342 0-.684.324-1.025.649-.679 2.59-2.383 5.175-5.109 6.795-.342.326-1.016.645-1.358.645-.684 2.59-2.383 4.854-4.768 6.474-5.451 3.56-12.943 1.94-16.694-3.239-.337-.32-.679-.965-1.017-1.614-.342-1.295-.684-3.239-.342-4.855 0 0-.342 0-.684-.325 0-.325 0-.645.342-.97-.682-.001-1.019-.321-1.361-.646zm283.366 22.974c-.341 0-1.015.325-1.698.649-1.368-2.265-3.752-4.209-6.477-5.18h-1.359c-1.699 0-3.408.325-5.108.971-.342-.32-.684-.646-1.358-.971-.342 0-.684.325-1.367.65-2.384-2.265-5.109-3.885-8.508-4.53-1.026-.325-2.395-.325-3.41-.325-12.603 0-22.82 9.384-22.82 21.358 0 5.179 2.042 10.03 5.451 13.914v2.915c0 10.354 7.15 19.093 17.026 21.683 1.026 0 2.385.32 3.753.32 5.44 0 10.55-1.944 14.643-4.854.343.646.675.97 1.358 1.621.341-.326.684-.65 1.367-.975 2.384 2.589 5.441 4.854 9.192 5.828 1.017 0 1.701.325 2.726.325 7.151 0 13.286-3.564 16.685-9.063 3.069 1.944 7.152 2.59 10.903 1.62 4.768-1.299 8.509-4.855 9.876-9.064 2.385 1.295 5.452 1.944 8.51.97 1.709-.325 3.066-.97 4.092-1.94 2.043.325 3.742.325 5.793 0 5.102-1.294 8.511-5.504 8.511-10.034 0-.645-.344-1.29-.344-1.615-.341-1.295-.673-2.266-1.356-3.24l.342-.319c0-.646-.342-.646-.342-.971 1.016-1.295 1.7-2.59 1.7-4.208v-.971c-.344-.65-.685-1.616-1.358-2.265 0-.325.342-.65.342-.971 0-.324-.342-.324-.342-.645.674-1.624 1.358-3.563 1.358-5.179 0-.649-.344-1.299-.344-1.944-2.04-6.795-9.191-10.679-16.001-9.061-3.41.97-5.792 2.911-7.492 5.176-.684 0-1.367 0-1.711.324-3.398.649-6.466 2.914-8.167 5.504h-1.023c-.685.326-1.359.326-1.701.645-3.409-3.56-8.859-5.174-13.968-3.56-.676 0-1.359.324-2.043.324-1.699-.973-3.409-1.939-5.451-2.589h-3.067c-2.042 0-4.084.325-5.784.65-.345-.324-.687-.649-1.029-.973z"/></g><metadata><rdf:RDF xmlns:rdf="http://www.w3.org/1999/02/22-rdf-syntax-ns#" xmlns:rdfs="http://www.w3.org/2000/01/rdf-schema#" xmlns:dc="http://purl.org/dc/elements/1.1/"><rdf:Description about="https://iconscout.com/legal#licenses" dc:title="imagine" dc:description="imagine" dc:publisher="Iconscout" dc:date="2017-09-22" dc:format="image/svg+xml" dc:language="en"><dc:creator><rdf:Bag><rdf:li>Graphiqa Stock</rdf:li></rdf:Bag></dc:creator></rdf:Description></rdf:RDF></metadata></svg>