<?xml version="1.0" encoding="UTF-8"?><!DOCTYPE svg PUBLIC "-//W3C//DTD SVG 1.1//EN" "http://www.w3.org/Graphics/SVG/1.1/DTD/svg11.dtd"><svg xmlns="http://www.w3.org/2000/svg" xmlns:xlink="http://www.w3.org/1999/xlink" version="1.1" id="Know_1_" x="0px" y="0px" width="512px" height="512px" viewBox="0 0 512 512" xml:space="preserve"><path id="Background" fill="#20D6A9" d="M256 0c141.383 0 256 114.615 256 255.999S397.383 512 256 512C114.616 512 0 397.383 0 255.999 0 111.95 114.615 0 256 0z"/><g id="Know"><path fill="#396F72" stroke="#4E5A62" stroke-width="3" d="M97.37 238.249h154.77c2.079 0 3.859 1.717 3.859 3.73 0-2.014 1.781-3.73 3.859-3.73h154.773c2.373 0 4.156 1.717 4.156 3.73v188.174c0 2.006-1.783 3.727-4.156 3.727H259.858c-2.078 0-3.859-1.721-3.859-3.727 0 2.006-1.78 3.727-3.859 3.727H97.37c-2.373 0-4.158-1.721-4.158-3.727V241.979c0-2.013 1.785-3.73 4.158-3.73z"/><path fill="#408486" d="M97.37 234.229h154.77c2.079 0 3.859 1.721 3.859 4.02 0-2.299 1.781-4.02 3.859-4.02h154.773c2.373 0 4.156 1.721 4.156 4.02v187.889c0 2.293-1.783 4.016-4.156 4.016H259.858c-2.078 0-3.859-1.723-3.859-4.016 0 2.293-1.78 4.016-3.859 4.016H97.37c-2.373 0-4.158-1.723-4.158-4.016V238.249c0-2.299 1.785-4.02 4.158-4.02z"/><path fill="#D1D1D1" d="M407.497 259.47h-303v156.625h303z"/><path fill="#FEFEFE" d="M104.497 234.229c47.83 0 106.647-14.344 151.802-.572 57.925-12.335 97.729.572 151.198.572v182.154c-61.783-26.68-96.838 0-150.309 0-47.53 0-97.138-15.488-152.691 0V234.229z"/><path fill="#D1D1D1" d="M114.006 248.573c47.825-4.875 87.336-4.875 127.735 0v10.896c-40.996-4.014-86.743-4.299-127.735 0v-10.896zm0 133.102c47.825-4.879 87.336-4.879 127.735 0v10.898c-40.996-4.016-86.743-4.016-127.735 0v-10.898zm0-22.088c47.825-4.881 87.336-4.881 127.735 0v10.896c-40.996-4.016-86.743-4.299-127.735 0v-10.896zm0-22.375c47.825-4.592 87.336-4.592 127.735 0v11.186c-40.996-4.303-86.743-4.303-127.735 0v-11.186zm0-22.088c47.825-4.877 87.336-4.877 127.735 0v10.902c-40.996-4.02-86.743-4.305-127.735 0v-10.902zm0-22.088c47.825-4.875 87.336-4.875 127.735 0v10.902c-40.996-4.02-86.743-4.303-127.735 0v-10.902zm0-22.375c47.825-4.881 87.336-4.881 127.735 0v10.9c-40.996-4.014-86.743-4.303-127.735 0v-10.9z"/><path fill="#D1D1D1" d="M389.972 248.573c-47.826-4.875-87.334-4.875-127.736 0v10.896c40.996-4.014 86.744-4.299 127.736 0v-10.896zm0 133.102c-47.826-4.879-87.334-4.879-127.736 0v10.898c40.996-4.016 86.744-4.016 127.736 0v-10.898zm0-22.088c-47.826-4.881-87.334-4.881-127.736 0v10.896c40.996-4.016 86.744-4.299 127.736 0v-10.896zm0-22.375c-47.826-4.592-87.334-4.592-127.736 0v11.186c40.996-4.303 86.744-4.303 127.736 0v-11.186zm0-22.088c-47.826-4.877-87.334-4.877-127.736 0v10.902c40.996-4.02 86.744-4.305 127.736 0v-10.902zm0-22.088c-47.826-4.875-87.334-4.875-127.736 0v10.902c40.996-4.02 86.744-4.303 127.736 0v-10.902zm0-22.375c-47.826-4.881-87.334-4.881-127.736 0v10.9c40.996-4.014 86.744-4.303 127.736 0v-10.9z"/><path fill="#4E5A62" d="M104.497 231.937c16.045 0 32.975-1.724 50.501-3.156 34.756-3.154 71.002-6.598 101.301 2.297 38.022-8.036 68.321-5.169 99.513-2.297 16.34 1.721 33.271 3.156 51.686 3.156h7.135c1.779 0 3.561.57 4.748 1.721 1.189 1.146 1.785 2.865 1.785 4.592V430.154c0 1.719-.596 3.154-1.785 4.303-1.188 1.148-2.969 1.719-4.748 1.719H259.858c-1.48 0-2.67-.287-3.859-1.146-1.188.859-2.376 1.146-3.859 1.146H97.37c-1.78 0-3.566-.57-4.751-1.719-1.192-1.148-1.785-2.584-1.785-4.303V238.249c0-1.727.593-3.445 1.785-4.592 1.185-1.15 2.971-1.721 4.751-1.721h7.127zm50.799 1.435c-17.526 1.721-34.754 3.439-50.799 3.439H97.37c-.593 0-.891 0-1.188.287-.298.289-.298.576-.298 1.15V430.152c0 .287 0 .57.298.859.298.287.596.576 1.188.576h154.77c.295 0 .593-.289.888-.576.296-.289.596-.572.596-.859h4.755c0 .287.299.57.592.859.297.287.596.576.889.576h154.773c.59 0 .889-.289 1.186-.576.297-.289.297-.572.297-.859V238.249c0-.574 0-.861-.297-1.15-.297-.287-.596-.287-1.186-.287h-7.135c-18.715 0-35.645-1.719-52.281-3.154-30.895-2.869-60.895-5.74-98.324 2.293h-1.189c-29.704-8.889-65.652-5.738-100.408-2.579z"/><path fill="#E6E7E8" d="M241.367 102.009c50.982 0 92.07 30.729 92.07 68.512 0 22.92-14.603 43.069-37.372 55.412l-6.683 23.169-9.159 32.496-9.157-32.496-3.465-12.592c-8.417 1.762-17.076 2.773-26.234 2.773-50.735 0-92.069-30.732-92.069-68.763 0-37.782 41.334-68.511 92.069-68.511z"/><path fill="#FED5A9" d="M71.935 433.965c11.948 12.926 38.969 34.441 48.953 39.197-1.784-12.904-5.302-41.008-1.74-64.813 3.271-21.801 17.233-37.576 22.58-43.316 0 0 12.474-13.191 9.211-28.969-2.677-14.057-5.352-37.006-4.158-50.203 1.481-18.643-13.075-30.117-16.343-2.867-3.562 28.111-17.229 90.646-42.773 50.777v-61.967s-8.021-1.143-12.184 10.33c-4.157 11.186-32.974 25.527-32.676 36.141 0 10.613 10.991 21.516 14.558 48.479 1.486 10.043 13.069 26.68 14.855 41.309 1.184 10.324.906 18.156-.283 25.902z"/><path fill="#4E5A62" d="M123.808 475.248c-1.487-.859-3.372-2.068-4.859-2.928-2.971-9.754-2.271-15.73-2.868-28.928-.596-11.762-.596-24.955 1.487-37.293 1.485-11.184 6.237-20.65 10.692-28.396 4.751-7.455 9.804-12.908 12.479-15.779 0 0 11.584-12.619 8.614-27.25-1.487-7.74-2.974-18.072-3.864-28.109-.592-8.318-.891-16.35-.294-22.375.593-6.883-1.192-12.621-3.569-15.49-.592-.574-1.483-1.146-1.781-1.146-.592 0-.891 0-1.482.287-2.08 1.434-3.864 5.736-4.754 13.77-1.781 14.055-5.939 36.428-13.07 51.059-2.677 5.449-5.646 9.754-9.211 12.334-3.861 2.584-8.316 3.441-13.07.863-3.86-2.012-7.72-6.027-11.878-12.621l-.299-1.146v-59.383c-2.078.572-5.351 2.584-7.429 8.32-2.378 6.023-9.8 12.047-17.229 18.072-7.723 6.311-15.447 12.91-15.447 17.494 0 4.021 2.079 8.607 4.456 14.057 3.566 8.033 8.022 18.363 10.101 34.137.593 4.305 3.268 9.754 6.238 16.064 3.565 8.033 7.723 16.924 8.617 25.24.594 5.168.887 10.33.594 15.207 0 4.592-.594 8.605-.892 12.332l-1.486 2.008c-1.188-1.143-2.378-2.289-3.268-3.439.298-3.443.596-7.17.89-10.9 0-4.592 0-9.754-.592-14.631-.896-7.746-4.755-16.354-8.316-23.805-2.973-6.6-5.942-12.623-6.535-17.502-2.082-14.916-6.535-24.955-9.807-32.701-2.675-6.311-4.755-10.902-5.048-16.066 0-6.881 8.614-14.051 17.526-21.227 6.829-5.445 13.663-11.186 15.443-15.775 5.053-13.193 14.855-11.76 14.855-11.76l2.078.285v63.395c3.566 5.164 6.835 8.607 9.803 10.043 2.677 1.717 5.351 1.148 7.725-.576 2.97-2.008 5.347-5.736 7.724-10.328 6.833-14.057 10.991-35.854 12.773-49.623.893-9.467 3.564-14.629 6.534-16.924 1.785-1.148 3.565-1.721 5.351-1.148 1.781.287 3.264 1.148 4.456 2.867 3.264 3.443 5.343 10.611 4.752 18.648-.594 5.736-.296 13.48.297 21.799.89 9.754 2.374 20.08 3.864 27.537 3.561 16.926-9.808 31.266-9.808 31.266-2.377 2.584-7.127 8.035-11.584 15.207-4.456 7.17-8.911 16.064-10.398 26.678-1.78 11.762-2.079 24.666-1.481 36.428.591 11.475 1.78 21.801 2.674 28.4l.296 3.452z"/><path fill="#FED5A9" d="M437.389 436.539c-10.621 11.441-31.102 29.029-48.926 39.355 1.783-12.904 4.752-42.17 1.186-65.975-3.268-21.801-17.229-37.576-22.574-43.316 0 0-12.473-13.191-9.209-28.969 2.674-14.057 5.35-37.006 4.16-50.203-1.486-18.643 13.07-30.117 16.338-2.867 3.563 28.111 17.229 90.646 42.777 50.777v-61.967s8.018-1.143 12.176 10.33c4.164 11.186 32.975 25.527 32.682 36.141 0 10.613-10.992 21.516-14.557 48.479-1.488 10.043-13.072 26.68-14.857 41.309-1.185 10.324-.384 19.158.804 26.906z"/><path fill="#4E5A62" d="M387.083 475.503c1.486-.859 2.971-1.723 4.457-2.582 2.969-9.754 2.672-15.201 3.268-28.398.592-11.762.592-24.955-1.486-37.293-1.482-11.186-6.238-20.652-10.693-28.398-4.754-7.453-9.803-12.906-12.48-15.777 0 0-11.584-12.621-8.613-27.25 1.488-7.742 2.975-18.072 3.867-28.109.592-8.318.887-16.352.295-22.377-.596-6.881 1.186-12.619 3.563-15.488.596-.574 1.486-1.148 1.785-1.148.59 0 .889 0 1.484.287 2.076 1.434 3.861 5.736 4.754 13.771 1.777 14.053 5.938 36.428 13.068 51.057 2.676 5.451 5.646 9.756 9.211 12.336 3.861 2.582 8.318 3.439 13.07.863 3.859-2.014 7.721-6.029 11.881-12.623l.295-1.145v-59.383c2.08.572 5.352 2.584 7.432 8.318 2.371 6.023 9.801 12.049 17.229 18.072 7.721 6.313 15.445 12.91 15.445 17.496 0 4.02-2.078 8.607-4.457 14.057-3.564 8.031-8.02 18.361-10.102 34.137-.59 4.305-3.266 9.752-6.234 16.063-3.568 8.033-7.725 16.926-8.615 25.242-.596 5.168-.895 10.33-.596 15.207 0 4.59.596 8.604.891 12.33l1.486 2.01c1.188-1.145 2.377-2.291 3.266-3.439-.297-3.443-.592-7.17-.889-10.9 0-4.594 0-9.756.592-14.631.891-7.746 4.754-16.354 8.32-23.807 2.971-6.6 5.939-12.621 6.535-17.5 2.078-14.918 6.535-24.957 9.803-32.703 2.672-6.311 4.752-10.9 5.049-16.064 0-6.881-8.613-14.053-17.525-21.229-6.836-5.445-13.662-11.186-15.449-15.775-5.047-13.191-14.852-11.76-14.852-11.76l-2.078.287v63.393c-3.566 5.164-6.832 8.607-9.803 10.043-2.674 1.719-5.346 1.148-7.721-.576-2.973-2.008-5.35-5.734-7.727-10.326-6.832-14.057-10.992-35.855-12.771-49.625-.895-9.465-3.566-14.627-6.535-16.924-1.787-1.148-3.568-1.721-5.354-1.148-1.779.289-3.266 1.148-4.451 2.867-3.268 3.443-5.352 10.613-4.754 18.65.592 5.734.299 13.479-.297 21.797-.893 9.756-2.379 20.08-3.859 27.539-3.568 16.924 9.801 31.266 9.801 31.266 2.379 2.582 7.127 8.035 11.584 15.205s8.912 16.064 10.398 26.678c1.781 11.762 2.078 24.668 1.484 36.43-.594 11.475-1.781 21.799-2.672 28.398l-.3 2.579z"/><path fill="#4E5A62" d="M241.367 99.742c25.989 0 49.504 7.808 66.329 20.653 17.324 12.847 27.967 30.479 27.967 50.125 0 11.584-3.714 22.668-10.392 32.236-6.437 9.825-16.093 18.136-27.473 24.686l-6.435 22.165-9.161 32.492c-.247 1.008-1.48 1.762-2.472 1.514-.742-.254-1.238-1.012-1.487-1.514l-9.159-32.492-2.969-10.577c-3.71.755-7.424 1.257-11.385 1.763-4.206.502-8.66.756-13.364.756-25.741 0-49.251-7.811-66.328-20.656-17.077-12.843-27.719-30.475-27.719-50.372 0-19.646 10.642-37.278 27.719-50.125 17.078-12.846 40.588-20.654 66.329-20.654zm63.854 23.928c-16.086-12.09-38.858-19.646-63.854-19.646s-47.521 7.556-63.854 19.646c-16.088 12.091-25.989 28.714-25.989 46.851 0 18.387 9.901 35.011 25.989 47.098 16.333 12.093 38.858 19.65 63.854 19.65 4.456 0 8.91-.253 13.12-.759 4.205-.502 8.411-1.005 12.62-2.017.988-.252 1.978.506 2.475 1.515l3.465 12.343 7.177 25.69 7.177-25.442v-.248l6.683-22.923c0-.503.494-1.006.991-1.258 11.14-6.3 20.539-14.357 26.976-23.679 5.944-9.067 9.408-19.142 9.408-29.971-.001-18.136-9.901-34.759-26.238-46.85z"/><path fill="#FFCC29" d="M241.367 31.736c31.188 0 56.68 30.225 56.68 57.428 0 27.202-12.377 42.566-30.69 52.138l-49.749.253c-19.305-9.068-32.669-28.967-32.669-52.139-.27-34.402 25.015-57.68 56.428-57.68zm25.989 109.566v0zm-49.5 28.46V142.31v-.755 28.207z"/><path fill="#BDBFC1" d="M267.356 141.302v32.744c0 6.799-4.458 12.087-10.15 12.087l-28.957.253c-5.693 0-10.145-5.541-10.393-12.087V142.31v-.755h-.249l49.749-.253z"/><path fill="#A9ABAE" d="M217.836 147.212l50.276-.134c1.794-.003 3.25 1.456 3.253 3.266.003 1.804-1.444 3.272-3.235 3.28l-50.277.131c-1.792.006-3.249-1.456-3.254-3.261-.006-1.81 1.444-3.279 3.237-3.282z"/><path fill="#A9ABAE" d="M217.869 159.938l50.273-.133c1.791-.005 3.251 1.458 3.256 3.262.003 1.807-1.443 3.276-3.235 3.28l-50.28.133a3.251 3.251 0 0 1-3.249-3.262c-.008-1.808 1.443-3.275 3.235-3.28z"/><path fill="#A9ABAE" d="M217.896 171.866l50.278-.13c1.788-.006 3.249 1.456 3.251 3.26.005 1.811-1.442 3.279-3.235 3.283l-50.273.133c-1.793.004-3.25-1.455-3.256-3.267-.004-1.802 1.443-3.271 3.235-3.279z"/><path fill="#FFF212" d="M227.507 85.134h32.425v56.421h-4.457V89.667h-25.742v51.888h-4.452V85.134z"/><path fill="#4E5A62" d="M301.509 89.164c0-15.365-7.426-30.477-17.573-41.308-11.138-12.091-26.234-19.647-42.568-19.647-33.146 0-60.162 24.788-59.893 61.207 0 23.172 12.869 44.077 32.917 54.403v.758c-1.98 1.257-3.219 3.525-3.219 6.044 0 2.266 1.238 4.534 3.219 5.794v1.009c-1.98 1.004-3.219 3.271-3.219 5.794 0 2.514 1.238 4.781 3.219 5.79v.252c-1.98 1.261-3.219 3.276-3.219 5.791 0 3.276 2.226 6.047 4.951 6.806 2.226 4.529 6.681 8.055 12.125 8.055h28.957c5.2 0 9.654-3.525 11.879-8.055 3.221-.507 5.943-3.529 5.943-6.806 0-2.515-1.484-4.782-3.467-6.043 1.982-1.261 3.467-3.276 3.467-6.044-.249-2.774-1.732-5.039-4.206-6.046v-.254c2.474-1.003 3.957-3.525 3.957-6.293 0-2.773-1.483-5.291-3.957-6.299v-.506c20.789-11.585 30.687-29.717 30.687-54.402zm-33.413 57.932c1.734 0 3.218 1.51 3.218 3.275 0 1.764-1.483 3.273-3.218 3.273h-.739v6.043h.739c1.734 0 3.218 1.514 3.218 3.276 0 2.017-1.238 3.272-3.218 3.272h-.739v5.542h.739c1.979 0 3.218 1.51 3.218 3.272 0 1.767-1.238 3.276-2.969 3.276h-1.484c-1.484 4.533-5.445 7.806-9.654 7.806l-28.957.253c-4.454 0-8.164-3.272-9.65-8.059h-.742c-1.732 0-3.216-1.262-3.216-3.276 0-1.763 1.483-3.272 3.216-3.272v-5.29c-1.732 0-3.216-1.508-3.216-3.271s1.483-3.276 3.216-3.276v-6.297c-1.732 0-3.216-1.261-3.216-3.273 0-1.766 1.483-3.275 3.216-3.275v-4.786-.755h-.249c-19.305-9.068-32.669-28.967-32.669-52.139-.27-34.402 25.016-57.68 56.429-57.68 31.188 0 56.68 30.225 56.68 57.428 0 27.202-12.377 42.566-30.69 52.138v5.794h.737z"/></g><metadata><rdf:RDF xmlns:rdf="http://www.w3.org/1999/02/22-rdf-syntax-ns#" xmlns:rdfs="http://www.w3.org/2000/01/rdf-schema#" xmlns:dc="http://purl.org/dc/elements/1.1/"><rdf:Description about="https://iconscout.com/legal#licenses" dc:title="know" dc:description="know" dc:publisher="Iconscout" dc:date="2017-09-22" dc:format="image/svg+xml" dc:language="en"><dc:creator><rdf:Bag><rdf:li>Graphiqa Stock</rdf:li></rdf:Bag></dc:creator></rdf:Description></rdf:RDF></metadata></svg>