<?xml version="1.0" encoding="UTF-8"?><!DOCTYPE svg PUBLIC "-//W3C//DTD SVG 1.1//EN" "http://www.w3.org/Graphics/SVG/1.1/DTD/svg11.dtd"><svg xmlns="http://www.w3.org/2000/svg" xmlns:xlink="http://www.w3.org/1999/xlink" version="1.1" id="Logo_Design" x="0px" y="0px" width="512px" height="512px" viewBox="0 0 512 512" xml:space="preserve"><path id="Background" fill="#00BCD5" d="M256 0c141.355 0 256 114.645 256 256S397.355 512 256 512 0 397.355 0 256 114.645 0 256 0z"/><g id="Logo_Design_1_"><path fill="#757575" d="M369.143 352.938v2.101c0 20.409-51.018 36.916-114.042 36.916-63.025 0-114.046-16.507-114.046-36.916 0-.9 0-1.498.301-2.101-.301-.599-.301-1.201-.301-1.8 0-20.707 51.021-37.213 114.046-37.213 63.024 0 114.042 16.506 114.042 37.213v1.8z"/><path fill="#696969" d="M369.143 352.938v2.101c0 20.409-51.018 36.916-114.042 36.916h-8.105v-78.029h8.105c63.024 0 114.042 16.506 114.042 37.213v1.799z"/><path fill="#757575" d="M246.996 313.925h8.105c60.925 0 110.443 15.603 113.744 35.113-3.301 19.506-52.819 35.112-113.744 35.112h-8.105v-70.225z"/><path fill="#8D8D8D" d="M255.101 309.72c62.984 0 114.042 16.661 114.042 37.218 0 20.552-51.058 37.213-114.042 37.213s-114.046-16.661-114.046-37.213c-.001-20.557 51.061-37.218 114.046-37.218z"/><path fill="#7F7F7F" d="M255.101 309.72c63.024 0 114.042 16.808 114.042 37.218 0 20.707-51.018 37.213-114.042 37.213h-8.105v-74.13c2.703-.301 5.401-.301 8.105-.301z"/><path fill="#CCC" d="M213.682 238.594h82.833v99.038h-82.833z"/><path fill="#B8B8B8" d="M296.515 291.716v45.916h-49.519v-45.916z"/><path fill="#B8B8B8" d="M219.983 244.896h72.03v86.434h-72.03z"/><path fill="#A6A6A6" d="M292.013 291.716v39.614h-45.017v-39.614z"/><path fill="#A9ABAE" d="M48.318 6.603h415.364c3.9 0 7.503 3.603 7.503 7.502v270.104c0 4.205-3.603 7.507-7.503 7.507H48.318c-3.899 0-7.502-3.302-7.502-7.507V14.104c0-3.899 3.602-7.501 7.502-7.501z"/><path fill="#699" d="M64.824 17.707h389.251c3.302 0 6.004 2.701 6.004 6.002v244.897c0 3.302-2.702 5.699-6.004 5.699H57.925c-3.306 0-6.004-2.397-6.004-5.699V30.611c-.001-6.902 5.703-12.904 12.903-12.904z"/><path fill="#CCC" d="M256 275.808a6.005 6.005 0 0 1 6.004 6.004c0 3.313-2.69 6-6.004 6s-6-2.687-6-6a6.001 6.001 0 0 1 6-6.004z"/><circle fill="#B3B3B3" cx="256" cy="281.81" r="4.203"/><path fill="#366" d="M76.527 25.81h365.544a5.378 5.378 0 0 1 5.401 5.402v229.889a5.374 5.374 0 0 1-5.401 5.401H69.925a5.376 5.376 0 0 1-5.397-5.401V37.814c-.001-6.603 5.397-12.004 11.999-12.004z"/><path fill="#E6E6E6" d="M101.138 54.322h244.598V254.5H101.138z"/><path fill="#6FC" d="M70.527 54.322H91.45v200.147H70.527z"/><path fill="#E6E6E6" d="M352.938 55.822h50.72v198.376h-50.72z"/><path fill="#E6E6E6" d="M415.063 54.322h20.923v200.147h-20.923z"/><path fill="#CCC" d="M356.841 60.023h43.816v56.124h-43.816z"/><path fill="#CCC" d="M356.841 122.749h43.816v32.412h-43.816z"/><path fill="#CCC" d="M356.841 163.565h43.747v20.477h-43.747z"/><path fill="#CCC" d="M356.841 190.875h43.816v56.722h-43.816z"/><path fill="#3C9" d="M417.465 60.023h6.603v6.603h-6.603v-6.603zm9.602 182.171h6.603v6.902h-6.603v-6.902zm-9.602 0h6.603v6.902h-6.603v-6.902zm9.602-8.702h6.603v6.902h-6.603v-6.902zm-9.602 0h6.603v6.902h-6.603v-6.902zm9.602-8.703h6.603v6.902h-6.603v-6.902zm-9.602 0h6.603v6.902h-6.603v-6.902zm9.602-8.706h6.603v6.904h-6.603v-6.904zm-9.602 0h6.603v6.904h-6.603v-6.904zm9.602-8.401h6.603v6.603h-6.603v-6.603zm-9.602 0h6.603v6.603h-6.603v-6.603zm9.602-8.705h6.603v6.603h-6.603v-6.603zm-9.602 0h6.603v6.603h-6.603v-6.603zm9.602-8.703h6.603v6.603h-6.603v-6.603zm-9.602 0h6.603v6.603h-6.603v-6.603zm9.602-8.703h6.603v6.603h-6.603v-6.603zm-9.602 0h6.603v6.603h-6.603v-6.603zm9.602-8.703h6.603v6.603h-6.603v-6.603zm-9.602 0h6.603v6.603h-6.603v-6.603zm9.602-8.705h6.603v6.603h-6.603v-6.603zm-9.602 0h6.603v6.603h-6.603v-6.603zm9.602-8.703h6.603v6.603h-6.603v-6.603zm-9.602 0h6.603v6.603h-6.603v-6.603zm9.602-8.703h6.603v6.603h-6.603v-6.603zm-9.602 0h6.603v6.603h-6.603v-6.603zm9.602-8.703h6.603v6.603h-6.603v-6.603zm-9.602 0h6.603v6.603h-6.603v-6.603zm9.602-8.702h6.603v6.603h-6.603v-6.603zm-9.602 0h6.603v6.603h-6.603v-6.603zm9.602-8.706h6.603v6.603h-6.603v-6.603zm-9.602 0h6.603v6.603h-6.603v-6.603zm9.602-8.703h6.603v6.603h-6.603v-6.603zm-9.602 0h6.603v6.603h-6.603v-6.603zm9.602-8.702h6.603v6.901h-6.603v-6.901zm-9.602 0h6.603v6.901h-6.603v-6.901zm9.602-8.703h6.603v6.902h-6.603v-6.902zm-9.602 0h6.603v6.902h-6.603v-6.902zm9.602-8.705h6.603v6.904h-6.603v-6.904zm-9.602 0h6.603v6.904h-6.603v-6.904zm9.602-8.703h6.603v6.903h-6.603V77.13zm-9.602 0h6.603v6.903h-6.603V77.13zm9.602-8.703h6.603v6.902h-6.603v-6.902zm-9.602 0h6.603v6.902h-6.603v-6.902zm9.602-8.404h6.603v6.603h-6.603v-6.603z"/><path fill="#999" d="M82.234 30.312h347.584v16.529H82.234z"/><circle fill="#B3B3B3" cx="93.636" cy="38.414" r="4.502"/><path fill="#B3B3B3" d="M115.247 33.912a4.505 4.505 0 0 1 4.502 4.502 4.501 4.501 0 1 1-4.502-4.502z"/><path fill="#B3B3B3" d="M136.552 33.912a4.502 4.502 0 1 1-.001 9.005 4.502 4.502 0 0 1 .001-9.005z"/><path fill="#B3B3B3" d="M158.159 33.912a4.5 4.5 0 0 1 4.502 4.502 4.5 4.5 0 0 1-9 0 4.502 4.502 0 0 1 4.498-4.502z"/><path fill="#B3B3B3" d="M179.473 33.912a4.505 4.505 0 0 1 4.502 4.502 4.504 4.504 0 0 1-4.502 4.502 4.499 4.499 0 0 1-4.502-4.502 4.5 4.5 0 0 1 4.502-4.502z"/><circle fill="#B3B3B3" cx="200.778" cy="38.414" r="4.502"/><path fill="#B3B3B3" d="M222.385 33.912a4.502 4.502 0 1 1-.001 9.005 4.502 4.502 0 0 1 .001-9.005z"/><circle fill="#B3B3B3" cx="243.694" cy="38.414" r="4.502"/><circle fill="#B3B3B3" cx="265.004" cy="38.414" r="4.502"/><circle fill="#B3B3B3" cx="286.611" cy="38.414" r="4.502"/><circle fill="#B3B3B3" cx="307.921" cy="38.414" r="4.502"/><path fill="#B3B3B3" d="M329.23 33.912a4.506 4.506 0 0 1 4.502 4.502 4.502 4.502 0 1 1-4.502-4.502z"/><circle fill="#B3B3B3" cx="350.837" cy="38.414" r="4.502"/><circle fill="#B3B3B3" cx="372.146" cy="38.414" r="4.502"/><circle fill="#B3B3B3" cx="393.753" cy="38.414" r="4.502"/><circle fill="#B3B3B3" cx="415.063" cy="38.414" r="4.502"/><g><path fill="#3C9" d="M223.59 95.736l25.506 14.707 25.21 14.705v58.823l-25.21 14.707-25.506 14.705-25.214-14.705-25.506-14.707v-58.823l25.506-14.705z"/><path fill="#2EB88A" d="M223.59 95.736l25.506 14.707 25.21 14.705v26.411H172.87v-26.411l25.506-14.705z"/><path fill="#C30" d="M168.368 180.37h6.777v6.816h-6.777z"/><path fill="#C30" d="M171.666 182.171h100.242v3.302H171.666z"/><path fill="#C30" d="M270.406 180.37h6.781v6.816h-6.781z"/><path fill="#CCC" d="M173.167 181.27l6.904 6.004-3.301 16.806h-10.205l-3.301-16.806 6.903-6.004v14.707h3z"/><path fill="#B3B3B3" d="M166.268 204.08h10.926c1.16 0 2.1 1.878 2.1 4.197 0 2.318-.94 4.197-2.1 4.197h-10.926c-1.164 0-2.104-1.878-2.104-4.197-.001-2.319.94-4.197 2.104-4.197z"/><path fill="#4D4D4D" d="M170.167 180.37h2.947v15.703h-2.947z"/><circle fill="#4D4D4D" cx="171.666" cy="195.976" r="3.001"/><path fill="#CCC" d="M223.289 69.326h-1.502c-.899.301-1.803-.6-1.803-1.5 0-.899.904-1.5 1.803-1.5h4.502c.9 0 1.803.9 1.803 1.799-.301.601-.903 1.502-1.803 1.502h-.899l-.603-.301h-1.498zm-11.105-2.399c.899 0 1.498.601 1.799 1.5 0 .899-.603 1.5-1.498 1.801h-1.503l-.599.299H209.479c-.899.301-1.799-.299-1.799-1.201-.301-.899.301-1.799 1.197-1.799h.301l.602-.301H211.58l.604-.299zm-12.606 2.7c.899-.301 1.803.299 1.803.9.297.899 0 1.801-.904 2.1h-.301l-.598.301h-.599l-.301.299h-.603l-.598.301c-.9.299-1.803-.301-2.101-1.201-.301-.601.297-1.5 1.201-1.801l.603-.299h.599l.297-.301h.603l.603-.299h.296zm-12.005 4.202c.603-.299 1.799 0 2.101.901.301.9 0 1.799-.9 2.101h-.301l-.598.299-.301.301-.603.299h-.297l-.599.301c-.904.601-1.803 0-2.101-.6-.301-.902 0-1.801.595-2.103l.602-.299.603-.299.301-.301h.599l.297-.299.602-.301zm-11.406 6.303c.904-.601 1.799-.301 2.401.299.301.901 0 1.801-.602 2.1l-.297.301-.598.299-.301.301-.301.299-.603.301-.297.299h-.301c-.598.601-1.502.301-2.1-.299-.599-.901-.297-1.801.301-2.401h.297l.301-.299.603-.301.301-.299.598-.301.297-.299h.301zm-10.201 7.502c.599-.6 1.799-.6 2.101.301.598.601.598 1.5 0 2.101l-.301.299-.301.301-.301.299-.598.301-.297.299-.301.301-.301.299c-.602.601-1.502.601-2.1 0-.603-.899-.603-1.801 0-2.401h.301l.297-.601.301-.299.599-.299.301-.301.301-.299.299-.301zm-9.004 9.004c.598-.601 1.498-.601 2.1 0 .603.6.9 1.5.301 2.1l-.602.601-.301.299-.301.301-.297.6-.301.299-.297.301c-.603.601-1.502.899-2.101.299-.603-.601-.904-1.5-.301-2.402l.301-.299.297-.299.301-.301.297-.601.603-.299.301-.301v-.298zm-7.803 10.504c.598-.901 1.502-1.201 2.397-.6.603.299.904 1.5.301 2.1l-.301.601-.297.299v.6l-.301.301-.297.299-.301.601c-.603.6-1.502.901-2.101.6-.904-.6-1.205-1.5-.603-2.1l.301-.601.301-.301.301-.598.297-.601v-.301l.303-.299zm-6.004 11.105c.301-.902 1.201-1.201 2.101-.902.904.601 1.205 1.502.904 2.103l-.301.598-.301.301v.601l-.301.6-.301.299v.601c-.297.899-1.498 1.201-2.101.899-.896-.299-1.197-1.199-.896-2.1l.297-.601v-.299l.301-.6.297-.601v-.299l.301-.6zm-4.502 12.004c.301-.601 1.201-1.201 2.101-.899.903.299 1.205.899 1.205 1.799h-.301v1.202l-.301.301v.598l-.301.601v.301c-.301.899-1.201 1.5-1.799 1.201-.904-.301-1.502-.901-1.201-1.801v-.601l.297-.299v-1.202l.301-.6v-.601h-.001zm-2.402 12.604c0-.899.904-1.5 1.803-1.201.9 0 1.502.902 1.201 1.801v1.2l-.301.601V146.455c0 .902-.9 1.502-1.799 1.502-.603-.301-1.502-.901-1.201-1.801v-2.402l.297-.299v-.6zm-.896 12.907c0-.902.896-1.502 1.498-1.502.899 0 1.799.601 1.799 1.502v3.001c0 .901-.599 1.801-1.498 1.801-.904 0-1.502-.601-1.502-1.5v-1.201l-.297-.6v-1.501zm1.197 12.903c0-.899.301-1.799 1.201-1.799.9-.301 1.804.299 1.804 1.199l.297.6V169.567l.301.601v.899c.297.899-.301 1.801-1.201 1.801-.9.299-1.799-.301-1.799-1.201v-.301l-.301-.601V169.566l-.301-.601v-.3zm3.005 12.306c-.301-.601 0-1.5.896-1.801.903-.299 1.803 0 2.104.902v.299l.297.601v.299l.301.6v.601l.301.301v.299c.301.899 0 1.801-.899 2.1-.9.301-1.803-.299-2.104-.899v-.301l-.297-.598v-.601l-.301-.301v-.601l-.297-.6v-.3zm4.502 12.004c-.301-.601 0-1.799.896-2.101.603-.299 1.803 0 2.101.899l.301.601.301.601.301.301v.6l.301.299.301.301c.297.598 0 1.5-.904 2.1-.602.299-1.498 0-2.1-.6v-.301l-.301-.601-.301-.299v-.601l-.297-.299-.301-.6-.298-.3zm6.602 11.105c-.603-.601-.301-1.5.297-2.101.9-.6 1.803-.301 2.104.299l.297.301.301.299.297.6.301.301.301.601.301.299v.299c.599.601.599 1.502-.301 2.103-.603.601-1.498.299-2.1-.301l-.301-.299-.301-.301-.301-.6-.297-.299-.301-.601-.297-.299v-.301zm7.799 10.205c-.599-.601-.599-1.801.301-2.402.602-.601 1.502-.601 2.1.299l.301.301.603.299.297.601.301.301.297.299.301.301c.603.598.603 1.5 0 2.399-.599.601-1.498.601-2.101-.299l-.301-.301-.598-.299-.297-.301-.301-.299-.301-.601-.301-.299h-.301zm9.306 8.702c-.603-.6-.603-1.502-.301-2.1.603-.902 1.799-.902 2.402-.301l.301.301.301.299.598.299.297.301.301.299.602.301c.603.6.9 1.5.301 2.401-.603.599-1.502.599-2.1.299h-.301l-.301-.601-.301-.299-.599-.301-.301-.299-.297-.301-.602-.298zm10.502 7.503c-.599-.601-.9-1.5-.599-2.4.599-.6 1.502-.901 2.101-.301h.598l.301.301.301.299.603.301.297.299h.599v.299c.904.301 1.205 1.201.603 2.103-.301.601-1.201.9-2.101.601l-.603-.301-.297-.299-.599-.301-.301-.299-.603-.301h-.3zm11.406 5.702c-.603-.301-1.201-1.201-.9-2.101.297-.901 1.201-1.201 2.101-.901l.301.301h.598l.301.299h.603l.599.301.297.299h.301c.603.301 1.201 1.201.904 2.101-.301.601-1.205 1.201-2.101.901l-.603-.301-.603-.299h-.297l-.599-.301-.602-.299h-.3zm12.305 3.902c-.899 0-1.502-.902-1.201-1.801 0-.9.899-1.5 1.799-1.201h.602l.301.301h.599l.598.299H205.581c.899.301 1.498 1.201 1.197 2.101 0 .601-.896 1.201-1.799 1.201l-.598-.299H203.481l-.602-.301h-.603l-.297-.3zm12.607 2.4c-.904-.299-1.502-.899-1.502-1.799 0-.901.9-1.502 1.799-1.502h.899l.301.301H217.883c.904 0 1.502.9 1.502 1.801 0 .601-.899 1.5-1.799 1.199h-3zm12.602.301c-.9 0-1.498-.601-1.498-1.5 0-.901.598-1.801 1.498-1.801H230.192c.896-.301 1.498.601 1.799 1.201 0 .9-.603 1.799-1.502 1.799h-1.503l-.598.301h-1.2zm12.603-1.5c-.599 0-1.498-.601-1.799-1.201 0-.902.603-1.801 1.201-2.101h1.202l.301-.301h1.202l.598-.299c.603 0 1.502.299 1.799 1.201 0 .899-.297 1.799-1.197 2.1h-1.201l-.301.299h-1.201l-.604.302zm12.606-3.301c-.899.299-1.799-.301-2.101-1.201-.297-.601 0-1.5.9-1.801h.301l.301-.299.598-.301h.301l.598-.299.603-.301h.301c.599-.299 1.498 0 2.101.901.297.9-.301 1.799-.904 2.101h-.598l-.297.299-.603.301h-.603l-.301.299h-.599v.301zm11.707-5.103c-.903.299-1.803 0-2.101-.899-.603-.601-.301-1.502.599-2.103l.599-.299.301-.301.603-.299h.297l.603-.299.302-.301c.598-.299 1.498 0 2.101.601.297.899 0 1.801-.603 2.1l-.302.301-.599.299-.301.301-.599.299h-.301l-.599.299v.301zm10.804-6.904c-.899.601-1.804.301-2.402-.299-.301-.9-.301-1.801.599-2.402l.302-.299.603-.301.297-.299.301-.301.603-.299.297-.301c.603-.598 1.503-.299 2.101.301.603.601.603 1.801-.297 2.101l-.301.301-.302.299-.599.601-.301.299-.599.301-.302.298zm9.603-8.401c-.599.598-1.498.598-2.101 0-.599-.601-.599-1.502 0-2.103l.301-.299.302-.601.297-.299.603-.301.297-.299.302-.301v-.299c.603-.6 1.502-.6 2.401 0 .599.601.599 1.799 0 2.4l-.603.301-.297.299-.302.601-.301.301-.599.299-.3.301zm8.703-9.605c-.599.9-1.498.9-2.402.299-.599-.598-.899-1.5-.297-2.101l.297-.299.302-.301.301-.601.302-.299.297-.299.301-.601c.603-.901 1.502-.901 2.402-.601.598.601.598 1.5.301 2.4h-.301l-.302.6-.301.301-.298.601-.301.299-.301.301v.301zm6.903-10.803c-.599.9-1.502 1.199-2.101.601-.899-.301-1.201-1.201-.603-2.103l.302-.601.301-.299v-.601l.302-.299.297-.6v-.301c.603-.601 1.502-.9 2.401-.601.603.301.899 1.201.603 2.103l-.301.299v.299l-.302.601-.301.601-.298.301-.3.6zm5.402-11.406c-.301.601-1.2 1.201-2.101.902-.899-.301-1.2-1.201-.899-2.103v-.299l.302-.601v-.299l.297-.601v-.301l.301-.601v-.299c.302-.902 1.201-1.201 2.101-.902.899.301 1.201 1.201.899 1.801v.301l-.297.601v.598l-.301.301v.601l-.302.6v.301zm3.602-12.605c-.301.899-1.2 1.5-1.803 1.201-.9 0-1.498-.899-1.498-1.801l.301-.299v-1.201l.297-.301V169.567c.302-.902 1.201-1.502 2.101-1.201.603 0 1.201.899 1.201 1.801l-.297.598V171.667l-.302.6V173.167zm1.8-12.604c-.302.899-.9 1.5-1.8 1.5s-1.502-.9-1.502-1.799V159.362l.302-.299V157.262c0-.9.598-1.5 1.502-1.5.899 0 1.498.6 1.498 1.5v3.301zm-.302-12.906c.302.902-.297 1.801-1.196 1.801-.904 0-1.804-.6-1.804-1.5v-1.502l-.301-.598V144.956c0-.899.603-1.801 1.502-1.801s1.502.601 1.502 1.502l.297.299v2.701zm-1.799-12.605c.301.902-.302 1.801-1.201 1.801-.899.299-1.498-.301-1.799-1.201v-.299l-.302-.601v-.301l-.301-.601V132.651c-.297-.902 0-1.502.903-1.801.899-.301 1.8.299 2.101.899V132.651l.297.299v1.202l.302.6v.3zm-3.602-12.303c.301.899-.297 1.799-.899 2.1-.9.299-1.8-.301-2.101-.901l-.302-.601v-.598l-.297-.301-.301-.601v-.299l-.302-.6c-.301-.601 0-1.801.899-2.101.603-.301 1.804 0 2.101.9v.6l.302.299.301.601v.301l.302.601.297.6zm-5.402-11.705c.301.899 0 1.799-.599 2.101-.899.6-1.804.299-2.402-.601v-.299l-.301-.6-.297-.301-.302-.601-.301-.299-.302-.301c-.297-.899-.297-1.799.603-2.399.599-.301 1.8 0 2.101.601l.302.598.297.301.301.601.302.299.301.601v.301h.297zm-7.201-10.504c.599.601.301 1.5-.302 2.101-.598.601-1.799.299-2.101-.301l-.301-.299-.297-.299-.302-.601-.301-.301-.599-.299-.301-.6c-.603-.601-.302-1.5.301-2.101.599-.601 1.498-.601 2.101 0v.299l.599.301.301.299.302.601.297.299.301.301.302.6zm-8.703-9.605c.599.601.899 1.5.297 2.101-.598.601-1.799.601-2.397 0h-.301l-.302-.299-.301-.601-.297-.299-.603-.301-.302-.299v-.301c-.899-.6-.899-1.5-.297-2.1.599-.601 1.498-.601 2.401 0l.599.299.301.601.302.301.297.299.603.301v.298zm-9.606-8.404c.603.601.903 1.502.301 2.402-.598.601-1.502.899-2.101.301h-.301l-.297-.301-.603-.299-.302-.301-.297-.299-.603-.301-.301-.299c-.599-.301-.899-1.5-.298-2.101.298-.6 1.201-.901 2.101-.6l.302.299.297.301.603.299.297.301.603.299.302.299h.297zm-11.105-6.602c.903.601 1.2 1.502.903 2.103-.603.9-1.502 1.199-2.401.9v-.299h-.302l-.598-.301-.302-.299-.603-.301h-.297l-.601-.301c-.599-.301-1.201-1.201-.599-2.103.302-.9 1.201-1.199 2.101-.599h.302l.598.299.302.299h.599l.301.301.597.301zm-11.703-4.802c.899 0 1.201.9.899 1.801-.297.9-1.201 1.201-1.799.9H250l-.603-.299h-.603l-.297-.301h-.599l-.301-.299c-.903-.301-1.205-.901-1.205-1.801.301-.899 1.205-1.5 2.104-1.201l.297.301h.603l.604.299h.297l.599.301h.603v.299zm-12.306-3.301c.9 0 1.502.9 1.201 1.801 0 .9-.9 1.5-1.799 1.201H237.69l-.598-.301H236.192l-.603-.299c-.896 0-1.498-.902-1.498-1.801.301-.601.9-1.201 1.799-1.201h.602l.599.301h1.201l.603.299h.297z"/></g><path fill="#4E5A62" d="M463.682 0H48.318c-7.799 0-14.104 6.303-14.104 14.104v270.104c0 8.104 6.305 14.406 14.104 14.406H207.08v7.803c-24.008 3.603-72.627 14.406-72.627 40.52v8.102c0 17.108 21.606 27.012 35.113 31.812 23.711 8.104 52.222 11.405 77.13 12.004h8.406c26.711 0 57.021-2.698 82.832-11.101 14.105-4.803 38.113-14.707 38.113-32.715 0-.9-.301-1.498-.301-2.101 0-.599.301-1.201.301-1.8 0-.603-.301-1.502-.301-2.1 0-.603.301-1.503.301-2.101 0-26.113-48.916-36.917-72.929-40.52v-7.803h160.564c7.804 0 14.105-6.302 14.105-14.406V14.104A14.089 14.089 0 0 0 463.682 0zm7.503 284.209c0 4.205-3.603 7.507-7.503 7.507H296.515v20.707c42.619 5.401 72.628 18.907 72.628 34.515 0 .598 0 1.498-.298 2.101.298.598.298 1.497.298 2.1v3.901c0 20.409-51.018 36.916-114.042 36.916h-8.105c-59.121-1.201-105.941-17.406-105.941-36.916 0-.9 0-1.498.301-2.101-.301-.599-.301-1.201-.301-1.8 0-.603 0-1.502.301-2.1-.301-.603-.301-1.503-.301-2.101 0-15.607 30.31-29.113 72.628-34.515v-20.707H48.318c-3.899 0-7.502-3.302-7.502-7.507V14.104c0-3.899 3.603-7.502 7.502-7.502h415.364c3.9 0 7.503 3.603 7.503 7.502v270.105z"/><g><path fill="#E6E6E6" d="M69.627 416.264H443.874c5.101 6.899 10.201 13.804 15.607 20.707 5.101 6.903 10.2 13.506 15.305 20.406 5.402 6.903 10.503 13.808 15.607 20.711 5.101 6.899 10.502 13.502 15.603 20.406H6c5.406-6.904 10.506-13.507 15.908-20.406 5.401-6.903 10.502-13.808 15.908-20.711 5.402-6.9 10.502-13.503 15.908-20.406 5.096-6.904 10.502-13.808 15.903-20.707z"/><path fill="#CCC" d="M7.803 497.293h496.393c1.503 0 2.703 2.401 2.703 4.804 0 2.698-1.2 4.803-2.703 4.803H7.803c-1.502 0-2.699-2.104-2.699-4.803 0-2.403 1.197-4.804 2.699-4.804z"/><path fill="#B3B3B3" d="M7.803 497.896c-1.502 0-2.1 3.301-2.1 4.201 0 1.2.598 4.2 2.1 4.2h496.393c1.503 0 2.101-3 2.101-4.2 0-.9-.598-4.201-2.101-4.201H7.803z"/><path fill="#CFCFCF" d="M249.096 416.264h194.778c5.101 6.899 10.201 13.804 15.607 20.707 5.101 6.903 10.2 13.506 15.305 20.406 5.402 6.903 10.503 13.808 15.607 20.711 5.101 6.899 10.502 13.502 15.603 20.406h-256.9v-82.23z"/><path fill="#CCC" d="M43.816 477.485h71.732c-1.205 3.004-2.703 5.703-3.903 8.406H37.816c1.799-3.004 3.899-5.703 6-8.406z"/><path fill="#CCC" d="M120.645 477.485c7.807 0 15.606 0 23.414.302-1.205 2.702-2.402 5.401-3.606 8.401-7.799 0-15.904 0-23.708-.297 1.201-2.703 2.401-5.402 3.9-8.406z"/><path fill="#CCC" d="M147.657 477.787h23.109c-.899 2.702-1.799 5.702-2.397 8.401h-24.013c.899-3 2.104-5.699 3.301-8.401z"/><path fill="#CCC" d="M174.669 477.787h23.109c-.599 3-1.201 5.702-1.803 8.702-8.101 0-15.904-.301-24.009-.301.904-2.699 1.8-5.699 2.703-8.401z"/><path fill="#CCC" d="M201.678 477.787c7.803 0 15.31.301 23.109.301-.301 2.699-.899 5.703-1.197 8.401h-23.711c.297-3 .899-5.702 1.799-8.702z"/><path fill="#CCC" d="M228.69 478.088h23.109c-.301 3-.301 5.703-.603 8.703-7.799 0-15.904 0-23.707-.302.302-2.698.603-5.702 1.201-8.401z"/><path fill="#CCC" d="M255.699 478.088c7.502 0 15.305.297 23.109.297v8.406h-23.707c0-3 .296-5.703.598-8.703z"/><path fill="#CCC" d="M282.711 478.385h23.109c.301 3.004.598 5.703.899 8.707-8.104 0-15.908 0-24.009-.301.001-2.703-.3-5.703.001-8.406z"/><path fill="#CCC" d="M309.72 478.385c7.502 0 15.306 0 23.108.302.302 2.702.904 5.702 1.502 8.405h-24.008c-.301-3.004-.602-5.703-.602-8.707z"/><path fill="#CCC" d="M336.732 478.687h23.108c.599 3 1.498 5.702 2.101 8.702-8.104 0-15.908 0-23.711-.297-.598-2.703-1.197-5.703-1.498-8.405z"/><path fill="#CCC" d="M363.74 478.687h23.109c.903 3 1.803 6.004 2.703 8.702H365.84c-.899-3-1.497-5.702-2.1-8.702z"/><path fill="#CCC" d="M390.452 478.687c24.008.301 48.021.301 72.029.301 1.502 2.699 3.301 5.703 4.799 8.703-24.606 0-49.218 0-73.828-.302-.899-2.699-2.1-5.702-3-8.702z"/><path fill="#CCC" d="M113.146 466.682h22.209c-1.506 2.703-3.004 5.703-4.502 8.402h-22.812a125.039 125.039 0 0 1 5.105-8.402z"/><path fill="#CCC" d="M138.954 466.682h22.51c-1.201 3-2.402 5.703-3.603 8.703-7.803 0-15.606-.301-23.109-.301 1.202-2.699 3.001-5.699 4.202-8.402z"/><path fill="#CCC" d="M165.063 466.682c7.506 0 15.008 0 22.51.302-.899 2.698-2.101 5.401-3.004 8.401h-23.105c1.197-3 2.402-5.703 3.599-8.703z"/><path fill="#CCC" d="M191.176 466.983h22.506c-.9 2.698-1.498 5.703-2.402 8.401h-23.104c.895-2.697 2.1-5.702 3-8.401z"/><path fill="#CCC" d="M217.285 466.983h22.209c-.301 3-.899 5.703-1.502 8.703-7.502 0-15.306 0-23.109-.302.899-2.697 1.502-5.702 2.402-8.401z"/><path fill="#CCC" d="M243.096 466.983c7.502 0 15.004 0 22.506.297-.297 2.703-.599 5.703-.599 8.406h-23.108c.297-2.999.9-5.703 1.201-8.703z"/><path fill="#CCC" d="M269.205 467.28h22.511v8.707c-7.804 0-15.306-.301-23.109-.301.297-2.703.297-5.703.598-8.406z"/><path fill="#CCC" d="M295.313 467.28h22.511c0 3.004.301 6.004.599 8.707h-23.109l-.001-8.707z"/><path fill="#CCC" d="M321.427 467.28c7.502 0 14.703.302 22.209.302.599 2.702.899 5.702 1.498 8.702-7.804-.297-15.306-.297-23.108-.297-.001-2.703-.599-5.703-.599-8.707z"/><path fill="#CCC" d="M347.234 467.582h22.511c.899 3.004 1.502 5.702 2.1 8.702h-22.807c-.602-3-1.201-6-1.804-8.702z"/><path fill="#CCC" d="M373.348 467.582h22.506c.899 3.004 2.101 5.702 3 8.702h-23.108c-.9-3-1.499-5.698-2.398-8.702z"/><path fill="#CCC" d="M399.456 467.582c18.908 0 38.113.301 57.021.301 1.503 2.703 3.302 5.703 4.804 8.703-19.808 0-39.313-.302-58.824-.302-.9-2.698-2.102-5.698-3.001-8.702z"/><path fill="#CCC" d="M52.519 466.381c18.912 0 37.816.301 57.021.301-1.799 2.703-3.599 5.703-5.398 8.402H45.615c2.105-3 4.502-5.699 6.904-8.703z"/><path fill="#CCC" d="M94.234 455.577h21.611c-1.502 3-3.301 5.703-4.799 8.703-7.506 0-15.008 0-22.51-.301 2.1-2.699 3.899-5.402 5.698-8.402z"/><path fill="#CCC" d="M119.448 455.577c7.201 0 14.402.302 21.606.302-1.498 2.698-3 5.401-4.201 8.401h-22.51c1.803-3 3.603-5.703 5.105-8.703z"/><path fill="#CCC" d="M144.657 455.879h21.611c-1.205 2.698-2.401 5.703-3.606 8.401h-22.506c1.501-3 2.999-5.703 4.501-8.401z"/><path fill="#CCC" d="M169.565 455.879h21.611c-.9 2.698-1.803 5.703-2.703 8.401h-22.205c1.196-2.698 2.1-5.703 3.297-8.401z"/><path fill="#CCC" d="M194.778 455.879h21.606c-.603 3-1.502 5.703-2.1 8.703-7.506 0-15.004 0-22.209-.302.9-2.698 1.8-5.401 2.703-8.401z"/><path fill="#CCC" d="M219.983 455.879c7.205 0 14.108 0 21.313.301-.301 2.699-.903 5.699-1.205 8.402h-22.209c.603-3 1.206-5.703 2.101-8.703z"/><path fill="#CCC" d="M244.896 456.18h21.606c0 2.699-.297 5.699-.599 8.402h-22.209c.302-2.703.9-5.703 1.202-8.402z"/><path fill="#CCC" d="M270.104 456.18h21.611v8.703c-7.507 0-14.707 0-22.21-.301.299-2.703.299-5.703.599-8.402z"/><path fill="#CCC" d="M295.313 456.18h21.611c0 3 .297 5.699.599 8.703h-22.21v-8.703z"/><path fill="#CCC" d="M320.226 456.18c7.201 0 14.406 0 21.607.297.603 2.703 1.2 5.703 1.502 8.406h-22.209c-.302-2.703-.599-5.703-.9-8.703z"/><path fill="#CCC" d="M345.436 456.477h21.606c.603 2.703 1.502 5.703 2.101 8.703-7.502 0-14.703 0-22.205-.297-.603-2.703-.905-5.703-1.502-8.406z"/><path fill="#CCC" d="M370.645 456.477h21.606c.903 3.005 1.804 5.703 2.703 8.703h-22.209c-.599-3-1.498-6-2.1-8.703z"/><path fill="#CCC" d="M395.557 456.477h21.606c1.201 3.005 2.401 5.703 3.603 8.703h-22.209c-.9-3-1.804-5.699-3-8.703z"/><path fill="#CCC" d="M420.766 456.477h29.711c1.8 3.005 3.302 6.005 4.8 8.703h-30.912c-1.202-2.699-2.398-5.699-3.599-8.703z"/><path fill="#CCC" d="M60.925 455.577h30.012c-2.1 3-3.903 5.703-5.703 8.402H54.322c2.1-2.699 4.498-5.699 6.603-8.402z"/><path fill="#CCC" d="M68.427 444.774h21.008c-1.502 2.698-3.301 5.702-5.101 8.401H62.723c2.101-2.999 4.206-5.702 5.704-8.401z"/><path fill="#CCC" d="M92.736 444.774h21.008c-1.502 2.698-3 5.702-4.502 8.401H87.631c2.101-2.698 3.607-5.702 5.105-8.401z"/><path fill="#CCC" d="M117.046 444.774h20.707c-.899 2.698-2.397 5.702-3.602 8.401h-21.607c1.799-2.698 3.301-5.702 4.502-8.401z"/><path fill="#CCC" d="M141.355 444.774h20.708c-.9 3-1.799 5.702-3 8.401h-21.606c1.497-2.698 2.698-5.702 3.898-8.401z"/><path fill="#CCC" d="M165.364 444.774h21.008c-.599 3-1.502 5.702-2.398 8.702-7.205 0-14.41 0-21.611-.301 1.202-2.698 2.399-5.401 3.001-8.401z"/><path fill="#CCC" d="M189.674 444.774h21.008c-.599 3-1.201 5.702-1.803 8.702h-21.607c.904-2.999 1.799-5.702 2.402-8.702z"/><path fill="#CCC" d="M213.983 444.774c6.904 0 13.807.301 21.008.301-.297 2.699-.9 5.699-1.201 8.401h-21.607c.9-2.999 1.198-5.702 1.8-8.702z"/><path fill="#CCC" d="M238.293 445.075H259c0 2.699 0 5.699-.297 8.401h-21.611c.598-2.702.9-5.702 1.201-8.401z"/><path fill="#CCC" d="M262.603 445.075h20.707c0 2.699.302 5.699.302 8.703-7.201 0-14.406-.302-21.607-.302.297-2.702.297-5.702.598-8.401z"/><path fill="#CCC" d="M286.611 445.075h21.008c.302 3 .603 5.699.899 8.703h-21.606c0-3.004 0-6.004-.301-8.703z"/><path fill="#CCC" d="M310.921 445.075h21.008c.603 3 .899 5.699 1.502 8.703h-21.61c-.298-3.004-.599-5.703-.9-8.703z"/><path fill="#CCC" d="M335.23 445.075h21.008c.603 3 1.201 6 2.101 8.703h-21.606c-.603-3.004-.9-5.703-1.503-8.703z"/><path fill="#CCC" d="M359.54 445.075c6.903 0 13.808 0 20.707.297 1.2 2.703 2.101 5.703 3.004 8.406h-21.61c-.599-2.703-1.498-5.703-2.101-8.703z"/><path fill="#CCC" d="M384.15 445.372h20.707c1.201 2.703 2.402 5.703 3.603 8.703h-21.61c-.9-3-1.8-6-2.7-8.703z"/><path fill="#CCC" d="M409.059 445.372h35.716c1.502 3.005 3 5.703 4.502 8.703h-36.615c-1.202-3-2.402-6-3.603-8.703z"/><path fill="#CCC" d="M87.334 431.268h11.105c2.1 0 3.603.603 3.301 1.502-.603.9-2.703 1.8-4.804 1.8H85.53c-2.401 0-3.899-.899-3.297-1.8.6-.9 2.7-1.502 5.101-1.502z"/><path fill="#CCC" d="M108.945 431.268h11.402c2.101 0 3.603.603 3.301 1.502-.301.9-2.401 1.8-4.803 1.8h-11.406c-2.101 0-3.599-.899-3.297-1.8.599-.9 2.699-1.502 4.803-1.502z"/><path fill="#CCC" d="M130.854 431.268h11.104c2.397 0 3.9.603 3.599 1.502-.301 1.201-2.402 1.8-4.502 1.8h-11.406c-2.401 0-3.899-.899-3.598-1.8.597-.9 2.702-1.502 4.803-1.502z"/><path fill="#CCC" d="M152.761 431.268h11.105c2.401 0 3.899.603 3.598 1.502-.301 1.201-2.1 1.8-4.502 1.8h-11.406c-2.101 0-3.599-.599-3.297-1.8.302-.9 2.101-1.502 4.502-1.502z"/><path fill="#CCC" d="M174.669 431.268h11.104c2.101 0 3.9.603 3.599 1.804 0 .899-2.101 1.498-4.201 1.498h-11.406c-2.401 0-3.899-.599-3.598-1.8.302-.9 2.101-1.502 4.502-1.502z"/><path fill="#CCC" d="M196.276 431.268h11.406c2.1 0 3.899.603 3.899 1.804-.301.899-2.101 1.498-4.502 1.498h-11.406c-2.101 0-3.9-.599-3.599-1.498.001-1.202 2.102-1.804 4.202-1.804z"/><path fill="#CCC" d="M218.184 431.268h11.406c2.101 0 3.9.899 3.9 1.804-.301.899-2.101 1.498-4.201 1.498h-11.406c-2.401 0-3.899-.599-3.899-1.498-.001-1.202 2.099-1.804 4.2-1.804z"/><path fill="#CCC" d="M240.092 431.268h11.104c2.401 0 4.201.899 4.201 1.804 0 .899-1.799 1.799-4.201 1.799-3.599 0-7.502-.301-11.406-.301-2.101 0-3.9-.599-3.9-1.498.001-.905 1.8-1.804 4.202-1.804z"/><path fill="#CCC" d="M262.004 431.268h11.101c2.104 0 4.205.899 4.205 1.804 0 .899-1.804 1.799-3.903 1.799h-11.402c-2.401 0-4.205-.899-4.205-1.799-.001-.905 1.803-1.804 4.204-1.804z"/><path fill="#CCC" d="M283.611 431.268h11.405c2.101 0 4.201.899 4.201 1.804.301.899-1.502 1.799-3.904 1.799h-11.401c-2.101 0-3.903-.899-4.205-1.799 0-.905 1.804-1.804 3.904-1.804z"/><path fill="#CCC" d="M305.519 431.268h11.406c2.101 0 3.899.899 4.201 1.804.301.899-1.503 1.799-3.603 1.799h-11.402c-2.401 0-4.205-.899-4.502-1.799 0-.905 1.799-1.804 3.9-1.804z"/><path fill="#CCC" d="M327.427 431.268h11.104c2.401 0 4.201.899 4.502 1.804.302.899-1.2 1.799-3.603 1.799h-11.401c-2.101 0-4.205-.899-4.205-1.799-.297-.905 1.201-1.804 3.603-1.804z"/><path fill="#CCC" d="M349.335 431.268h11.104c2.101 0 4.205.899 4.502 1.804.301.899-1.201 1.799-3.301 1.799h-11.402c-2.401 0-4.502-.899-4.502-1.799-.3-.905 1.202-1.804 3.599-1.804z"/><path fill="#CCC" d="M370.945 431.268h11.402c2.104 0 4.205.899 4.803 1.804.302.899-1.2 1.799-3.603 1.799h-11.401c-2.101 0-4.201-.899-4.502-1.799-.301-.905 1.201-1.804 3.301-1.804z"/><path fill="#CCC" d="M392.854 431.268h11.406c2.1 0 4.2.899 4.799 1.804.301 1.196-1.201 1.799-3.301 1.799h-11.402c-2.401 0-4.502-.899-4.803-1.799-.302-.905 1.2-1.804 3.301-1.804z"/><path fill="#CCC" d="M414.762 431.268h11.104c2.401 0 4.502.899 5.101 1.804.603 1.196-.899 1.799-3.302 1.799h-11.104c-2.397 0-4.498-.603-5.101-1.799-.301-.905 1.201-1.804 3.302-1.804z"/><path fill="#CCC" d="M94.837 419.862c3.899 0 6.904.903 6.904 2.104 0 .899-3.004 1.799-6.904 1.799s-7.205-.899-7.205-1.799c0-1.2 3.305-2.104 7.205-2.104z"/><path fill="#CCC" d="M111.941 420.465c2.703 0 4.803.598 4.803 1.502 0 .598-2.1 1.196-4.803 1.196-2.401 0-4.799-.599-4.799-1.196 0-.904 2.398-1.502 4.799-1.502z"/><path fill="#B8B8B8" d="M245.197 478.088h6.603c-.301 3-.301 5.703-.603 8.703h-6.603c.302-3 .302-5.703.603-8.703z"/><path fill="#B8B8B8" d="M255.699 478.088c7.502 0 15.305.297 23.109.297v8.406h-23.707c0-3 .296-5.703.598-8.703z"/><path fill="#B8B8B8" d="M282.711 478.385h23.109c.301 3.004.598 5.703.899 8.707-8.104 0-16.205 0-24.009-.301.001-2.703-.3-5.703.001-8.406z"/><path fill="#B8B8B8" d="M309.72 478.385c7.502 0 15.306 0 23.108.302.302 2.702.904 5.702 1.502 8.405h-24.008c-.301-3.004-.602-5.703-.602-8.707z"/><path fill="#B8B8B8" d="M336.732 478.687h23.108c.599 3 1.498 5.702 2.101 8.702-8.104 0-15.908 0-23.711-.297-.598-2.703-1.197-5.703-1.498-8.405z"/><path fill="#B8B8B8" d="M363.74 478.687h23.109c.903 3 1.803 6.004 2.703 8.702H365.84c-.899-3-1.497-5.702-2.1-8.702z"/><path fill="#B8B8B8" d="M390.452 478.687c24.008.301 48.021.301 72.029.301 1.502 2.699 3.301 5.703 4.799 8.703-24.606 0-49.218 0-73.828-.302-.899-2.699-2.1-5.702-3-8.702z"/><path fill="#B8B8B8" d="M246.695 466.983c6.301 0 12.606 0 18.908.297-.297 2.703-.599 5.703-.599 8.406h-19.506c.598-2.999.896-5.703 1.197-8.703z"/><path fill="#B8B8B8" d="M269.205 467.28h22.511v8.707c-7.804 0-15.306-.301-23.109-.301.297-2.703.297-5.703.598-8.406z"/><path fill="#B8B8B8" d="M295.313 467.28h22.511c0 3.004.301 6.004.599 8.707h-23.109l-.001-8.707z"/><path fill="#B8B8B8" d="M321.427 467.28c7.502 0 14.703.302 22.209.302.599 2.702.899 5.702 1.498 8.702-7.804-.297-15.306-.297-23.108-.297-.001-2.703-.599-5.703-.599-8.707z"/><path fill="#B8B8B8" d="M347.234 467.582h22.511c.899 3.004 1.502 5.702 2.1 8.702h-22.807c-.602-3-1.201-6-1.804-8.702z"/><path fill="#B8B8B8" d="M373.348 467.582h22.506c.899 3.004 2.101 5.702 3 8.702h-23.108c-.9-3-1.499-5.698-2.398-8.702z"/><path fill="#B8B8B8" d="M399.456 467.582c18.908 0 38.113.301 57.021.301 1.503 2.703 3.302 5.703 4.804 8.703-19.808 0-39.313-.302-58.824-.302-.9-2.698-2.102-5.698-3.001-8.702z"/><path fill="#B8B8B8" d="M248.197 456.18h18.305c0 2.699-.297 5.699-.599 8.402h-18.908c.603-2.703.904-5.703 1.202-8.402z"/><path fill="#B8B8B8" d="M270.104 456.18h21.611v8.703c-7.507 0-14.707 0-22.21-.301.299-2.703.299-5.703.599-8.402z"/><path fill="#B8B8B8" d="M295.313 456.18h21.611c0 3 .297 5.699.599 8.703h-22.21v-8.703z"/><path fill="#B8B8B8" d="M320.226 456.18c7.201 0 14.406 0 21.607.297.603 2.703 1.2 5.703 1.502 8.406h-22.209c-.302-2.703-.599-5.703-.9-8.703z"/><path fill="#B8B8B8" d="M345.436 456.477h21.606c.603 2.703 1.502 5.703 2.101 8.703-7.502 0-14.703 0-22.205-.297-.603-2.703-.905-5.703-1.502-8.406z"/><path fill="#B8B8B8" d="M370.645 456.477h21.606c.903 3.005 1.804 5.703 2.703 8.703h-22.209c-.599-3-1.498-6-2.1-8.703z"/><path fill="#B8B8B8" d="M395.557 456.477h21.606c1.201 3.005 2.401 5.703 3.603 8.703h-22.209c-.9-3-1.804-5.699-3-8.703z"/><path fill="#B8B8B8" d="M420.766 456.477h29.711c1.8 3.005 3.302 6.005 4.8 8.703h-30.912c-1.202-2.699-2.398-5.699-3.599-8.703z"/><path fill="#B8B8B8" d="M249.096 445.075H259c0 2.699 0 5.699-.297 8.401h-10.205c.297-2.702.598-5.702.598-8.401z"/><path fill="#B8B8B8" d="M262.603 445.075h20.707c0 2.699.302 5.699.302 8.703-7.201 0-14.406-.302-21.607-.302.297-2.702.297-5.702.598-8.401z"/><path fill="#B8B8B8" d="M286.611 445.075h21.008c.302 3 .603 5.699.899 8.703h-21.606c0-3.004 0-6.004-.301-8.703z"/><path fill="#B8B8B8" d="M310.921 445.075h21.008c.603 3 .899 5.699 1.502 8.703h-21.61c-.298-3.004-.599-5.703-.9-8.703z"/><path fill="#B8B8B8" d="M335.23 445.075h21.008c.603 3 1.201 6 2.101 8.703h-21.606c-.603-3.004-.9-5.703-1.503-8.703z"/><path fill="#B8B8B8" d="M359.54 445.075c6.903 0 13.808 0 20.707.297 1.2 2.703 2.101 5.703 3.004 8.406h-21.61c-.599-2.703-1.498-5.703-2.101-8.703z"/><path fill="#B8B8B8" d="M384.15 445.372h20.707c1.201 2.703 2.402 5.703 3.603 8.703h-21.61c-.9-3-1.8-6-2.7-8.703z"/><path fill="#B8B8B8" d="M409.059 445.372h35.716c1.502 3.005 3 5.703 4.502 8.703h-36.615c-1.202-3-2.402-6-3.603-8.703z"/><path fill="#B8B8B8" d="M249.096 431.268h2.101c2.401 0 4.201.899 4.201 1.804 0 .899-1.799 1.799-4.201 1.799h-2.101v-3.603z"/><path fill="#B8B8B8" d="M262.004 431.268h11.101c2.104 0 4.205.899 4.205 1.804 0 .899-1.804 1.799-3.903 1.799h-11.402c-2.401 0-4.205-.899-4.205-1.799-.001-.905 1.803-1.804 4.204-1.804z"/><path fill="#B8B8B8" d="M283.611 431.268h11.405c2.101 0 4.201.899 4.201 1.804.301.899-1.502 1.799-3.904 1.799h-11.401c-2.101 0-3.903-.899-4.205-1.799 0-.905 1.804-1.804 3.904-1.804z"/><path fill="#B8B8B8" d="M305.519 431.268h11.406c2.101 0 3.899.899 4.201 1.804.301.899-1.503 1.799-3.603 1.799h-11.402c-2.401 0-4.205-.899-4.502-1.799 0-.905 1.799-1.804 3.9-1.804z"/><path fill="#B8B8B8" d="M327.427 431.268h11.104c2.401 0 4.201.899 4.502 1.804.302.899-1.2 1.799-3.603 1.799h-11.401c-2.101 0-4.205-.899-4.205-1.799-.297-.905 1.201-1.804 3.603-1.804z"/><path fill="#B8B8B8" d="M349.335 431.268h11.104c2.101 0 4.205.899 4.502 1.804.301.899-1.201 1.799-3.301 1.799h-11.402c-2.401 0-4.502-.899-4.502-1.799-.3-.905 1.202-1.804 3.599-1.804z"/><path fill="#B8B8B8" d="M370.945 431.268h11.402c2.104 0 4.205.899 4.803 1.804.302.899-1.2 1.799-3.603 1.799h-11.401c-2.101 0-4.201-.899-4.502-1.799-.301-.905 1.201-1.804 3.301-1.804z"/><path fill="#B8B8B8" d="M392.854 431.268h11.406c2.1 0 4.2.899 4.799 1.804.301 1.196-1.201 1.799-3.301 1.799h-11.402c-2.401 0-4.502-.899-4.803-1.799-.302-.905 1.2-1.804 3.301-1.804z"/><path fill="#B8B8B8" d="M414.762 431.268h11.104c2.401 0 4.502.899 5.101 1.804.603 1.196-.899 1.799-3.302 1.799h-11.104c-2.397 0-4.498-.603-5.101-1.799-.301-.905 1.201-1.804 3.302-1.804z"/><path fill="#B8B8B8" d="M249.096 497.293h255.1c1.503 0 2.703 2.401 2.703 4.804 0 2.698-1.2 4.803-2.703 4.803h-255.1v-9.607z"/><path fill="#A1A1A1" d="M249.096 506.297h255.1c1.503 0 2.101-3 2.101-4.2 0-.9-.598-4.201-2.101-4.201h-255.1v8.401z"/><path fill="#4E5A62" d="M510.498 495.795c-.297-.301-.599-.603-.899-.903-4.804-6.603-9.904-13.205-15.005-19.808-5.104-6.9-10.205-13.804-15.606-20.707-5.104-6.904-10.205-13.804-15.606-20.406l-15.306-20.711c-1.201-1.197-2.703-2.101-4.201-2.101H69.627a5.267 5.267 0 0 0-4.205 2.101c-5.398 6.903-10.804 13.808-15.904 20.711-5.402 6.603-10.506 13.502-15.904 20.406-5.406 6.903-10.506 13.807-15.908 20.707a65987.792 65987.792 0 0 0-15.305 19.808l-.904.903C.301 497.594 0 499.996 0 502.097 0 506.599 2.402 512 7.803 512h496.393c5.402 0 7.804-5.401 7.804-9.903 0-2.101-.301-4.201-1.502-6.302zm-6.302 11.104H7.803c-1.502 0-2.699-2.104-2.699-4.803 0-1.201.297-2.703.896-3.603 0 0 .301-.302.301-.599 5.104-6.603 10.506-13.205 15.607-19.808 5.401-6.903 10.502-13.808 15.908-20.711 5.402-6.9 10.502-13.503 15.908-20.406 5.097-6.903 10.502-13.808 15.904-20.707H443.875c5.101 6.899 10.201 13.804 15.607 20.707 5.101 6.903 10.2 13.506 15.305 20.406 5.402 6.903 10.503 13.808 15.607 20.711 5.101 6.603 10.2 13.205 15.306 20.104l.297.302c.603.899.903 2.401.903 3.603-.001 2.7-1.201 4.804-2.704 4.804z"/></g></g><metadata><rdf:RDF xmlns:rdf="http://www.w3.org/1999/02/22-rdf-syntax-ns#" xmlns:rdfs="http://www.w3.org/2000/01/rdf-schema#" xmlns:dc="http://purl.org/dc/elements/1.1/"><rdf:Description about="https://iconscout.com/legal#licenses" dc:title="logo,design" dc:description="logo,design" dc:publisher="Iconscout" dc:date="2017-09-22" dc:format="image/svg+xml" dc:language="en"><dc:creator><rdf:Bag><rdf:li>Graphiqa Stock</rdf:li></rdf:Bag></dc:creator></rdf:Description></rdf:RDF></metadata></svg>