<?xml version="1.0" encoding="UTF-8"?><!DOCTYPE svg PUBLIC "-//W3C//DTD SVG 1.1//EN" "http://www.w3.org/Graphics/SVG/1.1/DTD/svg11.dtd"><svg xmlns="http://www.w3.org/2000/svg" xmlns:xlink="http://www.w3.org/1999/xlink" version="1.1" id="Photography" x="0px" y="0px" width="512px" height="512px" viewBox="0 0 512 512" xml:space="preserve"><circle id="Background" fill="#9DD3AF" cx="256" cy="256" r="256"/><g id="Photography_1_"><path fill="#5E6976" d="M317.991 74.885l138.067-20.464c2.138-.307 3.969 1.222 4.275 3.36L480.8 195.848c.307 1.833-1.223 3.972-3.359 4.276l-138.069 20.16c-1.834.306-3.973-1.221-4.274-3.054l-20.16-138.068c-.307-2.137 1.217-3.97 3.053-4.277zm.609 3.667l138.068-20.467 20.467 138.068L338.76 216.62 318.6 78.552z"/><path transform="matrix(-0.9894 0.1455 -0.1455 -0.9894 811.3653 215.4538)" fill="#E1F5FE" d="M328.009 67.6H467.6v139.587H328.009z"/><path transform="matrix(-0.9894 0.1455 -0.1455 -0.9894 810.058 197.6418)" fill="#96989A" d="M339.461 79.762h116.683v97.354H339.461z"/><g><path fill="#5E6976" d="M195.805 31.205l161.893 18.634c2.444.304 4.279 2.444 3.973 4.887l-18.938 162.2c-.308 2.444-2.444 3.971-4.89 3.666L175.95 201.958c-2.442-.305-4.276-2.445-3.969-4.887l18.938-162.2c.304-2.444 2.444-3.97 4.886-3.666zm-.611 4.277L357.396 54.42l-18.939 161.894-161.896-18.94 18.633-161.892z"/><path transform="matrix(-0.9933 -0.1156 0.1156 -0.9933 517.3904 281.7874)" fill="#E1F5FE" d="M185.292 44.326h163.141v163.142H185.292z"/><path transform="matrix(-0.9933 -0.1155 0.1155 -0.9933 523.9615 261.9388)" fill="#96989A" d="M201.389 58.893h136.367v113.781H201.389z"/></g><g><path fill="#5E6976" d="M33.911 64.805L183.587.354c2.138-.916 4.887 0 5.805 2.138l64.756 149.677c.917 2.442 0 4.887-2.442 5.802L102.029 222.73c-2.138.916-4.887 0-5.805-2.138L31.468 70.61c-.917-2.138.304-4.582 2.443-5.805zm1.833 4.278L185.421 4.325 250.177 154l-149.981 64.758L35.744 69.083z"/><path transform="matrix(-0.918 0.3966 -0.3966 -0.918 318.1631 157.2324)" fill="#E1F5FE" d="M61.256 29.94h163.14v163.14H61.256z"/><path transform="matrix(-0.918 0.3966 -0.3966 -0.918 308.9495 138.9174)" fill="#96989A" d="M71.928 44.51h136.369v113.779H71.928z"/></g><g><path fill="#96989A" stroke="#727376" stroke-width="3" d="M91.337 296.651h5.498v-10.995c0-7.026 5.804-12.526 12.831-12.526h95.304c7.024 0 12.829 5.5 12.829 12.526v10.995h137.459v-12.523c0-6.413 5.191-11.305 11.302-11.305h14.356c6.413 0 11.604 4.892 11.604 11.305v12.523h17.414c10.995 0 20.466 9.165 20.466 20.468v164.947c0 11.303-9.471 20.467-20.466 20.467H91.337c-10.995 0-20.464-9.164-20.464-20.467V317.119c0-11.303 9.469-20.468 20.464-20.468z"/><path fill="#D2D3D5" d="M363.81 273.743h29.934c2.024 0 3.666 5.744 3.666 12.829v16.191c0 7.084-1.642 12.826-3.666 12.826H363.81c-2.025 0-3.667-5.742-3.667-12.826v-16.191c0-7.085 1.641-12.829 3.667-12.829z"/><path fill="#D2D3D5" d="M117.913 272.521h98.052c6.242 0 11.302 5.744 11.302 12.829v16.191c0 7.085-5.061 12.826-11.302 12.826h-98.052c-6.242 0-11.302-5.741-11.302-12.826V285.35c0-7.085 5.06-12.829 11.302-12.829z"/><path fill="#BDBFC1" d="M108.444 302.456h305.458c14.849 0 26.882 9.165 26.882 20.468v164.948c0 11.303-12.033 20.466-26.882 20.466H108.444c-14.846 0-26.88-9.163-26.88-20.466V322.924c0-11.303 12.034-20.468 26.88-20.468z"/><path fill="#848688" d="M103.556 337.585h60.259v17.906h-60.259z"/><path fill="#848688" d="M121.273 360.189h25.012v17.907h-25.012z"/><circle fill="#D2D3D5" cx="388.246" cy="405.396" r="15.273"/><circle fill="#848688" cx="267.284" cy="404.786" r="81.254"/><path fill="#D2D3D5" d="M277.67 324.145c44.875 0 81.25 36.378 81.25 81.251 0 44.878-36.375 81.253-81.25 81.253s-81.253-36.375-81.253-81.253c0-44.874 36.377-81.251 81.253-81.251z"/><path fill="#A9ABAE" d="M388.246 393.178c6.749 0 12.217 5.473 12.217 12.218 0 6.749-5.468 12.218-12.217 12.218-6.75 0-12.22-5.469-12.22-12.218 0-6.746 5.47-12.218 12.22-12.218z"/><path fill="#96989A" d="M388.246 394.092c6.242 0 11.302 5.064 11.302 11.304 0 6.243-5.06 11.302-11.302 11.302-6.241 0-11.303-5.059-11.303-11.302 0-6.24 5.062-11.304 11.303-11.304z"/><path fill="#BDBFC1" d="M277.67 334.227c39.306 0 71.17 31.863 71.17 71.169 0 39.31-31.864 71.174-71.17 71.174-39.31 0-71.173-31.864-71.173-71.174 0-39.306 31.863-71.169 71.173-71.169z"/><path fill="#A9ABAE" d="M277.67 361.106c24.462 0 44.289 19.828 44.289 44.289 0 24.464-19.827 44.294-44.289 44.294s-44.293-19.83-44.293-44.294c0-24.46 19.831-44.289 44.293-44.289z"/><path fill="#A9ABAE" d="M131.354 278.021h71.277c4.553 0 8.247 4.102 8.247 9.165v12.031c0 5.058-3.694 9.16-8.247 9.16h-71.277c-4.555 0-8.247-4.103-8.247-9.16v-12.031c-.001-5.064 3.692-9.165 8.247-9.165z"/><path fill="#FEFEFE" d="M160.678 215.093l11.912 54.677 50.096-25.048-35.435 43.38 51.015 23.825-56.205-.613 13.133 54.375-34.212-44.295-34.515 44.295 13.134-54.375-56.206.613 50.707-23.52-35.433-43.685 50.096 25.048z"/><path fill="#5E6976" d="M426.121 299.403c-4.276-4.276-10.08-6.413-16.187-6.413h-8.858v-7.641c0-8.244-6.418-14.662-14.054-15.273-2.138-.611-3.969-1.223-6.106-1.223H366.56c-8.248 0-14.969 7.027-14.969 15.274v8.862H230.934v-7.641c0-9.166-7.331-16.803-16.495-16.803h-6.416l17.718-21.38c1.222-1.222 1.222-3.359 0-4.582-1.222-1.529-3.056-1.833-4.582-1.222l-46.125 22.909-10.691-50.096c-.305-1.831-1.833-3.054-3.665-3.054-1.833 0-3.36 1.223-3.667 3.054l-10.69 50.096-45.818-22.909c-1.833-.611-3.667-.307-4.583 1.222-1.222 1.223-1.222 3.36 0 4.582l17.718 21.992h-3.971c-9.164 0-16.496 7.641-16.496 16.498v7.334h-1.833c-13.133 0-24.131 10.688-24.131 24.129v164.947c0 10.997 7.638 20.773 18.634 23.521 4.275 3.974 10.08 6.413 16.189 6.413h318.595c13.137 0 24.132-10.995 24.132-24.128V322.924c-.001-11.303-7.636-20.774-18.636-23.521zm14.969 188.469c0 11.303-9.466 20.466-20.466 20.466H102.029c-5.498 0-10.692-2.443-14.357-6.11-9.468-1.832-16.799-10.388-16.799-20.161V317.119c0-11.303 9.469-20.468 20.464-20.468h5.498v-10.995c0-7.026 5.804-12.526 12.831-12.526h5.803c1.222-.609 2.444-.609 3.971-.609h1.833l-22.604-27.798 50.096 25.047 11.914-54.677 11.912 54.677 50.096-25.047-22.603 27.798h14.356c7.024 0 12.829 5.5 12.829 12.829v11.302h127.99v-12.523c0-6.413 5.191-11.305 11.302-11.305h14.356c1.83 0 3.662.307 5.191.92 6.11.302 11.302 5.193 11.302 11.606v11.302h12.525c5.498 0 10.689 2.445 14.355 6.112 9.471 1.831 16.8 10.387 16.8 20.16v164.948z"/></g></g><metadata><rdf:RDF xmlns:rdf="http://www.w3.org/1999/02/22-rdf-syntax-ns#" xmlns:rdfs="http://www.w3.org/2000/01/rdf-schema#" xmlns:dc="http://purl.org/dc/elements/1.1/"><rdf:Description about="https://iconscout.com/legal#licenses" dc:title="photography" dc:description="photography" dc:publisher="Iconscout" dc:date="2017-09-22" dc:format="image/svg+xml" dc:language="en"><dc:creator><rdf:Bag><rdf:li>Graphiqa Stock</rdf:li></rdf:Bag></dc:creator></rdf:Description></rdf:RDF></metadata></svg>