<?xml version="1.0" encoding="UTF-8"?><!DOCTYPE svg PUBLIC "-//W3C//DTD SVG 1.1//EN" "http://www.w3.org/Graphics/SVG/1.1/DTD/svg11.dtd"><svg xmlns="http://www.w3.org/2000/svg" xmlns:xlink="http://www.w3.org/1999/xlink" version="1.1" id="Portofolio" x="0px" y="0px" width="512px" height="512px" viewBox="0 0 512 512" xml:space="preserve"><path id="Background" fill="#FFD54F" d="M256.755 0C397.591 0 512 114.749 512 256c0 141.25-114.409 256-255.245 256C115.916 512 1.506 397.25 1.506 256c0-141.251 114.41-256 255.249-256z"/><g id="Portofolio_1_"><path fill="#A6A6A6" d="M349.435 70.012h12.035v-7.427c0-3.712 2.776-6.498 6.479-6.498h25.303c3.7 0 6.479 2.785 6.479 6.498v7.427h12.032c3.704 0 6.482 2.787 6.482 6.5V82.7c0 3.715-2.778 21.971-6.482 21.971h-62.328c-3.7 0-6.479-18.256-6.479-21.971v-6.188c-.001-3.713 2.778-6.5 6.479-6.5z"/><path fill="#B88A2E" d="M278.467 85.486h204.265c12.343 0 22.526 10.212 22.526 22.59v308.535c0 12.377-10.184 22.59-22.526 22.59H278.467c-12.339 0-22.522-10.213-22.522-22.59V108.076c-.001-12.378 10.183-22.59 22.522-22.59z"/><path fill="#8D400E" d="M34.401 203.083h267.516c12.953 0 23.453 10.529 23.453 23.518V405.78c0 12.987-10.5 23.519-23.453 23.519H34.401c-12.949 0-23.449-10.531-23.449-23.519V226.601c0-12.989 10.5-23.518 23.449-23.518z"/><path fill="#A24205" d="M27.303 198.13h75.289v-29.708c0-6.808 5.554-12.067 12.342-12.067h92.568c6.788 0 12.338 5.259 12.338 12.067v29.708h74.979c12.961 0 23.454 10.832 23.454 23.518v179.491c0 12.689-10.493 23.518-23.454 23.518H27.303c-12.646 0-23.449-10.828-23.449-23.518V221.648c0-12.687 10.802-23.518 23.449-23.518zm92.569 0h82.692v-20.424c0-4.642-4.01-8.665-8.638-8.665H128.51c-4.629 0-8.639 4.023-8.639 8.665v20.424z"/><path fill="#97410A" d="M37.49 206.796h247.15c11.928 0 21.597 9.697 21.597 21.66V394.02c0 11.963-9.669 21.662-21.597 21.662H37.49c-11.933 0-21.604-9.699-21.604-21.662V228.456c0-11.963 9.672-21.66 21.604-21.66z"/><path fill="#B82E00" d="M319.198 251.356l.614-.617 1.544 1.238c-.614.001-1.234-.31-2.158-.621z"/><g fill="#4E5A62"><path d="M193.927 169.041h-65.416c-4.629 0-8.639 4.023-8.639 8.665v20.424h82.692v-20.424c0-4.642-4.009-8.665-8.637-8.665zm4.319 25.066h-74.364v-16.401c0-2.477 2.163-4.331 4.629-4.331h65.416c2.469 0 4.319 1.854 4.319 4.331v16.401z"/><path d="M314.113 201.056c-4.938-4.953-11.729-7.738-19.135-7.738h-70.966v-25.685c0-8.974-7.403-16.401-16.352-16.401h-92.568c-9.258 0-16.351 7.427-16.351 16.401v25.685h-71.28C12.345 193.318 0 205.698 0 220.859v179.49c0 10.521 6.172 19.804 15.431 24.757 4.935 4.952 11.722 7.735 19.13 7.735h267.517c15.12 0 27.462-12.688 27.462-27.85v-179.18c-.001-10.52-6.171-20.113-15.427-24.755zm11.108 203.936c0 12.996-10.493 23.518-23.144 23.518H34.561c-6.789 0-12.652-2.787-16.661-7.118-8.023-3.715-13.887-11.756-13.887-21.042V220.86c0-12.687 10.802-23.518 23.449-23.518h75.289v-29.708c0-6.809 5.554-12.067 12.342-12.067h92.568c6.788 0 12.338 5.259 12.338 12.067v29.708h74.979c6.482 0 12.652 2.785 16.665 7.119 8.022 3.713 13.577 12.067 13.577 21.352v179.179z"/></g><path fill="#C93" d="M278.467 85.486h204.265c3.086 0 5.863.619 8.332 1.549 4.935 4.332 8.328 10.521 8.328 17.637v308.534c0 12.378-10.181 22.591-22.522 22.591H272.297c-2.776 0-5.555-.618-8.024-1.545-5.244-4.335-8.328-10.523-8.328-17.641V108.076c-.001-12.378 10.183-22.59 22.522-22.59z"/><path fill="#B88A2E" d="M342.955 85.486h74.98c-.31 3.404-2.778 21.354-6.173 21.354h-62.328c-3.393 0-6.168-17.95-6.479-21.354z"/><path fill="#CFCFCF" d="M269.521 107.148l212.901-12.069 18.516 320.294-213.211 12.377z"/><path fill="#E6E6E6" d="M291.119 94.46l212.592 15.473-22.832 320.293-212.902-15.471z"/><path fill="#B8B8B8" d="M349.435 70.012h12.035v-7.427c0-3.712 2.776-6.498 6.479-6.498h25.61c1.542 1.238 2.469 3.094 2.469 4.952v6.499c0 .309 0 2.166-.307 2.475h16.66c1.234 1.238 2.16 3.096 2.16 4.953v6.497c0 3.404-2.778 21.973-6.478 21.973h-60.479c-2.778-4.642-4.63-17.639-4.63-20.735v-6.188c.001-3.714 2.78-6.501 6.481-6.501z"/><path fill="#CCC" d="M360.235 70.012h1.234v-7.427a6.32 6.32 0 0 1 4.936-6.189h25.923c1.538.93 2.158 2.785 2.158 4.643V70.323H410.837c1.544 1.238 2.469 2.785 2.469 4.643v6.497c0 3.404-2.777 20.116-5.862 21.973h-59.858c-2.778-4.642-4.63-17.639-4.63-20.735v-6.188a6.319 6.319 0 0 1 4.938-6.189h12.342v-.312z"/><path fill="#ED2F59" d="M300.682 283.231c-1.233 0-2.464-.308-3.393-1.238-.925-.928-1.541-2.166-1.541-3.404s1.541-2.165 4.32-3.403c2.469-.929 5.553-2.167 8.946-3.095 3.703-.927 7.098-1.549 10.184-2.477 3.394-.927 5.862-1.238 7.402-1.854 0-2.165 0-5.57.312-10.833 0-4.95.308-10.52.924-17.021.618-6.187 1.234-12.684 2.163-19.186.924-6.808 2.159-12.997 3.699-18.567 1.545-5.57 3.395-9.901 5.553-13.616 2.162-3.712 4.631-5.57 7.718-5.57 2.466 0 4.625 1.547 6.788 4.332 1.851 2.785 3.7 6.5 4.935 10.831 1.544 4.334 2.778 9.285 3.704 14.546.926 5.57 1.851 10.52 2.469 15.78.616 4.953.926 9.284 1.234 13.31.307 4.332.616 7.119.927 8.974 2.158-.927 4.318-1.855 6.477-2.475 2.16-.618 4.628-.928 7.098-.928 1.851 0 2.776.31 3.396.928.614.62.924 1.854.924 3.403 0 .927-.924 1.854-2.159 2.787-1.545.928-3.396 1.855-5.245 2.782-1.854.622-3.703 1.238-5.558 1.86-1.85.616-3.084.927-4.009 1.545.311 3.715.925 8.973 1.849 15.476.621 6.498 1.855 13.305 2.78 20.424 1.234 6.809 2.779 13.305 4.317 19.492 1.545 6.191 3.086 10.833 5.249 13.928v-.311c1.231.931 3.085 2.169 4.624 3.096 1.855 1.238 2.779 2.784 2.779 4.645-.31.927-.924 1.854-1.544 2.781-.925 1.238-1.85 1.55-3.084 1.55-3.086 0-5.555-1.55-8.024-4.643-2.469-3.095-4.628-7.429-6.477-12.378-2.159-4.953-3.704-10.833-4.938-16.709-1.541-6.191-2.469-12.071-3.394-17.954-.927-5.88-1.852-11.138-2.161-16.091-.614-4.638-.925-8.353-1.234-10.829-3.704 1.854-7.712 3.715-11.416 5.258-4.01 1.55-7.714 3.404-11.725 4.953 0 1.55 0 4.953.308 10.524.31 5.258.31 10.829.31 17.02 0 3.404 0 6.497-.31 9.9 0 3.095-.308 5.882-.926 8.358-.31 2.781-.924 4.642-1.544 6.186-.924 1.549-1.849 2.477-3.084 2.477-2.469 0-4.01-1.238-4.32-3.715-.614-2.471-.924-4.638-.924-6.496 0-6.81.31-13.617.616-20.115.308-6.808.618-13.614.618-20.424-1.545.618-3.394 1.238-5.553 1.856-2.469.62-4.63 1.238-7.1 1.858-2.776.927-4.937 1.545-7.405 1.856-2.161.616-4.009.616-5.555.616zm46.593-90.052c-1.541 0-3.086 2.477-4.628 7.736-1.234 5.262-2.465 11.761-3.396 19.188-1.234 7.426-1.849 15.472-2.465 23.518-.618 8.046-.928 14.854-.928 20.425 3.703-1.546 7.407-3.095 11.11-4.949 3.7-1.86 7.404-3.404 11.108-4.953l-1.546-18.88c0-1.544-.31-4.638-.924-9.28-.311-4.643-.924-9.285-1.851-14.238a476.319 476.319 0 0 0-2.777-12.997c-1.233-3.712-2.468-5.57-3.703-5.57zm45.667 5.261c0-3.095 1.544-4.642 4.32-4.642 1.852 0 3.394 2.166 4.317 5.88.929 3.713 1.545 8.044 1.854 12.998.305 4.951.614 9.593.614 14.235v8.664c.62-3.094 1.546-6.807 2.78-11.14 1.234-4.332 2.773-8.354 4.934-12.377 2.164-4.023 4.629-7.119 7.408-9.904 2.772-2.785 6.477-4.023 10.491-4.023 4.934 0 8.021 1.549 9.256 5.262 1.542 3.404 2.162 7.116 2.162 11.14 0 5.88-.62 11.453-1.546 17.022l-3.703 16.71c4.318 0 9.257.62 14.195 1.237 5.244.928 9.872 2.782 13.882 4.953 4.013 2.166 7.717 5.259 10.491 8.974 2.779 3.71 4.014 8.353 4.014 13.923 0 4.953-1.234 9.906-4.324 14.548-2.772 4.949-6.477 8.975-11.107 12.995-4.317 3.715-9.256 6.809-14.501 8.975-5.243 2.477-10.181 3.403-14.809 3.403-1.545 0-3.396-.307-5.244-.616-2.16-.311-4.318-1.238-6.174-2.167-2.158-.928-3.703-1.858-5.244-3.404-1.543-1.238-2.159-2.787-2.159-4.642 0-3.093 1.541-4.642 4.629-4.642l3.085.927c3.394 3.404 7.711 5.265 12.957 5.265 3.396 0 7.406-.622 11.417-2.477 4.012-1.86 7.407-4.026 10.802-6.81 3.083-3.097 5.862-6.191 8.02-9.906 1.853-3.708 3.087-7.423 3.087-11.138s-1.234-7.12-3.396-9.591c-2.16-2.787-5.242-4.644-8.332-6.191-3.394-1.549-7.093-2.783-10.797-3.405a41.474 41.474 0 0 0-10.181-1.238l-3.086.311c-.311.928-.929 2.166-1.853 4.333-.617 1.854-1.852 3.715-2.775 5.569-1.234 1.549-2.47 3.403-3.704 4.642s-2.78 2.166-4.011 2.166c-2.162 0-4.012-1.238-4.938-3.093-.925-2.166-1.543-4.026-1.543-5.88 0-3.404 1.234-6.499 3.703-8.975 2.16-2.477 4.939-4.642 7.712-5.88 2.47-6.809 4.32-13.617 5.556-20.735 1.234-6.808.924-14.233-.928-21.971-3.082.311-6.166 2.477-8.636 5.88a53.946 53.946 0 0 0-5.864 12.688c-1.849 5.263-3.084 10.833-4.013 17.02-.926 6.19-1.851 12.381-2.465 18.258-.311 5.88-.62 11.144-.931 16.093-.304 4.642-.304 8.356-.304 10.522 0 1.549.304 3.403.304 6.19.311 2.473.62 5.261.62 8.042 0 3.099-.62 6.191-1.234 8.667-.924 2.784-2.469 4.022-4.938 4.022-.924 0-1.849-.308-2.466-.928-.928-.929-1.234-1.549-1.234-2.477-1.544-18.876-2.468-37.755-3.087-56.631-.614-18.569-1.539-37.444-3.083-56.631z"/><path fill="#959595" d="M378.13 59.801c2.162 0 4.015 1.549 4.015 3.714 0 2.166-1.853 4.023-4.015 4.023-2.158 0-4.008-1.857-4.008-4.023 0-2.165 1.85-3.714 4.008-3.714z"/><path fill="#A6A6A6" d="M380.6 60.42c.927.93 1.545 1.856 1.545 3.095 0 2.166-1.853 4.023-4.015 4.023-.614 0-.924 0-1.234-.311-.924-.619-1.538-1.855-1.538-3.093 0-2.165 1.849-3.714 4.008-3.714h1.234z"/><path fill="#4E5A62" d="M492.295 84.248c-3.084-1.236-6.17-1.855-9.563-1.855H421.33v-5.88c0-5.262-4.01-9.285-8.948-9.594h-9.566v-4.333c0-5.259-4.01-9.282-8.948-9.593h-25.917c-.924 0-1.544 0-2.159.311-4.32.928-7.407 4.642-7.407 9.282v4.333h-8.948c-.925 0-1.541 0-2.159.309-4.32.93-7.404 4.643-7.404 9.285v5.88H278.47c-14.194 0-25.606 11.451-25.606 25.684v308.535c0 7.734 3.39 15.164 9.258 20.113 4.624 3.715 10.486 5.574 16.349 5.574h204.265c14.191 0 25.608-11.451 25.608-25.688V108.076c-.004-10.52-6.483-20.114-16.049-23.828zm12.963 332.363c0 12.377-10.184 22.59-22.526 22.59H278.467c-5.552 0-10.49-1.854-14.194-4.949-5.244-4.335-8.328-10.523-8.328-17.641V108.076c0-12.378 10.184-22.59 22.522-22.59h64.799c-.311-1.238-.311-2.166-.311-2.785v-6.188a6.319 6.319 0 0 1 4.938-6.189c.616-.311.927-.311 1.541-.311h12.035v-7.427a6.32 6.32 0 0 1 4.936-6.189c.62-.309.928-.309 1.544-.309h25.61c3.394.309 6.172 3.094 6.172 6.498v7.427h12.65c3.086.311 5.864 3.096 5.864 6.5v6.188c0 .619 0 1.547-.31 2.785h64.796c3.086 0 5.863.619 8.332 1.549 8.328 3.404 14.194 11.448 14.194 21.042v308.534z"/><path fill="#FC9" d="M462.679 455.604l1.229-32.497 43.197 16.405z"/><path fill="#FC9" d="M462.679 455.604l1.229-32.497 3.395 1.238c1.544 1.549 4.014 4.025 4.628 6.191 1.234 2.783-4.935 6.188-5.553 8.664-.618 2.476 5.553 5.568 6.481 7.736.306 1.238-3.704 4.953-6.787 7.429l-3.393 1.239z"/><path fill="#4D4D4D" d="M496.923 435.486l10.182 4.026-10.182 3.715z"/><path fill="#E6B800" d="M462.679 455.604H108.455c-18.204 0-18.204-32.497 0-32.497h355.453c1.234 4.336 6.173 6.503 6.173 8.356 0 1.55-6.173 4.333-6.173 8.048s7.717 6.808 6.173 8.046-4.321 4.642-7.402 8.047z"/><path fill="#FC0" d="M467.612 433.94c-1.853 1.546-3.704 3.406-3.704 5.571 0 1.854 2.47 3.715 4.322 5.258H131.904V433.94h335.708z"/><path fill="#E6B800" d="M462.679 455.604H131.904V444.77H468.23c1.234 1.238 2.466 2.168 1.851 2.788-1.544 1.238-4.321 4.641-7.402 8.046z"/><path fill="#CFA600" d="M131.904 455.604h-9.873v-32.497h9.873z"/><path fill="#C30" d="M122.031 455.604h-13.576c-18.515 0-18.204-32.497 0-32.497h13.576v32.497z"/><path fill="#4E5A62" stroke="#4E5A62" stroke-width="0" stroke-linecap="round" stroke-linejoin="round" d="M508.34 436.417l-10.183-3.715-33.32-12.376c-.312-.312-.621-.312-.929-.312H108.455c-17.279 0-21.908 23.828-11.111 34.352 2.778 3.093 6.788 4.642 11.111 4.642h354.224c.303 0 .612-.311.924-.311l34.251-12.378 10.486-4.021c1.235-.311 2.16-1.549 2.16-2.787 0-1.548-.925-2.476-2.16-3.094zm-11.417 6.81l-30.851 11.14-3.394 1.238H108.455c-18.515 0-18.204-32.497 0-32.497H463.908l3.395 1.238 29.62 11.141 10.183 4.025-10.183 3.715z"/></g><metadata><rdf:RDF xmlns:rdf="http://www.w3.org/1999/02/22-rdf-syntax-ns#" xmlns:rdfs="http://www.w3.org/2000/01/rdf-schema#" xmlns:dc="http://purl.org/dc/elements/1.1/"><rdf:Description about="https://iconscout.com/legal#licenses" dc:title="portofolio" dc:description="portofolio" dc:publisher="Iconscout" dc:date="2017-09-22" dc:format="image/svg+xml" dc:language="en"><dc:creator><rdf:Bag><rdf:li>Graphiqa Stock</rdf:li></rdf:Bag></dc:creator></rdf:Description></rdf:RDF></metadata></svg>