<?xml version="1.0" encoding="UTF-8"?><!DOCTYPE svg PUBLIC "-//W3C//DTD SVG 1.1//EN" "http://www.w3.org/Graphics/SVG/1.1/DTD/svg11.dtd"><svg xmlns="http://www.w3.org/2000/svg" xmlns:xlink="http://www.w3.org/1999/xlink" version="1.1" id="Prototyping" x="0px" y="0px" width="512px" height="512px" viewBox="0 0 512 512" xml:space="preserve"><path id="Background" fill="#AFBD77" d="M256 0c141.355 0 256 114.645 256 256S397.355 512 256 512 0 397.355 0 256 114.645 0 256 0z"/><g id="Prototyping_1_"><path fill="#4E5A62" d="M429.326 70.623c2.432 2.431 5.212 4.862 7.991 7.293h-272.32c-2.086 0-3.825-1.385-3.825-3.472V59.16c0-2.087 1.738-3.821 3.825-3.821h44.456v-9.032L101.428 47v71.555c0 2.087-1.738 3.826-3.82 3.826s-3.821-1.739-3.821-3.826V43.532c0-2.087 1.739-3.825 3.821-3.825h.348l115.322-.692c2.082 0 3.816 1.738 3.816 3.472V59.16c0 1.738-1.734 3.472-3.816 3.472h-44.813v7.99h260.861z"/><path fill="#BDC6CB" d="M443.221 144.259c12.159 5.907 20.842 18.759 20.842 33.346v227.517c0 20.493-17.021 37.516-37.516 37.516H48.979c-10.073 0-19.104-4.171-26.054-10.771 5.21 2.78 10.771 4.17 16.678 4.17h377.569c20.493 0 37.511-17.021 37.511-37.515V171.01c0-10.421-4.514-20.151-11.462-26.751z"/><path fill="#DDE8EE" d="M39.603 133.494h377.569c20.493 0 37.511 16.672 37.511 37.516v227.512c0 20.493-17.018 37.515-37.511 37.515H39.603c-20.494 0-37.516-17.021-37.516-37.515V171.01c0-20.843 17.022-37.516 37.516-37.516z"/><path fill="#869292" d="M12.161 423.877c-.35-.346-.35-.693-.693-1.042h89.96c-10.765-3.124-19.104-13.196-19.104-25.008V170.313c0-11.812 8.339-21.884 19.104-25.008H12.504v-.349h.348v-.348h.349v-.349h403.971c14.242 0 26.049 11.811 26.049 26.053v227.515c0 14.243-11.807 26.05-26.049 26.05H12.161z"/><path fill="#DDE8EE" d="M118.451 157.46h287.606c13.895 0 25.008 11.462 25.008 25.356v202.852c0 13.549-11.113 25.013-25.008 25.013H118.451c-13.899 0-25.356-11.464-25.356-25.013V182.816c0-13.894 11.457-25.356 25.356-25.356z"/><path fill="#5F5F5F" d="M244.886 297.439c-1.041 0-2.087-.344-2.779-1.039-.697-.694-1.041-1.391-1.041-2.781 0-.691 1.041-1.39 3.123-2.425 2.087-.699 4.518-1.396 7.298-2.087 2.431-.694 5.21-1.39 7.642-2.089 2.774-.691 4.513-1.035 5.554-1.386 0-1.738 0-4.517.35-8.337 0-3.822.348-8.334.691-12.853.35-4.862 1.047-9.725 1.738-14.935.692-5.21 1.739-9.724 2.78-14.242 1.041-4.169 2.432-7.642 4.17-10.417 1.733-2.779 3.82-4.174 5.903-4.174 2.082 0 3.82 1.046 5.21 3.129 1.39 2.431 2.779 5.21 3.82 8.339 1.391 3.472 2.083 7.292 2.779 11.458 1.042 3.826 1.391 7.99 2.083 11.815.349 3.816.697 7.293 1.041 10.417 0 3.129.35 5.211.35 6.601 1.738-.698 3.472-1.042 5.21-1.733 1.739-.698 3.473-.698 5.559-.698 1.391 0 2.084 0 2.432.698.344.691.693 1.384.693 2.43 0 1.038-.693 1.734-1.734 2.433-1.047.691-2.436 1.384-3.826 1.733-1.384.696-2.774 1.389-4.165 1.739-1.389.343-2.43.691-3.127 1.039.348 2.78.697 6.944 1.389 11.812.35 5.21 1.391 10.421 2.088 15.632 1.041 5.205 2.082 10.416 3.123 15.283 1.39 4.514 2.78 7.986 4.169 10.416v-.344c1.043 1.042 2.432 1.734 3.473 2.433 1.391 1.04 2.083 2.082 2.431 3.82-.348.691-.691 1.391-1.389 2.082-.692.698-1.391 1.042-2.083 1.042-2.432 0-4.518-1.042-6.601-3.473-1.738-2.432-3.473-5.561-4.861-9.725-1.391-3.82-2.779-7.99-3.821-12.503-1.041-4.866-1.738-9.381-2.432-13.899-.696-4.512-1.389-8.683-1.738-12.155-.348-3.82-.691-6.601-1.041-8.339-2.779 1.395-5.903 2.78-8.683 3.827-3.128 1.384-5.907 2.43-9.031 3.815 0 1.396 0 3.82.349 7.991 0 4.169.344 8.339.344 13.199 0 2.433-.344 5.211-.344 7.643 0 2.431-.349 4.513-.697 6.253-.35 2.082-.692 3.472-1.39 4.86-.692 1.042-1.39 1.738-2.432 1.738-1.738 0-2.779-1.04-3.123-2.778-.349-1.738-.697-3.473-.697-4.862 0-5.211 0-10.421.349-15.632.349-4.862.349-10.072.349-15.631-1.045.696-2.436 1.039-4.169 1.388-1.738.698-3.473 1.042-5.56 1.738-1.738.351-3.82 1.042-5.559 1.39-1.736.344-3.126.344-4.167.344zm35.777-69.122c-1.041 0-2.431 2.087-3.477 6.257-1.041 3.816-2.083 8.683-2.774 14.586-.697 5.559-1.391 11.811-1.738 17.713-.693 6.257-1.042 11.468-1.042 15.981 3.124-1.046 5.903-2.432 8.684-3.819 2.779-1.391 5.902-2.781 8.683-3.823l-1.042-14.585c-.349-1.046-.692-3.477-1.041-6.954-.349-3.468-.697-7.293-1.39-10.766-.697-3.82-1.39-7.292-2.083-10.073-.698-3.122-1.739-4.517-2.78-4.517z"/><path fill="#A5A8A9" d="M110.112 169.615h14.591c1.738 0 3.123 1.395 3.123 2.779v15.633a3.109 3.109 0 0 1-3.123 3.127h-14.591a3.116 3.116 0 0 1-3.128-3.127v-15.633c-.001-1.384 1.394-2.779 3.128-2.779z"/><path fill="#A5A8A9" d="M110.112 194.627h14.591c1.738 0 3.123 1.389 3.123 2.779v15.627a3.11 3.11 0 0 1-3.123 3.129h-14.591a3.118 3.118 0 0 1-3.128-3.129v-15.627c-.001-1.389 1.394-2.779 3.128-2.779z"/><path fill="#A5A8A9" d="M110.112 219.639h14.591c1.738 0 3.123 1.386 3.123 2.775v15.632a3.106 3.106 0 0 1-3.123 3.123h-14.591a3.113 3.113 0 0 1-3.128-3.123v-15.632c-.001-1.389 1.394-2.775 3.128-2.775z"/><path fill="#A5A8A9" d="M110.112 244.646h14.591a3.108 3.108 0 0 1 3.123 3.128v15.283a3.11 3.11 0 0 1-3.123 3.124h-14.591a3.117 3.117 0 0 1-3.128-3.124v-15.283a3.114 3.114 0 0 1 3.128-3.128z"/><path fill="#A5A8A9" d="M110.112 269.653h14.591a3.111 3.111 0 0 1 3.123 3.129v15.283a3.114 3.114 0 0 1-3.123 3.129h-14.591a3.121 3.121 0 0 1-3.128-3.129v-15.283a3.117 3.117 0 0 1 3.128-3.129z"/><path fill="#A5A8A9" d="M110.112 294.666h14.591a3.11 3.11 0 0 1 3.123 3.124v15.632c0 1.39-1.384 2.778-3.123 2.778h-14.591c-1.734 0-3.128-1.389-3.128-2.778V297.79a3.116 3.116 0 0 1 3.128-3.124z"/><path fill="#A5A8A9" d="M110.112 319.672h14.591a3.111 3.111 0 0 1 3.123 3.129v15.627c0 1.39-1.384 2.78-3.123 2.78h-14.591c-1.734 0-3.128-1.391-3.128-2.78v-15.627a3.117 3.117 0 0 1 3.128-3.129z"/><path fill="#A5A8A9" d="M110.112 344.68h14.591a3.111 3.111 0 0 1 3.123 3.129v15.632c0 1.39-1.384 2.78-3.123 2.78h-14.591c-1.734 0-3.128-1.391-3.128-2.78v-15.632a3.117 3.117 0 0 1 3.128-3.129z"/><path fill="#A5A8A9" d="M139.293 169.615h14.586c1.734 0 3.128 1.395 3.128 2.779v15.633a3.117 3.117 0 0 1-3.128 3.127h-14.586a3.114 3.114 0 0 1-3.128-3.127v-15.633c0-1.384 1.39-2.779 3.128-2.779z"/><path fill="#A5A8A9" d="M139.293 194.627h14.586c1.734 0 3.128 1.389 3.128 2.779v15.627a3.119 3.119 0 0 1-3.128 3.129h-14.586a3.116 3.116 0 0 1-3.128-3.129v-15.627c0-1.389 1.39-2.779 3.128-2.779z"/><path fill="#A5A8A9" d="M139.293 219.639h14.586c1.734 0 3.128 1.386 3.128 2.775v15.632a3.114 3.114 0 0 1-3.128 3.123h-14.586a3.11 3.11 0 0 1-3.128-3.123v-15.632c0-1.389 1.39-2.775 3.128-2.775z"/><path fill="#A5A8A9" d="M139.293 244.646h14.586a3.115 3.115 0 0 1 3.128 3.128v15.283a3.118 3.118 0 0 1-3.128 3.124h-14.586a3.114 3.114 0 0 1-3.128-3.124v-15.283a3.112 3.112 0 0 1 3.128-3.128z"/><path fill="#A5A8A9" d="M139.293 269.653h14.586a3.118 3.118 0 0 1 3.128 3.129v15.283a3.122 3.122 0 0 1-3.128 3.129h-14.586a3.119 3.119 0 0 1-3.128-3.129v-15.283a3.116 3.116 0 0 1 3.128-3.129z"/><path fill="#A5A8A9" d="M139.293 294.666h14.586a3.117 3.117 0 0 1 3.128 3.124v15.632c0 1.39-1.395 2.778-3.128 2.778h-14.586c-1.738 0-3.128-1.389-3.128-2.778V297.79a3.114 3.114 0 0 1 3.128-3.124z"/><path fill="#A5A8A9" d="M139.293 319.672h14.586a3.118 3.118 0 0 1 3.128 3.129v15.627c0 1.39-1.395 2.78-3.128 2.78h-14.586c-1.738 0-3.128-1.391-3.128-2.78v-15.627a3.116 3.116 0 0 1 3.128-3.129z"/><path fill="#A5A8A9" d="M139.293 344.68h14.586a3.118 3.118 0 0 1 3.128 3.129v15.632c0 1.39-1.395 2.78-3.128 2.78h-14.586c-1.738 0-3.128-1.391-3.128-2.78v-15.632a3.115 3.115 0 0 1 3.128-3.129z"/><path fill="#A5A8A9" d="M120.881 370.385h14.586a3.115 3.115 0 0 1 3.129 3.128v15.632c0 1.39-1.39 2.775-3.129 2.775h-14.586c-1.738 0-3.127-1.386-3.127-2.775v-15.632a3.113 3.113 0 0 1 3.127-3.128z"/><path fill="#A5A8A9" d="M130.954 379.417h14.586c1.738 0 3.128 1.389 3.128 2.778v15.632a3.114 3.114 0 0 1-3.128 3.124h-14.586a3.118 3.118 0 0 1-3.129-3.124v-15.632c0-1.389 1.395-2.778 3.129-2.778z"/><path fill="#657280" d="M42.382 264.791c10.766 0 19.448 8.683 19.448 19.454 0 10.421-8.683 19.452-19.448 19.452-10.769 0-19.458-9.031-19.458-19.452.001-10.771 8.689-19.454 19.458-19.454z"/><path fill="#5E6976" d="M42.382 273.13c6.247 0 11.109 4.862 11.109 11.115 0 5.902-4.862 10.765-11.109 10.765-5.908 0-10.769-4.862-10.769-10.765 0-6.253 4.862-11.115 10.769-11.115z"/><path fill="#DDE8EE" d="M510.609 140.787c-.697 108.024-1.045 216.053-1.39 324.078-9.031 9.03-18.76 8.339-29.177 0l1.391-324.422 11.807-29.874h5.21l12.159 30.218z"/><path fill="#CCD6DC" d="M497.758 471.115c-5.56 1.047-11.462-1.384-17.715-6.25l1.391-324.422 8.683-21.888 9.031 21.888-1.39 330.672z"/><path fill="#869292" d="M510.609 140.787v1.39l-29.175-.349v-1.385l11.806-29.874h5.21z"/><path fill="#BDBFC1" d="M489.419 120.642l3.821-10.073h5.21l4.17 10.417z"/><path fill="#4E5A62" d="M72.949 117.518h50.015c3.127 0 5.559 2.431 5.559 5.555v10.421H67.391v-10.421c0-3.124 2.429-5.555 5.558-5.555z"/><path fill="#4E5A62" d="M39.603 131.063h377.569c5.21 0 10.072 1.041 14.935 3.124 4.518 1.738 8.683 4.518 12.503 7.99 6.253 3.477 11.812 8.339 15.633 14.586 3.82 6.256 5.903 13.202 5.903 20.842v227.517c0 11.112-4.515 20.842-11.463 28.134-7.293 7.293-17.365 11.463-28.136 11.463H48.979c-5.21 0-10.073-1.042-14.935-2.78-4.513-1.733-8.688-4.512-12.503-7.983-6.257-3.478-11.812-8.689-15.633-14.592C2.087 413.11 0 406.161 0 398.521V171.01c0-11.118 4.519-20.843 11.468-28.136 7.292-7.298 17.365-11.811 28.135-11.811zm377.569 4.513H39.603c-9.729 0-18.412 4.169-24.663 10.421C8.339 152.25 4.519 161.28 4.519 171.01v227.512c0 6.601 1.739 12.851 5.21 18.411 3.472 5.559 8.333 10.071 14.242 13.199l.693.346c3.128 3.127 6.95 5.559 11.114 7.297 4.169 1.734 8.688 2.431 13.201 2.431h377.568c9.729 0 18.412-3.82 24.663-10.073 6.601-6.601 10.421-15.288 10.421-25.01V177.605c0-6.595-1.738-13.201-5.21-18.411-3.473-5.555-8.334-10.073-14.241-13.197l-.693-.344c-3.128-3.128-6.948-5.559-11.113-7.297-4.171-1.738-8.688-2.78-13.202-2.78z"/><path fill="#4E5A62" d="M512 142.177l-1.391 322.688c0 .348 0 1.044-.348 1.044-2.083 2.084-3.821 3.473-5.903 4.515-2.088 1.39-4.17 2.082-6.257 2.43-3.123.351-6.252 0-9.376-1.04-3.127-1.39-6.251-3.128-9.728-5.904-.345-.348-.345-.696-.345-1.044l1.39-323.037v-1.734l7.986-19.801v-.344l.696-2.087 3.124-7.986c.349-.698 1.046-1.045 1.738-1.045l4.862.348c.697 0 1.041.349 1.39.698l4.169 10.417L512 140.094V142.177zm-4.17 321.994l1.041-321.994v-1.39l-7.642-19.453-3.821-9.375h-3.127l-2.775 6.944-.697 2.083v.349l-7.99 19.453v1.041l-1.385 322.343c2.774 2.084 5.554 3.822 8.334 4.515 2.431 1.046 5.211 1.39 7.99 1.046 1.733-.35 3.472-.698 5.21-1.738 1.39-1.044 3.124-2.086 4.862-3.824z"/></g><metadata><rdf:RDF xmlns:rdf="http://www.w3.org/1999/02/22-rdf-syntax-ns#" xmlns:rdfs="http://www.w3.org/2000/01/rdf-schema#" xmlns:dc="http://purl.org/dc/elements/1.1/"><rdf:Description about="https://iconscout.com/legal#licenses" dc:title="prototyping" dc:description="prototyping" dc:publisher="Iconscout" dc:date="2017-09-22" dc:format="image/svg+xml" dc:language="en"><dc:creator><rdf:Bag><rdf:li>Graphiqa Stock</rdf:li></rdf:Bag></dc:creator></rdf:Description></rdf:RDF></metadata></svg>