<?xml version="1.0" encoding="UTF-8"?><!DOCTYPE svg PUBLIC "-//W3C//DTD SVG 1.1//EN" "http://www.w3.org/Graphics/SVG/1.1/DTD/svg11.dtd"><svg xmlns="http://www.w3.org/2000/svg" xmlns:xlink="http://www.w3.org/1999/xlink" version="1.1" id="Responsive_Design" x="0px" y="0px" width="512px" height="512px" viewBox="0 0 512 512" xml:space="preserve"><path id="Background" fill="#CFC" d="M256 0c141.355 0 256 114.645 256 256S397.355 512 256 512 0 397.355 0 256 114.645 0 256 0z"/><g id="Responsive_Design_1_"><path fill="#757575" d="M427.067 418.962v1.503c0 16.205-39.917 29.112-89.135 29.112-49.222 0-89.138-12.907-89.138-29.112 0-.603 0-.9.301-1.503-.301-.297-.301-.899-.301-1.497 0-15.908 39.916-29.113 89.138-29.113 49.218 0 89.135 13.205 89.135 29.113v1.497z"/><path fill="#696969" d="M427.067 418.962v1.503c0 16.205-39.917 29.112-89.135 29.112h-6.305v-60.925c2.104-.301 4.205-.301 6.305-.301 49.218 0 89.135 13.205 89.135 29.113v1.498z"/><path fill="#757575" d="M331.628 388.652c2.104-.301 4.205-.301 6.305-.301 47.716 0 86.432 12.306 89.135 27.61-2.703 15.306-41.419 27.311-89.135 27.311h-6.305v-54.62z"/><ellipse fill="#8D8D8D" cx="337.933" cy="414.161" rx="89.135" ry="29.111"/><path fill="#7F7F7F" d="M337.933 385.352c49.218 0 89.135 12.903 89.135 28.812 0 16.205-39.917 29.109-89.135 29.109h-6.305v-57.921h6.305z"/><path fill="#CCC" d="M305.82 329.527h64.523v77.431H305.82z"/><path fill="#B8B8B8" d="M370.343 371.247v35.711h-38.715v-35.711z"/><path fill="#B8B8B8" d="M310.619 334.632h56.126v67.527h-56.126z"/><path fill="#A6A6A6" d="M366.745 371.247v30.912h-35.117v-30.912z"/><path fill="#A9ABAE" d="M176.469 148.257h324.427c3.301 0 6.004 2.701 6.004 6.002v210.983c0 3.302-2.703 6.005-6.004 6.005H176.469c-3.301 0-6-2.703-6-6.005V154.259c0-3.301 2.698-6.002 6-6.002z"/><path fill="#699" d="M189.373 156.962h304.322c2.397 0 4.498 2.1 4.498 4.801v191.174c0 2.703-2.101 4.803-4.498 4.803h-309.72c-2.703 0-4.803-2.1-4.803-4.803V167.165c-.001-5.703 4.502-10.203 10.201-10.203z"/><path fill="#CCC" d="M338.833 358.941a4.502 4.502 0 1 1 0 9.004 4.502 4.502 0 0 1 0-9.004z"/><circle fill="#B3B3B3" cx="338.833" cy="363.444" r="3.301"/><path fill="#366" d="M198.376 163.264h285.711c2.401 0 4.201 1.801 4.201 4.201v179.77c0 2.401-1.8 4.205-4.201 4.205H193.276c-2.402 0-4.205-1.804-4.205-4.205V172.567c0-5.103 4.205-9.303 9.305-9.303z"/><path fill="#E6E6E6" d="M217.586 185.772h191.176v156.362H217.586z"/><path fill="#6FC" d="M193.875 185.473h16.355v156.445h-16.355z"/><path fill="#E6E6E6" d="M414.46 186.674h39.615v154.857H414.46z"/><path fill="#E6E6E6" d="M463.079 185.473h16.356v156.445h-16.356z"/><path fill="#CCC" d="M417.465 189.975h34.213v44.117h-34.213z"/><path fill="#CCC" d="M417.465 238.894h34.192v25.219h-34.192z"/><path fill="#CCC" d="M417.465 270.707h34.192v16.006h-34.192z"/><path fill="#CCC" d="M417.465 292.313h34.213v44.419h-34.213z"/><path fill="#3C9" d="M464.883 189.975h5.101v5.1h-5.101v-5.1zm7.502 142.556h5.101v5.101h-5.101v-5.101zm-7.502 0h5.101v5.101h-5.101v-5.101zm7.502-6.903h5.101v5.401h-5.101v-5.401zm-7.502 0h5.101v5.401h-5.101v-5.401zm7.502-6.603h5.101v5.101h-5.101v-5.101zm-7.502 0h5.101v5.101h-5.101v-5.101zm7.502-6.904h5.101v5.101h-5.101v-5.101zm-7.502 0h5.101v5.101h-5.101v-5.101zm7.502-6.903h5.101v5.401h-5.101v-5.401zm-7.502 0h5.101v5.401h-5.101v-5.401zm7.502-6.603h5.101v5.104h-5.101v-5.104zm-7.502 0h5.101v5.104h-5.101v-5.104zm7.502-6.899h5.101v5.401h-5.101v-5.401zm-7.502 0h5.101v5.401h-5.101v-5.401zm7.502-6.904h5.101v5.401h-5.101v-5.401zm-7.502 0h5.101v5.401h-5.101v-5.401zm7.502-6.603h5.101v5.101h-5.101v-5.101zm-7.502 0h5.101v5.101h-5.101v-5.101zm7.502-6.903h5.101v5.401h-5.101v-5.401zm-7.502 0h5.101v5.401h-5.101v-5.401zm7.502-6.603h5.101v5.101h-5.101v-5.101zm-7.502 0h5.101v5.101h-5.101v-5.101zm7.502-6.904h5.101v5.104h-5.101v-5.104zm-7.502 0h5.101v5.104h-5.101v-5.104zm7.502-6.902h5.101v5.404h-5.101v-5.404zm-7.502 0h5.101v5.404h-5.101v-5.404zm7.502-6.602h5.101v5.103h-5.101v-5.103zm-7.502 0h5.101v5.103h-5.101v-5.103zm7.502-6.902h5.101v5.402h-5.101v-5.402zm-7.502 0h5.101v5.402h-5.101v-5.402zm7.502-6.903h5.101v5.401h-5.101v-5.401zm-7.502 0h5.101v5.401h-5.101v-5.401zm7.502-6.603h5.101v5.103h-5.101v-5.103zm-7.502 0h5.101v5.103h-5.101v-5.103zm7.502-6.902h5.101v5.402h-5.101v-5.402zm-7.502 0h5.101v5.402h-5.101v-5.402zm7.502-6.602h5.101v5.101h-5.101v-5.101zm-7.502 0h5.101v5.101h-5.101v-5.101zm7.502-6.904h5.101v5.103h-5.101v-5.103zm-7.502 0h5.101v5.103h-5.101v-5.103zm7.502-6.902h5.101v5.402h-5.101v-5.402zm-7.502 0h5.101v5.402h-5.101v-5.402zm7.502-6.602h5.101v5.1h-5.101v-5.1z"/><path fill="#999" d="M202.879 166.565h271.692v12.92H202.879z"/><circle fill="#B3B3B3" cx="211.883" cy="173.167" r="3.301"/><path fill="#B3B3B3" d="M228.69 169.866c1.819 0 3.301 1.478 3.301 3.301s-1.482 3.301-3.301 3.301a3.3 3.3 0 1 1 0-6.602z"/><path fill="#B3B3B3" d="M245.498 169.866c1.823 0 3.297 1.478 3.297 3.301s-1.474 3.301-3.297 3.301c-1.824 0-3.306-1.478-3.306-3.301s1.482-3.301 3.306-3.301z"/><path fill="#B3B3B3" d="M262.004 169.866c1.819 0 3.302 1.478 3.302 3.301s-1.482 3.301-3.302 3.301a3.301 3.301 0 0 1 0-6.602z"/><circle fill="#B3B3B3" cx="278.808" cy="173.167" r="3.301"/><circle fill="#B3B3B3" cx="295.615" cy="173.167" r="3.301"/><circle fill="#B3B3B3" cx="312.423" cy="173.167" r="3.301"/><circle fill="#B3B3B3" cx="329.23" cy="173.167" r="3.301"/><circle fill="#B3B3B3" cx="345.736" cy="173.167" r="3.301"/><path fill="#B3B3B3" d="M362.54 169.866a3.301 3.301 0 1 1 0 6.602 3.301 3.301 0 0 1 0-6.602z"/><circle fill="#B3B3B3" cx="379.348" cy="173.167" r="3.301"/><circle fill="#B3B3B3" cx="396.155" cy="173.167" r="3.301"/><circle fill="#B3B3B3" cx="412.661" cy="173.167" r="3.301"/><circle fill="#B3B3B3" cx="429.469" cy="173.167" r="3.301"/><path fill="#B3B3B3" d="M446.276 169.866c1.819 0 3.301 1.478 3.301 3.301s-1.481 3.301-3.301 3.301a3.301 3.301 0 1 1 0-6.602z"/><circle fill="#B3B3B3" cx="463.079" cy="173.167" r="3.301"/><path fill="#FC0" d="M313.322 217.885l19.808 11.404 19.808 11.405v46.218l-19.808 11.406-19.808 11.402-19.807-11.402-19.808-11.406v-46.218l19.808-11.405z"/><path fill="#FFAB00" d="M313.322 217.885l19.808 11.404 19.808 11.405v20.707h-79.231v-20.707l19.808-11.405z"/><path fill="#CCC" d="M313.021 197.477H311.82c-.599 0-1.201-.601-1.201-1.201 0-.9.603-1.201 1.201-1.5h2.705l.301.299H315.726c.599 0 1.201.601 1.201 1.201-.302.6-.603 1.201-1.502 1.201h-2.404zm-8.703-2.101c.603 0 1.2.601 1.502 1.201 0 .601-.603 1.201-1.201 1.201l-.301.299h-1.801l-.301.299c-.599 0-1.201-.598-1.201-1.199-.301-.601.302-1.201.899-1.201l.302-.301H303.417l.599-.299h.302zm-9.602 2.101c.598-.299 1.2.301 1.502.899 0 .601-.302 1.201-.904 1.502h-.598l-.603.299h-.298l-.301.301h-.599c-.603.299-1.2 0-1.502-.601-.301-.901 0-1.502.899-1.801h.302l.599-.299h.602l.599-.301h.302zm-9.603 3.301c.598-.299 1.498 0 1.799.601.301.6 0 1.5-.603 1.801h-.297l-.603.299h-.297l-.302.301-.301.299h-.599c-.603.301-1.201 0-1.502-.601-.302-.6 0-1.201.603-1.5l.297-.301h.302l.598-.299.302-.299h.301l.302-.301zm-8.703 4.802c.599-.299 1.196-.299 1.799.301.302.6 0 1.5-.603 1.801l-.297.299h-.301l-.302.299-.297.301-.302.299h-.301c-.599.6-1.502.301-1.799-.299-.302-.301-.302-1.201.297-1.5v-.301h.301l.603-.299.297-.301.302-.299h.301l.302-.301zm-8.104 6.002a1.916 1.916 0 0 1 1.799 0c.302.601.302 1.502 0 1.801l-.301.301-.298.299h-.301l-.301.301-.298.299-.301.299v.301c-.603.299-1.502.299-1.804-.301-.599-.299-.599-1.199 0-1.5l.302-.299.301-.301.302-.299.297-.301.301-.299h.302v-.301zm-6.905 7.203c.302-.601 1.201-.601 1.502-.299.599.601.599 1.201.298 1.801l-.298.299-.301.301-.301.299-.298.299-.301.301v.299c-.603.6-1.201.6-1.804.301-.599-.601-.599-1.201-.297-1.801l.297-.299.302-.301.301-.299.302-.301v-.299l.297-.301h.301zm-6.004 7.803c.301-.299.904-.601 1.502-.299.603.299.899 1.201.603 1.801l-.301.299-.302.301-.301.299v.299l-.297.601-.301.301c-.301.601-.899.601-1.498.299-.603-.299-.904-.9-.603-1.5v-.299l.301-.301.301-.299v-.301l.297-.299.301-.301.298-.601zm-4.799 9.004c.297-.601.9-.9 1.502-.601.598.301.896.899.598 1.5v.301l-.301.6v.299l-.297.301v.299l-.301.601c-.301.6-.904.899-1.502.6-.598-.301-.899-.899-.899-1.5l.301-.301v-.299l.301-.301v-.299l.297-.601v-.301l.301-.298zm-3.602 9.304c.301-.601.904-.9 1.502-.9.899.299 1.201.9.899 1.799v.301l-.301.299v.901l-.301.299v.301c0 .899-.896 1.199-1.498.899-.602 0-.903-.6-.903-1.5v-.301l.301-.299v-.601l.301-.301v-.897zm-1.799 9.903c0-.601.598-1.201 1.197-1.201.602.301 1.205.902 1.205 1.502v.299l-.301.299V257.502c0 .599-.602 1.201-1.502 1.201-.598 0-1.201-.603-.899-1.502V255.1l.3-.301zm-.603 9.904c0-.599.301-1.201 1.201-1.201.599 0 1.201.603 1.201 1.201v2.403c0 .899-.602 1.502-1.201 1.502-.598 0-1.201-.603-1.201-1.2v-2.705zm.603 10.205c0-.603.598-1.502 1.197-1.502.602 0 1.205.301 1.506.899V276.109l.297.302v.297c0 .899-.297 1.502-.9 1.502-.602.302-1.502-.301-1.502-.899v-.301l-.297-.599v-1.202l-.301-.301zm2.401 9.603c-.301-.599.301-1.201.9-1.498.598 0 1.201.297 1.502.899v.297l.297.302v.603l.301.598v.599c.297.603 0 1.201-.598 1.502-.603.302-1.205-.301-1.502-.899l-.301-.603v-.297l-.297-.302v-.598l-.301-.302v-.301zm3.599 9.304c-.301-.602 0-1.2.603-1.502.598-.301 1.498 0 1.799.603v.298l.301.301v.301l.301.298.301.301v.603c.297.599.297 1.498-.301 1.799-.603.302-1.502 0-1.803-.598v-.302l-.297-.301v-.302l-.301-.297-.301-.603v-.301l-.302-.298zm5.104 8.704c-.301-.301-.301-1.2.297-1.502.603-.599 1.502-.301 1.803.302l.302.301.297.599v.301l.301.302.302.297c.599.603.297 1.502 0 1.804-.603.297-1.502.297-1.804-.302h-.297v-.603l-.301-.297-.302-.302-.301-.301-.297-.297v-.302zm6.302 8.1c-.599-.599-.599-1.498 0-1.799.599-.599 1.201-.599 1.799 0l.302.301.301.302.302.297.297.301.301.302v.297c.599.603.599 1.201 0 1.804-.301.301-1.2.301-1.799 0v-.302l-.301-.301-.302-.297-.301-.302-.298-.301-.301-.302zm7.201 6.904c-.599-.599-.599-1.201-.298-1.8.599-.603 1.201-.603 1.8-.301l.301.301.302.302.297.297h.301l.302.301.297.302c.603.599.904 1.2.302 1.799-.302.603-1.201.603-1.498.302h-.302l-.301-.302-.302-.301-.297-.298-.301-.301-.302-.301h-.301zm8.104 5.703c-.599-.301-.599-1.2-.302-1.799.302-.603.904-.603 1.502-.301h.302l.297.301.603.297h.302l.297.302.301.301c.603.302.899.899.603 1.498-.301.603-1.2.903-1.803.603l-.302-.301-.297-.302h-.603l-.297-.297-.302-.302h-.301zm9.004 4.503c-.603-.302-.899-.9-.603-1.8.302-.603.903-.903 1.502-.603l.302.302h.301l.297.301h.603l.302.297h.598c.599.302.9.904.599 1.503-.297.899-.899 1.2-1.498.899h-.301l-.302-.302h-.297l-.603-.297h-.301l-.298-.301h-.301zm9.603 3c-.899 0-1.201-.599-.899-1.498 0-.603.603-.904 1.502-.904l.297.302h.603l.599.301h.603c.899.302 1.2.899 1.2 1.502-.301.599-.899 1.197-1.502.899H298.018l-.301-.301h-.901l-.301-.301zm9.606 1.802c-.603 0-.903-.603-.903-1.201 0-.899.603-1.2 1.2-1.2h2.404c.603.301 1.2.899 1.2 1.498 0 .603-.598 1.2-1.2 1.2h-.599l-.301-.297h-1.801zm10.201.297c-.899 0-1.201-.598-1.498-1.2 0-.599.599-1.197 1.201-1.197H316.925l.297-.301h1.202c.903 0 1.502.599 1.502 1.2 0 .599-.599 1.201-1.201 1.201h-.301l-.599.297h-1.503zm9.904-1.2c-.598 0-1.498-.298-1.498-.899 0-.599.298-1.498.9-1.498h.301l.599-.302h1.202l.301-.301c.599 0 1.201.301 1.498.899 0 .903-.297 1.502-.899 1.502l-.302.301H326.829l-.301.298h-.302zm9.607-2.699c-.603.302-1.503 0-1.503-.603-.301-.598 0-1.498.599-1.498l.302-.301h.301l.302-.302H336.734l.301-.297h.297c.603-.301 1.201 0 1.503.599.301.603 0 1.502-.603 1.502l-.298.297h-.603l-.297.302h-.301l-.302.301h-.598zm9-3.904c-.599.301-1.197 0-1.498-.599-.302-.603 0-1.201.599-1.502v-.297h.301l.301-.302h.599l.302-.301.301-.302h.297c.603-.297 1.201-.297 1.502.302.302.603.302 1.502-.301 1.799h-.297l-.302.302-.603.301h-.297l-.301.301-.302.298h-.301zm8.707-5.402c-.603.603-1.502.302-1.804-.297-.297-.301-.297-1.201.302-1.502v-.301h.301l.297-.302.302-.297.301-.302.302-.301h.297c.603-.599 1.502-.297 1.804 0 .297.603.297 1.502-.302 1.803l-.301.298-.302.301-.297.302h-.302l-.301.301-.297.297zm7.502-6.301c-.603.301-1.201.301-1.804 0-.297-.599-.297-1.502 0-1.799l.302-.302.301-.301.302-.302.297-.297.301-.302.302-.301c.599-.599 1.2-.599 1.799 0 .302.301.302 1.201 0 1.804l-.301.297-.298.301-.301.302-.301.301-.302.297-.297.302zm6.603-7.502c-.302.301-1.201.598-1.804 0-.297-.302-.599-1.201 0-1.502v-.302l.302-.297.301-.302v-.301l.302-.297.297-.302v-.301c.603-.599 1.201-.599 1.803-.302.599.302.599 1.201.298 1.804l-.298.297-.301.603-.301.302-.298.297v.301l-.301.302zm5.401-8.406c-.301.603-.899.603-1.502.302-.599-.302-.899-.9-.599-1.498v-.302l.302-.301.297-.302v-.297l.301-.603.302-.301v-.298c.297-.602.899-.602 1.498-.301.603.301.903.899.603 1.502v.297l-.302.302v.301l-.301.599-.297.301v.302l-.302.297zm4.201-9.301c0 .598-.899.899-1.502.899-.599-.302-.899-1.201-.599-1.8v-.301l.301-.603v-.297l.298-.302v-.598c.301-.603.903-1.201 1.803-.904.599.302.899.904.599 1.502v.302l-.297.297v.603l-.302.301v.901h-.301zm3-9.602c-.297.598-.899 1.196-1.498.899-.603 0-1.201-.603-.899-1.502v-.599l.297-.301v-1.504c.301-.598.899-.899 1.502-.899.599.302 1.201.899.899 1.502v1.202l-.301.599v.603zm1.2-9.905c0 .599-.598 1.197-1.2 1.197-.599 0-1.201-.599-1.201-1.498v-1.503l.302-.302v-.599c0-.598.603-1.2 1.2-1.2.603 0 1.201.603 1.201 1.502V268.003l-.302.302v.301zm0-9.903c0 .598-.297 1.196-1.2 1.196-.599 0-1.201-.599-1.201-1.196V257.2l-.297-.603v-.297c0-.603.599-1.201 1.201-1.201.598-.301 1.2.299 1.2.899l.297.301v2.404zm-1.497-10.205c.297.899-.302 1.5-.904 1.5-.599.299-1.196-.301-1.498-.902v-.598l-.301-.301V247.297l-.302-.301v-.299c0-.601.302-1.201.904-1.5.598 0 1.498.299 1.498.899l.301.601V247.597l.302.301v.6zm-2.703-9.604c0 .899-.302 1.5-.899 1.801-.603.299-1.201-.301-1.502-.901l-.298-.299v-.301l-.301-.299v-.601l-.302-.299v-.301c-.301-.6 0-1.5.603-1.5.599-.301 1.498 0 1.498.601l.302.299v.301l.301.299.297.601v.301l.301.298zm-4.502-9.005c.301.601.301 1.502-.302 1.801-.599.301-1.498 0-1.799-.601v-.299l-.302-.301-.297-.299-.301-.301v-.601l-.302-.299c-.301-.601 0-1.201.302-1.5.598-.601 1.502-.301 1.799.299l.301.301.302.299v.301l.297.598.302.301v.301zm-5.402-8.404c.302.601.302 1.502-.301 1.801-.599.301-1.201.301-1.8-.299v-.301l-.301-.299-.297-.301-.302-.299-.301-.301v-.299h-.302c-.297-.6-.297-1.201.302-1.801.603-.299 1.2-.299 1.799.301l.302.299.301.301v.299l.302.301.297.299.301.299zm-6.603-7.502c.302.6.302 1.5 0 1.801-.598.6-1.2.6-1.799 0h-.301l-.302-.301-.297-.299-.302-.301-.301-.299v-.299h-.302c-.598-.601-.598-1.201 0-1.801.302-.601 1.201-.601 1.503 0h.301l.297.299.302.301.301.299.302.301.297.299h.301zm-7.802-6.301c.603.299.603 1.199.301 1.799-.301.601-1.2.601-1.799.301l-.302-.301-.301-.299-.302-.301h-.297l-.603-.299v-.301c-.598-.299-.899-1.199-.598-1.5.598-.601 1.2-.899 1.799-.601l.301.301.302.299h.297l.302.301.301.299.599.302zm-8.403-5.102c.599.299.599.899.298 1.5-.298.6-.899.899-1.498.6l-.603-.299h-.297l-.302-.301h-.301l-.302-.299-.297-.301c-.603-.299-.899-.899-.603-1.5.301-.6.899-.899 1.502-.6l.302.299h.297l.603.301h.301l.298.299.301.301h.301zm-9.305-3.902c.603 0 .899.9.603 1.5 0 .601-.904.902-1.503.601h-.301l-.599-.299h-.603l-.297-.301h-.301c-.9-.299-1.201-.899-.9-1.5.298-.6.9-1.201 1.498-.899h.302l.301.299h.599l.301.299h.302l.598.3zm-9.602-2.701c.598.299.899.899.899 1.5s-.899 1.201-1.502.899H324.125l-.599-.299H322.626c-.603 0-.904-.601-.904-1.5 0-.6.603-.901 1.201-.901H323.823l.603.301h1.202z"/><path fill="#4E5A62" d="M500.896 143.155H176.469c-6.301 0-11.104 4.803-11.104 11.104v210.983c0 6.302 4.803 11.406 11.104 11.406h123.949v6c-18.606 2.703-56.724 11.104-56.724 31.515v6.302c0 13.506 16.808 21.31 27.611 24.907 18.606 6.603 40.515 9.005 60.322 9.306 2.104.302 4.205.302 6.305.302 21.009 0 44.716-2.402 64.825-9.005 10.803-3.603 29.711-11.405 29.711-25.51v-1.503-1.497-1.503-1.799c0-20.41-38.113-28.812-56.724-31.515v-6h125.15c6.301 0 11.104-5.104 11.104-11.406V154.259c.002-6.301-4.802-11.104-11.102-11.104zm6.003 222.087c0 3.302-2.703 6.005-6.004 6.005H370.343v15.903c33.314 4.201 56.725 14.707 56.725 27.013v6.302c0 16.205-39.917 29.112-89.135 29.112h-6.305c-46.218-1.2-82.833-13.808-82.833-29.112 0-.603 0-.9.301-1.503-.301-.297-.301-.899-.301-1.497 0-.603 0-.904.301-1.503-.301-.598-.301-1.2-.301-1.799 0-12.306 23.711-22.812 57.025-27.013v-15.903H176.469c-3.301 0-6-2.703-6-6.005V154.259c0-3.301 2.699-6.002 6-6.002h324.427c3.301 0 6.004 2.701 6.004 6.002v210.983z"/><path fill="#E6E6E6" d="M124.849 122.148h94.837c13.205 0 24.008 10.803 24.008 24.008V363.74c0 13.205-10.803 24.013-24.008 24.013h-94.837c-13.205 0-24.012-10.808-24.012-24.013V146.157c0-13.205 10.808-24.009 24.012-24.009z"/><path fill="#4E5A62" d="M126.95 138.354h90.933c9.004 0 16.51 7.203 16.51 16.506v186.073c0 9.306-7.506 16.507-16.51 16.507H126.95c-9.004 0-16.506-7.201-16.506-16.507V154.86c-.001-9.303 7.502-16.506 16.506-16.506z"/><path fill="#CCC" d="M113.443 364.645h17.109c1.799 0 3 1.196 3 3 0 1.498-1.201 3-3 3h-17.109c-1.502 0-3-1.502-3-3 0-1.804 1.498-3 3-3z"/><path fill="#7F8C8D" d="M164.762 364.645h18.912c2.699 0 4.799 2.101 4.799 4.799 0 2.401-2.1 4.804-4.799 4.804h-18.912c-2.398 0-4.799-2.402-4.799-4.804-.001-2.699 2.401-4.799 4.799-4.799z"/><path fill="#CCC" d="M214.285 364.645h16.803c1.803 0 3.305 1.196 3.305 3 0 1.498-1.502 3-3.305 3h-16.803c-1.799 0-3.004-1.502-3.004-3-.001-1.804 1.204-3 3.004-3z"/><path fill="#FEFEFE" d="M147.958 126.648h48.92c1.799 0 3 1.201 3 3.002 0 1.801-1.201 3.002-3 3.002h-48.92c-1.799 0-3.301-1.201-3.301-3.002 0-1.8 1.502-3.002 3.301-3.002z"/><path fill="#CCC" d="M165.665 365.544h17.105c2.703 0 4.502 1.799 4.502 3.899 0 2.101-1.799 3.603-4.502 3.603h-17.105c-2.401 0-4.201-1.502-4.201-3.603 0-2.1 1.8-3.899 4.201-3.899z"/><path fill="#FED5A9" d="M145.255 487.092c.301-9.903.904-19.812 2.401-28.812 4.804-33.013 25.812-57.322 33.314-66.029 0 0 18.31-20.406 13.808-44.414-4.201-21.31-8.104-56.423-6.306-76.531 2.402-28.511-19.209-46.218-24.31-4.804-5.101 43.218-25.209 138.657-63.025 77.732v-94.538s-11.406-1.799-18.008 15.609c-6.301 17.405-48.619 39.013-48.318 55.519.301 16.209 16.209 33.013 21.908 73.828 1.205 10.205 9.004 24.31 15.008 39.018 21.009 21.907 45.921 39.916 73.528 53.422z"/><path fill="#E6E6E6" d="M134.151 168.665h84.033v56.124h-84.033z"/><path fill="#CCC" d="M176.167 203.18l21.013-17.408 21.004-17.107h-84.033l21.012 17.107z"/><path fill="#4E5A62" d="M92.134 242.494v-96.337c0-18.006 14.707-32.713 32.715-32.713h94.837c18.004 0 32.711 14.707 32.711 32.713V363.74c0 18.009-14.707 32.716-32.711 32.716h-30.615c-.599.599-.896 1.201-1.498 1.799-15.607 17.109-27.908 37.816-31.213 61.227-1.498 10.2-2.402 20.707-2.402 31.51-3-1.2-6-2.702-8.703-3.899.301-9.903.904-19.812 2.401-28.812 4.804-33.013 25.812-57.322 33.314-66.029 0 0 1.498-1.498 3.599-4.498h35.117c13.205 0 24.008-10.808 24.008-24.013V146.157c0-13.205-10.803-24.008-24.008-24.008h-94.837c-13.205 0-24.012 10.803-24.012 24.008v103.54c-1.197 0-11.703-.601-17.707 15.609-6.301 17.405-48.619 39.013-48.318 55.519.301 16.209 16.209 33.013 21.908 73.828 1.205 10.205 9.004 24.31 15.008 39.018-6.904-6.904-13.205-14.406-19.209-22.21-2.101-5.101-3.9-10.502-4.502-15.606-2.1-15.903-6.301-29.41-12.301-44.117-3.904-9.603-9.305-20.406-9.606-30.912-.301-14.406 18.008-28.209 27.912-36.615 5.402-4.502 18.606-15.305 21.008-21.907 2.703-7.502 7.205-14.706 14.703-18.607.602-.301 1.505-.902 2.401-1.203z"/></g><metadata><rdf:RDF xmlns:rdf="http://www.w3.org/1999/02/22-rdf-syntax-ns#" xmlns:rdfs="http://www.w3.org/2000/01/rdf-schema#" xmlns:dc="http://purl.org/dc/elements/1.1/"><rdf:Description about="https://iconscout.com/legal#licenses" dc:title="responsive,design" dc:description="responsive,design" dc:publisher="Iconscout" dc:date="2017-09-22" dc:format="image/svg+xml" dc:language="en"><dc:creator><rdf:Bag><rdf:li>Graphiqa Stock</rdf:li></rdf:Bag></dc:creator></rdf:Description></rdf:RDF></metadata></svg>