<?xml version="1.0" encoding="UTF-8"?><!DOCTYPE svg PUBLIC "-//W3C//DTD SVG 1.1//EN" "http://www.w3.org/Graphics/SVG/1.1/DTD/svg11.dtd"><svg xmlns="http://www.w3.org/2000/svg" xmlns:xlink="http://www.w3.org/1999/xlink" version="1.1" id="Sketching" x="0px" y="0px" width="512px" height="512px" viewBox="0 0 512 512" xml:space="preserve"><path id="Background" fill="#F5874F" d="M255.997 0C397.434 0 512 114.498 512 256.157 512 397.503 397.434 512 255.997 512 114.566 512 0 397.503 0 256.157 0 114.498 114.566 0 255.997 0z"/><g id="Sketching_1_"><path fill="#B88A2E" d="M52.842 157.298l181.545-62.77c10.818-3.787 22.994 1.894 26.781 12.991l94.694 273.529c3.791 10.821-2.162 22.998-12.987 26.785l-181.54 62.77c-11.093 3.786-23.27-1.894-27.057-12.986l-94.69-273.534c-3.791-10.823 2.161-22.994 13.254-26.785z"/><path fill="#C93" d="M52.842 157.298l181.545-62.77c2.433-1.079 5.138-1.351 7.846-1.351 5.681 2.166 10.55 6.764 12.716 12.984l94.693 273.536c3.788 10.822-2.164 22.998-13.258 26.785L154.843 469.52c-2.708.813-5.145 1.082-7.846 1.082-5.685-2.166-10.554-6.764-12.719-12.986l-94.69-273.533c-3.791-10.823 2.161-22.994 13.254-26.785z"/><path fill="#B88A2E" d="M110.199 137.547l66.56-23.269c.808 2.979 4.059 20.022 1.079 20.836l-55.463 19.207c-2.976 1.083-11.089-14.069-12.176-16.774z"/><path fill="#CFCFCF" d="M51.221 179.213l185.6-76.296 114.715 278.131-185.602 76.568z"/><path fill="#E6E6E6" d="M66.641 161.356l193.989-51.943 77.648 290.845-193.716 51.948z"/><path fill="#CFCFCF" d="M186.499 413.785l7.846 4.33-13.527 18.129z"/><path fill="#CFCFCF" d="M186.499 413.785l7.846 4.33-1.083 1.622c-.54.543-1.894 1.354-2.434 1.354-1.085.271-.542-2.976-1.085-3.516-.272-.813-2.433 1.895-3.245 1.895-.542 0-.542-2.165-.271-4.06l.272-1.625z"/><path fill="#CFCFCF" d="M184.063 431.914l-3.245 4.33 1.35-5.141z"/><path fill="#CFCFCF" d="M186.499 413.785L265.5 251.45c4.057-8.385 12.174-4.598 8.115 3.791l-79.271 162.874c-1.354.271-2.976 2.165-3.248 1.893-.54-.271 0-3.246-.811-3.786-.815-.271-3.248 2.704-3.248 1.894s-.267-2.433-.538-4.331z"/><path fill="#CFCFCF" d="M190.829 418.654c0-1.079 0-2.161-.542-2.433-.543-.271-1.354.54-2.166 1.354l74.943-154.217 2.708 1.351-74.943 153.945z"/><path fill="#CFCFCF" d="M186.499 413.785l73.864-151.781 2.701 1.354-74.943 154.217c-.543.54-1.082.812-1.082.54 0-.81-.269-2.432-.54-4.33z"/><path fill="#CFCFCF" d="M260.362 262.004l2.161-4.598 8.116 4.058-2.431 4.599z"/><path fill="#CFCFCF" d="M262.523 257.406l2.977-5.956c4.057-8.653 12.174-4.598 8.115 3.791l-2.977 6.223-8.115-4.058z"/><path fill="#B8B8B8" d="M111.014 121.856l10.818-3.791c0-.268-.268-.808-.268-1.079l-2.165-5.681c-1.083-2.98.812-6.495 3.791-7.578l22.723-7.846h.271c1.622.54 2.976 1.894 3.516 3.519l1.896 5.681c.269.271.811 1.893.811 2.437 4.602-1.626 8.929-3.252 14.07-4.874.272-.271.272-.271.543-.271 1.351.543 2.701 1.893 3.244 3.519l2.165 5.681c1.083 3.248 4.059 20.561 1.083 21.648l-53.841 18.396c-3.791-2.976-9.471-14.07-10.282-16.502l-2.162-5.681c-1.086-3.251.539-6.495 3.787-7.578z"/><path fill="#CCC" d="M120.753 118.337l1.079-.271c0-.268-.268-.808-.268-1.079l-2.165-5.681c-.811-2.708.271-5.684 2.705-7.039l22.729-7.845h.272c1.622.543 2.701 1.893 3.515 3.519l1.894 5.681c0 .271.543 1.897.811 2.437 4.599-1.625 8.929-3.248 14.07-5.141h.268c1.626.543 2.979 1.894 3.519 3.516l2.165 5.681c.811 2.979 3.787 18.671 1.354 21.108l-53.03 18.396c-3.791-2.976-9.471-14.07-10.282-16.502l-2.162-5.681c-.814-2.708.268-5.684 2.701-7.039l10.826-3.787v-.273z"/><path fill="#A9ABAE" d="M133.2 325.585a4.005 4.005 0 0 1-3.519 0c-1.083-.539-1.897-1.354-2.165-2.705-.54-1.082.54-2.437 2.433-4.059 2.166-1.893 4.602-3.787 7.306-5.681 2.705-1.897 5.685-3.519 8.389-5.413 2.704-1.622 4.598-2.976 5.68-3.786-.539-1.894-1.625-5.143-2.976-9.74-1.35-4.329-2.976-9.471-4.33-15.423a962.95 962.95 0 0 1-4.059-17.856c-1.079-6.22-1.894-11.905-2.433-17.317-.271-5.409 0-10.011.812-13.798.814-3.787 2.437-6.224 5.141-7.303 2.165-.543 4.598 0 7.306 1.894 2.705 1.622 5.138 4.33 7.846 7.845 2.705 3.516 5.137 7.575 7.846 11.905 2.437 4.601 4.87 8.928 6.763 12.987 2.165 4.329 4.059 8.117 5.413 11.633a150.134 150.134 0 0 1 3.244 7.578c1.893-1.354 3.519-2.708 5.413-4.06 1.622-1.354 3.787-2.437 5.952-3.247 1.354-.543 2.433-.543 3.248 0 .54.539 1.079 1.354 1.622 2.704.271.811 0 1.895-1.083 3.248-.811 1.082-2.166 2.433-3.52 3.787-1.351 1.354-2.973 2.437-4.326 3.52-1.354 1.078-2.434 1.894-3.248 2.433 1.622 3.248 3.515 7.846 6.495 13.258 2.704 5.682 5.681 11.362 8.657 17.046a427.072 427.072 0 0 0 9.739 16.23c3.247 5.142 6.224 8.66 8.928 10.555v-.271c1.622.543 3.248 1.083 5.141 1.354 1.894.54 3.248 1.623 4.059 3.244-.272 1.083-.272 1.896-.811 3.248-.543 1.083-1.083 1.894-2.165 2.165-2.708.811-5.681.272-8.661-1.622-3.244-2.165-6.491-5.141-9.739-8.929-3.244-4.059-6.224-8.389-9.468-13.53-2.977-4.868-5.681-9.738-8.389-14.88-2.705-4.87-4.866-9.468-6.763-13.526-2.162-4.059-3.516-7.035-4.327-9.199-2.708 2.976-5.681 5.681-8.661 8.116-2.973 2.705-5.952 5.409-8.928 8.117.54 1.352 1.625 4.599 3.52 9.197a293.137 293.137 0 0 1 5.68 14.88c1.083 2.977 1.894 5.953 2.708 8.928.807 2.709 1.351 5.414 1.894 7.85.268 2.434.268 4.327.268 5.952-.268 1.622-.811 2.434-1.894 2.977-2.433.812-4.059 0-5.141-1.894-1.35-2.164-2.165-3.79-2.705-5.413-2.165-6.223-4.059-12.176-5.685-18.128-1.622-5.952-3.515-12.176-5.68-18.128-1.079.814-2.705 1.896-4.33 3.248-1.894 1.354-3.787 2.704-5.952 4.059-1.894 1.354-3.788 2.704-5.681 3.787-1.891 1.08-3.513 1.891-4.864 2.163zm13.799-94.152c-1.354.539-1.893 3.248-1.625 8.385.271 5.141 1.083 11.093 2.704 18.127 1.354 6.764 2.98 14.069 4.874 21.376 1.894 7.303 3.787 13.526 5.409 18.396 2.976-2.432 5.681-4.869 8.66-7.573 2.701-2.978 5.409-5.413 8.114-7.846l-7.035-16.507c-.543-1.35-1.894-4.058-3.787-7.846-1.623-3.787-3.787-7.845-5.952-11.904a127.096 127.096 0 0 0-6.495-10.822c-2.166-2.976-3.789-4.326-4.867-3.786zm42.205-9.201c-1.083-2.708-.272-4.602 2.433-5.409 1.626-.814 3.519.54 5.413 3.516a53.188 53.188 0 0 1 5.685 11.094c1.893 4.327 3.515 8.385 4.866 12.443 1.354 4.059 2.436 6.496 2.708 7.574a438.881 438.881 0 0 1-.814-10.55c-.269-4.055 0-8.385.542-12.444.543-4.33 1.894-7.845 3.516-11.365 1.894-3.248 4.602-5.413 8.117-6.763 4.331-1.351 7.574-.812 9.739 1.893 2.437 2.708 4.33 5.681 5.413 9.2 1.894 5.141 3.248 10.55 3.791 15.691.807 5.142 1.35 10.55 1.894 15.963 4.059-1.354 8.385-2.433 12.983-3.248 4.874-.811 9.472-.811 13.799 0 4.328.815 8.387 2.165 12.174 4.602 3.52 2.433 6.223 6.22 7.846 11.361 1.626 4.331 1.894 8.929.814 14.069-1.083 5.141-3.247 10.012-5.952 14.881-2.98 4.869-6.224 8.929-10.282 12.447-4.059 3.788-8.115 6.22-12.174 7.846-1.351.269-2.977.54-4.87.811-2.165.272-4.059.272-6.224.272-1.894-.272-3.787-.814-5.413-1.625-1.894-.812-2.973-1.895-3.515-3.516-.812-2.706 0-4.603 2.708-5.414l2.973-.271c4.33 2.166 8.661 2.437 13.258.814 3.247-1.082 6.224-2.976 9.198-5.684 2.977-2.705 5.408-5.952 7.574-9.468 1.894-3.788 3.247-7.307 4.059-11.094.811-4.058.543-7.574-.539-10.821-1.354-3.52-3.248-5.952-5.953-7.575-2.976-1.625-5.95-2.707-9.469-2.976-3.516-.271-7.031-.271-10.551.269-3.52.543-6.764 1.082-9.2 2.165l-2.976 1.082c0 1.083 0 2.438-.268 4.33 0 1.895-.272 3.788-.814 5.952-.272 1.895-.812 3.517-1.623 5.138-.814 1.625-1.894 2.708-2.976 2.979-2.165.812-3.79.54-5.413-1.082-1.351-1.354-2.437-2.976-2.977-4.602-1.082-2.977-1.082-5.952.272-8.929 1.354-3.248 2.976-5.68 5.141-7.574 0-6.767-.271-13.526-1.354-20.021-1.083-6.763-3.52-13.258-7.574-19.21-2.705 1.083-4.599 3.791-5.953 7.578-1.082 3.787-1.354 8.118-1.354 13.255.272 5.141.814 10.554 1.622 16.234 1.086 5.952 2.165 11.365 3.519 16.774 1.354 5.412 2.705 10.282 4.059 14.609 1.354 4.33 2.433 7.577 2.976 9.472a70.489 70.489 0 0 0 2.437 5.408c.808 2.165 1.893 4.602 2.701 7.035 1.086 2.708 1.625 5.412 1.625 8.117 0 2.436-1.083 4.33-3.248 5.142-.811.271-1.622 0-2.433-.272-.811-.539-1.625-1.082-1.897-1.894-7.03-16.23-13.526-32.465-20.018-48.972-6.224-16.5-12.987-33.002-20.021-49.237z"/><path fill="#8A0000" d="M220.858 343.17c.539.271 1.083.271 1.625.543 1.894.271 3.244 1.35 4.059 3.247 0 .812-.272 1.895-.815 2.977a2.928 2.928 0 0 1-2.165 2.161c-2.166.814-4.327.543-6.763-.539l4.059-8.389zm9.743-19.75l3.515-7.846c.271.811.271 1.621.271 2.437 0 2.704-1.085 4.326-3.248 5.142-.27-.001-.27-.001-.538.267zm31.112-64.392l3.787-7.578c0-.539.271-.807.543-1.079h.811c2.703.54 5.14 1.35 7.572 2.433-.268.811-.539 1.626-.811 2.437l-2.977 5.952c-2.163-1.082-4.867-1.894-7.575-2.165h-1.35zm-13.527 48.16l-4.059 8.656c-.542-.271-.814-.542-1.354-.542-1.622-.811-2.976-1.895-3.519-3.517-.808-2.704 0-4.598 2.708-5.681h2.976c1.083.542 2.165.813 3.248 1.084z"/><path fill="#B82E00" d="M221.397 342.091c1.086.269 2.166.54 3.52.811 1.894.54 3.248 1.623 4.059 3.244-.272.544-.272 1.083-.272 1.626l-1.622 3.243c-.271.272-.539.272-1.083.544-2.437.811-5.409.272-8.389-1.622l3.787-7.846zm9.743-19.754l4.87-10.278c.543 1.894.811 3.516.811 5.409 0 2.436-1.083 4.33-3.248 5.142-.811.27-1.622-.001-2.433-.273zm30.844-64.12l3.516-6.767c.271-.807.811-1.35 1.082-1.894.812 0 1.894 0 2.705.271 1.896.272 3.789.815 5.411 1.354 0 1.082-.54 2.433-1.083 4.059l-2.165 4.598c-1.894-.811-3.785-1.082-5.95-1.351-1.079-.27-2.166-.27-3.516-.27zm-12.987 47.888l-4.059 8.387c-1.625-.812-2.705-1.895-3.247-3.516-.812-2.706 0-4.603 2.708-5.414l2.973-.271 1.625.814z"/><path fill="#8A0000" d="M223.834 343.984a8.225 8.225 0 0 1 2.165 2.161l-2.976 6.224a6.59 6.59 0 0 1-3.248 0l4.059-8.385zm15.691-32.198l2.708-5.681h3.245l-4.059 8.387c-.807-.811-1.622-1.624-1.894-2.706z"/><path fill="#B82E00" d="M224.377 342.901h.54c.811.269 1.626.54 2.165 1.083l-3.791 7.847c-1.079 0-2.162 0-2.973-.544l4.059-8.386zm10.011-20.832l2.433-4.874v.272c0 2.166-.811 3.788-2.433 4.602zm11.361-16.778l-3.244 7.035c-.272-.268-.543-.811-.814-1.35-.812-2.706 0-4.603 2.708-5.414l1.35-.271z"/><path fill="#8A0000" d="M220.858 343.17c.539.271 1.083.271 1.625.543.54 0 .808.271 1.351.271l-4.059 8.385c-1.079 0-1.894-.271-2.976-.811l4.059-8.388zm9.743-19.75l3.515-7.846c.271.811.271 1.621.271 2.437 0 2.704-1.085 4.326-3.248 5.142-.27-.001-.27-.001-.538.267zm11.632-17.315l-2.708 5.681h-.271c-.808-2.704 0-4.598 2.708-5.681h.271z"/><path fill="#B82E00" d="M221.397 342.091c.815.269 1.894.54 2.98.811l-4.059 8.386c-1.083-.272-1.894-.811-2.708-1.351l3.787-7.846zm9.743-19.754l4.87-10.278c.543 1.622.811 3.516.811 5.137l-2.433 4.874c-.271.268-.543.268-.814.54-.812.27-1.623-.001-2.434-.273z"/><path fill="#8A0000" d="M261.713 259.028l.811-1.622 4.87 2.433a130.525 130.525 0 0 0-4.33-.811h-1.351z"/><path fill="#B82E00" d="M261.984 258.217l.539-.811 1.625.811h-2.164z"/><path fill="#8A0000" d="M262.523 257.406l2.977-5.956c0-.539.271-.807.543-1.079h.811c2.703.54 5.14 1.35 7.572 2.433-.268.811-.539 1.626-.811 2.437l-2.977 5.952c-1.082-.543-2.163-1.082-3.245-1.354l-4.87-2.433z"/><path fill="#B82E00" d="M262.523 257.406l2.977-5.956c.271-.807.811-1.35 1.082-1.894.812 0 1.894 0 2.705.271 1.896.272 3.789.815 5.411 1.354 0 1.082-.54 2.433-1.083 4.059l-2.165 4.598c-1.894-.811-3.785-1.082-5.95-1.351-.54 0-.812 0-1.352-.271l-1.625-.81z"/><path fill="#FC9" d="M184.063 412.164l7.845 4.598-13.798 17.855z"/><path fill="#FC9" d="M184.063 412.164l7.845 4.598-1.079 1.354c-.814.539-1.897 1.354-2.708 1.622-.811 0-.271-3.244-.811-3.787-.54-.54-2.705 1.894-3.52 1.894-.271 0-.271-2.161-.271-3.788l.544-1.893z"/><path fill="#4D4D4D" d="M181.358 430.291l-3.248 4.326 1.354-5.138z"/><path fill="#E6B800" d="M184.063 412.164l78.732-162.336c4.059-8.389 12.174-4.33 8.116 4.059l-79.003 162.875c-1.351 0-2.976 1.893-3.516 1.893-.271-.268.272-3.515-.543-3.787-1.079-.539-3.516 2.708-3.516 1.626 0-.811 0-2.438-.27-4.33z"/><path fill="#FC0" d="M188.392 417.032c0-.811 0-1.893-.543-2.165-.539-.268-1.622.543-2.433 1.083l74.946-154.217 2.701 1.354-74.671 153.945z"/><path fill="#E6B800" d="M184.063 412.164l73.591-151.514 2.709 1.083-74.947 154.217c-.539.543-1.083 1.082-1.083.543 0-.81 0-2.437-.27-4.329z"/><path fill="#CFA600" d="M257.653 260.65l2.165-4.598 8.119 3.787-2.166 4.602z"/><path fill="#C30" d="M259.818 256.052l2.977-6.224c4.331-8.389 12.174-4.33 8.116 4.059l-2.975 5.952-8.118-3.787z"/><path fill="#959595" d="M133.469 103.728c1.894-.811 3.787.271 4.598 2.165.543 1.894-.271 4.059-2.433 4.87-1.897.543-3.791-.542-4.598-2.437-.544-1.893.268-4.059 2.433-4.598z"/><path fill="#A6A6A6" d="M135.634 103.728c1.083.271 2.161 1.083 2.433 2.165.543 1.894-.271 4.059-2.433 4.87h-1.083a2.938 2.938 0 0 1-2.165-2.165c-.811-1.894.271-4.059 2.165-4.598.543-.272.811-.272 1.083-.272z"/><path fill="#D3D5D6" d="M318.257 46.371l66.556-42.747 30.576 86.846z"/><path fill="#E6E7E8" d="M318.257 46.371l19.482 71.966 77.65-27.867z"/><path fill="#E6E7E8" d="M384.813 3.624l30.576 86.846 29.49-21.372-10.551-45.724z"/><path fill="#E6E7E8" d="M337.739 118.337l56.814 29.221 20.836-57.088z"/><path fill="#D3D5D6" d="M438.926 95.072l-23.537-4.602-20.836 57.088 35.173-22.183z"/><path fill="#D3D5D6" d="M444.879 69.098l14.607 25.158-20.56.816-23.537-4.602z"/><path fill="#E6E7E8" d="M429.726 125.375s34.092-3.519 34.092-4.873c.272-1.623-4.331-26.246-4.331-26.246l-20.561.815-9.2 30.304z"/><path fill="#4E5A62" d="M326.104 251.183c-2.706 0-4.871-2.166-4.871-4.599a4.851 4.851 0 0 1 4.871-4.873h9.47a4.851 4.851 0 0 1 4.87 4.873c0 2.433-2.165 4.599-4.87 4.599h-9.47zm99.835-101.999c0-2.437 2.165-4.602 4.869-4.602 2.437 0 4.599 2.165 4.599 4.602v9.74c0 2.704-2.162 4.869-4.599 4.869a4.85 4.85 0 0 1-4.869-4.869v-9.74zm0 38.686a4.847 4.847 0 0 1 4.869-4.866c2.437 0 4.599 2.162 4.599 4.866v9.471c0 2.705-2.162 4.87-4.599 4.87a4.85 4.85 0 0 1-4.869-4.87v-9.471zm0 38.421a4.848 4.848 0 0 1 4.869-4.87c2.437 0 4.599 2.161 4.599 4.87v9.468c0 2.708-2.162 4.873-4.599 4.873a4.85 4.85 0 0 1-4.869-4.873v-9.468zm-13.527 15.42a4.851 4.851 0 0 1 4.87 4.873c0 2.433-2.165 4.599-4.87 4.599h-9.472c-2.703 0-4.868-2.166-4.868-4.599a4.85 4.85 0 0 1 4.868-4.873h9.472zm-38.42 0a4.85 4.85 0 0 1 4.869 4.873c0 2.433-2.165 4.599-4.869 4.599h-9.469c-2.709 0-4.869-2.166-4.869-4.599a4.848 4.848 0 0 1 4.869-4.873h9.469z"/><path fill="#4E5A62" d="M348.561 275.263a4.849 4.849 0 0 1-4.869-4.869 4.85 4.85 0 0 1 4.869-4.874h9.468a4.853 4.853 0 0 1 4.87 4.874 4.851 4.851 0 0 1-4.87 4.869h-9.468zm67.639 95.774a4.852 4.852 0 0 1-4.87 4.873c-2.437 0-4.601-2.166-4.601-4.873v-9.739c0-2.704 2.164-4.869 4.601-4.869a4.85 4.85 0 0 1 4.87 4.869v9.739zm0-38.418c0 2.438-2.165 4.599-4.87 4.599-2.437 0-4.601-2.161-4.601-4.599v-9.739c0-2.705 2.164-4.869 4.601-4.869a4.85 4.85 0 0 1 4.87 4.869v9.739zm0-38.418c0 2.434-2.165 4.598-4.87 4.598-2.437 0-4.601-2.164-4.601-4.598v-9.742c0-2.704 2.164-4.87 4.601-4.87a4.851 4.851 0 0 1 4.87 4.87v9.742zm-19.482-28.681c2.437 0 4.602 2.166 4.602 4.874 0 2.703-2.165 4.869-4.602 4.869h-9.739a4.85 4.85 0 0 1-4.87-4.869 4.852 4.852 0 0 1 4.87-4.874h9.739z"/><path fill="#4E5A62" d="M412.412 382.674c35.714 0 64.663 28.95 64.663 64.663 0 35.712-28.949 64.663-64.663 64.663-35.984 0-64.934-28.951-64.934-64.663.001-35.713 28.95-64.663 64.934-64.663zm0 3.514c33.549 0 60.873 27.329 60.873 61.148s-27.324 61.144-60.873 61.144c-33.819 0-61.146-27.324-61.146-61.144s27.327-61.148 61.146-61.148z"/><path fill="#C5483A" d="M412.412 386.188c33.549 0 60.873 27.329 60.873 61.148s-27.324 61.144-60.873 61.144c-33.819 0-61.146-27.324-61.146-61.144s27.327-61.148 61.146-61.148z"/><path fill="#E6E6E6" d="M412.412 399.72c26.242 0 47.347 21.371 47.347 47.617 0 26.241-21.104 47.617-47.347 47.617-26.244 0-47.621-21.376-47.621-47.617 0-26.246 21.377-47.617 47.621-47.617z"/><path fill="#C5483A" d="M412.412 408.104c21.645 0 38.957 17.585 38.957 39.232 0 21.644-17.313 39.229-38.957 39.229-21.646 0-39.231-17.585-39.231-39.229 0-21.647 17.585-39.232 39.231-39.232z"/><path fill="#E6E6E6" d="M412.412 418.654c15.692 0 28.679 12.72 28.679 28.683 0 15.962-12.986 28.949-28.679 28.949-15.962 0-28.949-12.987-28.949-28.949 0-15.963 12.987-28.683 28.949-28.683z"/><path fill="#C5483A" d="M412.412 430.02c9.469 0 17.313 7.847 17.313 17.317 0 9.739-7.845 17.585-17.313 17.585a17.551 17.551 0 0 1-17.588-17.585c0-9.471 7.846-17.317 17.588-17.317z"/><path fill="#4E5A62" d="M466.793 115.365c-.271-2.98-.812-5.952-1.354-8.661-.812-4.33-1.622-8.928-2.433-13.255 0-.272 0-.814-.271-1.086l-14.342-24.616-10.55-45.188c-.271-1.351-.812-2.162-2.165-2.701L386.168.375c-1.354-.539-2.438-.539-3.52.272l-66.286 42.748c-1.353.811-2.165 2.437-1.621 3.787l19.479 72.241c.271 1.079 1.082 1.893 1.893 2.162l56.818 29.221c1.082.54 2.437.54 3.52-.271l34.63-21.644c5.409-.543 10.822-1.083 16.231-1.894 4.058-.271 7.85-.815 11.907-1.623l4.055-.814c1.897-.543 4.06-1.351 4.331-3.787-.001-1.35-.54-4.058-.812-5.408zm-37.067 10.01l-35.173 22.183-56.813-29.221-19.482-71.966 66.557-42.748 49.515 19.75 10.551 45.724 14.607 25.159s4.604 24.624 4.331 26.246c-.002 1.354-34.093 4.873-34.093 4.873z"/><path fill="none" d="M384.813 3.624l49.515 19.75 10.551 45.724 14.607 25.159s4.604 24.624 4.331 26.246c0 1.354-34.092 4.873-34.092 4.873l-35.173 22.183-56.813-29.221-19.482-71.966 66.556-42.748z"/><path fill="#4E5A62" d="M359.383 379.697l-94.694-273.536c-3.248-9.468-12.173-15.963-22.455-16.502-2.979 0-6.224.271-8.931 1.354l-57.357 19.75s0-.271-.271-.271l-1.895-5.681a8.518 8.518 0 0 0-5.68-5.68c-.811-.272-1.35-.543-2.165-.272l-.54.272-10.822 3.787-1.622-4.602c-.814-2.701-2.979-4.866-5.413-5.952a3.782 3.782 0 0 0-2.433 0h-.543l-22.458 7.846c-.811.271-1.351.543-1.894 1.086-3.788 2.165-5.681 7.03-4.06 11.089l1.087 3.52-7.31 2.433c-.807.271-1.351.543-1.894.815-3.787 2.433-5.681 7.031-4.059 11.361l1.626 4.602-54.109 18.667c-12.719 4.598-19.75 18.667-15.156 31.655l94.699 273.261c2.433 7.035 7.846 12.715 14.877 15.151 5.145 2.166 11.097 2.166 16.506.272l181.541-63.042c12.988-4.33 19.754-18.395 15.425-31.383zm-16.507 28.136l-181.54 62.77c-4.87 1.626-9.74 1.626-14.337 0-5.685-2.166-10.554-6.764-12.719-12.986L39.588 184.083c-3.791-10.822 2.161-22.994 13.254-26.785l57.357-19.75v-.267c-.271-.815-.811-1.626-.811-2.166l-2.162-5.681c-.814-2.708.268-5.684 2.701-7.039.271-.271.543-.54 1.086-.54l9.739-3.519 1.079-.271c0-.268-.268-.808-.268-1.079l-2.165-5.681c-.811-2.708.271-5.684 2.705-7.039.271-.268.542-.539 1.086-.539l22.723-7.846h.271c1.622.54 2.976 1.894 3.516 3.519l1.896 5.681c.269.271.811 1.893.811 2.437l14.07-4.874.543-.271c1.351.543 2.701 1.893 3.244 3.519l2.165 5.681c.271.811.543 2.165.811 4.059l3.519-1.354 57.628-19.75c2.433-1.079 5.138-1.351 7.846-1.351a21.528 21.528 0 0 1 18.936 14.342l94.694 273.529c3.792 10.821-2.161 22.998-12.986 26.785z"/><path fill="none" d="M172.429 111.574c.271.811.543 2.165.811 4.059l3.519-1.354 57.628-19.75c2.433-1.079 5.138-1.351 7.846-1.351a21.528 21.528 0 0 1 18.936 14.342l94.694 273.529c3.791 10.821-2.162 22.998-12.987 26.785l-181.54 62.77c-4.87 1.626-9.74 1.626-14.337 0-5.685-2.166-10.554-6.764-12.719-12.986L39.588 184.083c-3.791-10.822 2.161-22.994 13.254-26.785l57.357-19.75v-.267c-.271-.815-.811-1.626-.811-2.166l-2.162-5.681c-.814-2.708.268-5.684 2.701-7.039.271-.271.543-.54 1.086-.54l9.739-3.519 1.079-.271c0-.268-.268-.808-.268-1.079l-2.165-5.681c-.811-2.708.271-5.684 2.705-7.039.271-.268.542-.539 1.086-.539l22.723-7.846h.271c1.622.54 2.976 1.894 3.516 3.519l1.896 5.681c.269.271.811 1.893.811 2.437l14.07-4.874.543-.271c1.351.543 2.701 1.893 3.244 3.519l2.166 5.682z"/></g><metadata><rdf:RDF xmlns:rdf="http://www.w3.org/1999/02/22-rdf-syntax-ns#" xmlns:rdfs="http://www.w3.org/2000/01/rdf-schema#" xmlns:dc="http://purl.org/dc/elements/1.1/"><rdf:Description about="https://iconscout.com/legal#licenses" dc:title="sketching" dc:description="sketching" dc:publisher="Iconscout" dc:date="2017-09-22" dc:format="image/svg+xml" dc:language="en"><dc:creator><rdf:Bag><rdf:li>Graphiqa Stock</rdf:li></rdf:Bag></dc:creator></rdf:Description></rdf:RDF></metadata></svg>