<?xml version="1.0" encoding="UTF-8"?><!DOCTYPE svg PUBLIC "-//W3C//DTD SVG 1.1//EN" "http://www.w3.org/Graphics/SVG/1.1/DTD/svg11.dtd"><svg xmlns="http://www.w3.org/2000/svg" xmlns:xlink="http://www.w3.org/1999/xlink" version="1.1" id="Studio" x="0px" y="0px" width="512px" height="512px" viewBox="0 0 512 512" xml:space="preserve"><circle id="Background" fill="#9C9" cx="256" cy="256" r="256"/><g id="Studio_1_"><path fill="#A9ABAE" d="M121.548 84.634h268.904c2.702 0 4.803 2.101 4.803 4.801v174.067c0 2.703-2.101 4.804-4.803 4.804H121.548c-2.703 0-4.803-2.101-4.803-4.804V89.435c0-2.701 2.1-4.801 4.803-4.801z"/><path fill="#E6A545" d="M127.85 291.414h262.903l36.615 119.147H84.636z"/><path fill="#757575" d="M329.23 314.222v.899c0 .603 0 1.201-.302 1.804H181.87c-.297-.603-.297-1.201-.297-1.804v-.899-.899c0-9.603 33.013-17.707 73.824-17.707 40.82 0 73.833 8.104 73.833 17.707v.899z"/><path fill="#696969" d="M329.23 314.222v.899c0 .603 0 1.201-.302 1.804H250v-21.009c1.799-.301 3.598-.301 5.397-.301 40.82 0 73.833 8.104 73.833 17.707v.9z"/><path fill="#CCC" d="M228.69 233.791h53.418v64.226H228.69z"/><path fill="#B8B8B8" d="M282.108 268.306v29.711H250v-29.711z"/><path fill="#B8B8B8" d="M232.891 237.992h46.217v55.823h-46.217z"/><path fill="#A6A6A6" d="M279.108 268.306v25.509H250v-25.509z"/><path fill="#4E5A62" d="M132.05 91.536h252.402c2.101 0 3.598 1.801 3.598 3.901v157.86c0 2.101-1.497 3.904-3.598 3.904H127.548c-2.101 0-3.599-1.804-3.599-3.904V99.939c.001-4.502 3.599-8.403 8.101-8.403z"/><path fill="#CCC" d="M256 258.101c2.101 0 3.899 1.799 3.899 3.903 0 2.101-1.799 3.599-3.899 3.599s-3.899-1.498-3.899-3.599c0-2.105 1.798-3.903 3.899-3.903z"/><path fill="#B3B3B3" d="M256 259.301a2.691 2.691 0 0 1 2.703 2.703c0 1.197-1.201 2.397-2.703 2.397-1.498 0-2.703-1.2-2.703-2.397a2.694 2.694 0 0 1 2.703-2.703z"/><path fill="#C2C3C5" d="M139.255 98.738h14.703v15.006h-14.703V98.738zm17.707 135.053h14.703v14.707h-14.703v-14.707zm-17.707 0h14.703v14.707h-14.703v-14.707zm17.707-16.804h14.703v14.703h-14.703v-14.703zm-17.707 0h14.703v14.703h-14.703v-14.703zm17.707-17.109h14.703v15.004h-14.703v-15.004zm-17.707 0h14.703v15.004h-14.703v-15.004zm17.707-16.807h14.703v14.707h-14.703v-14.707zm-17.707 0h14.703v14.707h-14.703v-14.707zm17.707-16.803h14.703v14.703h-14.703v-14.703zm-17.707 0h14.703v14.703h-14.703v-14.703zm17.707-16.812h14.703v14.707h-14.703v-14.707zm-17.707 0h14.703v14.707h-14.703v-14.707zm17.707-16.803h14.703v14.703h-14.703v-14.703zm-17.707 0h14.703v14.703h-14.703v-14.703zm17.707-17.107h14.703v15.004h-14.703v-15.004zm-17.707 0h14.703v15.004h-14.703v-15.004zm17.707-16.808h14.703v15.006h-14.703V98.738z"/><path fill="#E6E7E8" d="M179.77 97.538h200.18v150.96H179.77z"/><path fill="#B3B3B3" d="M179.77 97.538h200.18v17.707H179.77z"/><path fill="#999" d="M199.878 101.14h15.904c2.402 0 4.201 1.799 4.201 4.201 0 2.402-1.799 4.201-4.201 4.201h-15.904c-2.401 0-4.205-1.799-4.205-4.201.001-2.402 1.804-4.201 4.205-4.201z"/><path fill="#999" d="M228.69 101.14h15.904c2.401 0 4.201 1.799 4.201 4.201 0 2.402-1.799 4.201-4.201 4.201H228.69c-2.402 0-4.205-1.799-4.205-4.201 0-2.402 1.804-4.201 4.205-4.201z"/><path fill="#999" d="M257.502 101.14h15.904c2.401 0 4.2 1.799 4.2 4.201 0 2.402-1.799 4.201-4.2 4.201h-15.904c-2.401 0-4.205-1.799-4.205-4.201 0-2.402 1.804-4.201 4.205-4.201z"/><path fill="#999" d="M286.611 101.14h15.606c2.401 0 4.502 1.799 4.502 4.201 0 2.402-2.101 4.201-4.502 4.201h-15.606c-2.402 0-4.503-1.799-4.503-4.201 0-2.402 2.101-4.201 4.503-4.201z"/><path fill="#999" d="M315.423 101.14h15.606c2.401 0 4.502 1.799 4.502 4.201 0 2.402-2.101 4.201-4.502 4.201h-15.606c-2.402 0-4.502-1.799-4.502-4.201 0-2.402 2.1-4.201 4.502-4.201z"/><path fill="#999" d="M344.234 101.14h15.908c2.1 0 4.2 1.799 4.2 4.201 0 2.402-2.101 4.201-4.2 4.201h-15.908c-2.401 0-4.502-1.799-4.502-4.201 0-2.402 2.101-4.201 4.502-4.201z"/><path fill="#FFF" d="M186.674 120.347h186.674v123.649H186.674z"/><path fill="#CBD0D4" d="M207.08 191.176h40.217v28.807H207.08z"/><path fill="#51A8B1" d="M210.682 194.778h33.012v21.607h-33.012z"/><path fill="#CBD0D4" d="M253.297 181.272h40.218v28.51h-40.218z"/><path fill="#51A8B1" d="M256.899 184.569h33.314v21.611h-33.314z"/><path fill="#E6E7E8" d="M196.577 130.55h91.536v65.124h-91.536z"/><path fill="#51A8B1" d="M204.678 138.653h75.632v49.222h-75.632z"/><path fill="#CCC" d="M309.72 132.653h58.954v8.629H309.72z"/><path fill="#E6E6E6" d="M309.72 144.355h58.824v42.017H309.72z"/><path fill="#E6E6E6" d="M309.72 188.774h58.954v20.952H309.72z"/><path fill="#CF953E" d="M84.636 410.561h342.969v16.836H84.636z"/><path fill="#E6E6E6" d="M184.569 331.33h186.678c2.698 3.302 5.101 6.603 7.799 10.201 2.703 3.302 5.104 6.904 7.804 10.205 2.401 3.302 5.104 6.904 7.803 10.205 2.402 3.603 5.104 6.903 7.507 10.205H153.063c2.398-3.302 5.097-6.603 7.799-10.205 2.703-3.301 5.104-6.903 7.803-10.205 2.699-3.301 5.402-6.903 8.105-10.205 2.401-3.598 5.1-6.899 7.799-10.201z"/><path fill="#CCC" d="M153.661 371.544h247.896c.603 0 1.201 1.201 1.201 2.401 0 1.502-.599 2.402-1.201 2.402H153.661c-.599 0-1.201-.9-1.201-2.402 0-1.2.603-2.401 1.201-2.401z"/><path fill="#B3B3B3" d="M153.661 371.845c-.599 0-.9 1.8-.9 2.101 0 .603.301 2.101.9 2.101h247.896c.603 0 .899-1.498.899-2.101 0-.301-.297-2.101-.899-2.101H153.661z"/><path fill="#CFCFCF" d="M274.306 331.33H371.248c2.698 3.302 5.101 6.603 7.799 10.201 2.703 3.302 5.104 6.904 7.804 10.205 2.401 3.302 5.104 6.904 7.803 10.205 2.402 3.603 5.104 6.903 7.507 10.205H274.307V331.33z"/><path fill="#CCC" d="M171.666 361.641h36.017c-.904 1.502-1.502 3.004-2.101 4.2h-36.917c.9-1.196 2.101-2.698 3.001-4.2z"/><path fill="#CCC" d="M210.083 361.641c3.9 0 7.799 0 11.703.301-.598 1.201-1.201 2.703-1.803 4.201H208.28c.302-1.498 1.201-3 1.803-4.502z"/><path fill="#CCC" d="M223.59 361.941h11.703c-.599 1.201-1.201 2.703-1.502 4.201h-12.004c.598-1.497 1.2-2.999 1.803-4.201z"/><path fill="#CCC" d="M237.092 361.941h11.406c-.301 1.502-.599 2.703-.9 4.201H235.59c.602-1.497.904-2.999 1.502-4.201z"/><path fill="#CCC" d="M250.598 361.941h11.406c-.301 1.502-.301 3-.603 4.201h-12.004c.302-1.497.603-2.699 1.201-4.201z"/><path fill="#CCC" d="M263.804 361.941h11.702c0 1.502-.297 3-.297 4.502-3.903 0-7.803 0-12.008-.301.301-1.201.603-2.699.603-4.201z"/><path fill="#CCC" d="M277.31 361.941c3.899 0 7.804.301 11.703.301v4.201h-12.004c.301-1.502.301-3 .301-4.502z"/><path fill="#CCC" d="M290.812 362.242h11.707c0 1.498.302 2.699.302 4.201h-12.009v-4.201z"/><path fill="#CCC" d="M304.318 362.242h11.707c0 1.498.297 3 .598 4.201h-12.004c0-1.502-.301-2.703-.301-4.201z"/><path fill="#CCC" d="M317.824 362.242h11.703c.301 1.498.603 3 .903 4.503-3.903 0-7.803 0-12.008-.302-.297-1.201-.297-2.703-.598-4.201z"/><path fill="#CCC" d="M331.33 362.242h11.402c.603 1.498.903 3 1.502 4.503H332.23c-.301-1.503-.602-3.005-.9-4.503z"/><path fill="#CCC" d="M344.535 362.242c12.005.298 24.009.298 36.013.298.899 1.502 1.502 2.702 2.402 4.205h-36.917c-.297-1.503-.899-3.005-1.498-4.503z"/><path fill="#CCC" d="M206.18 356.238h11.406c-.9 1.502-1.502 3-2.402 4.201h-11.402c.896-1.201 1.498-2.699 2.398-4.201z"/><path fill="#CCC" d="M219.385 356.238h11.105c-.599 1.502-1.201 3-1.799 4.502-3.904 0-7.803 0-11.703-.301.895-1.201 1.497-2.699 2.397-4.201z"/><path fill="#CCC" d="M232.293 356.238c3.598.302 7.498.302 11.104.302-.301 1.2-.904 2.698-1.502 4.2h-11.406c.599-1.502 1.201-3 1.804-4.502z"/><path fill="#CCC" d="M245.197 356.54h11.104c-.301 1.502-.603 2.698-.904 4.2h-11.703c.599-1.502 1.202-3 1.503-4.2z"/><path fill="#CCC" d="M258.101 356.54h11.405c-.301 1.502-.602 2.698-.899 4.2h-11.405c.3-1.502.597-2.698.899-4.2z"/><path fill="#CCC" d="M271.306 356.54h11.104c0 1.502-.302 3-.302 4.2h-11.702c.301-1.2.598-2.698.9-4.2z"/><path fill="#CCC" d="M284.209 356.54h11.104v4.502c-3.899 0-7.502 0-11.401-.302 0-1.2.297-2.698.297-4.2z"/><path fill="#CCC" d="M297.117 356.54c3.899 0 7.502 0 11.401.301 0 1.201 0 2.699.302 4.201h-11.703v-4.502z"/><path fill="#CCC" d="M310.322 356.841h11.104c.297 1.201.297 2.699.599 4.201h-11.406c-.297-1.502-.297-3-.297-4.201z"/><path fill="#CCC" d="M323.226 356.841h11.104c.302 1.498.9 2.699 1.201 4.201h-11.707c0-1.502-.297-3-.598-4.201z"/><path fill="#CCC" d="M336.13 356.841h11.104c.603 1.498 1.201 3 1.502 4.201H337.33c-.297-1.502-.899-2.703-1.2-4.201z"/><path fill="#CCC" d="M349.038 356.841h28.51c.899 1.498 1.498 3 2.402 4.498-9.904 0-19.511 0-29.415-.297-.297-1.201-.899-2.703-1.497-4.201z"/><path fill="#CCC" d="M176.167 356.238h28.213c-.9 1.502-1.502 3-2.402 4.201h-29.41c1.198-1.498 2.403-2.699 3.599-4.201z"/><path fill="#CCC" d="M196.878 350.837h10.804c-.603 1.502-1.502 2.703-2.402 4.201h-11.104c.899-1.498 1.799-2.699 2.702-4.201z"/><path fill="#CCC" d="M209.481 350.837h10.804c-.599 1.502-1.498 3-2.101 4.201H207.08c.602-1.498 1.502-2.699 2.401-4.201z"/><path fill="#CCC" d="M222.084 350.837h10.807c-.598 1.502-1.201 3-1.803 4.201h-11.104c.602-1.201 1.204-2.699 2.1-4.201z"/><path fill="#CCC" d="M234.393 350.837h10.804c-.301 1.502-.904 3-1.201 4.502-3.903 0-7.502-.301-11.104-.301.598-1.201 1.2-2.699 1.501-4.201z"/><path fill="#CCC" d="M246.996 350.837c3.603 0 7.205 0 10.803.301-.297 1.201-.598 2.699-.899 4.201h-11.104c.3-1.502.899-3 1.2-4.502z"/><path fill="#CCC" d="M259.603 351.138h10.804c-.302 1.201-.603 2.699-.9 4.201h-11.104c.597-1.502.898-3 1.2-4.201z"/><path fill="#CCC" d="M272.205 351.138h10.808c-.302 1.498-.302 2.699-.603 4.201h-11.104c.3-1.502.602-3 .899-4.201z"/><path fill="#CCC" d="M284.511 351.138h10.803v4.201H284.21c.301-1.502.301-2.703.301-4.201z"/><path fill="#CCC" d="M297.117 351.138h10.804c0 1.498.301 3 .301 4.201h-11.104l-.001-4.201z"/><path fill="#CCC" d="M309.72 351.138h10.808c.297 1.498.297 3 .599 4.503-3.603 0-7.503-.302-11.105-.302-.001-1.201-.302-2.703-.302-4.201z"/><path fill="#CCC" d="M322.025 351.138h10.803c.603 1.498.904 3 1.201 4.503h-11.104c-.297-1.503-.599-3.005-.9-4.503z"/><path fill="#CCC" d="M334.632 351.138h10.804c.598 1.498.899 3 1.502 4.503h-11.104c-.303-1.503-.604-3.005-1.202-4.503z"/><path fill="#CCC" d="M347.234 351.138h10.808c.599 1.498 1.196 3 1.799 4.503h-11.104c-.603-1.503-.9-3.005-1.503-4.503z"/><path fill="#CCC" d="M359.841 351.138c4.804.302 9.904.302 14.707.302.899 1.196 1.498 2.698 2.397 4.201H361.64c-.598-1.503-1.201-3.005-1.799-4.503z"/><path fill="#CCC" d="M180.368 350.837h14.707c-.899 1.502-1.799 2.703-2.699 4.201h-15.305c.896-1.498 2.1-2.699 3.297-4.201z"/><path fill="#CCC" d="M183.975 345.436h10.502c-.603 1.2-1.502 2.698-2.402 4.2h-10.803c.899-1.502 2.101-3 2.703-4.2z"/><path fill="#CCC" d="M196.276 345.436h10.205c-.598 1.502-1.201 2.698-2.1 4.2h-10.808c.904-1.502 1.803-3 2.703-4.2z"/><path fill="#CCC" d="M208.28 345.436h10.506c-.603 1.502-1.201 2.698-2.101 4.2h-10.506c.599-1.502 1.503-2.698 2.101-4.2z"/><path fill="#CCC" d="M220.285 345.436h10.506c-.301 1.502-.9 2.698-1.502 4.2h-10.803c.602-1.502 1.497-2.698 1.799-4.2z"/><path fill="#CCC" d="M232.59 345.436h10.205c-.301 1.502-.603 3-1.201 4.2h-10.803c.598-1.502 1.201-2.698 1.799-4.2z"/><path fill="#CCC" d="M244.594 345.436H255.1c-.301 1.502-.599 3-1.201 4.2h-10.502c.297-1.2.896-2.698 1.197-4.2z"/><path fill="#CCC" d="M256.599 345.436h10.506c-.301 1.502-.301 3-.603 4.2h-10.803c.301-1.2.602-2.698.9-4.2z"/><path fill="#CCC" d="M268.606 345.436h10.502c0 1.502 0 3-.301 4.502-3.599 0-7.201 0-10.502-.302.001-1.2.301-2.698.301-4.2z"/><path fill="#CCC" d="M280.908 345.436h10.205c.301 1.502.301 3 .301 4.502h-10.803c0-1.502.297-3 .297-4.502z"/><path fill="#CCC" d="M292.916 345.436h10.502c0 1.502.302 3 .302 4.502h-10.804v-4.502z"/><path fill="#CCC" d="M304.921 345.436c3.598.301 6.899.301 10.502.301.301 1.201.603 2.699.603 4.201h-10.507c-.301-1.502-.301-3-.598-4.502z"/><path fill="#CCC" d="M317.222 345.736h10.205c.603 1.201.899 2.699 1.201 4.201h-10.804c-.301-1.501-.301-2.999-.602-4.201z"/><path fill="#CCC" d="M329.23 345.736h10.502c.301 1.498.899 2.699 1.2 4.201H330.43c-.602-1.501-.903-2.999-1.2-4.201z"/><path fill="#CCC" d="M341.531 345.736h10.507c.598 1.498.899 2.699 1.502 4.201h-10.507c-.597-1.501-1.2-2.703-1.502-4.201z"/><path fill="#CCC" d="M353.837 345.736h18.008c.599 1.498 1.503 3 2.101 4.201h-18.305c-.603-1.501-1.202-2.703-1.804-4.201z"/><path fill="#CCC" d="M193.276 338.531h5.703c1.197 0 1.799.603 1.799.899-.301.603-1.498.904-2.703.904h-5.397c-1.205 0-2.101-.302-1.803-.904.301-.296 1.501-.899 2.401-.899z"/><path fill="#CCC" d="M204.381 338.531h5.401c1.201 0 2.101.603 1.799.899-.301.603-1.197.904-2.401.904h-5.699c-.903 0-1.803-.302-1.502-.904 0-.296 1.201-.899 2.402-.899z"/><path fill="#CCC" d="M215.184 338.531h5.703c.899 0 1.799.603 1.498.899 0 .603-1.196.904-2.1.904h-5.699c-1.205 0-1.804-.302-1.804-.904.301-.296 1.201-.899 2.402-.899z"/><path fill="#CCC" d="M225.987 338.531h5.703c1.201 0 1.799.603 1.799.899 0 .603-1.197.904-2.402.904h-5.397c-1.205 0-2.101-.302-1.803-.904 0-.296 1.201-.899 2.1-.899z"/><path fill="#CCC" d="M237.092 338.531h5.401c1.201 0 2.101.603 1.799.899 0 .603-.896.904-2.101.904h-5.699c-.904 0-1.799-.302-1.799-.904.299-.296 1.198-.899 2.399-.899z"/><path fill="#CCC" d="M247.899 338.531h5.699c.904 0 1.799.603 1.799.899 0 .603-1.197.904-2.101.904h-5.699c-1.205 0-2.1-.302-1.803-.904.001-.296.901-.899 2.105-.899z"/><path fill="#CCC" d="M258.703 338.531h5.698c.904 0 1.804.603 1.804.899 0 .603-.899.904-2.101.904h-5.401c-1.201 0-2.104-.302-2.104-.904 0-.296 1.2-.899 2.104-.899z"/><path fill="#CCC" d="M269.506 338.531h5.703c1.201 0 2.101.603 2.101.899 0 .603-.899.904-2.101.904h-5.703c-1.2 0-2.1-.302-1.803-.904 0-.296.903-.899 1.803-.899z"/><path fill="#CCC" d="M280.611 338.531c1.799 0 3.598.302 5.401.302 1.2 0 2.101.301 2.101.598 0 .603-.9.904-1.804.904h-5.698c-1.201 0-2.101-.302-2.101-.904.001-.297.9-.9 2.101-.9z"/><path fill="#CCC" d="M291.414 338.833h5.703c.899 0 2.101.301 2.101.598 0 .603-.899.904-2.101.904h-5.401c-1.201 0-2.101-.302-2.101-.904-.302-.297.598-.598 1.799-.598z"/><path fill="#CCC" d="M302.218 338.833h5.703c1.2 0 2.1.301 2.1.598.302.603-.598.904-1.799.904h-5.703c-1.2 0-2.101-.302-2.101-.904 0-.297.9-.598 1.8-.598z"/><path fill="#CCC" d="M313.322 338.833h5.401c1.201 0 2.101.301 2.402.899 0 .301-.9.603-1.8.603h-5.703c-1.2 0-2.1-.302-2.401-.603.001-.598.9-.899 2.101-.899z"/><path fill="#CCC" d="M324.126 338.833h5.702c.9 0 2.101.301 2.101.899.302.301-.599.603-1.799.603h-5.402c-1.2 0-2.401-.302-2.401-.603-.001-.598.598-.899 1.799-.899z"/><path fill="#CCC" d="M334.929 338.833h5.703c1.201 0 2.101.301 2.401.899 0 .301-.598.899-1.799.899h-5.703c-1.201 0-2.101-.599-2.401-.899 0-.598.602-.899 1.799-.899z"/><path fill="#CCC" d="M346.033 338.833h5.406c1.196 0 2.101.301 2.397.899.301.301-.599.899-1.498.899h-5.703c-1.2 0-2.401-.599-2.401-.899-.3-.598.599-.899 1.799-.899z"/><path fill="#CCC" d="M356.841 338.833h5.401c1.201 0 2.402.301 2.699.899.301.301-.599.899-1.799.899h-5.402c-1.2 0-2.401-.599-2.702-.899 0-.598.603-.899 1.803-.899z"/><path fill="#CCC" d="M197.18 333.13c2.101 0 3.599.301 3.599.899 0 .603-1.498.899-3.599.899-2.104 0-3.606-.297-3.606-.899-.001-.598 1.802-.899 3.606-.899z"/><path fill="#CCC" d="M205.883 333.431c1.197 0 2.397.302 2.397.599 0 .301-1.201.603-2.397.603-1.502 0-2.402-.302-2.402-.603 0-.298.9-.599 2.402-.599z"/><path fill="#B8B8B8" d="M272.205 361.941h3.301c0 1.502-.297 3-.297 4.502h-3.301c0-1.502.297-3 .297-4.502z"/><path fill="#B8B8B8" d="M277.31 361.941c3.899 0 7.804.301 11.703.301v4.201h-12.004c.301-1.502.301-3 .301-4.502z"/><path fill="#B8B8B8" d="M290.812 362.242h11.707c0 1.498.302 2.699.302 4.201h-12.009v-4.201z"/><path fill="#B8B8B8" d="M304.318 362.242h11.707c0 1.498.297 3 .598 4.201h-12.004c0-1.502-.301-2.703-.301-4.201z"/><path fill="#B8B8B8" d="M317.824 362.242h11.703c.301 1.498.603 3 .903 4.503-3.903 0-7.803 0-12.008-.302-.297-1.201-.297-2.703-.598-4.201z"/><path fill="#B8B8B8" d="M331.33 362.242h11.402c.603 1.498.903 3 1.502 4.503H332.23c-.301-1.503-.602-3.005-.9-4.503z"/><path fill="#B8B8B8" d="M344.535 362.242c12.005.298 24.009.298 36.013.298.899 1.502 1.502 2.702 2.402 4.205h-36.917c-.297-1.503-.899-3.005-1.498-4.503z"/><path fill="#B8B8B8" d="M273.104 356.54h9.306c0 1.502-.302 3-.302 4.2h-9.603c.001-1.2.303-2.698.599-4.2z"/><path fill="#B8B8B8" d="M284.209 356.54h11.104v4.502c-3.899 0-7.502 0-11.401-.302 0-1.2.297-2.698.297-4.2z"/><path fill="#B8B8B8" d="M297.117 356.54c3.899 0 7.502 0 11.401.301 0 1.201 0 2.699.302 4.201h-11.703v-4.502z"/><path fill="#B8B8B8" d="M310.322 356.841h11.104c.297 1.201.297 2.699.599 4.201h-11.406c-.297-1.502-.297-3-.297-4.201z"/><path fill="#B8B8B8" d="M323.226 356.841h11.104c.302 1.498.9 2.699 1.201 4.201h-11.707c0-1.502-.297-3-.598-4.201z"/><path fill="#B8B8B8" d="M336.13 356.841h11.104c.603 1.498 1.201 3 1.502 4.201H337.33c-.297-1.502-.899-2.703-1.2-4.201z"/><path fill="#B8B8B8" d="M349.038 356.841h28.51c.899 1.498 1.498 3 2.402 4.498-9.904 0-19.511 0-29.415-.297-.297-1.201-.899-2.703-1.497-4.201z"/><path fill="#B8B8B8" d="M273.707 351.138h9.306c-.302 1.498-.302 2.699-.603 4.201h-9.306c.302-1.502.302-3 .603-4.201z"/><path fill="#B8B8B8" d="M284.511 351.138h10.803v4.201H284.21c.301-1.502.301-2.703.301-4.201z"/><path fill="#B8B8B8" d="M297.117 351.138h10.804c0 1.498.301 3 .301 4.201h-11.104l-.001-4.201z"/><path fill="#B8B8B8" d="M309.72 351.138h10.808c.297 1.498.297 3 .599 4.503-3.603 0-7.503-.302-11.105-.302-.001-1.201-.302-2.703-.302-4.201z"/><path fill="#B8B8B8" d="M322.025 351.138h10.803c.603 1.498.904 3 1.201 4.503h-11.104c-.297-1.503-.599-3.005-.9-4.503z"/><path fill="#B8B8B8" d="M334.632 351.138h10.804c.598 1.498.899 3 1.502 4.503h-11.104c-.303-1.503-.604-3.005-1.202-4.503z"/><path fill="#B8B8B8" d="M347.234 351.138h10.808c.599 1.498 1.196 3 1.799 4.503h-11.104c-.603-1.503-.9-3.005-1.503-4.503z"/><path fill="#B8B8B8" d="M359.841 351.138c4.804.302 9.904.302 14.707.302.899 1.196 1.498 2.698 2.397 4.201H361.64c-.598-1.503-1.201-3.005-1.799-4.503z"/><path fill="#B8B8B8" d="M274.009 345.436h5.1c0 1.502 0 3-.301 4.502h-5.101c.302-1.502.302-3 .302-4.502z"/><path fill="#B8B8B8" d="M280.908 345.436h10.205c.301 1.502.301 3 .301 4.502h-10.803c0-1.502.297-3 .297-4.502z"/><path fill="#B8B8B8" d="M292.916 345.436h10.502c0 1.502.302 3 .302 4.502h-10.804v-4.502z"/><path fill="#B8B8B8" d="M304.921 345.436c3.598.301 6.899.301 10.502.301.301 1.201.603 2.699.603 4.201h-10.507c-.301-1.502-.301-3-.598-4.502z"/><path fill="#B8B8B8" d="M317.222 345.736h10.205c.603 1.201.899 2.699 1.201 4.201h-10.804c-.301-1.501-.301-2.999-.602-4.201z"/><path fill="#B8B8B8" d="M329.23 345.736h10.502c.301 1.498.899 2.699 1.2 4.201H330.43c-.602-1.501-.903-2.999-1.2-4.201z"/><path fill="#B8B8B8" d="M341.531 345.736h10.507c.598 1.498.899 2.699 1.502 4.201h-10.507c-.597-1.501-1.2-2.703-1.502-4.201z"/><path fill="#B8B8B8" d="M353.837 345.736h18.008c.599 1.498 1.503 3 2.101 4.201h-18.305c-.603-1.501-1.202-2.703-1.804-4.201z"/><path fill="#B8B8B8" d="M274.009 338.531h1.2c1.201 0 2.101.603 2.101.899 0 .603-.899.904-2.101.904h-1.2v-1.803z"/><path fill="#B8B8B8" d="M280.611 338.531c1.799 0 3.598.302 5.401.302 1.2 0 2.101.301 2.101.598 0 .603-.9.904-1.804.904h-5.698c-1.201 0-2.101-.302-2.101-.904.001-.297.9-.9 2.101-.9z"/><path fill="#B8B8B8" d="M291.414 338.833h5.703c.899 0 2.101.301 2.101.598 0 .603-.899.904-2.101.904h-5.401c-1.201 0-2.101-.302-2.101-.904-.302-.297.598-.598 1.799-.598z"/><path fill="#B8B8B8" d="M302.218 338.833h5.703c1.2 0 2.1.301 2.1.598.302.603-.598.904-1.799.904h-5.703c-1.2 0-2.101-.302-2.101-.904 0-.297.9-.598 1.8-.598z"/><path fill="#B8B8B8" d="M313.322 338.833h5.401c1.201 0 2.101.301 2.402.899 0 .301-.9.603-1.8.603h-5.703c-1.2 0-2.1-.302-2.401-.603.001-.598.9-.899 2.101-.899z"/><path fill="#B8B8B8" d="M324.126 338.833h5.702c.9 0 2.101.301 2.101.899.302.301-.599.603-1.799.603h-5.402c-1.2 0-2.401-.302-2.401-.603-.001-.598.598-.899 1.799-.899z"/><path fill="#B8B8B8" d="M334.929 338.833h5.703c1.201 0 2.101.301 2.401.899 0 .301-.598.899-1.799.899h-5.703c-1.201 0-2.101-.599-2.401-.899 0-.598.602-.899 1.799-.899z"/><path fill="#B8B8B8" d="M346.033 338.833h5.406c1.196 0 2.101.301 2.397.899.301.301-.599.899-1.498.899h-5.703c-1.2 0-2.401-.599-2.401-.899-.3-.598.599-.899 1.799-.899z"/><path fill="#B8B8B8" d="M356.841 338.833h5.401c1.201 0 2.402.301 2.699.899.301.301-.599.899-1.799.899h-5.402c-1.2 0-2.401-.599-2.702-.899 0-.598.603-.899 1.803-.899z"/><path fill="#B8B8B8" d="M274.306 371.544h127.251c.603 0 1.201 1.201 1.201 2.401 0 1.502-.599 2.402-1.201 2.402H274.306v-4.803z"/><path fill="#A1A1A1" d="M274.306 376.046h127.251c.603 0 .899-1.498.899-2.101 0-.301-.297-2.101-.899-2.101H274.306v4.202z"/><path fill="#FC9" d="M400.355 386.85l.302-6.302 12.603 3.302z"/><path fill="#FC9" d="M400.355 386.85l.302-6.302.899.302c.603.301 1.201.899 1.502 1.2.297.599-1.502 1.201-1.502 1.498-.302.603 1.502 1.201 1.799 1.502 0 .302-1.196.9-2.101 1.503l-.899.297z"/><path fill="#4D4D4D" d="M410.26 382.95l3 .9-3 .602z"/><path fill="#E6B800" d="M400.355 386.85h-101.74c-5.101 0-5.101-6.302 0-6.302h102.042c.301.899 1.799 1.201 1.799 1.502 0 .298-1.799.9-1.799 1.8 0 .603 2.401 1.2 1.799 1.502-.297.296-1.201.899-2.101 1.498z"/><path fill="#FC0" d="M401.857 382.648c-.603.302-1.2.603-1.2 1.201 0 .301.598.603 1.2.899h-96.64v-2.101h96.64z"/><path fill="#E6B800" d="M400.355 386.85h-95.138v-2.101h96.64c.599.301.9.301.599.603-.297.296-1.201.899-2.101 1.498z"/><path fill="#CFA600" d="M305.218 386.85h-2.699v-6.302h2.699z"/><path fill="#C30" d="M302.519 386.85h-3.903c-5.401 0-5.101-6.302 0-6.302h3.903v6.302z"/><path fill="#4E5A62" d="M289.013 274.908v9.603h101.74c3 0 5.703 2.101 6.603 4.803l36.615 119.448c0 .598.297 1.196.297 1.799v16.808c0 3.899-3 6.899-6.899 6.899H84.636c-3.903 0-6.904-3-6.904-6.899v-16.808c0-.603.301-1.502.599-2.101l25.812-71.427-11.406-23.711c-7.502-1.201-13.506-7.804-13.506-15.908 0-8.703 6.603-15.903 15.004-16.205l15.606-30.912V89.435c0-6.303 5.406-11.705 11.707-11.705h268.904c6.301 0 11.707 5.402 11.707 11.705v174.067c0 6.302-5.406 11.406-11.707 11.406H289.013zm3.602 16.506h-10.507V268.306h108.344c2.702 0 4.803-2.101 4.803-4.804V89.435c0-2.701-2.101-4.801-4.803-4.801H121.548c-2.703 0-4.803 2.101-4.803 4.801v174.067c0 2.703 2.101 4.804 4.803 4.804H228.69V291.414H127.85l-24.611 68.126-7.201 19.506-11.402 31.515v16.808h342.732v-16.808l-36.615-119.146h-98.138zm-70.828-6.903v-9.603H121.548c-1.502 0-2.703 0-3.602-.603l-8.105 15.606c1.205 2.101 1.804 4.804 1.804 7.502 0 3.004-.9 6.004-2.402 8.707l3.603 7.502 8.703-24.61c1.201-2.703 3.599-4.502 6.302-4.502h93.936zm-111.645 36.016l-7.205-15.009c2.104-2.101 3.606-5.101 3.606-8.104 0-2.698-1.205-5.401-2.703-7.201l9.306-18.606c-1.803-2.101-3.306-5.104-3.306-8.104v-1.2l-12.301 24.31c-.603-.302-1.502-.302-2.1-.302-6.004 0-10.804 5.104-10.804 11.104a10.76 10.76 0 0 0 10.804 10.808h.896l10.506 21.908 3.301-9.604z"/><path fill="#26A69A" d="M90.034 294.716l6.301-3 42.318 89.134-6.301 3z"/><path fill="#26A69A" d="M141.355 216.083l-6.301-3.301-44.719 87.934 6.301 3.301z"/><path fill="#00877A" d="M139.854 204.678l-7.803 7.808c-2.101 2.101-2.101 5.699 0 7.799 2.402 2.1 6.004 2.1 8.104 0l7.502-7.799c-1.799-.301-3.598-1.205-5.1-2.703-1.503-1.201-2.402-3.005-2.703-5.105z"/><path fill="#26A69A" d="M237.69 198.075l-71.125 61.528-13.205-46.52 29.41-30.313z"/><path fill="#009688" d="M165.315 173.424l-22.71 22.71a9.737 9.737 0 0 0 0 13.775l.02.02c3.806 3.802 9.973 3.802 13.775 0l22.71-22.706c3.802-3.806 3.802-9.973 0-13.775l-.021-.024c-3.805-3.802-9.972-3.802-13.774 0z"/><path fill="#00877A" d="M95.439 286.611c5.967 0 10.803 4.84 10.803 10.803 0 5.968-4.836 10.808-10.803 10.808-5.968 0-10.804-4.84-10.804-10.808.001-5.963 4.837-10.803 10.804-10.803z"/><path fill="#007A6E" d="M147.355 363.143c-.301-.603-.301-1.502-.301-2.101v-1.804c0-3.899 3.004-6.899 6.903-6.899h12.607c3.904 0 6.904 3 6.904 6.899v1.804c0 .599 0 1.498-.301 2.101h-25.812z"/><path fill="#00877A" d="M110.443 363.143h99.86c5.471 0 9.9 4.433 9.9 9.903v.57c0 5.471-4.429 9.903-9.9 9.903h-99.86c-5.471 0-9.904-4.433-9.904-9.903v-.57a9.903 9.903 0 0 1 9.904-9.903z"/></g><metadata><rdf:RDF xmlns:rdf="http://www.w3.org/1999/02/22-rdf-syntax-ns#" xmlns:rdfs="http://www.w3.org/2000/01/rdf-schema#" xmlns:dc="http://purl.org/dc/elements/1.1/"><rdf:Description about="https://iconscout.com/legal#licenses" dc:title="studio" dc:description="studio" dc:publisher="Iconscout" dc:date="2017-09-22" dc:format="image/svg+xml" dc:language="en"><dc:creator><rdf:Bag><rdf:li>Graphiqa Stock</rdf:li></rdf:Bag></dc:creator></rdf:Description></rdf:RDF></metadata></svg>