<?xml version="1.0" encoding="UTF-8"?><!DOCTYPE svg PUBLIC "-//W3C//DTD SVG 1.1//EN" "http://www.w3.org/Graphics/SVG/1.1/DTD/svg11.dtd"><svg xmlns="http://www.w3.org/2000/svg" xmlns:xlink="http://www.w3.org/1999/xlink" version="1.1" id="Think_Out_OF_the_Box" x="0px" y="0px" width="512px" height="512px" viewBox="0 0 512 512" xml:space="preserve"><g id="Think_Out_OF_the_Box_1_"><path id="Background" fill="#3C9" d="M255.979 5.729c138.025 0 249.943 112.029 249.943 250.189S394.004 506.106 255.979 506.106 6.032 394.079 6.032 255.919 117.954 5.729 255.979 5.729z"/><path fill="#FFCC29" d="M263.479 3.328c31.207.599 55.512 30.934 55.21 57.366-.598 26.729-13.503 41.446-31.805 50.457l-49.211-.9c-19.201-9.311-32.102-29.133-31.504-51.661.599-31.235 26.405-55.863 57.31-55.262zm23.406 107.823v0zm-49.81 26.732v-.301l.598-26.729v-.601.601l-.598 27.03z"/><path fill="#BDBFC1" d="M286.885 111.151v.902l-.603 30.934c-.297 6.61-4.798 12.016-10.5 11.714l-28.805-.601c-5.401 0-9.902-5.406-9.902-12.014l.598-31.235v-.601l49.212.901z"/><path fill="#A9ABAE" d="M237.572 115.689l49.948 1.028c1.782.037 3.194 1.497 3.158 3.263-.037 1.766-1.506 3.167-3.288 3.131l-49.948-1.029c-1.778-.035-3.195-1.497-3.158-3.263.036-1.765 1.509-3.166 3.288-3.13z"/><path fill="#A9ABAE" d="M237.315 128.126l49.952 1.029c1.778.037 3.194 1.497 3.158 3.263-.037 1.766-1.511 3.167-3.293 3.131l-49.948-1.027c-1.783-.037-3.195-1.499-3.158-3.263.037-1.766 1.511-3.169 3.289-3.133z"/><path fill="#A9ABAE" d="M237.079 139.783l49.948 1.027c1.778.037 3.194 1.499 3.158 3.265-.037 1.764-1.51 3.165-3.293 3.13l-49.948-1.028c-1.778-.037-3.195-1.497-3.158-3.263.037-1.766 1.511-3.167 3.293-3.131z"/><path fill="#FFF212" d="M248.479 55.286l30.005.601h2.101v2.404l-1.201 52.86-4.199-.299.899-50.459-25.505-.601-1.201 50.758-4.501-.299 1.498-52.861v-2.104z"/><path fill="#4E5A62" d="M321.99 60.994c.301-15.018-6.602-30.036-16.503-40.847C294.687 8.133 279.682.324 263.479.022c-33.005-.9-60.309 25.53-60.912 58.269-.301 22.827 12.006 43.55 31.508 54.063v.601c-1.799 1.202-3.3 3.304-3.3 5.707 0 2.401 1.2 4.805 3.3 6.007v.9c-2.1 1.202-3.602 3.304-3.602 5.707 0 2.401 1.201 4.505 3.3 5.705v.302c-2.1.9-3.3 3.002-3.598 5.705 0 3.004 2.1 5.708 5.1 6.308 2.1 4.805 6.3 8.109 11.701 8.41l28.805.601c5.1 0 9.601-3.304 12.002-7.51 3.301-.601 5.701-3.304 6.003-6.608 0-2.401-1.502-4.805-3.301-6.006 2.1-.9 3.301-3.304 3.301-5.706.297-2.705-1.502-5.106-3.903-6.308 2.401-.9 4.2-3.304 4.2-6.007a7.006 7.006 0 0 0-3.898-6.308v-.601c21.004-10.812 31.207-28.231 31.805-52.259zm-34.507 55.864c1.803 0 3.3 1.501 3.3 3.002 0 1.803-1.497 3.304-3.3 3.304h-.899v6.009h.602c1.799 0 3.301 1.501 3.301 3.304 0 1.801-1.502 3.002-3.301 3.002h-.903v5.406h.903c1.498 0 3 1.503 3 3.304 0 1.503-1.502 3.004-3.301 3.004h-1.502c-1.497 4.506-5.4 7.508-9.601 7.508l-28.805-.601c-4.2 0-8.099-3.304-9.304-7.81h-.895c-1.502 0-3.004-1.501-3.004-3.304 0-1.8 1.502-3.304 3.301-3.304v-2.102l.301-3.002h-.301c-1.799 0-3-1.503-3-3.304 0-1.803 1.498-3.304 3.301-3.004v-6.306c-1.803 0-3-1.503-3-3.004 0-1.803 1.498-3.304 3.296-3.304v-4.805-.601c-19.201-9.311-32.102-29.133-31.504-51.661.598-31.235 26.405-55.863 57.31-55.262 31.207.599 55.512 30.934 55.21 57.366-.598 26.729-13.503 41.446-31.805 50.457V112.052l-.301 4.503.901.303z"/><g><path fill="#FFCC29" d="M81.648 84.12c15.603-3.905 31.805 8.109 35.105 21.324 3.3 13.517-.899 22.528-9.002 29.435v.302l-24.903 6.007c-10.805-2.102-19.803-10.213-22.501-21.625-3.903-15.62 5.697-31.538 21.301-35.443zm26.103 51.06zM86.45 155.003l-3.305-13.517v-.299.299l3.305 13.517z"/><path fill="#BDBFC1" d="M107.751 135.18v.299l3.903 15.619c.899 3.304-.899 6.607-3.602 7.208l-14.403 3.603c-3 .601-6.003-1.501-6.601-4.805l-3.903-15.619v-.299h-.297l24.903-6.006z"/><path fill="#A9ABAE" d="M83.691 143.904l25.135-6.19c.895-.22 1.799.32 2.019 1.21a1.67 1.67 0 0 1-1.229 2.008l-25.135 6.19a1.666 1.666 0 0 1-2.019-1.21 1.665 1.665 0 0 1 1.229-2.008z"/><path fill="#A9ABAE" d="M85.229 150.163l25.131-6.19c.899-.22 1.803.32 2.019 1.21a1.667 1.667 0 0 1-1.225 2.008l-25.135 6.19a1.667 1.667 0 0 1-2.019-1.21 1.663 1.663 0 0 1 1.229-2.008z"/><path fill="#A9ABAE" d="M86.67 156.029l25.135-6.19c.895-.22 1.799.32 2.019 1.208.22.89-.334 1.788-1.229 2.008l-25.135 6.192a1.666 1.666 0 0 1-2.019-1.21 1.668 1.668 0 0 1 1.229-2.008z"/><path fill="#FFF212" d="M81.045 112.353l15.006-3.905 1.2-.299.301 1.2 6.601 26.732-2.401.299-6.002-25.229-12.902 3.005 6.003 25.528-2.1.601-6.601-26.73-.301-1.202z"/><path fill="#4E5A62" d="M113.156 148.094c.896-.9 1.196-2.102.896-3.304-.297-1.501-1.498-2.401-2.698-2.703.899-.9 1.501-2.102 1.2-3.603-.301-1.503-1.498-2.403-2.702-2.703v-.301c9.002-8.109 11.705-18.02 8.701-30.335-1.799-7.508-7.199-14.115-13.801-18.322-6.898-4.505-15.302-6.306-23.706-4.505-16.499 4.206-26.702 21.024-22.501 37.543 2.698 11.415 11.7 20.124 23.104 22.827v.299c-.899.902-1.201 2.104-.899 3.304a3.254 3.254 0 0 0 2.397 2.404v.601c-.896.9-1.197 2.102-.896 3.304a3.251 3.251 0 0 0 2.401 2.404v.299c-.904.601-1.205 1.803-.904 3.304.301 1.503 1.799 2.403 3.301 2.403 1.803 2.102 4.204 3.304 6.902 2.703l14.403-3.603c2.702-.601 4.501-3.004 5.099-5.408 1.502-.601 2.401-2.401 2.104-4.204a3.267 3.267 0 0 0-2.401-2.404zm-.603 5.106h-.602c-.297 2.403-1.799 4.505-3.899 5.106l-14.403 3.603c-2.397.601-4.501-.601-5.702-2.703h-.597c-.899.301-1.803-.3-1.803-1.202-.297-.9.301-1.8 1.205-2.102l-.301-.9-.301-1.501c-.899 0-1.799-.301-2.1-1.202-.301-.902.301-1.803 1.201-2.104l-.598-3.002h-.303c-.903.299-1.803-.301-1.803-1.202-.297-.9.301-1.803 1.2-2.102l-.602-2.403v-.299h-.297c-10.805-2.102-19.803-10.213-22.501-21.625-3.903-15.619 5.698-31.537 21.301-35.441 15.603-3.905 31.805 8.109 35.105 21.324 3.3 13.517-.899 22.528-9.002 29.435v.601l.603 2.403.602-.301c.896 0 1.799.601 1.799 1.202.301.9-.301 1.803-1.205 2.102h-.297l.598 3.304.603-.299c.899 0 1.799.299 1.799 1.202.301.9-.301 1.801-1.197 2.102h-.301l.599 2.703h.598c.602-.299 1.803.299 1.803 1.202.296.898-.302 1.8-1.202 2.099z"/></g><g><path fill="#FFCC29" d="M412.306 10.836c17.402 5.106 26.706 26.131 22.506 41.146-4.2 14.718-13.805 21.326-25.505 23.728h-.302L381.4 67.601c-9.3-8.109-13.801-21.324-9.901-34.24 4.802-17.419 23.404-27.632 40.807-22.525zm-3.301 64.874zm-32.106 7.51L381.4 67.9v-.299.299l-4.501 15.32z"/><path fill="#BDBFC1" d="M409.005 75.71v.301l-5.099 17.721c-.899 3.604-4.501 5.706-7.802 4.805L380.2 94.031c-3.301-.9-5.1-4.805-3.899-8.41l5.1-17.721v-.299l27.604 8.109z"/><path fill="#A9ABAE" d="M380.513 70.697l28.195 8.186a1.887 1.887 0 0 1 1.294 2.334c-.284.996-1.334 1.566-2.34 1.275l-28.195-8.186a1.886 1.886 0 0 1-1.294-2.333 1.883 1.883 0 0 1 2.34-1.276z"/><path fill="#A9ABAE" d="M378.482 77.716l28.191 8.186a1.89 1.89 0 0 1 1.298 2.334 1.885 1.885 0 0 1-2.344 1.275l-28.191-8.186a1.89 1.89 0 0 1-1.299-2.333 1.89 1.89 0 0 1 2.345-1.276z"/><path fill="#A9ABAE" d="M376.573 84.297l28.191 8.186a1.888 1.888 0 0 1 1.298 2.332 1.887 1.887 0 0 1-2.344 1.277l-28.191-8.186a1.889 1.889 0 0 1-1.298-2.333 1.888 1.888 0 0 1 2.344-1.276z"/><path fill="#FFF212" d="M395.803 38.167l17.105 4.807 1.2.299-.3 1.501-8.702 29.736-2.702-.902 8.405-28.532-14.404-4.204-8.404 28.532-2.4-.601 8.705-29.734.297-1.504z"/><path fill="#4E5A62" d="M433.611 26.754c-4.502-8.41-11.701-15.317-20.703-17.721-18.603-5.406-38.109 5.106-43.51 23.728-3.602 12.916 0 26.43 9.601 35.441v.601c-1.196.3-2.396 1.202-2.698 2.703-.603 1.202 0 2.703.899 3.603l-.301.601c-1.201.301-2.397 1.202-2.698 2.705-.302 1.501 0 2.703.899 3.902-1.201.302-2.401 1.202-2.702 2.705-.599 1.8 0 3.603 1.501 4.503.603 3.004 2.703 5.408 5.702 6.308l16.201 4.805c2.703.902 5.702-.3 7.802-2.401 2.101.299 3.903-.902 4.501-2.705.302-1.501 0-3.002-.899-3.903 1.201-.301 2.401-1.503 2.698-2.705.603-1.8 0-3.304-1.196-4.204 1.498-.3 2.698-1.501 3.301-3.002.297-1.503 0-3.004-1.2-3.905v-.601c13.499-2.703 21.903-11.113 26.103-24.629 2.401-8.709.598-18.02-3.301-25.829zm1.201 25.228c-4.2 14.718-13.805 21.326-25.505 23.728h-.302v.301l-.598 2.703.301.299c.899.301 1.498 1.202 1.196 2.104-.297 1.2-1.196 1.801-2.1 1.501l-.599-.302-.899 3.605h.298c1.2.299 1.803 1.202 1.501 2.403-.301.9-1.501 1.501-2.4 1.2h-.599l-.899 2.703.599.301c.899.299 1.501 1.202 1.2 2.403-.301.9-1.2 1.501-2.401 1.2l-.598-.299c-1.502 2.404-4.204 3.604-6.902 2.703L380.2 94.031c-2.698-.9-4.2-3.304-4.2-6.006h-.599c-.899-.3-1.502-1.501-1.2-2.404.301-.9 1.497-1.501 2.401-1.2l.297-1.202.603-1.803c-1.201-.299-1.804-1.501-1.502-2.403.301-.9 1.502-1.501 2.401-1.2l1.2-3.605h-.301c-.899-.299-1.498-1.202-1.201-2.102.302-1.202 1.502-1.802 2.401-1.501l.9-2.705v-.299c-9.3-8.109-13.801-21.324-9.901-34.24 4.802-17.419 23.404-27.632 40.807-22.525s26.706 26.131 22.506 41.146z"/></g><g><path fill="#FFB74D" d="M92.449 299.769l237.343 24.328-10.203 182.612-204.936-44.754z"/><path fill="#E6A545" d="M408.407 271.839l-78.615 52.258-10.203 182.612 75.014-99.113z"/><path fill="#E6A545" d="M235.276 261.325L92.449 299.769 5.434 274.842l162.33-31.238z"/><path fill="#E6A545" d="M408.407 271.839l17.703-52.563-168.332-5.406-22.502 47.455z"/><path fill="#E6A545" d="M329.792 324.097l139.527 28.834 37.205-63.974-98.117-17.118z"/><path fill="none" d="M92.449 299.769l237.343 24.328 78.615-52.258-173.131-10.514z"/><path fill="#CF953E" d="M235.276 261.325l.297 53.162-143.124-14.718z"/><path fill="#CF953E" d="M329.792 324.097l78.615-52.258-173.131-10.514.297 53.162z"/><path fill="#4E5A62" d="M287.784 271.236v48.656l-5.702-.599v-53.162h34.508l-27.906-44.754-27.902-44.75-27.906 44.75-27.906 44.754h34.508v48.656l-5.702-.603v-42.949H204.97c-1.798 0-3.597-.9-4.802-2.701-.895-1.503-.895-3.304 0-5.108l55.813-89.202c.899-1.803 2.703-2.703 4.802-2.703 2.101 0 3.899.9 4.799 2.703l55.812 89.202c1.201 1.805 1.201 3.605 0 5.108-.899 1.801-2.702 2.701-4.802 2.701h-28.808z"/><path fill="#9CC" d="M260.781 176.628l27.903 44.75 27.906 44.754h-34.508v94.009h-42.605v-94.009h-34.508l27.906-44.754z"/><path fill="#4E5A62" d="M393.402 208.464l-24.903 86.2c-.899 2.701-3.898 4.204-6.902 3.605l-41.104-10.213c-3.003-.9-4.802-3.605-3.902-6.307l24.902-86.202-27.902-6.907c-2.1-.302-3.3-1.803-3.902-3.605-.599-1.8 0-3.603 1.502-5.104l78.615-72.686c1.497-1.501 3.598-2.102 5.4-1.501 2.1.601 3.598 1.802 4.2 3.603l28.806 99.716c.301 1.803 0 3.604-1.502 5.106-1.498 1.2-3.602 1.801-5.4 1.2l-27.908-6.905zm.301-97.612l14.704 49.856 14.402 49.559-33.307-8.111-26.404 91.005-41.108-10.209 26.404-91.007-33.307-8.111 39.31-36.641 39.306-36.341z"/><path fill="#9CC" d="M393.703 110.852l14.704 49.856 14.403 49.559-33.307-8.111-26.404 91.005-41.109-10.209 26.405-91.007-33.307-8.111 39.309-36.641z"/><path fill="#4E5A62" d="M167.161 248.11l39.606 63.375-6.898-.603-40.506-64.575 30.002-15.918-48.308-25.83L92.75 178.73v103.02l29.705-15.92 24.602 39.646-6.898-.599-19.803-31.84-24.903 13.215c-1.803.904-3.903.904-5.404 0-1.799-.9-3-2.399-3-4.502V178.73c0-1.802 1.201-3.605 3-4.505 1.501-.9 3.602-.9 5.404 0l96.616 51.659c1.799.902 2.702 2.404 2.702 4.506 0 1.802-.903 3.304-2.702 4.206l-24.908 13.514z"/><path fill="#9CC" d="M92.75 178.73l48.308 25.83 48.308 25.829-30.003 15.918 51.011 81.395-36.909 19.822-51.01-81.694-29.705 15.92v-51.361z"/><path fill="#E6A545" d="M18.937 359.538l253.544 39.947 52.81-75.69-232.842-24.026z"/><path fill="#4E5A62" d="M511.322 286.554c-.598-1.499-2.1-2.403-3.898-2.701l-91.817-15.92 15.604-47.153c.603-1.503.301-3.004-.599-4.506-.903-1.202-2.4-2.102-3.902-2.102 1.502-1.503 1.803-3.304 1.502-5.106l-28.806-99.716c-.603-1.801-2.101-3.002-4.2-3.603-1.803-.601-3.903 0-5.4 1.501l-78.615 72.686c-1.502 1.501-2.101 3.304-1.502 5.104.603 1.803 1.803 3.304 3.902 3.605l27.902 6.907-4.497 15.619-49.211-1.501-22.204-35.441c-.899-1.803-2.698-2.703-4.799-2.703-2.1 0-3.903.9-4.802 2.703l-46.81 74.785-29.404-7.807 12.303-6.607c1.799-.902 2.702-2.404 2.702-4.206 0-2.102-.903-3.604-2.702-4.506l-96.616-51.659c-1.803-.9-3.903-.9-5.404 0-1.799.9-3 2.703-3 4.505v75.087L4.534 269.733c-2.702.301-4.501 2.403-4.501 4.807-.301 2.403 1.498 4.506 3.899 5.104l77.415 22.527-66.313 53.464c-1.498 1.201-2.1 3.304-1.498 5.405.598 1.801 2.1 3.304 4.501 3.605l79.213 12.612 11.705 85.3c.297 2.403 2.1 3.902 4.2 4.506l204.936 44.749c2.4.604 4.501-.301 5.998-2.102l75.014-99.114c.603-.899.899-1.8.899-2.704l6.602-62.471 61.514 12.616c2.401.599 5.1-.603 6.3-2.705l36.904-63.974a4.59 4.59 0 0 0 0-4.804zm-42.003 66.377l-67.814-14.115-6.902 68.78-75.014 99.113-204.936-44.754-12.303-89.202-83.414-13.215 73.512-59.77-87.014-24.926 87.316-16.82V178.73l48.308 25.83 48.308 25.83-26.706 14.117 5.104-.902 44.107 11.714 21.004-33.94 27.906-44.75 23.702 38.143 56.712 1.803 7.199-24.628-33.307-8.111 39.31-36.641 39.306-36.341 14.704 49.856 14.402 49.559-33.307-8.111-4.501 15.918 41.108 1.202-17.703 52.563 98.117 17.118-37.204 63.972zm-54.913-139.36l-22.205-.601 1.201-4.505 21.004 5.106z"/><path fill="none" d="M393.402 208.464l-1.201 4.506 22.205.601z"/></g></g><metadata><rdf:RDF xmlns:rdf="http://www.w3.org/1999/02/22-rdf-syntax-ns#" xmlns:rdfs="http://www.w3.org/2000/01/rdf-schema#" xmlns:dc="http://purl.org/dc/elements/1.1/"><rdf:Description about="https://iconscout.com/legal#licenses" dc:title="think,out,of,the,box" dc:description="think,out,of,the,box" dc:publisher="Iconscout" dc:date="2017-09-22" dc:format="image/svg+xml" dc:language="en"><dc:creator><rdf:Bag><rdf:li>Graphiqa Stock</rdf:li></rdf:Bag></dc:creator></rdf:Description></rdf:RDF></metadata></svg>