<?xml version="1.0" encoding="UTF-8"?><!DOCTYPE svg PUBLIC "-//W3C//DTD SVG 1.1//EN" "http://www.w3.org/Graphics/SVG/1.1/DTD/svg11.dtd"><svg xmlns="http://www.w3.org/2000/svg" xmlns:xlink="http://www.w3.org/1999/xlink" version="1.1" id="Think" x="0px" y="0px" width="512px" height="512px" viewBox="0 0 512 512" xml:space="preserve"><circle id="Background" fill="#16A085" cx="256" cy="256" r="256"/><g id="Think_1_"><path fill="#4E5A62" d="M332.574 279.685c-5.073 2.09-10.446 2.984-16.119 2.984-14.631 0-28.065-7.167-36.123-18.809-5.974 1.491-11.941 2.39-18.214 2.39-37.913 0-68.962-31.05-68.962-68.967 0-11.042 2.688-22.088 7.762-31.64-3.583-8.361-5.074-17.019-5.074-25.976a68.163 68.163 0 0 1 68.363-68.362c19.108 0 37.022 7.758 49.858 21.792 14.03-9.855 30.75-15.225 48.064-15.225 45.379 0 82.098 36.718 82.098 82.094 0 3.288 0 6.273-.595 9.557 11.642 14.03 17.913 31.349 17.913 49.559 0 43.585-35.229 78.813-78.817 78.813-18.209-.001-36.123-6.569-50.154-18.21z"/><path fill="#E6E7E8" d="M262.118 262.666c6.867 0 13.436-1.194 19.703-2.984 7.168 11.642 20.003 19.403 34.634 19.403 5.969 0 11.641-1.194 16.719-3.583 13.432 11.646 30.75 18.514 49.555 18.514 41.5 0 74.935-33.438 74.935-74.935 0-18.51-6.567-35.528-17.614-48.365.3-3.583.6-7.163.6-10.75 0-43.286-35.229-78.514-78.519-78.514-18.209 0-35.229 6.268-48.364 16.719-11.941-14.33-29.85-23.287-49.559-23.287-35.823 0-64.783 28.96-64.783 64.783 0 9.256 2.089 17.914 5.377 25.976-5.077 9.252-8.062 20.003-8.062 31.64 0 36.128 29.255 65.383 65.378 65.383z"/><path fill="#4E5A62" d="M411.688 311.329c13.687 0 24.777 11.096 24.777 24.777 0 13.686-11.091 24.781-24.777 24.781s-24.777-11.096-24.777-24.781c0-13.681 11.091-24.777 24.777-24.777z"/><circle fill="#E6E7E8" cx="411.688" cy="336.108" r="21.195"/><path fill="#4E5A62" d="M436.466 363.573c10.224 0 18.513 8.288 18.513 18.509 0 10.224-8.289 18.509-18.513 18.509-10.221 0-18.509-8.285-18.509-18.509 0-10.221 8.288-18.509 18.509-18.509z"/><path fill="#E6E7E8" d="M436.466 367.155c8.244 0 14.93 6.682 14.93 14.927 0 8.243-6.686 14.929-14.93 14.929-8.24 0-14.926-6.686-14.926-14.929 0-8.245 6.686-14.927 14.926-14.927z"/><path fill="#4E5A62" d="M118.521 330.434c-5.374 7.467-14.331 11.941-23.883 11.941-3.284 0-6.868-.596-10.151-1.79-9.252 7.463-20.598 11.346-32.539 11.346C23.287 351.931 0 328.943 0 299.983c0-11.642 4.179-22.987 11.346-32.244 0-1.789-.3-3.879-.3-5.668 0-29.855 24.481-54.337 54.333-54.337 11.046 0 21.497 3.284 30.75 9.552 8.361-8.657 20.003-13.73 32.244-13.73 25.077 0 45.378 20.298 45.378 45.38 0 5.668-.898 11.346-2.988 16.715 2.988 6.269 4.778 13.135 4.778 20.303 0 25.376-20.599 45.675-45.975 45.675-3.578-.001-7.462-.296-11.045-1.195z"/><path fill="#E6E7E8" d="M129.567 328.049c-4.18 0-8.358-.6-12.537-1.794-4.479 7.463-12.841 12.54-22.393 12.54-3.879 0-7.462-.895-10.747-2.389-8.357 7.462-19.703 11.94-31.944 11.94-26.571 0-48.069-21.492-48.069-48.363 0-11.642 4.184-22.688 11.346-31.045-.3-2.389-.3-4.479-.3-6.867 0-28.066 22.393-50.455 50.454-50.455 11.645 0 22.691 3.88 31.05 10.448 7.761-8.957 19.107-14.626 31.944-14.626 22.987 0 41.796 18.505 41.796 41.497 0 5.968-1.195 11.642-3.584 16.715 3.288 5.973 5.077 12.84 5.077 20.303.002 23.287-18.806 42.096-42.093 42.096z"/><path fill="#4E5A62" d="M59.71 108.322c.3-1.195.595-2.389 1.19-3.879 7.467-21.497 31.05-32.843 52.842-25.081 7.467 2.688 14.334 7.466 19.108 14.034 8.062-3.883 17.615-4.478 26.272-1.198 18.209 6.272 27.466 26.271 21.198 44.185-1.494 4.179-3.583 7.762-6.269 11.046.596 5.078 0 10.447-1.793 15.525-6.568 18.213-26.567 27.761-44.781 21.493-2.388-.895-5.077-2.089-7.167-3.58-5.969 3.88-13.432 4.778-19.999 2.389-2.39-.898-4.779-2.089-6.568-3.883a38.806 38.806 0 0 1-25.976 0c-20.599-7.463-31.641-30.155-24.183-50.753 2.99-8.357 8.66-15.52 16.126-20.298z"/><path fill="#E6E7E8" d="M128.672 180.867c-2.984-1.194-5.972-2.688-8.361-4.479-5.074 4.18-12.237 5.669-18.805 3.284-2.689-.895-5.077-2.388-7.167-4.479-7.757 3.284-16.714 3.583-25.372.596-18.813-6.568-28.66-27.166-22.093-45.975 2.984-8.358 8.956-14.926 15.82-19.104.596-1.794.895-3.288 1.495-4.778 6.868-19.704 28.66-30.151 48.364-23.288 8.058 2.984 14.626 8.657 19.104 15.525 7.762-4.774 17.314-5.973 26.271-2.685 16.124 5.668 24.781 23.583 18.809 39.707-1.495 4.179-3.584 7.758-6.568 11.042.895 5.074.595 10.451-1.495 15.525-5.669 16.421-23.583 24.779-40.002 19.109z"/><path fill="#4E5A62" d="M234.057 332.822c-1.194-3.583-2.089-7.463-2.089-11.341 0-17.914 14.629-32.545 32.539-32.545 8.362 0 16.42 3.284 22.688 9.257 6.273-4.178 13.436-6.272 20.899-6.272 21.496 0 38.811 17.319 38.811 38.813 0 1.194-.299 2.389-.299 3.583 5.077 6.269 7.763 14.33 7.763 22.688 0 20.303-16.421 37.018-37.019 37.018-8.357 0-16.12-2.685-22.688-7.758-2.09.595-4.479.895-6.868.895-6.567 0-12.835-2.988-17.019-8.062a29.499 29.499 0 0 1-7.163.895c-17.914 0-32.839-14.626-32.839-32.84 0-5.074 1.195-9.852 3.284-14.331z"/><path fill="#E6E7E8" d="M263.612 376.112c2.984 0 5.973-.3 8.657-1.194 3.284 5.074 8.957 8.657 15.524 8.657 2.689 0 5.374-.595 7.463-1.493 5.973 5.077 13.735 8.36 22.093 8.36 18.509 0 33.438-15.225 33.438-33.438 0-8.358-2.988-15.82-8.063-21.793.3-1.494.3-2.984.3-4.479 0-19.404-15.524-35.229-34.932-35.229-8.059 0-15.521 2.985-21.494 7.463-5.373-6.269-13.136-10.147-22.093-10.147-15.819 0-28.656 12.836-28.656 28.661 0 4.178.891 8.057 2.385 11.641-2.385 4.179-3.583 8.957-3.583 14.03.001 16.122 12.837 28.961 28.961 28.961z"/><path fill="#FFCC29" d="M111.653 102.054c12.245 0 22.093 11.641 22.093 22.093 0 10.147-4.778 16.115-11.941 19.703v.295H102.4c-7.462-3.583-12.54-11.046-12.54-19.999.001-12.245 9.856-22.092 21.793-22.092zm10.152 42.091zm-19.108 10.751v-10.451-.3V154.896z"/><path fill="#BDBFC1" d="M121.805 144.145V156.386c0 2.688-1.791 4.778-3.88 4.778h-11.346c-2.089 0-3.882-2.089-3.882-4.778v-11.941-.3h-.297 19.405z"/><path fill="#A9ABAE" d="M102.591 146.214l19.526-.048c.696 0 1.263.559 1.263 1.247 0 .689-.559 1.248-1.255 1.251l-19.53.053a1.26 1.26 0 0 1-1.263-1.248 1.26 1.26 0 0 1 1.259-1.255z"/><path fill="#A9ABAE" d="M102.6 151.073l19.529-.052a1.252 1.252 0 0 1 1.263 1.243 1.254 1.254 0 0 1-1.259 1.255l-19.525.049a1.254 1.254 0 0 1-1.263-1.248 1.249 1.249 0 0 1 1.255-1.247z"/><path fill="#A9ABAE" d="M102.615 155.625l19.525-.049c.697 0 1.264.559 1.264 1.248 0 .688-.56 1.246-1.255 1.251l-19.53.052a1.26 1.26 0 0 1-1.263-1.247 1.259 1.259 0 0 1 1.259-1.255z"/><path fill="#FFF212" d="M106.284 122.648h12.536v21.497h-1.489v-19.999h-10.156v19.999h-1.79v-21.497z"/><path fill="#CCC" d="M104.19 285.354l21.798 30.454c1.789 2.685 1.19 6.269-1.495 8.059-2.688 1.793-6.272 1.193-8.063-1.194l-21.792-30.751 9.552-6.568z"/><path fill="#B3B3B3" d="M102.997 285.953l21.792 30.749c3.883 5.074-3.58 10.448-7.164 5.074l-21.792-30.75 7.164-5.073z"/><path fill="#CCC" d="M62.694 236.694c14.93-10.451 35.524-6.868 46.274 8.062 10.452 14.926 6.864 35.524-8.062 46.271-14.925 10.451-35.527 6.867-46.274-8.058-10.447-14.93-6.867-35.528 8.062-46.275zm2.089 2.985c13.136-9.257 31.646-6.268 41.201 7.167 9.252 13.135 6.268 31.644-7.167 41.196-13.435 9.257-31.645 6.269-41.196-7.162-9.557-13.141-6.268-31.646 7.162-41.201z"/><path fill="#B8B8B8" d="M64.188 239.079c13.73-9.548 32.539-6.268 42.391 7.167 9.553 13.735 6.273 32.539-7.462 42.391-13.436 9.557-32.539 6.273-42.096-7.162-9.552-13.736-6.268-32.539 7.167-42.396z"/><path fill="#FEFEFE" d="M65.379 286.848c12.84 9.257 30.454 6.268 39.407-6.567 9.257-12.836 5.977-30.45-6.567-39.407-12.836-9.253-30.45-6.273-39.703 6.568-8.958 12.839-5.974 30.449 6.863 39.406z"/><path fill="#4E5A62" d="M185.693 358.799c6.568-4.778 15.82-2.689 20.298 3.878 4.479 6.868 2.689 16.121-4.178 20.6-6.568 4.479-15.825 2.688-20.299-4.179-4.478-6.869-2.688-15.825 4.179-20.299zm-30.45 2.385c5.374-3.58 12.837-2.089 16.419 3.284 3.58 5.377 2.089 12.54-3.284 16.123-5.373 3.58-12.84 2.39-16.419-3.283-3.584-5.374-2.089-12.541 3.284-16.124zm-19.408-6.864a9.646 9.646 0 0 1 13.436 2.685c2.988 4.478 1.789 10.747-2.689 13.435a9.645 9.645 0 0 1-13.432-2.688c-2.984-4.179-1.793-10.448 2.685-13.432z"/><path fill="#E6E7E8" d="M187.588 361.718c5.106-3.401 11.998-2.017 15.399 3.086 3.397 5.105 2.013 12.002-3.094 15.399-5.102 3.396-11.994 2.016-15.395-3.09-3.4-5.106-2.016-11.998 3.09-15.395z"/><path fill="#E6E7E8" d="M157.336 364.188a8.083 8.083 0 0 1 11.213 2.247c2.474 3.717 1.47 8.738-2.247 11.212a8.092 8.092 0 0 1-11.217-2.247c-2.469-3.716-1.466-8.738 2.251-11.212z"/><path fill="#E6E7E8" d="M137.811 357.482a6.032 6.032 0 0 1 8.366 1.677 6.042 6.042 0 0 1-1.677 8.369 6.038 6.038 0 0 1-8.37-1.68 6.032 6.032 0 0 1 1.681-8.366z"/><path fill="#4E5A62" d="M211.369 68.915c-7.467-2.989-11.046-11.646-7.767-19.109 2.989-7.762 11.646-11.046 19.113-8.062 7.458 3.288 11.042 11.945 8.058 19.408-3.283 7.463-11.94 11.043-19.404 7.763zm-30.154 3.579c-5.973-2.685-8.658-9.552-6.269-15.525 2.385-5.968 9.553-8.957 15.226-6.268 5.972 2.389 8.956 9.256 6.568 15.225-2.685 5.973-9.553 8.957-15.525 6.568zm-17.91 10.152c-4.778-2.089-7.167-7.762-5.077-12.836 2.089-4.778 7.761-7.163 12.536-5.074 5.078 2.09 7.466 7.758 5.377 12.836-2.09 4.778-7.763 7.163-12.836 5.074z"/><path fill="#E6E7E8" d="M212.819 65.639c5.66 2.369 12.164-.295 14.532-5.956 2.369-5.657-.295-12.164-5.957-14.529-5.652-2.369-12.164.295-14.528 5.953-2.368 5.66.3 12.163 5.953 14.532z"/><path fill="#E6E7E8" d="M182.653 68.955c4.118 1.725 8.855-.219 10.58-4.34 1.726-4.114-.214-8.852-4.336-10.577a8.086 8.086 0 1 0-6.244 14.917z"/><path fill="#E6E7E8" d="M164.747 79.244a6.031 6.031 0 0 0 7.896-3.235 6.033 6.033 0 0 0-11.127-4.661 6.034 6.034 0 0 0 3.231 7.896z"/><path fill="#A67C29" d="M294.662 324.465c.595.3 1.194.3 1.789.895.6.3 1.195.596 1.79.596-.295 5.378-1.19 10.151-2.385 15.229-1.194 4.774-1.794 9.852-2.089 14.925h-8.063c.895-5.373 2.389-10.746 4.479-15.823 2.089-5.375 3.88-10.449 4.479-15.822z"/><path fill="#B88A2E" d="M294.662 324.465c.595.3 1.194.3 1.789.895h.3c-.3 5.374-.895 10.152-2.089 14.927-1.194 5.077-2.09 10.15-2.09 14.929h-6.868c.895-5.077 2.685-10.151 4.479-14.929 2.089-5.375 3.88-10.449 4.479-15.822z"/><path fill="#784E25" d="M280.332 348.048h16.978c1.648 0 2.984 1.068 2.984 2.389v11.402c0 1.32-1.336 2.39-2.984 2.39h-16.978c-1.648 0-2.984-1.069-2.984-2.39v-11.402c0-1.321 1.336-2.389 2.984-2.389z"/><path fill="#94612E" d="M279.732 347.452h16.979c1.651 0 2.988 1.069 2.988 2.39v11.402c0 1.32-1.337 2.39-2.988 2.39h-16.979c-1.647 0-2.984-1.069-2.984-2.39v-11.402c0-1.321 1.337-2.39 2.984-2.39z"/><path fill="#835931" d="M284.211 344.168h8.361c.896 0 1.49.896 1.49 1.495v1.789h-1.195v-.895c0-.599-.595-1.194-1.194-1.194h-6.567c-.595 0-1.189.596-1.189 1.194v.895h-1.495v-1.789c-.001-.6.893-1.495 1.789-1.495z"/><path fill="#784E25" d="M282.721 347.452h.896v-.895c0-.599.595-1.494 1.489-1.494h6.567c.899 0 1.495.896 1.495 1.494v.895h.895v-1.789c0-.6-.595-1.195-1.49-1.195h-8.361c-.896 0-1.49.596-1.49 1.195v1.789z"/><path fill="#784E25" d="M280.332 347.152h1.385a.3.3 0 0 1 .296.3v16.465a.3.3 0 0 1-.296.3h-1.385a.3.3 0 0 1-.3-.3v-16.465a.3.3 0 0 1 .3-.3z"/><path fill="#784E25" d="M295.257 347.152h1.385a.3.3 0 0 1 .3.3v16.465a.3.3 0 0 1-.3.3h-1.385a.3.3 0 0 1-.3-.3v-16.465a.3.3 0 0 1 .3-.3z"/><path transform="matrix(-0.9733 0.2296 -0.2296 -0.9733 637.5819 640.5032)" fill="#1ABC9C" d="M278.613 355.451h5.818v3.799h-5.818z"/><path transform="matrix(-0.9015 -0.4327 0.4327 -0.9015 404.3584 808.9347)" fill="#F39C12" d="M290.555 356.073h7.317v4.779h-7.317z"/><path transform="matrix(-0.9659 -0.2588 0.2588 -0.9659 472.8341 767.6194)" fill="#900" d="M283.288 350.294h7.32v4.78h-7.32z"/><path fill="#88A243" d="M278.837 335.512s5.374-7.763 10.452-8.657c10.446-1.795 15.225 2.089 17.313 10.446 0 0 .596-3.583 0-7.163-.6-3.583-2.983-5.673-2.983-5.673 2.684-.3 3.879-2.389 10.146 3.88 1.194-4.479-8.357-10.747-8.657-10.747l11.347-3.584s-3.883-1.193-6.568-1.193c-2.688.299-5.078.299-8.957 2.093-1.494-6.867-5.973-8.957-13.136-6.567 3.284.595 9.257 3.578 8.957 7.462-8.361-2.688-10.451-1.794-17.019 3.58 0 0 9.257-.596 11.046 0 1.494.599 0 1.793 0 1.793s-8.657 2.388-11.941 14.33z"/><path fill="#FC9" d="M58.369 430.203l-1.514 37.802-53.226-18.749z"/><path fill="#FC9" d="M58.369 430.203l-1.514 37.802-4.233-1.51c-2.117-1.815-5.139-4.536-6.05-6.956-1.51-3.326 6.05-7.26 6.956-9.979.906-3.023-6.956-6.652-7.863-9.377-.299-1.51 4.237-5.443 8.471-8.466l4.233-1.514z"/><path fill="#4D4D4D" d="M16.333 453.489l-12.704-4.233 12.704-4.537z"/><path fill="#E6B800" d="M58.369 430.203h433.064c22.379 0 22.075 37.802 0 37.802H56.855c-1.817-5.139-7.56-7.559-7.56-9.372 0-1.817 7.261-5.443 7.261-9.681 0-4.233-9.377-7.863-7.261-9.372 1.814-1.514 5.14-5.144 9.074-9.377z"/><path fill="#FC0" d="M52.02 455.305c2.116-1.815 4.537-3.932 4.537-6.353 0-2.416-2.725-4.533-5.144-6.045h411.291v12.397H52.02z"/><path fill="#E6B800" d="M58.369 430.203h404.334v12.704H51.413c-1.813-1.514-3.027-2.725-2.117-3.327 1.813-1.514 5.139-5.144 9.073-9.377z"/><path fill="#CFA600" d="M462.703 430.203H474.8v37.802h-12.097z"/><path fill="#C30" d="M474.8 430.203h16.634c22.683 0 22.075 37.802 0 37.802H474.8v-37.802z"/><path fill="#4E5A62" d="M506.254 432.926c-3.631-4.232-9.074-6.35-14.82-6.35H57.159l-42.041 14.513-12.698 4.536c-1.51.608-2.42 1.818-2.42 3.327 0 1.818.91 3.027 2.42 3.631l53.226 19.053H491.738c12.399 0 19.959-10.283 20.263-22.076-.001-6.051-1.818-12.097-5.747-16.634zm-14.82 35.079H56.855l-4.233-1.51-36.289-13.006-12.704-4.233 12.704-4.537 37.802-13.002 4.233-1.514H491.434c22.682 0 22.075 37.502 0 37.802z"/><g><path fill="#4E5A62" d="M208.746 276.904c-.854-2.558-1.279-5.33-1.279-9.167 0-32.616 25.581-35.601 25.581-72.694 0-10.659-4.263-14.709-11.725-14.709-7.461 0-11.725 4.05-11.725 14.709v16.202h-22.171v-14.709c0-23.876 11.725-37.52 34.535-37.52s34.535 13.644 34.535 37.52c0 38.799-27.713 44.768-27.713 72.055 0 2.771.213 5.542.853 8.314h-20.891zm21.531 10.445v22.598H207.68v-22.598h22.597z" transform="matrix(1 0 0 1 105.327 -49.953)"/></g></g><metadata><rdf:RDF xmlns:rdf="http://www.w3.org/1999/02/22-rdf-syntax-ns#" xmlns:rdfs="http://www.w3.org/2000/01/rdf-schema#" xmlns:dc="http://purl.org/dc/elements/1.1/"><rdf:Description about="https://iconscout.com/legal#licenses" dc:title="think" dc:description="think" dc:publisher="Iconscout" dc:date="2017-09-22" dc:format="image/svg+xml" dc:language="en"><dc:creator><rdf:Bag><rdf:li>Graphiqa Stock</rdf:li></rdf:Bag></dc:creator></rdf:Description></rdf:RDF></metadata></svg>