<?xml version="1.0" encoding="UTF-8"?><!DOCTYPE svg PUBLIC "-//W3C//DTD SVG 1.1//EN" "http://www.w3.org/Graphics/SVG/1.1/DTD/svg11.dtd"><svg xmlns="http://www.w3.org/2000/svg" xmlns:xlink="http://www.w3.org/1999/xlink" version="1.1" id="Tools_1_" x="0px" y="0px" width="512px" height="512px" viewBox="0 0 512 512" xml:space="preserve"><path id="Background" fill="#CFC" d="M256 0c141.355 0 256 114.645 256 256S397.355 512 256 512 0 397.355 0 256 114.645 0 256 0z"/><g id="Tools"><path fill="#4E5A62" d="M445.674 272.205c2.101 1.502 4.201 3.004 5.703 4.804l1.2 1.2.599 1.201c1.502 3.301 4.201 9.603 4.201 12.903v90.335c0 6.004-2.101 11.707-6.302 15.908-4.502 4.799-10.502 7.201-16.808 7.201-8.703 0-17.405 0-26.108.301v34.811H93.636v-43.815L55.222 256.599a21.977 21.977 0 0 1 0-10.804h.301c.301-2.101 1.197-3.601 2.101-5.401h.301c2.699-4.201 6.301-7.203 10.803-8.703h.301l9.004-2.402V85.234c0-7.803 6.301-14.107 13.804-14.107h316.322c7.803 0 14.104 6.304 14.104 14.107v181.268h8.104c5.704 0 11.106 2.104 15.307 5.703z"/><path fill="#757575" d="M336.13 343.335c0 .301.301.899.301 1.498 0 15.606-39.017 28.213-87.033 28.213s-86.736-12.606-86.736-28.213v-1.498-1.502c0-15.607 38.72-28.511 86.736-28.511s87.033 12.903 87.033 28.511c0 .301-.301.899-.301 1.502z"/><path fill="#696969" d="M336.13 343.335c0 .301.301.899.301 1.498 0 15.606-39.017 28.213-87.033 28.213h-6.301v-59.423c2.101 0 4.201-.301 6.301-.301 48.017 0 87.033 12.903 87.033 28.511 0 .301-.301.899-.301 1.502z"/><path fill="#757575" d="M243.096 313.623c2.101 0 4.201-.301 6.301-.301 46.519 0 84.335 12.004 86.732 27.013-2.397 14.703-40.214 26.707-86.732 26.707h-6.301v-53.419z"/><path fill="#8D8D8D" d="M249.397 310.322c47.903 0 86.732 12.631 86.732 28.209 0 15.582-38.829 28.214-86.732 28.214s-86.736-12.632-86.736-28.214c0-15.578 38.834-28.209 86.736-28.209z"/><path fill="#7F7F7F" d="M249.397 310.322c48.017 0 87.033 12.603 87.033 28.209 0 15.908-39.017 28.511-87.033 28.511h-6.301v-56.72h6.301z"/><path fill="#CCC" d="M217.883 256h63.025v75.628h-63.025z"/><path fill="#B8B8B8" d="M280.908 296.515v35.113h-37.812v-35.113z"/><path fill="#B8B8B8" d="M222.686 260.804h54.624v66.024h-54.624z"/><path fill="#A6A6A6" d="M277.31 296.515v30.313h-34.214v-30.313z"/><path fill="#A9ABAE" d="M91.837 79.531h316.322c3.301 0 5.703 2.402 5.703 5.703v205.577c0 3.302-2.402 5.703-5.703 5.703H91.837c-3 0-5.703-2.401-5.703-5.703V85.234c0-3.301 2.703-5.703 5.703-5.703z"/><path fill="#699" d="M104.443 87.935h296.515c2.699 0 4.502 2.101 4.502 4.5v186.373c0 2.703-1.803 4.502-4.502 4.502H99.038c-2.401 0-4.201-1.799-4.201-4.502V97.839c0-5.404 4.201-9.904 9.606-9.904z"/><path fill="#CCC" d="M250 284.511c2.483 0 4.502 2.015 4.502 4.502s-2.019 4.502-4.502 4.502c-2.491 0-4.502-2.015-4.502-4.502s2.011-4.502 4.502-4.502z"/><path fill="#B3B3B3" d="M250 286.013a3 3 0 1 1-3.004 3 3 3 0 0 1 3.004-3z"/><path fill="#366" d="M113.443 93.937h278.511c2.101 0 4.201 1.799 4.201 4.201v174.966c0 2.401-2.101 4.205-4.201 4.205H108.343c-2.101 0-4.201-1.804-4.201-4.205V103.241c0-5.103 4.201-9.304 9.301-9.304z"/><path fill="#657280" d="M197.18 327.427c4.201 0 7.498 3.302 7.498 7.804 0 4.2-3.297 7.502-7.498 7.502-4.502 0-7.807-3.302-7.807-7.502 0-4.502 3.305-7.804 7.807-7.804z"/><path fill="#5E6976" d="M197.18 330.729c2.398 0 4.201 2.1 4.201 4.502 0 2.401-1.803 4.2-4.201 4.2-2.401 0-4.502-1.799-4.502-4.2 0-2.403 2.1-4.502 4.502-4.502z"/><path fill="#B88A2E" d="M71.728 239.494l105.343-29.711c6.301-1.502 12.904 2.101 14.703 8.703L235.59 378.75c1.803 6.301-1.799 13.205-8.1 15.004l-105.34 29.711c-6.603 1.803-13.205-2.101-15.008-8.402L63.322 254.5c-1.799-6.303 2.101-13.205 8.406-15.006z"/><path fill="#C93" d="M71.728 239.494l105.343-29.711c1.498-.301 3-.301 4.502-.301 2.996 1.502 5.699 4.203 6.603 7.804l44.117 160.565c1.498 6.301-2.101 13.205-8.406 15.004l-105.343 29.41c-1.498.603-2.996.603-4.502.603-3.297-1.502-5.699-4.201-6.9-7.804L63.322 254.5c-1.799-6.303 2.101-13.205 8.406-15.006z"/><path fill="#B88A2E" d="M105.042 230.19l38.715-10.806c.301 1.801 1.498 11.406-.301 12.006l-32.113 9.002c-1.803.602-5.703-8.4-6.301-10.202z"/><path fill="#CFCFCF" d="M70.226 252.098l108.042-37.215 54.92 163.866-108.042 37.213z"/><path fill="#E6E6E6" d="M79.531 242.494l111.645-22.808 33.912 169.565-111.942 22.812z"/><path fill="#B8B8B8" d="M105.941 221.186l6.301-1.801v-.6l-.899-3.301c-.599-1.799.598-3.601 2.401-4.201l12.904-3.6h.301c.9.299 1.502 1.199 1.803 2.1l.896 3.301c0 .299.301 1.201.301 1.5 2.703-.899 5.406-1.5 8.402-2.401.904.301 1.803 1.201 1.803 2.103l1.201 3.301c.301 1.799 1.498 12.004-.301 12.303l-31.213 9.004c-2.1-2.101-4.799-8.703-5.397-10.203l-.904-3.303c-.301-1.8.602-3.601 2.401-4.202z"/><path fill="#CCC" d="M111.645 219.686l.598-.301v-.6l-.899-3.301c-.599-1.5.301-3 1.502-3.902l13.205-3.601h.301c.896.299 1.498 1.201 1.799 2.101l.9 3.301c0 .301.301 1.201.301 1.5 2.699-.899 5.401-1.5 8.401-2.399.9.299 1.502 1.201 1.804 2.1l.896 3.301c.602 1.801 1.506 10.806.301 12.306l-30.913 8.703c-2.1-2.101-4.799-8.703-5.397-10.203l-.904-3.303c-.301-1.5.301-3 1.799-3.902l6.306-1.8z"/><path fill="#959595" d="M119.448 211.582c.899-.299 2.1.301 2.401 1.502.301 1.201-.301 2.4-1.502 2.701-.899.299-2.1-.301-2.401-1.5-.298-1.202.301-2.402 1.502-2.703z"/><path fill="#A6A6A6" d="M120.645 211.883c.603 0 1.205.601 1.205 1.201.301 1.201-.301 2.4-1.502 2.701h-.598c-.603-.301-.904-.601-1.205-1.201-.297-1.201.301-2.401 1.502-2.701h.598z"/><path fill="#BDC6CB" d="M274.306 393.452c-5.101-2.699-8.402-7.502-8.402-13.502v-90.038c0-8.401 6.603-15.004 15.005-15.004h149.46c4.201 0 7.804 1.502 10.502 4.2-2.101-.899-4.2-1.502-6.603-1.502H284.511c-8.101 0-14.707 6.603-14.707 14.707v90.335c0 4.202 1.502 8.105 4.502 10.804z"/><path fill="#DDE8EE" d="M434.268 397.657H284.511c-8.101 0-14.707-6.904-14.707-15.009v-90.335c0-8.104 6.606-14.707 14.707-14.707h149.757c8.104 0 14.707 6.603 14.707 14.707v90.335c0 8.105-6.603 15.009-14.707 15.009z"/><path fill="#869292" d="M445.075 282.41c.297 0 .297.301.297.301h-35.711c4.502 1.201 7.502 5.101 7.502 9.904v90.335c0 4.803-3 8.702-7.502 9.903h35.414-.301v.301H284.511c-5.703 0-10.205-4.502-10.205-10.204v-90.335c0-5.703 4.502-10.205 10.205-10.205h160.564z"/><path fill="#DDE8EE" d="M403.059 388.05H289.013c-5.703 0-10.205-4.502-10.205-9.903v-80.732c0-5.401 4.502-9.903 10.205-9.903h114.046c5.401 0 9.903 4.502 9.903 9.903v80.732c0 5.401-4.502 9.903-9.903 9.903z"/><path fill="#657280" d="M433.071 345.436c-4.205 0-7.507-3.302-7.507-7.503 0-4.502 3.302-7.803 7.507-7.803 4.2 0 7.799 3.301 7.799 7.803 0 4.201-3.599 7.503-7.799 7.503z"/><path fill="#5E6976" d="M433.071 342.134c-2.401 0-4.205-2.101-4.205-4.201 0-2.401 1.804-4.502 4.205-4.502 2.397 0 4.498 2.101 4.498 4.502 0 2.1-2.1 4.201-4.498 4.201z"/><path fill="#283848" d="M183.674 329.828l-44.72 77.432.9 6.602 6.004-2.703 45.017-77.728z"/><path fill="#2C3E50" d="M183.674 329.828l-44.72 77.432.9 6.301 47.117-81.933z"/><path fill="#3B4958" d="M188.774 313.623h3v8.703h-3z"/><path fill="#415162" d="M188.774 313.623h2.402v8.703h-2.402z"/><path fill="#243241" d="M190.276 306.121c2.101 0 3.9 1.498 3.9 3.599v6.306c0 2.1-1.799 3.899-3.9 3.899-2.1 0-3.602-1.8-3.602-3.899v-6.306c0-2.101 1.502-3.599 3.602-3.599z"/><path fill="#243241" d="M190.276 306.121c2.101 0 3.9 1.498 3.9 3.599v5.104c0 2.101-1.799 3.899-3.9 3.899-2.1 0-3.602-1.799-3.602-3.899v-5.104c0-2.101 1.502-3.599 3.602-3.599z"/><path fill="#283848" d="M193.573 317.222c-.896.903-1.799 1.502-2.996 1.502-2.104 0-3.903-1.799-3.903-3.899v-5.104c0-.599.297-1.201.598-1.799.603-.603 1.799-1.201 2.703-1.201 2.1 0 3.899 1.799 3.899 3.899v4.804c.001.601.001 1.501-.301 1.798z"/><path fill="#1A2530" d="M186.373 308.82h8.104s.301 0 .301.301l-.301.302h-8.104c-.297 0-.297-.302-.297-.302-.001-.301-.001-.301.297-.301zm0 8.105h8.104l.301.297c0 .302-.301.302-.301.302h-8.104c-.297 0-.297 0-.297-.302-.001 0-.001-.297.297-.297zm0-.9h8.104s.301 0 .301.297l-.301.301h-8.104c-.297 0-.297-.301-.297-.301-.001-.297-.001-.297.297-.297zm0-1.201h8.104l.301.297c0 .302-.301.302-.301.302h-8.104c-.297 0-.297 0-.297-.302-.001 0-.001-.297.297-.297zm0-.899h8.104s.301 0 .301.297c0 .302-.301.302-.301.302h-8.104c-.297 0-.297 0-.297-.302-.001-.297-.001-.297.297-.297zm0-.904h8.104s.301 0 .301.302l-.301.301h-8.104c-.297 0-.297-.301-.297-.301-.001-.302-.001-.302.297-.302zm0-1.201h8.104l.301.301c0 .302-.301.302-.301.302h-8.104c-.297 0-.297 0-.297-.302-.001 0-.001-.301.297-.301zm0-.899h8.104s.301 0 .301.301l-.301.302h-8.104c-.297 0-.297-.302-.297-.302-.001-.301-.001-.301.297-.301zm0-1.201h8.104l.301.301c0 .302-.301.302-.301.302h-8.104c-.297 0-.297 0-.297-.302-.001 0-.001-.301.297-.301z"/><path fill="#202D3B" d="M186.373 308.82h8.104c0 .301 0 .301-.301.301h-8.101c0-.301 0-.301.298-.301zm8.104 8.105v.297c0 .302 0 .302-.301.302h-8.101v-.302s0-.297.297-.297h8.105zm0-.9v.297s0 .301-.301.301h-8.101v-.301c0-.297 0-.297.297-.297h8.105zm0-.904c0 .302 0 .302-.301.302h-8.101v-.302s0-.297.297-.297h8.104l.001.297zm0-1.196v.297s0 .302-.301.302h-8.101v-.302c0-.297 0-.297.297-.297h8.105zm0-.904c0 .302 0 .302-.301.302h-8.101c0-.302 0-.302.297-.302h8.105zm0-1.201v.301s0 .302-.301.302h-8.101v-.302s0-.301.297-.301h8.105zm0-.899c0 .301 0 .301-.301.301h-8.101c0-.301 0-.301.297-.301h8.105zm0-1.201v.301s0 .302-.301.302h-8.101v-.302s0-.301.297-.301h8.105z"/><path fill="#283848" d="M229.289 337.033c-4.803 17.104-20.41 29.712-39.013 29.712-18.61 0-34.217-12.607-39.017-29.712h5.402c4.502 14.104 18.008 24.607 33.615 24.607 15.904 0 29.109-10.503 33.611-24.607h5.402z"/><path fill="#2C3E50" d="M152.46 337.033h4.201c4.502 14.104 18.008 24.607 33.615 24.607 15.904 0 29.109-10.503 33.611-24.607h4.205c-5.707 15.306-20.41 26.109-37.816 26.109-17.109.001-32.117-10.803-37.816-26.109z"/><path fill="#C30" d="M183.975 332.23l1.498-2.703c2.101-3.599 8.703.301 6.603 3.903l-1.498 2.699-6.603-3.899z"/><path fill="#283848" d="M196.276 330.729l44.72 77.128-.904 6.603-6-2.397-45.021-78.034z"/><path fill="#2C3E50" d="M196.276 330.729l44.72 77.128-.904 6.603-47.117-82.23z"/><path fill="#ECF0F1" d="M190.276 321.724c4.502 0 8.402 3.603 8.402 8.104 0 4.804-3.899 8.402-8.402 8.402-4.502 0-8.104-3.599-8.104-8.402a8.07 8.07 0 0 1 8.104-8.104z"/><path fill="#BFC2C3" d="M190.276 322.628c4.201 0 7.502 3.301 7.502 7.2 0 4.201-3.301 7.502-7.502 7.502-3.903 0-7.506-3.301-7.506-7.502 0-3.899 3.603-7.2 7.506-7.2z"/><path fill="#ACAFB0" d="M190.276 325.025c2.699 0 4.799 2.401 4.799 4.803 0 2.703-2.1 4.804-4.799 4.804-2.703 0-4.803-2.101-4.803-4.804 0-2.401 2.1-4.803 4.803-4.803z"/><path fill="#717373" d="M190.276 328.326c.9 0 1.799.603 1.799 1.502 0 .9-.899 1.8-1.799 1.8-.903 0-1.502-.899-1.502-1.8 0-.899.599-1.502 1.502-1.502z"/><path fill="#CCC" d="M102.042 397.954h297.715v34.515H102.042z"/><path fill="#373435" d="M108.042 397.954h.903v15.908h-.903z"/><path fill="#373435" d="M113.146 397.954h.896v10.808h-.896z"/><path fill="#373435" d="M118.845 397.954h.904v15.908h-.904z"/><path fill="#373435" d="M123.95 397.954h.899v10.808h-.899z"/><path fill="#373435" d="M129.95 397.954h.904v15.908h-.904z"/><path fill="#373435" d="M135.054 397.954h.9v10.808h-.9z"/><path fill="#373435" d="M141.054 397.954h.904v15.908h-.904z"/><path fill="#373435" d="M146.159 397.954h.598v10.808h-.598z"/><path fill="#373435" d="M151.858 397.954h.903v15.908h-.903z"/><path fill="#373435" d="M156.962 397.954h.9v10.808h-.9z"/><path fill="#373435" d="M162.962 397.954h.904v15.908h-.904z"/><path fill="#373435" d="M168.067 397.954h.899v10.808h-.899z"/><path fill="#373435" d="M174.067 397.954h.904v15.908h-.904z"/><path fill="#373435" d="M178.87 397.954h.9v10.808h-.9z"/><path fill="#373435" d="M184.87 397.954h.904v15.908h-.904z"/><path fill="#373435" d="M189.975 397.954h.9v10.808h-.9z"/><path fill="#373435" d="M195.975 397.954h.903v15.908h-.903z"/><path fill="#373435" d="M201.08 397.954h.899v10.808h-.899z"/><path fill="#373435" d="M207.08 397.954h.903v15.908h-.903z"/><path fill="#373435" d="M211.883 397.954h.899v10.808h-.899z"/><path fill="#373435" d="M217.883 397.954h.904v15.908h-.904z"/><path fill="#373435" d="M222.987 397.954h.9v10.808h-.9z"/><path fill="#373435" d="M228.987 397.954h.904v15.908h-.904z"/><path fill="#373435" d="M234.092 397.954h.9v10.808h-.9z"/><path fill="#373435" d="M240.092 397.954h.904v15.908h-.904z"/><path fill="#373435" d="M244.896 397.954h.899v10.808h-.899z"/><path fill="#373435" d="M250.896 397.954h.903v15.908h-.903z"/><path fill="#373435" d="M256 397.954h.899v10.808H256z"/><path fill="#373435" d="M262.004 397.954h.899v15.908h-.899z"/><path fill="#373435" d="M267.104 397.954h.9v10.808h-.9z"/><path fill="#373435" d="M272.808 397.954h.899v15.908h-.899z"/><path fill="#373435" d="M277.908 397.954h.9v10.808h-.9z"/><path fill="#373435" d="M283.912 397.954h.9v15.908h-.9z"/><path fill="#373435" d="M289.013 397.954h.899v10.808h-.899z"/><path fill="#373435" d="M295.017 397.954h.899v15.908h-.899z"/><path fill="#373435" d="M300.117 397.954h.9v10.808h-.9z"/><path fill="#373435" d="M305.82 397.954h.9v15.908h-.9z"/><path fill="#373435" d="M310.921 397.954h.899v10.808h-.899z"/><path fill="#373435" d="M316.925 397.954h.899v15.908h-.899z"/><path fill="#373435" d="M322.025 397.954h.9v10.808h-.9z"/><path fill="#373435" d="M328.029 397.954h.9v15.908h-.9z"/><path fill="#373435" d="M333.13 397.954h.602v10.808h-.602z"/><path fill="#373435" d="M338.833 397.954h.899v15.908h-.899z"/><path fill="#373435" d="M343.934 397.954h.899v10.808h-.899z"/><path fill="#373435" d="M349.938 397.954h.899v15.908h-.899z"/><path fill="#373435" d="M355.038 397.954h.9v10.808h-.9z"/><path fill="#373435" d="M361.042 397.954h.899v15.908h-.899z"/><path fill="#373435" d="M365.841 397.954h.904v10.808h-.904z"/><path fill="#373435" d="M371.845 397.954h.9v15.908h-.9z"/><path fill="#373435" d="M376.945 397.954h.905v10.808h-.905z"/><path fill="#373435" d="M382.95 397.954h.9v15.908h-.9z"/><path fill="#373435" d="M388.05 397.954h.904v10.808h-.904z"/><path fill="#373435" d="M394.055 397.954h.899v15.908h-.899z"/><path fill="#FC9" d="M237.992 388.652l-.599 12.603-17.41-6.301z"/><path fill="#FC9" d="M237.992 388.652l-.599 12.603-1.502-.598c-.598-.603-1.498-1.502-1.799-2.402-.602-.899 2.101-2.1 2.402-3.301 0-.899-2.402-2.101-2.703-3-.301-.302 1.502-1.804 2.703-2.703l1.498-.599z"/><path fill="#4D4D4D" d="M223.887 396.456l-3.904-1.502 3.904-1.502z"/><path fill="#E6B800" d="M237.992 388.652H381.15c7.502 0 7.502 12.603 0 12.603H237.393c-.598-1.799-2.401-2.698-2.401-3.301 0-.599 2.401-1.799 2.401-3 0-1.502-3-2.703-2.401-3.302.598-.3 1.502-1.502 3-3z"/><path fill="#FC0" d="M235.891 397.055c.603-.599 1.502-1.498 1.502-2.101 0-.899-.899-1.502-1.803-2.101h136.255v4.201H235.891z"/><path fill="#E6B800" d="M237.992 388.652h133.853v4.201H235.59c-.598-.603-.896-.899-.598-1.201.598-.3 1.502-1.502 3-3z"/><path fill="#CFA600" d="M371.845 388.652h3.9v12.603h-3.9z"/><path fill="#C30" d="M375.745 388.652h5.405c7.502 0 7.502 12.603 0 12.603h-5.405v-12.603z"/><path fill="#757575" d="M217.586 312.423l.297-.302v-15.606h-4.502z"/><path fill="#757575" d="M434.569 277.606H413.862h20.406z"/><path fill="#757575" d="M436.971 277.908c-.603-.302-1.201-.302-1.502-.302.301 0 .899 0 1.502.302z"/><path fill="#757575" d="M223.887 396.456l-2.699-.899-8.703 2.397H225.987l-.598-1.201z"/><path fill="#757575" d="M268.606 388.652c-1.502-2.401-2.703-5.401-2.703-8.702v-7.507h-1.2l-2.101.302H258.4l-2.4.301h-12.904c-3.004-.301-6.004-.301-9.004-.603l1.498 6.306c1.205 4.201 0 8.703-2.699 11.703l5.101-1.8h30.614z"/></g><metadata><rdf:RDF xmlns:rdf="http://www.w3.org/1999/02/22-rdf-syntax-ns#" xmlns:rdfs="http://www.w3.org/2000/01/rdf-schema#" xmlns:dc="http://purl.org/dc/elements/1.1/"><rdf:Description about="https://iconscout.com/legal#licenses" dc:title="tools" dc:description="tools" dc:publisher="Iconscout" dc:date="2017-09-22" dc:format="image/svg+xml" dc:language="en"><dc:creator><rdf:Bag><rdf:li>Graphiqa Stock</rdf:li></rdf:Bag></dc:creator></rdf:Description></rdf:RDF></metadata></svg>